<?xml version="1.0" encoding="UTF-8" standalone="no"?>
<!DOCTYPE svg PUBLIC "-//W3C//DTD SVG 1.1//EN"
 "http://www.w3.org/Graphics/SVG/1.1/DTD/svg11.dtd">
<!-- Generated by graphviz version 2.43.0 (0)
 -->
<!-- Title: G Pages: 1 -->
<svg width="2403pt" height="897pt"
 viewBox="0.00 0.00 2403.20 897.23" xmlns="http://www.w3.org/2000/svg" xmlns:xlink="http://www.w3.org/1999/xlink">
<g id="graph0" class="graph" transform="scale(1 1) rotate(0) translate(21.6 875.63)">
<title>G</title>
<polygon fill="#111111" stroke="transparent" points="-21.6,21.6 -21.6,-875.63 2381.6,-875.63 2381.6,21.6 -21.6,21.6"/>
<!-- app.js -->
<g id="node1" class="node">
<title>app.js</title>
<path fill="none" stroke="#c6c5fe" d="M46.33,-241C46.33,-241 7.67,-241 7.67,-241 3.83,-241 0,-237.17 0,-233.33 0,-233.33 0,-225.67 0,-225.67 0,-221.83 3.83,-218 7.67,-218 7.67,-218 46.33,-218 46.33,-218 50.17,-218 54,-221.83 54,-225.67 54,-225.67 54,-233.33 54,-233.33 54,-237.17 50.17,-241 46.33,-241"/>
<text text-anchor="middle" x="27" y="-225.8" font-family="Arial" font-size="14.00" fill="#c6c5fe">app.js</text>
</g>
<!-- src/gameManager.js -->
<g id="node2" class="node">
<title>src/gameManager.js</title>
<path fill="none" stroke="#c6c5fe" d="M222.33,-430C222.33,-430 97.67,-430 97.67,-430 93.83,-430 90,-426.17 90,-422.33 90,-422.33 90,-414.67 90,-414.67 90,-410.83 93.83,-407 97.67,-407 97.67,-407 222.33,-407 222.33,-407 226.17,-407 230,-410.83 230,-414.67 230,-414.67 230,-422.33 230,-422.33 230,-426.17 226.17,-430 222.33,-430"/>
<text text-anchor="middle" x="160" y="-414.8" font-family="Arial" font-size="14.00" fill="#c6c5fe">src/gameManager.js</text>
</g>
<!-- app.js&#45;&gt;src/gameManager.js -->
<g id="edge1" class="edge">
<title>app.js&#45;&gt;src/gameManager.js</title>
<path fill="none" stroke="#757575" d="M36,-241.04C57.6,-272.2 117.33,-358.38 144.82,-398.04"/>
<polygon fill="#757575" stroke="#757575" points="142.2,-400.41 150.77,-406.63 147.95,-396.42 142.2,-400.41"/>
</g>
<!-- src/startScreen.js -->
<g id="node3" class="node">
<title>src/startScreen.js</title>
<path fill="none" stroke="#c6c5fe" d="M379.33,-23C379.33,-23 273.67,-23 273.67,-23 269.83,-23 266,-19.17 266,-15.33 266,-15.33 266,-7.67 266,-7.67 266,-3.83 269.83,0 273.67,0 273.67,0 379.33,0 379.33,0 383.17,0 387,-3.83 387,-7.67 387,-7.67 387,-15.33 387,-15.33 387,-19.17 383.17,-23 379.33,-23"/>
<text text-anchor="middle" x="326.5" y="-7.8" font-family="Arial" font-size="14.00" fill="#c6c5fe">src/startScreen.js</text>
</g>
<!-- app.js&#45;&gt;src/startScreen.js -->
<g id="edge2" class="edge">
<title>app.js&#45;&gt;src/startScreen.js</title>
<path fill="none" stroke="#757575" d="M40.01,-217.82C73.48,-185.73 171.6,-94.78 266,-37.5 272.02,-33.85 278.65,-30.43 285.23,-27.35"/>
<polygon fill="#757575" stroke="#757575" points="287.05,-30.36 294.75,-23.08 284.2,-23.97 287.05,-30.36"/>
</g>
<!-- src/Boss.js -->
<g id="node4" class="node">
<title>src/Boss.js</title>
<path fill="none" stroke="#c6c5fe" d="M359.83,-549C359.83,-549 293.17,-549 293.17,-549 289.33,-549 285.5,-545.17 285.5,-541.33 285.5,-541.33 285.5,-533.67 285.5,-533.67 285.5,-529.83 289.33,-526 293.17,-526 293.17,-526 359.83,-526 359.83,-526 363.67,-526 367.5,-529.83 367.5,-533.67 367.5,-533.67 367.5,-541.33 367.5,-541.33 367.5,-545.17 363.67,-549 359.83,-549"/>
<text text-anchor="middle" x="326.5" y="-533.8" font-family="Arial" font-size="14.00" fill="#c6c5fe">src/Boss.js</text>
</g>
<!-- src/gameManager.js&#45;&gt;src/Boss.js -->
<g id="edge11" class="edge">
<title>src/gameManager.js&#45;&gt;src/Boss.js</title>
<path fill="none" stroke="#757575" d="M177.07,-430.13C205.87,-450.96 266.43,-494.77 300.62,-519.5"/>
<polygon fill="#757575" stroke="#757575" points="298.96,-522.62 309.12,-525.65 303.07,-516.95 298.96,-522.62"/>
</g>
<!-- src/enemy.js -->
<g id="node5" class="node">
<title>src/enemy.js</title>
<path fill="none" stroke="#ff6c60" d="M507.33,-499C507.33,-499 430.67,-499 430.67,-499 426.83,-499 423,-495.17 423,-491.33 423,-491.33 423,-483.67 423,-483.67 423,-479.83 426.83,-476 430.67,-476 430.67,-476 507.33,-476 507.33,-476 511.17,-476 515,-479.83 515,-483.67 515,-483.67 515,-491.33 515,-491.33 515,-495.17 511.17,-499 507.33,-499"/>
<text text-anchor="middle" x="469" y="-483.8" font-family="Arial" font-size="14.00" fill="#ff6c60">src/enemy.js</text>
</g>
<!-- src/gameManager.js&#45;&gt;src/enemy.js -->
<g id="edge14" class="edge">
<title>src/gameManager.js&#45;&gt;src/enemy.js</title>
<path fill="none" stroke="#757575" d="M212.38,-430.05C267.94,-442.54 356.15,-462.36 413.05,-475.15"/>
<polygon fill="#757575" stroke="#757575" points="412.43,-478.6 422.95,-477.38 413.96,-471.77 412.43,-478.6"/>
</g>
<!-- src/levelCompleteScreen.js -->
<g id="node7" class="node">
<title>src/levelCompleteScreen.js</title>
<path fill="none" stroke="#cfffac" d="M2157.33,-634C2157.33,-634 1991.67,-634 1991.67,-634 1987.83,-634 1984,-630.17 1984,-626.33 1984,-626.33 1984,-618.67 1984,-618.67 1984,-614.83 1987.83,-611 1991.67,-611 1991.67,-611 2157.33,-611 2157.33,-611 2161.17,-611 2165,-614.83 2165,-618.67 2165,-618.67 2165,-626.33 2165,-626.33 2165,-630.17 2161.17,-634 2157.33,-634"/>
<text text-anchor="middle" x="2074.5" y="-618.8" font-family="Arial" font-size="14.00" fill="#cfffac">src/levelCompleteScreen.js</text>
</g>
<!-- src/gameManager.js&#45;&gt;src/levelCompleteScreen.js -->
<g id="edge16" class="edge">
<title>src/gameManager.js&#45;&gt;src/levelCompleteScreen.js</title>
<path fill="none" stroke="#757575" d="M162.44,-430.27C168,-470.85 191.62,-606.74 266,-683.5 438.94,-861.97 796.68,-853.5 1116,-853.5 1116,-853.5 1116,-853.5 1629.5,-853.5 1782.23,-853.5 1838.22,-830.68 1948,-724.5 1976.32,-697.11 1953.65,-668.62 1984,-643.5 1985.99,-641.85 1988.09,-640.33 1990.27,-638.92"/>
<polygon fill="#757575" stroke="#757575" points="1992.01,-641.96 1999.05,-634.04 1988.61,-635.84 1992.01,-641.96"/>
</g>
<!-- src/ammo.js -->
<g id="node8" class="node">
<title>src/ammo.js</title>
<path fill="none" stroke="#ff6c60" d="M1865.33,-715C1865.33,-715 1789.67,-715 1789.67,-715 1785.83,-715 1782,-711.17 1782,-707.33 1782,-707.33 1782,-699.67 1782,-699.67 1782,-695.83 1785.83,-692 1789.67,-692 1789.67,-692 1865.33,-692 1865.33,-692 1869.17,-692 1873,-695.83 1873,-699.67 1873,-699.67 1873,-707.33 1873,-707.33 1873,-711.17 1869.17,-715 1865.33,-715"/>
<text text-anchor="middle" x="1827.5" y="-699.8" font-family="Arial" font-size="14.00" fill="#ff6c60">src/ammo.js</text>
</g>
<!-- src/gameManager.js&#45;&gt;src/ammo.js -->
<g id="edge12" class="edge">
<title>src/gameManager.js&#45;&gt;src/ammo.js</title>
<path fill="none" stroke="#757575" d="M162.11,-430.33C168.21,-492.22 199.69,-778 266,-829.5 308.47,-862.49 333.22,-830.02 387,-829.5 711.04,-826.39 791.94,-815.5 1116,-815.5 1116,-815.5 1116,-815.5 1284.5,-815.5 1474.36,-815.5 1694.03,-748.78 1784.38,-718.33"/>
<polygon fill="#757575" stroke="#757575" points="1785.65,-721.6 1793.99,-715.06 1783.4,-714.97 1785.65,-721.6"/>
</g>
<!-- src/background.js -->
<g id="node10" class="node">
<title>src/background.js</title>
<path fill="none" stroke="#cfffac" d="M1880.83,-255C1880.83,-255 1774.17,-255 1774.17,-255 1770.33,-255 1766.5,-251.17 1766.5,-247.33 1766.5,-247.33 1766.5,-239.67 1766.5,-239.67 1766.5,-235.83 1770.33,-232 1774.17,-232 1774.17,-232 1880.83,-232 1880.83,-232 1884.67,-232 1888.5,-235.83 1888.5,-239.67 1888.5,-239.67 1888.5,-247.33 1888.5,-247.33 1888.5,-251.17 1884.67,-255 1880.83,-255"/>
<text text-anchor="middle" x="1827.5" y="-239.8" font-family="Arial" font-size="14.00" fill="#cfffac">src/background.js</text>
</g>
<!-- src/gameManager.js&#45;&gt;src/background.js -->
<g id="edge13" class="edge">
<title>src/gameManager.js&#45;&gt;src/background.js</title>
<path fill="none" stroke="#757575" d="M167.31,-406.97C195.34,-357.48 313.98,-165.5 468,-165.5 468,-165.5 468,-165.5 1118,-165.5 1352.94,-165.5 1629.09,-208.4 1756.1,-230.57"/>
<polygon fill="#757575" stroke="#757575" points="1755.64,-234.04 1766.09,-232.32 1756.85,-227.15 1755.64,-234.04"/>
</g>
<!-- src/keyboard.js -->
<g id="node13" class="node">
<title>src/keyboard.js</title>
<path fill="none" stroke="#ff6c60" d="M1329.33,-580C1329.33,-580 1237.67,-580 1237.67,-580 1233.83,-580 1230,-576.17 1230,-572.33 1230,-572.33 1230,-564.67 1230,-564.67 1230,-560.83 1233.83,-557 1237.67,-557 1237.67,-557 1329.33,-557 1329.33,-557 1333.17,-557 1337,-560.83 1337,-564.67 1337,-564.67 1337,-572.33 1337,-572.33 1337,-576.17 1333.17,-580 1329.33,-580"/>
<text text-anchor="middle" x="1283.5" y="-564.8" font-family="Arial" font-size="14.00" fill="#ff6c60">src/keyboard.js</text>
</g>
<!-- src/gameManager.js&#45;&gt;src/keyboard.js -->
<g id="edge15" class="edge">
<title>src/gameManager.js&#45;&gt;src/keyboard.js</title>
<path fill="none" stroke="#757575" d="M167.8,-430.32C196.92,-479.26 316.62,-663.5 468,-663.5 468,-663.5 468,-663.5 931.5,-663.5 1051.35,-663.5 1186.47,-611.26 1248.3,-584.25"/>
<polygon fill="#757575" stroke="#757575" points="1249.86,-587.39 1257.59,-580.15 1247.02,-580.99 1249.86,-587.39"/>
</g>
<!-- src/music.js -->
<g id="node14" class="node">
<title>src/music.js</title>
<path fill="none" stroke="#cfffac" d="M2110.83,-215C2110.83,-215 2038.17,-215 2038.17,-215 2034.33,-215 2030.5,-211.17 2030.5,-207.33 2030.5,-207.33 2030.5,-199.67 2030.5,-199.67 2030.5,-195.83 2034.33,-192 2038.17,-192 2038.17,-192 2110.83,-192 2110.83,-192 2114.67,-192 2118.5,-195.83 2118.5,-199.67 2118.5,-199.67 2118.5,-207.33 2118.5,-207.33 2118.5,-211.17 2114.67,-215 2110.83,-215"/>
<text text-anchor="middle" x="2074.5" y="-199.8" font-family="Arial" font-size="14.00" fill="#cfffac">src/music.js</text>
</g>
<!-- src/gameManager.js&#45;&gt;src/music.js -->
<g id="edge17" class="edge">
<title>src/gameManager.js&#45;&gt;src/music.js</title>
<path fill="none" stroke="#757575" d="M163.19,-406.84C170.74,-369.52 199.06,-251.48 266,-183.5 335.48,-112.95 368.98,-89.5 468,-89.5 468,-89.5 468,-89.5 1284.5,-89.5 1564.11,-89.5 1893.79,-160.5 2020.36,-190.44"/>
<polygon fill="#757575" stroke="#757575" points="2019.66,-193.87 2030.2,-192.78 2021.28,-187.06 2019.66,-193.87"/>
</g>
<!-- src/player/Player.js -->
<g id="node15" class="node">
<title>src/player/Player.js</title>
<path fill="none" stroke="#ff6c60" d="M1174.33,-479C1174.33,-479 1059.67,-479 1059.67,-479 1055.83,-479 1052,-475.17 1052,-471.33 1052,-471.33 1052,-463.67 1052,-463.67 1052,-459.83 1055.83,-456 1059.67,-456 1059.67,-456 1174.33,-456 1174.33,-456 1178.17,-456 1182,-459.83 1182,-463.67 1182,-463.67 1182,-471.33 1182,-471.33 1182,-475.17 1178.17,-479 1174.33,-479"/>
<text text-anchor="middle" x="1117" y="-463.8" font-family="Arial" font-size="14.00" fill="#ff6c60">src/player/Player.js</text>
</g>
<!-- src/gameManager.js&#45;&gt;src/player/Player.js -->
<g id="edge18" class="edge">
<title>src/gameManager.js&#45;&gt;src/player/Player.js</title>
<path fill="none" stroke="#757575" d="M230.08,-420.91C348.57,-425.18 598.19,-434.74 809,-446.5 888.58,-450.94 979.67,-457.34 1041.83,-461.9"/>
<polygon fill="#757575" stroke="#757575" points="1041.71,-465.4 1051.94,-462.65 1042.22,-458.42 1041.71,-465.4"/>
</g>
<!-- src/rendering/Helpers.js -->
<g id="node16" class="node">
<title>src/rendering/Helpers.js</title>
<path fill="none" stroke="#cfffac" d="M2352.33,-63C2352.33,-63 2208.67,-63 2208.67,-63 2204.83,-63 2201,-59.17 2201,-55.33 2201,-55.33 2201,-47.67 2201,-47.67 2201,-43.83 2204.83,-40 2208.67,-40 2208.67,-40 2352.33,-40 2352.33,-40 2356.17,-40 2360,-43.83 2360,-47.67 2360,-47.67 2360,-55.33 2360,-55.33 2360,-59.17 2356.17,-63 2352.33,-63"/>
<text text-anchor="middle" x="2280.5" y="-47.8" font-family="Arial" font-size="14.00" fill="#cfffac">src/rendering/Helpers.js</text>
</g>
<!-- src/gameManager.js&#45;&gt;src/rendering/Helpers.js -->
<g id="edge19" class="edge">
<title>src/gameManager.js&#45;&gt;src/rendering/Helpers.js</title>
<path fill="none" stroke="#757575" d="M160.93,-406.94C161.33,-360.12 169.37,-182.93 266,-95.5 334.13,-33.85 376.12,-51.5 468,-51.5 468,-51.5 468,-51.5 931.5,-51.5 1169.88,-51.5 1228.12,-13.5 1466.5,-13.5 1466.5,-13.5 1466.5,-13.5 1828.5,-13.5 1954.6,-13.5 2099.84,-28.43 2190.66,-39.58"/>
<polygon fill="#757575" stroke="#757575" points="2190.29,-43.06 2200.64,-40.81 2191.15,-36.11 2190.29,-43.06"/>
</g>
<!-- src/speedometer.js -->
<g id="node17" class="node">
<title>src/speedometer.js</title>
<path fill="none" stroke="#cfffac" d="M1341.33,-698C1341.33,-698 1225.67,-698 1225.67,-698 1221.83,-698 1218,-694.17 1218,-690.33 1218,-690.33 1218,-682.67 1218,-682.67 1218,-678.83 1221.83,-675 1225.67,-675 1225.67,-675 1341.33,-675 1341.33,-675 1345.17,-675 1349,-678.83 1349,-682.67 1349,-682.67 1349,-690.33 1349,-690.33 1349,-694.17 1345.17,-698 1341.33,-698"/>
<text text-anchor="middle" x="1283.5" y="-682.8" font-family="Arial" font-size="14.00" fill="#cfffac">src/speedometer.js</text>
</g>
<!-- src/gameManager.js&#45;&gt;src/speedometer.js -->
<g id="edge20" class="edge">
<title>src/gameManager.js&#45;&gt;src/speedometer.js</title>
<path fill="none" stroke="#757575" d="M164.68,-430.09C175.54,-462.8 210.23,-557.32 266,-616.5 338.09,-693 362.89,-739.5 468,-739.5 468,-739.5 468,-739.5 931.5,-739.5 1036.64,-739.5 1157.54,-715.96 1226.49,-700.26"/>
<polygon fill="#757575" stroke="#757575" points="1227.32,-703.66 1236.28,-698 1225.75,-696.84 1227.32,-703.66"/>
</g>
<!-- src/step.js -->
<g id="node18" class="node">
<title>src/step.js</title>
<path fill="none" stroke="#ff6c60" d="M1659.33,-416C1659.33,-416 1597.67,-416 1597.67,-416 1593.83,-416 1590,-412.17 1590,-408.33 1590,-408.33 1590,-400.67 1590,-400.67 1590,-396.83 1593.83,-393 1597.67,-393 1597.67,-393 1659.33,-393 1659.33,-393 1663.17,-393 1667,-396.83 1667,-400.67 1667,-400.67 1667,-408.33 1667,-408.33 1667,-412.17 1663.17,-416 1659.33,-416"/>
<text text-anchor="middle" x="1628.5" y="-400.8" font-family="Arial" font-size="14.00" fill="#ff6c60">src/step.js</text>
</g>
<!-- src/gameManager.js&#45;&gt;src/step.js -->
<g id="edge21" class="edge">
<title>src/gameManager.js&#45;&gt;src/step.js</title>
<path fill="none" stroke="#757575" d="M174.98,-406.89C216.65,-373.48 344.84,-279.5 468,-279.5 468,-279.5 468,-279.5 1118,-279.5 1300.04,-279.5 1508.41,-355.7 1591.02,-389.11"/>
<polygon fill="#757575" stroke="#757575" points="1589.88,-392.42 1600.46,-392.96 1592.53,-385.94 1589.88,-392.42"/>
</g>
<!-- src/startScreen.js&#45;&gt;src/music.js -->
<g id="edge45" class="edge">
<title>src/startScreen.js&#45;&gt;src/music.js</title>
<path fill="none" stroke="#757575" d="M387.21,-12.05C457.14,-12.64 576.48,-13.5 679,-13.5 679,-13.5 679,-13.5 931.5,-13.5 1158.48,-13.5 1735.58,-33.52 1948,-113.5 1990.42,-129.47 2031.55,-163.6 2054.59,-184.94"/>
<polygon fill="#757575" stroke="#757575" points="2052.28,-187.58 2061.96,-191.9 2057.09,-182.49 2052.28,-187.58"/>
</g>
<!-- src/Boss.js&#45;&gt;src/enemy.js -->
<g id="edge3" class="edge">
<title>src/Boss.js&#45;&gt;src/enemy.js</title>
<path fill="none" stroke="#757575" d="M360.09,-525.9C379.68,-518.93 404.83,-509.98 425.91,-502.48"/>
<polygon fill="#757575" stroke="#757575" points="427.34,-505.68 435.59,-499.03 425,-499.09 427.34,-505.68"/>
</g>
<!-- src/gatling.js -->
<g id="node6" class="node">
<title>src/gatling.js</title>
<path fill="none" stroke="#ff6c60" d="M968.83,-560C968.83,-560 892.17,-560 892.17,-560 888.33,-560 884.5,-556.17 884.5,-552.33 884.5,-552.33 884.5,-544.67 884.5,-544.67 884.5,-540.83 888.33,-537 892.17,-537 892.17,-537 968.83,-537 968.83,-537 972.67,-537 976.5,-540.83 976.5,-544.67 976.5,-544.67 976.5,-552.33 976.5,-552.33 976.5,-556.17 972.67,-560 968.83,-560"/>
<text text-anchor="middle" x="930.5" y="-544.8" font-family="Arial" font-size="14.00" fill="#ff6c60">src/gatling.js</text>
</g>
<!-- src/Boss.js&#45;&gt;src/gatling.js -->
<g id="edge4" class="edge">
<title>src/Boss.js&#45;&gt;src/gatling.js</title>
<path fill="none" stroke="#757575" d="M367.81,-541.96C412.51,-546.67 486.8,-553.78 551,-556.5 665.56,-561.36 694.4,-560.3 809,-556.5 830.33,-555.79 853.75,-554.38 874.23,-552.94"/>
<polygon fill="#757575" stroke="#757575" points="874.61,-556.42 884.33,-552.21 874.1,-549.44 874.61,-556.42"/>
</g>
<!-- src/Boss.js&#45;&gt;src/levelCompleteScreen.js -->
<g id="edge5" class="edge">
<title>src/Boss.js&#45;&gt;src/levelCompleteScreen.js</title>
<path fill="none" stroke="#757575" d="M343.32,-549.08C410.44,-597.02 679.72,-777.5 929.5,-777.5 929.5,-777.5 929.5,-777.5 1284.5,-777.5 1476.87,-777.5 1518.16,-720.19 1707,-683.5 1802.25,-664.99 1912.1,-647.17 1986.51,-635.62"/>
<polygon fill="#757575" stroke="#757575" points="1987.42,-639.02 1996.77,-634.04 1986.35,-632.11 1987.42,-639.02"/>
</g>
<!-- src/enemy.js&#45;&gt;src/gatling.js -->
<g id="edge9" class="edge">
<title>src/enemy.js&#45;&gt;src/gatling.js</title>
<path fill="none" stroke="#757575" d="M487.12,-499.16C502.92,-509.22 527.45,-523.13 551,-529.5 662.61,-559.7 799.35,-557.39 874.12,-552.97"/>
<polygon fill="#757575" stroke="#757575" points="874.49,-556.46 884.25,-552.34 874.05,-549.47 874.49,-556.46"/>
</g>
<!-- src/enemyManoeuvre.js -->
<g id="node11" class="node">
<title>src/enemyManoeuvre.js</title>
<path fill="none" stroke="#cfffac" d="M752.83,-520C752.83,-520 607.17,-520 607.17,-520 603.33,-520 599.5,-516.17 599.5,-512.33 599.5,-512.33 599.5,-504.67 599.5,-504.67 599.5,-500.83 603.33,-497 607.17,-497 607.17,-497 752.83,-497 752.83,-497 756.67,-497 760.5,-500.83 760.5,-504.67 760.5,-504.67 760.5,-512.33 760.5,-512.33 760.5,-516.17 756.67,-520 752.83,-520"/>
<text text-anchor="middle" x="680" y="-504.8" font-family="Arial" font-size="14.00" fill="#cfffac">src/enemyManoeuvre.js</text>
</g>
<!-- src/enemy.js&#45;&gt;src/enemyManoeuvre.js -->
<g id="edge8" class="edge">
<title>src/enemy.js&#45;&gt;src/enemyManoeuvre.js</title>
<path fill="none" stroke="#757575" d="M515.09,-492.03C536.81,-494.21 563.65,-496.91 589.29,-499.49"/>
<polygon fill="#757575" stroke="#757575" points="589.11,-502.99 599.41,-500.5 589.81,-496.02 589.11,-502.99"/>
</g>
<!-- src/rendering/EnemyCollisionsChecks.js -->
<g id="node12" class="node">
<title>src/rendering/EnemyCollisionsChecks.js</title>
<path fill="none" stroke="#c6c5fe" d="M801.33,-479C801.33,-479 558.67,-479 558.67,-479 554.83,-479 551,-475.17 551,-471.33 551,-471.33 551,-463.67 551,-463.67 551,-459.83 554.83,-456 558.67,-456 558.67,-456 801.33,-456 801.33,-456 805.17,-456 809,-459.83 809,-463.67 809,-463.67 809,-471.33 809,-471.33 809,-475.17 805.17,-479 801.33,-479"/>
<text text-anchor="middle" x="680" y="-463.8" font-family="Arial" font-size="14.00" fill="#c6c5fe">src/rendering/EnemyCollisionsChecks.js</text>
</g>
<!-- src/enemy.js&#45;&gt;src/rendering/EnemyCollisionsChecks.js -->
<g id="edge10" class="edge">
<title>src/enemy.js&#45;&gt;src/rendering/EnemyCollisionsChecks.js</title>
<path fill="none" stroke="#757575" d="M515.09,-483.18C525.31,-482.21 536.67,-481.12 548.49,-479.99"/>
<polygon fill="#757575" stroke="#757575" points="548.91,-483.47 558.53,-479.03 548.24,-476.5 548.91,-483.47"/>
</g>
<!-- src/gatling.js&#45;&gt;src/music.js -->
<g id="edge25" class="edge">
<title>src/gatling.js&#45;&gt;src/music.js</title>
<path fill="none" stroke="#757575" d="M976.67,-545.6C990.52,-542.79 1005,-537.67 1016,-528.5 1046.58,-503.02 1024.08,-474.86 1052,-446.5 1156.35,-340.51 1531.53,-253.13 1707,-222.5 1817.07,-203.28 1948.33,-201.48 2020.09,-202.25"/>
<polygon fill="#757575" stroke="#757575" points="2020.2,-205.75 2030.24,-202.38 2020.29,-198.75 2020.2,-205.75"/>
</g>
<!-- src/gatling.js&#45;&gt;src/player/Player.js -->
<g id="edge26" class="edge">
<title>src/gatling.js&#45;&gt;src/player/Player.js</title>
<path fill="none" stroke="#757575" d="M976.57,-542.51C989.82,-539.53 1003.97,-535.1 1016,-528.5 1035.56,-517.76 1033.32,-505.7 1052,-493.5 1057.87,-489.67 1064.39,-486.23 1070.97,-483.2"/>
<polygon fill="#757575" stroke="#757575" points="1072.77,-486.24 1080.57,-479.07 1070,-479.81 1072.77,-486.24"/>
</g>
<!-- src/ammo.js&#45;&gt;src/gatling.js -->
<g id="edge6" class="edge">
<title>src/ammo.js&#45;&gt;src/gatling.js</title>
<path fill="none" stroke="#757575" d="M1781.69,-702.11C1701.58,-699.07 1528.71,-690.05 1385,-665.5 1233.77,-639.67 1059.12,-588.36 977.71,-563.16"/>
<polygon fill="#757575" stroke="#757575" points="978.38,-559.7 967.79,-560.07 976.3,-566.38 978.38,-559.7"/>
</g>
<!-- src/rocket.js -->
<g id="node9" class="node">
<title>src/rocket.js</title>
<path fill="none" stroke="#c6c5fe" d="M2111.33,-675C2111.33,-675 2037.67,-675 2037.67,-675 2033.83,-675 2030,-671.17 2030,-667.33 2030,-667.33 2030,-659.67 2030,-659.67 2030,-655.83 2033.83,-652 2037.67,-652 2037.67,-652 2111.33,-652 2111.33,-652 2115.17,-652 2119,-655.83 2119,-659.67 2119,-659.67 2119,-667.33 2119,-667.33 2119,-671.17 2115.17,-675 2111.33,-675"/>
<text text-anchor="middle" x="2074.5" y="-659.8" font-family="Arial" font-size="14.00" fill="#c6c5fe">src/rocket.js</text>
</g>
<!-- src/ammo.js&#45;&gt;src/rocket.js -->
<g id="edge7" class="edge">
<title>src/ammo.js&#45;&gt;src/rocket.js</title>
<path fill="none" stroke="#757575" d="M1873.15,-696.21C1914.51,-689.46 1976.08,-679.4 2020.04,-672.23"/>
<polygon fill="#757575" stroke="#757575" points="2020.67,-675.67 2029.98,-670.61 2019.55,-668.76 2020.67,-675.67"/>
</g>
<!-- src/rocket.js&#45;&gt;src/rendering/Helpers.js -->
<g id="edge44" class="edge">
<title>src/rocket.js&#45;&gt;src/rendering/Helpers.js</title>
<path fill="none" stroke="#757575" d="M2119.1,-663.48C2135.55,-661.22 2153.13,-655.72 2165,-643.5 2246.57,-559.54 2273.01,-170.46 2278.38,-73.46"/>
<polygon fill="#757575" stroke="#757575" points="2281.89,-73.52 2278.93,-63.34 2274.9,-73.14 2281.89,-73.52"/>
</g>
<!-- src/rendering/EnemyCollisionsChecks.js&#45;&gt;src/gatling.js -->
<g id="edge38" class="edge">
<title>src/rendering/EnemyCollisionsChecks.js&#45;&gt;src/gatling.js</title>
<path fill="none" stroke="#757575" d="M789.99,-479.02C796.59,-481.39 802.99,-484.2 809,-487.5 830.25,-499.18 824.22,-516 845,-528.5 853.91,-533.86 864.15,-537.78 874.36,-540.65"/>
<polygon fill="#757575" stroke="#757575" points="873.54,-544.05 884.09,-543.09 875.25,-537.26 873.54,-544.05"/>
</g>
<!-- src/rendering/EnemyCollisionsChecks.js&#45;&gt;src/rocket.js -->
<g id="edge43" class="edge">
<title>src/rendering/EnemyCollisionsChecks.js&#45;&gt;src/rocket.js</title>
<path fill="none" stroke="#757575" d="M795.6,-479.05C800.31,-481.48 804.81,-484.28 809,-487.5 840.54,-511.78 816.03,-542.2 845,-569.5 1128.29,-836.46 1317.8,-717.74 1707,-724.5 1814.09,-726.36 1843.62,-748.52 1948,-724.5 1984.63,-716.07 2022.97,-695.45 2047.48,-680.51"/>
<polygon fill="#757575" stroke="#757575" points="2049.53,-683.36 2056.17,-675.1 2045.83,-677.42 2049.53,-683.36"/>
</g>
<!-- src/rendering/EnemyCollisionsChecks.js&#45;&gt;src/music.js -->
<g id="edge39" class="edge">
<title>src/rendering/EnemyCollisionsChecks.js&#45;&gt;src/music.js</title>
<path fill="none" stroke="#757575" d="M709.73,-455.99C829.35,-408.92 1300.52,-232.11 1707,-199.5 1818.09,-190.59 1948.71,-195.74 2020.15,-199.89"/>
<polygon fill="#757575" stroke="#757575" points="2020.06,-203.39 2030.25,-200.49 2020.48,-196.4 2020.06,-203.39"/>
</g>
<!-- src/rendering/EnemyCollisionsChecks.js&#45;&gt;src/player/Player.js -->
<g id="edge40" class="edge">
<title>src/rendering/EnemyCollisionsChecks.js&#45;&gt;src/player/Player.js</title>
<path fill="none" stroke="#757575" d="M809.16,-467.5C884.77,-467.5 977.82,-467.5 1041.5,-467.5"/>
<polygon fill="#757575" stroke="#757575" points="1041.85,-471 1051.85,-467.5 1041.85,-464 1041.85,-471"/>
</g>
<!-- src/rendering/EnemyCollisionsChecks.js&#45;&gt;src/rendering/Helpers.js -->
<g id="edge42" class="edge">
<title>src/rendering/EnemyCollisionsChecks.js&#45;&gt;src/rendering/Helpers.js</title>
<path fill="none" stroke="#757575" d="M693.06,-455.9C718.8,-431.8 781.9,-376.11 845,-346.5 1319.02,-124.07 1958.71,-68.6 2190.77,-55.41"/>
<polygon fill="#757575" stroke="#757575" points="2191.05,-58.9 2200.84,-54.85 2190.66,-51.91 2191.05,-58.9"/>
</g>
<!-- src/rendering/Explosion.js -->
<g id="node24" class="node">
<title>src/rendering/Explosion.js</title>
<path fill="none" stroke="#cfffac" d="M1008.33,-519C1008.33,-519 852.67,-519 852.67,-519 848.83,-519 845,-515.17 845,-511.33 845,-511.33 845,-503.67 845,-503.67 845,-499.83 848.83,-496 852.67,-496 852.67,-496 1008.33,-496 1008.33,-496 1012.17,-496 1016,-499.83 1016,-503.67 1016,-503.67 1016,-511.33 1016,-511.33 1016,-515.17 1012.17,-519 1008.33,-519"/>
<text text-anchor="middle" x="930.5" y="-503.8" font-family="Arial" font-size="14.00" fill="#cfffac">src/rendering/Explosion.js</text>
</g>
<!-- src/rendering/EnemyCollisionsChecks.js&#45;&gt;src/rendering/Explosion.js -->
<g id="edge41" class="edge">
<title>src/rendering/EnemyCollisionsChecks.js&#45;&gt;src/rendering/Explosion.js</title>
<path fill="none" stroke="#757575" d="M755.47,-479.01C773.03,-481.76 791.68,-484.71 809,-487.5 822.48,-489.67 836.8,-492.02 850.68,-494.31"/>
<polygon fill="#757575" stroke="#757575" points="850.26,-497.79 860.7,-495.96 851.4,-490.88 850.26,-497.79"/>
</g>
<!-- src/keyboard.js&#45;&gt;src/gatling.js -->
<g id="edge28" class="edge">
<title>src/keyboard.js&#45;&gt;src/gatling.js</title>
<path fill="none" stroke="#757575" d="M1229.78,-565.5C1164.43,-561.77 1053.56,-555.45 986.96,-551.66"/>
<polygon fill="#757575" stroke="#757575" points="986.85,-548.15 976.67,-551.07 986.45,-555.14 986.85,-548.15"/>
</g>
<!-- src/keyboard.js&#45;&gt;src/rocket.js -->
<g id="edge31" class="edge">
<title>src/keyboard.js&#45;&gt;src/rocket.js</title>
<path fill="none" stroke="#757575" d="M1299.99,-580.19C1325.74,-599.51 1375.48,-636.29 1385,-639.5 1502.07,-678.94 1878.54,-670.36 2019.52,-665.57"/>
<polygon fill="#757575" stroke="#757575" points="2019.78,-669.06 2029.66,-665.22 2019.54,-662.07 2019.78,-669.06"/>
</g>
<!-- src/keyboard.js&#45;&gt;src/music.js -->
<g id="edge29" class="edge">
<title>src/keyboard.js&#45;&gt;src/music.js</title>
<path fill="none" stroke="#757575" d="M1332.52,-580.05C1349.05,-583.49 1367.74,-586.8 1385,-588.5 1457.98,-595.69 1477.5,-599.53 1550,-588.5 1733.17,-560.63 1807.77,-585.59 1948,-464.5 2024.59,-398.36 2058.33,-274.88 2069.25,-225.11"/>
<polygon fill="#757575" stroke="#757575" points="2072.71,-225.65 2071.34,-215.14 2065.86,-224.21 2072.71,-225.65"/>
</g>
<!-- src/keyboard.js&#45;&gt;src/player/Player.js -->
<g id="edge30" class="edge">
<title>src/keyboard.js&#45;&gt;src/player/Player.js</title>
<path fill="none" stroke="#757575" d="M1255.34,-556.99C1222.7,-539.21 1168.61,-505.84 1138.99,-485.08"/>
<polygon fill="#757575" stroke="#757575" points="1140.8,-482.06 1130.63,-479.07 1136.71,-487.75 1140.8,-482.06"/>
</g>
<!-- src/gameMenuActions.js -->
<g id="node19" class="node">
<title>src/gameMenuActions.js</title>
<path fill="none" stroke="#ff6c60" d="M1542.33,-559C1542.33,-559 1392.67,-559 1392.67,-559 1388.83,-559 1385,-555.17 1385,-551.33 1385,-551.33 1385,-543.67 1385,-543.67 1385,-539.83 1388.83,-536 1392.67,-536 1392.67,-536 1542.33,-536 1542.33,-536 1546.17,-536 1550,-539.83 1550,-543.67 1550,-543.67 1550,-551.33 1550,-551.33 1550,-555.17 1546.17,-559 1542.33,-559"/>
<text text-anchor="middle" x="1467.5" y="-543.8" font-family="Arial" font-size="14.00" fill="#ff6c60">src/gameMenuActions.js</text>
</g>
<!-- src/keyboard.js&#45;&gt;src/gameMenuActions.js -->
<g id="edge27" class="edge">
<title>src/keyboard.js&#45;&gt;src/gameMenuActions.js</title>
<path fill="none" stroke="#757575" d="M1337.14,-562.43C1348.91,-561.07 1361.71,-559.59 1374.55,-558.11"/>
<polygon fill="#757575" stroke="#757575" points="1375.3,-561.55 1384.83,-556.92 1374.49,-554.59 1375.3,-561.55"/>
</g>
<!-- src/touch.js -->
<g id="node21" class="node">
<title>src/touch.js</title>
<path fill="none" stroke="#c6c5fe" d="M1663.33,-540C1663.33,-540 1593.67,-540 1593.67,-540 1589.83,-540 1586,-536.17 1586,-532.33 1586,-532.33 1586,-524.67 1586,-524.67 1586,-520.83 1589.83,-517 1593.67,-517 1593.67,-517 1663.33,-517 1663.33,-517 1667.17,-517 1671,-520.83 1671,-524.67 1671,-524.67 1671,-532.33 1671,-532.33 1671,-536.17 1667.17,-540 1663.33,-540"/>
<text text-anchor="middle" x="1628.5" y="-524.8" font-family="Arial" font-size="14.00" fill="#c6c5fe">src/touch.js</text>
</g>
<!-- src/keyboard.js&#45;&gt;src/touch.js -->
<g id="edge32" class="edge">
<title>src/keyboard.js&#45;&gt;src/touch.js</title>
<path fill="none" stroke="#757575" d="M1337.01,-575.71C1391.2,-581.48 1477.77,-586.04 1550,-568.5 1568.47,-564.02 1587.45,-554.31 1602.01,-545.59"/>
<polygon fill="#757575" stroke="#757575" points="1604.25,-548.32 1610.89,-540.06 1600.55,-542.38 1604.25,-548.32"/>
</g>
<!-- src/player/Player.js&#45;&gt;src/rocket.js -->
<g id="edge36" class="edge">
<title>src/player/Player.js&#45;&gt;src/rocket.js</title>
<path fill="none" stroke="#757575" d="M1182.1,-465.42C1286.26,-463.55 1498.03,-466.06 1671,-508.5 1818.13,-544.6 1839.89,-596.78 1984,-643.5 1995.48,-647.22 2008,-650.49 2019.95,-653.25"/>
<polygon fill="#757575" stroke="#757575" points="2019.29,-656.69 2029.81,-655.45 2020.81,-649.86 2019.29,-656.69"/>
</g>
<!-- src/player/Player.js&#45;&gt;src/keyboard.js -->
<g id="edge34" class="edge">
<title>src/player/Player.js&#45;&gt;src/keyboard.js</title>
<path fill="none" stroke="#757575" d="M1145.16,-479.01C1177.75,-496.76 1231.68,-530.03 1261.33,-550.8"/>
<polygon fill="#757575" stroke="#757575" points="1259.54,-553.83 1269.71,-556.82 1263.63,-548.14 1259.54,-553.83"/>
</g>
<!-- src/player/Player.js&#45;&gt;src/music.js -->
<g id="edge35" class="edge">
<title>src/player/Player.js&#45;&gt;src/music.js</title>
<path fill="none" stroke="#757575" d="M1132.32,-455.96C1150.95,-441.54 1185.03,-417.08 1218,-403.5 1288.2,-374.58 1310.67,-383.01 1385,-367.5 1527.92,-337.67 1563.36,-328.61 1707,-302.5 1813.76,-283.09 1844.44,-295.9 1948,-263.5 1982.74,-252.63 2020.09,-233.76 2044.92,-220.08"/>
<polygon fill="#757575" stroke="#757575" points="2046.77,-223.05 2053.79,-215.11 2043.36,-216.94 2046.77,-223.05"/>
</g>
<!-- src/player/Player.js&#45;&gt;src/speedometer.js -->
<g id="edge37" class="edge">
<title>src/player/Player.js&#45;&gt;src/speedometer.js</title>
<path fill="none" stroke="#757575" d="M1126.84,-479.27C1153.68,-515.01 1234.4,-622.47 1267.79,-666.92"/>
<polygon fill="#757575" stroke="#757575" points="1265.01,-669.04 1273.81,-674.93 1270.6,-664.84 1265.01,-669.04"/>
</g>
<!-- src/gameOver.js -->
<g id="node20" class="node">
<title>src/gameOver.js</title>
<path fill="none" stroke="#c6c5fe" d="M1877.83,-335C1877.83,-335 1777.17,-335 1777.17,-335 1773.33,-335 1769.5,-331.17 1769.5,-327.33 1769.5,-327.33 1769.5,-319.67 1769.5,-319.67 1769.5,-315.83 1773.33,-312 1777.17,-312 1777.17,-312 1877.83,-312 1877.83,-312 1881.67,-312 1885.5,-315.83 1885.5,-319.67 1885.5,-319.67 1885.5,-327.33 1885.5,-327.33 1885.5,-331.17 1881.67,-335 1877.83,-335"/>
<text text-anchor="middle" x="1827.5" y="-319.8" font-family="Arial" font-size="14.00" fill="#c6c5fe">src/gameOver.js</text>
</g>
<!-- src/player/Player.js&#45;&gt;src/gameOver.js -->
<g id="edge33" class="edge">
<title>src/player/Player.js&#45;&gt;src/gameOver.js</title>
<path fill="none" stroke="#757575" d="M1151.98,-455.92C1171.21,-449.64 1195.78,-442.04 1218,-436.5 1432.66,-383 1489.22,-382.43 1707,-343.5 1723.96,-340.47 1742.31,-337.33 1759.41,-334.46"/>
<polygon fill="#757575" stroke="#757575" points="1760.03,-337.91 1769.32,-332.81 1758.88,-331 1760.03,-337.91"/>
</g>
<!-- src/step.js&#45;&gt;src/enemy.js -->
<g id="edge48" class="edge">
<title>src/step.js&#45;&gt;src/enemy.js</title>
<path fill="none" stroke="#757575" d="M1589.69,-405.44C1541.98,-406.66 1457.4,-408.94 1385,-411.5 1014.24,-424.63 909.97,-352.83 551,-446.5 531.68,-451.54 511.64,-461.64 496.33,-470.55"/>
<polygon fill="#757575" stroke="#757575" points="494.22,-467.73 487.45,-475.89 497.83,-473.73 494.22,-467.73"/>
</g>
<!-- src/step.js&#45;&gt;src/gatling.js -->
<g id="edge50" class="edge">
<title>src/step.js&#45;&gt;src/gatling.js</title>
<path fill="none" stroke="#757575" d="M1604.98,-416.08C1589.8,-423.46 1569.12,-432.7 1550,-438.5 1347.29,-500.03 1096.14,-531.52 986.74,-543.13"/>
<polygon fill="#757575" stroke="#757575" points="986.18,-539.66 976.6,-544.19 986.91,-546.63 986.18,-539.66"/>
</g>
<!-- src/step.js&#45;&gt;src/ammo.js -->
<g id="edge46" class="edge">
<title>src/step.js&#45;&gt;src/ammo.js</title>
<path fill="none" stroke="#757575" d="M1637.22,-416.22C1667.07,-461.53 1775.14,-625.55 1813.16,-683.25"/>
<polygon fill="#757575" stroke="#757575" points="1810.41,-685.44 1818.83,-691.86 1816.25,-681.58 1810.41,-685.44"/>
</g>
<!-- src/step.js&#45;&gt;src/rocket.js -->
<g id="edge54" class="edge">
<title>src/step.js&#45;&gt;src/rocket.js</title>
<path fill="none" stroke="#757575" d="M1667.14,-401.15C1742.41,-395.32 1907.7,-387.13 1948,-423.5 2021.56,-489.87 1915.99,-571.45 1984,-643.5 1993.32,-653.37 2006.36,-658.89 2019.61,-661.85"/>
<polygon fill="#757575" stroke="#757575" points="2019.26,-665.34 2029.72,-663.65 2020.49,-658.45 2019.26,-665.34"/>
</g>
<!-- src/step.js&#45;&gt;src/background.js -->
<g id="edge47" class="edge">
<title>src/step.js&#45;&gt;src/background.js</title>
<path fill="none" stroke="#757575" d="M1635.98,-392.69C1647.79,-372.1 1674.58,-329.25 1707,-302.5 1729.92,-283.59 1759.93,-268.8 1784.14,-258.76"/>
<polygon fill="#757575" stroke="#757575" points="1785.47,-261.99 1793.44,-255.01 1782.86,-255.5 1785.47,-261.99"/>
</g>
<!-- src/step.js&#45;&gt;src/player/Player.js -->
<g id="edge53" class="edge">
<title>src/step.js&#45;&gt;src/player/Player.js</title>
<path fill="none" stroke="#757575" d="M1589.85,-409.16C1505.96,-419.53 1302.41,-444.7 1192.07,-458.34"/>
<polygon fill="#757575" stroke="#757575" points="1191.51,-454.88 1182.01,-459.58 1192.37,-461.83 1191.51,-454.88"/>
</g>
<!-- src/step.js&#45;&gt;src/gameOver.js -->
<g id="edge49" class="edge">
<title>src/step.js&#45;&gt;src/gameOver.js</title>
<path fill="none" stroke="#757575" d="M1640.36,-392.95C1654.34,-378.85 1680.06,-355.41 1707,-343.5 1723.24,-336.32 1741.77,-331.7 1759.31,-328.73"/>
<polygon fill="#757575" stroke="#757575" points="1760.14,-332.14 1769.49,-327.17 1759.08,-325.22 1760.14,-332.14"/>
</g>
<!-- src/mobile/mobileVelocityController.js -->
<g id="node22" class="node">
<title>src/mobile/mobileVelocityController.js</title>
<path fill="none" stroke="#cfffac" d="M1940.33,-376C1940.33,-376 1714.67,-376 1714.67,-376 1710.83,-376 1707,-372.17 1707,-368.33 1707,-368.33 1707,-360.67 1707,-360.67 1707,-356.83 1710.83,-353 1714.67,-353 1714.67,-353 1940.33,-353 1940.33,-353 1944.17,-353 1948,-356.83 1948,-360.67 1948,-360.67 1948,-368.33 1948,-368.33 1948,-372.17 1944.17,-376 1940.33,-376"/>
<text text-anchor="middle" x="1827.5" y="-360.8" font-family="Arial" font-size="14.00" fill="#cfffac">src/mobile/mobileVelocityController.js</text>
</g>
<!-- src/step.js&#45;&gt;src/mobile/mobileVelocityController.js -->
<g id="edge51" class="edge">
<title>src/step.js&#45;&gt;src/mobile/mobileVelocityController.js</title>
<path fill="none" stroke="#757575" d="M1667.02,-396.88C1693.21,-391.56 1728.88,-384.32 1759.85,-378.03"/>
<polygon fill="#757575" stroke="#757575" points="1760.62,-381.45 1769.72,-376.03 1759.23,-374.59 1760.62,-381.45"/>
</g>
<!-- src/mobileJoystick.js -->
<g id="node23" class="node">
<title>src/mobileJoystick.js</title>
<path fill="none" stroke="#cfffac" d="M1889.83,-456C1889.83,-456 1765.17,-456 1765.17,-456 1761.33,-456 1757.5,-452.17 1757.5,-448.33 1757.5,-448.33 1757.5,-440.67 1757.5,-440.67 1757.5,-436.83 1761.33,-433 1765.17,-433 1765.17,-433 1889.83,-433 1889.83,-433 1893.67,-433 1897.5,-436.83 1897.5,-440.67 1897.5,-440.67 1897.5,-448.33 1897.5,-448.33 1897.5,-452.17 1893.67,-456 1889.83,-456"/>
<text text-anchor="middle" x="1827.5" y="-440.8" font-family="Arial" font-size="14.00" fill="#cfffac">src/mobileJoystick.js</text>
</g>
<!-- src/step.js&#45;&gt;src/mobileJoystick.js -->
<g id="edge52" class="edge">
<title>src/step.js&#45;&gt;src/mobileJoystick.js</title>
<path fill="none" stroke="#757575" d="M1667.02,-412.12C1693.21,-417.44 1728.88,-424.68 1759.85,-430.97"/>
<polygon fill="#757575" stroke="#757575" points="1759.23,-434.41 1769.72,-432.97 1760.62,-427.55 1759.23,-434.41"/>
</g>
<!-- src/gameMenuActions.js&#45;&gt;src/step.js -->
<g id="edge22" class="edge">
<title>src/gameMenuActions.js&#45;&gt;src/step.js</title>
<path fill="none" stroke="#757575" d="M1522.77,-535.88C1532.42,-532.28 1541.94,-527.59 1550,-521.5 1583.63,-496.08 1607.2,-451.57 1618.95,-425.39"/>
<polygon fill="#757575" stroke="#757575" points="1622.25,-426.59 1623,-416.02 1615.82,-423.81 1622.25,-426.59"/>
</g>
<!-- src/gameOver.js&#45;&gt;src/levelCompleteScreen.js -->
<g id="edge23" class="edge">
<title>src/gameOver.js&#45;&gt;src/levelCompleteScreen.js</title>
<path fill="none" stroke="#757575" d="M1885.62,-322.06C1907.04,-324.17 1930.43,-329.95 1948,-343.5 2033.79,-409.67 2062.55,-547.54 2070.69,-600.82"/>
<polygon fill="#757575" stroke="#757575" points="2067.24,-601.45 2072.13,-610.86 2074.17,-600.46 2067.24,-601.45"/>
</g>
<!-- src/gameOver.js&#45;&gt;src/music.js -->
<g id="edge24" class="edge">
<title>src/gameOver.js&#45;&gt;src/music.js</title>
<path fill="none" stroke="#757575" d="M1885.73,-316.19C1906,-312.28 1928.59,-306.37 1948,-297.5 1989.86,-278.37 2031.17,-243.51 2054.39,-222.04"/>
<polygon fill="#757575" stroke="#757575" points="2056.94,-224.45 2061.83,-215.05 2052.14,-219.35 2056.94,-224.45"/>
</g>
<!-- src/touch.js&#45;&gt;src/mobileJoystick.js -->
<g id="edge55" class="edge">
<title>src/touch.js&#45;&gt;src/mobileJoystick.js</title>
<path fill="none" stroke="#757575" d="M1656.48,-517C1691.06,-502.25 1751.17,-476.62 1789.87,-460.12"/>
<polygon fill="#757575" stroke="#757575" points="1791.39,-463.28 1799.21,-456.13 1788.64,-456.84 1791.39,-463.28"/>
</g>
</g>
</svg>
