<?xml version="1.0" encoding="UTF-8" standalone="no"?>
<!DOCTYPE svg PUBLIC "-//W3C//DTD SVG 1.1//EN"
 "http://www.w3.org/Graphics/SVG/1.1/DTD/svg11.dtd">
<!-- Generated by graphviz version 2.43.0 (0)
 -->
<!-- Title: G Pages: 1 -->
<svg width="1958pt" height="832pt"
 viewBox="0.00 0.00 1958.20 831.58" xmlns="http://www.w3.org/2000/svg" xmlns:xlink="http://www.w3.org/1999/xlink">
<g id="graph0" class="graph" transform="scale(1 1) rotate(0) translate(21.6 809.98)">
<title>G</title>
<polygon fill="#111111" stroke="transparent" points="-21.6,21.6 -21.6,-809.98 1936.6,-809.98 1936.6,21.6 -21.6,21.6"/>
<!-- app.js -->
<g id="node1" class="node">
<title>app.js</title>
<path fill="none" stroke="#c6c5fe" d="M46.33,-404.38C46.33,-404.38 7.67,-404.38 7.67,-404.38 3.83,-404.38 0,-400.54 0,-396.71 0,-396.71 0,-389.04 0,-389.04 0,-385.21 3.83,-381.38 7.67,-381.38 7.67,-381.38 46.33,-381.38 46.33,-381.38 50.17,-381.38 54,-385.21 54,-389.04 54,-389.04 54,-396.71 54,-396.71 54,-400.54 50.17,-404.38 46.33,-404.38"/>
<text text-anchor="middle" x="27" y="-389.18" font-family="Arial" font-size="14.00" fill="#c6c5fe">app.js</text>
</g>
<!-- src/gameManager.js -->
<g id="node2" class="node">
<title>src/gameManager.js</title>
<path fill="none" stroke="#c6c5fe" d="M222.33,-384.38C222.33,-384.38 97.67,-384.38 97.67,-384.38 93.83,-384.38 90,-380.54 90,-376.71 90,-376.71 90,-369.04 90,-369.04 90,-365.21 93.83,-361.38 97.67,-361.38 97.67,-361.38 222.33,-361.38 222.33,-361.38 226.17,-361.38 230,-365.21 230,-369.04 230,-369.04 230,-376.71 230,-376.71 230,-380.54 226.17,-384.38 222.33,-384.38"/>
<text text-anchor="middle" x="160" y="-369.18" font-family="Arial" font-size="14.00" fill="#c6c5fe">src/gameManager.js</text>
</g>
<!-- app.js&#45;&gt;src/gameManager.js -->
<g id="edge1" class="edge">
<title>app.js&#45;&gt;src/gameManager.js</title>
<path fill="none" stroke="#757575" d="M54.19,-388.88C61.87,-387.7 70.69,-386.36 79.89,-384.95"/>
<polygon fill="#757575" stroke="#757575" points="80.62,-388.38 89.97,-383.41 79.56,-381.46 80.62,-388.38"/>
</g>
<!-- src/startScreen.js -->
<g id="node3" class="node">
<title>src/startScreen.js</title>
<path fill="none" stroke="#c6c5fe" d="M379.33,-788.38C379.33,-788.38 273.67,-788.38 273.67,-788.38 269.83,-788.38 266,-784.54 266,-780.71 266,-780.71 266,-773.04 266,-773.04 266,-769.21 269.83,-765.38 273.67,-765.38 273.67,-765.38 379.33,-765.38 379.33,-765.38 383.17,-765.38 387,-769.21 387,-773.04 387,-773.04 387,-780.71 387,-780.71 387,-784.54 383.17,-788.38 379.33,-788.38"/>
<text text-anchor="middle" x="326.5" y="-773.18" font-family="Arial" font-size="14.00" fill="#c6c5fe">src/startScreen.js</text>
</g>
<!-- app.js&#45;&gt;src/startScreen.js -->
<g id="edge2" class="edge">
<title>app.js&#45;&gt;src/startScreen.js</title>
<path fill="none" stroke="#757575" d="M32.76,-404.51C53.3,-453.37 139.06,-644.39 266,-750.88 270.48,-754.63 275.59,-757.94 280.89,-760.82"/>
<polygon fill="#757575" stroke="#757575" points="279.39,-763.98 289.91,-765.26 282.49,-757.7 279.39,-763.98"/>
</g>
<!-- src/Boss.js -->
<g id="node4" class="node">
<title>src/Boss.js</title>
<path fill="none" stroke="#c6c5fe" d="M698.33,-549.38C698.33,-549.38 631.67,-549.38 631.67,-549.38 627.83,-549.38 624,-545.54 624,-541.71 624,-541.71 624,-534.04 624,-534.04 624,-530.21 627.83,-526.38 631.67,-526.38 631.67,-526.38 698.33,-526.38 698.33,-526.38 702.17,-526.38 706,-530.21 706,-534.04 706,-534.04 706,-541.71 706,-541.71 706,-545.54 702.17,-549.38 698.33,-549.38"/>
<text text-anchor="middle" x="665" y="-534.18" font-family="Arial" font-size="14.00" fill="#c6c5fe">src/Boss.js</text>
</g>
<!-- src/gameManager.js&#45;&gt;src/Boss.js -->
<g id="edge10" class="edge">
<title>src/gameManager.js&#45;&gt;src/Boss.js</title>
<path fill="none" stroke="#757575" d="M166.36,-384.4C179.25,-410.64 214.76,-474.61 266,-501.88 378.55,-561.75 534.58,-554.22 613.68,-545.2"/>
<polygon fill="#757575" stroke="#757575" points="614.35,-548.64 623.86,-543.98 613.52,-541.69 614.35,-548.64"/>
</g>
<!-- src/enemy.js -->
<g id="node5" class="node">
<title>src/enemy.js</title>
<path fill="none" stroke="#c6c5fe" d="M841.33,-514.38C841.33,-514.38 764.67,-514.38 764.67,-514.38 760.83,-514.38 757,-510.54 757,-506.71 757,-506.71 757,-499.04 757,-499.04 757,-495.21 760.83,-491.38 764.67,-491.38 764.67,-491.38 841.33,-491.38 841.33,-491.38 845.17,-491.38 849,-495.21 849,-499.04 849,-499.04 849,-506.71 849,-506.71 849,-510.54 845.17,-514.38 841.33,-514.38"/>
<text text-anchor="middle" x="803" y="-499.18" font-family="Arial" font-size="14.00" fill="#c6c5fe">src/enemy.js</text>
</g>
<!-- src/gameManager.js&#45;&gt;src/enemy.js -->
<g id="edge13" class="edge">
<title>src/gameManager.js&#45;&gt;src/enemy.js</title>
<path fill="none" stroke="#757575" d="M179.97,-384.57C200.43,-396.62 234.34,-415.01 266,-424.88 436.16,-477.92 648.18,-495.17 746.79,-500.56"/>
<polygon fill="#757575" stroke="#757575" points="746.66,-504.06 756.83,-501.09 747.02,-497.07 746.66,-504.06"/>
</g>
<!-- src/levelCompleteScreen.js -->
<g id="node7" class="node">
<title>src/levelCompleteScreen.js</title>
<path fill="none" stroke="#cfffac" d="M1907.33,-558.38C1907.33,-558.38 1741.67,-558.38 1741.67,-558.38 1737.83,-558.38 1734,-554.54 1734,-550.71 1734,-550.71 1734,-543.04 1734,-543.04 1734,-539.21 1737.83,-535.38 1741.67,-535.38 1741.67,-535.38 1907.33,-535.38 1907.33,-535.38 1911.17,-535.38 1915,-539.21 1915,-543.04 1915,-543.04 1915,-550.71 1915,-550.71 1915,-554.54 1911.17,-558.38 1907.33,-558.38"/>
<text text-anchor="middle" x="1824.5" y="-543.18" font-family="Arial" font-size="14.00" fill="#cfffac">src/levelCompleteScreen.js</text>
</g>
<!-- src/gameManager.js&#45;&gt;src/levelCompleteScreen.js -->
<g id="edge15" class="edge">
<title>src/gameManager.js&#45;&gt;src/levelCompleteScreen.js</title>
<path fill="none" stroke="#757575" d="M166.04,-384.48C192.13,-442.55 317.87,-698.88 504.5,-698.88 504.5,-698.88 504.5,-698.88 666,-698.88 1052.66,-698.88 1146.56,-647.26 1531,-605.88 1605.22,-597.89 1625.01,-603.55 1698,-587.88 1727.54,-581.53 1759.94,-570.85 1784.42,-561.98"/>
<polygon fill="#757575" stroke="#757575" points="1785.88,-565.17 1794.06,-558.43 1783.46,-558.6 1785.88,-565.17"/>
</g>
<!-- src/ammo.js -->
<g id="node8" class="node">
<title>src/ammo.js</title>
<path fill="none" stroke="#c6c5fe" d="M1066.83,-324.38C1066.83,-324.38 991.17,-324.38 991.17,-324.38 987.33,-324.38 983.5,-320.54 983.5,-316.71 983.5,-316.71 983.5,-309.04 983.5,-309.04 983.5,-305.21 987.33,-301.38 991.17,-301.38 991.17,-301.38 1066.83,-301.38 1066.83,-301.38 1070.67,-301.38 1074.5,-305.21 1074.5,-309.04 1074.5,-309.04 1074.5,-316.71 1074.5,-316.71 1074.5,-320.54 1070.67,-324.38 1066.83,-324.38"/>
<text text-anchor="middle" x="1029" y="-309.18" font-family="Arial" font-size="14.00" fill="#c6c5fe">src/ammo.js</text>
</g>
<!-- src/gameManager.js&#45;&gt;src/ammo.js -->
<g id="edge11" class="edge">
<title>src/gameManager.js&#45;&gt;src/ammo.js</title>
<path fill="none" stroke="#757575" d="M230.28,-372.07C275.03,-371.29 334.49,-369.78 387,-366.88 604.4,-354.84 862.44,-329.82 973.13,-318.57"/>
<polygon fill="#757575" stroke="#757575" points="973.78,-322.02 983.38,-317.52 973.07,-315.06 973.78,-322.02"/>
</g>
<!-- src/background.js -->
<g id="node10" class="node">
<title>src/background.js</title>
<path fill="none" stroke="#cfffac" d="M856.33,-168.38C856.33,-168.38 749.67,-168.38 749.67,-168.38 745.83,-168.38 742,-164.54 742,-160.71 742,-160.71 742,-153.04 742,-153.04 742,-149.21 745.83,-145.38 749.67,-145.38 749.67,-145.38 856.33,-145.38 856.33,-145.38 860.17,-145.38 864,-149.21 864,-153.04 864,-153.04 864,-160.71 864,-160.71 864,-164.54 860.17,-168.38 856.33,-168.38"/>
<text text-anchor="middle" x="803" y="-153.18" font-family="Arial" font-size="14.00" fill="#cfffac">src/background.js</text>
</g>
<!-- src/gameManager.js&#45;&gt;src/background.js -->
<g id="edge12" class="edge">
<title>src/gameManager.js&#45;&gt;src/background.js</title>
<path fill="none" stroke="#757575" d="M171.46,-361.05C204.17,-325.15 309.09,-217.72 423,-182.88 526.97,-151.07 654.19,-149.44 731.61,-152.32"/>
<polygon fill="#757575" stroke="#757575" points="731.6,-155.82 741.73,-152.73 731.88,-148.83 731.6,-155.82"/>
</g>
<!-- src/keyboard.js -->
<g id="node12" class="node">
<title>src/keyboard.js</title>
<path fill="none" stroke="#c6c5fe" d="M372.33,-306.38C372.33,-306.38 280.67,-306.38 280.67,-306.38 276.83,-306.38 273,-302.54 273,-298.71 273,-298.71 273,-291.04 273,-291.04 273,-287.21 276.83,-283.38 280.67,-283.38 280.67,-283.38 372.33,-283.38 372.33,-283.38 376.17,-283.38 380,-287.21 380,-291.04 380,-291.04 380,-298.71 380,-298.71 380,-302.54 376.17,-306.38 372.33,-306.38"/>
<text text-anchor="middle" x="326.5" y="-291.18" font-family="Arial" font-size="14.00" fill="#c6c5fe">src/keyboard.js</text>
</g>
<!-- src/gameManager.js&#45;&gt;src/keyboard.js -->
<g id="edge14" class="edge">
<title>src/gameManager.js&#45;&gt;src/keyboard.js</title>
<path fill="none" stroke="#757575" d="M183.79,-361.2C204.95,-350.44 237.42,-334.19 266,-320.88 273.4,-317.43 281.38,-313.85 289.01,-310.49"/>
<polygon fill="#757575" stroke="#757575" points="290.66,-313.59 298.42,-306.38 287.86,-307.18 290.66,-313.59"/>
</g>
<!-- src/music.js -->
<g id="node13" class="node">
<title>src/music.js</title>
<path fill="none" stroke="#cfffac" d="M1860.83,-691.38C1860.83,-691.38 1788.17,-691.38 1788.17,-691.38 1784.33,-691.38 1780.5,-687.54 1780.5,-683.71 1780.5,-683.71 1780.5,-676.04 1780.5,-676.04 1780.5,-672.21 1784.33,-668.38 1788.17,-668.38 1788.17,-668.38 1860.83,-668.38 1860.83,-668.38 1864.67,-668.38 1868.5,-672.21 1868.5,-676.04 1868.5,-676.04 1868.5,-683.71 1868.5,-683.71 1868.5,-687.54 1864.67,-691.38 1860.83,-691.38"/>
<text text-anchor="middle" x="1824.5" y="-676.18" font-family="Arial" font-size="14.00" fill="#cfffac">src/music.js</text>
</g>
<!-- src/gameManager.js&#45;&gt;src/music.js -->
<g id="edge16" class="edge">
<title>src/gameManager.js&#45;&gt;src/music.js</title>
<path fill="none" stroke="#757575" d="M166.89,-384.7C179.27,-409.71 208.59,-469.96 230,-521.88 247.85,-565.16 235.42,-585.42 266,-620.88 342.98,-710.14 386.63,-736.88 504.5,-736.88 504.5,-736.88 504.5,-736.88 1467,-736.88 1575.88,-736.88 1701.14,-710.63 1770.42,-693.76"/>
<polygon fill="#757575" stroke="#757575" points="1771.36,-697.13 1780.23,-691.34 1769.68,-690.34 1771.36,-697.13"/>
</g>
<!-- src/player/Player.js -->
<g id="node14" class="node">
<title>src/player/Player.js</title>
<path fill="none" stroke="#ff6c60" d="M1523.33,-284.38C1523.33,-284.38 1408.67,-284.38 1408.67,-284.38 1404.83,-284.38 1401,-280.54 1401,-276.71 1401,-276.71 1401,-269.04 1401,-269.04 1401,-265.21 1404.83,-261.38 1408.67,-261.38 1408.67,-261.38 1523.33,-261.38 1523.33,-261.38 1527.17,-261.38 1531,-265.21 1531,-269.04 1531,-269.04 1531,-276.71 1531,-276.71 1531,-280.54 1527.17,-284.38 1523.33,-284.38"/>
<text text-anchor="middle" x="1466" y="-269.18" font-family="Arial" font-size="14.00" fill="#ff6c60">src/player/Player.js</text>
</g>
<!-- src/gameManager.js&#45;&gt;src/player/Player.js -->
<g id="edge17" class="edge">
<title>src/gameManager.js&#45;&gt;src/player/Player.js</title>
<path fill="none" stroke="#757575" d="M164.38,-361.08C174.25,-328.83 206.19,-238.54 266,-192.88 323.41,-149.04 351.63,-161.97 423,-150.88 837.46,-86.46 972.39,-60.29 1365,-207.88 1394.55,-218.98 1424.36,-239.91 1443.65,-255.02"/>
<polygon fill="#757575" stroke="#757575" points="1441.5,-257.78 1451.49,-261.3 1445.87,-252.32 1441.5,-257.78"/>
</g>
<!-- src/rendering/Helpers.js -->
<g id="node15" class="node">
<title>src/rendering/Helpers.js</title>
<path fill="none" stroke="#cfffac" d="M1896.33,-284.38C1896.33,-284.38 1752.67,-284.38 1752.67,-284.38 1748.83,-284.38 1745,-280.54 1745,-276.71 1745,-276.71 1745,-269.04 1745,-269.04 1745,-265.21 1748.83,-261.38 1752.67,-261.38 1752.67,-261.38 1896.33,-261.38 1896.33,-261.38 1900.17,-261.38 1904,-265.21 1904,-269.04 1904,-269.04 1904,-276.71 1904,-276.71 1904,-280.54 1900.17,-284.38 1896.33,-284.38"/>
<text text-anchor="middle" x="1824.5" y="-269.18" font-family="Arial" font-size="14.00" fill="#cfffac">src/rendering/Helpers.js</text>
</g>
<!-- src/gameManager.js&#45;&gt;src/rendering/Helpers.js -->
<g id="edge18" class="edge">
<title>src/gameManager.js&#45;&gt;src/rendering/Helpers.js</title>
<path fill="none" stroke="#757575" d="M161.03,-361.22C161.8,-314.82 171.15,-141.58 266,-55.88 346.57,16.93 395.91,-2.88 504.5,-2.88 504.5,-2.88 504.5,-2.88 1467,-2.88 1632.42,-2.88 1769.43,-189.9 1810.74,-252.64"/>
<polygon fill="#757575" stroke="#757575" points="1807.96,-254.78 1816.33,-261.27 1813.83,-250.98 1807.96,-254.78"/>
</g>
<!-- src/speedometer.js -->
<g id="node16" class="node">
<title>src/speedometer.js</title>
<path fill="none" stroke="#cfffac" d="M1690.33,-149.38C1690.33,-149.38 1574.67,-149.38 1574.67,-149.38 1570.83,-149.38 1567,-145.54 1567,-141.71 1567,-141.71 1567,-134.04 1567,-134.04 1567,-130.21 1570.83,-126.38 1574.67,-126.38 1574.67,-126.38 1690.33,-126.38 1690.33,-126.38 1694.17,-126.38 1698,-130.21 1698,-134.04 1698,-134.04 1698,-141.71 1698,-141.71 1698,-145.54 1694.17,-149.38 1690.33,-149.38"/>
<text text-anchor="middle" x="1632.5" y="-134.18" font-family="Arial" font-size="14.00" fill="#cfffac">src/speedometer.js</text>
</g>
<!-- src/gameManager.js&#45;&gt;src/speedometer.js -->
<g id="edge19" class="edge">
<title>src/gameManager.js&#45;&gt;src/speedometer.js</title>
<path fill="none" stroke="#757575" d="M163.57,-361.15C172.02,-325.24 202.07,-215.3 266,-151.88 349,-69.53 387.58,-40.88 504.5,-40.88 504.5,-40.88 504.5,-40.88 1280.5,-40.88 1401.12,-40.88 1536.91,-94.75 1598.26,-122.2"/>
<polygon fill="#757575" stroke="#757575" points="1596.9,-125.43 1607.45,-126.37 1599.79,-119.05 1596.9,-125.43"/>
</g>
<!-- src/step.js -->
<g id="node17" class="node">
<title>src/step.js</title>
<path fill="none" stroke="#c6c5fe" d="M695.83,-322.38C695.83,-322.38 634.17,-322.38 634.17,-322.38 630.33,-322.38 626.5,-318.54 626.5,-314.71 626.5,-314.71 626.5,-307.04 626.5,-307.04 626.5,-303.21 630.33,-299.38 634.17,-299.38 634.17,-299.38 695.83,-299.38 695.83,-299.38 699.67,-299.38 703.5,-303.21 703.5,-307.04 703.5,-307.04 703.5,-314.71 703.5,-314.71 703.5,-318.54 699.67,-322.38 695.83,-322.38"/>
<text text-anchor="middle" x="665" y="-307.18" font-family="Arial" font-size="14.00" fill="#c6c5fe">src/step.js</text>
</g>
<!-- src/gameManager.js&#45;&gt;src/step.js -->
<g id="edge20" class="edge">
<title>src/gameManager.js&#45;&gt;src/step.js</title>
<path fill="none" stroke="#757575" d="M230.15,-364.35C333.76,-351.58 526.66,-327.8 616.13,-316.78"/>
<polygon fill="#757575" stroke="#757575" points="616.77,-320.22 626.26,-315.53 615.91,-313.28 616.77,-320.22"/>
</g>
<!-- src/startScreen.js&#45;&gt;src/music.js -->
<g id="edge43" class="edge">
<title>src/startScreen.js&#45;&gt;src/music.js</title>
<path fill="none" stroke="#757575" d="M387.07,-776.59C454.32,-776.3 567.02,-775.88 664,-775.88 664,-775.88 664,-775.88 1467,-775.88 1570.27,-775.88 1599.7,-782.51 1698,-750.88 1735.99,-738.65 1775.33,-714.12 1799.61,-697.35"/>
<polygon fill="#757575" stroke="#757575" points="1801.68,-700.17 1807.85,-691.56 1797.65,-694.45 1801.68,-700.17"/>
</g>
<!-- src/Boss.js&#45;&gt;src/enemy.js -->
<g id="edge3" class="edge">
<title>src/Boss.js&#45;&gt;src/enemy.js</title>
<path fill="none" stroke="#757575" d="M706.07,-527.56C718.93,-524.25 733.41,-520.53 747.14,-516.99"/>
<polygon fill="#757575" stroke="#757575" points="748.16,-520.34 756.97,-514.46 746.42,-513.57 748.16,-520.34"/>
</g>
<!-- src/gatling.js -->
<g id="node6" class="node">
<title>src/gatling.js</title>
<path fill="none" stroke="#c6c5fe" d="M1317.83,-362.38C1317.83,-362.38 1241.17,-362.38 1241.17,-362.38 1237.33,-362.38 1233.5,-358.54 1233.5,-354.71 1233.5,-354.71 1233.5,-347.04 1233.5,-347.04 1233.5,-343.21 1237.33,-339.38 1241.17,-339.38 1241.17,-339.38 1317.83,-339.38 1317.83,-339.38 1321.67,-339.38 1325.5,-343.21 1325.5,-347.04 1325.5,-347.04 1325.5,-354.71 1325.5,-354.71 1325.5,-358.54 1321.67,-362.38 1317.83,-362.38"/>
<text text-anchor="middle" x="1279.5" y="-347.18" font-family="Arial" font-size="14.00" fill="#c6c5fe">src/gatling.js</text>
</g>
<!-- src/Boss.js&#45;&gt;src/gatling.js -->
<g id="edge4" class="edge">
<title>src/Boss.js&#45;&gt;src/gatling.js</title>
<path fill="none" stroke="#757575" d="M706.2,-535.67C817.49,-529.21 1123.74,-508.96 1158,-479.88 1198.18,-445.77 1154.54,-401.82 1194,-366.88 1202.22,-359.6 1212.68,-355.18 1223.42,-352.58"/>
<polygon fill="#757575" stroke="#757575" points="1224.16,-356.01 1233.31,-350.68 1222.83,-349.13 1224.16,-356.01"/>
</g>
<!-- src/Boss.js&#45;&gt;src/levelCompleteScreen.js -->
<g id="edge5" class="edge">
<title>src/Boss.js&#45;&gt;src/levelCompleteScreen.js</title>
<path fill="none" stroke="#757575" d="M702.4,-549.41C748.01,-563.2 828.85,-585.48 900,-593.88 1210.45,-630.51 1582.93,-584.22 1743.46,-559.96"/>
<polygon fill="#757575" stroke="#757575" points="1744.37,-563.36 1753.72,-558.4 1743.31,-556.44 1744.37,-563.36"/>
</g>
<!-- src/enemy.js&#45;&gt;src/gatling.js -->
<g id="edge8" class="edge">
<title>src/enemy.js&#45;&gt;src/gatling.js</title>
<path fill="none" stroke="#757575" d="M849.05,-496.31C941.58,-482.67 1145.47,-451.81 1158,-442.88 1185.2,-423.47 1168.12,-398.01 1194,-376.88 1202.55,-369.89 1212.98,-364.77 1223.54,-361.03"/>
<polygon fill="#757575" stroke="#757575" points="1224.76,-364.32 1233.24,-357.97 1222.65,-357.64 1224.76,-364.32"/>
</g>
<!-- src/rendering/EnemyCollisionsChecks.js -->
<g id="node11" class="node">
<title>src/rendering/EnemyCollisionsChecks.js</title>
<path fill="none" stroke="#c6c5fe" d="M1150.33,-556.38C1150.33,-556.38 907.67,-556.38 907.67,-556.38 903.83,-556.38 900,-552.54 900,-548.71 900,-548.71 900,-541.04 900,-541.04 900,-537.21 903.83,-533.38 907.67,-533.38 907.67,-533.38 1150.33,-533.38 1150.33,-533.38 1154.17,-533.38 1158,-537.21 1158,-541.04 1158,-541.04 1158,-548.71 1158,-548.71 1158,-552.54 1154.17,-556.38 1150.33,-556.38"/>
<text text-anchor="middle" x="1029" y="-541.18" font-family="Arial" font-size="14.00" fill="#c6c5fe">src/rendering/EnemyCollisionsChecks.js</text>
</g>
<!-- src/enemy.js&#45;&gt;src/rendering/EnemyCollisionsChecks.js -->
<g id="edge9" class="edge">
<title>src/enemy.js&#45;&gt;src/rendering/EnemyCollisionsChecks.js</title>
<path fill="none" stroke="#757575" d="M849.06,-511.32C879.76,-517.08 921.05,-524.82 956.24,-531.42"/>
<polygon fill="#757575" stroke="#757575" points="955.99,-534.93 966.46,-533.34 957.28,-528.05 955.99,-534.93"/>
</g>
<!-- src/gatling.js&#45;&gt;src/music.js -->
<g id="edge24" class="edge">
<title>src/gatling.js&#45;&gt;src/music.js</title>
<path fill="none" stroke="#757575" d="M1299.22,-362.49C1344.87,-390.8 1465.63,-465.51 1567,-526.88 1649.55,-576.85 1747.62,-635.02 1795.03,-663.06"/>
<polygon fill="#757575" stroke="#757575" points="1793.43,-666.18 1803.82,-668.25 1796.99,-660.15 1793.43,-666.18"/>
</g>
<!-- src/gatling.js&#45;&gt;src/player/Player.js -->
<g id="edge25" class="edge">
<title>src/gatling.js&#45;&gt;src/player/Player.js</title>
<path fill="none" stroke="#757575" d="M1307.72,-339.37C1339.61,-325.89 1392.58,-303.49 1428.13,-288.46"/>
<polygon fill="#757575" stroke="#757575" points="1429.82,-291.55 1437.66,-284.43 1427.09,-285.1 1429.82,-291.55"/>
</g>
<!-- src/ammo.js&#45;&gt;src/gatling.js -->
<g id="edge6" class="edge">
<title>src/ammo.js&#45;&gt;src/gatling.js</title>
<path fill="none" stroke="#757575" d="M1074.71,-319.71C1116.33,-326.08 1178.48,-335.58 1223.19,-342.42"/>
<polygon fill="#757575" stroke="#757575" points="1222.89,-345.91 1233.31,-343.96 1223.95,-338.99 1222.89,-345.91"/>
</g>
<!-- src/rocket.js -->
<g id="node9" class="node">
<title>src/rocket.js</title>
<path fill="none" stroke="#ff6c60" d="M1669.33,-284.38C1669.33,-284.38 1595.67,-284.38 1595.67,-284.38 1591.83,-284.38 1588,-280.54 1588,-276.71 1588,-276.71 1588,-269.04 1588,-269.04 1588,-265.21 1591.83,-261.38 1595.67,-261.38 1595.67,-261.38 1669.33,-261.38 1669.33,-261.38 1673.17,-261.38 1677,-265.21 1677,-269.04 1677,-269.04 1677,-276.71 1677,-276.71 1677,-280.54 1673.17,-284.38 1669.33,-284.38"/>
<text text-anchor="middle" x="1632.5" y="-269.18" font-family="Arial" font-size="14.00" fill="#ff6c60">src/rocket.js</text>
</g>
<!-- src/ammo.js&#45;&gt;src/rocket.js -->
<g id="edge7" class="edge">
<title>src/ammo.js&#45;&gt;src/rocket.js</title>
<path fill="none" stroke="#757575" d="M1074.76,-313.43C1162.58,-314 1363.52,-312.76 1531,-292.88 1546.21,-291.07 1562.57,-288.21 1577.57,-285.22"/>
<polygon fill="#757575" stroke="#757575" points="1578.62,-288.58 1587.71,-283.14 1577.21,-281.72 1578.62,-288.58"/>
</g>
<!-- src/rocket.js&#45;&gt;src/player/Player.js -->
<g id="edge41" class="edge">
<title>src/rocket.js&#45;&gt;src/player/Player.js</title>
<path fill="none" stroke="#757575" d="M1587.67,-278.92C1573.43,-279.48 1557.22,-279.71 1541.39,-279.6"/>
<polygon fill="#757575" stroke="#757575" points="1541.11,-276.09 1531.07,-279.48 1541.03,-283.09 1541.11,-276.09"/>
</g>
<!-- src/rocket.js&#45;&gt;src/rendering/Helpers.js -->
<g id="edge42" class="edge">
<title>src/rocket.js&#45;&gt;src/rendering/Helpers.js</title>
<path fill="none" stroke="#757575" d="M1677.09,-272.88C1694.24,-272.88 1714.59,-272.88 1734.58,-272.88"/>
<polygon fill="#757575" stroke="#757575" points="1734.67,-276.38 1744.67,-272.88 1734.67,-269.38 1734.67,-276.38"/>
</g>
<!-- src/rendering/EnemyCollisionsChecks.js&#45;&gt;src/gatling.js -->
<g id="edge35" class="edge">
<title>src/rendering/EnemyCollisionsChecks.js&#45;&gt;src/gatling.js</title>
<path fill="none" stroke="#757575" d="M1136.81,-533.36C1144.56,-529.57 1151.76,-524.82 1158,-518.88 1205.13,-473.95 1149.13,-424.05 1194,-376.88 1201.94,-368.53 1212.48,-362.84 1223.42,-358.97"/>
<polygon fill="#757575" stroke="#757575" points="1224.54,-362.29 1233.08,-356.02 1222.49,-355.6 1224.54,-362.29"/>
</g>
<!-- src/rendering/EnemyCollisionsChecks.js&#45;&gt;src/rocket.js -->
<g id="edge40" class="edge">
<title>src/rendering/EnemyCollisionsChecks.js&#45;&gt;src/rocket.js</title>
<path fill="none" stroke="#757575" d="M1121.18,-533.27C1134.33,-528.9 1147.09,-522.96 1158,-514.88 1183.61,-495.91 1168.71,-472.25 1194,-452.88 1256.47,-405.01 1291.46,-434.92 1365,-406.88 1455.27,-372.45 1555.51,-317.03 1603.24,-289.5"/>
<polygon fill="#757575" stroke="#757575" points="1605.17,-292.43 1612.07,-284.38 1601.66,-286.37 1605.17,-292.43"/>
</g>
<!-- src/rendering/EnemyCollisionsChecks.js&#45;&gt;src/music.js -->
<g id="edge36" class="edge">
<title>src/rendering/EnemyCollisionsChecks.js&#45;&gt;src/music.js</title>
<path fill="none" stroke="#757575" d="M1097.65,-556.39C1252.5,-582.73 1630.09,-646.97 1770.11,-670.79"/>
<polygon fill="#757575" stroke="#757575" points="1769.72,-674.28 1780.16,-672.5 1770.89,-667.37 1769.72,-674.28"/>
</g>
<!-- src/rendering/EnemyCollisionsChecks.js&#45;&gt;src/player/Player.js -->
<g id="edge37" class="edge">
<title>src/rendering/EnemyCollisionsChecks.js&#45;&gt;src/player/Player.js</title>
<path fill="none" stroke="#757575" d="M1135.02,-533.34C1143.36,-529.59 1151.17,-524.85 1158,-518.88 1194.81,-486.66 1158.03,-448.03 1194,-414.88 1251.7,-361.69 1296.65,-409.43 1365,-370.88 1400.51,-350.84 1432.42,-314.99 1450.2,-292.65"/>
<polygon fill="#757575" stroke="#757575" points="1453.13,-294.58 1456.51,-284.53 1447.61,-290.28 1453.13,-294.58"/>
</g>
<!-- src/rendering/EnemyCollisionsChecks.js&#45;&gt;src/rendering/Helpers.js -->
<g id="edge39" class="edge">
<title>src/rendering/EnemyCollisionsChecks.js&#45;&gt;src/rendering/Helpers.js</title>
<path fill="none" stroke="#757575" d="M1104.38,-533.36C1122.47,-528.97 1141.39,-522.99 1158,-514.88 1176.46,-505.86 1175.59,-494.99 1194,-485.88 1264.14,-451.17 1290.21,-466.92 1365,-443.88 1524.61,-394.69 1709.47,-320.2 1786.67,-288.28"/>
<polygon fill="#757575" stroke="#757575" points="1788.08,-291.49 1795.98,-284.42 1785.4,-285.02 1788.08,-291.49"/>
</g>
<!-- src/rendering/Explosion.js -->
<g id="node21" class="node">
<title>src/rendering/Explosion.js</title>
<path fill="none" stroke="#cfffac" d="M1357.33,-518.38C1357.33,-518.38 1201.67,-518.38 1201.67,-518.38 1197.83,-518.38 1194,-514.54 1194,-510.71 1194,-510.71 1194,-503.04 1194,-503.04 1194,-499.21 1197.83,-495.38 1201.67,-495.38 1201.67,-495.38 1357.33,-495.38 1357.33,-495.38 1361.17,-495.38 1365,-499.21 1365,-503.04 1365,-503.04 1365,-510.71 1365,-510.71 1365,-514.54 1361.17,-518.38 1357.33,-518.38"/>
<text text-anchor="middle" x="1279.5" y="-503.18" font-family="Arial" font-size="14.00" fill="#cfffac">src/rendering/Explosion.js</text>
</g>
<!-- src/rendering/EnemyCollisionsChecks.js&#45;&gt;src/rendering/Explosion.js -->
<g id="edge38" class="edge">
<title>src/rendering/EnemyCollisionsChecks.js&#45;&gt;src/rendering/Explosion.js</title>
<path fill="none" stroke="#757575" d="M1105.23,-533.37C1132.96,-529.13 1164.57,-524.3 1193.13,-519.93"/>
<polygon fill="#757575" stroke="#757575" points="1193.74,-523.38 1203.09,-518.41 1192.68,-516.46 1193.74,-523.38"/>
</g>
<!-- src/keyboard.js&#45;&gt;src/gatling.js -->
<g id="edge27" class="edge">
<title>src/keyboard.js&#45;&gt;src/gatling.js</title>
<path fill="none" stroke="#757575" d="M377.37,-306.4C392.01,-309.49 408.1,-312.6 423,-314.88 746.52,-364.32 830.95,-372.07 1158,-359.88 1179.34,-359.08 1202.76,-357.49 1223.24,-355.87"/>
<polygon fill="#757575" stroke="#757575" points="1223.66,-359.35 1233.34,-355.05 1223.09,-352.37 1223.66,-359.35"/>
</g>
<!-- src/keyboard.js&#45;&gt;src/rocket.js -->
<g id="edge30" class="edge">
<title>src/keyboard.js&#45;&gt;src/rocket.js</title>
<path fill="none" stroke="#757575" d="M334.8,-283.26C348.96,-261.81 382.35,-216.11 423,-193.88 663.12,-62.51 754.3,-78.88 1028,-78.88 1028,-78.88 1028,-78.88 1280.5,-78.88 1424.28,-78.88 1564.49,-205.11 1613.33,-253.92"/>
<polygon fill="#757575" stroke="#757575" points="1611.11,-256.66 1620.63,-261.32 1616.1,-251.74 1611.11,-256.66"/>
</g>
<!-- src/keyboard.js&#45;&gt;src/music.js -->
<g id="edge28" class="edge">
<title>src/keyboard.js&#45;&gt;src/music.js</title>
<path fill="none" stroke="#757575" d="M336.86,-306.46C370.76,-347.6 492.06,-487.96 624,-557.88 746.04,-622.54 826.14,-698.88 1278.5,-698.88 1278.5,-698.88 1278.5,-698.88 1467,-698.88 1574.74,-698.88 1700.53,-690.12 1770.19,-684.49"/>
<polygon fill="#757575" stroke="#757575" points="1770.78,-687.95 1780.46,-683.65 1770.21,-680.98 1770.78,-687.95"/>
</g>
<!-- src/keyboard.js&#45;&gt;src/player/Player.js -->
<g id="edge29" class="edge">
<title>src/keyboard.js&#45;&gt;src/player/Player.js</title>
<path fill="none" stroke="#757575" d="M341.02,-283.37C358.65,-269.04 391.02,-244.99 423,-232.88 524.28,-194.52 555.7,-196.88 664,-196.88 664,-196.88 664,-196.88 1030,-196.88 1171.89,-196.88 1335.99,-236.6 1416.02,-258.61"/>
<polygon fill="#757575" stroke="#757575" points="1415.24,-262.03 1425.82,-261.33 1417.12,-255.28 1415.24,-262.03"/>
</g>
<!-- src/gameMenuActions.js -->
<g id="node18" class="node">
<title>src/gameMenuActions.js</title>
<path fill="none" stroke="#c6c5fe" d="M580.33,-306.38C580.33,-306.38 430.67,-306.38 430.67,-306.38 426.83,-306.38 423,-302.54 423,-298.71 423,-298.71 423,-291.04 423,-291.04 423,-287.21 426.83,-283.38 430.67,-283.38 430.67,-283.38 580.33,-283.38 580.33,-283.38 584.17,-283.38 588,-287.21 588,-291.04 588,-291.04 588,-298.71 588,-298.71 588,-302.54 584.17,-306.38 580.33,-306.38"/>
<text text-anchor="middle" x="505.5" y="-291.18" font-family="Arial" font-size="14.00" fill="#c6c5fe">src/gameMenuActions.js</text>
</g>
<!-- src/keyboard.js&#45;&gt;src/gameMenuActions.js -->
<g id="edge26" class="edge">
<title>src/keyboard.js&#45;&gt;src/gameMenuActions.js</title>
<path fill="none" stroke="#757575" d="M380.13,-294.88C390.43,-294.88 401.5,-294.88 412.65,-294.88"/>
<polygon fill="#757575" stroke="#757575" points="412.89,-298.38 422.89,-294.88 412.89,-291.38 412.89,-298.38"/>
</g>
<!-- src/touch.js -->
<g id="node20" class="node">
<title>src/touch.js</title>
<path fill="none" stroke="#cfffac" d="M540.33,-265.38C540.33,-265.38 470.67,-265.38 470.67,-265.38 466.83,-265.38 463,-261.54 463,-257.71 463,-257.71 463,-250.04 463,-250.04 463,-246.21 466.83,-242.38 470.67,-242.38 470.67,-242.38 540.33,-242.38 540.33,-242.38 544.17,-242.38 548,-246.21 548,-250.04 548,-250.04 548,-257.71 548,-257.71 548,-261.54 544.17,-265.38 540.33,-265.38"/>
<text text-anchor="middle" x="505.5" y="-250.18" font-family="Arial" font-size="14.00" fill="#cfffac">src/touch.js</text>
</g>
<!-- src/keyboard.js&#45;&gt;src/touch.js -->
<g id="edge31" class="edge">
<title>src/keyboard.js&#45;&gt;src/touch.js</title>
<path fill="none" stroke="#757575" d="M377.28,-283.35C400.9,-277.87 429.1,-271.34 452.94,-265.82"/>
<polygon fill="#757575" stroke="#757575" points="453.92,-269.19 462.87,-263.52 452.34,-262.37 453.92,-269.19"/>
</g>
<!-- src/player/Player.js&#45;&gt;src/rocket.js -->
<g id="edge33" class="edge">
<title>src/player/Player.js&#45;&gt;src/rocket.js</title>
<path fill="none" stroke="#757575" d="M1531.07,-266.27C1546.46,-266.02 1562.75,-266.09 1577.63,-266.5"/>
<polygon fill="#757575" stroke="#757575" points="1577.56,-270 1587.67,-266.83 1577.79,-263 1577.56,-270"/>
</g>
<!-- src/player/Player.js&#45;&gt;src/speedometer.js -->
<g id="edge34" class="edge">
<title>src/player/Player.js&#45;&gt;src/speedometer.js</title>
<path fill="none" stroke="#757575" d="M1481.03,-261.37C1509.53,-237.97 1574.46,-184.69 1608.96,-156.37"/>
<polygon fill="#757575" stroke="#757575" points="1611.53,-158.79 1617.04,-149.74 1607.09,-153.38 1611.53,-158.79"/>
</g>
<!-- src/gameOver.js -->
<g id="node19" class="node">
<title>src/gameOver.js</title>
<path fill="none" stroke="#c6c5fe" d="M1682.83,-518.38C1682.83,-518.38 1582.17,-518.38 1582.17,-518.38 1578.33,-518.38 1574.5,-514.54 1574.5,-510.71 1574.5,-510.71 1574.5,-503.04 1574.5,-503.04 1574.5,-499.21 1578.33,-495.38 1582.17,-495.38 1582.17,-495.38 1682.83,-495.38 1682.83,-495.38 1686.67,-495.38 1690.5,-499.21 1690.5,-503.04 1690.5,-503.04 1690.5,-510.71 1690.5,-510.71 1690.5,-514.54 1686.67,-518.38 1682.83,-518.38"/>
<text text-anchor="middle" x="1632.5" y="-503.18" font-family="Arial" font-size="14.00" fill="#c6c5fe">src/gameOver.js</text>
</g>
<!-- src/player/Player.js&#45;&gt;src/gameOver.js -->
<g id="edge32" class="edge">
<title>src/player/Player.js&#45;&gt;src/gameOver.js</title>
<path fill="none" stroke="#757575" d="M1475.16,-284.48C1501.47,-321.91 1584.3,-439.73 1617.52,-486.99"/>
<polygon fill="#757575" stroke="#757575" points="1614.68,-489.03 1623.29,-495.2 1620.41,-485.01 1614.68,-489.03"/>
</g>
<!-- src/step.js&#45;&gt;src/enemy.js -->
<g id="edge46" class="edge">
<title>src/step.js&#45;&gt;src/enemy.js</title>
<path fill="none" stroke="#757575" d="M671.91,-322.71C683.76,-345.95 711.88,-398.79 742,-438.88 754.28,-455.21 770.16,-472 782.5,-484.28"/>
<polygon fill="#757575" stroke="#757575" points="780.08,-486.8 789.67,-491.3 784.98,-481.8 780.08,-486.8"/>
</g>
<!-- src/step.js&#45;&gt;src/gatling.js -->
<g id="edge48" class="edge">
<title>src/step.js&#45;&gt;src/gatling.js</title>
<path fill="none" stroke="#757575" d="M703.71,-319.46C715.87,-321.93 729.45,-324.35 742,-325.88 916.83,-347.08 1125.71,-350.61 1223.24,-350.99"/>
<polygon fill="#757575" stroke="#757575" points="1223.44,-354.49 1233.45,-351.03 1223.46,-347.49 1223.44,-354.49"/>
</g>
<!-- src/step.js&#45;&gt;src/ammo.js -->
<g id="edge44" class="edge">
<title>src/step.js&#45;&gt;src/ammo.js</title>
<path fill="none" stroke="#757575" d="M703.72,-311.08C767.97,-311.44 898.9,-312.16 973.24,-312.57"/>
<polygon fill="#757575" stroke="#757575" points="973.32,-316.07 983.34,-312.63 973.36,-309.07 973.32,-316.07"/>
</g>
<!-- src/step.js&#45;&gt;src/rocket.js -->
<g id="edge50" class="edge">
<title>src/step.js&#45;&gt;src/rocket.js</title>
<path fill="none" stroke="#757575" d="M703.61,-299.63C715.76,-296.36 729.37,-293.08 742,-290.88 811.45,-278.75 829.67,-281.74 900,-276.88 1122.41,-261.48 1178.13,-257.43 1401,-251.88 1458.76,-250.43 1473.53,-245.93 1531,-251.88 1546.27,-253.45 1562.64,-256.35 1577.64,-259.49"/>
<polygon fill="#757575" stroke="#757575" points="1577.26,-262.99 1587.78,-261.7 1578.75,-256.15 1577.26,-262.99"/>
</g>
<!-- src/step.js&#45;&gt;src/background.js -->
<g id="edge45" class="edge">
<title>src/step.js&#45;&gt;src/background.js</title>
<path fill="none" stroke="#757575" d="M675.41,-299.35C689.59,-282.07 717.39,-248.53 742,-220.88 755.75,-205.42 771.8,-188.35 783.84,-175.73"/>
<polygon fill="#757575" stroke="#757575" points="786.37,-178.15 790.76,-168.5 781.31,-173.31 786.37,-178.15"/>
</g>
<!-- src/step.js&#45;&gt;src/player/Player.js -->
<g id="edge49" class="edge">
<title>src/step.js&#45;&gt;src/player/Player.js</title>
<path fill="none" stroke="#757575" d="M703.65,-307.26C749.86,-302.96 830.62,-295.86 900,-291.88 1075.84,-281.79 1282.8,-276.5 1390.84,-274.25"/>
<polygon fill="#757575" stroke="#757575" points="1391.06,-277.75 1400.98,-274.04 1390.91,-270.75 1391.06,-277.75"/>
</g>
<!-- src/step.js&#45;&gt;src/gameOver.js -->
<g id="edge47" class="edge">
<title>src/step.js&#45;&gt;src/gameOver.js</title>
<path fill="none" stroke="#757575" d="M684.28,-322.43C722.39,-347.33 811.16,-409.66 864,-481.88 887.98,-514.66 866.09,-543.52 900,-565.88 1009.89,-638.34 1418.94,-555.39 1572.63,-520.7"/>
<polygon fill="#757575" stroke="#757575" points="1573.84,-524.01 1582.81,-518.39 1572.29,-517.19 1573.84,-524.01"/>
</g>
<!-- src/gameMenuActions.js&#45;&gt;src/step.js -->
<g id="edge21" class="edge">
<title>src/gameMenuActions.js&#45;&gt;src/step.js</title>
<path fill="none" stroke="#757575" d="M588.02,-303.16C597.62,-304.13 607.17,-305.1 616.09,-306.01"/>
<polygon fill="#757575" stroke="#757575" points="615.94,-309.51 626.24,-307.04 616.65,-302.55 615.94,-309.51"/>
</g>
<!-- src/gameOver.js&#45;&gt;src/levelCompleteScreen.js -->
<g id="edge22" class="edge">
<title>src/gameOver.js&#45;&gt;src/levelCompleteScreen.js</title>
<path fill="none" stroke="#757575" d="M1688.2,-518.39C1710.26,-523.04 1735.88,-528.43 1758.85,-533.26"/>
<polygon fill="#757575" stroke="#757575" points="1758.35,-536.74 1768.86,-535.37 1759.79,-529.89 1758.35,-536.74"/>
</g>
<!-- src/gameOver.js&#45;&gt;src/music.js -->
<g id="edge23" class="edge">
<title>src/gameOver.js&#45;&gt;src/music.js</title>
<path fill="none" stroke="#757575" d="M1646.26,-518.49C1678.58,-547.92 1763.85,-625.56 1803.14,-661.34"/>
<polygon fill="#757575" stroke="#757575" points="1801.04,-664.16 1810.79,-668.31 1805.76,-658.99 1801.04,-664.16"/>
</g>
</g>
</svg>
