<?xml version="1.0" encoding="UTF-8" standalone="no"?>
<!DOCTYPE svg PUBLIC "-//W3C//DTD SVG 1.1//EN"
 "http://www.w3.org/Graphics/SVG/1.1/DTD/svg11.dtd">
<!-- Generated by graphviz version 2.43.0 (0)
 -->
<!-- Title: G Pages: 1 -->
<svg width="1852pt" height="987pt"
 viewBox="0.00 0.00 1852.20 987.18" xmlns="http://www.w3.org/2000/svg" xmlns:xlink="http://www.w3.org/1999/xlink">
<g id="graph0" class="graph" transform="scale(1 1) rotate(0) translate(21.6 965.58)">
<title>G</title>
<polygon fill="#111111" stroke="transparent" points="-21.6,21.6 -21.6,-965.58 1830.6,-965.58 1830.6,21.6 -21.6,21.6"/>
<!-- app.js -->
<g id="node1" class="node">
<title>app.js</title>
<path fill="none" stroke="#c6c5fe" d="M46.33,-304.98C46.33,-304.98 7.67,-304.98 7.67,-304.98 3.83,-304.98 0,-301.14 0,-297.31 0,-297.31 0,-289.64 0,-289.64 0,-285.81 3.83,-281.98 7.67,-281.98 7.67,-281.98 46.33,-281.98 46.33,-281.98 50.17,-281.98 54,-285.81 54,-289.64 54,-289.64 54,-297.31 54,-297.31 54,-301.14 50.17,-304.98 46.33,-304.98"/>
<text text-anchor="middle" x="27" y="-289.78" font-family="Arial" font-size="14.00" fill="#c6c5fe">app.js</text>
</g>
<!-- src/gameManager.js -->
<g id="node2" class="node">
<title>src/gameManager.js</title>
<path fill="none" stroke="#c6c5fe" d="M222.33,-576.98C222.33,-576.98 97.67,-576.98 97.67,-576.98 93.83,-576.98 90,-573.14 90,-569.31 90,-569.31 90,-561.64 90,-561.64 90,-557.81 93.83,-553.98 97.67,-553.98 97.67,-553.98 222.33,-553.98 222.33,-553.98 226.17,-553.98 230,-557.81 230,-561.64 230,-561.64 230,-569.31 230,-569.31 230,-573.14 226.17,-576.98 222.33,-576.98"/>
<text text-anchor="middle" x="160" y="-561.78" font-family="Arial" font-size="14.00" fill="#c6c5fe">src/gameManager.js</text>
</g>
<!-- app.js&#45;&gt;src/gameManager.js -->
<g id="edge1" class="edge">
<title>app.js&#45;&gt;src/gameManager.js</title>
<path fill="none" stroke="#757575" d="M33.63,-305.17C53.83,-347.1 122.83,-490.38 148.91,-544.53"/>
<polygon fill="#757575" stroke="#757575" points="145.9,-546.34 153.39,-553.83 152.21,-543.31 145.9,-546.34"/>
</g>
<!-- src/startScreen.js -->
<g id="node3" class="node">
<title>src/startScreen.js</title>
<path fill="none" stroke="#c6c5fe" d="M1066.33,-68.98C1066.33,-68.98 960.67,-68.98 960.67,-68.98 956.83,-68.98 953,-65.14 953,-61.31 953,-61.31 953,-53.64 953,-53.64 953,-49.81 956.83,-45.98 960.67,-45.98 960.67,-45.98 1066.33,-45.98 1066.33,-45.98 1070.17,-45.98 1074,-49.81 1074,-53.64 1074,-53.64 1074,-61.31 1074,-61.31 1074,-65.14 1070.17,-68.98 1066.33,-68.98"/>
<text text-anchor="middle" x="1013.5" y="-53.78" font-family="Arial" font-size="14.00" fill="#c6c5fe">src/startScreen.js</text>
</g>
<!-- app.js&#45;&gt;src/startScreen.js -->
<g id="edge2" class="edge">
<title>app.js&#45;&gt;src/startScreen.js</title>
<path fill="none" stroke="#757575" d="M36.27,-281.9C63.74,-244.54 156.44,-127.1 266,-83.48 499.32,9.41 806.82,-23.35 942.75,-44.82"/>
<polygon fill="#757575" stroke="#757575" points="942.2,-48.28 952.63,-46.41 943.31,-41.37 942.2,-48.28"/>
</g>
<!-- src/Boss.js -->
<g id="node4" class="node">
<title>src/Boss.js</title>
<path fill="none" stroke="#c6c5fe" d="M1263.83,-923.98C1263.83,-923.98 1197.17,-923.98 1197.17,-923.98 1193.33,-923.98 1189.5,-920.14 1189.5,-916.31 1189.5,-916.31 1189.5,-908.64 1189.5,-908.64 1189.5,-904.81 1193.33,-900.98 1197.17,-900.98 1197.17,-900.98 1263.83,-900.98 1263.83,-900.98 1267.67,-900.98 1271.5,-904.81 1271.5,-908.64 1271.5,-908.64 1271.5,-916.31 1271.5,-916.31 1271.5,-920.14 1267.67,-923.98 1263.83,-923.98"/>
<text text-anchor="middle" x="1230.5" y="-908.78" font-family="Arial" font-size="14.00" fill="#c6c5fe">src/Boss.js</text>
</g>
<!-- src/gameManager.js&#45;&gt;src/Boss.js -->
<g id="edge12" class="edge">
<title>src/gameManager.js&#45;&gt;src/Boss.js</title>
<path fill="none" stroke="#757575" d="M160.63,-577.05C159.82,-624.7 163.68,-806.89 266,-887.48 377.03,-974.92 441.67,-912.48 583,-912.48 583,-912.48 583,-912.48 815,-912.48 946.54,-912.48 1101.56,-912.48 1179.47,-912.48"/>
<polygon fill="#757575" stroke="#757575" points="1179.49,-915.98 1189.49,-912.48 1179.49,-908.98 1179.49,-915.98"/>
</g>
<!-- src/gameState.js -->
<g id="node5" class="node">
<title>src/gameState.js</title>
<path fill="none" stroke="#cfffac" d="M1780.83,-614.98C1780.83,-614.98 1678.17,-614.98 1678.17,-614.98 1674.33,-614.98 1670.5,-611.14 1670.5,-607.31 1670.5,-607.31 1670.5,-599.64 1670.5,-599.64 1670.5,-595.81 1674.33,-591.98 1678.17,-591.98 1678.17,-591.98 1780.83,-591.98 1780.83,-591.98 1784.67,-591.98 1788.5,-595.81 1788.5,-599.64 1788.5,-599.64 1788.5,-607.31 1788.5,-607.31 1788.5,-611.14 1784.67,-614.98 1780.83,-614.98"/>
<text text-anchor="middle" x="1729.5" y="-599.78" font-family="Arial" font-size="14.00" fill="#cfffac">src/gameState.js</text>
</g>
<!-- src/gameManager.js&#45;&gt;src/gameState.js -->
<g id="edge17" class="edge">
<title>src/gameManager.js&#45;&gt;src/gameState.js</title>
<path fill="none" stroke="#757575" d="M170.99,-577.04C188.25,-596.18 225.7,-634.15 266,-652.48 359.05,-694.79 391.58,-676.71 493,-689.48 682.56,-713.34 1162.37,-774.87 1351,-744.48 1486.01,-722.73 1634.93,-651.99 1697.81,-619.75"/>
<polygon fill="#757575" stroke="#757575" points="1699.52,-622.81 1706.8,-615.1 1696.31,-616.59 1699.52,-622.81"/>
</g>
<!-- src/levelCompleteScreen.js -->
<g id="node6" class="node">
<title>src/levelCompleteScreen.js</title>
<path fill="none" stroke="#cfffac" d="M1583.33,-863.98C1583.33,-863.98 1417.67,-863.98 1417.67,-863.98 1413.83,-863.98 1410,-860.14 1410,-856.31 1410,-856.31 1410,-848.64 1410,-848.64 1410,-844.81 1413.83,-840.98 1417.67,-840.98 1417.67,-840.98 1583.33,-840.98 1583.33,-840.98 1587.17,-840.98 1591,-844.81 1591,-848.64 1591,-848.64 1591,-856.31 1591,-856.31 1591,-860.14 1587.17,-863.98 1583.33,-863.98"/>
<text text-anchor="middle" x="1500.5" y="-848.78" font-family="Arial" font-size="14.00" fill="#cfffac">src/levelCompleteScreen.js</text>
</g>
<!-- src/gameManager.js&#45;&gt;src/levelCompleteScreen.js -->
<g id="edge19" class="edge">
<title>src/gameManager.js&#45;&gt;src/levelCompleteScreen.js</title>
<path fill="none" stroke="#757575" d="M161.87,-577.03C165.6,-618 184.1,-757.43 266,-822.48 377.74,-911.23 440.3,-873.48 583,-873.48 583,-873.48 583,-873.48 815,-873.48 1022.99,-873.48 1266.37,-863.67 1399.64,-857.46"/>
<polygon fill="#757575" stroke="#757575" points="1400,-860.95 1409.83,-856.98 1399.68,-853.96 1400,-860.95"/>
</g>
<!-- src/ammo.js -->
<g id="node9" class="node">
<title>src/ammo.js</title>
<path fill="none" stroke="#c6c5fe" d="M1268.33,-262.98C1268.33,-262.98 1192.67,-262.98 1192.67,-262.98 1188.83,-262.98 1185,-259.14 1185,-255.31 1185,-255.31 1185,-247.64 1185,-247.64 1185,-243.81 1188.83,-239.98 1192.67,-239.98 1192.67,-239.98 1268.33,-239.98 1268.33,-239.98 1272.17,-239.98 1276,-243.81 1276,-247.64 1276,-247.64 1276,-255.31 1276,-255.31 1276,-259.14 1272.17,-262.98 1268.33,-262.98"/>
<text text-anchor="middle" x="1230.5" y="-247.78" font-family="Arial" font-size="14.00" fill="#c6c5fe">src/ammo.js</text>
</g>
<!-- src/gameManager.js&#45;&gt;src/ammo.js -->
<g id="edge13" class="edge">
<title>src/gameManager.js&#45;&gt;src/ammo.js</title>
<path fill="none" stroke="#757575" d="M163.84,-553.63C172.68,-519.39 202.94,-419.44 266,-367.48 539.56,-142.09 1014.2,-208.81 1174.68,-239.74"/>
<polygon fill="#757575" stroke="#757575" points="1174.3,-243.24 1184.79,-241.73 1175.65,-236.37 1174.3,-243.24"/>
</g>
<!-- src/background.js -->
<g id="node11" class="node">
<title>src/background.js</title>
<path fill="none" stroke="#cfffac" d="M1283.83,-734.98C1283.83,-734.98 1177.17,-734.98 1177.17,-734.98 1173.33,-734.98 1169.5,-731.14 1169.5,-727.31 1169.5,-727.31 1169.5,-719.64 1169.5,-719.64 1169.5,-715.81 1173.33,-711.98 1177.17,-711.98 1177.17,-711.98 1283.83,-711.98 1283.83,-711.98 1287.67,-711.98 1291.5,-715.81 1291.5,-719.64 1291.5,-719.64 1291.5,-727.31 1291.5,-727.31 1291.5,-731.14 1287.67,-734.98 1283.83,-734.98"/>
<text text-anchor="middle" x="1230.5" y="-719.78" font-family="Arial" font-size="14.00" fill="#cfffac">src/background.js</text>
</g>
<!-- src/gameManager.js&#45;&gt;src/background.js -->
<g id="edge14" class="edge">
<title>src/gameManager.js&#45;&gt;src/background.js</title>
<path fill="none" stroke="#757575" d="M185.58,-577.04C249.54,-606.02 427.05,-679.48 583,-679.48 583,-679.48 583,-679.48 815,-679.48 936.57,-679.48 1077.08,-698.43 1159.32,-711.45"/>
<polygon fill="#757575" stroke="#757575" points="1158.88,-714.93 1169.3,-713.05 1159.98,-708.01 1158.88,-714.93"/>
</g>
<!-- src/enemy/enemy.js -->
<g id="node12" class="node">
<title>src/enemy/enemy.js</title>
<path fill="none" stroke="#cfffac" d="M1291.33,-814.98C1291.33,-814.98 1169.67,-814.98 1169.67,-814.98 1165.83,-814.98 1162,-811.14 1162,-807.31 1162,-807.31 1162,-799.64 1162,-799.64 1162,-795.81 1165.83,-791.98 1169.67,-791.98 1169.67,-791.98 1291.33,-791.98 1291.33,-791.98 1295.17,-791.98 1299,-795.81 1299,-799.64 1299,-799.64 1299,-807.31 1299,-807.31 1299,-811.14 1295.17,-814.98 1291.33,-814.98"/>
<text text-anchor="middle" x="1230.5" y="-799.78" font-family="Arial" font-size="14.00" fill="#cfffac">src/enemy/enemy.js</text>
</g>
<!-- src/gameManager.js&#45;&gt;src/enemy/enemy.js -->
<g id="edge15" class="edge">
<title>src/gameManager.js&#45;&gt;src/enemy/enemy.js</title>
<path fill="none" stroke="#757575" d="M162.95,-577.02C169.74,-613.28 195.84,-725.66 266,-778.48 380.36,-864.58 439.85,-835.48 583,-835.48 583,-835.48 583,-835.48 815,-835.48 932.61,-835.48 1068.44,-822.51 1151.64,-813.09"/>
<polygon fill="#757575" stroke="#757575" points="1152.24,-816.54 1161.77,-811.93 1151.44,-809.59 1152.24,-816.54"/>
</g>
<!-- src/enemy/enemyManager.js -->
<g id="node15" class="node">
<title>src/enemy/enemyManager.js</title>
<path fill="none" stroke="#c6c5fe" d="M449.33,-768.98C449.33,-768.98 273.67,-768.98 273.67,-768.98 269.83,-768.98 266,-765.14 266,-761.31 266,-761.31 266,-753.64 266,-753.64 266,-749.81 269.83,-745.98 273.67,-745.98 273.67,-745.98 449.33,-745.98 449.33,-745.98 453.17,-745.98 457,-749.81 457,-753.64 457,-753.64 457,-761.31 457,-761.31 457,-765.14 453.17,-768.98 449.33,-768.98"/>
<text text-anchor="middle" x="361.5" y="-753.78" font-family="Arial" font-size="14.00" fill="#c6c5fe">src/enemy/enemyManager.js</text>
</g>
<!-- src/gameManager.js&#45;&gt;src/enemy/enemyManager.js -->
<g id="edge16" class="edge">
<title>src/gameManager.js&#45;&gt;src/enemy/enemyManager.js</title>
<path fill="none" stroke="#757575" d="M164.99,-577.22C175.96,-607.65 209.56,-689.66 266,-731.48 271.6,-735.63 277.83,-739.12 284.35,-742.05"/>
<polygon fill="#757575" stroke="#757575" points="283.47,-745.47 294.06,-745.96 286.09,-738.98 283.47,-745.47"/>
</g>
<!-- src/keyboard.js -->
<g id="node16" class="node">
<title>src/keyboard.js</title>
<path fill="none" stroke="#c6c5fe" d="M629.83,-398.98C629.83,-398.98 538.17,-398.98 538.17,-398.98 534.33,-398.98 530.5,-395.14 530.5,-391.31 530.5,-391.31 530.5,-383.64 530.5,-383.64 530.5,-379.81 534.33,-375.98 538.17,-375.98 538.17,-375.98 629.83,-375.98 629.83,-375.98 633.67,-375.98 637.5,-379.81 637.5,-383.64 637.5,-383.64 637.5,-391.31 637.5,-391.31 637.5,-395.14 633.67,-398.98 629.83,-398.98"/>
<text text-anchor="middle" x="584" y="-383.78" font-family="Arial" font-size="14.00" fill="#c6c5fe">src/keyboard.js</text>
</g>
<!-- src/gameManager.js&#45;&gt;src/keyboard.js -->
<g id="edge18" class="edge">
<title>src/gameManager.js&#45;&gt;src/keyboard.js</title>
<path fill="none" stroke="#757575" d="M188.36,-553.94C261.8,-522.96 463.27,-437.98 546.4,-402.92"/>
<polygon fill="#757575" stroke="#757575" points="547.84,-406.1 555.7,-398.99 545.12,-399.66 547.84,-406.1"/>
</g>
<!-- src/music.js -->
<g id="node17" class="node">
<title>src/music.js</title>
<path fill="none" stroke="#cfffac" d="M1765.83,-213.98C1765.83,-213.98 1693.17,-213.98 1693.17,-213.98 1689.33,-213.98 1685.5,-210.14 1685.5,-206.31 1685.5,-206.31 1685.5,-198.64 1685.5,-198.64 1685.5,-194.81 1689.33,-190.98 1693.17,-190.98 1693.17,-190.98 1765.83,-190.98 1765.83,-190.98 1769.67,-190.98 1773.5,-194.81 1773.5,-198.64 1773.5,-198.64 1773.5,-206.31 1773.5,-206.31 1773.5,-210.14 1769.67,-213.98 1765.83,-213.98"/>
<text text-anchor="middle" x="1729.5" y="-198.78" font-family="Arial" font-size="14.00" fill="#cfffac">src/music.js</text>
</g>
<!-- src/gameManager.js&#45;&gt;src/music.js -->
<g id="edge20" class="edge">
<title>src/gameManager.js&#45;&gt;src/music.js</title>
<path fill="none" stroke="#757575" d="M161.96,-553.76C166.13,-509.98 186.2,-353.76 266,-261.48 369.75,-141.49 424.37,-97.48 583,-97.48 583,-97.48 583,-97.48 1231.5,-97.48 1403.92,-97.48 1602.86,-158.72 1687.25,-187.66"/>
<polygon fill="#757575" stroke="#757575" points="1686.13,-190.98 1696.72,-190.94 1688.42,-184.36 1686.13,-190.98"/>
</g>
<!-- src/player/Player.js -->
<g id="node18" class="node">
<title>src/player/Player.js</title>
<path fill="none" stroke="#c6c5fe" d="M418.83,-398.98C418.83,-398.98 304.17,-398.98 304.17,-398.98 300.33,-398.98 296.5,-395.14 296.5,-391.31 296.5,-391.31 296.5,-383.64 296.5,-383.64 296.5,-379.81 300.33,-375.98 304.17,-375.98 304.17,-375.98 418.83,-375.98 418.83,-375.98 422.67,-375.98 426.5,-379.81 426.5,-383.64 426.5,-383.64 426.5,-391.31 426.5,-391.31 426.5,-395.14 422.67,-398.98 418.83,-398.98"/>
<text text-anchor="middle" x="361.5" y="-383.78" font-family="Arial" font-size="14.00" fill="#c6c5fe">src/player/Player.js</text>
</g>
<!-- src/gameManager.js&#45;&gt;src/player/Player.js -->
<g id="edge21" class="edge">
<title>src/gameManager.js&#45;&gt;src/player/Player.js</title>
<path fill="none" stroke="#757575" d="M172.32,-553.79C191.21,-534.45 230.59,-494.79 266,-463.48 289.49,-442.7 317.64,-420.37 337.07,-405.33"/>
<polygon fill="#757575" stroke="#757575" points="339.3,-408.04 345.08,-399.16 335.03,-402.49 339.3,-408.04"/>
</g>
<!-- src/rendering/Helpers.js -->
<g id="node19" class="node">
<title>src/rendering/Helpers.js</title>
<path fill="none" stroke="#cfffac" d="M1801.33,-155.98C1801.33,-155.98 1657.67,-155.98 1657.67,-155.98 1653.83,-155.98 1650,-152.14 1650,-148.31 1650,-148.31 1650,-140.64 1650,-140.64 1650,-136.81 1653.83,-132.98 1657.67,-132.98 1657.67,-132.98 1801.33,-132.98 1801.33,-132.98 1805.17,-132.98 1809,-136.81 1809,-140.64 1809,-140.64 1809,-148.31 1809,-148.31 1809,-152.14 1805.17,-155.98 1801.33,-155.98"/>
<text text-anchor="middle" x="1729.5" y="-140.78" font-family="Arial" font-size="14.00" fill="#cfffac">src/rendering/Helpers.js</text>
</g>
<!-- src/gameManager.js&#45;&gt;src/rendering/Helpers.js -->
<g id="edge22" class="edge">
<title>src/gameManager.js&#45;&gt;src/rendering/Helpers.js</title>
<path fill="none" stroke="#757575" d="M161.97,-553.91C167.6,-489.37 198.33,-174.31 266,-110.48 445.39,58.73 566.4,-17.48 813,-17.48 813,-17.48 813,-17.48 1231.5,-17.48 1401.78,-17.48 1457.15,26.8 1614,-39.48 1657.34,-57.79 1694.78,-99.9 1714.23,-124.87"/>
<polygon fill="#757575" stroke="#757575" points="1711.51,-127.07 1720.35,-132.92 1717.09,-122.84 1711.51,-127.07"/>
</g>
<!-- src/step.js -->
<g id="node20" class="node">
<title>src/step.js</title>
<path fill="none" stroke="#c6c5fe" d="M1044.33,-574.98C1044.33,-574.98 982.67,-574.98 982.67,-574.98 978.83,-574.98 975,-571.14 975,-567.31 975,-567.31 975,-559.64 975,-559.64 975,-555.81 978.83,-551.98 982.67,-551.98 982.67,-551.98 1044.33,-551.98 1044.33,-551.98 1048.17,-551.98 1052,-555.81 1052,-559.64 1052,-559.64 1052,-567.31 1052,-567.31 1052,-571.14 1048.17,-574.98 1044.33,-574.98"/>
<text text-anchor="middle" x="1013.5" y="-559.78" font-family="Arial" font-size="14.00" fill="#c6c5fe">src/step.js</text>
</g>
<!-- src/gameManager.js&#45;&gt;src/step.js -->
<g id="edge23" class="edge">
<title>src/gameManager.js&#45;&gt;src/step.js</title>
<path fill="none" stroke="#757575" d="M230.32,-565.31C397.84,-564.92 821.38,-563.93 964.44,-563.59"/>
<polygon fill="#757575" stroke="#757575" points="964.65,-567.09 974.65,-563.57 964.64,-560.09 964.65,-567.09"/>
</g>
<!-- src/startScreen.js&#45;&gt;src/music.js -->
<g id="edge39" class="edge">
<title>src/startScreen.js&#45;&gt;src/music.js</title>
<path fill="none" stroke="#757575" d="M1074.14,-52.36C1208.04,-42.08 1527.58,-24.61 1614,-83.48 1646.56,-105.66 1622.6,-136.17 1650,-164.48 1658.97,-173.75 1670.67,-181.06 1682.29,-186.69"/>
<polygon fill="#757575" stroke="#757575" points="1680.97,-189.93 1691.53,-190.84 1683.84,-183.55 1680.97,-189.93"/>
</g>
<!-- src/Boss.js&#45;&gt;src/gameState.js -->
<g id="edge3" class="edge">
<title>src/Boss.js&#45;&gt;src/gameState.js</title>
<path fill="none" stroke="#757575" d="M1271.67,-913.4C1358.56,-914.61 1560.49,-912.96 1614,-873.48 1697.21,-812.08 1720.46,-678.16 1726.51,-625.44"/>
<polygon fill="#757575" stroke="#757575" points="1730.02,-625.51 1727.58,-615.2 1723.06,-624.78 1730.02,-625.51"/>
</g>
<!-- src/Boss.js&#45;&gt;src/levelCompleteScreen.js -->
<g id="edge4" class="edge">
<title>src/Boss.js&#45;&gt;src/levelCompleteScreen.js</title>
<path fill="none" stroke="#757575" d="M1271.63,-903.86C1294.83,-898.85 1324.58,-892.38 1351,-886.48 1380.18,-879.96 1412.55,-872.57 1439.6,-866.35"/>
<polygon fill="#757575" stroke="#757575" points="1440.73,-869.68 1449.69,-864.02 1439.16,-862.86 1440.73,-869.68"/>
</g>
<!-- src/weapons/enemyRocketAtack.js -->
<g id="node7" class="node">
<title>src/weapons/enemyRocketAtack.js</title>
<path fill="none" stroke="#cfffac" d="M1606.33,-943.98C1606.33,-943.98 1394.67,-943.98 1394.67,-943.98 1390.83,-943.98 1387,-940.14 1387,-936.31 1387,-936.31 1387,-928.64 1387,-928.64 1387,-924.81 1390.83,-920.98 1394.67,-920.98 1394.67,-920.98 1606.33,-920.98 1606.33,-920.98 1610.17,-920.98 1614,-924.81 1614,-928.64 1614,-928.64 1614,-936.31 1614,-936.31 1614,-940.14 1610.17,-943.98 1606.33,-943.98"/>
<text text-anchor="middle" x="1500.5" y="-928.78" font-family="Arial" font-size="14.00" fill="#cfffac">src/weapons/enemyRocketAtack.js</text>
</g>
<!-- src/Boss.js&#45;&gt;src/weapons/enemyRocketAtack.js -->
<g id="edge5" class="edge">
<title>src/Boss.js&#45;&gt;src/weapons/enemyRocketAtack.js</title>
<path fill="none" stroke="#757575" d="M1271.62,-915.47C1299.7,-917.57 1338.84,-920.49 1376.77,-923.32"/>
<polygon fill="#757575" stroke="#757575" points="1376.66,-926.82 1386.89,-924.07 1377.18,-919.84 1376.66,-926.82"/>
</g>
<!-- src/weapons/gatling.js -->
<g id="node8" class="node">
<title>src/weapons/gatling.js</title>
<path fill="none" stroke="#c6c5fe" d="M1567.33,-359.98C1567.33,-359.98 1433.67,-359.98 1433.67,-359.98 1429.83,-359.98 1426,-356.14 1426,-352.31 1426,-352.31 1426,-344.64 1426,-344.64 1426,-340.81 1429.83,-336.98 1433.67,-336.98 1433.67,-336.98 1567.33,-336.98 1567.33,-336.98 1571.17,-336.98 1575,-340.81 1575,-344.64 1575,-344.64 1575,-352.31 1575,-352.31 1575,-356.14 1571.17,-359.98 1567.33,-359.98"/>
<text text-anchor="middle" x="1500.5" y="-344.78" font-family="Arial" font-size="14.00" fill="#c6c5fe">src/weapons/gatling.js</text>
</g>
<!-- src/Boss.js&#45;&gt;src/weapons/gatling.js -->
<g id="edge6" class="edge">
<title>src/Boss.js&#45;&gt;src/weapons/gatling.js</title>
<path fill="none" stroke="#757575" d="M1255.25,-900.93C1282.26,-886.61 1325.88,-859.73 1351,-824.48 1458.79,-673.25 1490.21,-441.22 1497.56,-370"/>
<polygon fill="#757575" stroke="#757575" points="1501.05,-370.29 1498.54,-359.99 1494.08,-369.6 1501.05,-370.29"/>
</g>
<!-- src/weapons/gatling.js&#45;&gt;src/gameState.js -->
<g id="edge50" class="edge">
<title>src/weapons/gatling.js&#45;&gt;src/gameState.js</title>
<path fill="none" stroke="#757575" d="M1575.03,-355.71C1588.99,-359.67 1602.74,-365.61 1614,-374.48 1683.04,-428.85 1713.73,-535.82 1724.13,-581.72"/>
<polygon fill="#757575" stroke="#757575" points="1720.77,-582.73 1726.3,-591.76 1727.61,-581.25 1720.77,-582.73"/>
</g>
<!-- src/weapons/gatling.js&#45;&gt;src/music.js -->
<g id="edge51" class="edge">
<title>src/weapons/gatling.js&#45;&gt;src/music.js</title>
<path fill="none" stroke="#757575" d="M1575.24,-337.93C1588.67,-334.23 1602.16,-329.23 1614,-322.48 1658.28,-297.24 1696.06,-249.54 1715.17,-222.5"/>
<polygon fill="#757575" stroke="#757575" points="1718.11,-224.4 1720.91,-214.19 1712.35,-220.42 1718.11,-224.4"/>
</g>
<!-- src/ammo.js&#45;&gt;src/weapons/gatling.js -->
<g id="edge7" class="edge">
<title>src/ammo.js&#45;&gt;src/weapons/gatling.js</title>
<path fill="none" stroke="#757575" d="M1276.15,-258.65C1298.9,-262.94 1326.8,-269.18 1351,-277.48 1393.93,-292.19 1440.75,-315.97 1470.11,-331.91"/>
<polygon fill="#757575" stroke="#757575" points="1468.55,-335.05 1479,-336.79 1471.91,-328.91 1468.55,-335.05"/>
</g>
<!-- src/weapons/rocket.js -->
<g id="node10" class="node">
<title>src/weapons/rocket.js</title>
<path fill="none" stroke="#c6c5fe" d="M1565.83,-222.98C1565.83,-222.98 1435.17,-222.98 1435.17,-222.98 1431.33,-222.98 1427.5,-219.14 1427.5,-215.31 1427.5,-215.31 1427.5,-207.64 1427.5,-207.64 1427.5,-203.81 1431.33,-199.98 1435.17,-199.98 1435.17,-199.98 1565.83,-199.98 1565.83,-199.98 1569.67,-199.98 1573.5,-203.81 1573.5,-207.64 1573.5,-207.64 1573.5,-215.31 1573.5,-215.31 1573.5,-219.14 1569.67,-222.98 1565.83,-222.98"/>
<text text-anchor="middle" x="1500.5" y="-207.78" font-family="Arial" font-size="14.00" fill="#c6c5fe">src/weapons/rocket.js</text>
</g>
<!-- src/ammo.js&#45;&gt;src/weapons/rocket.js -->
<g id="edge8" class="edge">
<title>src/ammo.js&#45;&gt;src/weapons/rocket.js</title>
<path fill="none" stroke="#757575" d="M1276.06,-244.83C1314.4,-239.11 1370.72,-230.7 1417.22,-223.76"/>
<polygon fill="#757575" stroke="#757575" points="1417.92,-227.19 1427.29,-222.26 1416.88,-220.27 1417.92,-227.19"/>
</g>
<!-- src/weapons/rocket.js&#45;&gt;src/rendering/Helpers.js -->
<g id="edge52" class="edge">
<title>src/weapons/rocket.js&#45;&gt;src/rendering/Helpers.js</title>
<path fill="none" stroke="#757575" d="M1540.52,-199.96C1579.02,-188.6 1637.97,-171.2 1679.57,-158.92"/>
<polygon fill="#757575" stroke="#757575" points="1680.63,-162.26 1689.23,-156.07 1678.65,-155.54 1680.63,-162.26"/>
</g>
<!-- src/enemy/enemyFactory.js -->
<g id="node13" class="node">
<title>src/enemy/enemyFactory.js</title>
<path fill="none" stroke="#c6c5fe" d="M667.33,-768.98C667.33,-768.98 500.67,-768.98 500.67,-768.98 496.83,-768.98 493,-765.14 493,-761.31 493,-761.31 493,-753.64 493,-753.64 493,-749.81 496.83,-745.98 500.67,-745.98 500.67,-745.98 667.33,-745.98 667.33,-745.98 671.17,-745.98 675,-749.81 675,-753.64 675,-753.64 675,-761.31 675,-761.31 675,-765.14 671.17,-768.98 667.33,-768.98"/>
<text text-anchor="middle" x="584" y="-753.78" font-family="Arial" font-size="14.00" fill="#c6c5fe">src/enemy/enemyFactory.js</text>
</g>
<!-- src/enemy/enemyFactory.js&#45;&gt;src/enemy/enemy.js -->
<g id="edge9" class="edge">
<title>src/enemy/enemyFactory.js&#45;&gt;src/enemy/enemy.js</title>
<path fill="none" stroke="#757575" d="M645.37,-769.01C666.1,-772.58 689.5,-776.18 711,-778.48 866.73,-795.15 1049.96,-800.71 1151.6,-802.56"/>
<polygon fill="#757575" stroke="#757575" points="1151.71,-806.06 1161.77,-802.74 1151.84,-799.06 1151.71,-806.06"/>
</g>
<!-- src/enemy/enemyManoeuvre.js -->
<g id="node14" class="node">
<title>src/enemy/enemyManoeuvre.js</title>
<path fill="none" stroke="#cfffac" d="M909.33,-768.98C909.33,-768.98 718.67,-768.98 718.67,-768.98 714.83,-768.98 711,-765.14 711,-761.31 711,-761.31 711,-753.64 711,-753.64 711,-749.81 714.83,-745.98 718.67,-745.98 718.67,-745.98 909.33,-745.98 909.33,-745.98 913.17,-745.98 917,-749.81 917,-753.64 917,-753.64 917,-761.31 917,-761.31 917,-765.14 913.17,-768.98 909.33,-768.98"/>
<text text-anchor="middle" x="814" y="-753.78" font-family="Arial" font-size="14.00" fill="#cfffac">src/enemy/enemyManoeuvre.js</text>
</g>
<!-- src/enemy/enemyFactory.js&#45;&gt;src/enemy/enemyManoeuvre.js -->
<g id="edge10" class="edge">
<title>src/enemy/enemyFactory.js&#45;&gt;src/enemy/enemyManoeuvre.js</title>
<path fill="none" stroke="#757575" d="M675.11,-757.48C683.52,-757.48 692.11,-757.48 700.69,-757.48"/>
<polygon fill="#757575" stroke="#757575" points="700.74,-760.98 710.74,-757.48 700.74,-753.98 700.74,-760.98"/>
</g>
<!-- src/enemy/enemyManager.js&#45;&gt;src/enemy/enemyFactory.js -->
<g id="edge11" class="edge">
<title>src/enemy/enemyManager.js&#45;&gt;src/enemy/enemyFactory.js</title>
<path fill="none" stroke="#757575" d="M457.29,-757.48C465.67,-757.48 474.18,-757.48 482.6,-757.48"/>
<polygon fill="#757575" stroke="#757575" points="482.83,-760.98 492.83,-757.48 482.83,-753.98 482.83,-760.98"/>
</g>
<!-- src/keyboard.js&#45;&gt;src/gameState.js -->
<g id="edge29" class="edge">
<title>src/keyboard.js&#45;&gt;src/gameState.js</title>
<path fill="none" stroke="#757575" d="M637.75,-378.34C763.74,-358.46 1091.07,-318.37 1351,-387.48 1499.93,-427.07 1651.31,-540.81 1706.59,-585.31"/>
<polygon fill="#757575" stroke="#757575" points="1704.66,-588.25 1714.63,-591.84 1709.07,-582.82 1704.66,-588.25"/>
</g>
<!-- src/keyboard.js&#45;&gt;src/weapons/rocket.js -->
<g id="edge32" class="edge">
<title>src/keyboard.js&#45;&gt;src/weapons/rocket.js</title>
<path fill="none" stroke="#757575" d="M601.29,-375.95C624.55,-360.03 669.1,-331.47 711,-315.48 955.56,-222.16 1270.31,-210.02 1417.19,-210"/>
<polygon fill="#757575" stroke="#757575" points="1417.46,-213.5 1427.47,-210.02 1417.47,-206.5 1417.46,-213.5"/>
</g>
<!-- src/keyboard.js&#45;&gt;src/music.js -->
<g id="edge30" class="edge">
<title>src/keyboard.js&#45;&gt;src/music.js</title>
<path fill="none" stroke="#757575" d="M622.45,-375.93C647.35,-368.62 680.88,-359.44 711,-353.48 992.31,-297.77 1067,-311.26 1351,-271.48 1468.09,-255.07 1498.11,-254.91 1614,-231.48 1634.89,-227.25 1657.69,-221.68 1677.41,-216.55"/>
<polygon fill="#757575" stroke="#757575" points="1678.34,-219.92 1687.12,-213.99 1676.55,-213.15 1678.34,-219.92"/>
</g>
<!-- src/gameMenuActions.js -->
<g id="node21" class="node">
<title>src/gameMenuActions.js</title>
<path fill="none" stroke="#c6c5fe" d="M888.83,-534.98C888.83,-534.98 739.17,-534.98 739.17,-534.98 735.33,-534.98 731.5,-531.14 731.5,-527.31 731.5,-527.31 731.5,-519.64 731.5,-519.64 731.5,-515.81 735.33,-511.98 739.17,-511.98 739.17,-511.98 888.83,-511.98 888.83,-511.98 892.67,-511.98 896.5,-515.81 896.5,-519.64 896.5,-519.64 896.5,-527.31 896.5,-527.31 896.5,-531.14 892.67,-534.98 888.83,-534.98"/>
<text text-anchor="middle" x="814" y="-519.78" font-family="Arial" font-size="14.00" fill="#c6c5fe">src/gameMenuActions.js</text>
</g>
<!-- src/keyboard.js&#45;&gt;src/gameMenuActions.js -->
<g id="edge28" class="edge">
<title>src/keyboard.js&#45;&gt;src/gameMenuActions.js</title>
<path fill="none" stroke="#757575" d="M604.44,-399.07C644.82,-423.16 737.93,-478.7 784.87,-506.7"/>
<polygon fill="#757575" stroke="#757575" points="783.23,-509.79 793.61,-511.91 786.81,-503.78 783.23,-509.79"/>
</g>
<!-- src/touch.js -->
<g id="node23" class="node">
<title>src/touch.js</title>
<path fill="none" stroke="#c6c5fe" d="M1048.33,-418.98C1048.33,-418.98 978.67,-418.98 978.67,-418.98 974.83,-418.98 971,-415.14 971,-411.31 971,-411.31 971,-403.64 971,-403.64 971,-399.81 974.83,-395.98 978.67,-395.98 978.67,-395.98 1048.33,-395.98 1048.33,-395.98 1052.17,-395.98 1056,-399.81 1056,-403.64 1056,-403.64 1056,-411.31 1056,-411.31 1056,-415.14 1052.17,-418.98 1048.33,-418.98"/>
<text text-anchor="middle" x="1013.5" y="-403.78" font-family="Arial" font-size="14.00" fill="#c6c5fe">src/touch.js</text>
</g>
<!-- src/keyboard.js&#45;&gt;src/touch.js -->
<g id="edge31" class="edge">
<title>src/keyboard.js&#45;&gt;src/touch.js</title>
<path fill="none" stroke="#757575" d="M637.85,-389.95C720.44,-393.81 879.08,-401.24 960.9,-405.06"/>
<polygon fill="#757575" stroke="#757575" points="960.81,-408.56 970.96,-405.53 961.14,-401.57 960.81,-408.56"/>
</g>
<!-- src/player/Player.js&#45;&gt;src/gameState.js -->
<g id="edge34" class="edge">
<title>src/player/Player.js&#45;&gt;src/gameState.js</title>
<path fill="none" stroke="#757575" d="M372.12,-399.06C392.24,-422.61 441.24,-476.49 493,-507.48 581.04,-560.19 612.05,-556.32 711,-583.48 987.49,-659.36 1065.21,-687.42 1351,-664.48 1461.92,-655.57 1589.42,-632.18 1664.24,-617.09"/>
<polygon fill="#757575" stroke="#757575" points="1665.34,-620.43 1674.44,-615.01 1663.95,-613.57 1665.34,-620.43"/>
</g>
<!-- src/player/Player.js&#45;&gt;src/weapons/gatling.js -->
<g id="edge37" class="edge">
<title>src/player/Player.js&#45;&gt;src/weapons/gatling.js</title>
<path fill="none" stroke="#757575" d="M394.23,-375.9C467.14,-350.36 652.66,-291.48 813,-291.48 813,-291.48 813,-291.48 1014.5,-291.48 1163.38,-291.48 1336.21,-318.3 1430.09,-335.14"/>
<polygon fill="#757575" stroke="#757575" points="1429.57,-338.61 1440.03,-336.94 1430.82,-331.72 1429.57,-338.61"/>
</g>
<!-- src/player/Player.js&#45;&gt;src/weapons/rocket.js -->
<g id="edge38" class="edge">
<title>src/player/Player.js&#45;&gt;src/weapons/rocket.js</title>
<path fill="none" stroke="#757575" d="M375.52,-375.88C397.87,-356.65 445.7,-318.29 493,-298.48 584.09,-260.33 613.46,-270.94 711,-255.48 887.41,-227.51 931.71,-218.16 1110,-207.48 1216.92,-201.07 1243.9,-206.04 1351,-207.48 1372.48,-207.77 1395.71,-208.29 1417.27,-208.87"/>
<polygon fill="#757575" stroke="#757575" points="1417.28,-212.37 1427.38,-209.14 1417.48,-205.37 1417.28,-212.37"/>
</g>
<!-- src/player/Player.js&#45;&gt;src/keyboard.js -->
<g id="edge35" class="edge">
<title>src/player/Player.js&#45;&gt;src/keyboard.js</title>
<path fill="none" stroke="#757575" d="M426.57,-387.48C456.03,-387.48 490.86,-387.48 520.17,-387.48"/>
<polygon fill="#757575" stroke="#757575" points="520.29,-390.98 530.29,-387.48 520.29,-383.98 520.29,-390.98"/>
</g>
<!-- src/player/Player.js&#45;&gt;src/music.js -->
<g id="edge36" class="edge">
<title>src/player/Player.js&#45;&gt;src/music.js</title>
<path fill="none" stroke="#757575" d="M375.52,-375.88C397.87,-356.65 445.7,-318.29 493,-298.48 862.15,-143.86 986.97,-202.74 1387,-190.48 1487.84,-187.39 1513.25,-185.21 1614,-190.48 1634.05,-191.53 1655.99,-193.6 1675.26,-195.73"/>
<polygon fill="#757575" stroke="#757575" points="1675.03,-199.23 1685.36,-196.88 1675.82,-192.27 1675.03,-199.23"/>
</g>
<!-- src/gameOver.js -->
<g id="node22" class="node">
<title>src/gameOver.js</title>
<path fill="none" stroke="#c6c5fe" d="M1280.83,-654.98C1280.83,-654.98 1180.17,-654.98 1180.17,-654.98 1176.33,-654.98 1172.5,-651.14 1172.5,-647.31 1172.5,-647.31 1172.5,-639.64 1172.5,-639.64 1172.5,-635.81 1176.33,-631.98 1180.17,-631.98 1180.17,-631.98 1280.83,-631.98 1280.83,-631.98 1284.67,-631.98 1288.5,-635.81 1288.5,-639.64 1288.5,-639.64 1288.5,-647.31 1288.5,-647.31 1288.5,-651.14 1284.67,-654.98 1280.83,-654.98"/>
<text text-anchor="middle" x="1230.5" y="-639.78" font-family="Arial" font-size="14.00" fill="#c6c5fe">src/gameOver.js</text>
</g>
<!-- src/player/Player.js&#45;&gt;src/gameOver.js -->
<g id="edge33" class="edge">
<title>src/player/Player.js&#45;&gt;src/gameOver.js</title>
<path fill="none" stroke="#757575" d="M383.43,-399.02C436.55,-427.85 581.6,-503.6 711,-544.48 868.99,-594.38 1062.43,-623.18 1162.45,-635.79"/>
<polygon fill="#757575" stroke="#757575" points="1162.06,-639.27 1172.42,-637.03 1162.93,-632.32 1162.06,-639.27"/>
</g>
<!-- src/step.js&#45;&gt;src/gameState.js -->
<g id="edge44" class="edge">
<title>src/step.js&#45;&gt;src/gameState.js</title>
<path fill="none" stroke="#757575" d="M1052.33,-573.49C1069.76,-577.67 1090.79,-582.09 1110,-584.48 1308.69,-609.16 1545.9,-607.97 1660.23,-605.5"/>
<polygon fill="#757575" stroke="#757575" points="1660.32,-609 1670.24,-605.28 1660.16,-602 1660.32,-609"/>
</g>
<!-- src/step.js&#45;&gt;src/weapons/gatling.js -->
<g id="edge47" class="edge">
<title>src/step.js&#45;&gt;src/weapons/gatling.js</title>
<path fill="none" stroke="#757575" d="M1052.22,-553.86C1128.35,-534.14 1297.66,-488.73 1351,-461.48 1401.72,-435.56 1452.81,-391.95 1479.85,-367.16"/>
<polygon fill="#757575" stroke="#757575" points="1482.49,-369.49 1487.44,-360.12 1477.73,-364.36 1482.49,-369.49"/>
</g>
<!-- src/step.js&#45;&gt;src/ammo.js -->
<g id="edge40" class="edge">
<title>src/step.js&#45;&gt;src/ammo.js</title>
<path fill="none" stroke="#757575" d="M1019.7,-551.84C1032.87,-522.87 1069.43,-445.65 1110,-387.48 1141.45,-342.39 1185.71,-295.43 1210.59,-270.2"/>
<polygon fill="#757575" stroke="#757575" points="1213.09,-272.65 1217.66,-263.09 1208.12,-267.72 1213.09,-272.65"/>
</g>
<!-- src/step.js&#45;&gt;src/weapons/rocket.js -->
<g id="edge48" class="edge">
<title>src/step.js&#45;&gt;src/weapons/rocket.js</title>
<path fill="none" stroke="#757575" d="M1021.45,-551.89C1035.25,-530.04 1068.41,-482.98 1110,-461.48 1206.03,-411.82 1266.98,-496.51 1351,-428.48 1387.71,-398.75 1362.08,-368.61 1387,-328.48 1411.71,-288.69 1451.75,-251.25 1476.81,-229.88"/>
<polygon fill="#757575" stroke="#757575" points="1479.28,-232.37 1484.69,-223.26 1474.78,-227.01 1479.28,-232.37"/>
</g>
<!-- src/step.js&#45;&gt;src/background.js -->
<g id="edge41" class="edge">
<title>src/step.js&#45;&gt;src/background.js</title>
<path fill="none" stroke="#757575" d="M1023.16,-575.04C1038.74,-595.25 1073.31,-637.39 1110,-664.48 1134.48,-682.56 1165.36,-697.63 1189.59,-708.02"/>
<polygon fill="#757575" stroke="#757575" points="1188.28,-711.27 1198.86,-711.9 1190.99,-704.81 1188.28,-711.27"/>
</g>
<!-- src/step.js&#45;&gt;src/enemy/enemy.js -->
<g id="edge42" class="edge">
<title>src/step.js&#45;&gt;src/enemy/enemy.js</title>
<path fill="none" stroke="#757575" d="M1017.86,-575.19C1027.39,-606.5 1057.3,-693.18 1110,-744.48 1130.33,-764.27 1158.59,-778.63 1182.53,-788.23"/>
<polygon fill="#757575" stroke="#757575" points="1181.56,-791.61 1192.15,-791.93 1184.07,-785.07 1181.56,-791.61"/>
</g>
<!-- src/step.js&#45;&gt;src/gameOver.js -->
<g id="edge43" class="edge">
<title>src/step.js&#45;&gt;src/gameOver.js</title>
<path fill="none" stroke="#757575" d="M1044.88,-575.03C1054.45,-579.12 1064.89,-584.06 1074,-589.48 1091.42,-599.84 1091.64,-608.89 1110,-617.48 1126.24,-625.07 1144.76,-630.49 1162.3,-634.33"/>
<polygon fill="#757575" stroke="#757575" points="1161.99,-637.84 1172.49,-636.42 1163.39,-630.98 1161.99,-637.84"/>
</g>
<!-- src/mobile/mobileVelocityController.js -->
<g id="node24" class="node">
<title>src/mobile/mobileVelocityController.js</title>
<path fill="none" stroke="#cfffac" d="M1343.33,-574.98C1343.33,-574.98 1117.67,-574.98 1117.67,-574.98 1113.83,-574.98 1110,-571.14 1110,-567.31 1110,-567.31 1110,-559.64 1110,-559.64 1110,-555.81 1113.83,-551.98 1117.67,-551.98 1117.67,-551.98 1343.33,-551.98 1343.33,-551.98 1347.17,-551.98 1351,-555.81 1351,-559.64 1351,-559.64 1351,-567.31 1351,-567.31 1351,-571.14 1347.17,-574.98 1343.33,-574.98"/>
<text text-anchor="middle" x="1230.5" y="-559.78" font-family="Arial" font-size="14.00" fill="#cfffac">src/mobile/mobileVelocityController.js</text>
</g>
<!-- src/step.js&#45;&gt;src/mobile/mobileVelocityController.js -->
<g id="edge45" class="edge">
<title>src/step.js&#45;&gt;src/mobile/mobileVelocityController.js</title>
<path fill="none" stroke="#757575" d="M1052.44,-563.48C1066.15,-563.48 1082.5,-563.48 1099.64,-563.48"/>
<polygon fill="#757575" stroke="#757575" points="1099.81,-566.98 1109.81,-563.48 1099.81,-559.98 1099.81,-566.98"/>
</g>
<!-- src/mobileJoystick.js -->
<g id="node25" class="node">
<title>src/mobileJoystick.js</title>
<path fill="none" stroke="#cfffac" d="M1292.83,-418.98C1292.83,-418.98 1168.17,-418.98 1168.17,-418.98 1164.33,-418.98 1160.5,-415.14 1160.5,-411.31 1160.5,-411.31 1160.5,-403.64 1160.5,-403.64 1160.5,-399.81 1164.33,-395.98 1168.17,-395.98 1168.17,-395.98 1292.83,-395.98 1292.83,-395.98 1296.67,-395.98 1300.5,-399.81 1300.5,-403.64 1300.5,-403.64 1300.5,-411.31 1300.5,-411.31 1300.5,-415.14 1296.67,-418.98 1292.83,-418.98"/>
<text text-anchor="middle" x="1230.5" y="-403.78" font-family="Arial" font-size="14.00" fill="#cfffac">src/mobileJoystick.js</text>
</g>
<!-- src/step.js&#45;&gt;src/mobileJoystick.js -->
<g id="edge46" class="edge">
<title>src/step.js&#45;&gt;src/mobileJoystick.js</title>
<path fill="none" stroke="#757575" d="M1019.47,-551.91C1031.16,-526.16 1063.02,-463.97 1110,-433.48 1122.15,-425.59 1136.32,-420.06 1150.57,-416.19"/>
<polygon fill="#757575" stroke="#757575" points="1151.54,-419.55 1160.41,-413.77 1149.87,-412.76 1151.54,-419.55"/>
</g>
<!-- src/gameMenuActions.js&#45;&gt;src/gameState.js -->
<g id="edge24" class="edge">
<title>src/gameMenuActions.js&#45;&gt;src/gameState.js</title>
<path fill="none" stroke="#757575" d="M896.93,-523.48C1002.25,-524.18 1190.67,-527.8 1351,-543.48 1459.88,-554.12 1585.07,-575.94 1660.41,-590.12"/>
<polygon fill="#757575" stroke="#757575" points="1659.78,-593.56 1670.26,-591.99 1661.08,-586.69 1659.78,-593.56"/>
</g>
<!-- src/gameMenuActions.js&#45;&gt;src/step.js -->
<g id="edge25" class="edge">
<title>src/gameMenuActions.js&#45;&gt;src/step.js</title>
<path fill="none" stroke="#757575" d="M871.86,-534.99C901.29,-540.95 936.82,-548.15 964.8,-553.82"/>
<polygon fill="#757575" stroke="#757575" points="964.25,-557.28 974.75,-555.83 965.64,-550.42 964.25,-557.28"/>
</g>
<!-- src/gameOver.js&#45;&gt;src/levelCompleteScreen.js -->
<g id="edge26" class="edge">
<title>src/gameOver.js&#45;&gt;src/levelCompleteScreen.js</title>
<path fill="none" stroke="#757575" d="M1260.73,-655C1285.88,-665.64 1322.5,-682.87 1351,-703.48 1405.37,-742.8 1458.19,-802.43 1483.68,-832.96"/>
<polygon fill="#757575" stroke="#757575" points="1481.05,-835.28 1490.12,-840.76 1486.45,-830.82 1481.05,-835.28"/>
</g>
<!-- src/gameOver.js&#45;&gt;src/music.js -->
<g id="edge27" class="edge">
<title>src/gameOver.js&#45;&gt;src/music.js</title>
<path fill="none" stroke="#757575" d="M1259.51,-631.82C1284.36,-620.97 1321.23,-603.64 1351,-584.48 1477.95,-502.76 1511.84,-480.64 1614,-369.48 1657.95,-321.66 1698.1,-255.87 1717.05,-222.97"/>
<polygon fill="#757575" stroke="#757575" points="1720.11,-224.65 1722.02,-214.23 1714.03,-221.19 1720.11,-224.65"/>
</g>
<!-- src/touch.js&#45;&gt;src/mobileJoystick.js -->
<g id="edge49" class="edge">
<title>src/touch.js&#45;&gt;src/mobileJoystick.js</title>
<path fill="none" stroke="#757575" d="M1056.21,-407.48C1082.88,-407.48 1118.32,-407.48 1150.2,-407.48"/>
<polygon fill="#757575" stroke="#757575" points="1150.41,-410.98 1160.41,-407.48 1150.41,-403.98 1150.41,-410.98"/>
</g>
</g>
</svg>
