<?xml version="1.0" encoding="UTF-8" standalone="no"?>
<!DOCTYPE svg PUBLIC "-//W3C//DTD SVG 1.1//EN"
 "http://www.w3.org/Graphics/SVG/1.1/DTD/svg11.dtd">
<!-- Generated by graphviz version 2.43.0 (0)
 -->
<!-- Title: G Pages: 1 -->
<svg width="1896pt" height="1080pt"
 viewBox="0.00 0.00 1896.20 1080.09" xmlns="http://www.w3.org/2000/svg" xmlns:xlink="http://www.w3.org/1999/xlink">
<g id="graph0" class="graph" transform="scale(1 1) rotate(0) translate(21.6 1058.49)">
<title>G</title>
<polygon fill="#111111" stroke="transparent" points="-21.6,21.6 -21.6,-1058.49 1874.6,-1058.49 1874.6,21.6 -21.6,21.6"/>
<!-- app.js -->
<g id="node1" class="node">
<title>app.js</title>
<path fill="none" stroke="#c6c5fe" d="M46.33,-743.89C46.33,-743.89 7.67,-743.89 7.67,-743.89 3.83,-743.89 0,-740.05 0,-736.22 0,-736.22 0,-728.55 0,-728.55 0,-724.72 3.83,-720.89 7.67,-720.89 7.67,-720.89 46.33,-720.89 46.33,-720.89 50.17,-720.89 54,-724.72 54,-728.55 54,-728.55 54,-736.22 54,-736.22 54,-740.05 50.17,-743.89 46.33,-743.89"/>
<text text-anchor="middle" x="27" y="-728.69" font-family="Arial" font-size="14.00" fill="#c6c5fe">app.js</text>
</g>
<!-- src/gameManager.js -->
<g id="node2" class="node">
<title>src/gameManager.js</title>
<path fill="none" stroke="#c6c5fe" d="M222.33,-723.89C222.33,-723.89 97.67,-723.89 97.67,-723.89 93.83,-723.89 90,-720.05 90,-716.22 90,-716.22 90,-708.55 90,-708.55 90,-704.72 93.83,-700.89 97.67,-700.89 97.67,-700.89 222.33,-700.89 222.33,-700.89 226.17,-700.89 230,-704.72 230,-708.55 230,-708.55 230,-716.22 230,-716.22 230,-720.05 226.17,-723.89 222.33,-723.89"/>
<text text-anchor="middle" x="160" y="-708.69" font-family="Arial" font-size="14.00" fill="#c6c5fe">src/gameManager.js</text>
</g>
<!-- app.js&#45;&gt;src/gameManager.js -->
<g id="edge1" class="edge">
<title>app.js&#45;&gt;src/gameManager.js</title>
<path fill="none" stroke="#757575" d="M54.19,-728.39C61.87,-727.22 70.69,-725.87 79.89,-724.47"/>
<polygon fill="#757575" stroke="#757575" points="80.62,-727.89 89.97,-722.93 79.56,-720.97 80.62,-727.89"/>
</g>
<!-- src/startScreen.js -->
<g id="node3" class="node">
<title>src/startScreen.js</title>
<path fill="none" stroke="#c6c5fe" d="M383.83,-1036.89C383.83,-1036.89 278.17,-1036.89 278.17,-1036.89 274.33,-1036.89 270.5,-1033.05 270.5,-1029.22 270.5,-1029.22 270.5,-1021.55 270.5,-1021.55 270.5,-1017.72 274.33,-1013.89 278.17,-1013.89 278.17,-1013.89 383.83,-1013.89 383.83,-1013.89 387.67,-1013.89 391.5,-1017.72 391.5,-1021.55 391.5,-1021.55 391.5,-1029.22 391.5,-1029.22 391.5,-1033.05 387.67,-1036.89 383.83,-1036.89"/>
<text text-anchor="middle" x="331" y="-1021.69" font-family="Arial" font-size="14.00" fill="#c6c5fe">src/startScreen.js</text>
</g>
<!-- app.js&#45;&gt;src/startScreen.js -->
<g id="edge2" class="edge">
<title>app.js&#45;&gt;src/startScreen.js</title>
<path fill="none" stroke="#757575" d="M35.4,-743.96C61.88,-784.51 156.14,-921.9 266,-999.39 271.53,-1003.29 277.73,-1006.73 284.04,-1009.73"/>
<polygon fill="#757575" stroke="#757575" points="282.74,-1012.98 293.3,-1013.81 285.56,-1006.58 282.74,-1012.98"/>
</g>
<!-- src/Boss.js -->
<g id="node4" class="node">
<title>src/Boss.js</title>
<path fill="none" stroke="#c6c5fe" d="M850.33,-877.89C850.33,-877.89 783.67,-877.89 783.67,-877.89 779.83,-877.89 776,-874.05 776,-870.22 776,-870.22 776,-862.55 776,-862.55 776,-858.72 779.83,-854.89 783.67,-854.89 783.67,-854.89 850.33,-854.89 850.33,-854.89 854.17,-854.89 858,-858.72 858,-862.55 858,-862.55 858,-870.22 858,-870.22 858,-874.05 854.17,-877.89 850.33,-877.89"/>
<text text-anchor="middle" x="817" y="-862.69" font-family="Arial" font-size="14.00" fill="#c6c5fe">src/Boss.js</text>
</g>
<!-- src/gameManager.js&#45;&gt;src/Boss.js -->
<g id="edge13" class="edge">
<title>src/gameManager.js&#45;&gt;src/Boss.js</title>
<path fill="none" stroke="#757575" d="M166.31,-723.98C179.09,-750.34 214.38,-814.45 266,-840.39 432.82,-924.19 665.2,-895.26 766.03,-876.83"/>
<polygon fill="#757575" stroke="#757575" points="766.76,-880.26 775.94,-874.97 765.47,-873.37 766.76,-880.26"/>
</g>
<!-- src/enemy.js -->
<g id="node5" class="node">
<title>src/enemy.js</title>
<path fill="none" stroke="#c6c5fe" d="M1052.83,-801.89C1052.83,-801.89 976.17,-801.89 976.17,-801.89 972.33,-801.89 968.5,-798.05 968.5,-794.22 968.5,-794.22 968.5,-786.55 968.5,-786.55 968.5,-782.72 972.33,-778.89 976.17,-778.89 976.17,-778.89 1052.83,-778.89 1052.83,-778.89 1056.67,-778.89 1060.5,-782.72 1060.5,-786.55 1060.5,-786.55 1060.5,-794.22 1060.5,-794.22 1060.5,-798.05 1056.67,-801.89 1052.83,-801.89"/>
<text text-anchor="middle" x="1014.5" y="-786.69" font-family="Arial" font-size="14.00" fill="#c6c5fe">src/enemy.js</text>
</g>
<!-- src/gameManager.js&#45;&gt;src/enemy.js -->
<g id="edge16" class="edge">
<title>src/gameManager.js&#45;&gt;src/enemy.js</title>
<path fill="none" stroke="#757575" d="M179.51,-723.94C227.76,-752.93 362.13,-826.39 484.5,-826.39 484.5,-826.39 484.5,-826.39 658.5,-826.39 764.86,-826.39 888.23,-810.19 957.95,-799.53"/>
<polygon fill="#757575" stroke="#757575" points="958.91,-802.92 968.26,-797.93 957.84,-796.01 958.91,-802.92"/>
</g>
<!-- src/levelCompleteScreen.js -->
<g id="node6" class="node">
<title>src/levelCompleteScreen.js</title>
<path fill="none" stroke="#cfffac" d="M1845.33,-958.89C1845.33,-958.89 1679.67,-958.89 1679.67,-958.89 1675.83,-958.89 1672,-955.05 1672,-951.22 1672,-951.22 1672,-943.55 1672,-943.55 1672,-939.72 1675.83,-935.89 1679.67,-935.89 1679.67,-935.89 1845.33,-935.89 1845.33,-935.89 1849.17,-935.89 1853,-939.72 1853,-943.55 1853,-943.55 1853,-951.22 1853,-951.22 1853,-955.05 1849.17,-958.89 1845.33,-958.89"/>
<text text-anchor="middle" x="1762.5" y="-943.69" font-family="Arial" font-size="14.00" fill="#cfffac">src/levelCompleteScreen.js</text>
</g>
<!-- src/gameManager.js&#45;&gt;src/levelCompleteScreen.js -->
<g id="edge19" class="edge">
<title>src/gameManager.js&#45;&gt;src/levelCompleteScreen.js</title>
<path fill="none" stroke="#757575" d="M169.58,-723.97C183.63,-743.35 211.81,-783.91 230,-821.39 250.99,-864.64 230.96,-890.48 266,-923.39 339.58,-992.49 383.56,-985.39 484.5,-985.39 484.5,-985.39 484.5,-985.39 1015.5,-985.39 1291.41,-985.39 1361.22,-991.3 1636,-966.39 1651.99,-964.94 1669.05,-962.77 1685.27,-960.42"/>
<polygon fill="#757575" stroke="#757575" points="1685.87,-963.87 1695.25,-958.93 1684.84,-956.94 1685.87,-963.87"/>
</g>
<!-- src/ammo.js -->
<g id="node9" class="node">
<title>src/ammo.js</title>
<path fill="none" stroke="#c6c5fe" d="M1337.83,-451.89C1337.83,-451.89 1262.17,-451.89 1262.17,-451.89 1258.33,-451.89 1254.5,-448.05 1254.5,-444.22 1254.5,-444.22 1254.5,-436.55 1254.5,-436.55 1254.5,-432.72 1258.33,-428.89 1262.17,-428.89 1262.17,-428.89 1337.83,-428.89 1337.83,-428.89 1341.67,-428.89 1345.5,-432.72 1345.5,-436.55 1345.5,-436.55 1345.5,-444.22 1345.5,-444.22 1345.5,-448.05 1341.67,-451.89 1337.83,-451.89"/>
<text text-anchor="middle" x="1300" y="-436.69" font-family="Arial" font-size="14.00" fill="#c6c5fe">src/ammo.js</text>
</g>
<!-- src/gameManager.js&#45;&gt;src/ammo.js -->
<g id="edge14" class="edge">
<title>src/gameManager.js&#45;&gt;src/ammo.js</title>
<path fill="none" stroke="#757575" d="M161.81,-700.55C166.7,-633.05 194.4,-297.3 266,-229.39 547.18,37.32 788.62,-127.58 1135,-301.39 1196.29,-332.14 1254.08,-390.35 1281.82,-420.76"/>
<polygon fill="#757575" stroke="#757575" points="1279.54,-423.46 1288.83,-428.55 1284.75,-418.78 1279.54,-423.46"/>
</g>
<!-- src/background.js -->
<g id="node11" class="node">
<title>src/background.js</title>
<path fill="none" stroke="#cfffac" d="M1067.83,-333.89C1067.83,-333.89 961.17,-333.89 961.17,-333.89 957.33,-333.89 953.5,-330.05 953.5,-326.22 953.5,-326.22 953.5,-318.55 953.5,-318.55 953.5,-314.72 957.33,-310.89 961.17,-310.89 961.17,-310.89 1067.83,-310.89 1067.83,-310.89 1071.67,-310.89 1075.5,-314.72 1075.5,-318.55 1075.5,-318.55 1075.5,-326.22 1075.5,-326.22 1075.5,-330.05 1071.67,-333.89 1067.83,-333.89"/>
<text text-anchor="middle" x="1014.5" y="-318.69" font-family="Arial" font-size="14.00" fill="#cfffac">src/background.js</text>
</g>
<!-- src/gameManager.js&#45;&gt;src/background.js -->
<g id="edge15" class="edge">
<title>src/gameManager.js&#45;&gt;src/background.js</title>
<path fill="none" stroke="#757575" d="M162.48,-700.87C172.86,-625.55 241.56,-206.39 484.5,-206.39 484.5,-206.39 484.5,-206.39 658.5,-206.39 690.65,-206.39 886.11,-276.03 972.5,-307.39"/>
<polygon fill="#757575" stroke="#757575" points="971.39,-310.71 981.98,-310.84 973.78,-304.13 971.39,-310.71"/>
</g>
<!-- src/gameState.js -->
<g id="node14" class="node">
<title>src/gameState.js</title>
<path fill="none" stroke="#cfffac" d="M1813.83,-315.89C1813.83,-315.89 1711.17,-315.89 1711.17,-315.89 1707.33,-315.89 1703.5,-312.05 1703.5,-308.22 1703.5,-308.22 1703.5,-300.55 1703.5,-300.55 1703.5,-296.72 1707.33,-292.89 1711.17,-292.89 1711.17,-292.89 1813.83,-292.89 1813.83,-292.89 1817.67,-292.89 1821.5,-296.72 1821.5,-300.55 1821.5,-300.55 1821.5,-308.22 1821.5,-308.22 1821.5,-312.05 1817.67,-315.89 1813.83,-315.89"/>
<text text-anchor="middle" x="1762.5" y="-300.69" font-family="Arial" font-size="14.00" fill="#cfffac">src/gameState.js</text>
</g>
<!-- src/gameManager.js&#45;&gt;src/gameState.js -->
<g id="edge17" class="edge">
<title>src/gameManager.js&#45;&gt;src/gameState.js</title>
<path fill="none" stroke="#757575" d="M161.57,-700.44C165.37,-625.71 189.21,-222.91 266,-132.39 332.7,-53.75 381.39,-54.39 484.5,-54.39 484.5,-54.39 484.5,-54.39 1301,-54.39 1375.67,-54.39 1580.68,-30.24 1636,-80.39 1703.89,-141.93 1609.01,-216.84 1672,-283.39 1677.99,-289.72 1685.5,-294.3 1693.61,-297.6"/>
<polygon fill="#757575" stroke="#757575" points="1692.75,-301.01 1703.35,-300.91 1695,-294.38 1692.75,-301.01"/>
</g>
<!-- src/keyboard.js -->
<g id="node15" class="node">
<title>src/keyboard.js</title>
<path fill="none" stroke="#c6c5fe" d="M531.33,-295.89C531.33,-295.89 439.67,-295.89 439.67,-295.89 435.83,-295.89 432,-292.05 432,-288.22 432,-288.22 432,-280.55 432,-280.55 432,-276.72 435.83,-272.89 439.67,-272.89 439.67,-272.89 531.33,-272.89 531.33,-272.89 535.17,-272.89 539,-276.72 539,-280.55 539,-280.55 539,-288.22 539,-288.22 539,-292.05 535.17,-295.89 531.33,-295.89"/>
<text text-anchor="middle" x="485.5" y="-280.69" font-family="Arial" font-size="14.00" fill="#c6c5fe">src/keyboard.js</text>
</g>
<!-- src/gameManager.js&#45;&gt;src/keyboard.js -->
<g id="edge18" class="edge">
<title>src/gameManager.js&#45;&gt;src/keyboard.js</title>
<path fill="none" stroke="#757575" d="M169.57,-700.79C202.92,-655.71 327.31,-487.88 432,-351.39 444.25,-335.42 458.32,-317.48 468.81,-304.19"/>
<polygon fill="#757575" stroke="#757575" points="471.68,-306.21 475.13,-296.19 466.18,-301.86 471.68,-306.21"/>
</g>
<!-- src/music.js -->
<g id="node16" class="node">
<title>src/music.js</title>
<path fill="none" stroke="#cfffac" d="M1798.83,-726.89C1798.83,-726.89 1726.17,-726.89 1726.17,-726.89 1722.33,-726.89 1718.5,-723.05 1718.5,-719.22 1718.5,-719.22 1718.5,-711.55 1718.5,-711.55 1718.5,-707.72 1722.33,-703.89 1726.17,-703.89 1726.17,-703.89 1798.83,-703.89 1798.83,-703.89 1802.67,-703.89 1806.5,-707.72 1806.5,-711.55 1806.5,-711.55 1806.5,-719.22 1806.5,-719.22 1806.5,-723.05 1802.67,-726.89 1798.83,-726.89"/>
<text text-anchor="middle" x="1762.5" y="-711.69" font-family="Arial" font-size="14.00" fill="#cfffac">src/music.js</text>
</g>
<!-- src/gameManager.js&#45;&gt;src/music.js -->
<g id="edge20" class="edge">
<title>src/gameManager.js&#45;&gt;src/music.js</title>
<path fill="none" stroke="#757575" d="M168.26,-723.89C191.46,-760.58 262.44,-872.63 266,-875.39 346.87,-937.95 382.25,-947.39 484.5,-947.39 484.5,-947.39 484.5,-947.39 818,-947.39 1090.86,-947.39 1167.35,-964.79 1429,-887.39 1551.83,-851.05 1682.62,-768.71 1736.3,-732.74"/>
<polygon fill="#757575" stroke="#757575" points="1738.5,-735.48 1744.83,-726.98 1734.58,-729.68 1738.5,-735.48"/>
</g>
<!-- src/player/Player.js -->
<g id="node17" class="node">
<title>src/player/Player.js</title>
<path fill="none" stroke="#c6c5fe" d="M388.33,-647.89C388.33,-647.89 273.67,-647.89 273.67,-647.89 269.83,-647.89 266,-644.05 266,-640.22 266,-640.22 266,-632.55 266,-632.55 266,-628.72 269.83,-624.89 273.67,-624.89 273.67,-624.89 388.33,-624.89 388.33,-624.89 392.17,-624.89 396,-628.72 396,-632.55 396,-632.55 396,-640.22 396,-640.22 396,-644.05 392.17,-647.89 388.33,-647.89"/>
<text text-anchor="middle" x="331" y="-632.69" font-family="Arial" font-size="14.00" fill="#c6c5fe">src/player/Player.js</text>
</g>
<!-- src/gameManager.js&#45;&gt;src/player/Player.js -->
<g id="edge21" class="edge">
<title>src/gameManager.js&#45;&gt;src/player/Player.js</title>
<path fill="none" stroke="#757575" d="M186.67,-700.84C215.54,-687.86 262.6,-666.7 294.87,-652.19"/>
<polygon fill="#757575" stroke="#757575" points="296.68,-655.21 304.37,-647.91 293.81,-648.82 296.68,-655.21"/>
</g>
<!-- src/rendering/Helpers.js -->
<g id="node18" class="node">
<title>src/rendering/Helpers.js</title>
<path fill="none" stroke="#cfffac" d="M1834.33,-274.89C1834.33,-274.89 1690.67,-274.89 1690.67,-274.89 1686.83,-274.89 1683,-271.05 1683,-267.22 1683,-267.22 1683,-259.55 1683,-259.55 1683,-255.72 1686.83,-251.89 1690.67,-251.89 1690.67,-251.89 1834.33,-251.89 1834.33,-251.89 1838.17,-251.89 1842,-255.72 1842,-259.55 1842,-259.55 1842,-267.22 1842,-267.22 1842,-271.05 1838.17,-274.89 1834.33,-274.89"/>
<text text-anchor="middle" x="1762.5" y="-259.69" font-family="Arial" font-size="14.00" fill="#cfffac">src/rendering/Helpers.js</text>
</g>
<!-- src/gameManager.js&#45;&gt;src/rendering/Helpers.js -->
<g id="edge22" class="edge">
<title>src/gameManager.js&#45;&gt;src/rendering/Helpers.js</title>
<path fill="none" stroke="#757575" d="M161.08,-700.76C161.88,-620.54 170.62,-149.7 266,-53.39 335.31,16.6 386.01,-16.39 484.5,-16.39 484.5,-16.39 484.5,-16.39 1301,-16.39 1450.45,-16.39 1509.97,34.93 1636,-45.39 1708.81,-91.79 1744.01,-196.53 1756.27,-241.84"/>
<polygon fill="#757575" stroke="#757575" points="1752.94,-242.96 1758.84,-251.76 1759.72,-241.21 1752.94,-242.96"/>
</g>
<!-- src/step.js -->
<g id="node19" class="node">
<title>src/step.js</title>
<path fill="none" stroke="#c6c5fe" d="M847.83,-529.89C847.83,-529.89 786.17,-529.89 786.17,-529.89 782.33,-529.89 778.5,-526.05 778.5,-522.22 778.5,-522.22 778.5,-514.55 778.5,-514.55 778.5,-510.72 782.33,-506.89 786.17,-506.89 786.17,-506.89 847.83,-506.89 847.83,-506.89 851.67,-506.89 855.5,-510.72 855.5,-514.55 855.5,-514.55 855.5,-522.22 855.5,-522.22 855.5,-526.05 851.67,-529.89 847.83,-529.89"/>
<text text-anchor="middle" x="817" y="-514.69" font-family="Arial" font-size="14.00" fill="#c6c5fe">src/step.js</text>
</g>
<!-- src/gameManager.js&#45;&gt;src/step.js -->
<g id="edge23" class="edge">
<title>src/gameManager.js&#45;&gt;src/step.js</title>
<path fill="none" stroke="#757575" d="M215,-700.87C262.84,-690.34 334.46,-673.8 396,-656.39 536.12,-616.75 699.25,-560.06 774.31,-533.37"/>
<polygon fill="#757575" stroke="#757575" points="775.63,-536.62 783.88,-529.96 773.28,-530.02 775.63,-536.62"/>
</g>
<!-- src/startScreen.js&#45;&gt;src/music.js -->
<g id="edge46" class="edge">
<title>src/startScreen.js&#45;&gt;src/music.js</title>
<path fill="none" stroke="#757575" d="M391.51,-1024.8C456.59,-1024.21 563.97,-1023.39 656.5,-1023.39 656.5,-1023.39 656.5,-1023.39 1015.5,-1023.39 1294.84,-1023.39 1404.49,-1079.69 1636,-923.39 1704.31,-877.27 1741.47,-780.34 1755.22,-737.06"/>
<polygon fill="#757575" stroke="#757575" points="1758.64,-737.86 1758.22,-727.27 1751.94,-735.81 1758.64,-737.86"/>
</g>
<!-- src/Boss.js&#45;&gt;src/enemy.js -->
<g id="edge3" class="edge">
<title>src/Boss.js&#45;&gt;src/enemy.js</title>
<path fill="none" stroke="#757575" d="M836.18,-854.69C857.66,-840.91 890.91,-819.68 894,-818.39 914.35,-809.86 937.79,-803.65 958.49,-799.28"/>
<polygon fill="#757575" stroke="#757575" points="959.3,-802.69 968.41,-797.28 957.91,-795.82 959.3,-802.69"/>
</g>
<!-- src/Boss.js&#45;&gt;src/levelCompleteScreen.js -->
<g id="edge4" class="edge">
<title>src/Boss.js&#45;&gt;src/levelCompleteScreen.js</title>
<path fill="none" stroke="#757575" d="M842.75,-878.03C857.33,-884.33 876.33,-891.58 894,-895.39 1166.95,-954.19 1498.61,-955.15 1661.46,-951.17"/>
<polygon fill="#757575" stroke="#757575" points="1662.03,-954.65 1671.94,-950.9 1661.85,-947.66 1662.03,-954.65"/>
</g>
<!-- src/weapons/enemyRocketAtack.js -->
<g id="node7" class="node">
<title>src/weapons/enemyRocketAtack.js</title>
<path fill="none" stroke="#cfffac" d="M1405.83,-842.89C1405.83,-842.89 1194.17,-842.89 1194.17,-842.89 1190.33,-842.89 1186.5,-839.05 1186.5,-835.22 1186.5,-835.22 1186.5,-827.55 1186.5,-827.55 1186.5,-823.72 1190.33,-819.89 1194.17,-819.89 1194.17,-819.89 1405.83,-819.89 1405.83,-819.89 1409.67,-819.89 1413.5,-823.72 1413.5,-827.55 1413.5,-827.55 1413.5,-835.22 1413.5,-835.22 1413.5,-839.05 1409.67,-842.89 1405.83,-842.89"/>
<text text-anchor="middle" x="1300" y="-827.69" font-family="Arial" font-size="14.00" fill="#cfffac">src/weapons/enemyRocketAtack.js</text>
</g>
<!-- src/Boss.js&#45;&gt;src/weapons/enemyRocketAtack.js -->
<g id="edge5" class="edge">
<title>src/Boss.js&#45;&gt;src/weapons/enemyRocketAtack.js</title>
<path fill="none" stroke="#757575" d="M858.19,-861.22C869.74,-859.84 882.36,-858.45 894,-857.39 988.54,-848.76 1095.75,-842.01 1176.11,-837.55"/>
<polygon fill="#757575" stroke="#757575" points="1176.48,-841.04 1186.27,-837 1176.09,-834.05 1176.48,-841.04"/>
</g>
<!-- src/weapons/gatling.js -->
<g id="node8" class="node">
<title>src/weapons/gatling.js</title>
<path fill="none" stroke="#c6c5fe" d="M1617.33,-529.89C1617.33,-529.89 1483.67,-529.89 1483.67,-529.89 1479.83,-529.89 1476,-526.05 1476,-522.22 1476,-522.22 1476,-514.55 1476,-514.55 1476,-510.72 1479.83,-506.89 1483.67,-506.89 1483.67,-506.89 1617.33,-506.89 1617.33,-506.89 1621.17,-506.89 1625,-510.72 1625,-514.55 1625,-514.55 1625,-522.22 1625,-522.22 1625,-526.05 1621.17,-529.89 1617.33,-529.89"/>
<text text-anchor="middle" x="1550.5" y="-514.69" font-family="Arial" font-size="14.00" fill="#c6c5fe">src/weapons/gatling.js</text>
</g>
<!-- src/Boss.js&#45;&gt;src/weapons/gatling.js -->
<g id="edge6" class="edge">
<title>src/Boss.js&#45;&gt;src/weapons/gatling.js</title>
<path fill="none" stroke="#757575" d="M858.37,-871.69C980.6,-886.81 1343.54,-924.51 1429,-851.39 1496.96,-793.24 1432.69,-736.79 1465,-653.39 1482.15,-609.1 1514.32,-563.48 1533.64,-538.24"/>
<polygon fill="#757575" stroke="#757575" points="1536.52,-540.24 1539.89,-530.2 1530.99,-535.95 1536.52,-540.24"/>
</g>
<!-- src/enemy.js&#45;&gt;src/weapons/enemyRocketAtack.js -->
<g id="edge11" class="edge">
<title>src/enemy.js&#45;&gt;src/weapons/enemyRocketAtack.js</title>
<path fill="none" stroke="#757575" d="M1060.73,-796.93C1100.59,-802.69 1159.83,-811.26 1209.26,-818.41"/>
<polygon fill="#757575" stroke="#757575" points="1208.93,-821.9 1219.33,-819.87 1209.94,-814.97 1208.93,-821.9"/>
</g>
<!-- src/enemy.js&#45;&gt;src/weapons/gatling.js -->
<g id="edge12" class="edge">
<title>src/enemy.js&#45;&gt;src/weapons/gatling.js</title>
<path fill="none" stroke="#757575" d="M1025.45,-778.63C1058.24,-739.94 1161.39,-618.73 1171,-613.39 1272.59,-556.88 1321.72,-615.15 1429,-570.39 1447.21,-562.79 1447.33,-553.18 1465,-544.39 1473.67,-540.07 1483.2,-536.3 1492.63,-533.08"/>
<polygon fill="#757575" stroke="#757575" points="1493.96,-536.32 1502.39,-529.91 1491.8,-529.67 1493.96,-536.32"/>
</g>
<!-- src/enemyManoeuvre.js -->
<g id="node12" class="node">
<title>src/enemyManoeuvre.js</title>
<path fill="none" stroke="#cfffac" d="M1372.83,-801.89C1372.83,-801.89 1227.17,-801.89 1227.17,-801.89 1223.33,-801.89 1219.5,-798.05 1219.5,-794.22 1219.5,-794.22 1219.5,-786.55 1219.5,-786.55 1219.5,-782.72 1223.33,-778.89 1227.17,-778.89 1227.17,-778.89 1372.83,-778.89 1372.83,-778.89 1376.67,-778.89 1380.5,-782.72 1380.5,-786.55 1380.5,-786.55 1380.5,-794.22 1380.5,-794.22 1380.5,-798.05 1376.67,-801.89 1372.83,-801.89"/>
<text text-anchor="middle" x="1300" y="-786.69" font-family="Arial" font-size="14.00" fill="#cfffac">src/enemyManoeuvre.js</text>
</g>
<!-- src/enemy.js&#45;&gt;src/enemyManoeuvre.js -->
<g id="edge9" class="edge">
<title>src/enemy.js&#45;&gt;src/enemyManoeuvre.js</title>
<path fill="none" stroke="#757575" d="M1060.73,-790.39C1100.59,-790.39 1159.83,-790.39 1209.26,-790.39"/>
<polygon fill="#757575" stroke="#757575" points="1209.33,-793.89 1219.33,-790.39 1209.33,-786.89 1209.33,-793.89"/>
</g>
<!-- src/rendering/EnemyCollisionsChecks.js -->
<g id="node13" class="node">
<title>src/rendering/EnemyCollisionsChecks.js</title>
<path fill="none" stroke="#c6c5fe" d="M1421.33,-645.89C1421.33,-645.89 1178.67,-645.89 1178.67,-645.89 1174.83,-645.89 1171,-642.05 1171,-638.22 1171,-638.22 1171,-630.55 1171,-630.55 1171,-626.72 1174.83,-622.89 1178.67,-622.89 1178.67,-622.89 1421.33,-622.89 1421.33,-622.89 1425.17,-622.89 1429,-626.72 1429,-630.55 1429,-630.55 1429,-638.22 1429,-638.22 1429,-642.05 1425.17,-645.89 1421.33,-645.89"/>
<text text-anchor="middle" x="1300" y="-630.69" font-family="Arial" font-size="14.00" fill="#c6c5fe">src/rendering/EnemyCollisionsChecks.js</text>
</g>
<!-- src/enemy.js&#45;&gt;src/rendering/EnemyCollisionsChecks.js -->
<g id="edge10" class="edge">
<title>src/enemy.js&#45;&gt;src/rendering/EnemyCollisionsChecks.js</title>
<path fill="none" stroke="#757575" d="M1036.81,-778.66C1086.7,-751.21 1211.22,-682.69 1268.85,-650.98"/>
<polygon fill="#757575" stroke="#757575" points="1270.76,-653.92 1277.83,-646.04 1267.38,-647.79 1270.76,-653.92"/>
</g>
<!-- src/weapons/gatling.js&#45;&gt;src/gameState.js -->
<g id="edge57" class="edge">
<title>src/weapons/gatling.js&#45;&gt;src/gameState.js</title>
<path fill="none" stroke="#757575" d="M1608.18,-506.84C1618.04,-503.24 1627.75,-498.53 1636,-492.39 1696.37,-447.4 1736.74,-364.25 1753.18,-325.41"/>
<polygon fill="#757575" stroke="#757575" points="1756.44,-326.69 1757.01,-316.12 1749.97,-324.03 1756.44,-326.69"/>
</g>
<!-- src/weapons/gatling.js&#45;&gt;src/music.js -->
<g id="edge58" class="edge">
<title>src/weapons/gatling.js&#45;&gt;src/music.js</title>
<path fill="none" stroke="#757575" d="M1564.01,-530.12C1599.1,-563.04 1698.69,-656.46 1741.52,-696.64"/>
<polygon fill="#757575" stroke="#757575" points="1739.37,-699.43 1749.06,-703.71 1744.16,-694.32 1739.37,-699.43"/>
</g>
<!-- src/ammo.js&#45;&gt;src/weapons/gatling.js -->
<g id="edge7" class="edge">
<title>src/ammo.js&#45;&gt;src/weapons/gatling.js</title>
<path fill="none" stroke="#757575" d="M1337.67,-451.9C1381.53,-465.66 1455.02,-488.73 1502.88,-503.75"/>
<polygon fill="#757575" stroke="#757575" points="1502.09,-507.17 1512.68,-506.83 1504.19,-500.5 1502.09,-507.17"/>
</g>
<!-- src/weapons/rocket.js -->
<g id="node10" class="node">
<title>src/weapons/rocket.js</title>
<path fill="none" stroke="#c6c5fe" d="M1615.83,-392.89C1615.83,-392.89 1485.17,-392.89 1485.17,-392.89 1481.33,-392.89 1477.5,-389.05 1477.5,-385.22 1477.5,-385.22 1477.5,-377.55 1477.5,-377.55 1477.5,-373.72 1481.33,-369.89 1485.17,-369.89 1485.17,-369.89 1615.83,-369.89 1615.83,-369.89 1619.67,-369.89 1623.5,-373.72 1623.5,-377.55 1623.5,-377.55 1623.5,-385.22 1623.5,-385.22 1623.5,-389.05 1619.67,-392.89 1615.83,-392.89"/>
<text text-anchor="middle" x="1550.5" y="-377.69" font-family="Arial" font-size="14.00" fill="#c6c5fe">src/weapons/rocket.js</text>
</g>
<!-- src/ammo.js&#45;&gt;src/weapons/rocket.js -->
<g id="edge8" class="edge">
<title>src/ammo.js&#45;&gt;src/weapons/rocket.js</title>
<path fill="none" stroke="#757575" d="M1345.59,-432.09C1370.26,-427.31 1401.43,-420.95 1429,-414.39 1452.6,-408.76 1478.59,-401.75 1500.37,-395.64"/>
<polygon fill="#757575" stroke="#757575" points="1501.38,-398.99 1510.05,-392.91 1499.48,-392.26 1501.38,-398.99"/>
</g>
<!-- src/weapons/rocket.js&#45;&gt;src/rendering/Helpers.js -->
<g id="edge59" class="edge">
<title>src/weapons/rocket.js&#45;&gt;src/rendering/Helpers.js</title>
<path fill="none" stroke="#757575" d="M1562.2,-369.66C1581.85,-348.89 1625.9,-305.73 1672,-283.39 1675.87,-281.51 1679.92,-279.81 1684.06,-278.27"/>
<polygon fill="#757575" stroke="#757575" points="1685.53,-281.46 1693.88,-274.94 1683.29,-274.83 1685.53,-281.46"/>
</g>
<!-- src/rendering/EnemyCollisionsChecks.js&#45;&gt;src/weapons/gatling.js -->
<g id="edge44" class="edge">
<title>src/rendering/EnemyCollisionsChecks.js&#45;&gt;src/weapons/gatling.js</title>
<path fill="none" stroke="#757575" d="M1401.39,-622.88C1411.24,-619.2 1420.66,-614.46 1429,-608.39 1455.38,-589.18 1439.59,-564.87 1465,-544.39 1470.02,-540.34 1475.67,-536.92 1481.6,-534.04"/>
<polygon fill="#757575" stroke="#757575" points="1483.32,-537.1 1491.11,-529.92 1480.54,-530.68 1483.32,-537.1"/>
</g>
<!-- src/rendering/EnemyCollisionsChecks.js&#45;&gt;src/weapons/rocket.js -->
<g id="edge45" class="edge">
<title>src/rendering/EnemyCollisionsChecks.js&#45;&gt;src/weapons/rocket.js</title>
<path fill="none" stroke="#757575" d="M1312.32,-622.86C1351.62,-582.85 1482.35,-449.75 1531.03,-400.19"/>
<polygon fill="#757575" stroke="#757575" points="1533.6,-402.57 1538.11,-392.98 1528.61,-397.66 1533.6,-402.57"/>
</g>
<!-- src/rendering/EnemyCollisionsChecks.js&#45;&gt;src/gameState.js -->
<g id="edge40" class="edge">
<title>src/rendering/EnemyCollisionsChecks.js&#45;&gt;src/gameState.js</title>
<path fill="none" stroke="#757575" d="M1428.77,-622.87C1509.23,-613.35 1603.77,-597.3 1636,-572.39 1718.37,-508.73 1748.97,-377.94 1758.15,-326.17"/>
<polygon fill="#757575" stroke="#757575" points="1761.64,-326.55 1759.84,-316.11 1754.73,-325.4 1761.64,-326.55"/>
</g>
<!-- src/rendering/EnemyCollisionsChecks.js&#45;&gt;src/music.js -->
<g id="edge41" class="edge">
<title>src/rendering/EnemyCollisionsChecks.js&#45;&gt;src/music.js</title>
<path fill="none" stroke="#757575" d="M1429.34,-629.71C1492.52,-630.41 1569.25,-635.79 1636,-653.39 1672.26,-662.94 1710.4,-683.5 1734.98,-698.33"/>
<polygon fill="#757575" stroke="#757575" points="1733.35,-701.44 1743.71,-703.7 1737.02,-695.48 1733.35,-701.44"/>
</g>
<!-- src/rendering/EnemyCollisionsChecks.js&#45;&gt;src/rendering/Helpers.js -->
<g id="edge43" class="edge">
<title>src/rendering/EnemyCollisionsChecks.js&#45;&gt;src/rendering/Helpers.js</title>
<path fill="none" stroke="#757575" d="M1384.91,-622.87C1400.11,-618.9 1415.42,-613.56 1429,-606.39 1448.46,-596.11 1445.44,-582.48 1465,-572.39 1533.85,-536.84 1582.76,-594.69 1636,-538.39 1714.64,-455.22 1594.35,-367.48 1672,-283.39 1672.91,-282.4 1673.86,-281.46 1674.84,-280.55"/>
<polygon fill="#757575" stroke="#757575" points="1677.1,-283.24 1682.98,-274.42 1672.88,-277.65 1677.1,-283.24"/>
</g>
<!-- src/gameOver.js -->
<g id="node21" class="node">
<title>src/gameOver.js</title>
<path fill="none" stroke="#c6c5fe" d="M1600.83,-726.89C1600.83,-726.89 1500.17,-726.89 1500.17,-726.89 1496.33,-726.89 1492.5,-723.05 1492.5,-719.22 1492.5,-719.22 1492.5,-711.55 1492.5,-711.55 1492.5,-707.72 1496.33,-703.89 1500.17,-703.89 1500.17,-703.89 1600.83,-703.89 1600.83,-703.89 1604.67,-703.89 1608.5,-707.72 1608.5,-711.55 1608.5,-711.55 1608.5,-719.22 1608.5,-719.22 1608.5,-723.05 1604.67,-726.89 1600.83,-726.89"/>
<text text-anchor="middle" x="1550.5" y="-711.69" font-family="Arial" font-size="14.00" fill="#c6c5fe">src/gameOver.js</text>
</g>
<!-- src/rendering/EnemyCollisionsChecks.js&#45;&gt;src/gameOver.js -->
<g id="edge39" class="edge">
<title>src/rendering/EnemyCollisionsChecks.js&#45;&gt;src/gameOver.js</title>
<path fill="none" stroke="#757575" d="M1390.64,-645.93C1403.92,-649.52 1417.12,-654.23 1429,-660.39 1448.53,-670.52 1445.69,-683.83 1465,-694.39 1470.48,-697.38 1476.4,-699.96 1482.47,-702.18"/>
<polygon fill="#757575" stroke="#757575" points="1481.49,-705.54 1492.08,-705.36 1483.69,-698.89 1481.49,-705.54"/>
</g>
<!-- src/rendering/Explosion.js -->
<g id="node25" class="node">
<title>src/rendering/Explosion.js</title>
<path fill="none" stroke="#cfffac" d="M1628.33,-685.89C1628.33,-685.89 1472.67,-685.89 1472.67,-685.89 1468.83,-685.89 1465,-682.05 1465,-678.22 1465,-678.22 1465,-670.55 1465,-670.55 1465,-666.72 1468.83,-662.89 1472.67,-662.89 1472.67,-662.89 1628.33,-662.89 1628.33,-662.89 1632.17,-662.89 1636,-666.72 1636,-670.55 1636,-670.55 1636,-678.22 1636,-678.22 1636,-682.05 1632.17,-685.89 1628.33,-685.89"/>
<text text-anchor="middle" x="1550.5" y="-670.69" font-family="Arial" font-size="14.00" fill="#cfffac">src/rendering/Explosion.js</text>
</g>
<!-- src/rendering/EnemyCollisionsChecks.js&#45;&gt;src/rendering/Explosion.js -->
<g id="edge42" class="edge">
<title>src/rendering/EnemyCollisionsChecks.js&#45;&gt;src/rendering/Explosion.js</title>
<path fill="none" stroke="#757575" d="M1372.54,-645.9C1402.3,-650.69 1437.01,-656.28 1467.77,-661.23"/>
<polygon fill="#757575" stroke="#757575" points="1467.6,-664.75 1478.03,-662.88 1468.72,-657.84 1467.6,-664.75"/>
</g>
<!-- src/keyboard.js&#45;&gt;src/weapons/rocket.js -->
<g id="edge32" class="edge">
<title>src/keyboard.js&#45;&gt;src/weapons/rocket.js</title>
<path fill="none" stroke="#757575" d="M500.07,-272.77C516.53,-259.51 545.72,-238.62 575,-230.39 645.6,-210.55 666.93,-224.17 740,-230.39 1049.56,-256.7 1125.7,-281.05 1429,-348.39 1453.06,-353.73 1479.49,-360.83 1501.46,-367.07"/>
<polygon fill="#757575" stroke="#757575" points="1500.63,-370.48 1511.21,-369.87 1502.56,-363.75 1500.63,-370.48"/>
</g>
<!-- src/keyboard.js&#45;&gt;src/gameState.js -->
<g id="edge29" class="edge">
<title>src/keyboard.js&#45;&gt;src/gameState.js</title>
<path fill="none" stroke="#757575" d="M498.37,-272.84C514.47,-257.79 544.7,-231.6 575,-216.39 755.99,-125.5 810.97,-92.39 1013.5,-92.39 1013.5,-92.39 1013.5,-92.39 1301,-92.39 1452.18,-92.39 1524.3,-49.51 1636,-151.39 1680.93,-192.36 1628.24,-241.16 1672,-283.39 1678.19,-289.36 1685.74,-293.75 1693.81,-296.96"/>
<polygon fill="#757575" stroke="#757575" points="1692.87,-300.33 1703.46,-300.2 1695.1,-293.7 1692.87,-300.33"/>
</g>
<!-- src/keyboard.js&#45;&gt;src/music.js -->
<g id="edge30" class="edge">
<title>src/keyboard.js&#45;&gt;src/music.js</title>
<path fill="none" stroke="#757575" d="M529.45,-272.79C543.83,-269.28 560.02,-265.74 575,-263.39 681.14,-246.71 708.56,-244.39 816,-244.39 816,-244.39 816,-244.39 1301,-244.39 1458.56,-244.39 1524.23,-249.33 1636,-360.39 1732.92,-456.68 1755.23,-632.35 1760.16,-693.61"/>
<polygon fill="#757575" stroke="#757575" points="1756.68,-693.96 1760.89,-703.68 1763.66,-693.45 1756.68,-693.96"/>
</g>
<!-- src/gameMenuActions.js -->
<g id="node20" class="node">
<title>src/gameMenuActions.js</title>
<path fill="none" stroke="#c6c5fe" d="M732.33,-295.89C732.33,-295.89 582.67,-295.89 582.67,-295.89 578.83,-295.89 575,-292.05 575,-288.22 575,-288.22 575,-280.55 575,-280.55 575,-276.72 578.83,-272.89 582.67,-272.89 582.67,-272.89 732.33,-272.89 732.33,-272.89 736.17,-272.89 740,-276.72 740,-280.55 740,-280.55 740,-288.22 740,-288.22 740,-292.05 736.17,-295.89 732.33,-295.89"/>
<text text-anchor="middle" x="657.5" y="-280.69" font-family="Arial" font-size="14.00" fill="#c6c5fe">src/gameMenuActions.js</text>
</g>
<!-- src/keyboard.js&#45;&gt;src/gameMenuActions.js -->
<g id="edge28" class="edge">
<title>src/keyboard.js&#45;&gt;src/gameMenuActions.js</title>
<path fill="none" stroke="#757575" d="M539.36,-284.39C547.48,-284.39 556.07,-284.39 564.75,-284.39"/>
<polygon fill="#757575" stroke="#757575" points="564.96,-287.89 574.96,-284.39 564.96,-280.89 564.96,-287.89"/>
</g>
<!-- src/touch.js -->
<g id="node22" class="node">
<title>src/touch.js</title>
<path fill="none" stroke="#c6c5fe" d="M692.33,-336.89C692.33,-336.89 622.67,-336.89 622.67,-336.89 618.83,-336.89 615,-333.05 615,-329.22 615,-329.22 615,-321.55 615,-321.55 615,-317.72 618.83,-313.89 622.67,-313.89 622.67,-313.89 692.33,-313.89 692.33,-313.89 696.17,-313.89 700,-317.72 700,-321.55 700,-321.55 700,-329.22 700,-329.22 700,-333.05 696.17,-336.89 692.33,-336.89"/>
<text text-anchor="middle" x="657.5" y="-321.69" font-family="Arial" font-size="14.00" fill="#c6c5fe">src/touch.js</text>
</g>
<!-- src/keyboard.js&#45;&gt;src/touch.js -->
<g id="edge31" class="edge">
<title>src/keyboard.js&#45;&gt;src/touch.js</title>
<path fill="none" stroke="#757575" d="M534.31,-295.92C556.28,-301.22 582.38,-307.51 604.81,-312.92"/>
<polygon fill="#757575" stroke="#757575" points="604.28,-316.39 614.83,-315.34 605.93,-309.59 604.28,-316.39"/>
</g>
<!-- src/player/Player.js&#45;&gt;src/weapons/gatling.js -->
<g id="edge37" class="edge">
<title>src/player/Player.js&#45;&gt;src/weapons/gatling.js</title>
<path fill="none" stroke="#757575" d="M396.03,-636.39C461.49,-636.39 566.08,-636.39 656.5,-636.39 656.5,-636.39 656.5,-636.39 818,-636.39 959.17,-636.39 1010.1,-682.19 1135,-616.39 1157.97,-604.29 1148.31,-583 1171,-570.39 1221.4,-542.36 1372.1,-551.77 1429,-542.39 1445.17,-539.72 1448.95,-537.69 1465,-534.39 1468.92,-533.58 1472.94,-532.77 1477.01,-531.96"/>
<polygon fill="#757575" stroke="#757575" points="1478.02,-535.33 1487.16,-529.96 1476.67,-528.46 1478.02,-535.33"/>
</g>
<!-- src/player/Player.js&#45;&gt;src/weapons/rocket.js -->
<g id="edge38" class="edge">
<title>src/player/Player.js&#45;&gt;src/weapons/rocket.js</title>
<path fill="none" stroke="#757575" d="M349.91,-624.76C417.55,-581.65 665.18,-430.87 894,-381.39 1096.04,-337.69 1341.38,-356 1466.86,-370.33"/>
<polygon fill="#757575" stroke="#757575" points="1466.82,-373.85 1477.15,-371.53 1467.62,-366.89 1466.82,-373.85"/>
</g>
<!-- src/player/Player.js&#45;&gt;src/gameState.js -->
<g id="edge34" class="edge">
<title>src/player/Player.js&#45;&gt;src/gameState.js</title>
<path fill="none" stroke="#757575" d="M339.74,-624.57C355.27,-601.48 392.16,-549.54 432,-514.39 488.31,-464.7 507.87,-458.05 575,-424.39 642.91,-390.33 819.31,-315.29 894,-301.39 1187.17,-246.82 1545.78,-278.46 1693.23,-295.59"/>
<polygon fill="#757575" stroke="#757575" points="1693.14,-299.1 1703.48,-296.8 1693.96,-292.15 1693.14,-299.1"/>
</g>
<!-- src/player/Player.js&#45;&gt;src/keyboard.js -->
<g id="edge35" class="edge">
<title>src/player/Player.js&#45;&gt;src/keyboard.js</title>
<path fill="none" stroke="#757575" d="M336.2,-624.46C346.44,-595.4 373.51,-518.55 396,-454.39 412.04,-408.62 408.73,-393.93 432,-351.39 441.54,-333.94 455.55,-316.33 466.7,-303.54"/>
<polygon fill="#757575" stroke="#757575" points="469.49,-305.68 473.54,-295.89 464.27,-301.02 469.49,-305.68"/>
</g>
<!-- src/player/Player.js&#45;&gt;src/music.js -->
<g id="edge36" class="edge">
<title>src/player/Player.js&#45;&gt;src/music.js</title>
<path fill="none" stroke="#757575" d="M386.9,-647.96C390.05,-649.28 393.11,-650.75 396,-652.39 415.69,-663.54 412.45,-677 432,-688.39 521.45,-740.49 552.99,-750.39 656.5,-750.39 656.5,-750.39 656.5,-750.39 1015.5,-750.39 1291.36,-750.39 1361.29,-760.48 1636,-735.39 1659.91,-733.2 1686.17,-729.26 1708.47,-725.45"/>
<polygon fill="#757575" stroke="#757575" points="1709.16,-728.88 1718.41,-723.72 1707.96,-721.99 1709.16,-728.88"/>
</g>
<!-- src/player/Player.js&#45;&gt;src/gameOver.js -->
<g id="edge33" class="edge">
<title>src/player/Player.js&#45;&gt;src/gameOver.js</title>
<path fill="none" stroke="#757575" d="M378.75,-647.93C465.19,-669.19 642.54,-712.39 656.5,-712.39 656.5,-712.39 656.5,-712.39 1015.5,-712.39 1183.34,-712.39 1380.84,-713.89 1482.12,-714.77"/>
<polygon fill="#757575" stroke="#757575" points="1482.18,-718.27 1492.21,-714.85 1482.24,-711.27 1482.18,-718.27"/>
</g>
<!-- src/step.js&#45;&gt;src/enemy.js -->
<g id="edge49" class="edge">
<title>src/step.js&#45;&gt;src/enemy.js</title>
<path fill="none" stroke="#757575" d="M821.24,-530.04C829.69,-558.98 854.49,-635.58 894,-688.39 920.28,-723.51 960.7,-754.76 987.12,-773.14"/>
<polygon fill="#757575" stroke="#757575" points="985.28,-776.11 995.51,-778.86 989.23,-770.33 985.28,-776.11"/>
</g>
<!-- src/step.js&#45;&gt;src/weapons/gatling.js -->
<g id="edge54" class="edge">
<title>src/step.js&#45;&gt;src/weapons/gatling.js</title>
<path fill="none" stroke="#757575" d="M855.7,-526.73C867.86,-529.05 881.44,-531.24 894,-532.39 1098.53,-551.07 1340.37,-536.46 1465.33,-526.21"/>
<polygon fill="#757575" stroke="#757575" points="1465.91,-529.67 1475.58,-525.36 1465.33,-522.7 1465.91,-529.67"/>
</g>
<!-- src/step.js&#45;&gt;src/ammo.js -->
<g id="edge47" class="edge">
<title>src/step.js&#45;&gt;src/ammo.js</title>
<path fill="none" stroke="#757575" d="M855.85,-511.22C868.02,-508.97 881.57,-506.51 894,-504.39 1019.07,-482.99 1166.32,-460.36 1244.23,-448.59"/>
<polygon fill="#757575" stroke="#757575" points="1244.93,-452.02 1254.29,-447.07 1243.88,-445.1 1244.93,-452.02"/>
</g>
<!-- src/step.js&#45;&gt;src/weapons/rocket.js -->
<g id="edge55" class="edge">
<title>src/step.js&#45;&gt;src/weapons/rocket.js</title>
<path fill="none" stroke="#757575" d="M829.76,-506.84C843.79,-493.78 868.58,-472.97 894,-462.39 1009.02,-414.5 1047.42,-435.17 1171,-419.39 1272.72,-406.39 1390.3,-395.18 1467.07,-388.37"/>
<polygon fill="#757575" stroke="#757575" points="1467.51,-391.85 1477.16,-387.48 1466.89,-384.87 1467.51,-391.85"/>
</g>
<!-- src/step.js&#45;&gt;src/background.js -->
<g id="edge48" class="edge">
<title>src/step.js&#45;&gt;src/background.js</title>
<path fill="none" stroke="#757575" d="M821.8,-506.59C830.63,-480.8 854.82,-418.73 894,-381.39 914.61,-361.74 943.01,-347.35 966.96,-337.7"/>
<polygon fill="#757575" stroke="#757575" points="968.51,-340.86 976.57,-333.98 965.98,-334.33 968.51,-340.86"/>
</g>
<!-- src/step.js&#45;&gt;src/gameState.js -->
<g id="edge51" class="edge">
<title>src/step.js&#45;&gt;src/gameState.js</title>
<path fill="none" stroke="#757575" d="M855.55,-521.2C976.29,-528.62 1362.63,-539.51 1636,-401.39 1677.55,-380.39 1718.96,-344.82 1742.29,-323.08"/>
<polygon fill="#757575" stroke="#757575" points="1744.9,-325.43 1749.76,-316.02 1740.09,-320.35 1744.9,-325.43"/>
</g>
<!-- src/step.js&#45;&gt;src/gameOver.js -->
<g id="edge50" class="edge">
<title>src/step.js&#45;&gt;src/gameOver.js</title>
<path fill="none" stroke="#757575" d="M823.35,-530.11C833.68,-551.27 858.53,-595.58 894,-616.39 906.69,-623.83 1317.76,-682.61 1482.35,-705.91"/>
<polygon fill="#757575" stroke="#757575" points="1481.97,-709.39 1492.36,-707.33 1482.95,-702.46 1481.97,-709.39"/>
</g>
<!-- src/mobile/mobileVelocityController.js -->
<g id="node23" class="node">
<title>src/mobile/mobileVelocityController.js</title>
<path fill="none" stroke="#cfffac" d="M1127.33,-607.89C1127.33,-607.89 901.67,-607.89 901.67,-607.89 897.83,-607.89 894,-604.05 894,-600.22 894,-600.22 894,-592.55 894,-592.55 894,-588.72 897.83,-584.89 901.67,-584.89 901.67,-584.89 1127.33,-584.89 1127.33,-584.89 1131.17,-584.89 1135,-588.72 1135,-592.55 1135,-592.55 1135,-600.22 1135,-600.22 1135,-604.05 1131.17,-607.89 1127.33,-607.89"/>
<text text-anchor="middle" x="1014.5" y="-592.69" font-family="Arial" font-size="14.00" fill="#cfffac">src/mobile/mobileVelocityController.js</text>
</g>
<!-- src/step.js&#45;&gt;src/mobile/mobileVelocityController.js -->
<g id="edge52" class="edge">
<title>src/step.js&#45;&gt;src/mobile/mobileVelocityController.js</title>
<path fill="none" stroke="#757575" d="M831.33,-529.9C845.8,-541.81 870.07,-560.07 894,-570.39 905.15,-575.2 917.29,-579.15 929.41,-582.4"/>
<polygon fill="#757575" stroke="#757575" points="928.56,-585.8 939.11,-584.86 930.28,-579.01 928.56,-585.8"/>
</g>
<!-- src/mobileJoystick.js -->
<g id="node24" class="node">
<title>src/mobileJoystick.js</title>
<path fill="none" stroke="#cfffac" d="M1076.83,-413.89C1076.83,-413.89 952.17,-413.89 952.17,-413.89 948.33,-413.89 944.5,-410.05 944.5,-406.22 944.5,-406.22 944.5,-398.55 944.5,-398.55 944.5,-394.72 948.33,-390.89 952.17,-390.89 952.17,-390.89 1076.83,-390.89 1076.83,-390.89 1080.67,-390.89 1084.5,-394.72 1084.5,-398.55 1084.5,-398.55 1084.5,-406.22 1084.5,-406.22 1084.5,-410.05 1080.67,-413.89 1076.83,-413.89"/>
<text text-anchor="middle" x="1014.5" y="-398.69" font-family="Arial" font-size="14.00" fill="#cfffac">src/mobileJoystick.js</text>
</g>
<!-- src/step.js&#45;&gt;src/mobileJoystick.js -->
<g id="edge53" class="edge">
<title>src/step.js&#45;&gt;src/mobileJoystick.js</title>
<path fill="none" stroke="#757575" d="M824.45,-506.6C835.79,-487.04 861.24,-448.11 894,-428.39 906.27,-421 920.36,-415.7 934.47,-411.91"/>
<polygon fill="#757575" stroke="#757575" points="935.35,-415.29 944.22,-409.51 933.68,-408.5 935.35,-415.29"/>
</g>
<!-- src/gameMenuActions.js&#45;&gt;src/gameState.js -->
<g id="edge24" class="edge">
<title>src/gameMenuActions.js&#45;&gt;src/gameState.js</title>
<path fill="none" stroke="#757575" d="M703.3,-272.82C873.94,-229.87 1481.38,-87.27 1636,-192.39 1671.97,-216.84 1639.08,-254.96 1672,-283.39 1678.27,-288.8 1685.67,-292.88 1693.5,-295.95"/>
<polygon fill="#757575" stroke="#757575" points="1692.61,-299.34 1703.2,-299.21 1694.84,-292.71 1692.61,-299.34"/>
</g>
<!-- src/gameMenuActions.js&#45;&gt;src/step.js -->
<g id="edge25" class="edge">
<title>src/gameMenuActions.js&#45;&gt;src/step.js</title>
<path fill="none" stroke="#757575" d="M727.78,-295.93C732.19,-298.27 736.33,-301.06 740,-304.39 797.03,-355.95 811.28,-453.15 814.83,-496.52"/>
<polygon fill="#757575" stroke="#757575" points="811.34,-496.83 815.53,-506.56 818.32,-496.34 811.34,-496.83"/>
</g>
<!-- src/gameOver.js&#45;&gt;src/levelCompleteScreen.js -->
<g id="edge26" class="edge">
<title>src/gameOver.js&#45;&gt;src/levelCompleteScreen.js</title>
<path fill="none" stroke="#757575" d="M1561.91,-726.89C1595.64,-764.15 1702.13,-881.79 1744.18,-928.25"/>
<polygon fill="#757575" stroke="#757575" points="1741.72,-930.75 1751.02,-935.81 1746.91,-926.05 1741.72,-930.75"/>
</g>
<!-- src/gameOver.js&#45;&gt;src/music.js -->
<g id="edge27" class="edge">
<title>src/gameOver.js&#45;&gt;src/music.js</title>
<path fill="none" stroke="#757575" d="M1608.61,-715.39C1639.71,-715.39 1677.94,-715.39 1708.39,-715.39"/>
<polygon fill="#757575" stroke="#757575" points="1708.4,-718.89 1718.4,-715.39 1708.4,-711.89 1708.4,-718.89"/>
</g>
<!-- src/touch.js&#45;&gt;src/mobileJoystick.js -->
<g id="edge56" class="edge">
<title>src/touch.js&#45;&gt;src/mobileJoystick.js</title>
<path fill="none" stroke="#757575" d="M700.27,-334.45C762.06,-347.85 878.29,-373.06 950.47,-388.72"/>
<polygon fill="#757575" stroke="#757575" points="949.84,-392.16 960.36,-390.86 951.33,-385.32 949.84,-392.16"/>
</g>
</g>
</svg>
