<?xml version="1.0" encoding="UTF-8" standalone="no"?>
<!DOCTYPE svg PUBLIC "-//W3C//DTD SVG 1.1//EN"
 "http://www.w3.org/Graphics/SVG/1.1/DTD/svg11.dtd">
<!-- Generated by graphviz version 2.43.0 (0)
 -->
<!-- Title: G Pages: 1 -->
<svg width="1958pt" height="855pt"
 viewBox="0.00 0.00 1958.20 854.70" xmlns="http://www.w3.org/2000/svg" xmlns:xlink="http://www.w3.org/1999/xlink">
<g id="graph0" class="graph" transform="scale(1 1) rotate(0) translate(21.6 833.1)">
<title>G</title>
<polygon fill="#111111" stroke="transparent" points="-21.6,21.6 -21.6,-833.1 1936.6,-833.1 1936.6,21.6 -21.6,21.6"/>
<!-- app.js -->
<g id="node1" class="node">
<title>app.js</title>
<path fill="none" stroke="#c6c5fe" d="M46.33,-237C46.33,-237 7.67,-237 7.67,-237 3.83,-237 0,-233.17 0,-229.33 0,-229.33 0,-221.67 0,-221.67 0,-217.83 3.83,-214 7.67,-214 7.67,-214 46.33,-214 46.33,-214 50.17,-214 54,-217.83 54,-221.67 54,-221.67 54,-229.33 54,-229.33 54,-233.17 50.17,-237 46.33,-237"/>
<text text-anchor="middle" x="27" y="-221.8" font-family="Arial" font-size="14.00" fill="#c6c5fe">app.js</text>
</g>
<!-- src/gameManager.js -->
<g id="node2" class="node">
<title>src/gameManager.js</title>
<path fill="none" stroke="#c6c5fe" d="M222.33,-411C222.33,-411 97.67,-411 97.67,-411 93.83,-411 90,-407.17 90,-403.33 90,-403.33 90,-395.67 90,-395.67 90,-391.83 93.83,-388 97.67,-388 97.67,-388 222.33,-388 222.33,-388 226.17,-388 230,-391.83 230,-395.67 230,-395.67 230,-403.33 230,-403.33 230,-407.17 226.17,-411 222.33,-411"/>
<text text-anchor="middle" x="160" y="-395.8" font-family="Arial" font-size="14.00" fill="#c6c5fe">src/gameManager.js</text>
</g>
<!-- app.js&#45;&gt;src/gameManager.js -->
<g id="edge1" class="edge">
<title>app.js&#45;&gt;src/gameManager.js</title>
<path fill="none" stroke="#757575" d="M36.8,-237.19C58.8,-266.41 116.4,-342.92 143.93,-379.48"/>
<polygon fill="#757575" stroke="#757575" points="141.43,-381.98 150.24,-387.86 147.02,-377.77 141.43,-381.98"/>
</g>
<!-- src/startScreen.js -->
<g id="node3" class="node">
<title>src/startScreen.js</title>
<path fill="none" stroke="#c6c5fe" d="M379.33,-23C379.33,-23 273.67,-23 273.67,-23 269.83,-23 266,-19.17 266,-15.33 266,-15.33 266,-7.67 266,-7.67 266,-3.83 269.83,0 273.67,0 273.67,0 379.33,0 379.33,0 383.17,0 387,-3.83 387,-7.67 387,-7.67 387,-15.33 387,-15.33 387,-19.17 383.17,-23 379.33,-23"/>
<text text-anchor="middle" x="326.5" y="-7.8" font-family="Arial" font-size="14.00" fill="#c6c5fe">src/startScreen.js</text>
</g>
<!-- app.js&#45;&gt;src/startScreen.js -->
<g id="edge2" class="edge">
<title>app.js&#45;&gt;src/startScreen.js</title>
<path fill="none" stroke="#757575" d="M40.55,-213.64C74.61,-181.88 172.53,-93.56 266,-37.5 272.25,-33.75 279.13,-30.24 285.94,-27.08"/>
<polygon fill="#757575" stroke="#757575" points="287.38,-30.27 295.09,-23.01 284.53,-23.88 287.38,-30.27"/>
</g>
<!-- src/Boss.js -->
<g id="node4" class="node">
<title>src/Boss.js</title>
<path fill="none" stroke="#c6c5fe" d="M698.33,-605C698.33,-605 631.67,-605 631.67,-605 627.83,-605 624,-601.17 624,-597.33 624,-597.33 624,-589.67 624,-589.67 624,-585.83 627.83,-582 631.67,-582 631.67,-582 698.33,-582 698.33,-582 702.17,-582 706,-585.83 706,-589.67 706,-589.67 706,-597.33 706,-597.33 706,-601.17 702.17,-605 698.33,-605"/>
<text text-anchor="middle" x="665" y="-589.8" font-family="Arial" font-size="14.00" fill="#c6c5fe">src/Boss.js</text>
</g>
<!-- src/gameManager.js&#45;&gt;src/Boss.js -->
<g id="edge11" class="edge">
<title>src/gameManager.js&#45;&gt;src/Boss.js</title>
<path fill="none" stroke="#757575" d="M164.21,-411.13C173.66,-442.83 204.59,-530.8 266,-567.5 375.5,-632.95 533.52,-617.66 613.51,-603.95"/>
<polygon fill="#757575" stroke="#757575" points="614.57,-607.31 623.8,-602.12 613.35,-600.42 614.57,-607.31"/>
</g>
<!-- src/enemy.js -->
<g id="node5" class="node">
<title>src/enemy.js</title>
<path fill="none" stroke="#c6c5fe" d="M841.33,-565C841.33,-565 764.67,-565 764.67,-565 760.83,-565 757,-561.17 757,-557.33 757,-557.33 757,-549.67 757,-549.67 757,-545.83 760.83,-542 764.67,-542 764.67,-542 841.33,-542 841.33,-542 845.17,-542 849,-545.83 849,-549.67 849,-549.67 849,-557.33 849,-557.33 849,-561.17 845.17,-565 841.33,-565"/>
<text text-anchor="middle" x="803" y="-549.8" font-family="Arial" font-size="14.00" fill="#c6c5fe">src/enemy.js</text>
</g>
<!-- src/gameManager.js&#45;&gt;src/enemy.js -->
<g id="edge14" class="edge">
<title>src/gameManager.js&#45;&gt;src/enemy.js</title>
<path fill="none" stroke="#757575" d="M166.25,-411.28C178.91,-438.05 213.96,-503.19 266,-529.5 348.8,-571.36 627.26,-562.61 746.77,-556.66"/>
<polygon fill="#757575" stroke="#757575" points="746.99,-560.16 756.8,-556.15 746.64,-553.16 746.99,-560.16"/>
</g>
<!-- src/levelCompleteScreen.js -->
<g id="node7" class="node">
<title>src/levelCompleteScreen.js</title>
<path fill="none" stroke="#cfffac" d="M1907.33,-785C1907.33,-785 1741.67,-785 1741.67,-785 1737.83,-785 1734,-781.17 1734,-777.33 1734,-777.33 1734,-769.67 1734,-769.67 1734,-765.83 1737.83,-762 1741.67,-762 1741.67,-762 1907.33,-762 1907.33,-762 1911.17,-762 1915,-765.83 1915,-769.67 1915,-769.67 1915,-777.33 1915,-777.33 1915,-781.17 1911.17,-785 1907.33,-785"/>
<text text-anchor="middle" x="1824.5" y="-769.8" font-family="Arial" font-size="14.00" fill="#cfffac">src/levelCompleteScreen.js</text>
</g>
<!-- src/gameManager.js&#45;&gt;src/levelCompleteScreen.js -->
<g id="edge16" class="edge">
<title>src/gameManager.js&#45;&gt;src/levelCompleteScreen.js</title>
<path fill="none" stroke="#757575" d="M162.3,-411.21C167.55,-453.59 190.68,-601.21 266,-690.5 342.64,-781.36 385.64,-811.5 504.5,-811.5 504.5,-811.5 504.5,-811.5 1467,-811.5 1563.6,-811.5 1674.1,-797.53 1746.14,-786.53"/>
<polygon fill="#757575" stroke="#757575" points="1746.7,-789.99 1756.05,-785 1745.63,-783.07 1746.7,-789.99"/>
</g>
<!-- src/ammo.js -->
<g id="node8" class="node">
<title>src/ammo.js</title>
<path fill="none" stroke="#c6c5fe" d="M1066.83,-447C1066.83,-447 991.17,-447 991.17,-447 987.33,-447 983.5,-443.17 983.5,-439.33 983.5,-439.33 983.5,-431.67 983.5,-431.67 983.5,-427.83 987.33,-424 991.17,-424 991.17,-424 1066.83,-424 1066.83,-424 1070.67,-424 1074.5,-427.83 1074.5,-431.67 1074.5,-431.67 1074.5,-439.33 1074.5,-439.33 1074.5,-443.17 1070.67,-447 1066.83,-447"/>
<text text-anchor="middle" x="1029" y="-431.8" font-family="Arial" font-size="14.00" fill="#c6c5fe">src/ammo.js</text>
</g>
<!-- src/gameManager.js&#45;&gt;src/ammo.js -->
<g id="edge12" class="edge">
<title>src/gameManager.js&#45;&gt;src/ammo.js</title>
<path fill="none" stroke="#757575" d="M188.05,-411.04C208.92,-419.32 238.73,-429.81 266,-434.5 527.55,-479.51 847.11,-454.59 973.15,-441.7"/>
<polygon fill="#757575" stroke="#757575" points="973.73,-445.16 983.32,-440.64 973.01,-438.2 973.73,-445.16"/>
</g>
<!-- src/background.js -->
<g id="node10" class="node">
<title>src/background.js</title>
<path fill="none" stroke="#cfffac" d="M856.33,-293C856.33,-293 749.67,-293 749.67,-293 745.83,-293 742,-289.17 742,-285.33 742,-285.33 742,-277.67 742,-277.67 742,-273.83 745.83,-270 749.67,-270 749.67,-270 856.33,-270 856.33,-270 860.17,-270 864,-273.83 864,-277.67 864,-277.67 864,-285.33 864,-285.33 864,-289.17 860.17,-293 856.33,-293"/>
<text text-anchor="middle" x="803" y="-277.8" font-family="Arial" font-size="14.00" fill="#cfffac">src/background.js</text>
</g>
<!-- src/gameManager.js&#45;&gt;src/background.js -->
<g id="edge13" class="edge">
<title>src/gameManager.js&#45;&gt;src/background.js</title>
<path fill="none" stroke="#757575" d="M177.71,-387.82C197.82,-374.24 233.02,-351.98 266,-338.5 422.98,-274.36 626.3,-272.46 731.69,-276.83"/>
<polygon fill="#757575" stroke="#757575" points="731.74,-280.34 741.89,-277.28 732.05,-273.34 731.74,-280.34"/>
</g>
<!-- src/keyboard.js -->
<g id="node13" class="node">
<title>src/keyboard.js</title>
<path fill="none" stroke="#c6c5fe" d="M372.33,-371C372.33,-371 280.67,-371 280.67,-371 276.83,-371 273,-367.17 273,-363.33 273,-363.33 273,-355.67 273,-355.67 273,-351.83 276.83,-348 280.67,-348 280.67,-348 372.33,-348 372.33,-348 376.17,-348 380,-351.83 380,-355.67 380,-355.67 380,-363.33 380,-363.33 380,-367.17 376.17,-371 372.33,-371"/>
<text text-anchor="middle" x="326.5" y="-355.8" font-family="Arial" font-size="14.00" fill="#c6c5fe">src/keyboard.js</text>
</g>
<!-- src/gameManager.js&#45;&gt;src/keyboard.js -->
<g id="edge15" class="edge">
<title>src/gameManager.js&#45;&gt;src/keyboard.js</title>
<path fill="none" stroke="#757575" d="M208.58,-387.93C227.17,-383.41 248.64,-378.19 268.08,-373.46"/>
<polygon fill="#757575" stroke="#757575" points="269.14,-376.81 278.03,-371.04 267.48,-370.01 269.14,-376.81"/>
</g>
<!-- src/music.js -->
<g id="node14" class="node">
<title>src/music.js</title>
<path fill="none" stroke="#cfffac" d="M1860.83,-218C1860.83,-218 1788.17,-218 1788.17,-218 1784.33,-218 1780.5,-214.17 1780.5,-210.33 1780.5,-210.33 1780.5,-202.67 1780.5,-202.67 1780.5,-198.83 1784.33,-195 1788.17,-195 1788.17,-195 1860.83,-195 1860.83,-195 1864.67,-195 1868.5,-198.83 1868.5,-202.67 1868.5,-202.67 1868.5,-210.33 1868.5,-210.33 1868.5,-214.17 1864.67,-218 1860.83,-218"/>
<text text-anchor="middle" x="1824.5" y="-202.8" font-family="Arial" font-size="14.00" fill="#cfffac">src/music.js</text>
</g>
<!-- src/gameManager.js&#45;&gt;src/music.js -->
<g id="edge17" class="edge">
<title>src/gameManager.js&#45;&gt;src/music.js</title>
<path fill="none" stroke="#757575" d="M162.05,-387.83C166.41,-346.36 186.74,-204.53 266,-129.5 346.99,-52.83 392.98,-51.5 504.5,-51.5 504.5,-51.5 504.5,-51.5 1467,-51.5 1571.77,-51.5 1603.92,-52.4 1698,-98.5 1742.99,-120.55 1784.89,-162.64 1807.06,-187.26"/>
<polygon fill="#757575" stroke="#757575" points="1804.55,-189.7 1813.79,-194.88 1809.8,-185.07 1804.55,-189.7"/>
</g>
<!-- src/player/Player.js -->
<g id="node15" class="node">
<title>src/player/Player.js</title>
<path fill="none" stroke="#c6c5fe" d="M1523.33,-306C1523.33,-306 1408.67,-306 1408.67,-306 1404.83,-306 1401,-302.17 1401,-298.33 1401,-298.33 1401,-290.67 1401,-290.67 1401,-286.83 1404.83,-283 1408.67,-283 1408.67,-283 1523.33,-283 1523.33,-283 1527.17,-283 1531,-286.83 1531,-290.67 1531,-290.67 1531,-298.33 1531,-298.33 1531,-302.17 1527.17,-306 1523.33,-306"/>
<text text-anchor="middle" x="1466" y="-290.8" font-family="Arial" font-size="14.00" fill="#c6c5fe">src/player/Player.js</text>
</g>
<!-- src/gameManager.js&#45;&gt;src/player/Player.js -->
<g id="edge18" class="edge">
<title>src/gameManager.js&#45;&gt;src/player/Player.js</title>
<path fill="none" stroke="#757575" d="M169.33,-387.9C204.27,-340.68 344.67,-165.5 504.5,-165.5 504.5,-165.5 504.5,-165.5 1030,-165.5 1180.67,-165.5 1226.52,-158.12 1365,-217.5 1397.07,-231.25 1427.94,-257.69 1446.69,-275.71"/>
<polygon fill="#757575" stroke="#757575" points="1444.37,-278.34 1453.95,-282.86 1449.28,-273.35 1444.37,-278.34"/>
</g>
<!-- src/rendering/Helpers.js -->
<g id="node16" class="node">
<title>src/rendering/Helpers.js</title>
<path fill="none" stroke="#cfffac" d="M1896.33,-671C1896.33,-671 1752.67,-671 1752.67,-671 1748.83,-671 1745,-667.17 1745,-663.33 1745,-663.33 1745,-655.67 1745,-655.67 1745,-651.83 1748.83,-648 1752.67,-648 1752.67,-648 1896.33,-648 1896.33,-648 1900.17,-648 1904,-651.83 1904,-655.67 1904,-655.67 1904,-663.33 1904,-663.33 1904,-667.17 1900.17,-671 1896.33,-671"/>
<text text-anchor="middle" x="1824.5" y="-655.8" font-family="Arial" font-size="14.00" fill="#cfffac">src/rendering/Helpers.js</text>
</g>
<!-- src/gameManager.js&#45;&gt;src/rendering/Helpers.js -->
<g id="edge19" class="edge">
<title>src/gameManager.js&#45;&gt;src/rendering/Helpers.js</title>
<path fill="none" stroke="#757575" d="M164.92,-411.1C187.05,-474.23 302.61,-773.5 504.5,-773.5 504.5,-773.5 504.5,-773.5 1030,-773.5 1308.46,-773.5 1636.36,-703.86 1766.32,-673.44"/>
<polygon fill="#757575" stroke="#757575" points="1767.51,-676.76 1776.44,-671.06 1765.9,-669.94 1767.51,-676.76"/>
</g>
<!-- src/speedometer.js -->
<g id="node17" class="node">
<title>src/speedometer.js</title>
<path fill="none" stroke="#cfffac" d="M1690.33,-230C1690.33,-230 1574.67,-230 1574.67,-230 1570.83,-230 1567,-226.17 1567,-222.33 1567,-222.33 1567,-214.67 1567,-214.67 1567,-210.83 1570.83,-207 1574.67,-207 1574.67,-207 1690.33,-207 1690.33,-207 1694.17,-207 1698,-210.83 1698,-214.67 1698,-214.67 1698,-222.33 1698,-222.33 1698,-226.17 1694.17,-230 1690.33,-230"/>
<text text-anchor="middle" x="1632.5" y="-214.8" font-family="Arial" font-size="14.00" fill="#cfffac">src/speedometer.js</text>
</g>
<!-- src/gameManager.js&#45;&gt;src/speedometer.js -->
<g id="edge20" class="edge">
<title>src/gameManager.js&#45;&gt;src/speedometer.js</title>
<path fill="none" stroke="#757575" d="M163.51,-387.99C171.68,-353.31 200.84,-248.9 266,-195.5 351.25,-125.63 394.28,-127.5 504.5,-127.5 504.5,-127.5 504.5,-127.5 1280.5,-127.5 1399.41,-127.5 1533.94,-177.05 1596.3,-203.02"/>
<polygon fill="#757575" stroke="#757575" points="1595.1,-206.31 1605.68,-206.97 1597.82,-199.86 1595.1,-206.31"/>
</g>
<!-- src/step.js -->
<g id="node18" class="node">
<title>src/step.js</title>
<path fill="none" stroke="#c6c5fe" d="M695.83,-411C695.83,-411 634.17,-411 634.17,-411 630.33,-411 626.5,-407.17 626.5,-403.33 626.5,-403.33 626.5,-395.67 626.5,-395.67 626.5,-391.83 630.33,-388 634.17,-388 634.17,-388 695.83,-388 695.83,-388 699.67,-388 703.5,-391.83 703.5,-395.67 703.5,-395.67 703.5,-403.33 703.5,-403.33 703.5,-407.17 699.67,-411 695.83,-411"/>
<text text-anchor="middle" x="665" y="-395.8" font-family="Arial" font-size="14.00" fill="#c6c5fe">src/step.js</text>
</g>
<!-- src/gameManager.js&#45;&gt;src/step.js -->
<g id="edge21" class="edge">
<title>src/gameManager.js&#45;&gt;src/step.js</title>
<path fill="none" stroke="#757575" d="M230.08,-410.14C314.77,-421.47 462.51,-435.74 588,-419.5 597.74,-418.24 608.01,-416.11 617.75,-413.69"/>
<polygon fill="#757575" stroke="#757575" points="618.87,-417.02 627.65,-411.1 617.09,-410.24 618.87,-417.02"/>
</g>
<!-- src/startScreen.js&#45;&gt;src/music.js -->
<g id="edge43" class="edge">
<title>src/startScreen.js&#45;&gt;src/music.js</title>
<path fill="none" stroke="#757575" d="M387.07,-11.78C454.32,-12.08 567.02,-12.5 664,-12.5 664,-12.5 664,-12.5 1467,-12.5 1570.27,-12.5 1608.38,13.8 1698,-37.5 1758.3,-72.02 1798.26,-148.48 1814.83,-185.55"/>
<polygon fill="#757575" stroke="#757575" points="1811.69,-187.1 1818.88,-194.89 1818.11,-184.32 1811.69,-187.1"/>
</g>
<!-- src/Boss.js&#45;&gt;src/enemy.js -->
<g id="edge3" class="edge">
<title>src/Boss.js&#45;&gt;src/enemy.js</title>
<path fill="none" stroke="#757575" d="M705.34,-581.93C720.14,-577.58 737.16,-572.57 752.75,-567.99"/>
<polygon fill="#757575" stroke="#757575" points="754.15,-571.22 762.75,-565.04 752.17,-564.51 754.15,-571.22"/>
</g>
<!-- src/gatling.js -->
<g id="node6" class="node">
<title>src/gatling.js</title>
<path fill="none" stroke="#c6c5fe" d="M1317.83,-399C1317.83,-399 1241.17,-399 1241.17,-399 1237.33,-399 1233.5,-395.17 1233.5,-391.33 1233.5,-391.33 1233.5,-383.67 1233.5,-383.67 1233.5,-379.83 1237.33,-376 1241.17,-376 1241.17,-376 1317.83,-376 1317.83,-376 1321.67,-376 1325.5,-379.83 1325.5,-383.67 1325.5,-383.67 1325.5,-391.33 1325.5,-391.33 1325.5,-395.17 1321.67,-399 1317.83,-399"/>
<text text-anchor="middle" x="1279.5" y="-383.8" font-family="Arial" font-size="14.00" fill="#c6c5fe">src/gatling.js</text>
</g>
<!-- src/Boss.js&#45;&gt;src/gatling.js -->
<g id="edge4" class="edge">
<title>src/Boss.js&#45;&gt;src/gatling.js</title>
<path fill="none" stroke="#757575" d="M706.13,-597.9C811.12,-608.49 1090.49,-630.52 1158,-573.5 1217,-523.67 1138.8,-457.52 1194,-403.5 1201.92,-395.74 1212.36,-391.14 1223.19,-388.52"/>
<polygon fill="#757575" stroke="#757575" points="1224,-391.92 1233.18,-386.63 1222.7,-385.05 1224,-391.92"/>
</g>
<!-- src/Boss.js&#45;&gt;src/levelCompleteScreen.js -->
<g id="edge5" class="edge">
<title>src/Boss.js&#45;&gt;src/levelCompleteScreen.js</title>
<path fill="none" stroke="#757575" d="M695.67,-605.05C709.6,-610.21 726.51,-616.1 742,-620.5 811.1,-640.12 829.63,-640.11 900,-654.5 1030.4,-681.17 1062.29,-692.29 1194,-711.5 1380.16,-738.65 1599.06,-757.23 1723.52,-766.55"/>
<polygon fill="#757575" stroke="#757575" points="1723.56,-770.06 1733.79,-767.31 1724.08,-763.08 1723.56,-770.06"/>
</g>
<!-- src/enemy.js&#45;&gt;src/gatling.js -->
<g id="edge9" class="edge">
<title>src/enemy.js&#45;&gt;src/gatling.js</title>
<path fill="none" stroke="#757575" d="M849.22,-542.55C938.62,-520.68 1131.66,-472.24 1158,-455.5 1178.75,-442.31 1173.44,-426.98 1194,-413.5 1202.95,-407.63 1213.29,-403.03 1223.6,-399.44"/>
<polygon fill="#757575" stroke="#757575" points="1224.97,-402.68 1233.44,-396.31 1222.84,-396.01 1224.97,-402.68"/>
</g>
<!-- src/enemyManoeuvre.js -->
<g id="node11" class="node">
<title>src/enemyManoeuvre.js</title>
<path fill="none" stroke="#cfffac" d="M1101.83,-565C1101.83,-565 956.17,-565 956.17,-565 952.33,-565 948.5,-561.17 948.5,-557.33 948.5,-557.33 948.5,-549.67 948.5,-549.67 948.5,-545.83 952.33,-542 956.17,-542 956.17,-542 1101.83,-542 1101.83,-542 1105.67,-542 1109.5,-545.83 1109.5,-549.67 1109.5,-549.67 1109.5,-557.33 1109.5,-557.33 1109.5,-561.17 1105.67,-565 1101.83,-565"/>
<text text-anchor="middle" x="1029" y="-549.8" font-family="Arial" font-size="14.00" fill="#cfffac">src/enemyManoeuvre.js</text>
</g>
<!-- src/enemy.js&#45;&gt;src/enemyManoeuvre.js -->
<g id="edge8" class="edge">
<title>src/enemy.js&#45;&gt;src/enemyManoeuvre.js</title>
<path fill="none" stroke="#757575" d="M849.06,-553.5C874.54,-553.5 907.33,-553.5 937.85,-553.5"/>
<polygon fill="#757575" stroke="#757575" points="938.11,-557 948.11,-553.5 938.11,-550 938.11,-557"/>
</g>
<!-- src/rendering/EnemyCollisionsChecks.js -->
<g id="node12" class="node">
<title>src/rendering/EnemyCollisionsChecks.js</title>
<path fill="none" stroke="#c6c5fe" d="M1150.33,-645C1150.33,-645 907.67,-645 907.67,-645 903.83,-645 900,-641.17 900,-637.33 900,-637.33 900,-629.67 900,-629.67 900,-625.83 903.83,-622 907.67,-622 907.67,-622 1150.33,-622 1150.33,-622 1154.17,-622 1158,-625.83 1158,-629.67 1158,-629.67 1158,-637.33 1158,-637.33 1158,-641.17 1154.17,-645 1150.33,-645"/>
<text text-anchor="middle" x="1029" y="-629.8" font-family="Arial" font-size="14.00" fill="#c6c5fe">src/rendering/EnemyCollisionsChecks.js</text>
</g>
<!-- src/enemy.js&#45;&gt;src/rendering/EnemyCollisionsChecks.js -->
<g id="edge10" class="edge">
<title>src/enemy.js&#45;&gt;src/rendering/EnemyCollisionsChecks.js</title>
<path fill="none" stroke="#757575" d="M836.57,-565.13C876.08,-579.24 942.77,-603.06 986.08,-618.53"/>
<polygon fill="#757575" stroke="#757575" points="985.16,-621.92 995.75,-621.98 987.51,-615.32 985.16,-621.92"/>
</g>
<!-- src/gatling.js&#45;&gt;src/music.js -->
<g id="edge25" class="edge">
<title>src/gatling.js&#45;&gt;src/music.js</title>
<path fill="none" stroke="#757575" d="M1325.81,-391.54C1405.8,-396.62 1575.21,-398.08 1698,-334.5 1747.88,-308.68 1789.8,-255.65 1810.2,-226.61"/>
<polygon fill="#757575" stroke="#757575" points="1813.27,-228.31 1816.05,-218.09 1807.5,-224.35 1813.27,-228.31"/>
</g>
<!-- src/gatling.js&#45;&gt;src/player/Player.js -->
<g id="edge26" class="edge">
<title>src/gatling.js&#45;&gt;src/player/Player.js</title>
<path fill="none" stroke="#757575" d="M1303.49,-375.91C1336.04,-359.51 1395.68,-329.44 1432.67,-310.8"/>
<polygon fill="#757575" stroke="#757575" points="1434.65,-313.72 1442.01,-306.09 1431.5,-307.47 1434.65,-313.72"/>
</g>
<!-- src/ammo.js&#45;&gt;src/gatling.js -->
<g id="edge6" class="edge">
<title>src/ammo.js&#45;&gt;src/gatling.js</title>
<path fill="none" stroke="#757575" d="M1074.71,-426.86C1116.42,-418.81 1178.74,-406.77 1223.47,-398.13"/>
<polygon fill="#757575" stroke="#757575" points="1224.15,-401.56 1233.31,-396.23 1222.82,-394.69 1224.15,-401.56"/>
</g>
<!-- src/rocket.js -->
<g id="node9" class="node">
<title>src/rocket.js</title>
<path fill="none" stroke="#c6c5fe" d="M1669.33,-533C1669.33,-533 1595.67,-533 1595.67,-533 1591.83,-533 1588,-529.17 1588,-525.33 1588,-525.33 1588,-517.67 1588,-517.67 1588,-513.83 1591.83,-510 1595.67,-510 1595.67,-510 1669.33,-510 1669.33,-510 1673.17,-510 1677,-513.83 1677,-517.67 1677,-517.67 1677,-525.33 1677,-525.33 1677,-529.17 1673.17,-533 1669.33,-533"/>
<text text-anchor="middle" x="1632.5" y="-517.8" font-family="Arial" font-size="14.00" fill="#c6c5fe">src/rocket.js</text>
</g>
<!-- src/ammo.js&#45;&gt;src/rocket.js -->
<g id="edge7" class="edge">
<title>src/ammo.js&#45;&gt;src/rocket.js</title>
<path fill="none" stroke="#757575" d="M1074.7,-437.31C1162.85,-441.53 1364.93,-454.48 1531,-489.5 1551.11,-493.74 1572.9,-500.41 1591.03,-506.57"/>
<polygon fill="#757575" stroke="#757575" points="1590.1,-509.95 1600.7,-509.92 1592.39,-503.34 1590.1,-509.95"/>
</g>
<!-- src/rocket.js&#45;&gt;src/rendering/Helpers.js -->
<g id="edge42" class="edge">
<title>src/rocket.js&#45;&gt;src/rendering/Helpers.js</title>
<path fill="none" stroke="#757575" d="M1649.37,-533.03C1682.62,-557.18 1759.77,-613.21 1799.26,-641.89"/>
<polygon fill="#757575" stroke="#757575" points="1797.39,-644.86 1807.54,-647.91 1801.5,-639.2 1797.39,-644.86"/>
</g>
<!-- src/rendering/EnemyCollisionsChecks.js&#45;&gt;src/gatling.js -->
<g id="edge36" class="edge">
<title>src/rendering/EnemyCollisionsChecks.js&#45;&gt;src/gatling.js</title>
<path fill="none" stroke="#757575" d="M1138.14,-621.95C1145.45,-618.15 1152.2,-613.4 1158,-607.5 1219.48,-544.97 1135.66,-478.97 1194,-413.5 1201.74,-404.81 1212.3,-398.99 1223.34,-395.1"/>
<polygon fill="#757575" stroke="#757575" points="1224.54,-398.39 1233.1,-392.15 1222.52,-391.69 1224.54,-398.39"/>
</g>
<!-- src/rendering/EnemyCollisionsChecks.js&#45;&gt;src/rocket.js -->
<g id="edge41" class="edge">
<title>src/rendering/EnemyCollisionsChecks.js&#45;&gt;src/rocket.js</title>
<path fill="none" stroke="#757575" d="M1123.93,-621.97C1135.86,-618.36 1147.54,-613.65 1158,-607.5 1179.2,-595.04 1172.21,-576.88 1194,-565.5 1259.5,-531.3 1476.15,-523.66 1577.87,-521.97"/>
<polygon fill="#757575" stroke="#757575" points="1577.99,-525.47 1587.93,-521.82 1577.88,-518.47 1577.99,-525.47"/>
</g>
<!-- src/rendering/EnemyCollisionsChecks.js&#45;&gt;src/music.js -->
<g id="edge37" class="edge">
<title>src/rendering/EnemyCollisionsChecks.js&#45;&gt;src/music.js</title>
<path fill="none" stroke="#757575" d="M1085.47,-621.93C1107.99,-617.2 1134.25,-611.64 1158,-606.5 1174.02,-603.03 1177.83,-601.2 1194,-598.5 1416.34,-561.33 1520.26,-680.16 1698,-541.5 1800.34,-461.66 1819.23,-288.91 1822.71,-228.16"/>
<polygon fill="#757575" stroke="#757575" points="1826.21,-228.33 1823.2,-218.17 1819.22,-227.99 1826.21,-228.33"/>
</g>
<!-- src/rendering/EnemyCollisionsChecks.js&#45;&gt;src/player/Player.js -->
<g id="edge38" class="edge">
<title>src/rendering/EnemyCollisionsChecks.js&#45;&gt;src/player/Player.js</title>
<path fill="none" stroke="#757575" d="M1132.88,-621.96C1141.91,-618.25 1150.47,-613.52 1158,-607.5 1188.46,-583.16 1169.16,-557.55 1194,-527.5 1253.16,-455.94 1295.76,-469.36 1365,-407.5 1398.23,-377.81 1431.45,-337.68 1450.01,-314.1"/>
<polygon fill="#757575" stroke="#757575" points="1452.77,-316.25 1456.15,-306.21 1447.24,-311.95 1452.77,-316.25"/>
</g>
<!-- src/rendering/EnemyCollisionsChecks.js&#45;&gt;src/rendering/Helpers.js -->
<g id="edge40" class="edge">
<title>src/rendering/EnemyCollisionsChecks.js&#45;&gt;src/rendering/Helpers.js</title>
<path fill="none" stroke="#757575" d="M1158.02,-639.12C1170.18,-639.61 1182.32,-640.07 1194,-640.5 1386.89,-647.53 1613.11,-653.9 1734.95,-657.18"/>
<polygon fill="#757575" stroke="#757575" points="1734.89,-660.68 1744.98,-657.44 1735.08,-653.68 1734.89,-660.68"/>
</g>
<!-- src/rendering/Explosion.js -->
<g id="node22" class="node">
<title>src/rendering/Explosion.js</title>
<path fill="none" stroke="#cfffac" d="M1357.33,-631C1357.33,-631 1201.67,-631 1201.67,-631 1197.83,-631 1194,-627.17 1194,-623.33 1194,-623.33 1194,-615.67 1194,-615.67 1194,-611.83 1197.83,-608 1201.67,-608 1201.67,-608 1357.33,-608 1357.33,-608 1361.17,-608 1365,-611.83 1365,-615.67 1365,-615.67 1365,-623.33 1365,-623.33 1365,-627.17 1361.17,-631 1357.33,-631"/>
<text text-anchor="middle" x="1279.5" y="-615.8" font-family="Arial" font-size="14.00" fill="#cfffac">src/rendering/Explosion.js</text>
</g>
<!-- src/rendering/EnemyCollisionsChecks.js&#45;&gt;src/rendering/Explosion.js -->
<g id="edge39" class="edge">
<title>src/rendering/EnemyCollisionsChecks.js&#45;&gt;src/rendering/Explosion.js</title>
<path fill="none" stroke="#757575" d="M1158.25,-626.27C1166.86,-625.79 1175.44,-625.31 1183.83,-624.83"/>
<polygon fill="#757575" stroke="#757575" points="1184.17,-628.32 1193.96,-624.26 1183.78,-621.33 1184.17,-628.32"/>
</g>
<!-- src/keyboard.js&#45;&gt;src/gatling.js -->
<g id="edge28" class="edge">
<title>src/keyboard.js&#45;&gt;src/gatling.js</title>
<path fill="none" stroke="#757575" d="M363.02,-347.98C371.23,-344.57 379.69,-340.4 387,-335.5 406.05,-322.71 402.43,-308.66 423,-298.5 511.19,-254.94 766.72,-245.93 864,-260.5 1007.6,-282.01 1170.17,-343.23 1241.56,-372.09"/>
<polygon fill="#757575" stroke="#757575" points="1240.44,-375.41 1251.02,-375.94 1243.08,-368.92 1240.44,-375.41"/>
</g>
<!-- src/keyboard.js&#45;&gt;src/rocket.js -->
<g id="edge31" class="edge">
<title>src/keyboard.js&#45;&gt;src/rocket.js</title>
<path fill="none" stroke="#757575" d="M336.73,-371.14C370.18,-412.4 490.18,-552.46 624,-613.5 923.84,-750.25 1045.19,-720.03 1365,-640.5 1456.51,-617.74 1555.8,-565.19 1603.21,-538.18"/>
<polygon fill="#757575" stroke="#757575" points="1605.05,-541.16 1611.98,-533.14 1601.56,-535.09 1605.05,-541.16"/>
</g>
<!-- src/keyboard.js&#45;&gt;src/music.js -->
<g id="edge29" class="edge">
<title>src/keyboard.js&#45;&gt;src/music.js</title>
<path fill="none" stroke="#757575" d="M336.09,-347.92C351.55,-327.71 385.94,-285.68 423,-259.5 573.78,-152.98 617.39,-89.5 802,-89.5 802,-89.5 802,-89.5 1467,-89.5 1594.37,-89.5 1735.16,-157.76 1794.55,-190"/>
<polygon fill="#757575" stroke="#757575" points="1792.92,-193.1 1803.37,-194.85 1796.29,-186.97 1792.92,-193.1"/>
</g>
<!-- src/keyboard.js&#45;&gt;src/player/Player.js -->
<g id="edge30" class="edge">
<title>src/keyboard.js&#45;&gt;src/player/Player.js</title>
<path fill="none" stroke="#757575" d="M380.12,-362.82C433.81,-364.52 518.82,-362.53 588,-339.5 694.92,-303.9 689.31,-203.5 802,-203.5 802,-203.5 802,-203.5 1030,-203.5 1176.94,-203.5 1346,-253.86 1422.95,-279.66"/>
<polygon fill="#757575" stroke="#757575" points="1422.15,-283.08 1432.74,-282.97 1424.39,-276.45 1422.15,-283.08"/>
</g>
<!-- src/gameMenuActions.js -->
<g id="node19" class="node">
<title>src/gameMenuActions.js</title>
<path fill="none" stroke="#c6c5fe" d="M580.33,-411C580.33,-411 430.67,-411 430.67,-411 426.83,-411 423,-407.17 423,-403.33 423,-403.33 423,-395.67 423,-395.67 423,-391.83 426.83,-388 430.67,-388 430.67,-388 580.33,-388 580.33,-388 584.17,-388 588,-391.83 588,-395.67 588,-395.67 588,-403.33 588,-403.33 588,-407.17 584.17,-411 580.33,-411"/>
<text text-anchor="middle" x="505.5" y="-395.8" font-family="Arial" font-size="14.00" fill="#c6c5fe">src/gameMenuActions.js</text>
</g>
<!-- src/keyboard.js&#45;&gt;src/gameMenuActions.js -->
<g id="edge27" class="edge">
<title>src/keyboard.js&#45;&gt;src/gameMenuActions.js</title>
<path fill="none" stroke="#757575" d="M378.7,-371.07C398.97,-375.65 422.44,-380.95 443.57,-385.73"/>
<polygon fill="#757575" stroke="#757575" points="442.89,-389.17 453.42,-387.96 444.44,-382.34 442.89,-389.17"/>
</g>
<!-- src/touch.js -->
<g id="node21" class="node">
<title>src/touch.js</title>
<path fill="none" stroke="#cfffac" d="M540.33,-331C540.33,-331 470.67,-331 470.67,-331 466.83,-331 463,-327.17 463,-323.33 463,-323.33 463,-315.67 463,-315.67 463,-311.83 466.83,-308 470.67,-308 470.67,-308 540.33,-308 540.33,-308 544.17,-308 548,-311.83 548,-315.67 548,-315.67 548,-323.33 548,-323.33 548,-327.17 544.17,-331 540.33,-331"/>
<text text-anchor="middle" x="505.5" y="-315.8" font-family="Arial" font-size="14.00" fill="#cfffac">src/touch.js</text>
</g>
<!-- src/keyboard.js&#45;&gt;src/touch.js -->
<g id="edge32" class="edge">
<title>src/keyboard.js&#45;&gt;src/touch.js</title>
<path fill="none" stroke="#757575" d="M378.7,-347.93C402,-342.66 429.52,-336.44 452.88,-331.17"/>
<polygon fill="#757575" stroke="#757575" points="453.96,-334.51 462.94,-328.89 452.42,-327.68 453.96,-334.51"/>
</g>
<!-- src/player/Player.js&#45;&gt;src/rocket.js -->
<g id="edge34" class="edge">
<title>src/player/Player.js&#45;&gt;src/rocket.js</title>
<path fill="none" stroke="#757575" d="M1475.38,-306.07C1501.84,-342.58 1583.77,-455.63 1617.14,-501.68"/>
<polygon fill="#757575" stroke="#757575" points="1614.43,-503.91 1623.13,-509.95 1620.1,-499.8 1614.43,-503.91"/>
</g>
<!-- src/player/Player.js&#45;&gt;src/speedometer.js -->
<g id="edge35" class="edge">
<title>src/player/Player.js&#45;&gt;src/speedometer.js</title>
<path fill="none" stroke="#757575" d="M1491.98,-282.96C1520.09,-269.97 1565.89,-248.81 1597.3,-234.3"/>
<polygon fill="#757575" stroke="#757575" points="1598.94,-237.4 1606.55,-230.03 1596,-231.04 1598.94,-237.4"/>
</g>
<!-- src/gameOver.js -->
<g id="node20" class="node">
<title>src/gameOver.js</title>
<path fill="none" stroke="#c6c5fe" d="M1682.83,-326C1682.83,-326 1582.17,-326 1582.17,-326 1578.33,-326 1574.5,-322.17 1574.5,-318.33 1574.5,-318.33 1574.5,-310.67 1574.5,-310.67 1574.5,-306.83 1578.33,-303 1582.17,-303 1582.17,-303 1682.83,-303 1682.83,-303 1686.67,-303 1690.5,-306.83 1690.5,-310.67 1690.5,-310.67 1690.5,-318.33 1690.5,-318.33 1690.5,-322.17 1686.67,-326 1682.83,-326"/>
<text text-anchor="middle" x="1632.5" y="-310.8" font-family="Arial" font-size="14.00" fill="#c6c5fe">src/gameOver.js</text>
</g>
<!-- src/player/Player.js&#45;&gt;src/gameOver.js -->
<g id="edge33" class="edge">
<title>src/player/Player.js&#45;&gt;src/gameOver.js</title>
<path fill="none" stroke="#757575" d="M1531.07,-302.29C1541.98,-303.62 1553.35,-305 1564.34,-306.33"/>
<polygon fill="#757575" stroke="#757575" points="1563.95,-309.81 1574.3,-307.55 1564.8,-302.86 1563.95,-309.81"/>
</g>
<!-- src/step.js&#45;&gt;src/enemy.js -->
<g id="edge46" class="edge">
<title>src/step.js&#45;&gt;src/enemy.js</title>
<path fill="none" stroke="#757575" d="M670.02,-411.03C679.13,-435.61 703.59,-493.68 742,-527.5 746.21,-531.2 751.02,-534.45 756.06,-537.27"/>
<polygon fill="#757575" stroke="#757575" points="754.76,-540.53 765.27,-541.9 757.91,-534.28 754.76,-540.53"/>
</g>
<!-- src/step.js&#45;&gt;src/gatling.js -->
<g id="edge48" class="edge">
<title>src/step.js&#45;&gt;src/gatling.js</title>
<path fill="none" stroke="#757575" d="M703.85,-398.76C808.14,-396.72 1100.01,-391 1222.87,-388.59"/>
<polygon fill="#757575" stroke="#757575" points="1223.25,-392.08 1233.18,-388.39 1223.11,-385.08 1223.25,-392.08"/>
</g>
<!-- src/step.js&#45;&gt;src/ammo.js -->
<g id="edge44" class="edge">
<title>src/step.js&#45;&gt;src/ammo.js</title>
<path fill="none" stroke="#757575" d="M703.81,-406.03C715.98,-407.98 729.53,-409.99 742,-411.5 822.27,-421.19 915.68,-428.24 973.33,-432.1"/>
<polygon fill="#757575" stroke="#757575" points="973.1,-435.59 983.31,-432.76 973.57,-428.61 973.1,-435.59"/>
</g>
<!-- src/step.js&#45;&gt;src/rocket.js -->
<g id="edge50" class="edge">
<title>src/step.js&#45;&gt;src/rocket.js</title>
<path fill="none" stroke="#757575" d="M689.42,-411.14C704.17,-418.03 723.81,-426.38 742,-431.5 810.37,-450.76 829.49,-446.97 900,-455.5 1152.77,-486.07 1456.27,-509.11 1577.57,-517.76"/>
<polygon fill="#757575" stroke="#757575" points="1577.48,-521.26 1587.7,-518.48 1577.98,-514.28 1577.48,-521.26"/>
</g>
<!-- src/step.js&#45;&gt;src/background.js -->
<g id="edge45" class="edge">
<title>src/step.js&#45;&gt;src/background.js</title>
<path fill="none" stroke="#757575" d="M673.03,-387.82C685.04,-368.73 711.2,-330.66 742,-307.5 747.06,-303.69 752.77,-300.31 758.59,-297.35"/>
<polygon fill="#757575" stroke="#757575" points="760.21,-300.46 767.78,-293.04 757.24,-294.12 760.21,-300.46"/>
</g>
<!-- src/step.js&#45;&gt;src/player/Player.js -->
<g id="edge49" class="edge">
<title>src/step.js&#45;&gt;src/player/Player.js</title>
<path fill="none" stroke="#757575" d="M677.69,-388C691.67,-375.06 716.4,-354.67 742,-345.5 967.13,-264.83 1256.46,-275.83 1390.59,-286.85"/>
<polygon fill="#757575" stroke="#757575" points="1390.5,-290.35 1400.76,-287.71 1391.09,-283.38 1390.5,-290.35"/>
</g>
<!-- src/step.js&#45;&gt;src/gameOver.js -->
<g id="edge47" class="edge">
<title>src/step.js&#45;&gt;src/gameOver.js</title>
<path fill="none" stroke="#757575" d="M703.88,-395.98C716.05,-394.86 729.59,-393.62 742,-392.5 1048.83,-364.92 1415.32,-333.15 1563.94,-320.32"/>
<polygon fill="#757575" stroke="#757575" points="1564.6,-323.78 1574.26,-319.43 1563.99,-316.81 1564.6,-323.78"/>
</g>
<!-- src/gameMenuActions.js&#45;&gt;src/step.js -->
<g id="edge22" class="edge">
<title>src/gameMenuActions.js&#45;&gt;src/step.js</title>
<path fill="none" stroke="#757575" d="M588.02,-399.5C597.62,-399.5 607.17,-399.5 616.09,-399.5"/>
<polygon fill="#757575" stroke="#757575" points="616.24,-403 626.24,-399.5 616.24,-396 616.24,-403"/>
</g>
<!-- src/gameOver.js&#45;&gt;src/levelCompleteScreen.js -->
<g id="edge23" class="edge">
<title>src/gameOver.js&#45;&gt;src/levelCompleteScreen.js</title>
<path fill="none" stroke="#757575" d="M1638.14,-326.08C1649.61,-355.06 1679.7,-433.22 1698,-500.5 1719.41,-579.22 1696.2,-608.2 1734,-680.5 1749.97,-711.04 1779.06,-738.45 1799.74,-755.47"/>
<polygon fill="#757575" stroke="#757575" points="1797.76,-758.37 1807.75,-761.9 1802.13,-752.91 1797.76,-758.37"/>
</g>
<!-- src/gameOver.js&#45;&gt;src/music.js -->
<g id="edge24" class="edge">
<title>src/gameOver.js&#45;&gt;src/music.js</title>
<path fill="none" stroke="#757575" d="M1653.83,-302.94C1687.6,-283.75 1755.37,-245.23 1794.26,-223.12"/>
<polygon fill="#757575" stroke="#757575" points="1796.06,-226.12 1803.03,-218.14 1792.6,-220.04 1796.06,-226.12"/>
</g>
</g>
</svg>
