<?xml version="1.0" encoding="UTF-8" standalone="no"?>
<!DOCTYPE svg PUBLIC "-//W3C//DTD SVG 1.1//EN"
 "http://www.w3.org/Graphics/SVG/1.1/DTD/svg11.dtd">
<!-- Generated by graphviz version 2.43.0 (0)
 -->
<!-- Title: G Pages: 1 -->
<svg width="1944pt" height="826pt"
 viewBox="0.00 0.00 1944.20 826.12" xmlns="http://www.w3.org/2000/svg" xmlns:xlink="http://www.w3.org/1999/xlink">
<g id="graph0" class="graph" transform="scale(1 1) rotate(0) translate(21.6 804.52)">
<title>G</title>
<polygon fill="#111111" stroke="transparent" points="-21.6,21.6 -21.6,-804.52 1922.6,-804.52 1922.6,21.6 -21.6,21.6"/>
<!-- app.js -->
<g id="node1" class="node">
<title>app.js</title>
<path fill="none" stroke="#c6c5fe" d="M46.33,-579.42C46.33,-579.42 7.67,-579.42 7.67,-579.42 3.83,-579.42 0,-575.59 0,-571.75 0,-571.75 0,-564.09 0,-564.09 0,-560.25 3.83,-556.42 7.67,-556.42 7.67,-556.42 46.33,-556.42 46.33,-556.42 50.17,-556.42 54,-560.25 54,-564.09 54,-564.09 54,-571.75 54,-571.75 54,-575.59 50.17,-579.42 46.33,-579.42"/>
<text text-anchor="middle" x="27" y="-564.22" font-family="Arial" font-size="14.00" fill="#c6c5fe">app.js</text>
</g>
<!-- src/gameManager.js -->
<g id="node2" class="node">
<title>src/gameManager.js</title>
<path fill="none" stroke="#c6c5fe" d="M222.33,-387.42C222.33,-387.42 97.67,-387.42 97.67,-387.42 93.83,-387.42 90,-383.59 90,-379.75 90,-379.75 90,-372.09 90,-372.09 90,-368.25 93.83,-364.42 97.67,-364.42 97.67,-364.42 222.33,-364.42 222.33,-364.42 226.17,-364.42 230,-368.25 230,-372.09 230,-372.09 230,-379.75 230,-379.75 230,-383.59 226.17,-387.42 222.33,-387.42"/>
<text text-anchor="middle" x="160" y="-372.22" font-family="Arial" font-size="14.00" fill="#c6c5fe">src/gameManager.js</text>
</g>
<!-- app.js&#45;&gt;src/gameManager.js -->
<g id="edge1" class="edge">
<title>app.js&#45;&gt;src/gameManager.js</title>
<path fill="none" stroke="#757575" d="M36,-556.2C57.75,-524.32 118.15,-435.79 145.38,-395.88"/>
<polygon fill="#757575" stroke="#757575" points="148.36,-397.72 151.11,-387.49 142.58,-393.78 148.36,-397.72"/>
</g>
<!-- src/music.js -->
<g id="node3" class="node">
<title>src/music.js</title>
<path fill="none" stroke="#cfffac" d="M1846.83,-689.42C1846.83,-689.42 1774.17,-689.42 1774.17,-689.42 1770.33,-689.42 1766.5,-685.59 1766.5,-681.75 1766.5,-681.75 1766.5,-674.09 1766.5,-674.09 1766.5,-670.25 1770.33,-666.42 1774.17,-666.42 1774.17,-666.42 1846.83,-666.42 1846.83,-666.42 1850.67,-666.42 1854.5,-670.25 1854.5,-674.09 1854.5,-674.09 1854.5,-681.75 1854.5,-681.75 1854.5,-685.59 1850.67,-689.42 1846.83,-689.42"/>
<text text-anchor="middle" x="1810.5" y="-674.22" font-family="Arial" font-size="14.00" fill="#cfffac">src/music.js</text>
</g>
<!-- app.js&#45;&gt;src/music.js -->
<g id="edge2" class="edge">
<title>app.js&#45;&gt;src/music.js</title>
<path fill="none" stroke="#757575" d="M35.43,-579.48C65.14,-624.14 180.46,-782.92 318.5,-782.92 318.5,-782.92 318.5,-782.92 1453,-782.92 1557.35,-782.92 1585.03,-774 1684,-740.92 1719.26,-729.13 1757.06,-709.03 1781.84,-694.7"/>
<polygon fill="#757575" stroke="#757575" points="1783.82,-697.6 1790.68,-689.52 1780.28,-691.56 1783.82,-697.6"/>
</g>
<!-- src/gameManager.js&#45;&gt;src/music.js -->
<g id="edge15" class="edge">
<title>src/gameManager.js&#45;&gt;src/music.js</title>
<path fill="none" stroke="#757575" d="M162.51,-387.62C168.31,-427.98 192.58,-563.23 266,-640.92 341.53,-720.84 380.54,-744.92 490.5,-744.92 490.5,-744.92 490.5,-744.92 1453,-744.92 1556.53,-744.92 1582.7,-736.29 1684,-714.92 1711.74,-709.07 1742.26,-700.13 1766.26,-692.5"/>
<polygon fill="#757575" stroke="#757575" points="1767.33,-695.83 1775.78,-689.44 1765.19,-689.17 1767.33,-695.83"/>
</g>
<!-- src/Boss.js -->
<g id="node4" class="node">
<title>src/Boss.js</title>
<path fill="none" stroke="#c6c5fe" d="M684.33,-599.42C684.33,-599.42 617.67,-599.42 617.67,-599.42 613.83,-599.42 610,-595.59 610,-591.75 610,-591.75 610,-584.09 610,-584.09 610,-580.25 613.83,-576.42 617.67,-576.42 617.67,-576.42 684.33,-576.42 684.33,-576.42 688.17,-576.42 692,-580.25 692,-584.09 692,-584.09 692,-591.75 692,-591.75 692,-595.59 688.17,-599.42 684.33,-599.42"/>
<text text-anchor="middle" x="651" y="-584.22" font-family="Arial" font-size="14.00" fill="#c6c5fe">src/Boss.js</text>
</g>
<!-- src/gameManager.js&#45;&gt;src/Boss.js -->
<g id="edge9" class="edge">
<title>src/gameManager.js&#45;&gt;src/Boss.js</title>
<path fill="none" stroke="#757575" d="M163.57,-387.76C171.67,-421.84 200.12,-520.41 266,-561.92 369.61,-627.2 521.68,-612.34 599.72,-598.62"/>
<polygon fill="#757575" stroke="#757575" points="600.56,-602.03 609.77,-596.79 599.31,-595.14 600.56,-602.03"/>
</g>
<!-- src/enemy.js -->
<g id="node5" class="node">
<title>src/enemy.js</title>
<path fill="none" stroke="#c6c5fe" d="M827.33,-559.42C827.33,-559.42 750.67,-559.42 750.67,-559.42 746.83,-559.42 743,-555.59 743,-551.75 743,-551.75 743,-544.09 743,-544.09 743,-540.25 746.83,-536.42 750.67,-536.42 750.67,-536.42 827.33,-536.42 827.33,-536.42 831.17,-536.42 835,-540.25 835,-544.09 835,-544.09 835,-551.75 835,-551.75 835,-555.59 831.17,-559.42 827.33,-559.42"/>
<text text-anchor="middle" x="789" y="-544.22" font-family="Arial" font-size="14.00" fill="#c6c5fe">src/enemy.js</text>
</g>
<!-- src/gameManager.js&#45;&gt;src/enemy.js -->
<g id="edge12" class="edge">
<title>src/gameManager.js&#45;&gt;src/enemy.js</title>
<path fill="none" stroke="#757575" d="M165.09,-387.52C176.08,-416.68 209.32,-492.97 266,-523.92 344.93,-567.02 614.7,-557.76 732.37,-551.39"/>
<polygon fill="#757575" stroke="#757575" points="732.81,-554.87 742.6,-550.82 732.42,-547.88 732.81,-554.87"/>
</g>
<!-- src/ammo.js -->
<g id="node7" class="node">
<title>src/ammo.js</title>
<path fill="none" stroke="#c6c5fe" d="M1052.83,-446.42C1052.83,-446.42 977.17,-446.42 977.17,-446.42 973.33,-446.42 969.5,-442.59 969.5,-438.75 969.5,-438.75 969.5,-431.09 969.5,-431.09 969.5,-427.25 973.33,-423.42 977.17,-423.42 977.17,-423.42 1052.83,-423.42 1052.83,-423.42 1056.67,-423.42 1060.5,-427.25 1060.5,-431.09 1060.5,-431.09 1060.5,-438.75 1060.5,-438.75 1060.5,-442.59 1056.67,-446.42 1052.83,-446.42"/>
<text text-anchor="middle" x="1015" y="-431.22" font-family="Arial" font-size="14.00" fill="#c6c5fe">src/ammo.js</text>
</g>
<!-- src/gameManager.js&#45;&gt;src/ammo.js -->
<g id="edge10" class="edge">
<title>src/gameManager.js&#45;&gt;src/ammo.js</title>
<path fill="none" stroke="#757575" d="M190.56,-387.47C236.45,-404.71 327.99,-436.4 409,-447.92 610.07,-476.52 852.45,-454.51 959.1,-442.02"/>
<polygon fill="#757575" stroke="#757575" points="959.78,-445.46 969.3,-440.81 958.96,-438.51 959.78,-445.46"/>
</g>
<!-- src/rocket.js -->
<g id="node8" class="node">
<title>src/rocket.js</title>
<path fill="none" stroke="#c6c5fe" d="M1655.33,-306.42C1655.33,-306.42 1581.67,-306.42 1581.67,-306.42 1577.83,-306.42 1574,-302.59 1574,-298.75 1574,-298.75 1574,-291.09 1574,-291.09 1574,-287.25 1577.83,-283.42 1581.67,-283.42 1581.67,-283.42 1655.33,-283.42 1655.33,-283.42 1659.17,-283.42 1663,-287.25 1663,-291.09 1663,-291.09 1663,-298.75 1663,-298.75 1663,-302.59 1659.17,-306.42 1655.33,-306.42"/>
<text text-anchor="middle" x="1618.5" y="-291.22" font-family="Arial" font-size="14.00" fill="#c6c5fe">src/rocket.js</text>
</g>
<!-- src/gameManager.js&#45;&gt;src/rocket.js -->
<g id="edge18" class="edge">
<title>src/gameManager.js&#45;&gt;src/rocket.js</title>
<path fill="none" stroke="#757575" d="M161.89,-364.14C165.69,-322.99 184.31,-184.72 266,-120.92 345.48,-58.84 389.65,-87.92 490.5,-87.92 490.5,-87.92 490.5,-87.92 652,-87.92 1042.97,-87.92 1146.24,-123.86 1517,-247.92 1541.49,-256.11 1567.89,-268.61 1587.48,-278.67"/>
<polygon fill="#757575" stroke="#757575" points="1586.03,-281.86 1596.52,-283.37 1589.27,-275.65 1586.03,-281.86"/>
</g>
<!-- src/background.js -->
<g id="node9" class="node">
<title>src/background.js</title>
<path fill="none" stroke="#cfffac" d="M842.33,-139.42C842.33,-139.42 735.67,-139.42 735.67,-139.42 731.83,-139.42 728,-135.59 728,-131.75 728,-131.75 728,-124.09 728,-124.09 728,-120.25 731.83,-116.42 735.67,-116.42 735.67,-116.42 842.33,-116.42 842.33,-116.42 846.17,-116.42 850,-120.25 850,-124.09 850,-124.09 850,-131.75 850,-131.75 850,-135.59 846.17,-139.42 842.33,-139.42"/>
<text text-anchor="middle" x="789" y="-124.22" font-family="Arial" font-size="14.00" fill="#cfffac">src/background.js</text>
</g>
<!-- src/gameManager.js&#45;&gt;src/background.js -->
<g id="edge11" class="edge">
<title>src/gameManager.js&#45;&gt;src/background.js</title>
<path fill="none" stroke="#757575" d="M162.39,-364.32C167.64,-326.26 189.98,-204.75 266,-153.92 337.9,-105.84 592.19,-114.95 717.36,-122.74"/>
<polygon fill="#757575" stroke="#757575" points="717.4,-126.25 727.6,-123.39 717.84,-119.26 717.4,-126.25"/>
</g>
<!-- src/keyboard.js -->
<g id="node11" class="node">
<title>src/keyboard.js</title>
<path fill="none" stroke="#c6c5fe" d="M365.33,-387.42C365.33,-387.42 273.67,-387.42 273.67,-387.42 269.83,-387.42 266,-383.59 266,-379.75 266,-379.75 266,-372.09 266,-372.09 266,-368.25 269.83,-364.42 273.67,-364.42 273.67,-364.42 365.33,-364.42 365.33,-364.42 369.17,-364.42 373,-368.25 373,-372.09 373,-372.09 373,-379.75 373,-379.75 373,-383.59 369.17,-387.42 365.33,-387.42"/>
<text text-anchor="middle" x="319.5" y="-372.22" font-family="Arial" font-size="14.00" fill="#c6c5fe">src/keyboard.js</text>
</g>
<!-- src/gameManager.js&#45;&gt;src/keyboard.js -->
<g id="edge13" class="edge">
<title>src/gameManager.js&#45;&gt;src/keyboard.js</title>
<path fill="none" stroke="#757575" d="M230.08,-375.92C238.54,-375.92 247.16,-375.92 255.52,-375.92"/>
<polygon fill="#757575" stroke="#757575" points="255.58,-379.42 265.58,-375.92 255.58,-372.42 255.58,-379.42"/>
</g>
<!-- src/levelCompleteScreen.js -->
<g id="node12" class="node">
<title>src/levelCompleteScreen.js</title>
<path fill="none" stroke="#cfffac" d="M1893.33,-155.42C1893.33,-155.42 1727.67,-155.42 1727.67,-155.42 1723.83,-155.42 1720,-151.59 1720,-147.75 1720,-147.75 1720,-140.09 1720,-140.09 1720,-136.25 1723.83,-132.42 1727.67,-132.42 1727.67,-132.42 1893.33,-132.42 1893.33,-132.42 1897.17,-132.42 1901,-136.25 1901,-140.09 1901,-140.09 1901,-147.75 1901,-147.75 1901,-151.59 1897.17,-155.42 1893.33,-155.42"/>
<text text-anchor="middle" x="1810.5" y="-140.22" font-family="Arial" font-size="14.00" fill="#cfffac">src/levelCompleteScreen.js</text>
</g>
<!-- src/gameManager.js&#45;&gt;src/levelCompleteScreen.js -->
<g id="edge14" class="edge">
<title>src/gameManager.js&#45;&gt;src/levelCompleteScreen.js</title>
<path fill="none" stroke="#757575" d="M160.49,-364.18C159.03,-315 160.57,-124.06 266,-36.92 343.39,27.04 390.11,-11.92 490.5,-11.92 490.5,-11.92 490.5,-11.92 1453,-11.92 1558.75,-11.92 1586.21,-28.69 1684,-68.92 1721.42,-84.32 1760.91,-109.62 1785.37,-126.52"/>
<polygon fill="#757575" stroke="#757575" points="1783.47,-129.47 1793.67,-132.34 1787.49,-123.73 1783.47,-129.47"/>
</g>
<!-- src/player/Player.js -->
<g id="node13" class="node">
<title>src/player/Player.js</title>
<path fill="none" stroke="#c6c5fe" d="M1509.33,-346.42C1509.33,-346.42 1394.67,-346.42 1394.67,-346.42 1390.83,-346.42 1387,-342.59 1387,-338.75 1387,-338.75 1387,-331.09 1387,-331.09 1387,-327.25 1390.83,-323.42 1394.67,-323.42 1394.67,-323.42 1509.33,-323.42 1509.33,-323.42 1513.17,-323.42 1517,-327.25 1517,-331.09 1517,-331.09 1517,-338.75 1517,-338.75 1517,-342.59 1513.17,-346.42 1509.33,-346.42"/>
<text text-anchor="middle" x="1452" y="-331.22" font-family="Arial" font-size="14.00" fill="#c6c5fe">src/player/Player.js</text>
</g>
<!-- src/gameManager.js&#45;&gt;src/player/Player.js -->
<g id="edge16" class="edge">
<title>src/gameManager.js&#45;&gt;src/player/Player.js</title>
<path fill="none" stroke="#757575" d="M169.26,-364.15C185.49,-341.74 223.67,-292.58 266,-262.92 354.73,-200.75 382.16,-167.92 490.5,-167.92 490.5,-167.92 490.5,-167.92 652,-167.92 947.71,-167.92 1292.21,-278.88 1409.49,-319.9"/>
<polygon fill="#757575" stroke="#757575" points="1408.56,-323.29 1419.15,-323.31 1410.89,-316.69 1408.56,-323.29"/>
</g>
<!-- src/rendering/Helpers.js -->
<g id="node14" class="node">
<title>src/rendering/Helpers.js</title>
<path fill="none" stroke="#cfffac" d="M1882.33,-326.42C1882.33,-326.42 1738.67,-326.42 1738.67,-326.42 1734.83,-326.42 1731,-322.59 1731,-318.75 1731,-318.75 1731,-311.09 1731,-311.09 1731,-307.25 1734.83,-303.42 1738.67,-303.42 1738.67,-303.42 1882.33,-303.42 1882.33,-303.42 1886.17,-303.42 1890,-307.25 1890,-311.09 1890,-311.09 1890,-318.75 1890,-318.75 1890,-322.59 1886.17,-326.42 1882.33,-326.42"/>
<text text-anchor="middle" x="1810.5" y="-311.22" font-family="Arial" font-size="14.00" fill="#cfffac">src/rendering/Helpers.js</text>
</g>
<!-- src/gameManager.js&#45;&gt;src/rendering/Helpers.js -->
<g id="edge17" class="edge">
<title>src/gameManager.js&#45;&gt;src/rendering/Helpers.js</title>
<path fill="none" stroke="#757575" d="M161.07,-364.39C162.02,-319.29 172.02,-153.62 266,-77.92 344.31,-14.85 389.95,-49.92 490.5,-49.92 490.5,-49.92 490.5,-49.92 1453,-49.92 1616.94,-49.92 1754.44,-232.66 1796.36,-294.64"/>
<polygon fill="#757575" stroke="#757575" points="1793.6,-296.81 1802.06,-303.19 1799.43,-292.93 1793.6,-296.81"/>
</g>
<!-- src/speedometer.js -->
<g id="node15" class="node">
<title>src/speedometer.js</title>
<path fill="none" stroke="#cfffac" d="M1676.33,-399.42C1676.33,-399.42 1560.67,-399.42 1560.67,-399.42 1556.83,-399.42 1553,-395.59 1553,-391.75 1553,-391.75 1553,-384.09 1553,-384.09 1553,-380.25 1556.83,-376.42 1560.67,-376.42 1560.67,-376.42 1676.33,-376.42 1676.33,-376.42 1680.17,-376.42 1684,-380.25 1684,-384.09 1684,-384.09 1684,-391.75 1684,-391.75 1684,-395.59 1680.17,-399.42 1676.33,-399.42"/>
<text text-anchor="middle" x="1618.5" y="-384.22" font-family="Arial" font-size="14.00" fill="#cfffac">src/speedometer.js</text>
</g>
<!-- src/gameManager.js&#45;&gt;src/speedometer.js -->
<g id="edge19" class="edge">
<title>src/gameManager.js&#45;&gt;src/speedometer.js</title>
<path fill="none" stroke="#757575" d="M163.24,-387.62C170.78,-423.92 198.7,-535.77 266,-594.92 344.91,-664.28 385.44,-668.92 490.5,-668.92 490.5,-668.92 490.5,-668.92 1016,-668.92 1167.03,-668.92 1213.96,-675.39 1351,-611.92 1461.26,-560.85 1562.7,-451.85 1601.17,-407.4"/>
<polygon fill="#757575" stroke="#757575" points="1603.97,-409.51 1607.81,-399.64 1598.65,-404.96 1603.97,-409.51"/>
</g>
<!-- src/step.js -->
<g id="node16" class="node">
<title>src/step.js</title>
<path fill="none" stroke="#c6c5fe" d="M681.83,-271.42C681.83,-271.42 620.17,-271.42 620.17,-271.42 616.33,-271.42 612.5,-267.59 612.5,-263.75 612.5,-263.75 612.5,-256.09 612.5,-256.09 612.5,-252.25 616.33,-248.42 620.17,-248.42 620.17,-248.42 681.83,-248.42 681.83,-248.42 685.67,-248.42 689.5,-252.25 689.5,-256.09 689.5,-256.09 689.5,-263.75 689.5,-263.75 689.5,-267.59 685.67,-271.42 681.83,-271.42"/>
<text text-anchor="middle" x="651" y="-256.22" font-family="Arial" font-size="14.00" fill="#c6c5fe">src/step.js</text>
</g>
<!-- src/gameManager.js&#45;&gt;src/step.js -->
<g id="edge20" class="edge">
<title>src/gameManager.js&#45;&gt;src/step.js</title>
<path fill="none" stroke="#757575" d="M178.02,-364.27C216.84,-338.51 315.76,-277.29 409,-255.92 474.69,-240.86 553.1,-246.33 602.24,-252.46"/>
<polygon fill="#757575" stroke="#757575" points="601.89,-255.95 612.26,-253.77 602.8,-249.01 601.89,-255.95"/>
</g>
<!-- src/Boss.js&#45;&gt;src/enemy.js -->
<g id="edge3" class="edge">
<title>src/Boss.js&#45;&gt;src/enemy.js</title>
<path fill="none" stroke="#757575" d="M691.34,-576.35C706.14,-572 723.16,-566.99 738.75,-562.41"/>
<polygon fill="#757575" stroke="#757575" points="740.15,-565.64 748.75,-559.46 738.17,-558.93 740.15,-565.64"/>
</g>
<!-- src/gatling.js -->
<g id="node6" class="node">
<title>src/gatling.js</title>
<path fill="none" stroke="#c6c5fe" d="M1303.83,-484.42C1303.83,-484.42 1227.17,-484.42 1227.17,-484.42 1223.33,-484.42 1219.5,-480.59 1219.5,-476.75 1219.5,-476.75 1219.5,-469.09 1219.5,-469.09 1219.5,-465.25 1223.33,-461.42 1227.17,-461.42 1227.17,-461.42 1303.83,-461.42 1303.83,-461.42 1307.67,-461.42 1311.5,-465.25 1311.5,-469.09 1311.5,-469.09 1311.5,-476.75 1311.5,-476.75 1311.5,-480.59 1307.67,-484.42 1303.83,-484.42"/>
<text text-anchor="middle" x="1265.5" y="-469.22" font-family="Arial" font-size="14.00" fill="#c6c5fe">src/gatling.js</text>
</g>
<!-- src/Boss.js&#45;&gt;src/gatling.js -->
<g id="edge4" class="edge">
<title>src/Boss.js&#45;&gt;src/gatling.js</title>
<path fill="none" stroke="#757575" d="M692.35,-585.6C794.74,-579.28 1062.33,-559.91 1144,-525.92 1162.46,-518.24 1162.18,-508 1180,-498.92 1189.22,-494.22 1199.45,-490.2 1209.52,-486.81"/>
<polygon fill="#757575" stroke="#757575" points="1210.61,-490.14 1219.08,-483.76 1208.49,-483.47 1210.61,-490.14"/>
</g>
<!-- src/enemy.js&#45;&gt;src/gatling.js -->
<g id="edge7" class="edge">
<title>src/enemy.js&#45;&gt;src/gatling.js</title>
<path fill="none" stroke="#757575" d="M835.07,-540.8C922.45,-526.98 1114.64,-496.61 1209.42,-481.63"/>
<polygon fill="#757575" stroke="#757575" points="1210.06,-485.07 1219.39,-480.05 1208.96,-478.15 1210.06,-485.07"/>
</g>
<!-- src/rendering/EnemyCollisionsChecks.js -->
<g id="node10" class="node">
<title>src/rendering/EnemyCollisionsChecks.js</title>
<path fill="none" stroke="#c6c5fe" d="M1136.33,-602.42C1136.33,-602.42 893.67,-602.42 893.67,-602.42 889.83,-602.42 886,-598.59 886,-594.75 886,-594.75 886,-587.09 886,-587.09 886,-583.25 889.83,-579.42 893.67,-579.42 893.67,-579.42 1136.33,-579.42 1136.33,-579.42 1140.17,-579.42 1144,-583.25 1144,-587.09 1144,-587.09 1144,-594.75 1144,-594.75 1144,-598.59 1140.17,-602.42 1136.33,-602.42"/>
<text text-anchor="middle" x="1015" y="-587.22" font-family="Arial" font-size="14.00" fill="#c6c5fe">src/rendering/EnemyCollisionsChecks.js</text>
</g>
<!-- src/enemy.js&#45;&gt;src/rendering/EnemyCollisionsChecks.js -->
<g id="edge8" class="edge">
<title>src/enemy.js&#45;&gt;src/rendering/EnemyCollisionsChecks.js</title>
<path fill="none" stroke="#757575" d="M835.06,-556.57C866.24,-562.56 908.35,-570.64 943.89,-577.46"/>
<polygon fill="#757575" stroke="#757575" points="943.24,-580.9 953.73,-579.35 944.56,-574.03 943.24,-580.9"/>
</g>
<!-- src/gatling.js&#45;&gt;src/music.js -->
<g id="edge24" class="edge">
<title>src/gatling.js&#45;&gt;src/music.js</title>
<path fill="none" stroke="#757575" d="M1297.25,-484.53C1389.73,-519.44 1665.32,-623.49 1769.24,-662.72"/>
<polygon fill="#757575" stroke="#757575" points="1768.16,-666.05 1778.75,-666.31 1770.63,-659.5 1768.16,-666.05"/>
</g>
<!-- src/gatling.js&#45;&gt;src/player/Player.js -->
<g id="edge25" class="edge">
<title>src/gatling.js&#45;&gt;src/player/Player.js</title>
<path fill="none" stroke="#757575" d="M1281.91,-461.39C1314.2,-437.24 1389.12,-381.21 1427.46,-352.53"/>
<polygon fill="#757575" stroke="#757575" points="1429.59,-355.3 1435.5,-346.51 1425.4,-349.7 1429.59,-355.3"/>
</g>
<!-- src/ammo.js&#45;&gt;src/gatling.js -->
<g id="edge5" class="edge">
<title>src/ammo.js&#45;&gt;src/gatling.js</title>
<path fill="none" stroke="#757575" d="M1060.71,-441.76C1102.33,-448.12 1164.48,-457.62 1209.19,-464.46"/>
<polygon fill="#757575" stroke="#757575" points="1208.89,-467.96 1219.31,-466.01 1209.95,-461.04 1208.89,-467.96"/>
</g>
<!-- src/ammo.js&#45;&gt;src/rocket.js -->
<g id="edge6" class="edge">
<title>src/ammo.js&#45;&gt;src/rocket.js</title>
<path fill="none" stroke="#757575" d="M1060.66,-433.64C1150,-429.85 1355.97,-414.88 1517,-355.92 1545.42,-345.51 1574.64,-326.7 1594.19,-312.7"/>
<polygon fill="#757575" stroke="#757575" points="1596.45,-315.39 1602.46,-306.66 1592.32,-309.74 1596.45,-315.39"/>
</g>
<!-- src/rocket.js&#45;&gt;src/rendering/Helpers.js -->
<g id="edge42" class="edge">
<title>src/rocket.js&#45;&gt;src/rendering/Helpers.js</title>
<path fill="none" stroke="#757575" d="M1663.09,-299.51C1680.24,-301.31 1700.59,-303.46 1720.58,-305.56"/>
<polygon fill="#757575" stroke="#757575" points="1720.36,-309.06 1730.67,-306.62 1721.09,-302.09 1720.36,-309.06"/>
</g>
<!-- src/rendering/EnemyCollisionsChecks.js&#45;&gt;src/music.js -->
<g id="edge37" class="edge">
<title>src/rendering/EnemyCollisionsChecks.js&#45;&gt;src/music.js</title>
<path fill="none" stroke="#757575" d="M1103.19,-602.46C1128,-605.64 1155.05,-609.02 1180,-611.92 1393.33,-636.76 1647.84,-662.14 1756.31,-672.76"/>
<polygon fill="#757575" stroke="#757575" points="1756.05,-676.25 1766.34,-673.74 1756.73,-669.28 1756.05,-676.25"/>
</g>
<!-- src/rendering/EnemyCollisionsChecks.js&#45;&gt;src/gatling.js -->
<g id="edge36" class="edge">
<title>src/rendering/EnemyCollisionsChecks.js&#45;&gt;src/gatling.js</title>
<path fill="none" stroke="#757575" d="M1116.79,-579.4C1126.51,-575.71 1135.79,-570.98 1144,-564.92 1170.88,-545.07 1154.12,-520.06 1180,-498.92 1188.55,-491.93 1198.98,-486.82 1209.54,-483.08"/>
<polygon fill="#757575" stroke="#757575" points="1210.76,-486.36 1219.24,-480.01 1208.65,-479.69 1210.76,-486.36"/>
</g>
<!-- src/rendering/EnemyCollisionsChecks.js&#45;&gt;src/rocket.js -->
<g id="edge41" class="edge">
<title>src/rendering/EnemyCollisionsChecks.js&#45;&gt;src/rocket.js</title>
<path fill="none" stroke="#757575" d="M1089.32,-579.38C1107.62,-575.13 1126.9,-569.45 1144,-561.92 1161.83,-554.07 1162.27,-544.98 1180,-536.92 1251.34,-504.49 1279.11,-525.12 1351,-493.92 1431.52,-458.98 1447.49,-440.52 1517,-386.92 1547.26,-363.58 1579.35,-333.06 1598.91,-313.72"/>
<polygon fill="#757575" stroke="#757575" points="1601.39,-316.19 1606.01,-306.65 1596.45,-311.23 1601.39,-316.19"/>
</g>
<!-- src/rendering/EnemyCollisionsChecks.js&#45;&gt;src/player/Player.js -->
<g id="edge38" class="edge">
<title>src/rendering/EnemyCollisionsChecks.js&#45;&gt;src/player/Player.js</title>
<path fill="none" stroke="#757575" d="M1027.41,-579.25C1052.88,-553.69 1117.07,-491.95 1180,-452.92 1220.86,-427.58 1347.09,-376.12 1411.83,-350.35"/>
<polygon fill="#757575" stroke="#757575" points="1413.29,-353.53 1421.3,-346.59 1410.71,-347.03 1413.29,-353.53"/>
</g>
<!-- src/rendering/EnemyCollisionsChecks.js&#45;&gt;src/rendering/Helpers.js -->
<g id="edge40" class="edge">
<title>src/rendering/EnemyCollisionsChecks.js&#45;&gt;src/rendering/Helpers.js</title>
<path fill="none" stroke="#757575" d="M1107.87,-579.38C1241.37,-559.72 1493.81,-511.43 1684,-408.92 1724.08,-387.31 1765.37,-353.81 1789.17,-333.18"/>
<polygon fill="#757575" stroke="#757575" points="1791.62,-335.69 1796.83,-326.46 1787,-330.42 1791.62,-335.69"/>
</g>
<!-- src/rendering/Explosion.js -->
<g id="node20" class="node">
<title>src/rendering/Explosion.js</title>
<path fill="none" stroke="#cfffac" d="M1343.33,-602.42C1343.33,-602.42 1187.67,-602.42 1187.67,-602.42 1183.83,-602.42 1180,-598.59 1180,-594.75 1180,-594.75 1180,-587.09 1180,-587.09 1180,-583.25 1183.83,-579.42 1187.67,-579.42 1187.67,-579.42 1343.33,-579.42 1343.33,-579.42 1347.17,-579.42 1351,-583.25 1351,-587.09 1351,-587.09 1351,-594.75 1351,-594.75 1351,-598.59 1347.17,-602.42 1343.33,-602.42"/>
<text text-anchor="middle" x="1265.5" y="-587.22" font-family="Arial" font-size="14.00" fill="#cfffac">src/rendering/Explosion.js</text>
</g>
<!-- src/rendering/EnemyCollisionsChecks.js&#45;&gt;src/rendering/Explosion.js -->
<g id="edge39" class="edge">
<title>src/rendering/EnemyCollisionsChecks.js&#45;&gt;src/rendering/Explosion.js</title>
<path fill="none" stroke="#757575" d="M1144.25,-590.92C1152.86,-590.92 1161.44,-590.92 1169.83,-590.92"/>
<polygon fill="#757575" stroke="#757575" points="1169.96,-594.42 1179.96,-590.92 1169.96,-587.42 1169.96,-594.42"/>
</g>
<!-- src/keyboard.js&#45;&gt;src/music.js -->
<g id="edge28" class="edge">
<title>src/keyboard.js&#45;&gt;src/music.js</title>
<path fill="none" stroke="#757575" d="M329.99,-387.49C363.34,-427.19 480.21,-558.17 610,-608.92 1025.27,-771.29 1583.35,-710.61 1756.22,-686.17"/>
<polygon fill="#757575" stroke="#757575" points="1756.93,-689.6 1766.33,-684.72 1755.93,-682.67 1756.93,-689.6"/>
</g>
<!-- src/keyboard.js&#45;&gt;src/gatling.js -->
<g id="edge27" class="edge">
<title>src/keyboard.js&#45;&gt;src/gatling.js</title>
<path fill="none" stroke="#757575" d="M345.11,-387.44C362.55,-395.1 386.73,-404.67 409,-409.92 704.26,-479.51 1071.28,-478.24 1208.93,-474.82"/>
<polygon fill="#757575" stroke="#757575" points="1209.31,-478.31 1219.21,-474.55 1209.13,-471.31 1209.31,-478.31"/>
</g>
<!-- src/keyboard.js&#45;&gt;src/rocket.js -->
<g id="edge30" class="edge">
<title>src/keyboard.js&#45;&gt;src/rocket.js</title>
<path fill="none" stroke="#757575" d="M340.09,-364.36C357.52,-354.75 384.04,-341.74 409,-335.92 844.75,-234.26 1392.65,-273.46 1563.88,-289.44"/>
<polygon fill="#757575" stroke="#757575" points="1563.61,-292.93 1573.89,-290.38 1564.27,-285.96 1563.61,-292.93"/>
</g>
<!-- src/keyboard.js&#45;&gt;src/player/Player.js -->
<g id="edge29" class="edge">
<title>src/keyboard.js&#45;&gt;src/player/Player.js</title>
<path fill="none" stroke="#757575" d="M373.38,-376.61C385.11,-376.74 397.48,-376.85 409,-376.92 482.33,-377.33 500.67,-377.58 574,-376.92 696.68,-375.81 727.41,-376.8 850,-371.92 1039.67,-364.37 1262.64,-348.91 1376.25,-340.57"/>
<polygon fill="#757575" stroke="#757575" points="1376.85,-344.03 1386.57,-339.81 1376.33,-337.05 1376.85,-344.03"/>
</g>
<!-- src/gameMenuActions.js -->
<g id="node17" class="node">
<title>src/gameMenuActions.js</title>
<path fill="none" stroke="#c6c5fe" d="M566.33,-287.42C566.33,-287.42 416.67,-287.42 416.67,-287.42 412.83,-287.42 409,-283.59 409,-279.75 409,-279.75 409,-272.09 409,-272.09 409,-268.25 412.83,-264.42 416.67,-264.42 416.67,-264.42 566.33,-264.42 566.33,-264.42 570.17,-264.42 574,-268.25 574,-272.09 574,-272.09 574,-279.75 574,-279.75 574,-283.59 570.17,-287.42 566.33,-287.42"/>
<text text-anchor="middle" x="491.5" y="-272.22" font-family="Arial" font-size="14.00" fill="#c6c5fe">src/gameMenuActions.js</text>
</g>
<!-- src/keyboard.js&#45;&gt;src/gameMenuActions.js -->
<g id="edge26" class="edge">
<title>src/keyboard.js&#45;&gt;src/gameMenuActions.js</title>
<path fill="none" stroke="#757575" d="M331.44,-364.28C347.18,-348.16 377.76,-319.09 409,-301.92 416.75,-297.66 425.31,-293.97 433.88,-290.82"/>
<polygon fill="#757575" stroke="#757575" points="435.21,-294.07 443.52,-287.5 432.93,-287.45 435.21,-294.07"/>
</g>
<!-- src/touch.js -->
<g id="node19" class="node">
<title>src/touch.js</title>
<path fill="none" stroke="#cfffac" d="M526.33,-367.42C526.33,-367.42 456.67,-367.42 456.67,-367.42 452.83,-367.42 449,-363.59 449,-359.75 449,-359.75 449,-352.09 449,-352.09 449,-348.25 452.83,-344.42 456.67,-344.42 456.67,-344.42 526.33,-344.42 526.33,-344.42 530.17,-344.42 534,-348.25 534,-352.09 534,-352.09 534,-359.75 534,-359.75 534,-363.59 530.17,-367.42 526.33,-367.42"/>
<text text-anchor="middle" x="491.5" y="-352.22" font-family="Arial" font-size="14.00" fill="#cfffac">src/touch.js</text>
</g>
<!-- src/keyboard.js&#45;&gt;src/touch.js -->
<g id="edge31" class="edge">
<title>src/keyboard.js&#45;&gt;src/touch.js</title>
<path fill="none" stroke="#757575" d="M373.36,-369.7C394.12,-367.26 417.88,-364.46 438.55,-362.03"/>
<polygon fill="#757575" stroke="#757575" points="439.22,-365.48 448.74,-360.83 438.4,-358.53 439.22,-365.48"/>
</g>
<!-- src/player/Player.js&#45;&gt;src/rocket.js -->
<g id="edge34" class="edge">
<title>src/player/Player.js&#45;&gt;src/rocket.js</title>
<path fill="none" stroke="#757575" d="M1500.58,-323.35C1520.48,-318.51 1543.69,-312.87 1564.16,-307.89"/>
<polygon fill="#757575" stroke="#757575" points="1565.07,-311.27 1573.96,-305.51 1563.42,-304.47 1565.07,-311.27"/>
</g>
<!-- src/player/Player.js&#45;&gt;src/rendering/Helpers.js -->
<g id="edge33" class="edge">
<title>src/player/Player.js&#45;&gt;src/rendering/Helpers.js</title>
<path fill="none" stroke="#757575" d="M1517.15,-331.32C1573.93,-328.14 1657.35,-323.46 1720.57,-319.91"/>
<polygon fill="#757575" stroke="#757575" points="1721.14,-323.38 1730.93,-319.33 1720.75,-316.39 1721.14,-323.38"/>
</g>
<!-- src/player/Player.js&#45;&gt;src/speedometer.js -->
<g id="edge35" class="edge">
<title>src/player/Player.js&#45;&gt;src/speedometer.js</title>
<path fill="none" stroke="#757575" d="M1488.69,-346.42C1513.08,-354.28 1545.6,-364.75 1571.86,-373.22"/>
<polygon fill="#757575" stroke="#757575" points="1571,-376.62 1581.59,-376.35 1573.15,-369.95 1571,-376.62"/>
</g>
<!-- src/gameOver.js -->
<g id="node18" class="node">
<title>src/gameOver.js</title>
<path fill="none" stroke="#c6c5fe" d="M1668.83,-200.42C1668.83,-200.42 1568.17,-200.42 1568.17,-200.42 1564.33,-200.42 1560.5,-196.59 1560.5,-192.75 1560.5,-192.75 1560.5,-185.09 1560.5,-185.09 1560.5,-181.25 1564.33,-177.42 1568.17,-177.42 1568.17,-177.42 1668.83,-177.42 1668.83,-177.42 1672.67,-177.42 1676.5,-181.25 1676.5,-185.09 1676.5,-185.09 1676.5,-192.75 1676.5,-192.75 1676.5,-196.59 1672.67,-200.42 1668.83,-200.42"/>
<text text-anchor="middle" x="1618.5" y="-185.22" font-family="Arial" font-size="14.00" fill="#c6c5fe">src/gameOver.js</text>
</g>
<!-- src/player/Player.js&#45;&gt;src/gameOver.js -->
<g id="edge32" class="edge">
<title>src/player/Player.js&#45;&gt;src/gameOver.js</title>
<path fill="none" stroke="#757575" d="M1466.18,-323.22C1494.7,-297.91 1562.3,-237.91 1596.67,-207.41"/>
<polygon fill="#757575" stroke="#757575" points="1599.1,-209.93 1604.25,-200.68 1594.45,-204.7 1599.1,-209.93"/>
</g>
<!-- src/step.js&#45;&gt;src/enemy.js -->
<g id="edge44" class="edge">
<title>src/step.js&#45;&gt;src/enemy.js</title>
<path fill="none" stroke="#757575" d="M657.5,-271.57C678.17,-315.35 751.41,-470.44 778.14,-527.04"/>
<polygon fill="#757575" stroke="#757575" points="775,-528.58 782.43,-536.13 781.33,-525.59 775,-528.58"/>
</g>
<!-- src/step.js&#45;&gt;src/gatling.js -->
<g id="edge46" class="edge">
<title>src/step.js&#45;&gt;src/gatling.js</title>
<path fill="none" stroke="#757575" d="M673.87,-271.45C688.83,-279.05 709.28,-288.86 728,-295.92 907.94,-363.75 964.27,-346.53 1144,-414.92 1175.61,-426.95 1210.26,-444.07 1234.26,-456.59"/>
<polygon fill="#757575" stroke="#757575" points="1232.74,-459.74 1243.22,-461.31 1236,-453.55 1232.74,-459.74"/>
</g>
<!-- src/step.js&#45;&gt;src/rocket.js -->
<g id="edge48" class="edge">
<title>src/step.js&#45;&gt;src/rocket.js</title>
<path fill="none" stroke="#757575" d="M689.78,-256.7C810.86,-247.15 1199.87,-222.26 1517,-266.92 1536.19,-269.62 1556.9,-274.96 1574.5,-280.25"/>
<polygon fill="#757575" stroke="#757575" points="1573.88,-283.72 1584.47,-283.34 1575.95,-277.04 1573.88,-283.72"/>
</g>
<!-- src/step.js&#45;&gt;src/background.js -->
<g id="edge43" class="edge">
<title>src/step.js&#45;&gt;src/background.js</title>
<path fill="none" stroke="#757575" d="M664.07,-248.21C687.6,-225.37 739.8,-174.7 768.37,-146.97"/>
<polygon fill="#757575" stroke="#757575" points="771.02,-149.27 775.76,-139.8 766.15,-144.25 771.02,-149.27"/>
</g>
<!-- src/step.js&#45;&gt;src/player/Player.js -->
<g id="edge47" class="edge">
<title>src/step.js&#45;&gt;src/player/Player.js</title>
<path fill="none" stroke="#757575" d="M689.73,-263.46C813.81,-275.11 1210.68,-312.36 1376.79,-327.95"/>
<polygon fill="#757575" stroke="#757575" points="1376.63,-331.45 1386.92,-328.9 1377.29,-324.49 1376.63,-331.45"/>
</g>
<!-- src/step.js&#45;&gt;src/gameOver.js -->
<g id="edge45" class="edge">
<title>src/step.js&#45;&gt;src/gameOver.js</title>
<path fill="none" stroke="#757575" d="M689.67,-250.25C701.83,-247.46 715.42,-244.7 728,-242.92 1032.81,-199.86 1401.15,-191.11 1550.13,-189.35"/>
<polygon fill="#757575" stroke="#757575" points="1550.51,-192.85 1560.47,-189.24 1550.43,-185.85 1550.51,-192.85"/>
</g>
<!-- src/gameMenuActions.js&#45;&gt;src/step.js -->
<g id="edge21" class="edge">
<title>src/gameMenuActions.js&#45;&gt;src/step.js</title>
<path fill="none" stroke="#757575" d="M574.02,-267.64C583.62,-266.66 593.17,-265.69 602.09,-264.79"/>
<polygon fill="#757575" stroke="#757575" points="602.65,-268.25 612.24,-263.76 601.94,-261.28 602.65,-268.25"/>
</g>
<!-- src/gameOver.js&#45;&gt;src/music.js -->
<g id="edge23" class="edge">
<title>src/gameOver.js&#45;&gt;src/music.js</title>
<path fill="none" stroke="#757575" d="M1630.32,-200.57C1644.45,-216.33 1669.13,-245.84 1684,-274.92 1753.87,-411.56 1793.41,-594.34 1805.49,-656.32"/>
<polygon fill="#757575" stroke="#757575" points="1802.05,-656.98 1807.37,-666.15 1808.93,-655.67 1802.05,-656.98"/>
</g>
<!-- src/gameOver.js&#45;&gt;src/levelCompleteScreen.js -->
<g id="edge22" class="edge">
<title>src/gameOver.js&#45;&gt;src/levelCompleteScreen.js</title>
<path fill="none" stroke="#757575" d="M1668.43,-177.33C1693.58,-171.37 1724.42,-164.07 1750.85,-157.81"/>
<polygon fill="#757575" stroke="#757575" points="1751.81,-161.18 1760.74,-155.47 1750.2,-154.37 1751.81,-161.18"/>
</g>
</g>
</svg>
