<?xml version="1.0" encoding="UTF-8" standalone="no"?>
<!DOCTYPE svg PUBLIC "-//W3C//DTD SVG 1.1//EN"
 "http://www.w3.org/Graphics/SVG/1.1/DTD/svg11.dtd">
<!-- Generated by graphviz version 2.43.0 (0)
 -->
<!-- Title: G Pages: 1 -->
<svg width="2077pt" height="917pt"
 viewBox="0.00 0.00 2077.20 917.45" xmlns="http://www.w3.org/2000/svg" xmlns:xlink="http://www.w3.org/1999/xlink">
<g id="graph0" class="graph" transform="scale(1 1) rotate(0) translate(21.6 895.85)">
<title>G</title>
<polygon fill="#111111" stroke="transparent" points="-21.6,21.6 -21.6,-895.85 2055.6,-895.85 2055.6,21.6 -21.6,21.6"/>
<!-- app.js -->
<g id="node1" class="node">
<title>app.js</title>
<path fill="none" stroke="#c6c5fe" d="M46.33,-506.34C46.33,-506.34 7.67,-506.34 7.67,-506.34 3.83,-506.34 0,-502.51 0,-498.68 0,-498.68 0,-491.01 0,-491.01 0,-487.18 3.83,-483.34 7.67,-483.34 7.67,-483.34 46.33,-483.34 46.33,-483.34 50.17,-483.34 54,-487.18 54,-491.01 54,-491.01 54,-498.68 54,-498.68 54,-502.51 50.17,-506.34 46.33,-506.34"/>
<text text-anchor="middle" x="27" y="-491.14" font-family="Arial" font-size="14.00" fill="#c6c5fe">app.js</text>
</g>
<!-- src/gameManager.js -->
<g id="node2" class="node">
<title>src/gameManager.js</title>
<path fill="none" stroke="#c6c5fe" d="M222.33,-486.34C222.33,-486.34 97.67,-486.34 97.67,-486.34 93.83,-486.34 90,-482.51 90,-478.68 90,-478.68 90,-471.01 90,-471.01 90,-467.18 93.83,-463.34 97.67,-463.34 97.67,-463.34 222.33,-463.34 222.33,-463.34 226.17,-463.34 230,-467.18 230,-471.01 230,-471.01 230,-478.68 230,-478.68 230,-482.51 226.17,-486.34 222.33,-486.34"/>
<text text-anchor="middle" x="160" y="-471.14" font-family="Arial" font-size="14.00" fill="#c6c5fe">src/gameManager.js</text>
</g>
<!-- app.js&#45;&gt;src/gameManager.js -->
<g id="edge1" class="edge">
<title>app.js&#45;&gt;src/gameManager.js</title>
<path fill="none" stroke="#757575" d="M54.19,-490.84C61.87,-489.67 70.69,-488.33 79.89,-486.92"/>
<polygon fill="#757575" stroke="#757575" points="80.62,-490.35 89.97,-485.38 79.56,-483.43 80.62,-490.35"/>
</g>
<!-- src/startScreen.js -->
<g id="node3" class="node">
<title>src/startScreen.js</title>
<path fill="none" stroke="#c6c5fe" d="M379.33,-872.34C379.33,-872.34 273.67,-872.34 273.67,-872.34 269.83,-872.34 266,-868.51 266,-864.68 266,-864.68 266,-857.01 266,-857.01 266,-853.18 269.83,-849.34 273.67,-849.34 273.67,-849.34 379.33,-849.34 379.33,-849.34 383.17,-849.34 387,-853.18 387,-857.01 387,-857.01 387,-864.68 387,-864.68 387,-868.51 383.17,-872.34 379.33,-872.34"/>
<text text-anchor="middle" x="326.5" y="-857.14" font-family="Arial" font-size="14.00" fill="#c6c5fe">src/startScreen.js</text>
</g>
<!-- app.js&#45;&gt;src/startScreen.js -->
<g id="edge2" class="edge">
<title>app.js&#45;&gt;src/startScreen.js</title>
<path fill="none" stroke="#757575" d="M33.22,-506.52C54.94,-553.88 142.79,-733.97 266,-834.84 270.58,-838.59 275.79,-841.9 281.17,-844.79"/>
<polygon fill="#757575" stroke="#757575" points="279.79,-848.01 290.32,-849.25 282.87,-841.72 279.79,-848.01"/>
</g>
<!-- src/Boss.js -->
<g id="node4" class="node">
<title>src/Boss.js</title>
<path fill="none" stroke="#c6c5fe" d="M698.33,-623.34C698.33,-623.34 631.67,-623.34 631.67,-623.34 627.83,-623.34 624,-619.51 624,-615.68 624,-615.68 624,-608.01 624,-608.01 624,-604.18 627.83,-600.34 631.67,-600.34 631.67,-600.34 698.33,-600.34 698.33,-600.34 702.17,-600.34 706,-604.18 706,-608.01 706,-608.01 706,-615.68 706,-615.68 706,-619.51 702.17,-623.34 698.33,-623.34"/>
<text text-anchor="middle" x="665" y="-608.14" font-family="Arial" font-size="14.00" fill="#c6c5fe">src/Boss.js</text>
</g>
<!-- src/gameManager.js&#45;&gt;src/Boss.js -->
<g id="edge11" class="edge">
<title>src/gameManager.js&#45;&gt;src/Boss.js</title>
<path fill="none" stroke="#757575" d="M170.2,-486.65C186.84,-507.01 224.1,-548.33 266,-566.84 382.42,-618.28 535.82,-619.17 613.8,-615.5"/>
<polygon fill="#757575" stroke="#757575" points="614.04,-618.99 623.84,-614.98 613.67,-612 614.04,-618.99"/>
</g>
<!-- src/enemy.js -->
<g id="node5" class="node">
<title>src/enemy.js</title>
<path fill="none" stroke="#c6c5fe" d="M900.83,-564.34C900.83,-564.34 824.17,-564.34 824.17,-564.34 820.33,-564.34 816.5,-560.51 816.5,-556.68 816.5,-556.68 816.5,-549.01 816.5,-549.01 816.5,-545.18 820.33,-541.34 824.17,-541.34 824.17,-541.34 900.83,-541.34 900.83,-541.34 904.67,-541.34 908.5,-545.18 908.5,-549.01 908.5,-549.01 908.5,-556.68 908.5,-556.68 908.5,-560.51 904.67,-564.34 900.83,-564.34"/>
<text text-anchor="middle" x="862.5" y="-549.14" font-family="Arial" font-size="14.00" fill="#c6c5fe">src/enemy.js</text>
</g>
<!-- src/gameManager.js&#45;&gt;src/enemy.js -->
<g id="edge14" class="edge">
<title>src/gameManager.js&#45;&gt;src/enemy.js</title>
<path fill="none" stroke="#757575" d="M230.08,-482.54C368.91,-497.99 679.25,-532.55 805.99,-546.66"/>
<polygon fill="#757575" stroke="#757575" points="805.9,-550.17 816.23,-547.8 806.68,-543.22 805.9,-550.17"/>
</g>
<!-- src/levelCompleteScreen.js -->
<g id="node7" class="node">
<title>src/levelCompleteScreen.js</title>
<path fill="none" stroke="#cfffac" d="M2026.33,-861.34C2026.33,-861.34 1860.67,-861.34 1860.67,-861.34 1856.83,-861.34 1853,-857.51 1853,-853.68 1853,-853.68 1853,-846.01 1853,-846.01 1853,-842.18 1856.83,-838.34 1860.67,-838.34 1860.67,-838.34 2026.33,-838.34 2026.33,-838.34 2030.17,-838.34 2034,-842.18 2034,-846.01 2034,-846.01 2034,-853.68 2034,-853.68 2034,-857.51 2030.17,-861.34 2026.33,-861.34"/>
<text text-anchor="middle" x="1943.5" y="-846.14" font-family="Arial" font-size="14.00" fill="#cfffac">src/levelCompleteScreen.js</text>
</g>
<!-- src/gameManager.js&#45;&gt;src/levelCompleteScreen.js -->
<g id="edge16" class="edge">
<title>src/gameManager.js&#45;&gt;src/levelCompleteScreen.js</title>
<path fill="none" stroke="#757575" d="M167.03,-486.57C179.43,-510.81 208.4,-568.32 230,-617.84 247.55,-658.09 236.51,-677.31 266,-709.84 344.51,-796.48 387.58,-820.84 504.5,-820.84 504.5,-820.84 504.5,-820.84 863.5,-820.84 1224.16,-820.84 1652.38,-837.23 1842.73,-845.37"/>
<polygon fill="#757575" stroke="#757575" points="1842.86,-848.88 1853,-845.81 1843.16,-841.89 1842.86,-848.88"/>
</g>
<!-- src/ammo.js -->
<g id="node8" class="node">
<title>src/ammo.js</title>
<path fill="none" stroke="#c6c5fe" d="M1185.83,-308.34C1185.83,-308.34 1110.17,-308.34 1110.17,-308.34 1106.33,-308.34 1102.5,-304.51 1102.5,-300.68 1102.5,-300.68 1102.5,-293.01 1102.5,-293.01 1102.5,-289.18 1106.33,-285.34 1110.17,-285.34 1110.17,-285.34 1185.83,-285.34 1185.83,-285.34 1189.67,-285.34 1193.5,-289.18 1193.5,-293.01 1193.5,-293.01 1193.5,-300.68 1193.5,-300.68 1193.5,-304.51 1189.67,-308.34 1185.83,-308.34"/>
<text text-anchor="middle" x="1148" y="-293.14" font-family="Arial" font-size="14.00" fill="#c6c5fe">src/ammo.js</text>
</g>
<!-- src/gameManager.js&#45;&gt;src/ammo.js -->
<g id="edge12" class="edge">
<title>src/gameManager.js&#45;&gt;src/ammo.js</title>
<path fill="none" stroke="#757575" d="M165.95,-463.17C178.43,-435.14 213.97,-363.53 266,-325.84 343.92,-269.41 705.96,-220.26 742,-216.84 848.63,-206.74 878.63,-192.75 983,-216.84 1035.25,-228.91 1090.12,-260 1121.29,-279.68"/>
<polygon fill="#757575" stroke="#757575" points="1119.49,-282.69 1129.8,-285.14 1123.27,-276.8 1119.49,-282.69"/>
</g>
<!-- src/background.js -->
<g id="node10" class="node">
<title>src/background.js</title>
<path fill="none" stroke="#cfffac" d="M915.83,-249.34C915.83,-249.34 809.17,-249.34 809.17,-249.34 805.33,-249.34 801.5,-245.51 801.5,-241.68 801.5,-241.68 801.5,-234.01 801.5,-234.01 801.5,-230.18 805.33,-226.34 809.17,-226.34 809.17,-226.34 915.83,-226.34 915.83,-226.34 919.67,-226.34 923.5,-230.18 923.5,-234.01 923.5,-234.01 923.5,-241.68 923.5,-241.68 923.5,-245.51 919.67,-249.34 915.83,-249.34"/>
<text text-anchor="middle" x="862.5" y="-234.14" font-family="Arial" font-size="14.00" fill="#cfffac">src/background.js</text>
</g>
<!-- src/gameManager.js&#45;&gt;src/background.js -->
<g id="edge13" class="edge">
<title>src/gameManager.js&#45;&gt;src/background.js</title>
<path fill="none" stroke="#757575" d="M174.3,-463.2C193.65,-446.59 231.06,-415.7 266,-393.84 452.52,-277.14 525.26,-295.68 742,-257.84 757.96,-255.06 775.13,-252.14 791.34,-249.42"/>
<polygon fill="#757575" stroke="#757575" points="792.01,-252.85 801.29,-247.75 790.85,-245.95 792.01,-252.85"/>
</g>
<!-- src/keyboard.js -->
<g id="node13" class="node">
<title>src/keyboard.js</title>
<path fill="none" stroke="#c6c5fe" d="M372.33,-426.34C372.33,-426.34 280.67,-426.34 280.67,-426.34 276.83,-426.34 273,-422.51 273,-418.68 273,-418.68 273,-411.01 273,-411.01 273,-407.18 276.83,-403.34 280.67,-403.34 280.67,-403.34 372.33,-403.34 372.33,-403.34 376.17,-403.34 380,-407.18 380,-411.01 380,-411.01 380,-418.68 380,-418.68 380,-422.51 376.17,-426.34 372.33,-426.34"/>
<text text-anchor="middle" x="326.5" y="-411.14" font-family="Arial" font-size="14.00" fill="#c6c5fe">src/keyboard.js</text>
</g>
<!-- src/gameManager.js&#45;&gt;src/keyboard.js -->
<g id="edge15" class="edge">
<title>src/gameManager.js&#45;&gt;src/keyboard.js</title>
<path fill="none" stroke="#757575" d="M192.72,-463.27C218.77,-453.77 255.88,-440.24 284.24,-429.89"/>
<polygon fill="#757575" stroke="#757575" points="285.68,-433.09 293.88,-426.38 283.29,-426.52 285.68,-433.09"/>
</g>
<!-- src/music.js -->
<g id="node14" class="node">
<title>src/music.js</title>
<path fill="none" stroke="#cfffac" d="M1979.83,-718.34C1979.83,-718.34 1907.17,-718.34 1907.17,-718.34 1903.33,-718.34 1899.5,-714.51 1899.5,-710.68 1899.5,-710.68 1899.5,-703.01 1899.5,-703.01 1899.5,-699.18 1903.33,-695.34 1907.17,-695.34 1907.17,-695.34 1979.83,-695.34 1979.83,-695.34 1983.67,-695.34 1987.5,-699.18 1987.5,-703.01 1987.5,-703.01 1987.5,-710.68 1987.5,-710.68 1987.5,-714.51 1983.67,-718.34 1979.83,-718.34"/>
<text text-anchor="middle" x="1943.5" y="-703.14" font-family="Arial" font-size="14.00" fill="#cfffac">src/music.js</text>
</g>
<!-- src/gameManager.js&#45;&gt;src/music.js -->
<g id="edge17" class="edge">
<title>src/gameManager.js&#45;&gt;src/music.js</title>
<path fill="none" stroke="#757575" d="M166.59,-486.54C194.36,-542.8 323.48,-782.84 504.5,-782.84 504.5,-782.84 504.5,-782.84 1399.5,-782.84 1586.04,-782.84 1633.47,-773.22 1817,-739.84 1843.18,-735.08 1871.92,-727.69 1895.29,-721.11"/>
<polygon fill="#757575" stroke="#757575" points="1896.29,-724.46 1904.95,-718.34 1894.37,-717.73 1896.29,-724.46"/>
</g>
<!-- src/player/Player.js -->
<g id="node15" class="node">
<title>src/player/Player.js</title>
<path fill="none" stroke="#c6c5fe" d="M1642.33,-366.34C1642.33,-366.34 1527.67,-366.34 1527.67,-366.34 1523.83,-366.34 1520,-362.51 1520,-358.68 1520,-358.68 1520,-351.01 1520,-351.01 1520,-347.18 1523.83,-343.34 1527.67,-343.34 1527.67,-343.34 1642.33,-343.34 1642.33,-343.34 1646.17,-343.34 1650,-347.18 1650,-351.01 1650,-351.01 1650,-358.68 1650,-358.68 1650,-362.51 1646.17,-366.34 1642.33,-366.34"/>
<text text-anchor="middle" x="1585" y="-351.14" font-family="Arial" font-size="14.00" fill="#c6c5fe">src/player/Player.js</text>
</g>
<!-- src/gameManager.js&#45;&gt;src/player/Player.js -->
<g id="edge18" class="edge">
<title>src/gameManager.js&#45;&gt;src/player/Player.js</title>
<path fill="none" stroke="#757575" d="M164.61,-463.14C185.5,-398.08 297.13,-83.84 504.5,-83.84 504.5,-83.84 504.5,-83.84 666,-83.84 1038.35,-83.84 1156.17,-88.29 1484,-264.84 1517.8,-283.05 1549.42,-314.97 1567.72,-335.5"/>
<polygon fill="#757575" stroke="#757575" points="1565.29,-338.03 1574.5,-343.27 1570.57,-333.43 1565.29,-338.03"/>
</g>
<!-- src/rendering/Helpers.js -->
<g id="node16" class="node">
<title>src/rendering/Helpers.js</title>
<path fill="none" stroke="#cfffac" d="M2015.33,-366.34C2015.33,-366.34 1871.67,-366.34 1871.67,-366.34 1867.83,-366.34 1864,-362.51 1864,-358.68 1864,-358.68 1864,-351.01 1864,-351.01 1864,-347.18 1867.83,-343.34 1871.67,-343.34 1871.67,-343.34 2015.33,-343.34 2015.33,-343.34 2019.17,-343.34 2023,-347.18 2023,-351.01 2023,-351.01 2023,-358.68 2023,-358.68 2023,-362.51 2019.17,-366.34 2015.33,-366.34"/>
<text text-anchor="middle" x="1943.5" y="-351.14" font-family="Arial" font-size="14.00" fill="#cfffac">src/rendering/Helpers.js</text>
</g>
<!-- src/gameManager.js&#45;&gt;src/rendering/Helpers.js -->
<g id="edge19" class="edge">
<title>src/gameManager.js&#45;&gt;src/rendering/Helpers.js</title>
<path fill="none" stroke="#757575" d="M162.16,-463.17C168.61,-400.78 202.06,-107.16 266,-47.84 344.79,25.26 397.02,-7.84 504.5,-7.84 504.5,-7.84 504.5,-7.84 1586,-7.84 1774.08,-7.84 1900.14,-258.91 1933.6,-333.93"/>
<polygon fill="#757575" stroke="#757575" points="1930.49,-335.54 1937.71,-343.3 1936.9,-332.73 1930.49,-335.54"/>
</g>
<!-- src/speedometer.js -->
<g id="node17" class="node">
<title>src/speedometer.js</title>
<path fill="none" stroke="#cfffac" d="M1809.33,-192.34C1809.33,-192.34 1693.67,-192.34 1693.67,-192.34 1689.83,-192.34 1686,-188.51 1686,-184.68 1686,-184.68 1686,-177.01 1686,-177.01 1686,-173.18 1689.83,-169.34 1693.67,-169.34 1693.67,-169.34 1809.33,-169.34 1809.33,-169.34 1813.17,-169.34 1817,-173.18 1817,-177.01 1817,-177.01 1817,-184.68 1817,-184.68 1817,-188.51 1813.17,-192.34 1809.33,-192.34"/>
<text text-anchor="middle" x="1751.5" y="-177.14" font-family="Arial" font-size="14.00" fill="#cfffac">src/speedometer.js</text>
</g>
<!-- src/gameManager.js&#45;&gt;src/speedometer.js -->
<g id="edge20" class="edge">
<title>src/gameManager.js&#45;&gt;src/speedometer.js</title>
<path fill="none" stroke="#757575" d="M160.78,-463.14C160.53,-414 166.19,-222.29 266,-120.84 343.93,-41.63 393.38,-45.84 504.5,-45.84 504.5,-45.84 504.5,-45.84 1399.5,-45.84 1529.38,-45.84 1669.35,-127.36 1725.31,-163.71"/>
<polygon fill="#757575" stroke="#757575" points="1723.58,-166.76 1733.85,-169.33 1727.43,-160.91 1723.58,-166.76"/>
</g>
<!-- src/step.js -->
<g id="node18" class="node">
<title>src/step.js</title>
<path fill="none" stroke="#c6c5fe" d="M695.83,-426.34C695.83,-426.34 634.17,-426.34 634.17,-426.34 630.33,-426.34 626.5,-422.51 626.5,-418.68 626.5,-418.68 626.5,-411.01 626.5,-411.01 626.5,-407.18 630.33,-403.34 634.17,-403.34 634.17,-403.34 695.83,-403.34 695.83,-403.34 699.67,-403.34 703.5,-407.18 703.5,-411.01 703.5,-411.01 703.5,-418.68 703.5,-418.68 703.5,-422.51 699.67,-426.34 695.83,-426.34"/>
<text text-anchor="middle" x="665" y="-411.14" font-family="Arial" font-size="14.00" fill="#c6c5fe">src/step.js</text>
</g>
<!-- src/gameManager.js&#45;&gt;src/step.js -->
<g id="edge21" class="edge">
<title>src/gameManager.js&#45;&gt;src/step.js</title>
<path fill="none" stroke="#757575" d="M230.24,-471.85C315.1,-467.38 463,-456.99 588,-434.84 597.27,-433.2 607.07,-430.99 616.44,-428.64"/>
<polygon fill="#757575" stroke="#757575" points="617.59,-431.95 626.39,-426.05 615.83,-425.18 617.59,-431.95"/>
</g>
<!-- src/startScreen.js&#45;&gt;src/music.js -->
<g id="edge43" class="edge">
<title>src/startScreen.js&#45;&gt;src/music.js</title>
<path fill="none" stroke="#757575" d="M387.07,-860.28C454.32,-859.68 567.02,-858.84 664,-858.84 664,-858.84 664,-858.84 863.5,-858.84 1288.45,-858.84 1414.12,-923.03 1817,-787.84 1857.51,-774.25 1897.86,-744.6 1921.48,-725.2"/>
<polygon fill="#757575" stroke="#757575" points="1923.98,-727.67 1929.39,-718.56 1919.48,-722.3 1923.98,-727.67"/>
</g>
<!-- src/Boss.js&#45;&gt;src/enemy.js -->
<g id="edge3" class="edge">
<title>src/Boss.js&#45;&gt;src/enemy.js</title>
<path fill="none" stroke="#757575" d="M704.16,-600.33C735.41,-590.9 779.8,-577.5 813.47,-567.34"/>
<polygon fill="#757575" stroke="#757575" points="814.54,-570.67 823.1,-564.43 812.52,-563.97 814.54,-570.67"/>
</g>
<!-- src/gatling.js -->
<g id="node6" class="node">
<title>src/gatling.js</title>
<path fill="none" stroke="#c6c5fe" d="M1436.83,-446.34C1436.83,-446.34 1360.17,-446.34 1360.17,-446.34 1356.33,-446.34 1352.5,-442.51 1352.5,-438.68 1352.5,-438.68 1352.5,-431.01 1352.5,-431.01 1352.5,-427.18 1356.33,-423.34 1360.17,-423.34 1360.17,-423.34 1436.83,-423.34 1436.83,-423.34 1440.67,-423.34 1444.5,-427.18 1444.5,-431.01 1444.5,-431.01 1444.5,-438.68 1444.5,-438.68 1444.5,-442.51 1440.67,-446.34 1436.83,-446.34"/>
<text text-anchor="middle" x="1398.5" y="-431.14" font-family="Arial" font-size="14.00" fill="#c6c5fe">src/gatling.js</text>
</g>
<!-- src/Boss.js&#45;&gt;src/gatling.js -->
<g id="edge4" class="edge">
<title>src/Boss.js&#45;&gt;src/gatling.js</title>
<path fill="none" stroke="#757575" d="M706.11,-607.51C766.35,-600.86 883.7,-587.39 983,-572.84 985.05,-572.54 1275.34,-524.08 1277,-522.84 1305.74,-501.54 1284.46,-472.41 1313,-450.84 1321.49,-444.43 1331.79,-440.35 1342.25,-437.8"/>
<polygon fill="#757575" stroke="#757575" points="1343.15,-441.19 1352.26,-435.79 1341.77,-434.32 1343.15,-441.19"/>
</g>
<!-- src/Boss.js&#45;&gt;src/levelCompleteScreen.js -->
<g id="edge5" class="edge">
<title>src/Boss.js&#45;&gt;src/levelCompleteScreen.js</title>
<path fill="none" stroke="#757575" d="M700.25,-623.4C778.45,-648.72 976.55,-706.84 1147,-706.84 1147,-706.84 1147,-706.84 1399.5,-706.84 1597.59,-706.84 1823.33,-796.94 1908.02,-834.11"/>
<polygon fill="#757575" stroke="#757575" points="1906.84,-837.41 1917.4,-838.26 1909.68,-831.01 1906.84,-837.41"/>
</g>
<!-- src/enemy.js&#45;&gt;src/gatling.js -->
<g id="edge9" class="edge">
<title>src/enemy.js&#45;&gt;src/gatling.js</title>
<path fill="none" stroke="#757575" d="M908.61,-546.69C1008.7,-532.86 1243.2,-499.49 1277,-485.84 1295.06,-478.55 1295.48,-469.36 1313,-460.84 1322.31,-456.32 1332.58,-452.37 1342.66,-449.01"/>
<polygon fill="#757575" stroke="#757575" points="1343.75,-452.34 1352.22,-445.97 1341.63,-445.66 1343.75,-452.34"/>
</g>
<!-- src/enemyManoeuvre.js -->
<g id="node11" class="node">
<title>src/enemyManoeuvre.js</title>
<path fill="none" stroke="#cfffac" d="M1220.83,-640.34C1220.83,-640.34 1075.17,-640.34 1075.17,-640.34 1071.33,-640.34 1067.5,-636.51 1067.5,-632.68 1067.5,-632.68 1067.5,-625.01 1067.5,-625.01 1067.5,-621.18 1071.33,-617.34 1075.17,-617.34 1075.17,-617.34 1220.83,-617.34 1220.83,-617.34 1224.67,-617.34 1228.5,-621.18 1228.5,-625.01 1228.5,-625.01 1228.5,-632.68 1228.5,-632.68 1228.5,-636.51 1224.67,-640.34 1220.83,-640.34"/>
<text text-anchor="middle" x="1148" y="-625.14" font-family="Arial" font-size="14.00" fill="#cfffac">src/enemyManoeuvre.js</text>
</g>
<!-- src/enemy.js&#45;&gt;src/enemyManoeuvre.js -->
<g id="edge8" class="edge">
<title>src/enemy.js&#45;&gt;src/enemyManoeuvre.js</title>
<path fill="none" stroke="#757575" d="M908.53,-557.61C931.63,-561.29 959.73,-567.71 983,-578.84 1001.53,-587.71 1000.24,-599.46 1019,-607.84 1030.96,-613.19 1044.09,-617.19 1057.25,-620.18"/>
<polygon fill="#757575" stroke="#757575" points="1056.79,-623.66 1067.3,-622.28 1058.22,-616.81 1056.79,-623.66"/>
</g>
<!-- src/rendering/EnemyCollisionsChecks.js -->
<g id="node12" class="node">
<title>src/rendering/EnemyCollisionsChecks.js</title>
<path fill="none" stroke="#c6c5fe" d="M1269.33,-599.34C1269.33,-599.34 1026.67,-599.34 1026.67,-599.34 1022.83,-599.34 1019,-595.51 1019,-591.68 1019,-591.68 1019,-584.01 1019,-584.01 1019,-580.18 1022.83,-576.34 1026.67,-576.34 1026.67,-576.34 1269.33,-576.34 1269.33,-576.34 1273.17,-576.34 1277,-580.18 1277,-584.01 1277,-584.01 1277,-591.68 1277,-591.68 1277,-595.51 1273.17,-599.34 1269.33,-599.34"/>
<text text-anchor="middle" x="1148" y="-584.14" font-family="Arial" font-size="14.00" fill="#c6c5fe">src/rendering/EnemyCollisionsChecks.js</text>
</g>
<!-- src/enemy.js&#45;&gt;src/rendering/EnemyCollisionsChecks.js -->
<g id="edge10" class="edge">
<title>src/enemy.js&#45;&gt;src/rendering/EnemyCollisionsChecks.js</title>
<path fill="none" stroke="#757575" d="M908.73,-558.43C945,-562.91 997.31,-569.36 1043.69,-575.09"/>
<polygon fill="#757575" stroke="#757575" points="1043.44,-578.59 1053.79,-576.34 1044.3,-571.64 1043.44,-578.59"/>
</g>
<!-- src/gatling.js&#45;&gt;src/music.js -->
<g id="edge25" class="edge">
<title>src/gatling.js&#45;&gt;src/music.js</title>
<path fill="none" stroke="#757575" d="M1444.64,-442.52C1524.75,-457.7 1694.81,-497.02 1817,-574.84 1864.89,-605.35 1907.35,-658 1928.43,-686.73"/>
<polygon fill="#757575" stroke="#757575" points="1925.81,-689.09 1934.5,-695.15 1931.49,-684.99 1925.81,-689.09"/>
</g>
<!-- src/gatling.js&#45;&gt;src/player/Player.js -->
<g id="edge26" class="edge">
<title>src/gatling.js&#45;&gt;src/player/Player.js</title>
<path fill="none" stroke="#757575" d="M1426.33,-423.21C1458.39,-409.31 1512.18,-385.98 1547.88,-370.5"/>
<polygon fill="#757575" stroke="#757575" points="1549.66,-373.55 1557.44,-366.36 1546.87,-367.13 1549.66,-373.55"/>
</g>
<!-- src/ammo.js&#45;&gt;src/gatling.js -->
<g id="edge6" class="edge">
<title>src/ammo.js&#45;&gt;src/gatling.js</title>
<path fill="none" stroke="#757575" d="M1169.76,-308.37C1213.8,-332.83 1316.7,-389.97 1367.73,-418.31"/>
<polygon fill="#757575" stroke="#757575" points="1366.18,-421.46 1376.62,-423.25 1369.58,-415.34 1366.18,-421.46"/>
</g>
<!-- src/rocket.js -->
<g id="node9" class="node">
<title>src/rocket.js</title>
<path fill="none" stroke="#c6c5fe" d="M1788.33,-366.34C1788.33,-366.34 1714.67,-366.34 1714.67,-366.34 1710.83,-366.34 1707,-362.51 1707,-358.68 1707,-358.68 1707,-351.01 1707,-351.01 1707,-347.18 1710.83,-343.34 1714.67,-343.34 1714.67,-343.34 1788.33,-343.34 1788.33,-343.34 1792.17,-343.34 1796,-347.18 1796,-351.01 1796,-351.01 1796,-358.68 1796,-358.68 1796,-362.51 1792.17,-366.34 1788.33,-366.34"/>
<text text-anchor="middle" x="1751.5" y="-351.14" font-family="Arial" font-size="14.00" fill="#c6c5fe">src/rocket.js</text>
</g>
<!-- src/ammo.js&#45;&gt;src/rocket.js -->
<g id="edge7" class="edge">
<title>src/ammo.js&#45;&gt;src/rocket.js</title>
<path fill="none" stroke="#757575" d="M1193.78,-298.16C1281.65,-301.19 1482.67,-310.29 1650,-333.84 1665.2,-335.98 1681.55,-339.06 1696.55,-342.2"/>
<polygon fill="#757575" stroke="#757575" points="1696.18,-345.7 1706.69,-344.38 1697.65,-338.86 1696.18,-345.7"/>
</g>
<!-- src/rocket.js&#45;&gt;src/rendering/Helpers.js -->
<g id="edge42" class="edge">
<title>src/rocket.js&#45;&gt;src/rendering/Helpers.js</title>
<path fill="none" stroke="#757575" d="M1796.09,-354.84C1813.24,-354.84 1833.59,-354.84 1853.58,-354.84"/>
<polygon fill="#757575" stroke="#757575" points="1853.67,-358.34 1863.67,-354.84 1853.67,-351.34 1853.67,-358.34"/>
</g>
<!-- src/rendering/EnemyCollisionsChecks.js&#45;&gt;src/gatling.js -->
<g id="edge36" class="edge">
<title>src/rendering/EnemyCollisionsChecks.js&#45;&gt;src/gatling.js</title>
<path fill="none" stroke="#757575" d="M1253.97,-576.24C1262.31,-572.51 1270.15,-567.79 1277,-561.84 1313,-530.62 1278.57,-493.79 1313,-460.84 1321.23,-452.96 1331.8,-447.47 1342.65,-443.64"/>
<polygon fill="#757575" stroke="#757575" points="1343.69,-446.98 1352.21,-440.68 1341.62,-440.29 1343.69,-446.98"/>
</g>
<!-- src/rendering/EnemyCollisionsChecks.js&#45;&gt;src/rocket.js -->
<g id="edge41" class="edge">
<title>src/rendering/EnemyCollisionsChecks.js&#45;&gt;src/rocket.js</title>
<path fill="none" stroke="#757575" d="M1219.02,-576.29C1238.2,-571.97 1258.74,-566.26 1277,-558.84 1294.37,-551.79 1295.77,-544.24 1313,-536.84 1385.31,-505.79 1410.37,-518.63 1484,-490.84 1560.99,-461.79 1576.86,-446.55 1650,-408.84 1673.86,-396.54 1700.63,-382.13 1720.53,-371.29"/>
<polygon fill="#757575" stroke="#757575" points="1722.34,-374.3 1729.44,-366.43 1718.98,-368.15 1722.34,-374.3"/>
</g>
<!-- src/rendering/EnemyCollisionsChecks.js&#45;&gt;src/music.js -->
<g id="edge37" class="edge">
<title>src/rendering/EnemyCollisionsChecks.js&#45;&gt;src/music.js</title>
<path fill="none" stroke="#757575" d="M1277.07,-589.02C1413.18,-593.05 1633.62,-607.55 1817,-656.84 1848.99,-665.44 1883.89,-679.78 1908.74,-690.9"/>
<polygon fill="#757575" stroke="#757575" points="1907.53,-694.19 1918.08,-695.13 1910.42,-687.81 1907.53,-694.19"/>
</g>
<!-- src/rendering/EnemyCollisionsChecks.js&#45;&gt;src/player/Player.js -->
<g id="edge38" class="edge">
<title>src/rendering/EnemyCollisionsChecks.js&#45;&gt;src/player/Player.js</title>
<path fill="none" stroke="#757575" d="M1249.35,-576.28C1259.21,-572.61 1268.64,-567.89 1277,-561.84 1303.13,-542.95 1287.36,-518.41 1313,-498.84 1375.39,-451.24 1415.84,-493.74 1484,-454.84 1519.96,-434.32 1551.93,-397.45 1569.57,-374.67"/>
<polygon fill="#757575" stroke="#757575" points="1572.57,-376.5 1575.81,-366.41 1566.99,-372.28 1572.57,-376.5"/>
</g>
<!-- src/rendering/EnemyCollisionsChecks.js&#45;&gt;src/rendering/Helpers.js -->
<g id="edge40" class="edge">
<title>src/rendering/EnemyCollisionsChecks.js&#45;&gt;src/rendering/Helpers.js</title>
<path fill="none" stroke="#757575" d="M1238.87,-576.32C1306.9,-566.5 1402.26,-550.38 1484,-527.84 1646.09,-483.16 1831.16,-404.36 1907.14,-370.76"/>
<polygon fill="#757575" stroke="#757575" points="1908.98,-373.77 1916.7,-366.51 1906.14,-367.37 1908.98,-373.77"/>
</g>
<!-- src/rendering/Explosion.js -->
<g id="node24" class="node">
<title>src/rendering/Explosion.js</title>
<path fill="none" stroke="#cfffac" d="M1476.33,-640.34C1476.33,-640.34 1320.67,-640.34 1320.67,-640.34 1316.83,-640.34 1313,-636.51 1313,-632.68 1313,-632.68 1313,-625.01 1313,-625.01 1313,-621.18 1316.83,-617.34 1320.67,-617.34 1320.67,-617.34 1476.33,-617.34 1476.33,-617.34 1480.17,-617.34 1484,-621.18 1484,-625.01 1484,-625.01 1484,-632.68 1484,-632.68 1484,-636.51 1480.17,-640.34 1476.33,-640.34"/>
<text text-anchor="middle" x="1398.5" y="-625.14" font-family="Arial" font-size="14.00" fill="#cfffac">src/rendering/Explosion.js</text>
</g>
<!-- src/rendering/EnemyCollisionsChecks.js&#45;&gt;src/rendering/Explosion.js -->
<g id="edge39" class="edge">
<title>src/rendering/EnemyCollisionsChecks.js&#45;&gt;src/rendering/Explosion.js</title>
<path fill="none" stroke="#757575" d="M1224.16,-599.36C1241.52,-602.09 1259.91,-605.02 1277,-607.84 1291.64,-610.26 1307.27,-612.93 1322.25,-615.52"/>
<polygon fill="#757575" stroke="#757575" points="1322.05,-619.04 1332.5,-617.3 1323.24,-612.14 1322.05,-619.04"/>
</g>
<!-- src/keyboard.js&#45;&gt;src/gatling.js -->
<g id="edge28" class="edge">
<title>src/keyboard.js&#45;&gt;src/gatling.js</title>
<path fill="none" stroke="#757575" d="M378.39,-426.4C392.76,-429.42 408.45,-432.48 423,-434.84 797.79,-495.69 900.03,-503.23 1277,-457.84 1293.18,-455.9 1296.99,-453.92 1313,-450.84 1322.47,-449.03 1332.54,-447.11 1342.3,-445.26"/>
<polygon fill="#757575" stroke="#757575" points="1343.15,-448.66 1352.32,-443.36 1341.85,-441.78 1343.15,-448.66"/>
</g>
<!-- src/keyboard.js&#45;&gt;src/rocket.js -->
<g id="edge31" class="edge">
<title>src/keyboard.js&#45;&gt;src/rocket.js</title>
<path fill="none" stroke="#757575" d="M335.31,-403.17C347.16,-385.22 370.11,-349.59 387,-317.84 405.12,-283.78 392.32,-262.25 423,-238.84 682.15,-41.14 821.05,-121.84 1147,-121.84 1147,-121.84 1147,-121.84 1399.5,-121.84 1553.28,-121.84 1691.22,-279.01 1735.61,-335.18"/>
<polygon fill="#757575" stroke="#757575" points="1733.02,-337.55 1741.92,-343.29 1738.54,-333.25 1733.02,-337.55"/>
</g>
<!-- src/keyboard.js&#45;&gt;src/music.js -->
<g id="edge29" class="edge">
<title>src/keyboard.js&#45;&gt;src/music.js</title>
<path fill="none" stroke="#757575" d="M332.33,-426.59C357.34,-485.37 478.26,-744.84 664,-744.84 664,-744.84 664,-744.84 1399.5,-744.84 1579.35,-744.84 1791.89,-723.84 1889.12,-713.06"/>
<polygon fill="#757575" stroke="#757575" points="1889.73,-716.52 1899.28,-711.93 1888.96,-709.56 1889.73,-716.52"/>
</g>
<!-- src/keyboard.js&#45;&gt;src/player/Player.js -->
<g id="edge30" class="edge">
<title>src/keyboard.js&#45;&gt;src/player/Player.js</title>
<path fill="none" stroke="#757575" d="M335.57,-403.24C350.48,-382.65 384.37,-339.64 423,-315.84 549.39,-237.98 595.23,-239.09 742,-216.84 1052.19,-169.82 1425.45,-295.06 1545.1,-339.71"/>
<polygon fill="#757575" stroke="#757575" points="1543.99,-343.04 1554.58,-343.28 1546.46,-336.49 1543.99,-343.04"/>
</g>
<!-- src/gameMenuActions.js -->
<g id="node19" class="node">
<title>src/gameMenuActions.js</title>
<path fill="none" stroke="#c6c5fe" d="M580.33,-426.34C580.33,-426.34 430.67,-426.34 430.67,-426.34 426.83,-426.34 423,-422.51 423,-418.68 423,-418.68 423,-411.01 423,-411.01 423,-407.18 426.83,-403.34 430.67,-403.34 430.67,-403.34 580.33,-403.34 580.33,-403.34 584.17,-403.34 588,-407.18 588,-411.01 588,-411.01 588,-418.68 588,-418.68 588,-422.51 584.17,-426.34 580.33,-426.34"/>
<text text-anchor="middle" x="505.5" y="-411.14" font-family="Arial" font-size="14.00" fill="#c6c5fe">src/gameMenuActions.js</text>
</g>
<!-- src/keyboard.js&#45;&gt;src/gameMenuActions.js -->
<g id="edge27" class="edge">
<title>src/keyboard.js&#45;&gt;src/gameMenuActions.js</title>
<path fill="none" stroke="#757575" d="M380.13,-414.84C390.43,-414.84 401.5,-414.84 412.65,-414.84"/>
<polygon fill="#757575" stroke="#757575" points="412.89,-418.34 422.89,-414.84 412.89,-411.34 412.89,-418.34"/>
</g>
<!-- src/touch.js -->
<g id="node21" class="node">
<title>src/touch.js</title>
<path fill="none" stroke="#c6c5fe" d="M540.33,-348.34C540.33,-348.34 470.67,-348.34 470.67,-348.34 466.83,-348.34 463,-344.51 463,-340.68 463,-340.68 463,-333.01 463,-333.01 463,-329.18 466.83,-325.34 470.67,-325.34 470.67,-325.34 540.33,-325.34 540.33,-325.34 544.17,-325.34 548,-329.18 548,-333.01 548,-333.01 548,-340.68 548,-340.68 548,-344.51 544.17,-348.34 540.33,-348.34"/>
<text text-anchor="middle" x="505.5" y="-333.14" font-family="Arial" font-size="14.00" fill="#c6c5fe">src/touch.js</text>
</g>
<!-- src/keyboard.js&#45;&gt;src/touch.js -->
<g id="edge32" class="edge">
<title>src/keyboard.js&#45;&gt;src/touch.js</title>
<path fill="none" stroke="#757575" d="M353.62,-403.33C384.08,-389.91 434.59,-367.65 468.69,-352.62"/>
<polygon fill="#757575" stroke="#757575" points="470.54,-355.64 478.28,-348.4 467.71,-349.23 470.54,-355.64"/>
</g>
<!-- src/player/Player.js&#45;&gt;src/rocket.js -->
<g id="edge34" class="edge">
<title>src/player/Player.js&#45;&gt;src/rocket.js</title>
<path fill="none" stroke="#757575" d="M1650.07,-354.84C1665.46,-354.84 1681.75,-354.84 1696.63,-354.84"/>
<polygon fill="#757575" stroke="#757575" points="1696.67,-358.34 1706.67,-354.84 1696.67,-351.34 1696.67,-358.34"/>
</g>
<!-- src/player/Player.js&#45;&gt;src/speedometer.js -->
<g id="edge35" class="edge">
<title>src/player/Player.js&#45;&gt;src/speedometer.js</title>
<path fill="none" stroke="#757575" d="M1597.05,-343.16C1624.91,-313.69 1698.24,-236.13 1732.45,-199.94"/>
<polygon fill="#757575" stroke="#757575" points="1735.17,-202.15 1739.5,-192.48 1730.09,-197.34 1735.17,-202.15"/>
</g>
<!-- src/gameOver.js -->
<g id="node20" class="node">
<title>src/gameOver.js</title>
<path fill="none" stroke="#c6c5fe" d="M1801.83,-689.34C1801.83,-689.34 1701.17,-689.34 1701.17,-689.34 1697.33,-689.34 1693.5,-685.51 1693.5,-681.68 1693.5,-681.68 1693.5,-674.01 1693.5,-674.01 1693.5,-670.18 1697.33,-666.34 1701.17,-666.34 1701.17,-666.34 1801.83,-666.34 1801.83,-666.34 1805.67,-666.34 1809.5,-670.18 1809.5,-674.01 1809.5,-674.01 1809.5,-681.68 1809.5,-681.68 1809.5,-685.51 1805.67,-689.34 1801.83,-689.34"/>
<text text-anchor="middle" x="1751.5" y="-674.14" font-family="Arial" font-size="14.00" fill="#c6c5fe">src/gameOver.js</text>
</g>
<!-- src/player/Player.js&#45;&gt;src/gameOver.js -->
<g id="edge33" class="edge">
<title>src/player/Player.js&#45;&gt;src/gameOver.js</title>
<path fill="none" stroke="#757575" d="M1592.05,-366.72C1616.54,-414.81 1708.5,-595.37 1739.91,-657.05"/>
<polygon fill="#757575" stroke="#757575" points="1736.91,-658.87 1744.57,-666.2 1743.15,-655.7 1736.91,-658.87"/>
</g>
<!-- src/step.js&#45;&gt;src/enemy.js -->
<g id="edge46" class="edge">
<title>src/step.js&#45;&gt;src/enemy.js</title>
<path fill="none" stroke="#757575" d="M675.96,-426.4C689.73,-441.9 715.85,-469.7 742,-488.84 768.32,-508.11 801.17,-525.27 825.76,-536.97"/>
<polygon fill="#757575" stroke="#757575" points="824.54,-540.26 835.08,-541.32 827.51,-533.92 824.54,-540.26"/>
</g>
<!-- src/step.js&#45;&gt;src/gatling.js -->
<g id="edge48" class="edge">
<title>src/step.js&#45;&gt;src/gatling.js</title>
<path fill="none" stroke="#757575" d="M682.25,-426.4C697.03,-436.15 719.85,-449.37 742,-454.84 799.34,-469.01 1194.45,-447.07 1342.05,-438.25"/>
<polygon fill="#757575" stroke="#757575" points="1342.47,-441.73 1352.24,-437.64 1342.05,-434.74 1342.47,-441.73"/>
</g>
<!-- src/step.js&#45;&gt;src/ammo.js -->
<g id="edge44" class="edge">
<title>src/step.js&#45;&gt;src/ammo.js</title>
<path fill="none" stroke="#757575" d="M674.28,-403.23C686.82,-386.64 712.34,-356.65 742,-342.84 802.97,-314.46 996.67,-302.87 1092.39,-298.78"/>
<polygon fill="#757575" stroke="#757575" points="1092.6,-302.27 1102.45,-298.36 1092.31,-295.28 1092.6,-302.27"/>
</g>
<!-- src/step.js&#45;&gt;src/rocket.js -->
<g id="edge52" class="edge">
<title>src/step.js&#45;&gt;src/rocket.js</title>
<path fill="none" stroke="#757575" d="M703.71,-412.21C784.78,-406.78 981.72,-394.84 1147,-394.84 1147,-394.84 1147,-394.84 1399.5,-394.84 1511.19,-394.84 1539.38,-390.21 1650,-374.84 1665.18,-372.74 1681.52,-369.78 1696.52,-366.79"/>
<polygon fill="#757575" stroke="#757575" points="1697.56,-370.15 1706.66,-364.72 1696.16,-363.29 1697.56,-370.15"/>
</g>
<!-- src/step.js&#45;&gt;src/background.js -->
<g id="edge45" class="edge">
<title>src/step.js&#45;&gt;src/background.js</title>
<path fill="none" stroke="#757575" d="M667.93,-403.06C673.47,-373.35 692.31,-295.06 742,-257.84 756.07,-247.3 773.7,-241.51 791.05,-238.49"/>
<polygon fill="#757575" stroke="#757575" points="791.82,-241.92 801.21,-237.02 790.81,-234.99 791.82,-241.92"/>
</g>
<!-- src/step.js&#45;&gt;src/player/Player.js -->
<g id="edge51" class="edge">
<title>src/step.js&#45;&gt;src/player/Player.js</title>
<path fill="none" stroke="#757575" d="M686.21,-403.19C701.1,-395.26 722.14,-385.41 742,-380.84 1019.18,-317.18 1361.1,-335.23 1509.47,-347.59"/>
<polygon fill="#757575" stroke="#757575" points="1509.55,-351.11 1519.82,-348.47 1510.15,-344.14 1509.55,-351.11"/>
</g>
<!-- src/step.js&#45;&gt;src/gameOver.js -->
<g id="edge47" class="edge">
<title>src/step.js&#45;&gt;src/gameOver.js</title>
<path fill="none" stroke="#757575" d="M668.14,-426.4C674.17,-455.6 694.08,-532.88 742,-572.84 840.04,-654.61 892.84,-629.3 1019,-648.84 1261.13,-686.35 1553.41,-683.82 1683,-680.27"/>
<polygon fill="#757575" stroke="#757575" points="1683.27,-683.77 1693.16,-679.99 1683.07,-676.77 1683.27,-683.77"/>
</g>
<!-- src/mobile/mobileVelocityController.js -->
<g id="node22" class="node">
<title>src/mobile/mobileVelocityController.js</title>
<path fill="none" stroke="#cfffac" d="M975.33,-446.34C975.33,-446.34 749.67,-446.34 749.67,-446.34 745.83,-446.34 742,-442.51 742,-438.68 742,-438.68 742,-431.01 742,-431.01 742,-427.18 745.83,-423.34 749.67,-423.34 749.67,-423.34 975.33,-423.34 975.33,-423.34 979.17,-423.34 983,-427.18 983,-431.01 983,-431.01 983,-438.68 983,-438.68 983,-442.51 979.17,-446.34 975.33,-446.34"/>
<text text-anchor="middle" x="862.5" y="-431.14" font-family="Arial" font-size="14.00" fill="#cfffac">src/mobile/mobileVelocityController.js</text>
</g>
<!-- src/step.js&#45;&gt;src/mobile/mobileVelocityController.js -->
<g id="edge49" class="edge">
<title>src/step.js&#45;&gt;src/mobile/mobileVelocityController.js</title>
<path fill="none" stroke="#757575" d="M703.69,-418.7C714.2,-419.77 726.22,-421 738.83,-422.29"/>
<polygon fill="#757575" stroke="#757575" points="738.75,-425.8 749.05,-423.34 739.46,-418.84 738.75,-425.8"/>
</g>
<!-- src/mobileJoystick.js -->
<g id="node23" class="node">
<title>src/mobileJoystick.js</title>
<path fill="none" stroke="#cfffac" d="M924.83,-290.34C924.83,-290.34 800.17,-290.34 800.17,-290.34 796.33,-290.34 792.5,-286.51 792.5,-282.68 792.5,-282.68 792.5,-275.01 792.5,-275.01 792.5,-271.18 796.33,-267.34 800.17,-267.34 800.17,-267.34 924.83,-267.34 924.83,-267.34 928.67,-267.34 932.5,-271.18 932.5,-275.01 932.5,-275.01 932.5,-282.68 932.5,-282.68 932.5,-286.51 928.67,-290.34 924.83,-290.34"/>
<text text-anchor="middle" x="862.5" y="-275.14" font-family="Arial" font-size="14.00" fill="#cfffac">src/mobileJoystick.js</text>
</g>
<!-- src/step.js&#45;&gt;src/mobileJoystick.js -->
<g id="edge50" class="edge">
<title>src/step.js&#45;&gt;src/mobileJoystick.js</title>
<path fill="none" stroke="#757575" d="M670.63,-403.02C680.23,-380.15 704.59,-329.91 742,-304.84 754.04,-296.78 768.15,-291.17 782.38,-287.27"/>
<polygon fill="#757575" stroke="#757575" points="783.35,-290.64 792.22,-284.84 781.67,-283.84 783.35,-290.64"/>
</g>
<!-- src/gameMenuActions.js&#45;&gt;src/step.js -->
<g id="edge22" class="edge">
<title>src/gameMenuActions.js&#45;&gt;src/step.js</title>
<path fill="none" stroke="#757575" d="M588.02,-414.84C597.62,-414.84 607.17,-414.84 616.09,-414.84"/>
<polygon fill="#757575" stroke="#757575" points="616.24,-418.34 626.24,-414.84 616.24,-411.34 616.24,-418.34"/>
</g>
<!-- src/gameOver.js&#45;&gt;src/levelCompleteScreen.js -->
<g id="edge23" class="edge">
<title>src/gameOver.js&#45;&gt;src/levelCompleteScreen.js</title>
<path fill="none" stroke="#757575" d="M1765.26,-689.4C1797.58,-718.65 1882.85,-795.84 1922.14,-831.41"/>
<polygon fill="#757575" stroke="#757575" points="1920.03,-834.22 1929.79,-838.34 1924.73,-829.04 1920.03,-834.22"/>
</g>
<!-- src/gameOver.js&#45;&gt;src/music.js -->
<g id="edge24" class="edge">
<title>src/gameOver.js&#45;&gt;src/music.js</title>
<path fill="none" stroke="#757575" d="M1809.51,-686.54C1834.87,-690.42 1864.56,-694.95 1889.44,-698.75"/>
<polygon fill="#757575" stroke="#757575" points="1889.02,-702.22 1899.43,-700.27 1890.07,-695.3 1889.02,-702.22"/>
</g>
<!-- src/touch.js&#45;&gt;src/mobileJoystick.js -->
<g id="edge53" class="edge">
<title>src/touch.js&#45;&gt;src/mobileJoystick.js</title>
<path fill="none" stroke="#757575" d="M548.27,-330.02C605.6,-320.65 709.78,-303.63 782.18,-291.8"/>
<polygon fill="#757575" stroke="#757575" points="782.87,-295.24 792.17,-290.17 781.74,-288.33 782.87,-295.24"/>
</g>
</g>
</svg>
