<?xml version="1.0" encoding="UTF-8" standalone="no"?>
<!DOCTYPE svg PUBLIC "-//W3C//DTD SVG 1.1//EN"
 "http://www.w3.org/Graphics/SVG/1.1/DTD/svg11.dtd">
<!-- Generated by graphviz version 2.43.0 (0)
 -->
<!-- Title: G Pages: 1 -->
<svg width="2114pt" height="1390pt"
 viewBox="0.00 0.00 2114.20 1389.75" xmlns="http://www.w3.org/2000/svg" xmlns:xlink="http://www.w3.org/1999/xlink">
<g id="graph0" class="graph" transform="scale(1 1) rotate(0) translate(21.6 1368.15)">
<title>G</title>
<polygon fill="#111111" stroke="transparent" points="-21.6,21.6 -21.6,-1368.15 2092.6,-1368.15 2092.6,21.6 -21.6,21.6"/>
<!-- app.js -->
<g id="node1" class="node">
<title>app.js</title>
<path fill="none" stroke="#c6c5fe" d="M46.33,-1064C46.33,-1064 7.67,-1064 7.67,-1064 3.83,-1064 0,-1060.17 0,-1056.33 0,-1056.33 0,-1048.67 0,-1048.67 0,-1044.83 3.83,-1041 7.67,-1041 7.67,-1041 46.33,-1041 46.33,-1041 50.17,-1041 54,-1044.83 54,-1048.67 54,-1048.67 54,-1056.33 54,-1056.33 54,-1060.17 50.17,-1064 46.33,-1064"/>
<text text-anchor="middle" x="27" y="-1048.8" font-family="Arial" font-size="14.00" fill="#c6c5fe">app.js</text>
</g>
<!-- src/gameManager.js -->
<g id="node2" class="node">
<title>src/gameManager.js</title>
<path fill="none" stroke="#c6c5fe" d="M222.33,-1044C222.33,-1044 97.67,-1044 97.67,-1044 93.83,-1044 90,-1040.17 90,-1036.33 90,-1036.33 90,-1028.67 90,-1028.67 90,-1024.83 93.83,-1021 97.67,-1021 97.67,-1021 222.33,-1021 222.33,-1021 226.17,-1021 230,-1024.83 230,-1028.67 230,-1028.67 230,-1036.33 230,-1036.33 230,-1040.17 226.17,-1044 222.33,-1044"/>
<text text-anchor="middle" x="160" y="-1028.8" font-family="Arial" font-size="14.00" fill="#c6c5fe">src/gameManager.js</text>
</g>
<!-- app.js&#45;&gt;src/gameManager.js -->
<g id="edge1" class="edge">
<title>app.js&#45;&gt;src/gameManager.js</title>
<path fill="none" stroke="#757575" d="M54.19,-1048.5C61.87,-1047.33 70.69,-1045.98 79.89,-1044.58"/>
<polygon fill="#757575" stroke="#757575" points="80.62,-1048.01 89.97,-1043.04 79.56,-1041.09 80.62,-1048.01"/>
</g>
<!-- src/startScreen.js -->
<g id="node3" class="node">
<title>src/startScreen.js</title>
<path fill="none" stroke="#cfffac" d="M383.83,-1324C383.83,-1324 278.17,-1324 278.17,-1324 274.33,-1324 270.5,-1320.17 270.5,-1316.33 270.5,-1316.33 270.5,-1308.67 270.5,-1308.67 270.5,-1304.83 274.33,-1301 278.17,-1301 278.17,-1301 383.83,-1301 383.83,-1301 387.67,-1301 391.5,-1304.83 391.5,-1308.67 391.5,-1308.67 391.5,-1316.33 391.5,-1316.33 391.5,-1320.17 387.67,-1324 383.83,-1324"/>
<text text-anchor="middle" x="331" y="-1308.8" font-family="Arial" font-size="14.00" fill="#cfffac">src/startScreen.js</text>
</g>
<!-- app.js&#45;&gt;src/startScreen.js -->
<g id="edge2" class="edge">
<title>app.js&#45;&gt;src/startScreen.js</title>
<path fill="none" stroke="#757575" d="M36.95,-1064.09C66.14,-1101.19 162.61,-1218.56 266,-1286.5 271.86,-1290.35 278.38,-1293.8 284.95,-1296.82"/>
<polygon fill="#757575" stroke="#757575" points="283.98,-1300.22 294.55,-1300.96 286.75,-1293.79 283.98,-1300.22"/>
</g>
<!-- src/gameManager.js&#45;&gt;src/startScreen.js -->
<g id="edge46" class="edge">
<title>src/gameManager.js&#45;&gt;src/startScreen.js</title>
<path fill="none" stroke="#757575" d="M167.03,-1044.02C179.66,-1068.41 209.43,-1127.24 230,-1178.5 248.84,-1225.46 231.39,-1249.59 266,-1286.5 269.5,-1290.23 273.61,-1293.44 278.03,-1296.2"/>
<polygon fill="#757575" stroke="#757575" points="276.37,-1299.28 286.83,-1300.97 279.71,-1293.13 276.37,-1299.28"/>
</g>
<!-- src/Boss.js -->
<g id="node4" class="node">
<title>src/Boss.js</title>
<path fill="none" stroke="#c6c5fe" d="M1313.33,-975C1313.33,-975 1246.67,-975 1246.67,-975 1242.83,-975 1239,-971.17 1239,-967.33 1239,-967.33 1239,-959.67 1239,-959.67 1239,-955.83 1242.83,-952 1246.67,-952 1246.67,-952 1313.33,-952 1313.33,-952 1317.17,-952 1321,-955.83 1321,-959.67 1321,-959.67 1321,-967.33 1321,-967.33 1321,-971.17 1317.17,-975 1313.33,-975"/>
<text text-anchor="middle" x="1280" y="-959.8" font-family="Arial" font-size="14.00" fill="#c6c5fe">src/Boss.js</text>
</g>
<!-- src/gameManager.js&#45;&gt;src/Boss.js -->
<g id="edge34" class="edge">
<title>src/gameManager.js&#45;&gt;src/Boss.js</title>
<path fill="none" stroke="#757575" d="M217.72,-1044.04C370.04,-1072.76 799.41,-1138.76 1138,-1046.5 1184.04,-1033.95 1230.38,-1002.13 1256.8,-981.73"/>
<polygon fill="#757575" stroke="#757575" points="1259.27,-984.23 1264.96,-975.29 1254.94,-978.74 1259.27,-984.23"/>
</g>
<!-- src/gameState.js -->
<g id="node5" class="node">
<title>src/gameState.js</title>
<path fill="none" stroke="#cfffac" d="M2063.33,-774C2063.33,-774 1960.67,-774 1960.67,-774 1956.83,-774 1953,-770.17 1953,-766.33 1953,-766.33 1953,-758.67 1953,-758.67 1953,-754.83 1956.83,-751 1960.67,-751 1960.67,-751 2063.33,-751 2063.33,-751 2067.17,-751 2071,-754.83 2071,-758.67 2071,-758.67 2071,-766.33 2071,-766.33 2071,-770.17 2067.17,-774 2063.33,-774"/>
<text text-anchor="middle" x="2012" y="-758.8" font-family="Arial" font-size="14.00" fill="#cfffac">src/gameState.js</text>
</g>
<!-- src/gameManager.js&#45;&gt;src/gameState.js -->
<g id="edge39" class="edge">
<title>src/gameManager.js&#45;&gt;src/gameState.js</title>
<path fill="none" stroke="#757575" d="M189.9,-1044.04C245.83,-1065.3 373.15,-1108.5 484.5,-1108.5 484.5,-1108.5 484.5,-1108.5 819.5,-1108.5 1195.72,-1108.5 1286.77,-1048.26 1654,-966.5 1770.93,-940.47 1818.68,-975.94 1917,-907.5 1961.91,-876.24 1990.54,-815.92 2003.29,-783.82"/>
<polygon fill="#757575" stroke="#757575" points="2006.71,-784.69 2007.01,-774.1 2000.17,-782.19 2006.71,-784.69"/>
</g>
<!-- src/levelCompleteScreen.js -->
<g id="node6" class="node">
<title>src/levelCompleteScreen.js</title>
<path fill="none" stroke="#cfffac" d="M1620.83,-892C1620.83,-892 1455.17,-892 1455.17,-892 1451.33,-892 1447.5,-888.17 1447.5,-884.33 1447.5,-884.33 1447.5,-876.67 1447.5,-876.67 1447.5,-872.83 1451.33,-869 1455.17,-869 1455.17,-869 1620.83,-869 1620.83,-869 1624.67,-869 1628.5,-872.83 1628.5,-876.67 1628.5,-876.67 1628.5,-884.33 1628.5,-884.33 1628.5,-888.17 1624.67,-892 1620.83,-892"/>
<text text-anchor="middle" x="1538" y="-876.8" font-family="Arial" font-size="14.00" fill="#cfffac">src/levelCompleteScreen.js</text>
</g>
<!-- src/gameManager.js&#45;&gt;src/levelCompleteScreen.js -->
<g id="edge41" class="edge">
<title>src/gameManager.js&#45;&gt;src/levelCompleteScreen.js</title>
<path fill="none" stroke="#757575" d="M230.12,-1034.75C440.13,-1041.03 1061.15,-1055.4 1138,-1008.5 1166.52,-991.09 1146.81,-961.92 1174,-942.5 1250.42,-887.9 1358.67,-875.55 1437.05,-874.94"/>
<polygon fill="#757575" stroke="#757575" points="1437.43,-878.44 1447.42,-874.92 1437.42,-871.44 1437.43,-878.44"/>
</g>
<!-- src/ammo.js -->
<g id="node9" class="node">
<title>src/ammo.js</title>
<path fill="none" stroke="#c6c5fe" d="M1317.83,-460C1317.83,-460 1242.17,-460 1242.17,-460 1238.33,-460 1234.5,-456.17 1234.5,-452.33 1234.5,-452.33 1234.5,-444.67 1234.5,-444.67 1234.5,-440.83 1238.33,-437 1242.17,-437 1242.17,-437 1317.83,-437 1317.83,-437 1321.67,-437 1325.5,-440.83 1325.5,-444.67 1325.5,-444.67 1325.5,-452.33 1325.5,-452.33 1325.5,-456.17 1321.67,-460 1317.83,-460"/>
<text text-anchor="middle" x="1280" y="-444.8" font-family="Arial" font-size="14.00" fill="#c6c5fe">src/ammo.js</text>
</g>
<!-- src/gameManager.js&#45;&gt;src/ammo.js -->
<g id="edge35" class="edge">
<title>src/gameManager.js&#45;&gt;src/ammo.js</title>
<path fill="none" stroke="#757575" d="M160.57,-1020.71C159.4,-970.35 161.76,-771.21 266,-668.5 538.15,-400.32 1055.61,-425.64 1224.33,-442.1"/>
<polygon fill="#757575" stroke="#757575" points="1224.16,-445.6 1234.46,-443.12 1224.86,-438.64 1224.16,-445.6"/>
</g>
<!-- src/background.js -->
<g id="node11" class="node">
<title>src/background.js</title>
<path fill="none" stroke="#cfffac" d="M1856.83,-1246C1856.83,-1246 1750.17,-1246 1750.17,-1246 1746.33,-1246 1742.5,-1242.17 1742.5,-1238.33 1742.5,-1238.33 1742.5,-1230.67 1742.5,-1230.67 1742.5,-1226.83 1746.33,-1223 1750.17,-1223 1750.17,-1223 1856.83,-1223 1856.83,-1223 1860.67,-1223 1864.5,-1226.83 1864.5,-1230.67 1864.5,-1230.67 1864.5,-1238.33 1864.5,-1238.33 1864.5,-1242.17 1860.67,-1246 1856.83,-1246"/>
<text text-anchor="middle" x="1803.5" y="-1230.8" font-family="Arial" font-size="14.00" fill="#cfffac">src/background.js</text>
</g>
<!-- src/gameManager.js&#45;&gt;src/background.js -->
<g id="edge36" class="edge">
<title>src/gameManager.js&#45;&gt;src/background.js</title>
<path fill="none" stroke="#757575" d="M170.98,-1044.14C185.2,-1061.08 211.61,-1093.85 230,-1124.5 249.44,-1156.89 237.69,-1176.48 266,-1201.5 342.51,-1269.12 382.39,-1272.5 484.5,-1272.5 484.5,-1272.5 484.5,-1272.5 1281,-1272.5 1442.92,-1272.5 1632.38,-1254.05 1732.39,-1242.86"/>
<polygon fill="#757575" stroke="#757575" points="1732.83,-1246.33 1742.38,-1241.74 1732.05,-1239.38 1732.83,-1246.33"/>
</g>
<!-- src/music.js -->
<g id="node13" class="node">
<title>src/music.js</title>
<path fill="none" stroke="#cfffac" d="M1839.83,-618C1839.83,-618 1767.17,-618 1767.17,-618 1763.33,-618 1759.5,-614.17 1759.5,-610.33 1759.5,-610.33 1759.5,-602.67 1759.5,-602.67 1759.5,-598.83 1763.33,-595 1767.17,-595 1767.17,-595 1839.83,-595 1839.83,-595 1843.67,-595 1847.5,-598.83 1847.5,-602.67 1847.5,-602.67 1847.5,-610.33 1847.5,-610.33 1847.5,-614.17 1843.67,-618 1839.83,-618"/>
<text text-anchor="middle" x="1803.5" y="-602.8" font-family="Arial" font-size="14.00" fill="#cfffac">src/music.js</text>
</g>
<!-- src/gameManager.js&#45;&gt;src/music.js -->
<g id="edge42" class="edge">
<title>src/gameManager.js&#45;&gt;src/music.js</title>
<path fill="none" stroke="#757575" d="M222.16,-1020.99C287.03,-1009.81 392.61,-994.5 484.5,-994.5 484.5,-994.5 484.5,-994.5 819.5,-994.5 890.42,-994.5 1081.35,-1017.17 1138,-974.5 1176.07,-945.83 1141.04,-907.92 1174,-873.5 1333.24,-707.18 1443.62,-772.11 1654,-678.5 1694.63,-660.42 1740.58,-637.8 1770.46,-622.79"/>
<polygon fill="#757575" stroke="#757575" points="1772.21,-625.82 1779.57,-618.2 1769.06,-619.57 1772.21,-625.82"/>
</g>
<!-- src/rendering/Helpers.js -->
<g id="node15" class="node">
<title>src/rendering/Helpers.js</title>
<path fill="none" stroke="#cfffac" d="M1875.33,-424C1875.33,-424 1731.67,-424 1731.67,-424 1727.83,-424 1724,-420.17 1724,-416.33 1724,-416.33 1724,-408.67 1724,-408.67 1724,-404.83 1727.83,-401 1731.67,-401 1731.67,-401 1875.33,-401 1875.33,-401 1879.17,-401 1883,-404.83 1883,-408.67 1883,-408.67 1883,-416.33 1883,-416.33 1883,-420.17 1879.17,-424 1875.33,-424"/>
<text text-anchor="middle" x="1803.5" y="-408.8" font-family="Arial" font-size="14.00" fill="#cfffac">src/rendering/Helpers.js</text>
</g>
<!-- src/gameManager.js&#45;&gt;src/rendering/Helpers.js -->
<g id="edge44" class="edge">
<title>src/gameManager.js&#45;&gt;src/rendering/Helpers.js</title>
<path fill="none" stroke="#757575" d="M161.14,-1020.92C162.37,-932.03 173.87,-357.64 266,-216.5 405.1,-3.39 563.01,-62.5 817.5,-62.5 817.5,-62.5 817.5,-62.5 1281,-62.5 1364,-62.5 1585.5,-34.64 1654,-81.5 1762.64,-155.82 1792.87,-329.4 1800.31,-390.63"/>
<polygon fill="#757575" stroke="#757575" points="1796.84,-391.17 1801.44,-400.71 1803.8,-390.38 1796.84,-391.17"/>
</g>
<!-- src/scores/scores.js -->
<g id="node16" class="node">
<title>src/scores/scores.js</title>
<path fill="none" stroke="#c6c5fe" d="M1597.83,-1124C1597.83,-1124 1478.17,-1124 1478.17,-1124 1474.33,-1124 1470.5,-1120.17 1470.5,-1116.33 1470.5,-1116.33 1470.5,-1108.67 1470.5,-1108.67 1470.5,-1104.83 1474.33,-1101 1478.17,-1101 1478.17,-1101 1597.83,-1101 1597.83,-1101 1601.67,-1101 1605.5,-1104.83 1605.5,-1108.67 1605.5,-1108.67 1605.5,-1116.33 1605.5,-1116.33 1605.5,-1120.17 1601.67,-1124 1597.83,-1124"/>
<text text-anchor="middle" x="1538" y="-1108.8" font-family="Arial" font-size="14.00" fill="#c6c5fe">src/scores/scores.js</text>
</g>
<!-- src/gameManager.js&#45;&gt;src/scores/scores.js -->
<g id="edge45" class="edge">
<title>src/gameManager.js&#45;&gt;src/scores/scores.js</title>
<path fill="none" stroke="#757575" d="M168.55,-1044.22C184.12,-1067.53 222.03,-1120.07 266,-1150.5 351.55,-1209.7 380.46,-1234.5 484.5,-1234.5 484.5,-1234.5 484.5,-1234.5 1018.5,-1234.5 1203.47,-1234.5 1241.09,-1171.04 1422,-1132.5 1434.28,-1129.88 1447.35,-1127.36 1460.1,-1125.04"/>
<polygon fill="#757575" stroke="#757575" points="1461.02,-1128.44 1470.25,-1123.23 1459.79,-1121.55 1461.02,-1128.44"/>
</g>
<!-- src/enemy/enemy.js -->
<g id="node19" class="node">
<title>src/enemy/enemy.js</title>
<path fill="none" stroke="#c6c5fe" d="M1598.83,-812C1598.83,-812 1477.17,-812 1477.17,-812 1473.33,-812 1469.5,-808.17 1469.5,-804.33 1469.5,-804.33 1469.5,-796.67 1469.5,-796.67 1469.5,-792.83 1473.33,-789 1477.17,-789 1477.17,-789 1598.83,-789 1598.83,-789 1602.67,-789 1606.5,-792.83 1606.5,-796.67 1606.5,-796.67 1606.5,-804.33 1606.5,-804.33 1606.5,-808.17 1602.67,-812 1598.83,-812"/>
<text text-anchor="middle" x="1538" y="-796.8" font-family="Arial" font-size="14.00" fill="#c6c5fe">src/enemy/enemy.js</text>
</g>
<!-- src/gameManager.js&#45;&gt;src/enemy/enemy.js -->
<g id="edge37" class="edge">
<title>src/gameManager.js&#45;&gt;src/enemy/enemy.js</title>
<path fill="none" stroke="#757575" d="M164.99,-1020.85C186.63,-960.12 295.84,-682.5 484.5,-682.5 484.5,-682.5 484.5,-682.5 819.5,-682.5 961.49,-682.5 1008.63,-648.98 1138,-707.5 1158.33,-716.7 1154.05,-732.49 1174,-742.5 1264.77,-788.02 1382.93,-799.36 1459.37,-801.43"/>
<polygon fill="#757575" stroke="#757575" points="1459.33,-804.93 1469.41,-801.65 1459.49,-797.93 1459.33,-804.93"/>
</g>
<!-- src/enemy/enemyManager.js -->
<g id="node23" class="node">
<title>src/enemy/enemyManager.js</title>
<path fill="none" stroke="#c6c5fe" d="M1105.33,-1160C1105.33,-1160 929.67,-1160 929.67,-1160 925.83,-1160 922,-1156.17 922,-1152.33 922,-1152.33 922,-1144.67 922,-1144.67 922,-1140.83 925.83,-1137 929.67,-1137 929.67,-1137 1105.33,-1137 1105.33,-1137 1109.17,-1137 1113,-1140.83 1113,-1144.67 1113,-1144.67 1113,-1152.33 1113,-1152.33 1113,-1156.17 1109.17,-1160 1105.33,-1160"/>
<text text-anchor="middle" x="1017.5" y="-1144.8" font-family="Arial" font-size="14.00" fill="#c6c5fe">src/enemy/enemyManager.js</text>
</g>
<!-- src/gameManager.js&#45;&gt;src/enemy/enemyManager.js -->
<g id="edge38" class="edge">
<title>src/gameManager.js&#45;&gt;src/enemy/enemyManager.js</title>
<path fill="none" stroke="#757575" d="M170.26,-1044.04C187,-1063.95 224.41,-1104.36 266,-1122.5 355.59,-1161.58 386.76,-1147.5 484.5,-1147.5 484.5,-1147.5 484.5,-1147.5 658.5,-1147.5 743.66,-1147.5 840.21,-1147.79 911.56,-1148.05"/>
<polygon fill="#757575" stroke="#757575" points="911.89,-1151.55 921.9,-1148.09 911.92,-1144.55 911.89,-1151.55"/>
</g>
<!-- src/keyboard.js -->
<g id="node24" class="node">
<title>src/keyboard.js</title>
<path fill="none" stroke="#c6c5fe" d="M531.33,-382C531.33,-382 439.67,-382 439.67,-382 435.83,-382 432,-378.17 432,-374.33 432,-374.33 432,-366.67 432,-366.67 432,-362.83 435.83,-359 439.67,-359 439.67,-359 531.33,-359 531.33,-359 535.17,-359 539,-362.83 539,-366.67 539,-366.67 539,-374.33 539,-374.33 539,-378.17 535.17,-382 531.33,-382"/>
<text text-anchor="middle" x="485.5" y="-366.8" font-family="Arial" font-size="14.00" fill="#c6c5fe">src/keyboard.js</text>
</g>
<!-- src/gameManager.js&#45;&gt;src/keyboard.js -->
<g id="edge40" class="edge">
<title>src/gameManager.js&#45;&gt;src/keyboard.js</title>
<path fill="none" stroke="#757575" d="M161.44,-1020.66C164.51,-944.87 184.92,-527.85 266,-436.5 305.01,-392.55 372.13,-377.37 421.72,-372.38"/>
<polygon fill="#757575" stroke="#757575" points="422.05,-375.86 431.7,-371.49 421.43,-368.89 422.05,-375.86"/>
</g>
<!-- src/player/Player.js -->
<g id="node25" class="node">
<title>src/player/Player.js</title>
<path fill="none" stroke="#c6c5fe" d="M388.33,-249C388.33,-249 273.67,-249 273.67,-249 269.83,-249 266,-245.17 266,-241.33 266,-241.33 266,-233.67 266,-233.67 266,-229.83 269.83,-226 273.67,-226 273.67,-226 388.33,-226 388.33,-226 392.17,-226 396,-229.83 396,-233.67 396,-233.67 396,-241.33 396,-241.33 396,-245.17 392.17,-249 388.33,-249"/>
<text text-anchor="middle" x="331" y="-233.8" font-family="Arial" font-size="14.00" fill="#c6c5fe">src/player/Player.js</text>
</g>
<!-- src/gameManager.js&#45;&gt;src/player/Player.js -->
<g id="edge43" class="edge">
<title>src/gameManager.js&#45;&gt;src/player/Player.js</title>
<path fill="none" stroke="#757575" d="M161.71,-1020.6C165.87,-954.87 189.61,-629.93 266,-377.5 279.44,-333.08 304.1,-284.49 318.57,-257.84"/>
<polygon fill="#757575" stroke="#757575" points="321.65,-259.51 323.4,-249.06 315.51,-256.14 321.65,-259.51"/>
</g>
<!-- src/step.js -->
<g id="node26" class="node">
<title>src/step.js</title>
<path fill="none" stroke="#c6c5fe" d="M849.33,-772C849.33,-772 787.67,-772 787.67,-772 783.83,-772 780,-768.17 780,-764.33 780,-764.33 780,-756.67 780,-756.67 780,-752.83 783.83,-749 787.67,-749 787.67,-749 849.33,-749 849.33,-749 853.17,-749 857,-752.83 857,-756.67 857,-756.67 857,-764.33 857,-764.33 857,-768.17 853.17,-772 849.33,-772"/>
<text text-anchor="middle" x="818.5" y="-756.8" font-family="Arial" font-size="14.00" fill="#c6c5fe">src/step.js</text>
</g>
<!-- src/gameManager.js&#45;&gt;src/step.js -->
<g id="edge47" class="edge">
<title>src/gameManager.js&#45;&gt;src/step.js</title>
<path fill="none" stroke="#757575" d="M183.28,-1020.81C204.37,-1009.91 237.02,-993.43 266,-980.5 454.01,-896.61 684.34,-809.71 776.52,-775.56"/>
<polygon fill="#757575" stroke="#757575" points="777.87,-778.79 786.04,-772.04 775.44,-772.22 777.87,-778.79"/>
</g>
<!-- src/Boss.js&#45;&gt;src/gameState.js -->
<g id="edge3" class="edge">
<title>src/Boss.js&#45;&gt;src/gameState.js</title>
<path fill="none" stroke="#757575" d="M1321.19,-964.71C1425.66,-966.2 1711.91,-959.69 1917,-854.5 1950.75,-837.19 1980.28,-803.61 1996.85,-782.16"/>
<polygon fill="#757575" stroke="#757575" points="1999.73,-784.15 2002.95,-774.06 1994.14,-779.95 1999.73,-784.15"/>
</g>
<!-- src/Boss.js&#45;&gt;src/levelCompleteScreen.js -->
<g id="edge4" class="edge">
<title>src/Boss.js&#45;&gt;src/levelCompleteScreen.js</title>
<path fill="none" stroke="#757575" d="M1321.21,-958.09C1341.45,-954.25 1365.89,-947.89 1386,-937.5 1404.76,-927.81 1403.14,-916 1422,-906.5 1431.28,-901.82 1441.41,-897.98 1451.67,-894.82"/>
<polygon fill="#757575" stroke="#757575" points="1452.88,-898.12 1461.54,-892 1450.96,-891.39 1452.88,-898.12"/>
</g>
<!-- src/weapons/enemyRocketAtack.js -->
<g id="node7" class="node">
<title>src/weapons/enemyRocketAtack.js</title>
<path fill="none" stroke="#c6c5fe" d="M1909.33,-1047C1909.33,-1047 1697.67,-1047 1697.67,-1047 1693.83,-1047 1690,-1043.17 1690,-1039.33 1690,-1039.33 1690,-1031.67 1690,-1031.67 1690,-1027.83 1693.83,-1024 1697.67,-1024 1697.67,-1024 1909.33,-1024 1909.33,-1024 1913.17,-1024 1917,-1027.83 1917,-1031.67 1917,-1031.67 1917,-1039.33 1917,-1039.33 1917,-1043.17 1913.17,-1047 1909.33,-1047"/>
<text text-anchor="middle" x="1803.5" y="-1031.8" font-family="Arial" font-size="14.00" fill="#c6c5fe">src/weapons/enemyRocketAtack.js</text>
</g>
<!-- src/Boss.js&#45;&gt;src/weapons/enemyRocketAtack.js -->
<g id="edge5" class="edge">
<title>src/Boss.js&#45;&gt;src/weapons/enemyRocketAtack.js</title>
<path fill="none" stroke="#757575" d="M1321.06,-969.03C1403.36,-980.39 1593.42,-1006.63 1708.6,-1022.54"/>
<polygon fill="#757575" stroke="#757575" points="1708.43,-1026.05 1718.82,-1023.95 1709.39,-1019.11 1708.43,-1026.05"/>
</g>
<!-- src/weapons/gatling.js -->
<g id="node8" class="node">
<title>src/weapons/gatling.js</title>
<path fill="none" stroke="#c6c5fe" d="M1604.83,-618C1604.83,-618 1471.17,-618 1471.17,-618 1467.33,-618 1463.5,-614.17 1463.5,-610.33 1463.5,-610.33 1463.5,-602.67 1463.5,-602.67 1463.5,-598.83 1467.33,-595 1471.17,-595 1471.17,-595 1604.83,-595 1604.83,-595 1608.67,-595 1612.5,-598.83 1612.5,-602.67 1612.5,-602.67 1612.5,-610.33 1612.5,-610.33 1612.5,-614.17 1608.67,-618 1604.83,-618"/>
<text text-anchor="middle" x="1538" y="-602.8" font-family="Arial" font-size="14.00" fill="#c6c5fe">src/weapons/gatling.js</text>
</g>
<!-- src/Boss.js&#45;&gt;src/weapons/gatling.js -->
<g id="edge6" class="edge">
<title>src/Boss.js&#45;&gt;src/weapons/gatling.js</title>
<path fill="none" stroke="#757575" d="M1289.52,-951.62C1326.8,-899.62 1475.88,-691.74 1522.79,-626.32"/>
<polygon fill="#757575" stroke="#757575" points="1525.73,-628.23 1528.71,-618.06 1520.04,-624.15 1525.73,-628.23"/>
</g>
<!-- src/weapons/enemyRocketAtack.js&#45;&gt;src/gameState.js -->
<g id="edge79" class="edge">
<title>src/weapons/enemyRocketAtack.js&#45;&gt;src/gameState.js</title>
<path fill="none" stroke="#757575" d="M1893.38,-1023.95C1901.97,-1020.28 1910.05,-1015.56 1917,-1009.5 1986.14,-949.21 2004.62,-832.44 2009.4,-784.18"/>
<polygon fill="#757575" stroke="#757575" points="2012.88,-784.48 2010.28,-774.21 2005.91,-783.86 2012.88,-784.48"/>
</g>
<!-- src/weapons/gatling.js&#45;&gt;src/gameState.js -->
<g id="edge81" class="edge">
<title>src/weapons/gatling.js&#45;&gt;src/gameState.js</title>
<path fill="none" stroke="#757575" d="M1602.3,-618.01C1678.84,-633.19 1810.63,-663.35 1917,-708.5 1941.01,-718.69 1966.57,-733.67 1984.97,-745.27"/>
<polygon fill="#757575" stroke="#757575" points="1983.33,-748.38 1993.64,-750.82 1987.1,-742.48 1983.33,-748.38"/>
</g>
<!-- src/weapons/gatling.js&#45;&gt;src/music.js -->
<g id="edge82" class="edge">
<title>src/weapons/gatling.js&#45;&gt;src/music.js</title>
<path fill="none" stroke="#757575" d="M1612.75,-606.5C1656.08,-606.5 1709.86,-606.5 1749.09,-606.5"/>
<polygon fill="#757575" stroke="#757575" points="1749.24,-610 1759.24,-606.5 1749.24,-603 1749.24,-610"/>
</g>
<!-- src/ammo.js&#45;&gt;src/weapons/gatling.js -->
<g id="edge7" class="edge">
<title>src/ammo.js&#45;&gt;src/weapons/gatling.js</title>
<path fill="none" stroke="#757575" d="M1299.82,-460.12C1344.49,-487.68 1457.02,-557.14 1509.39,-589.46"/>
<polygon fill="#757575" stroke="#757575" points="1507.8,-592.59 1518.15,-594.86 1511.48,-586.63 1507.8,-592.59"/>
</g>
<!-- src/weapons/rocket.js -->
<g id="node10" class="node">
<title>src/weapons/rocket.js</title>
<path fill="none" stroke="#c6c5fe" d="M1603.33,-424C1603.33,-424 1472.67,-424 1472.67,-424 1468.83,-424 1465,-420.17 1465,-416.33 1465,-416.33 1465,-408.67 1465,-408.67 1465,-404.83 1468.83,-401 1472.67,-401 1472.67,-401 1603.33,-401 1603.33,-401 1607.17,-401 1611,-404.83 1611,-408.67 1611,-408.67 1611,-416.33 1611,-416.33 1611,-420.17 1607.17,-424 1603.33,-424"/>
<text text-anchor="middle" x="1538" y="-408.8" font-family="Arial" font-size="14.00" fill="#c6c5fe">src/weapons/rocket.js</text>
</g>
<!-- src/ammo.js&#45;&gt;src/weapons/rocket.js -->
<g id="edge8" class="edge">
<title>src/ammo.js&#45;&gt;src/weapons/rocket.js</title>
<path fill="none" stroke="#757575" d="M1325.59,-442.23C1361.13,-437.23 1411.87,-430.09 1454.74,-424.07"/>
<polygon fill="#757575" stroke="#757575" points="1455.47,-427.5 1464.88,-422.64 1454.49,-420.57 1455.47,-427.5"/>
</g>
<!-- src/weapons/rocket.js&#45;&gt;src/rendering/Helpers.js -->
<g id="edge85" class="edge">
<title>src/weapons/rocket.js&#45;&gt;src/rendering/Helpers.js</title>
<path fill="none" stroke="#757575" d="M1611,-412.5C1642.63,-412.5 1680.08,-412.5 1713.43,-412.5"/>
<polygon fill="#757575" stroke="#757575" points="1713.64,-416 1723.64,-412.5 1713.64,-409 1713.64,-416"/>
</g>
<!-- src/collisions/collisionHandlers.js -->
<g id="node12" class="node">
<title>src/collisions/collisionHandlers.js</title>
<path fill="none" stroke="#c6c5fe" d="M1378.33,-578C1378.33,-578 1181.67,-578 1181.67,-578 1177.83,-578 1174,-574.17 1174,-570.33 1174,-570.33 1174,-562.67 1174,-562.67 1174,-558.83 1177.83,-555 1181.67,-555 1181.67,-555 1378.33,-555 1378.33,-555 1382.17,-555 1386,-558.83 1386,-562.67 1386,-562.67 1386,-570.33 1386,-570.33 1386,-574.17 1382.17,-578 1378.33,-578"/>
<text text-anchor="middle" x="1280" y="-562.8" font-family="Arial" font-size="14.00" fill="#c6c5fe">src/collisions/collisionHandlers.js</text>
</g>
<!-- src/collisions/collisionHandlers.js&#45;&gt;src/gameState.js -->
<g id="edge9" class="edge">
<title>src/collisions/collisionHandlers.js&#45;&gt;src/gameState.js</title>
<path fill="none" stroke="#757575" d="M1386.29,-556.81C1544.04,-544.4 1832.26,-530.53 1917,-585.5 1972.53,-621.52 1997.43,-701.74 2006.57,-740.58"/>
<polygon fill="#757575" stroke="#757575" points="2003.25,-741.79 2008.83,-750.79 2010.09,-740.27 2003.25,-741.79"/>
</g>
<!-- src/collisions/collisionHandlers.js&#45;&gt;src/weapons/gatling.js -->
<g id="edge15" class="edge">
<title>src/collisions/collisionHandlers.js&#45;&gt;src/weapons/gatling.js</title>
<path fill="none" stroke="#757575" d="M1354.7,-578.02C1385.49,-582.83 1421.43,-588.44 1453.21,-593.41"/>
<polygon fill="#757575" stroke="#757575" points="1452.95,-596.91 1463.37,-595 1454.03,-589.99 1452.95,-596.91"/>
</g>
<!-- src/collisions/collisionHandlers.js&#45;&gt;src/weapons/rocket.js -->
<g id="edge16" class="edge">
<title>src/collisions/collisionHandlers.js&#45;&gt;src/weapons/rocket.js</title>
<path fill="none" stroke="#757575" d="M1301.03,-554.92C1322.37,-542.44 1357.02,-521.76 1386,-502.5 1402.44,-491.58 1405.35,-487.09 1422,-476.5 1449.45,-459.03 1481.94,-441.2 1505.37,-428.81"/>
<polygon fill="#757575" stroke="#757575" points="1507.28,-431.76 1514.5,-424.01 1504.02,-425.56 1507.28,-431.76"/>
</g>
<!-- src/collisions/collisionHandlers.js&#45;&gt;src/music.js -->
<g id="edge10" class="edge">
<title>src/collisions/collisionHandlers.js&#45;&gt;src/music.js</title>
<path fill="none" stroke="#757575" d="M1386.09,-569.34C1460.92,-571.97 1563.8,-576.84 1654,-585.5 1685.74,-588.55 1721.1,-593.48 1749.34,-597.8"/>
<polygon fill="#757575" stroke="#757575" points="1748.99,-601.29 1759.41,-599.36 1750.06,-594.37 1748.99,-601.29"/>
</g>
<!-- src/rendering/Explosion.js -->
<g id="node14" class="node">
<title>src/rendering/Explosion.js</title>
<path fill="none" stroke="#cfffac" d="M1881.33,-774C1881.33,-774 1725.67,-774 1725.67,-774 1721.83,-774 1718,-770.17 1718,-766.33 1718,-766.33 1718,-758.67 1718,-758.67 1718,-754.83 1721.83,-751 1725.67,-751 1725.67,-751 1881.33,-751 1881.33,-751 1885.17,-751 1889,-754.83 1889,-758.67 1889,-758.67 1889,-766.33 1889,-766.33 1889,-770.17 1885.17,-774 1881.33,-774"/>
<text text-anchor="middle" x="1803.5" y="-758.8" font-family="Arial" font-size="14.00" fill="#cfffac">src/rendering/Explosion.js</text>
</g>
<!-- src/collisions/collisionHandlers.js&#45;&gt;src/rendering/Explosion.js -->
<g id="edge11" class="edge">
<title>src/collisions/collisionHandlers.js&#45;&gt;src/rendering/Explosion.js</title>
<path fill="none" stroke="#757575" d="M1306.8,-578.02C1334.93,-590.45 1381.37,-610.61 1422,-626.5 1542.74,-673.72 1687.45,-723.64 1758.6,-747.75"/>
<polygon fill="#757575" stroke="#757575" points="1757.55,-751.09 1768.14,-750.98 1759.79,-744.46 1757.55,-751.09"/>
</g>
<!-- src/collisions/collisionHandlers.js&#45;&gt;src/rendering/Helpers.js -->
<g id="edge12" class="edge">
<title>src/collisions/collisionHandlers.js&#45;&gt;src/rendering/Helpers.js</title>
<path fill="none" stroke="#757575" d="M1309.9,-554.96C1338.21,-543.86 1382.71,-526.98 1422,-514.5 1534.75,-478.68 1668.86,-444.69 1743.98,-426.42"/>
<polygon fill="#757575" stroke="#757575" points="1744.84,-429.81 1753.74,-424.06 1743.19,-423.01 1744.84,-429.81"/>
</g>
<!-- src/collisions/collisionHandlers.js&#45;&gt;src/scores/scores.js -->
<g id="edge13" class="edge">
<title>src/collisions/collisionHandlers.js&#45;&gt;src/scores/scores.js</title>
<path fill="none" stroke="#757575" d="M1293.4,-578.17C1315.81,-600.05 1362.87,-649.72 1386,-701.5 1422.65,-783.57 1392.2,-815.7 1422,-900.5 1448.37,-975.52 1498.9,-1055.9 1523.23,-1092.4"/>
<polygon fill="#757575" stroke="#757575" points="1520.34,-1094.37 1528.83,-1100.71 1526.14,-1090.46 1520.34,-1094.37"/>
</g>
<!-- src/weapons/flare.js -->
<g id="node17" class="node">
<title>src/weapons/flare.js</title>
<path fill="none" stroke="#c6c5fe" d="M1598.33,-114C1598.33,-114 1477.67,-114 1477.67,-114 1473.83,-114 1470,-110.17 1470,-106.33 1470,-106.33 1470,-98.67 1470,-98.67 1470,-94.83 1473.83,-91 1477.67,-91 1477.67,-91 1598.33,-91 1598.33,-91 1602.17,-91 1606,-94.83 1606,-98.67 1606,-98.67 1606,-106.33 1606,-106.33 1606,-110.17 1602.17,-114 1598.33,-114"/>
<text text-anchor="middle" x="1538" y="-98.8" font-family="Arial" font-size="14.00" fill="#c6c5fe">src/weapons/flare.js</text>
</g>
<!-- src/collisions/collisionHandlers.js&#45;&gt;src/weapons/flare.js -->
<g id="edge14" class="edge">
<title>src/collisions/collisionHandlers.js&#45;&gt;src/weapons/flare.js</title>
<path fill="none" stroke="#757575" d="M1297.27,-554.91C1319.84,-538.12 1360.73,-504.99 1386,-468.5 1396.65,-453.12 1498.44,-199.08 1528.61,-123.53"/>
<polygon fill="#757575" stroke="#757575" points="1531.92,-124.68 1532.38,-114.1 1525.42,-122.09 1531.92,-124.68"/>
</g>
<!-- src/scores/currentGameScore.js -->
<g id="node32" class="node">
<title>src/scores/currentGameScore.js</title>
<path fill="none" stroke="#c6c5fe" d="M1901.33,-1088C1901.33,-1088 1705.67,-1088 1705.67,-1088 1701.83,-1088 1698,-1084.17 1698,-1080.33 1698,-1080.33 1698,-1072.67 1698,-1072.67 1698,-1068.83 1701.83,-1065 1705.67,-1065 1705.67,-1065 1901.33,-1065 1901.33,-1065 1905.17,-1065 1909,-1068.83 1909,-1072.67 1909,-1072.67 1909,-1080.33 1909,-1080.33 1909,-1084.17 1905.17,-1088 1901.33,-1088"/>
<text text-anchor="middle" x="1803.5" y="-1072.8" font-family="Arial" font-size="14.00" fill="#c6c5fe">src/scores/currentGameScore.js</text>
</g>
<!-- src/scores/scores.js&#45;&gt;src/scores/currentGameScore.js -->
<g id="edge66" class="edge">
<title>src/scores/scores.js&#45;&gt;src/scores/currentGameScore.js</title>
<path fill="none" stroke="#757575" d="M1605.83,-1103.37C1636.92,-1099.12 1674.43,-1094 1708.32,-1089.37"/>
<polygon fill="#757575" stroke="#757575" points="1708.81,-1092.83 1718.24,-1088.01 1707.86,-1085.9 1708.81,-1092.83"/>
</g>
<!-- src/weapons/flare.js&#45;&gt;src/gameState.js -->
<g id="edge80" class="edge">
<title>src/weapons/flare.js&#45;&gt;src/gameState.js</title>
<path fill="none" stroke="#757575" d="M1578.88,-90.94C1655.4,-71.46 1823.53,-42.1 1917,-128.5 2008.95,-213.5 2011.88,-639.11 2011.24,-740.7"/>
<polygon fill="#757575" stroke="#757575" points="2007.74,-740.94 2011.16,-750.96 2014.74,-740.99 2007.74,-740.94"/>
</g>
<!-- src/collisions/collisions.js -->
<g id="node18" class="node">
<title>src/collisions/collisions.js</title>
<path fill="none" stroke="#c6c5fe" d="M1092.33,-578C1092.33,-578 942.67,-578 942.67,-578 938.83,-578 935,-574.17 935,-570.33 935,-570.33 935,-562.67 935,-562.67 935,-558.83 938.83,-555 942.67,-555 942.67,-555 1092.33,-555 1092.33,-555 1096.17,-555 1100,-558.83 1100,-562.67 1100,-562.67 1100,-570.33 1100,-570.33 1100,-574.17 1096.17,-578 1092.33,-578"/>
<text text-anchor="middle" x="1017.5" y="-562.8" font-family="Arial" font-size="14.00" fill="#c6c5fe">src/collisions/collisions.js</text>
</g>
<!-- src/collisions/collisions.js&#45;&gt;src/gameState.js -->
<g id="edge18" class="edge">
<title>src/collisions/collisions.js&#45;&gt;src/gameState.js</title>
<path fill="none" stroke="#757575" d="M1086.47,-554.96C1271.84,-524.99 1781.4,-452.98 1917,-542.5 1985.69,-587.85 2004.36,-694.81 2009.29,-740.83"/>
<polygon fill="#757575" stroke="#757575" points="2005.82,-741.28 2010.25,-750.9 2012.79,-740.61 2005.82,-741.28"/>
</g>
<!-- src/collisions/collisions.js&#45;&gt;src/weapons/gatling.js -->
<g id="edge19" class="edge">
<title>src/collisions/collisions.js&#45;&gt;src/weapons/gatling.js</title>
<path fill="none" stroke="#757575" d="M1099.49,-578.05C1123.44,-581.16 1149.74,-584.27 1174,-586.5 1269.45,-595.25 1379.39,-600.66 1453.04,-603.61"/>
<polygon fill="#757575" stroke="#757575" points="1453.06,-607.11 1463.19,-604.01 1453.34,-600.12 1453.06,-607.11"/>
</g>
<!-- src/collisions/collisions.js&#45;&gt;src/weapons/rocket.js -->
<g id="edge20" class="edge">
<title>src/collisions/collisions.js&#45;&gt;src/weapons/rocket.js</title>
<path fill="none" stroke="#757575" d="M1092.15,-554.97C1107.7,-551.14 1123.71,-546.1 1138,-539.5 1156.16,-531.11 1155.77,-520.73 1174,-512.5 1261.71,-472.9 1299.34,-510.33 1386,-468.5 1404.76,-459.45 1403.32,-447.72 1422,-438.5 1432.29,-433.42 1443.59,-429.32 1454.97,-426.01"/>
<polygon fill="#757575" stroke="#757575" points="1456.22,-429.29 1464.96,-423.3 1454.39,-422.54 1456.22,-429.29"/>
</g>
<!-- src/collisions/collisions.js&#45;&gt;src/collisions/collisionHandlers.js -->
<g id="edge17" class="edge">
<title>src/collisions/collisions.js&#45;&gt;src/collisions/collisionHandlers.js</title>
<path fill="none" stroke="#757575" d="M1100.21,-566.5C1120.3,-566.5 1142.2,-566.5 1163.55,-566.5"/>
<polygon fill="#757575" stroke="#757575" points="1163.65,-570 1173.65,-566.5 1163.65,-563 1163.65,-570"/>
</g>
<!-- src/enemy/enemy.js&#45;&gt;src/gameState.js -->
<g id="edge21" class="edge">
<title>src/enemy/enemy.js&#45;&gt;src/gameState.js</title>
<path fill="none" stroke="#757575" d="M1606.55,-800.57C1682.39,-799.89 1809,-796.47 1917,-782.5 1929.02,-780.94 1941.79,-778.66 1953.92,-776.19"/>
<polygon fill="#757575" stroke="#757575" points="1954.86,-779.57 1963.92,-774.08 1953.41,-772.72 1954.86,-779.57"/>
</g>
<!-- src/enemy/enemy.js&#45;&gt;src/music.js -->
<g id="edge22" class="edge">
<title>src/enemy/enemy.js&#45;&gt;src/music.js</title>
<path fill="none" stroke="#757575" d="M1606.75,-792.5C1622.98,-788.65 1639.73,-782.95 1654,-774.5 1670.69,-764.62 1751.37,-668.33 1786.31,-626.14"/>
<polygon fill="#757575" stroke="#757575" points="1789.17,-628.17 1792.85,-618.23 1783.78,-623.71 1789.17,-628.17"/>
</g>
<!-- src/enemy/enemy.js&#45;&gt;src/rendering/Explosion.js -->
<g id="edge23" class="edge">
<title>src/enemy/enemy.js&#45;&gt;src/rendering/Explosion.js</title>
<path fill="none" stroke="#757575" d="M1606.52,-790.76C1638.71,-786.12 1677.69,-780.5 1712.37,-775.5"/>
<polygon fill="#757575" stroke="#757575" points="1713.11,-778.93 1722.51,-774.03 1712.11,-772 1713.11,-778.93"/>
</g>
<!-- src/enemy/enemy.js&#45;&gt;src/rendering/Helpers.js -->
<g id="edge24" class="edge">
<title>src/enemy/enemy.js&#45;&gt;src/rendering/Helpers.js</title>
<path fill="none" stroke="#757575" d="M1546.89,-788.89C1584.01,-734.22 1741.54,-502.27 1788.95,-432.46"/>
<polygon fill="#757575" stroke="#757575" points="1791.92,-434.3 1794.64,-424.07 1786.13,-430.37 1791.92,-434.3"/>
</g>
<!-- src/enemy/enemyFactory.js -->
<g id="node20" class="node">
<title>src/enemy/enemyFactory.js</title>
<path fill="none" stroke="#c6c5fe" d="M1363.33,-1125C1363.33,-1125 1196.67,-1125 1196.67,-1125 1192.83,-1125 1189,-1121.17 1189,-1117.33 1189,-1117.33 1189,-1109.67 1189,-1109.67 1189,-1105.83 1192.83,-1102 1196.67,-1102 1196.67,-1102 1363.33,-1102 1363.33,-1102 1367.17,-1102 1371,-1105.83 1371,-1109.67 1371,-1109.67 1371,-1117.33 1371,-1117.33 1371,-1121.17 1367.17,-1125 1363.33,-1125"/>
<text text-anchor="middle" x="1280" y="-1109.8" font-family="Arial" font-size="14.00" fill="#c6c5fe">src/enemy/enemyFactory.js</text>
</g>
<!-- src/enemy/enemyFactory.js&#45;&gt;src/weapons/enemyRocketAtack.js -->
<g id="edge28" class="edge">
<title>src/enemy/enemyFactory.js&#45;&gt;src/weapons/enemyRocketAtack.js</title>
<path fill="none" stroke="#757575" d="M1354.16,-1101.96C1375.98,-1098.55 1399.95,-1094.84 1422,-1091.5 1521.35,-1076.44 1635.39,-1059.73 1712.51,-1048.52"/>
<polygon fill="#757575" stroke="#757575" points="1713.27,-1051.95 1722.67,-1047.04 1712.27,-1045.02 1713.27,-1051.95"/>
</g>
<!-- src/enemy/enemyFactory.js&#45;&gt;src/scores/scores.js -->
<g id="edge27" class="edge">
<title>src/enemy/enemyFactory.js&#45;&gt;src/scores/scores.js</title>
<path fill="none" stroke="#757575" d="M1371.26,-1113.15C1400.36,-1113.03 1432.32,-1112.91 1460.35,-1112.8"/>
<polygon fill="#757575" stroke="#757575" points="1460.5,-1116.3 1470.48,-1112.76 1460.47,-1109.3 1460.5,-1116.3"/>
</g>
<!-- src/enemy/enemyFactory.js&#45;&gt;src/enemy/enemy.js -->
<g id="edge25" class="edge">
<title>src/enemy/enemyFactory.js&#45;&gt;src/enemy/enemy.js</title>
<path fill="none" stroke="#757575" d="M1293.25,-1101.78C1315.01,-1080.31 1360.5,-1032.37 1386,-983.5 1412.55,-932.62 1385.49,-903.77 1422,-859.5 1438.8,-839.13 1464.46,-825.02 1487.28,-815.72"/>
<polygon fill="#757575" stroke="#757575" points="1488.78,-818.89 1496.85,-812.02 1486.26,-812.36 1488.78,-818.89"/>
</g>
<!-- src/enemy/enemyManoeuvre.js -->
<g id="node21" class="node">
<title>src/enemy/enemyManoeuvre.js</title>
<path fill="none" stroke="#c6c5fe" d="M1633.33,-1206C1633.33,-1206 1442.67,-1206 1442.67,-1206 1438.83,-1206 1435,-1202.17 1435,-1198.33 1435,-1198.33 1435,-1190.67 1435,-1190.67 1435,-1186.83 1438.83,-1183 1442.67,-1183 1442.67,-1183 1633.33,-1183 1633.33,-1183 1637.17,-1183 1641,-1186.83 1641,-1190.67 1641,-1190.67 1641,-1198.33 1641,-1198.33 1641,-1202.17 1637.17,-1206 1633.33,-1206"/>
<text text-anchor="middle" x="1538" y="-1190.8" font-family="Arial" font-size="14.00" fill="#c6c5fe">src/enemy/enemyManoeuvre.js</text>
</g>
<!-- src/enemy/enemyFactory.js&#45;&gt;src/enemy/enemyManoeuvre.js -->
<g id="edge26" class="edge">
<title>src/enemy/enemyFactory.js&#45;&gt;src/enemy/enemyManoeuvre.js</title>
<path fill="none" stroke="#757575" d="M1343.35,-1125.02C1357.85,-1129.07 1372.87,-1134.44 1386,-1141.5 1404.85,-1151.64 1402.76,-1164.12 1422,-1173.5 1426.72,-1175.8 1431.67,-1177.85 1436.74,-1179.68"/>
<polygon fill="#757575" stroke="#757575" points="1436.04,-1183.14 1446.63,-1182.93 1438.22,-1176.49 1436.04,-1183.14"/>
</g>
<!-- src/weapons/groundEnemyAttack.js -->
<g id="node22" class="node">
<title>src/weapons/groundEnemyAttack.js</title>
<path fill="none" stroke="#c6c5fe" d="M1646.33,-1165C1646.33,-1165 1429.67,-1165 1429.67,-1165 1425.83,-1165 1422,-1161.17 1422,-1157.33 1422,-1157.33 1422,-1149.67 1422,-1149.67 1422,-1145.83 1425.83,-1142 1429.67,-1142 1429.67,-1142 1646.33,-1142 1646.33,-1142 1650.17,-1142 1654,-1145.83 1654,-1149.67 1654,-1149.67 1654,-1157.33 1654,-1157.33 1654,-1161.17 1650.17,-1165 1646.33,-1165"/>
<text text-anchor="middle" x="1538" y="-1149.8" font-family="Arial" font-size="14.00" fill="#c6c5fe">src/weapons/groundEnemyAttack.js</text>
</g>
<!-- src/enemy/enemyFactory.js&#45;&gt;src/weapons/groundEnemyAttack.js -->
<g id="edge29" class="edge">
<title>src/enemy/enemyFactory.js&#45;&gt;src/weapons/groundEnemyAttack.js</title>
<path fill="none" stroke="#757575" d="M1354.7,-1125.02C1385.49,-1129.83 1421.43,-1135.44 1453.21,-1140.41"/>
<polygon fill="#757575" stroke="#757575" points="1452.95,-1143.91 1463.37,-1142 1454.03,-1136.99 1452.95,-1143.91"/>
</g>
<!-- src/enemy/enemyManoeuvre.js&#45;&gt;src/background.js -->
<g id="edge33" class="edge">
<title>src/enemy/enemyManoeuvre.js&#45;&gt;src/background.js</title>
<path fill="none" stroke="#757575" d="M1614.86,-1206.02C1651.83,-1211.63 1696,-1218.33 1732.2,-1223.83"/>
<polygon fill="#757575" stroke="#757575" points="1731.77,-1227.3 1742.18,-1225.34 1732.82,-1220.38 1731.77,-1227.3"/>
</g>
<!-- src/weapons/groundEnemyAttack.js&#45;&gt;src/gameState.js -->
<g id="edge83" class="edge">
<title>src/weapons/groundEnemyAttack.js&#45;&gt;src/gameState.js</title>
<path fill="none" stroke="#757575" d="M1623.83,-1165.02C1708.43,-1171.5 1837.01,-1167.09 1917,-1096.5 1965.03,-1054.11 1998.14,-851.6 2007.96,-784.3"/>
<polygon fill="#757575" stroke="#757575" points="2011.48,-784.43 2009.43,-774.03 2004.55,-783.44 2011.48,-784.43"/>
</g>
<!-- src/weapons/groundEnemyAttack.js&#45;&gt;src/weapons/enemyRocketAtack.js -->
<g id="edge84" class="edge">
<title>src/weapons/groundEnemyAttack.js&#45;&gt;src/weapons/enemyRocketAtack.js</title>
<path fill="none" stroke="#757575" d="M1638.36,-1141.99C1643.91,-1139.35 1649.18,-1136.22 1654,-1132.5 1683.91,-1109.43 1660.03,-1078.5 1690,-1055.5 1691.59,-1054.28 1693.24,-1053.12 1694.92,-1052.02"/>
<polygon fill="#757575" stroke="#757575" points="1696.72,-1055.03 1703.69,-1047.05 1693.26,-1048.94 1696.72,-1055.03"/>
</g>
<!-- src/enemy/enemyManager.js&#45;&gt;src/gameState.js -->
<g id="edge31" class="edge">
<title>src/enemy/enemyManager.js&#45;&gt;src/gameState.js</title>
<path fill="none" stroke="#757575" d="M1038.15,-1160.02C1142.84,-1219.77 1640.73,-1482.99 1917,-1254.5 1990.99,-1193.31 2007.28,-871.61 2010.35,-784.35"/>
<polygon fill="#757575" stroke="#757575" points="2013.86,-784.38 2010.69,-774.27 2006.86,-784.15 2013.86,-784.38"/>
</g>
<!-- src/enemy/enemyManager.js&#45;&gt;src/weapons/gatling.js -->
<g id="edge32" class="edge">
<title>src/enemy/enemyManager.js&#45;&gt;src/weapons/gatling.js</title>
<path fill="none" stroke="#757575" d="M1029.38,-1136.99C1053.57,-1110.64 1111.74,-1042.93 1138,-974.5 1159.93,-917.37 1132.25,-746.24 1174,-701.5 1239.6,-631.21 1296.16,-692.74 1386,-658.5 1403.31,-651.9 1404.91,-644.64 1422,-637.5 1438.03,-630.8 1455.92,-625.16 1472.73,-620.61"/>
<polygon fill="#757575" stroke="#757575" points="1473.7,-623.97 1482.48,-618.05 1471.92,-617.2 1473.7,-623.97"/>
</g>
<!-- src/enemy/enemyManager.js&#45;&gt;src/enemy/enemyFactory.js -->
<g id="edge30" class="edge">
<title>src/enemy/enemyManager.js&#45;&gt;src/enemy/enemyFactory.js</title>
<path fill="none" stroke="#757575" d="M1104.16,-1136.99C1129.42,-1133.6 1157.24,-1129.86 1183.1,-1126.38"/>
<polygon fill="#757575" stroke="#757575" points="1183.85,-1129.82 1193.29,-1125.01 1182.91,-1122.88 1183.85,-1129.82"/>
</g>
<!-- src/keyboard.js&#45;&gt;src/gameState.js -->
<g id="edge54" class="edge">
<title>src/keyboard.js&#45;&gt;src/gameState.js</title>
<path fill="none" stroke="#757575" d="M498.83,-358.86C514.95,-344.4 544.73,-320.2 575,-308.5 709.56,-256.48 753.02,-276.63 897,-267.5 1350.08,-238.77 1574.31,-24.72 1917,-322.5 1981.48,-378.53 2004.39,-659.98 2009.7,-740.78"/>
<polygon fill="#757575" stroke="#757575" points="2006.21,-741.05 2010.34,-750.81 2013.2,-740.6 2006.21,-741.05"/>
</g>
<!-- src/keyboard.js&#45;&gt;src/weapons/rocket.js -->
<g id="edge57" class="edge">
<title>src/keyboard.js&#45;&gt;src/weapons/rocket.js</title>
<path fill="none" stroke="#757575" d="M539.24,-370.5C604.56,-370.5 719.23,-370.5 817.5,-370.5 817.5,-370.5 817.5,-370.5 1018.5,-370.5 1172.98,-370.5 1352.51,-389.25 1454.65,-401.69"/>
<polygon fill="#757575" stroke="#757575" points="1454.24,-405.17 1464.59,-402.92 1455.09,-398.22 1454.24,-405.17"/>
</g>
<!-- src/keyboard.js&#45;&gt;src/music.js -->
<g id="edge55" class="edge">
<title>src/keyboard.js&#45;&gt;src/music.js</title>
<path fill="none" stroke="#757575" d="M524.7,-358.97C678.84,-314.8 1265.32,-169.7 1654,-391.5 1674.26,-403.06 1757.84,-534.85 1789.9,-586.2"/>
<polygon fill="#757575" stroke="#757575" points="1787,-588.16 1795.26,-594.8 1792.94,-584.46 1787,-588.16"/>
</g>
<!-- src/gameMenuActions.js -->
<g id="node27" class="node">
<title>src/gameMenuActions.js</title>
<path fill="none" stroke="#c6c5fe" d="M732.33,-422C732.33,-422 582.67,-422 582.67,-422 578.83,-422 575,-418.17 575,-414.33 575,-414.33 575,-406.67 575,-406.67 575,-402.83 578.83,-399 582.67,-399 582.67,-399 732.33,-399 732.33,-399 736.17,-399 740,-402.83 740,-406.67 740,-406.67 740,-414.33 740,-414.33 740,-418.17 736.17,-422 732.33,-422"/>
<text text-anchor="middle" x="657.5" y="-406.8" font-family="Arial" font-size="14.00" fill="#c6c5fe">src/gameMenuActions.js</text>
</g>
<!-- src/keyboard.js&#45;&gt;src/gameMenuActions.js -->
<g id="edge53" class="edge">
<title>src/keyboard.js&#45;&gt;src/gameMenuActions.js</title>
<path fill="none" stroke="#757575" d="M535.67,-382.07C554.97,-386.61 577.27,-391.86 597.43,-396.6"/>
<polygon fill="#757575" stroke="#757575" points="596.9,-400.07 607.44,-398.96 598.51,-393.26 596.9,-400.07"/>
</g>
<!-- src/touch.js -->
<g id="node29" class="node">
<title>src/touch.js</title>
<path fill="none" stroke="#c6c5fe" d="M853.33,-947C853.33,-947 783.67,-947 783.67,-947 779.83,-947 776,-943.17 776,-939.33 776,-939.33 776,-931.67 776,-931.67 776,-927.83 779.83,-924 783.67,-924 783.67,-924 853.33,-924 853.33,-924 857.17,-924 861,-927.83 861,-931.67 861,-931.67 861,-939.33 861,-939.33 861,-943.17 857.17,-947 853.33,-947"/>
<text text-anchor="middle" x="818.5" y="-931.8" font-family="Arial" font-size="14.00" fill="#c6c5fe">src/touch.js</text>
</g>
<!-- src/keyboard.js&#45;&gt;src/touch.js -->
<g id="edge56" class="edge">
<title>src/keyboard.js&#45;&gt;src/touch.js</title>
<path fill="none" stroke="#757575" d="M493.26,-382.04C534.48,-452.4 751.94,-823.6 805.55,-915.1"/>
<polygon fill="#757575" stroke="#757575" points="802.54,-916.88 810.61,-923.74 808.58,-913.34 802.54,-916.88"/>
</g>
<!-- src/player/Player.js&#45;&gt;src/gameState.js -->
<g id="edge59" class="edge">
<title>src/player/Player.js&#45;&gt;src/gameState.js</title>
<path fill="none" stroke="#757575" d="M338.23,-225.7C351.78,-201.24 386.43,-144.89 432,-116.5 581.5,-23.35 641.36,-24.5 817.5,-24.5 817.5,-24.5 817.5,-24.5 1539,-24.5 1708.03,-24.5 1796.07,51.61 1917,-66.5 1966.65,-114.99 2002.34,-627.76 2009.63,-740.61"/>
<polygon fill="#757575" stroke="#757575" points="2006.15,-741.03 2010.28,-750.79 2013.13,-740.59 2006.15,-741.03"/>
</g>
<!-- src/player/Player.js&#45;&gt;src/weapons/gatling.js -->
<g id="edge63" class="edge">
<title>src/player/Player.js&#45;&gt;src/weapons/gatling.js</title>
<path fill="none" stroke="#757575" d="M396,-243.32C597.3,-262.52 1214.37,-328.27 1386,-427.5 1453.53,-466.54 1504.65,-547.6 1526.03,-585.77"/>
<polygon fill="#757575" stroke="#757575" points="1523.16,-587.83 1531.04,-594.91 1529.3,-584.46 1523.16,-587.83"/>
</g>
<!-- src/player/Player.js&#45;&gt;src/weapons/rocket.js -->
<g id="edge64" class="edge">
<title>src/player/Player.js&#45;&gt;src/weapons/rocket.js</title>
<path fill="none" stroke="#757575" d="M396.08,-231.26C564.14,-217.22 1029.2,-193.5 1386,-318.5 1436.18,-336.08 1487.17,-372.54 1515.18,-394.52"/>
<polygon fill="#757575" stroke="#757575" points="1513.11,-397.35 1523.11,-400.84 1517.47,-391.87 1513.11,-397.35"/>
</g>
<!-- src/player/Player.js&#45;&gt;src/music.js -->
<g id="edge61" class="edge">
<title>src/player/Player.js&#45;&gt;src/music.js</title>
<path fill="none" stroke="#757575" d="M387.06,-225.99C401.61,-223.39 417.34,-220.96 432,-219.5 495.25,-213.18 511.43,-217.17 575,-216.5 815.51,-213.98 1474.18,-141.76 1654,-301.5 1699.14,-341.6 1665.32,-377.39 1690,-432.5 1716.9,-492.56 1762.8,-555.64 1786.81,-586.75"/>
<polygon fill="#757575" stroke="#757575" points="1784.34,-589.26 1793.25,-594.99 1789.85,-584.96 1784.34,-589.26"/>
</g>
<!-- src/player/Player.js&#45;&gt;src/weapons/flare.js -->
<g id="edge62" class="edge">
<title>src/player/Player.js&#45;&gt;src/weapons/flare.js</title>
<path fill="none" stroke="#757575" d="M345.28,-225.74C363.58,-210.11 398.15,-182.58 432,-166.5 525.5,-122.09 552.99,-104.5 656.5,-104.5 656.5,-104.5 656.5,-104.5 1018.5,-104.5 1175.15,-104.5 1358.43,-103.57 1459.74,-102.98"/>
<polygon fill="#757575" stroke="#757575" points="1459.9,-106.48 1469.88,-102.92 1459.86,-99.48 1459.9,-106.48"/>
</g>
<!-- src/player/Player.js&#45;&gt;src/keyboard.js -->
<g id="edge60" class="edge">
<title>src/player/Player.js&#45;&gt;src/keyboard.js</title>
<path fill="none" stroke="#757575" d="M345.27,-249.07C371.74,-272.16 431.33,-324.13 463.29,-352"/>
<polygon fill="#757575" stroke="#757575" points="461.32,-354.93 471.16,-358.86 465.92,-349.65 461.32,-354.93"/>
</g>
<!-- src/gameOver.js -->
<g id="node28" class="node">
<title>src/gameOver.js</title>
<path fill="none" stroke="#c6c5fe" d="M1330.33,-734C1330.33,-734 1229.67,-734 1229.67,-734 1225.83,-734 1222,-730.17 1222,-726.33 1222,-726.33 1222,-718.67 1222,-718.67 1222,-714.83 1225.83,-711 1229.67,-711 1229.67,-711 1330.33,-711 1330.33,-711 1334.17,-711 1338,-714.83 1338,-718.67 1338,-718.67 1338,-726.33 1338,-726.33 1338,-730.17 1334.17,-734 1330.33,-734"/>
<text text-anchor="middle" x="1280" y="-718.8" font-family="Arial" font-size="14.00" fill="#c6c5fe">src/gameOver.js</text>
</g>
<!-- src/player/Player.js&#45;&gt;src/gameOver.js -->
<g id="edge58" class="edge">
<title>src/player/Player.js&#45;&gt;src/gameOver.js</title>
<path fill="none" stroke="#757575" d="M335.68,-249.36C356.09,-312.52 461.57,-606.5 656.5,-606.5 656.5,-606.5 656.5,-606.5 819.5,-606.5 981.71,-606.5 1166.6,-675.3 1243.03,-706.93"/>
<polygon fill="#757575" stroke="#757575" points="1242.08,-710.32 1252.66,-710.95 1244.78,-703.87 1242.08,-710.32"/>
</g>
<!-- src/step.js&#45;&gt;src/gameState.js -->
<g id="edge72" class="edge">
<title>src/step.js&#45;&gt;src/gameState.js</title>
<path fill="none" stroke="#757575" d="M835.55,-772.09C850.64,-782.37 874.26,-796.89 897,-804.5 1014.73,-843.88 1050.11,-832.48 1174,-840.5 1338.95,-851.17 1756.74,-845.98 1917,-805.5 1939.97,-799.7 1964.24,-788.45 1982.36,-778.91"/>
<polygon fill="#757575" stroke="#757575" points="1984.11,-781.95 1991.24,-774.12 1980.78,-775.79 1984.11,-781.95"/>
</g>
<!-- src/step.js&#45;&gt;src/weapons/gatling.js -->
<g id="edge76" class="edge">
<title>src/step.js&#45;&gt;src/weapons/gatling.js</title>
<path fill="none" stroke="#757575" d="M832.74,-748.8C847.4,-736.51 872.25,-717.6 897,-707.5 1085.42,-630.61 1327.16,-611.95 1452.75,-607.62"/>
<polygon fill="#757575" stroke="#757575" points="1453.18,-611.11 1463.07,-607.29 1452.96,-604.12 1453.18,-611.11"/>
</g>
<!-- src/step.js&#45;&gt;src/ammo.js -->
<g id="edge67" class="edge">
<title>src/step.js&#45;&gt;src/ammo.js</title>
<path fill="none" stroke="#757575" d="M819.88,-748.97C821.72,-712.73 832.62,-600.25 897,-545.5 980.01,-474.91 1041.6,-551.3 1138,-500.5 1158.02,-489.95 1153.81,-474.71 1174,-464.5 1189.33,-456.74 1207.41,-452.52 1224.2,-450.27"/>
<polygon fill="#757575" stroke="#757575" points="1224.91,-453.71 1234.46,-449.12 1224.13,-446.76 1224.91,-453.71"/>
</g>
<!-- src/step.js&#45;&gt;src/weapons/rocket.js -->
<g id="edge77" class="edge">
<title>src/step.js&#45;&gt;src/weapons/rocket.js</title>
<path fill="none" stroke="#757575" d="M819.23,-748.91C818.97,-708.35 823.75,-571.44 897,-500.5 974.82,-425.13 1299.65,-413.4 1454.37,-412.18"/>
<polygon fill="#757575" stroke="#757575" points="1454.78,-415.68 1464.76,-412.11 1454.74,-408.68 1454.78,-415.68"/>
</g>
<!-- src/step.js&#45;&gt;src/background.js -->
<g id="edge68" class="edge">
<title>src/step.js&#45;&gt;src/background.js</title>
<path fill="none" stroke="#757575" d="M822.8,-772.15C830.79,-798.08 853.77,-860.61 897,-890.5 986.5,-952.37 1061.01,-856.62 1138,-933.5 1201.91,-997.31 1114.68,-1065.4 1174,-1133.5 1250.16,-1220.93 1308.01,-1193.27 1422,-1214.5 1528.89,-1234.4 1655.38,-1236.99 1732.24,-1236.3"/>
<polygon fill="#757575" stroke="#757575" points="1732.32,-1239.8 1742.28,-1236.18 1732.25,-1232.8 1732.32,-1239.8"/>
</g>
<!-- src/step.js&#45;&gt;src/collisions/collisions.js -->
<g id="edge69" class="edge">
<title>src/step.js&#45;&gt;src/collisions/collisions.js</title>
<path fill="none" stroke="#757575" d="M823.99,-748.66C833.85,-723.96 859.57,-666.25 897,-630.5 919.39,-609.12 950.32,-592.81 975.1,-582.01"/>
<polygon fill="#757575" stroke="#757575" points="976.76,-585.11 984.61,-578 974.04,-578.66 976.76,-585.11"/>
</g>
<!-- src/step.js&#45;&gt;src/enemy/enemy.js -->
<g id="edge70" class="edge">
<title>src/step.js&#45;&gt;src/enemy/enemy.js</title>
<path fill="none" stroke="#757575" d="M846.4,-748.93C904.69,-725.81 1044.9,-680.92 1138,-739.5 1169.29,-759.19 1142.71,-794.81 1174,-814.5 1253.75,-864.68 1291.88,-818.85 1386,-814.5 1409.83,-813.4 1435.7,-811.32 1459.19,-809.1"/>
<polygon fill="#757575" stroke="#757575" points="1459.83,-812.55 1469.44,-808.11 1459.15,-805.59 1459.83,-812.55"/>
</g>
<!-- src/step.js&#45;&gt;src/gameOver.js -->
<g id="edge71" class="edge">
<title>src/step.js&#45;&gt;src/gameOver.js</title>
<path fill="none" stroke="#757575" d="M855.34,-772.1C915.85,-789.68 1041.16,-817.32 1138,-780.5 1158.01,-772.89 1155.06,-758.47 1174,-748.5 1185.72,-742.33 1198.95,-737.58 1211.97,-733.95"/>
<polygon fill="#757575" stroke="#757575" points="1213.06,-737.28 1221.86,-731.38 1211.3,-730.51 1213.06,-737.28"/>
</g>
<!-- src/mobile/mobileVelocityController.js -->
<g id="node30" class="node">
<title>src/mobile/mobileVelocityController.js</title>
<path fill="none" stroke="#cfffac" d="M1130.33,-772C1130.33,-772 904.67,-772 904.67,-772 900.83,-772 897,-768.17 897,-764.33 897,-764.33 897,-756.67 897,-756.67 897,-752.83 900.83,-749 904.67,-749 904.67,-749 1130.33,-749 1130.33,-749 1134.17,-749 1138,-752.83 1138,-756.67 1138,-756.67 1138,-764.33 1138,-764.33 1138,-768.17 1134.17,-772 1130.33,-772"/>
<text text-anchor="middle" x="1017.5" y="-756.8" font-family="Arial" font-size="14.00" fill="#cfffac">src/mobile/mobileVelocityController.js</text>
</g>
<!-- src/step.js&#45;&gt;src/mobile/mobileVelocityController.js -->
<g id="edge73" class="edge">
<title>src/step.js&#45;&gt;src/mobile/mobileVelocityController.js</title>
<path fill="none" stroke="#757575" d="M857.02,-760.5C865.9,-760.5 875.87,-760.5 886.39,-760.5"/>
<polygon fill="#757575" stroke="#757575" points="886.61,-764 896.61,-760.5 886.61,-757 886.61,-764"/>
</g>
<!-- src/mobileJoystick.js -->
<g id="node31" class="node">
<title>src/mobileJoystick.js</title>
<path fill="none" stroke="#cfffac" d="M1079.83,-966C1079.83,-966 955.17,-966 955.17,-966 951.33,-966 947.5,-962.17 947.5,-958.33 947.5,-958.33 947.5,-950.67 947.5,-950.67 947.5,-946.83 951.33,-943 955.17,-943 955.17,-943 1079.83,-943 1079.83,-943 1083.67,-943 1087.5,-946.83 1087.5,-950.67 1087.5,-950.67 1087.5,-958.33 1087.5,-958.33 1087.5,-962.17 1083.67,-966 1079.83,-966"/>
<text text-anchor="middle" x="1017.5" y="-950.8" font-family="Arial" font-size="14.00" fill="#cfffac">src/mobileJoystick.js</text>
</g>
<!-- src/step.js&#45;&gt;src/mobileJoystick.js -->
<g id="edge74" class="edge">
<title>src/step.js&#45;&gt;src/mobileJoystick.js</title>
<path fill="none" stroke="#757575" d="M821.23,-772.03C826.48,-802.72 845.15,-886.88 897,-928.5 908.57,-937.79 922.73,-943.94 937.2,-947.98"/>
<polygon fill="#757575" stroke="#757575" points="936.69,-951.46 947.23,-950.45 938.36,-944.66 936.69,-951.46"/>
</g>
<!-- src/step.js&#45;&gt;src/scores/currentGameScore.js -->
<g id="edge75" class="edge">
<title>src/step.js&#45;&gt;src/scores/currentGameScore.js</title>
<path fill="none" stroke="#757575" d="M825.84,-772.3C837.25,-792.27 863.2,-832.53 897,-852.5 991.03,-908.06 1053.01,-831.9 1138,-900.5 1169.29,-925.75 1142.09,-959.03 1174,-983.5 1252.37,-1043.6 1528.61,-1065.12 1687.57,-1072.63"/>
<polygon fill="#757575" stroke="#757575" points="1687.71,-1076.14 1697.87,-1073.11 1688.04,-1069.15 1687.71,-1076.14"/>
</g>
<!-- src/gameMenuActions.js&#45;&gt;src/gameState.js -->
<g id="edge48" class="edge">
<title>src/gameMenuActions.js&#45;&gt;src/gameState.js</title>
<path fill="none" stroke="#757575" d="M725.4,-398.97C958.41,-360.39 1730.22,-246.14 1917,-391.5 1973.37,-435.37 2001.36,-667.23 2008.88,-740.37"/>
<polygon fill="#757575" stroke="#757575" points="2005.43,-741.09 2009.91,-750.7 2012.4,-740.4 2005.43,-741.09"/>
</g>
<!-- src/gameMenuActions.js&#45;&gt;src/step.js -->
<g id="edge49" class="edge">
<title>src/gameMenuActions.js&#45;&gt;src/step.js</title>
<path fill="none" stroke="#757575" d="M663.79,-422.14C686.76,-472.7 778,-673.54 807.93,-739.44"/>
<polygon fill="#757575" stroke="#757575" points="804.87,-741.15 812.19,-748.81 811.24,-738.26 804.87,-741.15"/>
</g>
<!-- src/gameOver.js&#45;&gt;src/gameState.js -->
<g id="edge50" class="edge">
<title>src/gameOver.js&#45;&gt;src/gameState.js</title>
<path fill="none" stroke="#757575" d="M1338.29,-720.58C1450.08,-717.65 1704.91,-714.89 1917,-741.5 1930.22,-743.16 1944.32,-745.82 1957.47,-748.7"/>
<polygon fill="#757575" stroke="#757575" points="1956.78,-752.13 1967.31,-750.93 1958.33,-745.3 1956.78,-752.13"/>
</g>
<!-- src/gameOver.js&#45;&gt;src/levelCompleteScreen.js -->
<g id="edge51" class="edge">
<title>src/gameOver.js&#45;&gt;src/levelCompleteScreen.js</title>
<path fill="none" stroke="#757575" d="M1296.22,-734.04C1321.62,-753.07 1374.56,-791.79 1422,-820.5 1448.76,-836.69 1480.32,-852.97 1503.61,-864.48"/>
<polygon fill="#757575" stroke="#757575" points="1502.21,-867.69 1512.73,-868.95 1505.29,-861.4 1502.21,-867.69"/>
</g>
<!-- src/gameOver.js&#45;&gt;src/music.js -->
<g id="edge52" class="edge">
<title>src/gameOver.js&#45;&gt;src/music.js</title>
<path fill="none" stroke="#757575" d="M1332.91,-710.95C1432.42,-688.82 1649.02,-640.64 1749.43,-618.3"/>
<polygon fill="#757575" stroke="#757575" points="1750.35,-621.68 1759.36,-616.1 1748.83,-614.85 1750.35,-621.68"/>
</g>
<!-- src/touch.js&#45;&gt;src/mobileJoystick.js -->
<g id="edge78" class="edge">
<title>src/touch.js&#45;&gt;src/mobileJoystick.js</title>
<path fill="none" stroke="#757575" d="M861.28,-939.53C883.31,-941.65 911.1,-944.33 937.04,-946.84"/>
<polygon fill="#757575" stroke="#757575" points="936.97,-950.35 947.26,-947.82 937.64,-943.38 936.97,-950.35"/>
</g>
<!-- src/scores/currentGameScore.js&#45;&gt;src/gameState.js -->
<g id="edge65" class="edge">
<title>src/scores/currentGameScore.js&#45;&gt;src/gameState.js</title>
<path fill="none" stroke="#757575" d="M1903.33,-1064.95C1908.22,-1062.3 1912.83,-1059.18 1917,-1055.5 1998.94,-983.28 2009.95,-839.52 2011.07,-784.57"/>
<polygon fill="#757575" stroke="#757575" points="2014.57,-784.28 2011.18,-774.24 2007.57,-784.21 2014.57,-784.28"/>
</g>
</g>
</svg>
