<?xml version="1.0" encoding="UTF-8" standalone="no"?>
<!DOCTYPE svg PUBLIC "-//W3C//DTD SVG 1.1//EN"
 "http://www.w3.org/Graphics/SVG/1.1/DTD/svg11.dtd">
<!-- Generated by graphviz version 2.43.0 (0)
 -->
<!-- Title: G Pages: 1 -->
<svg width="2114pt" height="1455pt"
 viewBox="0.00 0.00 2114.20 1455.38" xmlns="http://www.w3.org/2000/svg" xmlns:xlink="http://www.w3.org/1999/xlink">
<g id="graph0" class="graph" transform="scale(1 1) rotate(0) translate(21.6 1433.78)">
<title>G</title>
<polygon fill="#111111" stroke="transparent" points="-21.6,21.6 -21.6,-1433.78 2092.6,-1433.78 2092.6,21.6 -21.6,21.6"/>
<!-- app.js -->
<g id="node1" class="node">
<title>app.js</title>
<path fill="none" stroke="#c6c5fe" d="M46.33,-771.18C46.33,-771.18 7.67,-771.18 7.67,-771.18 3.83,-771.18 0,-767.35 0,-763.52 0,-763.52 0,-755.85 0,-755.85 0,-752.02 3.83,-748.18 7.67,-748.18 7.67,-748.18 46.33,-748.18 46.33,-748.18 50.17,-748.18 54,-752.02 54,-755.85 54,-755.85 54,-763.52 54,-763.52 54,-767.35 50.17,-771.18 46.33,-771.18"/>
<text text-anchor="middle" x="27" y="-755.98" font-family="Arial" font-size="14.00" fill="#c6c5fe">app.js</text>
</g>
<!-- src/gameManager.js -->
<g id="node2" class="node">
<title>src/gameManager.js</title>
<path fill="none" stroke="#c6c5fe" d="M222.33,-751.18C222.33,-751.18 97.67,-751.18 97.67,-751.18 93.83,-751.18 90,-747.35 90,-743.52 90,-743.52 90,-735.85 90,-735.85 90,-732.02 93.83,-728.18 97.67,-728.18 97.67,-728.18 222.33,-728.18 222.33,-728.18 226.17,-728.18 230,-732.02 230,-735.85 230,-735.85 230,-743.52 230,-743.52 230,-747.35 226.17,-751.18 222.33,-751.18"/>
<text text-anchor="middle" x="160" y="-735.98" font-family="Arial" font-size="14.00" fill="#c6c5fe">src/gameManager.js</text>
</g>
<!-- app.js&#45;&gt;src/gameManager.js -->
<g id="edge1" class="edge">
<title>app.js&#45;&gt;src/gameManager.js</title>
<path fill="none" stroke="#757575" d="M54.19,-755.68C61.87,-754.51 70.69,-753.17 79.89,-751.76"/>
<polygon fill="#757575" stroke="#757575" points="80.62,-755.19 89.97,-750.22 79.56,-748.27 80.62,-755.19"/>
</g>
<!-- src/startScreen.js -->
<g id="node3" class="node">
<title>src/startScreen.js</title>
<path fill="none" stroke="#cfffac" d="M383.83,-1412.18C383.83,-1412.18 278.17,-1412.18 278.17,-1412.18 274.33,-1412.18 270.5,-1408.35 270.5,-1404.52 270.5,-1404.52 270.5,-1396.85 270.5,-1396.85 270.5,-1393.02 274.33,-1389.18 278.17,-1389.18 278.17,-1389.18 383.83,-1389.18 383.83,-1389.18 387.67,-1389.18 391.5,-1393.02 391.5,-1396.85 391.5,-1396.85 391.5,-1404.52 391.5,-1404.52 391.5,-1408.35 387.67,-1412.18 383.83,-1412.18"/>
<text text-anchor="middle" x="331" y="-1396.98" font-family="Arial" font-size="14.00" fill="#cfffac">src/startScreen.js</text>
</g>
<!-- app.js&#45;&gt;src/startScreen.js -->
<g id="edge2" class="edge">
<title>app.js&#45;&gt;src/startScreen.js</title>
<path fill="none" stroke="#757575" d="M29.15,-771.62C36.38,-840.13 81.36,-1186.95 266,-1374.68 269.64,-1378.38 273.88,-1381.57 278.4,-1384.32"/>
<polygon fill="#757575" stroke="#757575" points="276.92,-1387.5 287.39,-1389.09 280.19,-1381.31 276.92,-1387.5"/>
</g>
<!-- src/gameManager.js&#45;&gt;src/startScreen.js -->
<g id="edge46" class="edge">
<title>src/gameManager.js&#45;&gt;src/startScreen.js</title>
<path fill="none" stroke="#757575" d="M163.73,-751.23C173.78,-793.99 209.17,-947.55 230,-1075.68 240.74,-1141.74 225.37,-1321.5 266,-1374.68 268.62,-1378.11 271.77,-1381.09 275.25,-1383.68"/>
<polygon fill="#757575" stroke="#757575" points="273.52,-1386.73 283.86,-1389.04 277.22,-1380.79 273.52,-1386.73"/>
</g>
<!-- src/Boss.js -->
<g id="node4" class="node">
<title>src/Boss.js</title>
<path fill="none" stroke="#c6c5fe" d="M1050.83,-365.18C1050.83,-365.18 984.17,-365.18 984.17,-365.18 980.33,-365.18 976.5,-361.35 976.5,-357.52 976.5,-357.52 976.5,-349.85 976.5,-349.85 976.5,-346.02 980.33,-342.18 984.17,-342.18 984.17,-342.18 1050.83,-342.18 1050.83,-342.18 1054.67,-342.18 1058.5,-346.02 1058.5,-349.85 1058.5,-349.85 1058.5,-357.52 1058.5,-357.52 1058.5,-361.35 1054.67,-365.18 1050.83,-365.18"/>
<text text-anchor="middle" x="1017.5" y="-349.98" font-family="Arial" font-size="14.00" fill="#c6c5fe">src/Boss.js</text>
</g>
<!-- src/gameManager.js&#45;&gt;src/Boss.js -->
<g id="edge34" class="edge">
<title>src/gameManager.js&#45;&gt;src/Boss.js</title>
<path fill="none" stroke="#757575" d="M162.67,-727.96C170.98,-671.37 209.75,-427.1 266,-379.68 340.73,-316.68 386.76,-354.68 484.5,-354.68 484.5,-354.68 484.5,-354.68 658.5,-354.68 768.16,-354.68 896.72,-354.21 966.04,-353.91"/>
<polygon fill="#757575" stroke="#757575" points="966.25,-357.41 976.23,-353.87 966.22,-350.41 966.25,-357.41"/>
</g>
<!-- src/gameState.js -->
<g id="node5" class="node">
<title>src/gameState.js</title>
<path fill="none" stroke="#cfffac" d="M2063.33,-758.18C2063.33,-758.18 1960.67,-758.18 1960.67,-758.18 1956.83,-758.18 1953,-754.35 1953,-750.52 1953,-750.52 1953,-742.85 1953,-742.85 1953,-739.02 1956.83,-735.18 1960.67,-735.18 1960.67,-735.18 2063.33,-735.18 2063.33,-735.18 2067.17,-735.18 2071,-739.02 2071,-742.85 2071,-742.85 2071,-750.52 2071,-750.52 2071,-754.35 2067.17,-758.18 2063.33,-758.18"/>
<text text-anchor="middle" x="2012" y="-742.98" font-family="Arial" font-size="14.00" fill="#cfffac">src/gameState.js</text>
</g>
<!-- src/gameManager.js&#45;&gt;src/gameState.js -->
<g id="edge39" class="edge">
<title>src/gameManager.js&#45;&gt;src/gameState.js</title>
<path fill="none" stroke="#757575" d="M163.5,-751.39C179.12,-824.32 262.56,-1213.56 266,-1218.68 330.47,-1314.9 368.68,-1360.68 484.5,-1360.68 484.5,-1360.68 484.5,-1360.68 1539,-1360.68 1710.45,-1360.68 1797.45,-1406.58 1917,-1283.68 1990.25,-1208.37 2007.15,-859.83 2010.34,-768.59"/>
<polygon fill="#757575" stroke="#757575" points="2013.85,-768.45 2010.68,-758.34 2006.85,-768.22 2013.85,-768.45"/>
</g>
<!-- src/levelCompleteScreen.js -->
<g id="node6" class="node">
<title>src/levelCompleteScreen.js</title>
<path fill="none" stroke="#cfffac" d="M1362.83,-407.18C1362.83,-407.18 1197.17,-407.18 1197.17,-407.18 1193.33,-407.18 1189.5,-403.35 1189.5,-399.52 1189.5,-399.52 1189.5,-391.85 1189.5,-391.85 1189.5,-388.02 1193.33,-384.18 1197.17,-384.18 1197.17,-384.18 1362.83,-384.18 1362.83,-384.18 1366.67,-384.18 1370.5,-388.02 1370.5,-391.85 1370.5,-391.85 1370.5,-399.52 1370.5,-399.52 1370.5,-403.35 1366.67,-407.18 1362.83,-407.18"/>
<text text-anchor="middle" x="1280" y="-391.98" font-family="Arial" font-size="14.00" fill="#cfffac">src/levelCompleteScreen.js</text>
</g>
<!-- src/gameManager.js&#45;&gt;src/levelCompleteScreen.js -->
<g id="edge41" class="edge">
<title>src/gameManager.js&#45;&gt;src/levelCompleteScreen.js</title>
<path fill="none" stroke="#757575" d="M160.7,-727.87C160.17,-680.07 165.16,-499.65 266,-417.68 341.81,-356.06 386.8,-393.68 484.5,-393.68 484.5,-393.68 484.5,-393.68 819.5,-393.68 943.3,-393.68 1085.85,-394.42 1178.94,-395"/>
<polygon fill="#757575" stroke="#757575" points="1179.17,-398.5 1189.19,-395.06 1179.21,-391.5 1179.17,-398.5"/>
</g>
<!-- src/ammo.js -->
<g id="node9" class="node">
<title>src/ammo.js</title>
<path fill="none" stroke="#c6c5fe" d="M1317.83,-753.18C1317.83,-753.18 1242.17,-753.18 1242.17,-753.18 1238.33,-753.18 1234.5,-749.35 1234.5,-745.52 1234.5,-745.52 1234.5,-737.85 1234.5,-737.85 1234.5,-734.02 1238.33,-730.18 1242.17,-730.18 1242.17,-730.18 1317.83,-730.18 1317.83,-730.18 1321.67,-730.18 1325.5,-734.02 1325.5,-737.85 1325.5,-737.85 1325.5,-745.52 1325.5,-745.52 1325.5,-749.35 1321.67,-753.18 1317.83,-753.18"/>
<text text-anchor="middle" x="1280" y="-737.98" font-family="Arial" font-size="14.00" fill="#c6c5fe">src/ammo.js</text>
</g>
<!-- src/gameManager.js&#45;&gt;src/ammo.js -->
<g id="edge35" class="edge">
<title>src/gameManager.js&#45;&gt;src/ammo.js</title>
<path fill="none" stroke="#757575" d="M230.1,-739.68C295.6,-739.68 396.75,-739.68 484.5,-739.68 484.5,-739.68 484.5,-739.68 819.5,-739.68 965.73,-739.68 1138.13,-740.71 1224.25,-741.29"/>
<polygon fill="#757575" stroke="#757575" points="1224.3,-744.79 1234.32,-741.36 1224.34,-737.79 1224.3,-744.79"/>
</g>
<!-- src/background.js -->
<g id="node11" class="node">
<title>src/background.js</title>
<path fill="none" stroke="#cfffac" d="M1856.83,-1031.18C1856.83,-1031.18 1750.17,-1031.18 1750.17,-1031.18 1746.33,-1031.18 1742.5,-1027.35 1742.5,-1023.52 1742.5,-1023.52 1742.5,-1015.85 1742.5,-1015.85 1742.5,-1012.02 1746.33,-1008.18 1750.17,-1008.18 1750.17,-1008.18 1856.83,-1008.18 1856.83,-1008.18 1860.67,-1008.18 1864.5,-1012.02 1864.5,-1015.85 1864.5,-1015.85 1864.5,-1023.52 1864.5,-1023.52 1864.5,-1027.35 1860.67,-1031.18 1856.83,-1031.18"/>
<text text-anchor="middle" x="1803.5" y="-1015.98" font-family="Arial" font-size="14.00" fill="#cfffac">src/background.js</text>
</g>
<!-- src/gameManager.js&#45;&gt;src/background.js -->
<g id="edge36" class="edge">
<title>src/gameManager.js&#45;&gt;src/background.js</title>
<path fill="none" stroke="#757575" d="M162.12,-751.43C167.1,-799.28 190.47,-982.91 266,-1109.68 335.42,-1226.19 348.88,-1322.68 484.5,-1322.68 484.5,-1322.68 484.5,-1322.68 1018.5,-1322.68 1337.98,-1322.68 1684.43,-1101.07 1778.05,-1036.9"/>
<polygon fill="#757575" stroke="#757575" points="1780.07,-1039.75 1786.31,-1031.19 1776.09,-1033.99 1780.07,-1039.75"/>
</g>
<!-- src/music.js -->
<g id="node13" class="node">
<title>src/music.js</title>
<path fill="none" stroke="#cfffac" d="M1839.83,-561.18C1839.83,-561.18 1767.17,-561.18 1767.17,-561.18 1763.33,-561.18 1759.5,-557.35 1759.5,-553.52 1759.5,-553.52 1759.5,-545.85 1759.5,-545.85 1759.5,-542.02 1763.33,-538.18 1767.17,-538.18 1767.17,-538.18 1839.83,-538.18 1839.83,-538.18 1843.67,-538.18 1847.5,-542.02 1847.5,-545.85 1847.5,-545.85 1847.5,-553.52 1847.5,-553.52 1847.5,-557.35 1843.67,-561.18 1839.83,-561.18"/>
<text text-anchor="middle" x="1803.5" y="-545.98" font-family="Arial" font-size="14.00" fill="#cfffac">src/music.js</text>
</g>
<!-- src/gameManager.js&#45;&gt;src/music.js -->
<g id="edge42" class="edge">
<title>src/gameManager.js&#45;&gt;src/music.js</title>
<path fill="none" stroke="#757575" d="M161.74,-728.16C166.44,-657.8 194.45,-286.18 266,-202.68 333.19,-124.27 381.24,-123.68 484.5,-123.68 484.5,-123.68 484.5,-123.68 1018.5,-123.68 1184.29,-123.68 1237.24,-114.5 1386,-187.68 1405.48,-197.26 1404.48,-207.87 1422,-220.68 1517.95,-290.82 1581.73,-259.33 1654,-353.68 1692.28,-403.66 1650.79,-441.43 1690,-490.68 1706.17,-510.99 1731.24,-525.09 1753.62,-534.41"/>
<polygon fill="#757575" stroke="#757575" points="1752.43,-537.7 1763.02,-538.11 1755,-531.19 1752.43,-537.7"/>
</g>
<!-- src/rendering/Helpers.js -->
<g id="node15" class="node">
<title>src/rendering/Helpers.js</title>
<path fill="none" stroke="#cfffac" d="M1875.33,-718.18C1875.33,-718.18 1731.67,-718.18 1731.67,-718.18 1727.83,-718.18 1724,-714.35 1724,-710.52 1724,-710.52 1724,-702.85 1724,-702.85 1724,-699.02 1727.83,-695.18 1731.67,-695.18 1731.67,-695.18 1875.33,-695.18 1875.33,-695.18 1879.17,-695.18 1883,-699.02 1883,-702.85 1883,-702.85 1883,-710.52 1883,-710.52 1883,-714.35 1879.17,-718.18 1875.33,-718.18"/>
<text text-anchor="middle" x="1803.5" y="-702.98" font-family="Arial" font-size="14.00" fill="#cfffac">src/rendering/Helpers.js</text>
</g>
<!-- src/gameManager.js&#45;&gt;src/rendering/Helpers.js -->
<g id="edge44" class="edge">
<title>src/gameManager.js&#45;&gt;src/rendering/Helpers.js</title>
<path fill="none" stroke="#757575" d="M168.7,-728.18C201.06,-681.37 331.41,-507.68 484.5,-507.68 484.5,-507.68 484.5,-507.68 819.5,-507.68 1195.43,-507.68 1331.09,-453.2 1654,-645.68 1674.83,-658.1 1668.87,-674.78 1690,-686.68 1697.53,-690.93 1705.76,-694.31 1714.24,-696.99"/>
<polygon fill="#757575" stroke="#757575" points="1713.3,-700.37 1723.88,-699.74 1715.22,-693.63 1713.3,-700.37"/>
</g>
<!-- src/scores/scores.js -->
<g id="node16" class="node">
<title>src/scores/scores.js</title>
<path fill="none" stroke="#c6c5fe" d="M1597.83,-385.18C1597.83,-385.18 1478.17,-385.18 1478.17,-385.18 1474.33,-385.18 1470.5,-381.35 1470.5,-377.52 1470.5,-377.52 1470.5,-369.85 1470.5,-369.85 1470.5,-366.02 1474.33,-362.18 1478.17,-362.18 1478.17,-362.18 1597.83,-362.18 1597.83,-362.18 1601.67,-362.18 1605.5,-366.02 1605.5,-369.85 1605.5,-369.85 1605.5,-377.52 1605.5,-377.52 1605.5,-381.35 1601.67,-385.18 1597.83,-385.18"/>
<text text-anchor="middle" x="1538" y="-369.98" font-family="Arial" font-size="14.00" fill="#c6c5fe">src/scores/scores.js</text>
</g>
<!-- src/gameManager.js&#45;&gt;src/scores/scores.js -->
<g id="edge45" class="edge">
<title>src/gameManager.js&#45;&gt;src/scores/scores.js</title>
<path fill="none" stroke="#757575" d="M162.3,-728.15C169.58,-665.1 207.23,-362.52 266,-292.68 333.96,-211.93 378.96,-199.68 484.5,-199.68 484.5,-199.68 484.5,-199.68 1018.5,-199.68 1183.85,-199.68 1252.84,-159.65 1386,-257.68 1415.13,-279.13 1395.17,-306.42 1422,-330.68 1436.01,-343.35 1454.09,-352.4 1471.75,-358.82"/>
<polygon fill="#757575" stroke="#757575" points="1470.9,-362.22 1481.49,-362.12 1473.15,-355.6 1470.9,-362.22"/>
</g>
<!-- src/enemy/enemy.js -->
<g id="node19" class="node">
<title>src/enemy/enemy.js</title>
<path fill="none" stroke="#c6c5fe" d="M1598.83,-521.18C1598.83,-521.18 1477.17,-521.18 1477.17,-521.18 1473.33,-521.18 1469.5,-517.35 1469.5,-513.52 1469.5,-513.52 1469.5,-505.85 1469.5,-505.85 1469.5,-502.02 1473.33,-498.18 1477.17,-498.18 1477.17,-498.18 1598.83,-498.18 1598.83,-498.18 1602.67,-498.18 1606.5,-502.02 1606.5,-505.85 1606.5,-505.85 1606.5,-513.52 1606.5,-513.52 1606.5,-517.35 1602.67,-521.18 1598.83,-521.18"/>
<text text-anchor="middle" x="1538" y="-505.98" font-family="Arial" font-size="14.00" fill="#c6c5fe">src/enemy/enemy.js</text>
</g>
<!-- src/gameManager.js&#45;&gt;src/enemy/enemy.js -->
<g id="edge37" class="edge">
<title>src/gameManager.js&#45;&gt;src/enemy/enemy.js</title>
<path fill="none" stroke="#757575" d="M162.41,-728.13C167.83,-688.93 190.89,-559.81 266,-493.68 341.76,-426.98 383.56,-431.68 484.5,-431.68 484.5,-431.68 484.5,-431.68 819.5,-431.68 1056.17,-431.68 1334.2,-474.15 1463.71,-496.41"/>
<polygon fill="#757575" stroke="#757575" points="1463.45,-499.92 1473.9,-498.17 1464.65,-493.02 1463.45,-499.92"/>
</g>
<!-- src/enemy/enemyManager.js -->
<g id="node23" class="node">
<title>src/enemy/enemyManager.js</title>
<path fill="none" stroke="#c6c5fe" d="M1105.33,-307.18C1105.33,-307.18 929.67,-307.18 929.67,-307.18 925.83,-307.18 922,-303.35 922,-299.52 922,-299.52 922,-291.85 922,-291.85 922,-288.02 925.83,-284.18 929.67,-284.18 929.67,-284.18 1105.33,-284.18 1105.33,-284.18 1109.17,-284.18 1113,-288.02 1113,-291.85 1113,-291.85 1113,-299.52 1113,-299.52 1113,-303.35 1109.17,-307.18 1105.33,-307.18"/>
<text text-anchor="middle" x="1017.5" y="-291.98" font-family="Arial" font-size="14.00" fill="#c6c5fe">src/enemy/enemyManager.js</text>
</g>
<!-- src/gameManager.js&#45;&gt;src/enemy/enemyManager.js -->
<g id="edge38" class="edge">
<title>src/gameManager.js&#45;&gt;src/enemy/enemyManager.js</title>
<path fill="none" stroke="#757575" d="M162.35,-727.92C169.52,-667.55 205.13,-393.41 266,-338.68 339.03,-273.02 386.29,-305.68 484.5,-305.68 484.5,-305.68 484.5,-305.68 658.5,-305.68 743.69,-305.68 840.24,-302.82 911.58,-300.16"/>
<polygon fill="#757575" stroke="#757575" points="912.06,-303.64 921.92,-299.77 911.8,-296.65 912.06,-303.64"/>
</g>
<!-- src/keyboard.js -->
<g id="node24" class="node">
<title>src/keyboard.js</title>
<path fill="none" stroke="#c6c5fe" d="M531.33,-1180.18C531.33,-1180.18 439.67,-1180.18 439.67,-1180.18 435.83,-1180.18 432,-1176.35 432,-1172.52 432,-1172.52 432,-1164.85 432,-1164.85 432,-1161.02 435.83,-1157.18 439.67,-1157.18 439.67,-1157.18 531.33,-1157.18 531.33,-1157.18 535.17,-1157.18 539,-1161.02 539,-1164.85 539,-1164.85 539,-1172.52 539,-1172.52 539,-1176.35 535.17,-1180.18 531.33,-1180.18"/>
<text text-anchor="middle" x="485.5" y="-1164.98" font-family="Arial" font-size="14.00" fill="#c6c5fe">src/keyboard.js</text>
</g>
<!-- src/gameManager.js&#45;&gt;src/keyboard.js -->
<g id="edge40" class="edge">
<title>src/gameManager.js&#45;&gt;src/keyboard.js</title>
<path fill="none" stroke="#757575" d="M161.83,-751.48C165.58,-796.31 184.43,-958.33 266,-1054.68 309.67,-1106.27 382.65,-1137.6 432.13,-1154.03"/>
<polygon fill="#757575" stroke="#757575" points="431.11,-1157.38 441.7,-1157.12 433.26,-1150.71 431.11,-1157.38"/>
</g>
<!-- src/player/Player.js -->
<g id="node25" class="node">
<title>src/player/Player.js</title>
<path fill="none" stroke="#c6c5fe" d="M388.33,-1045.18C388.33,-1045.18 273.67,-1045.18 273.67,-1045.18 269.83,-1045.18 266,-1041.35 266,-1037.52 266,-1037.52 266,-1029.85 266,-1029.85 266,-1026.02 269.83,-1022.18 273.67,-1022.18 273.67,-1022.18 388.33,-1022.18 388.33,-1022.18 392.17,-1022.18 396,-1026.02 396,-1029.85 396,-1029.85 396,-1037.52 396,-1037.52 396,-1041.35 392.17,-1045.18 388.33,-1045.18"/>
<text text-anchor="middle" x="331" y="-1029.98" font-family="Arial" font-size="14.00" fill="#c6c5fe">src/player/Player.js</text>
</g>
<!-- src/gameManager.js&#45;&gt;src/player/Player.js -->
<g id="edge43" class="edge">
<title>src/gameManager.js&#45;&gt;src/player/Player.js</title>
<path fill="none" stroke="#757575" d="M167.63,-751.21C193.12,-795.57 285.14,-955.65 318.13,-1013.03"/>
<polygon fill="#757575" stroke="#757575" points="315.22,-1014.99 323.24,-1021.92 321.29,-1011.5 315.22,-1014.99"/>
</g>
<!-- src/step.js -->
<g id="node26" class="node">
<title>src/step.js</title>
<path fill="none" stroke="#c6c5fe" d="M849.33,-791.18C849.33,-791.18 787.67,-791.18 787.67,-791.18 783.83,-791.18 780,-787.35 780,-783.52 780,-783.52 780,-775.85 780,-775.85 780,-772.02 783.83,-768.18 787.67,-768.18 787.67,-768.18 849.33,-768.18 849.33,-768.18 853.17,-768.18 857,-772.02 857,-775.85 857,-775.85 857,-783.52 857,-783.52 857,-787.35 853.17,-791.18 849.33,-791.18"/>
<text text-anchor="middle" x="818.5" y="-775.98" font-family="Arial" font-size="14.00" fill="#c6c5fe">src/step.js</text>
</g>
<!-- src/gameManager.js&#45;&gt;src/step.js -->
<g id="edge47" class="edge">
<title>src/gameManager.js&#45;&gt;src/step.js</title>
<path fill="none" stroke="#757575" d="M230.09,-749.75C242.05,-751.25 254.37,-752.64 266,-753.68 451.87,-770.43 674.02,-776.74 769.75,-778.81"/>
<polygon fill="#757575" stroke="#757575" points="769.91,-782.31 779.98,-779.02 770.05,-775.31 769.91,-782.31"/>
</g>
<!-- src/Boss.js&#45;&gt;src/gameState.js -->
<g id="edge3" class="edge">
<title>src/Boss.js&#45;&gt;src/gameState.js</title>
<path fill="none" stroke="#757575" d="M1058.69,-348.61C1083.61,-343.79 1115.12,-334.5 1138,-316.68 1162.24,-297.81 1147.21,-272.72 1174,-257.68 1322.71,-174.21 1799.06,-326.51 1917,-449.68 1993.3,-529.37 2007.69,-670.64 2010.38,-724.76"/>
<polygon fill="#757575" stroke="#757575" points="2006.89,-725.08 2010.8,-734.93 2013.89,-724.79 2006.89,-725.08"/>
</g>
<!-- src/Boss.js&#45;&gt;src/levelCompleteScreen.js -->
<g id="edge4" class="edge">
<title>src/Boss.js&#45;&gt;src/levelCompleteScreen.js</title>
<path fill="none" stroke="#757575" d="M1058.63,-360.15C1095.53,-366.1 1151.35,-375.1 1197.58,-382.56"/>
<polygon fill="#757575" stroke="#757575" points="1197.16,-386.03 1207.59,-384.17 1198.27,-379.12 1197.16,-386.03"/>
</g>
<!-- src/weapons/enemyRocketAtack.js -->
<g id="node7" class="node">
<title>src/weapons/enemyRocketAtack.js</title>
<path fill="none" stroke="#c6c5fe" d="M1909.33,-174.18C1909.33,-174.18 1697.67,-174.18 1697.67,-174.18 1693.83,-174.18 1690,-170.35 1690,-166.52 1690,-166.52 1690,-158.85 1690,-158.85 1690,-155.02 1693.83,-151.18 1697.67,-151.18 1697.67,-151.18 1909.33,-151.18 1909.33,-151.18 1913.17,-151.18 1917,-155.02 1917,-158.85 1917,-158.85 1917,-166.52 1917,-166.52 1917,-170.35 1913.17,-174.18 1909.33,-174.18"/>
<text text-anchor="middle" x="1803.5" y="-158.98" font-family="Arial" font-size="14.00" fill="#c6c5fe">src/weapons/enemyRocketAtack.js</text>
</g>
<!-- src/Boss.js&#45;&gt;src/weapons/enemyRocketAtack.js -->
<g id="edge5" class="edge">
<title>src/Boss.js&#45;&gt;src/weapons/enemyRocketAtack.js</title>
<path fill="none" stroke="#757575" d="M1058.7,-350.15C1084.27,-345.95 1116.49,-336.76 1138,-316.68 1170.4,-286.44 1139.78,-251.85 1174,-223.68 1340.94,-86.32 1623.64,-124.39 1744.69,-149.12"/>
<polygon fill="#757575" stroke="#757575" points="1744.01,-152.55 1754.51,-151.17 1745.44,-145.7 1744.01,-152.55"/>
</g>
<!-- src/weapons/gatling.js -->
<g id="node8" class="node">
<title>src/weapons/gatling.js</title>
<path fill="none" stroke="#c6c5fe" d="M1604.83,-718.18C1604.83,-718.18 1471.17,-718.18 1471.17,-718.18 1467.33,-718.18 1463.5,-714.35 1463.5,-710.52 1463.5,-710.52 1463.5,-702.85 1463.5,-702.85 1463.5,-699.02 1467.33,-695.18 1471.17,-695.18 1471.17,-695.18 1604.83,-695.18 1604.83,-695.18 1608.67,-695.18 1612.5,-699.02 1612.5,-702.85 1612.5,-702.85 1612.5,-710.52 1612.5,-710.52 1612.5,-714.35 1608.67,-718.18 1604.83,-718.18"/>
<text text-anchor="middle" x="1538" y="-702.98" font-family="Arial" font-size="14.00" fill="#c6c5fe">src/weapons/gatling.js</text>
</g>
<!-- src/Boss.js&#45;&gt;src/weapons/gatling.js -->
<g id="edge6" class="edge">
<title>src/Boss.js&#45;&gt;src/weapons/gatling.js</title>
<path fill="none" stroke="#757575" d="M1058.82,-349.92C1144.35,-342.87 1339.92,-332.09 1386,-375.68 1487.08,-471.31 1326.45,-585.53 1422,-686.68 1430.56,-695.75 1441.66,-701.61 1453.57,-705.29"/>
<polygon fill="#757575" stroke="#757575" points="1452.71,-708.68 1463.27,-707.79 1454.45,-701.9 1452.71,-708.68"/>
</g>
<!-- src/weapons/enemyRocketAtack.js&#45;&gt;src/gameState.js -->
<g id="edge78" class="edge">
<title>src/weapons/enemyRocketAtack.js&#45;&gt;src/gameState.js</title>
<path fill="none" stroke="#757575" d="M1897.35,-174.23C1904.65,-177.97 1911.37,-182.7 1917,-188.68 1991.99,-268.33 2007.65,-631.71 2010.45,-724.87"/>
<polygon fill="#757575" stroke="#757575" points="2006.96,-725.18 2010.74,-735.08 2013.95,-724.98 2006.96,-725.18"/>
</g>
<!-- src/weapons/gatling.js&#45;&gt;src/gameState.js -->
<g id="edge80" class="edge">
<title>src/weapons/gatling.js&#45;&gt;src/gameState.js</title>
<path fill="none" stroke="#757575" d="M1612.59,-718.11C1637.16,-721.6 1664.71,-725.18 1690,-727.68 1777.01,-736.3 1877.71,-741.48 1942.77,-744.21"/>
<polygon fill="#757575" stroke="#757575" points="1942.77,-747.71 1952.9,-744.63 1943.05,-740.72 1942.77,-747.71"/>
</g>
<!-- src/weapons/gatling.js&#45;&gt;src/music.js -->
<g id="edge81" class="edge">
<title>src/weapons/gatling.js&#45;&gt;src/music.js</title>
<path fill="none" stroke="#757575" d="M1612.71,-701.47C1627.02,-698.4 1641.45,-693.72 1654,-686.68 1675.15,-674.82 1672.73,-662.71 1690,-645.68 1719.31,-616.78 1756.03,-586.43 1779.38,-567.78"/>
<polygon fill="#757575" stroke="#757575" points="1781.69,-570.42 1787.34,-561.46 1777.33,-564.94 1781.69,-570.42"/>
</g>
<!-- src/ammo.js&#45;&gt;src/weapons/gatling.js -->
<g id="edge7" class="edge">
<title>src/ammo.js&#45;&gt;src/weapons/gatling.js</title>
<path fill="none" stroke="#757575" d="M1325.59,-735.59C1360.74,-730.78 1410.74,-723.95 1453.29,-718.13"/>
<polygon fill="#757575" stroke="#757575" points="1453.94,-721.57 1463.37,-716.75 1452.99,-714.64 1453.94,-721.57"/>
</g>
<!-- src/weapons/rocket.js -->
<g id="node10" class="node">
<title>src/weapons/rocket.js</title>
<path fill="none" stroke="#c6c5fe" d="M1603.33,-950.18C1603.33,-950.18 1472.67,-950.18 1472.67,-950.18 1468.83,-950.18 1465,-946.35 1465,-942.52 1465,-942.52 1465,-934.85 1465,-934.85 1465,-931.02 1468.83,-927.18 1472.67,-927.18 1472.67,-927.18 1603.33,-927.18 1603.33,-927.18 1607.17,-927.18 1611,-931.02 1611,-934.85 1611,-934.85 1611,-942.52 1611,-942.52 1611,-946.35 1607.17,-950.18 1603.33,-950.18"/>
<text text-anchor="middle" x="1538" y="-934.98" font-family="Arial" font-size="14.00" fill="#c6c5fe">src/weapons/rocket.js</text>
</g>
<!-- src/ammo.js&#45;&gt;src/weapons/rocket.js -->
<g id="edge8" class="edge">
<title>src/ammo.js&#45;&gt;src/weapons/rocket.js</title>
<path fill="none" stroke="#757575" d="M1296.25,-753.42C1339.29,-786.54 1461.95,-880.93 1513.61,-920.68"/>
<polygon fill="#757575" stroke="#757575" points="1511.77,-923.69 1521.83,-927.01 1516.04,-918.14 1511.77,-923.69"/>
</g>
<!-- src/weapons/rocket.js&#45;&gt;src/rendering/Helpers.js -->
<g id="edge84" class="edge">
<title>src/weapons/rocket.js&#45;&gt;src/rendering/Helpers.js</title>
<path fill="none" stroke="#757575" d="M1552.07,-927.18C1594.65,-889.69 1729.66,-770.81 1781.74,-724.97"/>
<polygon fill="#757575" stroke="#757575" points="1784.16,-727.49 1789.35,-718.26 1779.54,-722.24 1784.16,-727.49"/>
</g>
<!-- src/collisions/collisionHandlers.js -->
<g id="node12" class="node">
<title>src/collisions/collisionHandlers.js</title>
<path fill="none" stroke="#c6c5fe" d="M1378.33,-871.18C1378.33,-871.18 1181.67,-871.18 1181.67,-871.18 1177.83,-871.18 1174,-867.35 1174,-863.52 1174,-863.52 1174,-855.85 1174,-855.85 1174,-852.02 1177.83,-848.18 1181.67,-848.18 1181.67,-848.18 1378.33,-848.18 1378.33,-848.18 1382.17,-848.18 1386,-852.02 1386,-855.85 1386,-855.85 1386,-863.52 1386,-863.52 1386,-867.35 1382.17,-871.18 1378.33,-871.18"/>
<text text-anchor="middle" x="1280" y="-855.98" font-family="Arial" font-size="14.00" fill="#c6c5fe">src/collisions/collisionHandlers.js</text>
</g>
<!-- src/collisions/collisionHandlers.js&#45;&gt;src/gameState.js -->
<g id="edge9" class="edge">
<title>src/collisions/collisionHandlers.js&#45;&gt;src/gameState.js</title>
<path fill="none" stroke="#757575" d="M1386.04,-857.11C1461.06,-854.12 1564.2,-847.65 1654,-833.68 1766.12,-816.24 1894.78,-781.04 1962.87,-761.17"/>
<polygon fill="#757575" stroke="#757575" points="1964.26,-764.42 1972.87,-758.24 1962.28,-757.7 1964.26,-764.42"/>
</g>
<!-- src/collisions/collisionHandlers.js&#45;&gt;src/weapons/gatling.js -->
<g id="edge15" class="edge">
<title>src/collisions/collisionHandlers.js&#45;&gt;src/weapons/gatling.js</title>
<path fill="none" stroke="#757575" d="M1362.81,-848.18C1371.28,-844.52 1379.25,-839.8 1386,-833.68 1421.33,-801.71 1386.34,-764.3 1422,-732.68 1431.03,-724.67 1442.01,-718.97 1453.55,-714.95"/>
<polygon fill="#757575" stroke="#757575" points="1454.82,-718.22 1463.35,-711.94 1452.77,-711.53 1454.82,-718.22"/>
</g>
<!-- src/collisions/collisionHandlers.js&#45;&gt;src/weapons/rocket.js -->
<g id="edge16" class="edge">
<title>src/collisions/collisionHandlers.js&#45;&gt;src/weapons/rocket.js</title>
<path fill="none" stroke="#757575" d="M1318.5,-871.26C1363.84,-885.25 1440.21,-908.82 1489.6,-924.06"/>
<polygon fill="#757575" stroke="#757575" points="1488.81,-927.48 1499.4,-927.08 1490.88,-920.79 1488.81,-927.48"/>
</g>
<!-- src/collisions/collisionHandlers.js&#45;&gt;src/music.js -->
<g id="edge10" class="edge">
<title>src/collisions/collisionHandlers.js&#45;&gt;src/music.js</title>
<path fill="none" stroke="#757575" d="M1360.27,-848.13C1369.54,-844.51 1378.39,-839.81 1386,-833.68 1414.18,-811 1392.71,-781.91 1422,-760.68 1506.34,-699.58 1571.04,-790.65 1654,-727.68 1685.7,-703.62 1666.26,-677.63 1690,-645.68 1714.11,-613.24 1751.11,-584.39 1776.03,-566.99"/>
<polygon fill="#757575" stroke="#757575" points="1778.03,-569.86 1784.3,-561.32 1774.08,-564.09 1778.03,-569.86"/>
</g>
<!-- src/rendering/Explosion.js -->
<g id="node14" class="node">
<title>src/rendering/Explosion.js</title>
<path fill="none" stroke="#cfffac" d="M1881.33,-677.18C1881.33,-677.18 1725.67,-677.18 1725.67,-677.18 1721.83,-677.18 1718,-673.35 1718,-669.52 1718,-669.52 1718,-661.85 1718,-661.85 1718,-658.02 1721.83,-654.18 1725.67,-654.18 1725.67,-654.18 1881.33,-654.18 1881.33,-654.18 1885.17,-654.18 1889,-658.02 1889,-661.85 1889,-661.85 1889,-669.52 1889,-669.52 1889,-673.35 1885.17,-677.18 1881.33,-677.18"/>
<text text-anchor="middle" x="1803.5" y="-661.98" font-family="Arial" font-size="14.00" fill="#cfffac">src/rendering/Explosion.js</text>
</g>
<!-- src/collisions/collisionHandlers.js&#45;&gt;src/rendering/Explosion.js -->
<g id="edge11" class="edge">
<title>src/collisions/collisionHandlers.js&#45;&gt;src/rendering/Explosion.js</title>
<path fill="none" stroke="#757575" d="M1349.93,-848.17C1362.38,-844.56 1374.92,-839.84 1386,-833.68 1405.51,-822.85 1402.07,-808.73 1422,-798.68 1515.3,-751.66 1570.2,-823.1 1654,-760.68 1683.33,-738.84 1660.91,-708.86 1690,-686.68 1695.57,-682.44 1701.75,-678.96 1708.25,-676.12"/>
<polygon fill="#757575" stroke="#757575" points="1709.89,-679.24 1717.98,-672.41 1707.39,-672.7 1709.89,-679.24"/>
</g>
<!-- src/collisions/collisionHandlers.js&#45;&gt;src/rendering/Helpers.js -->
<g id="edge12" class="edge">
<title>src/collisions/collisionHandlers.js&#45;&gt;src/rendering/Helpers.js</title>
<path fill="none" stroke="#757575" d="M1378.28,-848.15C1471.43,-836.32 1604.84,-817.1 1654,-798.68 1702.39,-780.56 1752.14,-745.81 1780.01,-724.59"/>
<polygon fill="#757575" stroke="#757575" points="1782.16,-727.36 1787.94,-718.48 1777.88,-721.82 1782.16,-727.36"/>
</g>
<!-- src/collisions/collisionHandlers.js&#45;&gt;src/scores/scores.js -->
<g id="edge13" class="edge">
<title>src/collisions/collisionHandlers.js&#45;&gt;src/scores/scores.js</title>
<path fill="none" stroke="#757575" d="M1300.3,-848C1324.77,-832.06 1366.13,-801.02 1386,-762.68 1442.3,-654.02 1368.1,-599.56 1422,-489.68 1442.62,-447.64 1484.49,-411.57 1511.61,-391.26"/>
<polygon fill="#757575" stroke="#757575" points="1513.85,-393.96 1519.86,-385.24 1509.72,-388.31 1513.85,-393.96"/>
</g>
<!-- src/weapons/flare.js -->
<g id="node17" class="node">
<title>src/weapons/flare.js</title>
<path fill="none" stroke="#c6c5fe" d="M1598.33,-991.18C1598.33,-991.18 1477.67,-991.18 1477.67,-991.18 1473.83,-991.18 1470,-987.35 1470,-983.52 1470,-983.52 1470,-975.85 1470,-975.85 1470,-972.02 1473.83,-968.18 1477.67,-968.18 1477.67,-968.18 1598.33,-968.18 1598.33,-968.18 1602.17,-968.18 1606,-972.02 1606,-975.85 1606,-975.85 1606,-983.52 1606,-983.52 1606,-987.35 1602.17,-991.18 1598.33,-991.18"/>
<text text-anchor="middle" x="1538" y="-975.98" font-family="Arial" font-size="14.00" fill="#c6c5fe">src/weapons/flare.js</text>
</g>
<!-- src/collisions/collisionHandlers.js&#45;&gt;src/weapons/flare.js -->
<g id="edge14" class="edge">
<title>src/collisions/collisionHandlers.js&#45;&gt;src/weapons/flare.js</title>
<path fill="none" stroke="#757575" d="M1293.42,-871.49C1316.64,-892.83 1369.08,-937.65 1422,-959.68 1433.93,-964.65 1447.04,-968.38 1460.02,-971.19"/>
<polygon fill="#757575" stroke="#757575" points="1459.4,-974.63 1469.89,-973.16 1460.77,-967.77 1459.4,-974.63"/>
</g>
<!-- src/scores/currentGameScore.js -->
<g id="node32" class="node">
<title>src/scores/currentGameScore.js</title>
<path fill="none" stroke="#c6c5fe" d="M1901.33,-481.18C1901.33,-481.18 1705.67,-481.18 1705.67,-481.18 1701.83,-481.18 1698,-477.35 1698,-473.52 1698,-473.52 1698,-465.85 1698,-465.85 1698,-462.02 1701.83,-458.18 1705.67,-458.18 1705.67,-458.18 1901.33,-458.18 1901.33,-458.18 1905.17,-458.18 1909,-462.02 1909,-465.85 1909,-465.85 1909,-473.52 1909,-473.52 1909,-477.35 1905.17,-481.18 1901.33,-481.18"/>
<text text-anchor="middle" x="1803.5" y="-465.98" font-family="Arial" font-size="14.00" fill="#c6c5fe">src/scores/currentGameScore.js</text>
</g>
<!-- src/scores/scores.js&#45;&gt;src/scores/currentGameScore.js -->
<g id="edge65" class="edge">
<title>src/scores/scores.js&#45;&gt;src/scores/currentGameScore.js</title>
<path fill="none" stroke="#757575" d="M1570.78,-385.26C1618.36,-402.6 1708.14,-435.31 1760.89,-454.52"/>
<polygon fill="#757575" stroke="#757575" points="1760.01,-457.93 1770.6,-458.06 1762.41,-451.35 1760.01,-457.93"/>
</g>
<!-- src/weapons/flare.js&#45;&gt;src/gameState.js -->
<g id="edge79" class="edge">
<title>src/weapons/flare.js&#45;&gt;src/gameState.js</title>
<path fill="none" stroke="#757575" d="M1606.3,-984.23C1687.38,-986.27 1824.26,-978.36 1917,-912.68 1967.7,-876.78 1994.57,-804.36 2005.31,-768.22"/>
<polygon fill="#757575" stroke="#757575" points="2008.78,-768.82 2008.14,-758.25 2002.04,-766.91 2008.78,-768.82"/>
</g>
<!-- src/collisions/collisions.js -->
<g id="node18" class="node">
<title>src/collisions/collisions.js</title>
<path fill="none" stroke="#c6c5fe" d="M1092.33,-829.18C1092.33,-829.18 942.67,-829.18 942.67,-829.18 938.83,-829.18 935,-825.35 935,-821.52 935,-821.52 935,-813.85 935,-813.85 935,-810.02 938.83,-806.18 942.67,-806.18 942.67,-806.18 1092.33,-806.18 1092.33,-806.18 1096.17,-806.18 1100,-810.02 1100,-813.85 1100,-813.85 1100,-821.52 1100,-821.52 1100,-825.35 1096.17,-829.18 1092.33,-829.18"/>
<text text-anchor="middle" x="1017.5" y="-813.98" font-family="Arial" font-size="14.00" fill="#c6c5fe">src/collisions/collisions.js</text>
</g>
<!-- src/collisions/collisions.js&#45;&gt;src/gameState.js -->
<g id="edge18" class="edge">
<title>src/collisions/collisions.js&#45;&gt;src/gameState.js</title>
<path fill="none" stroke="#757575" d="M1100.05,-820.77C1113.32,-823.62 1126.48,-828.03 1138,-834.68 1160.48,-847.67 1150.66,-869.31 1174,-880.68 1270,-927.46 1548.05,-871.07 1654,-857.68 1771.58,-842.83 1807.5,-859.02 1917,-813.68 1945.26,-801.98 1973.24,-780.42 1991.22,-764.91"/>
<polygon fill="#757575" stroke="#757575" points="1993.56,-767.51 1998.75,-758.27 1988.93,-762.26 1993.56,-767.51"/>
</g>
<!-- src/collisions/collisions.js&#45;&gt;src/weapons/gatling.js -->
<g id="edge19" class="edge">
<title>src/collisions/collisions.js&#45;&gt;src/weapons/gatling.js</title>
<path fill="none" stroke="#757575" d="M1100.16,-810.64C1192.46,-801.77 1336.33,-784.96 1386,-762.68 1405,-754.16 1403.32,-741.9 1422,-732.68 1431.94,-727.78 1442.82,-723.78 1453.79,-720.54"/>
<polygon fill="#757575" stroke="#757575" points="1454.73,-723.91 1463.44,-717.87 1452.87,-717.16 1454.73,-723.91"/>
</g>
<!-- src/collisions/collisions.js&#45;&gt;src/weapons/rocket.js -->
<g id="edge20" class="edge">
<title>src/collisions/collisions.js&#45;&gt;src/weapons/rocket.js</title>
<path fill="none" stroke="#757575" d="M1100.21,-825.38C1113.76,-829.37 1126.97,-835.21 1138,-843.68 1165.74,-864.99 1144.78,-894.44 1174,-913.68 1264.26,-973.11 1395.98,-964.28 1473.45,-951.88"/>
<polygon fill="#757575" stroke="#757575" points="1474.26,-955.29 1483.55,-950.19 1473.11,-948.39 1474.26,-955.29"/>
</g>
<!-- src/collisions/collisions.js&#45;&gt;src/collisions/collisionHandlers.js -->
<g id="edge17" class="edge">
<title>src/collisions/collisions.js&#45;&gt;src/collisions/collisionHandlers.js</title>
<path fill="none" stroke="#757575" d="M1090.03,-829.22C1123.34,-834.59 1163.13,-841 1197.59,-846.56"/>
<polygon fill="#757575" stroke="#757575" points="1197.2,-850.04 1207.63,-848.18 1198.32,-843.13 1197.2,-850.04"/>
</g>
<!-- src/enemy/enemy.js&#45;&gt;src/gameState.js -->
<g id="edge21" class="edge">
<title>src/enemy/enemy.js&#45;&gt;src/gameState.js</title>
<path fill="none" stroke="#757575" d="M1606.72,-504.98C1701.75,-499.74 1868.5,-495.97 1917,-529.68 1983.51,-575.91 2003.33,-679.76 2008.93,-724.97"/>
<polygon fill="#757575" stroke="#757575" points="2005.48,-725.58 2010.07,-735.13 2012.43,-724.8 2005.48,-725.58"/>
</g>
<!-- src/enemy/enemy.js&#45;&gt;src/music.js -->
<g id="edge22" class="edge">
<title>src/enemy/enemy.js&#45;&gt;src/music.js</title>
<path fill="none" stroke="#757575" d="M1606.52,-519.93C1650.8,-526.65 1707.89,-535.32 1749.02,-541.57"/>
<polygon fill="#757575" stroke="#757575" points="1748.7,-545.06 1759.12,-543.1 1749.76,-538.14 1748.7,-545.06"/>
</g>
<!-- src/enemy/enemy.js&#45;&gt;src/rendering/Explosion.js -->
<g id="edge23" class="edge">
<title>src/enemy/enemy.js&#45;&gt;src/rendering/Explosion.js</title>
<path fill="none" stroke="#757575" d="M1560.36,-521.18C1583.58,-533.77 1621.69,-554.7 1654,-573.68 1697.13,-599.03 1746.33,-629.9 1775.87,-648.66"/>
<polygon fill="#757575" stroke="#757575" points="1774.06,-651.66 1784.38,-654.08 1777.82,-645.75 1774.06,-651.66"/>
</g>
<!-- src/enemy/enemy.js&#45;&gt;src/rendering/Helpers.js -->
<g id="edge24" class="edge">
<title>src/enemy/enemy.js&#45;&gt;src/rendering/Helpers.js</title>
<path fill="none" stroke="#757575" d="M1574.08,-521.2C1599.62,-531.27 1633.24,-548.31 1654,-573.68 1687.38,-614.48 1650.34,-651.96 1690,-686.68 1697.07,-692.87 1705.37,-697.46 1714.22,-700.82"/>
<polygon fill="#757575" stroke="#757575" points="1713.39,-704.23 1723.99,-704 1715.56,-697.58 1713.39,-704.23"/>
</g>
<!-- src/enemy/enemyFactory.js -->
<g id="node20" class="node">
<title>src/enemy/enemyFactory.js</title>
<path fill="none" stroke="#c6c5fe" d="M1363.33,-289.18C1363.33,-289.18 1196.67,-289.18 1196.67,-289.18 1192.83,-289.18 1189,-285.35 1189,-281.52 1189,-281.52 1189,-273.85 1189,-273.85 1189,-270.02 1192.83,-266.18 1196.67,-266.18 1196.67,-266.18 1363.33,-266.18 1363.33,-266.18 1367.17,-266.18 1371,-270.02 1371,-273.85 1371,-273.85 1371,-281.52 1371,-281.52 1371,-285.35 1367.17,-289.18 1363.33,-289.18"/>
<text text-anchor="middle" x="1280" y="-273.98" font-family="Arial" font-size="14.00" fill="#c6c5fe">src/enemy/enemyFactory.js</text>
</g>
<!-- src/enemy/enemyFactory.js&#45;&gt;src/weapons/enemyRocketAtack.js -->
<g id="edge28" class="edge">
<title>src/enemy/enemyFactory.js&#45;&gt;src/weapons/enemyRocketAtack.js</title>
<path fill="none" stroke="#757575" d="M1371.08,-269.55C1447.34,-261.33 1559.09,-246.13 1654,-220.68 1694.35,-209.86 1738.74,-191.64 1768.38,-178.5"/>
<polygon fill="#757575" stroke="#757575" points="1770.15,-181.55 1777.84,-174.26 1767.29,-175.16 1770.15,-181.55"/>
</g>
<!-- src/enemy/enemyFactory.js&#45;&gt;src/scores/scores.js -->
<g id="edge27" class="edge">
<title>src/enemy/enemyFactory.js&#45;&gt;src/scores/scores.js</title>
<path fill="none" stroke="#757575" d="M1345.16,-289.24C1358.99,-292.91 1373.28,-297.64 1386,-303.68 1404.07,-312.26 1404.45,-321.08 1422,-330.68 1442.82,-342.08 1467.29,-351.7 1488.29,-358.93"/>
<polygon fill="#757575" stroke="#757575" points="1487.39,-362.31 1497.98,-362.18 1489.62,-355.68 1487.39,-362.31"/>
</g>
<!-- src/enemy/enemyFactory.js&#45;&gt;src/enemy/enemy.js -->
<g id="edge25" class="edge">
<title>src/enemy/enemyFactory.js&#45;&gt;src/enemy/enemy.js</title>
<path fill="none" stroke="#757575" d="M1362.08,-289.2C1370.78,-292.84 1379,-297.57 1386,-303.68 1418.74,-332.31 1398.13,-358.33 1422,-394.68 1447.76,-433.91 1488.55,-470.68 1513.99,-491.64"/>
<polygon fill="#757575" stroke="#757575" points="1512.01,-494.55 1521.99,-498.13 1516.42,-489.11 1512.01,-494.55"/>
</g>
<!-- src/enemy/enemyManoeuvre.js -->
<g id="node21" class="node">
<title>src/enemy/enemyManoeuvre.js</title>
<path fill="none" stroke="#c6c5fe" d="M1633.33,-677.18C1633.33,-677.18 1442.67,-677.18 1442.67,-677.18 1438.83,-677.18 1435,-673.35 1435,-669.52 1435,-669.52 1435,-661.85 1435,-661.85 1435,-658.02 1438.83,-654.18 1442.67,-654.18 1442.67,-654.18 1633.33,-654.18 1633.33,-654.18 1637.17,-654.18 1641,-658.02 1641,-661.85 1641,-661.85 1641,-669.52 1641,-669.52 1641,-673.35 1637.17,-677.18 1633.33,-677.18"/>
<text text-anchor="middle" x="1538" y="-661.98" font-family="Arial" font-size="14.00" fill="#c6c5fe">src/enemy/enemyManoeuvre.js</text>
</g>
<!-- src/enemy/enemyFactory.js&#45;&gt;src/enemy/enemyManoeuvre.js -->
<g id="edge26" class="edge">
<title>src/enemy/enemyFactory.js&#45;&gt;src/enemy/enemyManoeuvre.js</title>
<path fill="none" stroke="#757575" d="M1366.52,-289.25C1373.8,-292.94 1380.48,-297.67 1386,-303.68 1455.08,-378.93 1379.28,-437.89 1422,-530.68 1444.17,-578.84 1488.54,-623.29 1515.22,-647.23"/>
<polygon fill="#757575" stroke="#757575" points="1513.07,-650 1522.89,-653.99 1517.7,-644.75 1513.07,-650"/>
</g>
<!-- src/weapons/groundEnemyAttack.js -->
<g id="node22" class="node">
<title>src/weapons/groundEnemyAttack.js</title>
<path fill="none" stroke="#c6c5fe" d="M1646.33,-212.18C1646.33,-212.18 1429.67,-212.18 1429.67,-212.18 1425.83,-212.18 1422,-208.35 1422,-204.52 1422,-204.52 1422,-196.85 1422,-196.85 1422,-193.02 1425.83,-189.18 1429.67,-189.18 1429.67,-189.18 1646.33,-189.18 1646.33,-189.18 1650.17,-189.18 1654,-193.02 1654,-196.85 1654,-196.85 1654,-204.52 1654,-204.52 1654,-208.35 1650.17,-212.18 1646.33,-212.18"/>
<text text-anchor="middle" x="1538" y="-196.98" font-family="Arial" font-size="14.00" fill="#c6c5fe">src/weapons/groundEnemyAttack.js</text>
</g>
<!-- src/enemy/enemyFactory.js&#45;&gt;src/weapons/groundEnemyAttack.js -->
<g id="edge29" class="edge">
<title>src/enemy/enemyFactory.js&#45;&gt;src/weapons/groundEnemyAttack.js</title>
<path fill="none" stroke="#757575" d="M1319.33,-266.16C1364.48,-252.58 1439.54,-230 1488.65,-215.23"/>
<polygon fill="#757575" stroke="#757575" points="1489.84,-218.52 1498.41,-212.29 1487.83,-211.82 1489.84,-218.52"/>
</g>
<!-- src/enemy/enemyManoeuvre.js&#45;&gt;src/background.js -->
<g id="edge33" class="edge">
<title>src/enemy/enemyManoeuvre.js&#45;&gt;src/background.js</title>
<path fill="none" stroke="#757575" d="M1638.71,-677.22C1644.14,-679.86 1649.29,-682.98 1654,-686.68 1707.04,-728.36 1774.7,-931.46 1795.87,-998.31"/>
<polygon fill="#757575" stroke="#757575" points="1792.62,-999.66 1798.96,-1008.15 1799.3,-997.56 1792.62,-999.66"/>
</g>
<!-- src/weapons/groundEnemyAttack.js&#45;&gt;src/gameState.js -->
<g id="edge82" class="edge">
<title>src/weapons/groundEnemyAttack.js&#45;&gt;src/gameState.js</title>
<path fill="none" stroke="#757575" d="M1654.18,-193.65C1750.98,-190.37 1879.39,-193 1917,-226.68 1992.7,-294.47 2007.78,-634.32 2010.46,-724.62"/>
<polygon fill="#757575" stroke="#757575" points="2006.97,-724.9 2010.74,-734.8 2013.97,-724.7 2006.97,-724.9"/>
</g>
<!-- src/weapons/groundEnemyAttack.js&#45;&gt;src/weapons/enemyRocketAtack.js -->
<g id="edge83" class="edge">
<title>src/weapons/groundEnemyAttack.js&#45;&gt;src/weapons/enemyRocketAtack.js</title>
<path fill="none" stroke="#757575" d="M1618.77,-189.18C1648.31,-184.92 1681.99,-180.06 1712.37,-175.68"/>
<polygon fill="#757575" stroke="#757575" points="1713.15,-179.11 1722.54,-174.21 1712.15,-172.18 1713.15,-179.11"/>
</g>
<!-- src/enemy/enemyManager.js&#45;&gt;src/gameState.js -->
<g id="edge31" class="edge">
<title>src/enemy/enemyManager.js&#45;&gt;src/gameState.js</title>
<path fill="none" stroke="#757575" d="M1025.01,-284.11C1043.48,-252.6 1099.69,-165.42 1174,-131.68 1474.72,4.83 1674.52,82.53 1917,-141.68 2004.55,-222.64 2010.84,-626.36 2011.06,-724.94"/>
<polygon fill="#757575" stroke="#757575" points="2007.56,-724.95 2011.06,-734.95 2014.56,-724.95 2007.56,-724.95"/>
</g>
<!-- src/enemy/enemyManager.js&#45;&gt;src/weapons/gatling.js -->
<g id="edge32" class="edge">
<title>src/enemy/enemyManager.js&#45;&gt;src/weapons/gatling.js</title>
<path fill="none" stroke="#757575" d="M1113.12,-300.68C1215.61,-307.04 1367.11,-319.54 1386,-338.68 1440.61,-394.03 1368.96,-629.84 1422,-686.68 1430.56,-695.86 1441.72,-701.77 1453.7,-705.45"/>
<polygon fill="#757575" stroke="#757575" points="1452.91,-708.86 1463.46,-707.95 1454.64,-702.08 1452.91,-708.86"/>
</g>
<!-- src/enemy/enemyManager.js&#45;&gt;src/enemy/enemyFactory.js -->
<g id="edge30" class="edge">
<title>src/enemy/enemyManager.js&#45;&gt;src/enemy/enemyFactory.js</title>
<path fill="none" stroke="#757575" d="M1113.28,-289.13C1134.51,-287.67 1157.09,-286.11 1178.54,-284.63"/>
<polygon fill="#757575" stroke="#757575" points="1178.9,-288.11 1188.63,-283.93 1178.41,-281.13 1178.9,-288.11"/>
</g>
<!-- src/keyboard.js&#45;&gt;src/gameState.js -->
<g id="edge53" class="edge">
<title>src/keyboard.js&#45;&gt;src/gameState.js</title>
<path fill="none" stroke="#757575" d="M500.3,-1180.19C516.97,-1193.53 546.37,-1215.26 575,-1227.68 676.56,-1271.76 706.78,-1284.68 817.5,-1284.68 817.5,-1284.68 817.5,-1284.68 1018.5,-1284.68 1218.48,-1284.68 1769.01,-1369.18 1917,-1234.68 1987.43,-1170.68 2006.28,-854.63 2010.14,-768.43"/>
<polygon fill="#757575" stroke="#757575" points="2013.65,-768.39 2010.58,-758.25 2006.66,-768.1 2013.65,-768.39"/>
</g>
<!-- src/keyboard.js&#45;&gt;src/weapons/rocket.js -->
<g id="edge56" class="edge">
<title>src/keyboard.js&#45;&gt;src/weapons/rocket.js</title>
<path fill="none" stroke="#757575" d="M526.24,-1180.19C541.36,-1184.02 558.85,-1187.79 575,-1189.68 647.84,-1198.21 666.98,-1196.41 740,-1189.68 1030.79,-1162.9 1166.28,-1262.04 1386,-1069.68 1424.7,-1035.8 1383.24,-993.51 1422,-959.68 1431.41,-951.47 1442.94,-945.99 1455.03,-942.41"/>
<polygon fill="#757575" stroke="#757575" points="1455.99,-945.78 1464.82,-939.93 1454.27,-938.99 1455.99,-945.78"/>
</g>
<!-- src/keyboard.js&#45;&gt;src/music.js -->
<g id="edge54" class="edge">
<title>src/keyboard.js&#45;&gt;src/music.js</title>
<path fill="none" stroke="#757575" d="M507.57,-1180.27C525.04,-1189.18 550.85,-1200.78 575,-1205.68 767.3,-1244.72 820.28,-1207.68 1016.5,-1207.68 1016.5,-1207.68 1016.5,-1207.68 1281,-1207.68 1470.6,-1207.68 1549.68,-1159 1654,-1000.68 1741.26,-868.26 1616.39,-786.15 1690,-645.68 1708.34,-610.69 1745.27,-583.09 1771.82,-566.63"/>
<polygon fill="#757575" stroke="#757575" points="1773.96,-569.42 1780.73,-561.27 1770.36,-563.42 1773.96,-569.42"/>
</g>
<!-- src/gameMenuActions.js -->
<g id="node27" class="node">
<title>src/gameMenuActions.js</title>
<path fill="none" stroke="#c6c5fe" d="M732.33,-1180.18C732.33,-1180.18 582.67,-1180.18 582.67,-1180.18 578.83,-1180.18 575,-1176.35 575,-1172.52 575,-1172.52 575,-1164.85 575,-1164.85 575,-1161.02 578.83,-1157.18 582.67,-1157.18 582.67,-1157.18 732.33,-1157.18 732.33,-1157.18 736.17,-1157.18 740,-1161.02 740,-1164.85 740,-1164.85 740,-1172.52 740,-1172.52 740,-1176.35 736.17,-1180.18 732.33,-1180.18"/>
<text text-anchor="middle" x="657.5" y="-1164.98" font-family="Arial" font-size="14.00" fill="#c6c5fe">src/gameMenuActions.js</text>
</g>
<!-- src/keyboard.js&#45;&gt;src/gameMenuActions.js -->
<g id="edge52" class="edge">
<title>src/keyboard.js&#45;&gt;src/gameMenuActions.js</title>
<path fill="none" stroke="#757575" d="M539.36,-1168.68C547.48,-1168.68 556.07,-1168.68 564.75,-1168.68"/>
<polygon fill="#757575" stroke="#757575" points="564.96,-1172.18 574.96,-1168.68 564.96,-1165.18 564.96,-1172.18"/>
</g>
<!-- src/touch.js -->
<g id="node29" class="node">
<title>src/touch.js</title>
<path fill="none" stroke="#c6c5fe" d="M853.33,-988.18C853.33,-988.18 783.67,-988.18 783.67,-988.18 779.83,-988.18 776,-984.35 776,-980.52 776,-980.52 776,-972.85 776,-972.85 776,-969.02 779.83,-965.18 783.67,-965.18 783.67,-965.18 853.33,-965.18 853.33,-965.18 857.17,-965.18 861,-969.02 861,-972.85 861,-972.85 861,-980.52 861,-980.52 861,-984.35 857.17,-988.18 853.33,-988.18"/>
<text text-anchor="middle" x="818.5" y="-972.98" font-family="Arial" font-size="14.00" fill="#c6c5fe">src/touch.js</text>
</g>
<!-- src/keyboard.js&#45;&gt;src/touch.js -->
<g id="edge55" class="edge">
<title>src/keyboard.js&#45;&gt;src/touch.js</title>
<path fill="none" stroke="#757575" d="M506.71,-1156.96C563.16,-1124.21 722.72,-1031.66 788.55,-993.48"/>
<polygon fill="#757575" stroke="#757575" points="790.66,-996.3 797.56,-988.25 787.15,-990.24 790.66,-996.3"/>
</g>
<!-- src/player/Player.js&#45;&gt;src/gameState.js -->
<g id="edge58" class="edge">
<title>src/player/Player.js&#45;&gt;src/gameState.js</title>
<path fill="none" stroke="#757575" d="M385,-1045.22C388.83,-1046.82 392.54,-1048.63 396,-1050.68 416,-1062.57 411.28,-1078.1 432,-1088.68 489.1,-1117.85 511.27,-1100.65 575,-1107.68 887.2,-1142.15 964.9,-1169.68 1279,-1169.68 1279,-1169.68 1279,-1169.68 1539,-1169.68 1716.51,-1169.68 1792.7,-1167.42 1917,-1040.68 1993.54,-962.64 2007.79,-822.3 2010.41,-768.49"/>
<polygon fill="#757575" stroke="#757575" points="2013.92,-768.51 2010.82,-758.38 2006.92,-768.23 2013.92,-768.51"/>
</g>
<!-- src/player/Player.js&#45;&gt;src/weapons/gatling.js -->
<g id="edge62" class="edge">
<title>src/player/Player.js&#45;&gt;src/weapons/gatling.js</title>
<path fill="none" stroke="#757575" d="M396.32,-1033C582.37,-1030.75 1109.7,-1022.32 1138,-998.68 1193.61,-952.24 1122.31,-890.45 1174,-839.68 1242.66,-772.25 1309.74,-854.37 1386,-795.68 1414.35,-773.86 1393.03,-744.67 1422,-723.68 1431.29,-716.95 1442.13,-712.37 1453.36,-709.32"/>
<polygon fill="#757575" stroke="#757575" points="1454.36,-712.68 1463.31,-707.02 1452.78,-705.86 1454.36,-712.68"/>
</g>
<!-- src/player/Player.js&#45;&gt;src/weapons/rocket.js -->
<g id="edge63" class="edge">
<title>src/player/Player.js&#45;&gt;src/weapons/rocket.js</title>
<path fill="none" stroke="#757575" d="M396.04,-1038.52C532.85,-1047.75 863.56,-1064.22 1138,-1031.68 1250.51,-1018.34 1277.43,-1005.09 1386,-972.68 1402.3,-967.82 1405.58,-964.12 1422,-959.68 1432.5,-956.85 1443.65,-954.28 1454.7,-951.99"/>
<polygon fill="#757575" stroke="#757575" points="1455.7,-955.36 1464.81,-949.97 1454.32,-948.5 1455.7,-955.36"/>
</g>
<!-- src/player/Player.js&#45;&gt;src/music.js -->
<g id="edge60" class="edge">
<title>src/player/Player.js&#45;&gt;src/music.js</title>
<path fill="none" stroke="#757575" d="M332.9,-1022.16C339.83,-941.92 391.88,-469.68 656.5,-469.68 656.5,-469.68 656.5,-469.68 819.5,-469.68 1190.5,-469.68 1290.7,-414.53 1654,-489.68 1696.57,-498.49 1742.52,-518.91 1771.85,-533.48"/>
<polygon fill="#757575" stroke="#757575" points="1770.63,-536.79 1781.14,-538.18 1773.79,-530.54 1770.63,-536.79"/>
</g>
<!-- src/player/Player.js&#45;&gt;src/weapons/flare.js -->
<g id="edge61" class="edge">
<title>src/player/Player.js&#45;&gt;src/weapons/flare.js</title>
<path fill="none" stroke="#757575" d="M379.1,-1045.28C384.83,-1046.96 390.58,-1048.77 396,-1050.68 412.51,-1056.5 414.88,-1062.99 432,-1066.68 639.24,-1111.36 1181.61,-1125.97 1386,-1069.68 1436.66,-1055.73 1487.49,-1019.83 1515.33,-997.82"/>
<polygon fill="#757575" stroke="#757575" points="1517.62,-1000.47 1523.21,-991.48 1513.23,-995.02 1517.62,-1000.47"/>
</g>
<!-- src/player/Player.js&#45;&gt;src/keyboard.js -->
<g id="edge59" class="edge">
<title>src/player/Player.js&#45;&gt;src/keyboard.js</title>
<path fill="none" stroke="#757575" d="M340.48,-1045.5C356.42,-1067.05 392.78,-1113.23 432,-1142.68 436.74,-1146.24 442.05,-1149.53 447.41,-1152.49"/>
<polygon fill="#757575" stroke="#757575" points="445.92,-1155.65 456.41,-1157.13 449.13,-1149.43 445.92,-1155.65"/>
</g>
<!-- src/gameOver.js -->
<g id="node28" class="node">
<title>src/gameOver.js</title>
<path fill="none" stroke="#c6c5fe" d="M1067.83,-559.18C1067.83,-559.18 967.17,-559.18 967.17,-559.18 963.33,-559.18 959.5,-555.35 959.5,-551.52 959.5,-551.52 959.5,-543.85 959.5,-543.85 959.5,-540.02 963.33,-536.18 967.17,-536.18 967.17,-536.18 1067.83,-536.18 1067.83,-536.18 1071.67,-536.18 1075.5,-540.02 1075.5,-543.85 1075.5,-543.85 1075.5,-551.52 1075.5,-551.52 1075.5,-555.35 1071.67,-559.18 1067.83,-559.18"/>
<text text-anchor="middle" x="1017.5" y="-543.98" font-family="Arial" font-size="14.00" fill="#c6c5fe">src/gameOver.js</text>
</g>
<!-- src/player/Player.js&#45;&gt;src/gameOver.js -->
<g id="edge57" class="edge">
<title>src/player/Player.js&#45;&gt;src/gameOver.js</title>
<path fill="none" stroke="#757575" d="M341.59,-1021.91C391.76,-961.23 631.84,-682.16 897,-564.68 913.18,-557.52 931.68,-553.23 949.22,-550.7"/>
<polygon fill="#757575" stroke="#757575" points="949.93,-554.14 959.41,-549.4 949.05,-547.19 949.93,-554.14"/>
</g>
<!-- src/step.js&#45;&gt;src/gameState.js -->
<g id="edge71" class="edge">
<title>src/step.js&#45;&gt;src/gameState.js</title>
<path fill="none" stroke="#757575" d="M828.67,-768.09C841.96,-752.11 868.16,-723.62 897,-708.68 1051.28,-628.79 1105.26,-625.68 1279,-625.68 1279,-625.68 1279,-625.68 1539,-625.68 1707.23,-625.68 1764.58,-574.47 1917,-645.68 1953.98,-662.96 1983.37,-701.98 1998.9,-726.15"/>
<polygon fill="#757575" stroke="#757575" points="1996.08,-728.25 2004.33,-734.9 2002.03,-724.56 1996.08,-728.25"/>
</g>
<!-- src/step.js&#45;&gt;src/weapons/gatling.js -->
<g id="edge75" class="edge">
<title>src/step.js&#45;&gt;src/weapons/gatling.js</title>
<path fill="none" stroke="#757575" d="M844.43,-768.06C859.36,-761.6 878.9,-754.02 897,-749.68 1092.14,-702.95 1329.64,-700.7 1453.2,-703.47"/>
<polygon fill="#757575" stroke="#757575" points="1453.26,-706.97 1463.34,-703.71 1453.43,-699.97 1453.26,-706.97"/>
</g>
<!-- src/step.js&#45;&gt;src/ammo.js -->
<g id="edge66" class="edge">
<title>src/step.js&#45;&gt;src/ammo.js</title>
<path fill="none" stroke="#757575" d="M857.26,-776.64C916.89,-771.83 1036.55,-762.14 1138,-753.68 1166.42,-751.31 1198.06,-748.63 1224.16,-746.4"/>
<polygon fill="#757575" stroke="#757575" points="1224.57,-749.87 1234.23,-745.53 1223.97,-742.9 1224.57,-749.87"/>
</g>
<!-- src/step.js&#45;&gt;src/weapons/rocket.js -->
<g id="edge76" class="edge">
<title>src/step.js&#45;&gt;src/weapons/rocket.js</title>
<path fill="none" stroke="#757575" d="M830.92,-791.35C845.08,-805.05 870.58,-827.34 897,-838.68 996.7,-881.49 1050.75,-813.19 1138,-877.68 1167.09,-899.19 1143.28,-931.58 1174,-950.68 1219.22,-978.81 1362.81,-964.59 1455.26,-951.67"/>
<polygon fill="#757575" stroke="#757575" points="1456.03,-955.09 1465.44,-950.22 1455.05,-948.16 1456.03,-955.09"/>
</g>
<!-- src/step.js&#45;&gt;src/background.js -->
<g id="edge67" class="edge">
<title>src/step.js&#45;&gt;src/background.js</title>
<path fill="none" stroke="#757575" d="M822.29,-791.35C829.47,-818.63 851.3,-886.65 897,-918.68 985.85,-980.96 1033.65,-927.95 1138,-957.68 1154.67,-962.43 1157.22,-968.33 1174,-972.68 1281.37,-1000.51 1311.44,-991.69 1422,-1000.68 1529.98,-1009.47 1655.55,-1014.79 1732,-1017.48"/>
<polygon fill="#757575" stroke="#757575" points="1732.34,-1021 1742.45,-1017.85 1732.58,-1014 1732.34,-1021"/>
</g>
<!-- src/step.js&#45;&gt;src/collisions/collisions.js -->
<g id="edge68" class="edge">
<title>src/step.js&#45;&gt;src/collisions/collisions.js</title>
<path fill="none" stroke="#757575" d="M857.02,-786.92C882.29,-791.8 916.4,-798.37 946.59,-804.2"/>
<polygon fill="#757575" stroke="#757575" points="946.17,-807.68 956.65,-806.14 947.5,-800.81 946.17,-807.68"/>
</g>
<!-- src/step.js&#45;&gt;src/enemy/enemy.js -->
<g id="edge69" class="edge">
<title>src/step.js&#45;&gt;src/enemy/enemy.js</title>
<path fill="none" stroke="#757575" d="M828.67,-768.09C841.96,-752.12 868.17,-723.64 897,-708.68 1094.48,-606.24 1179.5,-684.48 1386,-601.68 1434.29,-582.32 1484.82,-548.28 1513.46,-527.48"/>
<polygon fill="#757575" stroke="#757575" points="1515.63,-530.22 1521.62,-521.48 1511.49,-524.58 1515.63,-530.22"/>
</g>
<!-- src/step.js&#45;&gt;src/gameOver.js -->
<g id="edge70" class="edge">
<title>src/step.js&#45;&gt;src/gameOver.js</title>
<path fill="none" stroke="#757575" d="M822.3,-768.14C832.07,-728.77 865.77,-600.66 897,-573.68 911.5,-561.15 930.64,-554.23 949.33,-550.51"/>
<polygon fill="#757575" stroke="#757575" points="950.07,-553.93 959.34,-548.8 948.9,-547.03 950.07,-553.93"/>
</g>
<!-- src/mobile/mobileVelocityController.js -->
<g id="node30" class="node">
<title>src/mobile/mobileVelocityController.js</title>
<path fill="none" stroke="#cfffac" d="M1130.33,-909.18C1130.33,-909.18 904.67,-909.18 904.67,-909.18 900.83,-909.18 897,-905.35 897,-901.52 897,-901.52 897,-893.85 897,-893.85 897,-890.02 900.83,-886.18 904.67,-886.18 904.67,-886.18 1130.33,-886.18 1130.33,-886.18 1134.17,-886.18 1138,-890.02 1138,-893.85 1138,-893.85 1138,-901.52 1138,-901.52 1138,-905.35 1134.17,-909.18 1130.33,-909.18"/>
<text text-anchor="middle" x="1017.5" y="-893.98" font-family="Arial" font-size="14.00" fill="#cfffac">src/mobile/mobileVelocityController.js</text>
</g>
<!-- src/step.js&#45;&gt;src/mobile/mobileVelocityController.js -->
<g id="edge72" class="edge">
<title>src/step.js&#45;&gt;src/mobile/mobileVelocityController.js</title>
<path fill="none" stroke="#757575" d="M825.88,-791.42C837.34,-811.3 863.37,-851.41 897,-871.68 904.4,-876.14 912.46,-879.84 920.8,-882.91"/>
<polygon fill="#757575" stroke="#757575" points="919.7,-886.23 930.3,-886.11 921.94,-879.6 919.7,-886.23"/>
</g>
<!-- src/mobileJoystick.js -->
<g id="node31" class="node">
<title>src/mobileJoystick.js</title>
<path fill="none" stroke="#cfffac" d="M1079.83,-989.18C1079.83,-989.18 955.17,-989.18 955.17,-989.18 951.33,-989.18 947.5,-985.35 947.5,-981.52 947.5,-981.52 947.5,-973.85 947.5,-973.85 947.5,-970.02 951.33,-966.18 955.17,-966.18 955.17,-966.18 1079.83,-966.18 1079.83,-966.18 1083.67,-966.18 1087.5,-970.02 1087.5,-973.85 1087.5,-973.85 1087.5,-981.52 1087.5,-981.52 1087.5,-985.35 1083.67,-989.18 1079.83,-989.18"/>
<text text-anchor="middle" x="1017.5" y="-973.98" font-family="Arial" font-size="14.00" fill="#cfffac">src/mobileJoystick.js</text>
</g>
<!-- src/step.js&#45;&gt;src/mobileJoystick.js -->
<g id="edge73" class="edge">
<title>src/step.js&#45;&gt;src/mobileJoystick.js</title>
<path fill="none" stroke="#757575" d="M821.14,-791.49C826.16,-822.89 844.32,-909.01 897,-951.68 908.6,-961.08 922.83,-967.27 937.38,-971.32"/>
<polygon fill="#757575" stroke="#757575" points="936.93,-974.81 947.48,-973.79 938.6,-968.01 936.93,-974.81"/>
</g>
<!-- src/step.js&#45;&gt;src/scores/currentGameScore.js -->
<g id="edge74" class="edge">
<title>src/step.js&#45;&gt;src/scores/currentGameScore.js</title>
<path fill="none" stroke="#757575" d="M821.15,-768.04C826.18,-737.08 844.37,-652.32 897,-611.68 983.12,-545.18 1031.91,-592.85 1138,-568.68 1265.74,-539.59 1292.7,-510.8 1422,-489.68 1510.41,-475.24 1611.76,-470.48 1687.62,-469.2"/>
<polygon fill="#757575" stroke="#757575" points="1687.73,-472.7 1697.68,-469.05 1687.62,-465.7 1687.73,-472.7"/>
</g>
<!-- src/gameMenuActions.js&#45;&gt;src/gameState.js -->
<g id="edge48" class="edge">
<title>src/gameMenuActions.js&#45;&gt;src/gameState.js</title>
<path fill="none" stroke="#757575" d="M690.1,-1180.21C751.9,-1201.69 893.48,-1245.68 1016.5,-1245.68 1016.5,-1245.68 1016.5,-1245.68 1539,-1245.68 1709.24,-1245.68 1793.69,-1301.06 1917,-1183.68 1978.34,-1125.29 2003.42,-848.8 2009.47,-768.56"/>
<polygon fill="#757575" stroke="#757575" points="2012.99,-768.43 2010.23,-758.2 2006.01,-767.92 2012.99,-768.43"/>
</g>
<!-- src/gameMenuActions.js&#45;&gt;src/step.js -->
<g id="edge49" class="edge">
<title>src/gameMenuActions.js&#45;&gt;src/step.js</title>
<path fill="none" stroke="#757575" d="M663.26,-1157.04C685.57,-1102.46 779.94,-871.58 808.97,-800.56"/>
<polygon fill="#757575" stroke="#757575" points="812.22,-801.86 812.76,-791.28 805.74,-799.21 812.22,-801.86"/>
</g>
<!-- src/gameOver.js&#45;&gt;src/levelCompleteScreen.js -->
<g id="edge50" class="edge">
<title>src/gameOver.js&#45;&gt;src/levelCompleteScreen.js</title>
<path fill="none" stroke="#757575" d="M1038.51,-536.01C1084.36,-509.25 1197.18,-443.42 1250.37,-412.39"/>
<polygon fill="#757575" stroke="#757575" points="1252.41,-415.25 1259.28,-407.19 1248.88,-409.21 1252.41,-415.25"/>
</g>
<!-- src/gameOver.js&#45;&gt;src/music.js -->
<g id="edge51" class="edge">
<title>src/gameOver.js&#45;&gt;src/music.js</title>
<path fill="none" stroke="#757575" d="M1075.51,-547.83C1221.44,-548.2 1606.93,-549.18 1748.97,-549.55"/>
<polygon fill="#757575" stroke="#757575" points="1749.16,-553.05 1759.17,-549.57 1749.17,-546.05 1749.16,-553.05"/>
</g>
<!-- src/touch.js&#45;&gt;src/mobileJoystick.js -->
<g id="edge77" class="edge">
<title>src/touch.js&#45;&gt;src/mobileJoystick.js</title>
<path fill="none" stroke="#757575" d="M861.28,-976.9C883.31,-977.01 911.1,-977.15 937.04,-977.28"/>
<polygon fill="#757575" stroke="#757575" points="937.24,-980.78 947.26,-977.33 937.28,-973.78 937.24,-980.78"/>
</g>
<!-- src/scores/currentGameScore.js&#45;&gt;src/gameState.js -->
<g id="edge64" class="edge">
<title>src/scores/currentGameScore.js&#45;&gt;src/gameState.js</title>
<path fill="none" stroke="#757575" d="M1893.41,-481.2C1901.99,-484.87 1910.07,-489.6 1917,-495.68 1987.12,-557.15 2005.06,-676.19 2009.55,-725"/>
<polygon fill="#757575" stroke="#757575" points="2006.07,-725.39 2010.37,-735.07 2013.04,-724.82 2006.07,-725.39"/>
</g>
</g>
</svg>
