<?xml version="1.0" encoding="UTF-8" standalone="no"?>
<!DOCTYPE svg PUBLIC "-//W3C//DTD SVG 1.1//EN"
 "http://www.w3.org/Graphics/SVG/1.1/DTD/svg11.dtd">
<!-- Generated by graphviz version 2.43.0 (0)
 -->
<!-- Title: G Pages: 1 -->
<svg width="2219pt" height="1469pt"
 viewBox="0.00 0.00 2219.20 1469.00" xmlns="http://www.w3.org/2000/svg" xmlns:xlink="http://www.w3.org/1999/xlink">
<g id="graph0" class="graph" transform="scale(1 1) rotate(0) translate(21.6 1447.4)">
<title>G</title>
<polygon fill="#111111" stroke="transparent" points="-21.6,21.6 -21.6,-1447.4 2197.6,-1447.4 2197.6,21.6 -21.6,21.6"/>
<!-- app.js -->
<g id="node1" class="node">
<title>app.js</title>
<path fill="none" stroke="#c6c5fe" d="M46.33,-279.3C46.33,-279.3 7.67,-279.3 7.67,-279.3 3.83,-279.3 0,-275.47 0,-271.63 0,-271.63 0,-263.97 0,-263.97 0,-260.13 3.83,-256.3 7.67,-256.3 7.67,-256.3 46.33,-256.3 46.33,-256.3 50.17,-256.3 54,-260.13 54,-263.97 54,-263.97 54,-271.63 54,-271.63 54,-275.47 50.17,-279.3 46.33,-279.3"/>
<text text-anchor="middle" x="27" y="-264.1" font-family="Arial" font-size="14.00" fill="#c6c5fe">app.js</text>
</g>
<!-- src/gameManager.js -->
<g id="node2" class="node">
<title>src/gameManager.js</title>
<path fill="none" stroke="#c6c5fe" d="M222.33,-494.3C222.33,-494.3 97.67,-494.3 97.67,-494.3 93.83,-494.3 90,-490.47 90,-486.63 90,-486.63 90,-478.97 90,-478.97 90,-475.13 93.83,-471.3 97.67,-471.3 97.67,-471.3 222.33,-471.3 222.33,-471.3 226.17,-471.3 230,-475.13 230,-478.97 230,-478.97 230,-486.63 230,-486.63 230,-490.47 226.17,-494.3 222.33,-494.3"/>
<text text-anchor="middle" x="160" y="-479.1" font-family="Arial" font-size="14.00" fill="#c6c5fe">src/gameManager.js</text>
</g>
<!-- app.js&#45;&gt;src/gameManager.js -->
<g id="edge1" class="edge">
<title>app.js&#45;&gt;src/gameManager.js</title>
<path fill="none" stroke="#757575" d="M35.04,-279.36C56.23,-314.14 119.6,-418.14 146.6,-462.45"/>
<polygon fill="#757575" stroke="#757575" points="143.73,-464.47 151.92,-471.19 149.71,-460.82 143.73,-464.47"/>
</g>
<!-- src/startScreen.js -->
<g id="node3" class="node">
<title>src/startScreen.js</title>
<path fill="none" stroke="#c6c5fe" d="M383.83,-44.3C383.83,-44.3 278.17,-44.3 278.17,-44.3 274.33,-44.3 270.5,-40.47 270.5,-36.63 270.5,-36.63 270.5,-28.97 270.5,-28.97 270.5,-25.13 274.33,-21.3 278.17,-21.3 278.17,-21.3 383.83,-21.3 383.83,-21.3 387.67,-21.3 391.5,-25.13 391.5,-28.97 391.5,-28.97 391.5,-36.63 391.5,-36.63 391.5,-40.47 387.67,-44.3 383.83,-44.3"/>
<text text-anchor="middle" x="331" y="-29.1" font-family="Arial" font-size="14.00" fill="#c6c5fe">src/startScreen.js</text>
</g>
<!-- app.js&#45;&gt;src/startScreen.js -->
<g id="edge2" class="edge">
<title>app.js&#45;&gt;src/startScreen.js</title>
<path fill="none" stroke="#757575" d="M38.77,-255.86C70.54,-221.25 167.75,-119.48 266,-58.8 272.24,-54.95 279.16,-51.45 286.07,-48.36"/>
<polygon fill="#757575" stroke="#757575" points="287.58,-51.52 295.42,-44.4 284.85,-45.07 287.58,-51.52"/>
</g>
<!-- src/Boss.js -->
<g id="node4" class="node">
<title>src/Boss.js</title>
<path fill="none" stroke="#c6c5fe" d="M1156.83,-435.3C1156.83,-435.3 1090.17,-435.3 1090.17,-435.3 1086.33,-435.3 1082.5,-431.47 1082.5,-427.63 1082.5,-427.63 1082.5,-419.97 1082.5,-419.97 1082.5,-416.13 1086.33,-412.3 1090.17,-412.3 1090.17,-412.3 1156.83,-412.3 1156.83,-412.3 1160.67,-412.3 1164.5,-416.13 1164.5,-419.97 1164.5,-419.97 1164.5,-427.63 1164.5,-427.63 1164.5,-431.47 1160.67,-435.3 1156.83,-435.3"/>
<text text-anchor="middle" x="1123.5" y="-420.1" font-family="Arial" font-size="14.00" fill="#c6c5fe">src/Boss.js</text>
</g>
<!-- src/gameManager.js&#45;&gt;src/Boss.js -->
<g id="edge33" class="edge">
<title>src/gameManager.js&#45;&gt;src/Boss.js</title>
<path fill="none" stroke="#757575" d="M192.29,-471.28C212.96,-464.1 240.78,-455.22 266,-449.8 361.62,-429.27 386.7,-423.8 484.5,-423.8 484.5,-423.8 484.5,-423.8 658.5,-423.8 809.1,-423.8 987.2,-423.8 1072.31,-423.8"/>
<polygon fill="#757575" stroke="#757575" points="1072.47,-427.3 1082.47,-423.8 1072.47,-420.3 1072.47,-427.3"/>
</g>
<!-- src/gameState.js -->
<g id="node5" class="node">
<title>src/gameState.js</title>
<path fill="none" stroke="#cfffac" d="M2168.33,-623.3C2168.33,-623.3 2065.67,-623.3 2065.67,-623.3 2061.83,-623.3 2058,-619.47 2058,-615.63 2058,-615.63 2058,-607.97 2058,-607.97 2058,-604.13 2061.83,-600.3 2065.67,-600.3 2065.67,-600.3 2168.33,-600.3 2168.33,-600.3 2172.17,-600.3 2176,-604.13 2176,-607.97 2176,-607.97 2176,-615.63 2176,-615.63 2176,-619.47 2172.17,-623.3 2168.33,-623.3"/>
<text text-anchor="middle" x="2117" y="-608.1" font-family="Arial" font-size="14.00" fill="#cfffac">src/gameState.js</text>
</g>
<!-- src/gameManager.js&#45;&gt;src/gameState.js -->
<g id="edge38" class="edge">
<title>src/gameManager.js&#45;&gt;src/gameState.js</title>
<path fill="none" stroke="#757575" d="M161.55,-494.52C165.68,-579.71 193.86,-1104.68 266,-1243.8 324.18,-1356 358.11,-1425.8 484.5,-1425.8 484.5,-1425.8 484.5,-1425.8 1662.5,-1425.8 1841.99,-1425.8 1917.28,-1387.58 2022,-1241.8 2094.37,-1141.05 2112.09,-733.02 2115.36,-633.68"/>
<polygon fill="#757575" stroke="#757575" points="2118.86,-633.71 2115.68,-623.61 2111.87,-633.5 2118.86,-633.71"/>
</g>
<!-- src/levelCompleteScreen.js -->
<g id="node6" class="node">
<title>src/levelCompleteScreen.js</title>
<path fill="none" stroke="#cfffac" d="M1478.83,-1131.3C1478.83,-1131.3 1313.17,-1131.3 1313.17,-1131.3 1309.33,-1131.3 1305.5,-1127.47 1305.5,-1123.63 1305.5,-1123.63 1305.5,-1115.97 1305.5,-1115.97 1305.5,-1112.13 1309.33,-1108.3 1313.17,-1108.3 1313.17,-1108.3 1478.83,-1108.3 1478.83,-1108.3 1482.67,-1108.3 1486.5,-1112.13 1486.5,-1115.97 1486.5,-1115.97 1486.5,-1123.63 1486.5,-1123.63 1486.5,-1127.47 1482.67,-1131.3 1478.83,-1131.3"/>
<text text-anchor="middle" x="1396" y="-1116.1" font-family="Arial" font-size="14.00" fill="#cfffac">src/levelCompleteScreen.js</text>
</g>
<!-- src/gameManager.js&#45;&gt;src/levelCompleteScreen.js -->
<g id="edge40" class="edge">
<title>src/gameManager.js&#45;&gt;src/levelCompleteScreen.js</title>
<path fill="none" stroke="#757575" d="M160.74,-494.4C159.71,-573.51 165.34,-1034.9 432,-1179.8 752.21,-1353.8 1223.66,-1188.73 1358.03,-1135.23"/>
<polygon fill="#757575" stroke="#757575" points="1359.51,-1138.41 1367.48,-1131.43 1356.9,-1131.91 1359.51,-1138.41"/>
</g>
<!-- src/ammo.js -->
<g id="node9" class="node">
<title>src/ammo.js</title>
<path fill="none" stroke="#c6c5fe" d="M1433.83,-857.3C1433.83,-857.3 1358.17,-857.3 1358.17,-857.3 1354.33,-857.3 1350.5,-853.47 1350.5,-849.63 1350.5,-849.63 1350.5,-841.97 1350.5,-841.97 1350.5,-838.13 1354.33,-834.3 1358.17,-834.3 1358.17,-834.3 1433.83,-834.3 1433.83,-834.3 1437.67,-834.3 1441.5,-838.13 1441.5,-841.97 1441.5,-841.97 1441.5,-849.63 1441.5,-849.63 1441.5,-853.47 1437.67,-857.3 1433.83,-857.3"/>
<text text-anchor="middle" x="1396" y="-842.1" font-family="Arial" font-size="14.00" fill="#c6c5fe">src/ammo.js</text>
</g>
<!-- src/gameManager.js&#45;&gt;src/ammo.js -->
<g id="edge34" class="edge">
<title>src/gameManager.js&#45;&gt;src/ammo.js</title>
<path fill="none" stroke="#757575" d="M214.93,-494.31C262.74,-504.78 334.32,-521.1 396,-537.8 768.57,-638.7 1211.59,-784.53 1350.86,-830.99"/>
<polygon fill="#757575" stroke="#757575" points="1350.15,-834.45 1360.74,-834.29 1352.37,-827.81 1350.15,-834.45"/>
</g>
<!-- src/background.js -->
<g id="node11" class="node">
<title>src/background.js</title>
<path fill="none" stroke="#cfffac" d="M1714.83,-238.3C1714.83,-238.3 1608.17,-238.3 1608.17,-238.3 1604.33,-238.3 1600.5,-234.47 1600.5,-230.63 1600.5,-230.63 1600.5,-222.97 1600.5,-222.97 1600.5,-219.13 1604.33,-215.3 1608.17,-215.3 1608.17,-215.3 1714.83,-215.3 1714.83,-215.3 1718.67,-215.3 1722.5,-219.13 1722.5,-222.97 1722.5,-222.97 1722.5,-230.63 1722.5,-230.63 1722.5,-234.47 1718.67,-238.3 1714.83,-238.3"/>
<text text-anchor="middle" x="1661.5" y="-223.1" font-family="Arial" font-size="14.00" fill="#cfffac">src/background.js</text>
</g>
<!-- src/gameManager.js&#45;&gt;src/background.js -->
<g id="edge35" class="edge">
<title>src/gameManager.js&#45;&gt;src/background.js</title>
<path fill="none" stroke="#757575" d="M166.37,-471.2C192.59,-416.47 312.84,-186.8 484.5,-186.8 484.5,-186.8 484.5,-186.8 1124.5,-186.8 1296.93,-186.8 1340.34,-189.49 1512,-205.8 1537.63,-208.24 1565.61,-211.92 1590.31,-215.53"/>
<polygon fill="#757575" stroke="#757575" points="1589.91,-219.01 1600.32,-217.02 1590.94,-212.09 1589.91,-219.01"/>
</g>
<!-- src/music.js -->
<g id="node13" class="node">
<title>src/music.js</title>
<path fill="none" stroke="#cfffac" d="M1952.83,-779.3C1952.83,-779.3 1880.17,-779.3 1880.17,-779.3 1876.33,-779.3 1872.5,-775.47 1872.5,-771.63 1872.5,-771.63 1872.5,-763.97 1872.5,-763.97 1872.5,-760.13 1876.33,-756.3 1880.17,-756.3 1880.17,-756.3 1952.83,-756.3 1952.83,-756.3 1956.67,-756.3 1960.5,-760.13 1960.5,-763.97 1960.5,-763.97 1960.5,-771.63 1960.5,-771.63 1960.5,-775.47 1956.67,-779.3 1952.83,-779.3"/>
<text text-anchor="middle" x="1916.5" y="-764.1" font-family="Arial" font-size="14.00" fill="#cfffac">src/music.js</text>
</g>
<!-- src/gameManager.js&#45;&gt;src/music.js -->
<g id="edge41" class="edge">
<title>src/gameManager.js&#45;&gt;src/music.js</title>
<path fill="none" stroke="#757575" d="M162.72,-470.95C171.24,-413.7 210.86,-166.48 266,-115.8 338.87,-48.83 385.53,-72.8 484.5,-72.8 484.5,-72.8 484.5,-72.8 1397,-72.8 1568.1,-72.8 1653.8,-25.02 1775,-145.8 1833.72,-204.31 1793.4,-247.8 1811,-328.8 1845.99,-489.83 1894.03,-682.6 1910.05,-746.25"/>
<polygon fill="#757575" stroke="#757575" points="1906.66,-747.13 1912.5,-755.97 1913.45,-745.42 1906.66,-747.13"/>
</g>
<!-- src/rendering/Helpers.js -->
<g id="node15" class="node">
<title>src/rendering/Helpers.js</title>
<path fill="none" stroke="#cfffac" d="M1988.33,-1032.3C1988.33,-1032.3 1844.67,-1032.3 1844.67,-1032.3 1840.83,-1032.3 1837,-1028.47 1837,-1024.63 1837,-1024.63 1837,-1016.97 1837,-1016.97 1837,-1013.13 1840.83,-1009.3 1844.67,-1009.3 1844.67,-1009.3 1988.33,-1009.3 1988.33,-1009.3 1992.17,-1009.3 1996,-1013.13 1996,-1016.97 1996,-1016.97 1996,-1024.63 1996,-1024.63 1996,-1028.47 1992.17,-1032.3 1988.33,-1032.3"/>
<text text-anchor="middle" x="1916.5" y="-1017.1" font-family="Arial" font-size="14.00" fill="#cfffac">src/rendering/Helpers.js</text>
</g>
<!-- src/gameManager.js&#45;&gt;src/rendering/Helpers.js -->
<g id="edge43" class="edge">
<title>src/gameManager.js&#45;&gt;src/rendering/Helpers.js</title>
<path fill="none" stroke="#757575" d="M161.01,-494.63C161.48,-558.59 168.87,-868.43 266,-1094.8 330.06,-1244.08 322.05,-1387.8 484.5,-1387.8 484.5,-1387.8 484.5,-1387.8 1124.5,-1387.8 1430.71,-1387.8 1516.4,-1324.78 1775,-1160.8 1827.94,-1127.23 1876.63,-1070.62 1900.35,-1040.7"/>
<polygon fill="#757575" stroke="#757575" points="1903.22,-1042.71 1906.62,-1032.67 1897.71,-1038.4 1903.22,-1042.71"/>
</g>
<!-- src/scores/scores.js -->
<g id="node16" class="node">
<title>src/scores/scores.js</title>
<path fill="none" stroke="#c6c5fe" d="M1721.33,-178.3C1721.33,-178.3 1601.67,-178.3 1601.67,-178.3 1597.83,-178.3 1594,-174.47 1594,-170.63 1594,-170.63 1594,-162.97 1594,-162.97 1594,-159.13 1597.83,-155.3 1601.67,-155.3 1601.67,-155.3 1721.33,-155.3 1721.33,-155.3 1725.17,-155.3 1729,-159.13 1729,-162.97 1729,-162.97 1729,-170.63 1729,-170.63 1729,-174.47 1725.17,-178.3 1721.33,-178.3"/>
<text text-anchor="middle" x="1661.5" y="-163.1" font-family="Arial" font-size="14.00" fill="#c6c5fe">src/scores/scores.js</text>
</g>
<!-- src/gameManager.js&#45;&gt;src/scores/scores.js -->
<g id="edge44" class="edge">
<title>src/gameManager.js&#45;&gt;src/scores/scores.js</title>
<path fill="none" stroke="#757575" d="M162.28,-471.25C167.41,-430.15 190.04,-289.11 266,-208.8 339.13,-131.48 378.07,-110.8 484.5,-110.8 484.5,-110.8 484.5,-110.8 1124.5,-110.8 1288.84,-110.8 1480,-137.17 1583.81,-153.71"/>
<polygon fill="#757575" stroke="#757575" points="1583.46,-157.2 1593.88,-155.33 1584.57,-150.29 1583.46,-157.2"/>
</g>
<!-- src/enemy/enemy.js -->
<g id="node18" class="node">
<title>src/enemy/enemy.js</title>
<path fill="none" stroke="#c6c5fe" d="M1456.83,-587.3C1456.83,-587.3 1335.17,-587.3 1335.17,-587.3 1331.33,-587.3 1327.5,-583.47 1327.5,-579.63 1327.5,-579.63 1327.5,-571.97 1327.5,-571.97 1327.5,-568.13 1331.33,-564.3 1335.17,-564.3 1335.17,-564.3 1456.83,-564.3 1456.83,-564.3 1460.67,-564.3 1464.5,-568.13 1464.5,-571.97 1464.5,-571.97 1464.5,-579.63 1464.5,-579.63 1464.5,-583.47 1460.67,-587.3 1456.83,-587.3"/>
<text text-anchor="middle" x="1396" y="-572.1" font-family="Arial" font-size="14.00" fill="#c6c5fe">src/enemy/enemy.js</text>
</g>
<!-- src/gameManager.js&#45;&gt;src/enemy/enemy.js -->
<g id="edge36" class="edge">
<title>src/gameManager.js&#45;&gt;src/enemy/enemy.js</title>
<path fill="none" stroke="#757575" d="M230.03,-476.4C295.48,-470.88 396.59,-463.8 484.5,-463.8 484.5,-463.8 484.5,-463.8 872.5,-463.8 1055.63,-463.8 1267,-530.39 1354.18,-560.88"/>
<polygon fill="#757575" stroke="#757575" points="1353.1,-564.21 1363.7,-564.24 1355.43,-557.61 1353.1,-564.21"/>
</g>
<!-- src/enemy/enemyManager.js -->
<g id="node22" class="node">
<title>src/enemy/enemyManager.js</title>
<path fill="none" stroke="#c6c5fe" d="M959.33,-376.3C959.33,-376.3 783.67,-376.3 783.67,-376.3 779.83,-376.3 776,-372.47 776,-368.63 776,-368.63 776,-360.97 776,-360.97 776,-357.13 779.83,-353.3 783.67,-353.3 783.67,-353.3 959.33,-353.3 959.33,-353.3 963.17,-353.3 967,-357.13 967,-360.97 967,-360.97 967,-368.63 967,-368.63 967,-372.47 963.17,-376.3 959.33,-376.3"/>
<text text-anchor="middle" x="871.5" y="-361.1" font-family="Arial" font-size="14.00" fill="#c6c5fe">src/enemy/enemyManager.js</text>
</g>
<!-- src/gameManager.js&#45;&gt;src/enemy/enemyManager.js -->
<g id="edge37" class="edge">
<title>src/gameManager.js&#45;&gt;src/enemy/enemyManager.js</title>
<path fill="none" stroke="#757575" d="M173,-471.14C191.32,-454.17 228.13,-423.24 266,-409.8 433.25,-350.47 642.46,-349.78 765.78,-356.22"/>
<polygon fill="#757575" stroke="#757575" points="765.8,-359.72 775.97,-356.77 766.18,-352.73 765.8,-359.72"/>
</g>
<!-- src/keyboard.js -->
<g id="node23" class="node">
<title>src/keyboard.js</title>
<path fill="none" stroke="#c6c5fe" d="M531.33,-1170.3C531.33,-1170.3 439.67,-1170.3 439.67,-1170.3 435.83,-1170.3 432,-1166.47 432,-1162.63 432,-1162.63 432,-1154.97 432,-1154.97 432,-1151.13 435.83,-1147.3 439.67,-1147.3 439.67,-1147.3 531.33,-1147.3 531.33,-1147.3 535.17,-1147.3 539,-1151.13 539,-1154.97 539,-1154.97 539,-1162.63 539,-1162.63 539,-1166.47 535.17,-1170.3 531.33,-1170.3"/>
<text text-anchor="middle" x="485.5" y="-1155.1" font-family="Arial" font-size="14.00" fill="#c6c5fe">src/keyboard.js</text>
</g>
<!-- src/gameManager.js&#45;&gt;src/keyboard.js -->
<g id="edge39" class="edge">
<title>src/gameManager.js&#45;&gt;src/keyboard.js</title>
<path fill="none" stroke="#757575" d="M164.35,-494.58C176.14,-535.52 217.64,-675.09 266,-784.8 328.56,-926.74 346.97,-962.07 432,-1091.8 442.9,-1108.43 456.84,-1126.08 467.62,-1139.09"/>
<polygon fill="#757575" stroke="#757575" points="465.07,-1141.5 474.18,-1146.92 470.43,-1137 465.07,-1141.5"/>
</g>
<!-- src/player/Player.js -->
<g id="node24" class="node">
<title>src/player/Player.js</title>
<path fill="none" stroke="#c6c5fe" d="M388.33,-775.3C388.33,-775.3 273.67,-775.3 273.67,-775.3 269.83,-775.3 266,-771.47 266,-767.63 266,-767.63 266,-759.97 266,-759.97 266,-756.13 269.83,-752.3 273.67,-752.3 273.67,-752.3 388.33,-752.3 388.33,-752.3 392.17,-752.3 396,-756.13 396,-759.97 396,-759.97 396,-767.63 396,-767.63 396,-771.47 392.17,-775.3 388.33,-775.3"/>
<text text-anchor="middle" x="331" y="-760.1" font-family="Arial" font-size="14.00" fill="#c6c5fe">src/player/Player.js</text>
</g>
<!-- src/gameManager.js&#45;&gt;src/player/Player.js -->
<g id="edge42" class="edge">
<title>src/gameManager.js&#45;&gt;src/player/Player.js</title>
<path fill="none" stroke="#757575" d="M168.05,-494.52C193.98,-537.63 284.3,-687.82 317.57,-743.14"/>
<polygon fill="#757575" stroke="#757575" points="314.77,-745.27 322.92,-752.04 320.77,-741.66 314.77,-745.27"/>
</g>
<!-- src/step.js -->
<g id="node25" class="node">
<title>src/step.js</title>
<path fill="none" stroke="#c6c5fe" d="M902.33,-893.3C902.33,-893.3 840.67,-893.3 840.67,-893.3 836.83,-893.3 833,-889.47 833,-885.63 833,-885.63 833,-877.97 833,-877.97 833,-874.13 836.83,-870.3 840.67,-870.3 840.67,-870.3 902.33,-870.3 902.33,-870.3 906.17,-870.3 910,-874.13 910,-877.97 910,-877.97 910,-885.63 910,-885.63 910,-889.47 906.17,-893.3 902.33,-893.3"/>
<text text-anchor="middle" x="871.5" y="-878.1" font-family="Arial" font-size="14.00" fill="#c6c5fe">src/step.js</text>
</g>
<!-- src/gameManager.js&#45;&gt;src/step.js -->
<g id="edge45" class="edge">
<title>src/gameManager.js&#45;&gt;src/step.js</title>
<path fill="none" stroke="#757575" d="M181.47,-494.31C281.9,-550.79 722.49,-798.57 841.04,-865.23"/>
<polygon fill="#757575" stroke="#757575" points="839.52,-868.39 849.95,-870.24 842.95,-862.29 839.52,-868.39"/>
</g>
<!-- src/startScreen.js&#45;&gt;src/music.js -->
<g id="edge63" class="edge">
<title>src/startScreen.js&#45;&gt;src/music.js</title>
<path fill="none" stroke="#757575" d="M391.51,-33.09C456.59,-33.39 563.97,-33.8 656.5,-33.8 656.5,-33.8 656.5,-33.8 1397,-33.8 1565.37,-33.8 1652.05,56.23 1775,-58.8 1819.2,-100.16 1799.98,-269.28 1811,-328.8 1841.01,-490.83 1892.25,-682.95 1909.57,-746.34"/>
<polygon fill="#757575" stroke="#757575" points="1906.21,-747.3 1912.23,-756.02 1912.96,-745.45 1906.21,-747.3"/>
</g>
<!-- src/Boss.js&#45;&gt;src/gameState.js -->
<g id="edge3" class="edge">
<title>src/Boss.js&#45;&gt;src/gameState.js</title>
<path fill="none" stroke="#757575" d="M1164.5,-417.34C1295.99,-398.09 1723.45,-351.49 2022,-503.8 2060.29,-523.33 2089.74,-565.75 2104.82,-591.23"/>
<polygon fill="#757575" stroke="#757575" points="2101.88,-593.14 2109.89,-600.08 2107.96,-589.66 2101.88,-593.14"/>
</g>
<!-- src/Boss.js&#45;&gt;src/levelCompleteScreen.js -->
<g id="edge4" class="edge">
<title>src/Boss.js&#45;&gt;src/levelCompleteScreen.js</title>
<path fill="none" stroke="#757575" d="M1128.07,-435.51C1142.64,-483.37 1199.01,-668.84 1244,-821.8 1260.31,-877.27 1255.71,-894.34 1280,-946.8 1307.7,-1006.63 1354.48,-1069.23 1378.97,-1100.14"/>
<polygon fill="#757575" stroke="#757575" points="1376.27,-1102.36 1385.25,-1107.99 1381.73,-1097.99 1376.27,-1102.36"/>
</g>
<!-- src/weapons/enemyRocketAtack.js -->
<g id="node7" class="node">
<title>src/weapons/enemyRocketAtack.js</title>
<path fill="none" stroke="#cfffac" d="M1767.33,-319.3C1767.33,-319.3 1555.67,-319.3 1555.67,-319.3 1551.83,-319.3 1548,-315.47 1548,-311.63 1548,-311.63 1548,-303.97 1548,-303.97 1548,-300.13 1551.83,-296.3 1555.67,-296.3 1555.67,-296.3 1767.33,-296.3 1767.33,-296.3 1771.17,-296.3 1775,-300.13 1775,-303.97 1775,-303.97 1775,-311.63 1775,-311.63 1775,-315.47 1771.17,-319.3 1767.33,-319.3"/>
<text text-anchor="middle" x="1661.5" y="-304.1" font-family="Arial" font-size="14.00" fill="#cfffac">src/weapons/enemyRocketAtack.js</text>
</g>
<!-- src/Boss.js&#45;&gt;src/weapons/enemyRocketAtack.js -->
<g id="edge5" class="edge">
<title>src/Boss.js&#45;&gt;src/weapons/enemyRocketAtack.js</title>
<path fill="none" stroke="#757575" d="M1164.79,-415.08C1257.34,-395.05 1485.71,-345.63 1597.21,-321.5"/>
<polygon fill="#757575" stroke="#757575" points="1598.27,-324.85 1607.3,-319.31 1596.79,-318.01 1598.27,-324.85"/>
</g>
<!-- src/weapons/gatling.js -->
<g id="node8" class="node">
<title>src/weapons/gatling.js</title>
<path fill="none" stroke="#c6c5fe" d="M1728.33,-819.3C1728.33,-819.3 1594.67,-819.3 1594.67,-819.3 1590.83,-819.3 1587,-815.47 1587,-811.63 1587,-811.63 1587,-803.97 1587,-803.97 1587,-800.13 1590.83,-796.3 1594.67,-796.3 1594.67,-796.3 1728.33,-796.3 1728.33,-796.3 1732.17,-796.3 1736,-800.13 1736,-803.97 1736,-803.97 1736,-811.63 1736,-811.63 1736,-815.47 1732.17,-819.3 1728.33,-819.3"/>
<text text-anchor="middle" x="1661.5" y="-804.1" font-family="Arial" font-size="14.00" fill="#c6c5fe">src/weapons/gatling.js</text>
</g>
<!-- src/Boss.js&#45;&gt;src/weapons/gatling.js -->
<g id="edge6" class="edge">
<title>src/Boss.js&#45;&gt;src/weapons/gatling.js</title>
<path fill="none" stroke="#757575" d="M1130.68,-435.63C1149.09,-469.89 1206.88,-570.57 1280,-629.8 1336.68,-675.72 1537.11,-758.56 1622.03,-792.59"/>
<polygon fill="#757575" stroke="#757575" points="1620.73,-795.84 1631.32,-796.3 1623.33,-789.34 1620.73,-795.84"/>
</g>
<!-- src/weapons/gatling.js&#45;&gt;src/gameState.js -->
<g id="edge76" class="edge">
<title>src/weapons/gatling.js&#45;&gt;src/gameState.js</title>
<path fill="none" stroke="#757575" d="M1711.51,-819.35C1785.24,-833.81 1926.22,-849.88 2022,-788.8 2077.8,-753.21 2102.58,-672.79 2111.62,-633.8"/>
<polygon fill="#757575" stroke="#757575" points="2115.15,-634.07 2113.86,-623.56 2108.31,-632.58 2115.15,-634.07"/>
</g>
<!-- src/weapons/gatling.js&#45;&gt;src/music.js -->
<g id="edge77" class="edge">
<title>src/weapons/gatling.js&#45;&gt;src/music.js</title>
<path fill="none" stroke="#757575" d="M1735.34,-796.29C1775.9,-789.87 1825.5,-782.03 1862.38,-776.2"/>
<polygon fill="#757575" stroke="#757575" points="1863.1,-779.63 1872.43,-774.61 1862.01,-772.72 1863.1,-779.63"/>
</g>
<!-- src/ammo.js&#45;&gt;src/weapons/gatling.js -->
<g id="edge7" class="edge">
<title>src/ammo.js&#45;&gt;src/weapons/gatling.js</title>
<path fill="none" stroke="#757575" d="M1441.7,-839.36C1478.62,-834.03 1532.06,-826.32 1576.88,-819.86"/>
<polygon fill="#757575" stroke="#757575" points="1577.5,-823.31 1586.89,-818.42 1576.5,-816.38 1577.5,-823.31"/>
</g>
<!-- src/weapons/rocket.js -->
<g id="node10" class="node">
<title>src/weapons/rocket.js</title>
<path fill="none" stroke="#c6c5fe" d="M1726.83,-1051.3C1726.83,-1051.3 1596.17,-1051.3 1596.17,-1051.3 1592.33,-1051.3 1588.5,-1047.47 1588.5,-1043.63 1588.5,-1043.63 1588.5,-1035.97 1588.5,-1035.97 1588.5,-1032.13 1592.33,-1028.3 1596.17,-1028.3 1596.17,-1028.3 1726.83,-1028.3 1726.83,-1028.3 1730.67,-1028.3 1734.5,-1032.13 1734.5,-1035.97 1734.5,-1035.97 1734.5,-1043.63 1734.5,-1043.63 1734.5,-1047.47 1730.67,-1051.3 1726.83,-1051.3"/>
<text text-anchor="middle" x="1661.5" y="-1036.1" font-family="Arial" font-size="14.00" fill="#c6c5fe">src/weapons/rocket.js</text>
</g>
<!-- src/ammo.js&#45;&gt;src/weapons/rocket.js -->
<g id="edge8" class="edge">
<title>src/ammo.js&#45;&gt;src/weapons/rocket.js</title>
<path fill="none" stroke="#757575" d="M1423.66,-857.36C1447.69,-868.31 1483.53,-886.01 1512,-905.8 1563.12,-941.34 1615.48,-992.83 1642.26,-1020.5"/>
<polygon fill="#757575" stroke="#757575" points="1639.97,-1023.16 1649.42,-1027.95 1645.02,-1018.31 1639.97,-1023.16"/>
</g>
<!-- src/weapons/rocket.js&#45;&gt;src/rendering/Helpers.js -->
<g id="edge80" class="edge">
<title>src/weapons/rocket.js&#45;&gt;src/rendering/Helpers.js</title>
<path fill="none" stroke="#757575" d="M1734.66,-1034.38C1763.27,-1032.23 1796.45,-1029.74 1826.52,-1027.48"/>
<polygon fill="#757575" stroke="#757575" points="1826.88,-1030.97 1836.59,-1026.73 1826.36,-1023.99 1826.88,-1030.97"/>
</g>
<!-- src/collisions/collisionHandlers.js -->
<g id="node12" class="node">
<title>src/collisions/collisionHandlers.js</title>
<path fill="none" stroke="#c6c5fe" d="M1494.33,-937.3C1494.33,-937.3 1297.67,-937.3 1297.67,-937.3 1293.83,-937.3 1290,-933.47 1290,-929.63 1290,-929.63 1290,-921.97 1290,-921.97 1290,-918.13 1293.83,-914.3 1297.67,-914.3 1297.67,-914.3 1494.33,-914.3 1494.33,-914.3 1498.17,-914.3 1502,-918.13 1502,-921.97 1502,-921.97 1502,-929.63 1502,-929.63 1502,-933.47 1498.17,-937.3 1494.33,-937.3"/>
<text text-anchor="middle" x="1396" y="-922.1" font-family="Arial" font-size="14.00" fill="#c6c5fe">src/collisions/collisionHandlers.js</text>
</g>
<!-- src/collisions/collisionHandlers.js&#45;&gt;src/gameState.js -->
<g id="edge9" class="edge">
<title>src/collisions/collisionHandlers.js&#45;&gt;src/gameState.js</title>
<path fill="none" stroke="#757575" d="M1494.56,-937.32C1628.41,-947.59 1869.71,-945.61 2022,-823.8 2083.32,-774.76 2105.76,-677.4 2112.98,-633.81"/>
<polygon fill="#757575" stroke="#757575" points="2116.47,-634.13 2114.53,-623.71 2109.55,-633.06 2116.47,-634.13"/>
</g>
<!-- src/collisions/collisionHandlers.js&#45;&gt;src/weapons/gatling.js -->
<g id="edge14" class="edge">
<title>src/collisions/collisionHandlers.js&#45;&gt;src/weapons/gatling.js</title>
<path fill="none" stroke="#757575" d="M1483.08,-914.22C1493.36,-910.6 1503.28,-905.91 1512,-899.8 1536.24,-882.83 1524.53,-861.82 1548,-843.8 1560.08,-834.53 1574.61,-827.61 1589.16,-822.46"/>
<polygon fill="#757575" stroke="#757575" points="1590.29,-825.77 1598.7,-819.32 1588.1,-819.12 1590.29,-825.77"/>
</g>
<!-- src/collisions/collisionHandlers.js&#45;&gt;src/weapons/rocket.js -->
<g id="edge15" class="edge">
<title>src/collisions/collisionHandlers.js&#45;&gt;src/weapons/rocket.js</title>
<path fill="none" stroke="#757575" d="M1418.92,-937.32C1442.28,-949.76 1480.21,-970.4 1512,-989.8 1528.41,-999.82 1530.35,-1006.18 1548,-1013.8 1558.93,-1018.52 1570.84,-1022.45 1582.69,-1025.7"/>
<polygon fill="#757575" stroke="#757575" points="1582.04,-1029.15 1592.6,-1028.27 1583.8,-1022.37 1582.04,-1029.15"/>
</g>
<!-- src/collisions/collisionHandlers.js&#45;&gt;src/music.js -->
<g id="edge10" class="edge">
<title>src/collisions/collisionHandlers.js&#45;&gt;src/music.js</title>
<path fill="none" stroke="#757575" d="M1450.07,-914.28C1469.58,-909.92 1491.83,-904.8 1512,-899.8 1629.52,-870.67 1660.72,-868.79 1775,-828.8 1812.5,-815.68 1854.07,-797.1 1882.2,-783.9"/>
<polygon fill="#757575" stroke="#757575" points="1884.02,-786.91 1891.56,-779.47 1881.03,-780.59 1884.02,-786.91"/>
</g>
<!-- src/rendering/Explosion.js -->
<g id="node14" class="node">
<title>src/rendering/Explosion.js</title>
<path fill="none" stroke="#cfffac" d="M1739.33,-739.3C1739.33,-739.3 1583.67,-739.3 1583.67,-739.3 1579.83,-739.3 1576,-735.47 1576,-731.63 1576,-731.63 1576,-723.97 1576,-723.97 1576,-720.13 1579.83,-716.3 1583.67,-716.3 1583.67,-716.3 1739.33,-716.3 1739.33,-716.3 1743.17,-716.3 1747,-720.13 1747,-723.97 1747,-723.97 1747,-731.63 1747,-731.63 1747,-735.47 1743.17,-739.3 1739.33,-739.3"/>
<text text-anchor="middle" x="1661.5" y="-724.1" font-family="Arial" font-size="14.00" fill="#cfffac">src/rendering/Explosion.js</text>
</g>
<!-- src/collisions/collisionHandlers.js&#45;&gt;src/rendering/Explosion.js -->
<g id="edge11" class="edge">
<title>src/collisions/collisionHandlers.js&#45;&gt;src/rendering/Explosion.js</title>
<path fill="none" stroke="#757575" d="M1433.61,-914.23C1458.41,-904.82 1490.46,-889.36 1512,-866.8 1538.64,-838.89 1521.58,-815.92 1548,-787.8 1566.77,-767.83 1593.69,-753.14 1616.5,-743.3"/>
<polygon fill="#757575" stroke="#757575" points="1618.08,-746.43 1625.99,-739.37 1615.41,-739.96 1618.08,-746.43"/>
</g>
<!-- src/collisions/collisionHandlers.js&#45;&gt;src/rendering/Helpers.js -->
<g id="edge12" class="edge">
<title>src/collisions/collisionHandlers.js&#45;&gt;src/rendering/Helpers.js</title>
<path fill="none" stroke="#757575" d="M1459.8,-937.31C1556.21,-954.97 1740.24,-988.69 1842.47,-1007.42"/>
<polygon fill="#757575" stroke="#757575" points="1841.93,-1010.88 1852.4,-1009.24 1843.2,-1004 1841.93,-1010.88"/>
</g>
<!-- src/collisions/collisionHandlers.js&#45;&gt;src/scores/scores.js -->
<g id="edge13" class="edge">
<title>src/collisions/collisionHandlers.js&#45;&gt;src/scores/scores.js</title>
<path fill="none" stroke="#757575" d="M1443.07,-914.27C1467.84,-905.53 1496.43,-890.8 1512,-866.8 1592.07,-743.4 1459.47,-323.29 1548,-205.8 1557.05,-193.8 1570.03,-185.46 1583.99,-179.69"/>
<polygon fill="#757575" stroke="#757575" points="1585.59,-182.83 1593.77,-176.08 1583.17,-176.26 1585.59,-182.83"/>
</g>
<!-- src/scores/currentGameScore.js -->
<g id="node31" class="node">
<title>src/scores/currentGameScore.js</title>
<path fill="none" stroke="#c6c5fe" d="M2014.33,-319.3C2014.33,-319.3 1818.67,-319.3 1818.67,-319.3 1814.83,-319.3 1811,-315.47 1811,-311.63 1811,-311.63 1811,-303.97 1811,-303.97 1811,-300.13 1814.83,-296.3 1818.67,-296.3 1818.67,-296.3 2014.33,-296.3 2014.33,-296.3 2018.17,-296.3 2022,-300.13 2022,-303.97 2022,-303.97 2022,-311.63 2022,-311.63 2022,-315.47 2018.17,-319.3 2014.33,-319.3"/>
<text text-anchor="middle" x="1916.5" y="-304.1" font-family="Arial" font-size="14.00" fill="#c6c5fe">src/scores/currentGameScore.js</text>
</g>
<!-- src/scores/scores.js&#45;&gt;src/scores/currentGameScore.js -->
<g id="edge62" class="edge">
<title>src/scores/scores.js&#45;&gt;src/scores/currentGameScore.js</title>
<path fill="none" stroke="#757575" d="M1705.13,-178.33C1726.7,-184.96 1752.92,-194.28 1775,-205.8 1820.82,-229.7 1868.28,-267.34 1894.64,-289.59"/>
<polygon fill="#757575" stroke="#757575" points="1892.55,-292.41 1902.42,-296.24 1897.09,-287.09 1892.55,-292.41"/>
</g>
<!-- src/collisions/collisions.js -->
<g id="node17" class="node">
<title>src/collisions/collisions.js</title>
<path fill="none" stroke="#c6c5fe" d="M1198.33,-971.3C1198.33,-971.3 1048.67,-971.3 1048.67,-971.3 1044.83,-971.3 1041,-967.47 1041,-963.63 1041,-963.63 1041,-955.97 1041,-955.97 1041,-952.13 1044.83,-948.3 1048.67,-948.3 1048.67,-948.3 1198.33,-948.3 1198.33,-948.3 1202.17,-948.3 1206,-952.13 1206,-955.97 1206,-955.97 1206,-963.63 1206,-963.63 1206,-967.47 1202.17,-971.3 1198.33,-971.3"/>
<text text-anchor="middle" x="1123.5" y="-956.1" font-family="Arial" font-size="14.00" fill="#c6c5fe">src/collisions/collisions.js</text>
</g>
<!-- src/collisions/collisions.js&#45;&gt;src/gameState.js -->
<g id="edge17" class="edge">
<title>src/collisions/collisions.js&#45;&gt;src/gameState.js</title>
<path fill="none" stroke="#757575" d="M1206.03,-965.15C1404.43,-976.33 1904.71,-992.87 2022,-884.8 2096.7,-815.98 2112.04,-685.07 2115.19,-633.48"/>
<polygon fill="#757575" stroke="#757575" points="2118.68,-633.62 2115.7,-623.46 2111.69,-633.26 2118.68,-633.62"/>
</g>
<!-- src/collisions/collisions.js&#45;&gt;src/weapons/gatling.js -->
<g id="edge18" class="edge">
<title>src/collisions/collisions.js&#45;&gt;src/weapons/gatling.js</title>
<path fill="none" stroke="#757575" d="M1158.55,-948.28C1182.48,-940.14 1215.24,-928.93 1244,-918.8 1260.05,-913.15 1263.55,-910.12 1280,-905.8 1381.14,-879.27 1414.42,-904.37 1512,-866.8 1529.72,-859.98 1530.81,-851.87 1548,-843.8 1566.17,-835.27 1586.9,-827.99 1605.57,-822.27"/>
<polygon fill="#757575" stroke="#757575" points="1606.83,-825.54 1615.41,-819.33 1604.83,-818.84 1606.83,-825.54"/>
</g>
<!-- src/collisions/collisions.js&#45;&gt;src/weapons/rocket.js -->
<g id="edge19" class="edge">
<title>src/collisions/collisions.js&#45;&gt;src/weapons/rocket.js</title>
<path fill="none" stroke="#757575" d="M1201.58,-971.31C1301.67,-986.24 1475.65,-1012.21 1578.22,-1027.52"/>
<polygon fill="#757575" stroke="#757575" points="1577.82,-1031 1588.22,-1029.01 1578.85,-1024.08 1577.82,-1031"/>
</g>
<!-- src/collisions/collisions.js&#45;&gt;src/collisions/collisionHandlers.js -->
<g id="edge16" class="edge">
<title>src/collisions/collisions.js&#45;&gt;src/collisions/collisionHandlers.js</title>
<path fill="none" stroke="#757575" d="M1206.03,-949.55C1233.44,-946.11 1264.37,-942.22 1293.15,-938.6"/>
<polygon fill="#757575" stroke="#757575" points="1293.74,-942.06 1303.23,-937.34 1292.87,-935.11 1293.74,-942.06"/>
</g>
<!-- src/enemy/enemy.js&#45;&gt;src/gameState.js -->
<g id="edge20" class="edge">
<title>src/enemy/enemy.js&#45;&gt;src/gameState.js</title>
<path fill="none" stroke="#757575" d="M1464.67,-575.69C1579.52,-576.06 1819.82,-579.25 2022,-597.8 2030.38,-598.57 2039.16,-599.59 2047.84,-600.73"/>
<polygon fill="#757575" stroke="#757575" points="2047.58,-604.22 2057.96,-602.11 2048.52,-597.29 2047.58,-604.22"/>
</g>
<!-- src/enemy/enemy.js&#45;&gt;src/music.js -->
<g id="edge21" class="edge">
<title>src/enemy/enemy.js&#45;&gt;src/music.js</title>
<path fill="none" stroke="#757575" d="M1464.6,-585.99C1542.15,-599.31 1671.86,-626.7 1775,-673.8 1820.29,-694.49 1867.25,-729.03 1893.78,-749.99"/>
<polygon fill="#757575" stroke="#757575" points="1891.65,-752.77 1901.65,-756.28 1896.03,-747.3 1891.65,-752.77"/>
</g>
<!-- src/enemy/enemy.js&#45;&gt;src/rendering/Explosion.js -->
<g id="edge22" class="edge">
<title>src/enemy/enemy.js&#45;&gt;src/rendering/Explosion.js</title>
<path fill="none" stroke="#757575" d="M1464.63,-579.62C1481.7,-583.46 1498.89,-590.21 1512,-601.8 1547.39,-633.08 1512.68,-670.44 1548,-701.8 1553.51,-706.7 1559.76,-710.72 1566.43,-714.03"/>
<polygon fill="#757575" stroke="#757575" points="1565.17,-717.3 1575.74,-718.1 1567.98,-710.89 1565.17,-717.3"/>
</g>
<!-- src/enemy/enemy.js&#45;&gt;src/rendering/Helpers.js -->
<g id="edge23" class="edge">
<title>src/enemy/enemy.js&#45;&gt;src/rendering/Helpers.js</title>
<path fill="none" stroke="#757575" d="M1464.76,-582.67C1481.17,-586.54 1498,-592.54 1512,-601.8 1534.84,-616.91 1525.31,-636.47 1548,-651.8 1634.1,-709.99 1695.34,-641.08 1775,-707.8 1805.2,-733.1 1794.91,-752.84 1811,-788.8 1845.93,-866.86 1887.79,-959.54 1906.12,-1000.08"/>
<polygon fill="#757575" stroke="#757575" points="1902.95,-1001.55 1910.26,-1009.22 1909.33,-998.67 1902.95,-1001.55"/>
</g>
<!-- src/enemy/enemyFactory.js -->
<g id="node19" class="node">
<title>src/enemy/enemyFactory.js</title>
<path fill="none" stroke="#c6c5fe" d="M1206.83,-298.3C1206.83,-298.3 1040.17,-298.3 1040.17,-298.3 1036.33,-298.3 1032.5,-294.47 1032.5,-290.63 1032.5,-290.63 1032.5,-282.97 1032.5,-282.97 1032.5,-279.13 1036.33,-275.3 1040.17,-275.3 1040.17,-275.3 1206.83,-275.3 1206.83,-275.3 1210.67,-275.3 1214.5,-279.13 1214.5,-282.97 1214.5,-282.97 1214.5,-290.63 1214.5,-290.63 1214.5,-294.47 1210.67,-298.3 1206.83,-298.3"/>
<text text-anchor="middle" x="1123.5" y="-283.1" font-family="Arial" font-size="14.00" fill="#c6c5fe">src/enemy/enemyFactory.js</text>
</g>
<!-- src/enemy/enemyFactory.js&#45;&gt;src/weapons/enemyRocketAtack.js -->
<g id="edge27" class="edge">
<title>src/enemy/enemyFactory.js&#45;&gt;src/weapons/enemyRocketAtack.js</title>
<path fill="none" stroke="#757575" d="M1214.52,-290.33C1303.16,-293.8 1439.23,-299.13 1537.76,-302.99"/>
<polygon fill="#757575" stroke="#757575" points="1537.64,-306.49 1547.77,-303.39 1537.92,-299.5 1537.64,-306.49"/>
</g>
<!-- src/enemy/enemyFactory.js&#45;&gt;src/scores/scores.js -->
<g id="edge26" class="edge">
<title>src/enemy/enemyFactory.js&#45;&gt;src/scores/scores.js</title>
<path fill="none" stroke="#757575" d="M1141.3,-275.3C1168.87,-257.07 1226.06,-221.97 1280,-205.8 1381.97,-175.24 1505.43,-167.66 1583.49,-166.27"/>
<polygon fill="#757575" stroke="#757575" points="1583.77,-169.76 1593.72,-166.11 1583.67,-162.76 1583.77,-169.76"/>
</g>
<!-- src/enemy/enemyFactory.js&#45;&gt;src/enemy/enemy.js -->
<g id="edge24" class="edge">
<title>src/enemy/enemyFactory.js&#45;&gt;src/enemy/enemy.js</title>
<path fill="none" stroke="#757575" d="M1145.49,-298.46C1170.64,-313.06 1213.25,-339.83 1244,-369.8 1305.18,-429.44 1359.8,-516 1383.08,-555.17"/>
<polygon fill="#757575" stroke="#757575" points="1380.22,-557.22 1388.31,-564.06 1386.26,-553.67 1380.22,-557.22"/>
</g>
<!-- src/enemy/enemyManoeuvre.js -->
<g id="node20" class="node">
<title>src/enemy/enemyManoeuvre.js</title>
<path fill="none" stroke="#c6c5fe" d="M1491.33,-238.3C1491.33,-238.3 1300.67,-238.3 1300.67,-238.3 1296.83,-238.3 1293,-234.47 1293,-230.63 1293,-230.63 1293,-222.97 1293,-222.97 1293,-219.13 1296.83,-215.3 1300.67,-215.3 1300.67,-215.3 1491.33,-215.3 1491.33,-215.3 1495.17,-215.3 1499,-219.13 1499,-222.97 1499,-222.97 1499,-230.63 1499,-230.63 1499,-234.47 1495.17,-238.3 1491.33,-238.3"/>
<text text-anchor="middle" x="1396" y="-223.1" font-family="Arial" font-size="14.00" fill="#c6c5fe">src/enemy/enemyManoeuvre.js</text>
</g>
<!-- src/enemy/enemyFactory.js&#45;&gt;src/enemy/enemyManoeuvre.js -->
<g id="edge25" class="edge">
<title>src/enemy/enemyFactory.js&#45;&gt;src/enemy/enemyManoeuvre.js</title>
<path fill="none" stroke="#757575" d="M1165.54,-275.29C1196.77,-266.77 1240.89,-255.22 1280,-246.8 1290.8,-244.48 1302.22,-242.23 1313.5,-240.15"/>
<polygon fill="#757575" stroke="#757575" points="1314.15,-243.59 1323.36,-238.35 1312.9,-236.7 1314.15,-243.59"/>
</g>
<!-- src/weapons/groundEnemyAttack.js -->
<g id="node21" class="node">
<title>src/weapons/groundEnemyAttack.js</title>
<path fill="none" stroke="#c6c5fe" d="M1504.33,-279.3C1504.33,-279.3 1287.67,-279.3 1287.67,-279.3 1283.83,-279.3 1280,-275.47 1280,-271.63 1280,-271.63 1280,-263.97 1280,-263.97 1280,-260.13 1283.83,-256.3 1287.67,-256.3 1287.67,-256.3 1504.33,-256.3 1504.33,-256.3 1508.17,-256.3 1512,-260.13 1512,-263.97 1512,-263.97 1512,-271.63 1512,-271.63 1512,-275.47 1508.17,-279.3 1504.33,-279.3"/>
<text text-anchor="middle" x="1396" y="-264.1" font-family="Arial" font-size="14.00" fill="#c6c5fe">src/weapons/groundEnemyAttack.js</text>
</g>
<!-- src/enemy/enemyFactory.js&#45;&gt;src/weapons/groundEnemyAttack.js -->
<g id="edge28" class="edge">
<title>src/enemy/enemyFactory.js&#45;&gt;src/weapons/groundEnemyAttack.js</title>
<path fill="none" stroke="#757575" d="M1214.57,-280.47C1232.29,-279.23 1251.18,-277.9 1269.81,-276.6"/>
<polygon fill="#757575" stroke="#757575" points="1270.09,-280.08 1279.82,-275.89 1269.6,-273.1 1270.09,-280.08"/>
</g>
<!-- src/enemy/enemyManoeuvre.js&#45;&gt;src/background.js -->
<g id="edge32" class="edge">
<title>src/enemy/enemyManoeuvre.js&#45;&gt;src/background.js</title>
<path fill="none" stroke="#757575" d="M1499.25,-226.8C1529.66,-226.8 1562.28,-226.8 1590.16,-226.8"/>
<polygon fill="#757575" stroke="#757575" points="1590.21,-230.3 1600.21,-226.8 1590.21,-223.3 1590.21,-230.3"/>
</g>
<!-- src/weapons/groundEnemyAttack.js&#45;&gt;src/gameState.js -->
<g id="edge78" class="edge">
<title>src/weapons/groundEnemyAttack.js&#45;&gt;src/gameState.js</title>
<path fill="none" stroke="#757575" d="M1512.3,-264.29C1681.9,-260.19 1982.88,-257.42 2022,-287.8 2071.09,-325.92 2103.39,-523.5 2113,-589.96"/>
<polygon fill="#757575" stroke="#757575" points="2109.57,-590.71 2114.44,-600.12 2116.5,-589.73 2109.57,-590.71"/>
</g>
<!-- src/weapons/groundEnemyAttack.js&#45;&gt;src/weapons/enemyRocketAtack.js -->
<g id="edge79" class="edge">
<title>src/weapons/groundEnemyAttack.js&#45;&gt;src/weapons/enemyRocketAtack.js</title>
<path fill="none" stroke="#757575" d="M1472.86,-279.32C1504.69,-284.15 1541.86,-289.79 1574.68,-294.77"/>
<polygon fill="#757575" stroke="#757575" points="1574.31,-298.26 1584.72,-296.3 1575.36,-291.34 1574.31,-298.26"/>
</g>
<!-- src/enemy/enemyManager.js&#45;&gt;src/gameState.js -->
<g id="edge30" class="edge">
<title>src/enemy/enemyManager.js&#45;&gt;src/gameState.js</title>
<path fill="none" stroke="#757575" d="M967.29,-357.34C1211.39,-340.06 1854.21,-307.33 2022,-426.8 2078.33,-466.91 2103.04,-550.88 2111.87,-590.39"/>
<polygon fill="#757575" stroke="#757575" points="2108.47,-591.22 2113.96,-600.28 2115.32,-589.77 2108.47,-591.22"/>
</g>
<!-- src/enemy/enemyManager.js&#45;&gt;src/weapons/gatling.js -->
<g id="edge31" class="edge">
<title>src/enemy/enemyManager.js&#45;&gt;src/weapons/gatling.js</title>
<path fill="none" stroke="#757575" d="M967.26,-362.31C1063.88,-361.89 1204.99,-367.78 1244,-403.8 1308.11,-462.99 1216.98,-536.45 1280,-596.8 1355.21,-668.84 1432.96,-561.98 1512,-629.8 1553.93,-665.78 1512.79,-706.21 1548,-748.8 1564.66,-768.96 1590.02,-783.1 1612.45,-792.47"/>
<polygon fill="#757575" stroke="#757575" points="1611.26,-795.77 1621.84,-796.2 1613.84,-789.26 1611.26,-795.77"/>
</g>
<!-- src/enemy/enemyManager.js&#45;&gt;src/enemy/enemyFactory.js -->
<g id="edge29" class="edge">
<title>src/enemy/enemyManager.js&#45;&gt;src/enemy/enemyFactory.js</title>
<path fill="none" stroke="#757575" d="M909.39,-353.29C953.61,-339.5 1027.76,-316.36 1075.9,-301.34"/>
<polygon fill="#757575" stroke="#757575" points="1076.96,-304.68 1085.46,-298.36 1074.87,-298 1076.96,-304.68"/>
</g>
<!-- src/keyboard.js&#45;&gt;src/gameState.js -->
<g id="edge51" class="edge">
<title>src/keyboard.js&#45;&gt;src/gameState.js</title>
<path fill="none" stroke="#757575" d="M495.73,-1170.44C510.48,-1188.18 541.16,-1221.72 575,-1238.8 796.64,-1350.69 874.22,-1349.8 1122.5,-1349.8 1122.5,-1349.8 1122.5,-1349.8 1662.5,-1349.8 1849.59,-1349.8 1916.14,-1285.06 2022,-1130.8 2079.21,-1047.44 2107.66,-721.73 2114.4,-633.79"/>
<polygon fill="#757575" stroke="#757575" points="2117.91,-633.87 2115.17,-623.63 2110.93,-633.34 2117.91,-633.87"/>
</g>
<!-- src/keyboard.js&#45;&gt;src/weapons/rocket.js -->
<g id="edge54" class="edge">
<title>src/keyboard.js&#45;&gt;src/weapons/rocket.js</title>
<path fill="none" stroke="#757575" d="M528.78,-1170.32C672.72,-1207.31 1154.59,-1312.82 1512,-1173.8 1571.8,-1150.54 1622.63,-1091.06 1646.29,-1059.75"/>
<polygon fill="#757575" stroke="#757575" points="1649.36,-1061.49 1652.49,-1051.37 1643.73,-1057.33 1649.36,-1061.49"/>
</g>
<!-- src/keyboard.js&#45;&gt;src/music.js -->
<g id="edge52" class="edge">
<title>src/keyboard.js&#45;&gt;src/music.js</title>
<path fill="none" stroke="#757575" d="M502.24,-1170.49C519.27,-1182.54 547.68,-1200.92 575,-1210.8 660.13,-1241.59 685.93,-1234.66 776,-1243.8 1101.67,-1276.87 1198.65,-1310.51 1512,-1215.8 1636.25,-1178.25 1686.08,-1183.37 1775,-1088.8 1803.95,-1058.02 1794.35,-1039.64 1811,-1000.8 1844.81,-921.92 1887.25,-829.09 1905.93,-788.53"/>
<polygon fill="#757575" stroke="#757575" points="1909.13,-789.93 1910.14,-779.38 1902.78,-786.99 1909.13,-789.93"/>
</g>
<!-- src/gameMenuActions.js -->
<g id="node26" class="node">
<title>src/gameMenuActions.js</title>
<path fill="none" stroke="#c6c5fe" d="M732.33,-1170.3C732.33,-1170.3 582.67,-1170.3 582.67,-1170.3 578.83,-1170.3 575,-1166.47 575,-1162.63 575,-1162.63 575,-1154.97 575,-1154.97 575,-1151.13 578.83,-1147.3 582.67,-1147.3 582.67,-1147.3 732.33,-1147.3 732.33,-1147.3 736.17,-1147.3 740,-1151.13 740,-1154.97 740,-1154.97 740,-1162.63 740,-1162.63 740,-1166.47 736.17,-1170.3 732.33,-1170.3"/>
<text text-anchor="middle" x="657.5" y="-1155.1" font-family="Arial" font-size="14.00" fill="#c6c5fe">src/gameMenuActions.js</text>
</g>
<!-- src/keyboard.js&#45;&gt;src/gameMenuActions.js -->
<g id="edge50" class="edge">
<title>src/keyboard.js&#45;&gt;src/gameMenuActions.js</title>
<path fill="none" stroke="#757575" d="M539.36,-1158.8C547.48,-1158.8 556.07,-1158.8 564.75,-1158.8"/>
<polygon fill="#757575" stroke="#757575" points="564.96,-1162.3 574.96,-1158.8 564.96,-1155.3 564.96,-1162.3"/>
</g>
<!-- src/touch.js -->
<g id="node28" class="node">
<title>src/touch.js</title>
<path fill="none" stroke="#c6c5fe" d="M692.33,-1129.3C692.33,-1129.3 622.67,-1129.3 622.67,-1129.3 618.83,-1129.3 615,-1125.47 615,-1121.63 615,-1121.63 615,-1113.97 615,-1113.97 615,-1110.13 618.83,-1106.3 622.67,-1106.3 622.67,-1106.3 692.33,-1106.3 692.33,-1106.3 696.17,-1106.3 700,-1110.13 700,-1113.97 700,-1113.97 700,-1121.63 700,-1121.63 700,-1125.47 696.17,-1129.3 692.33,-1129.3"/>
<text text-anchor="middle" x="657.5" y="-1114.1" font-family="Arial" font-size="14.00" fill="#c6c5fe">src/touch.js</text>
</g>
<!-- src/keyboard.js&#45;&gt;src/touch.js -->
<g id="edge53" class="edge">
<title>src/keyboard.js&#45;&gt;src/touch.js</title>
<path fill="none" stroke="#757575" d="M534.31,-1147.27C556.28,-1141.97 582.38,-1135.68 604.81,-1130.27"/>
<polygon fill="#757575" stroke="#757575" points="605.93,-1133.6 614.83,-1127.85 604.28,-1126.79 605.93,-1133.6"/>
</g>
<!-- src/player/Player.js&#45;&gt;src/gameState.js -->
<g id="edge56" class="edge">
<title>src/player/Player.js&#45;&gt;src/gameState.js</title>
<path fill="none" stroke="#757575" d="M370.33,-752.25C497.95,-714.46 920.68,-594.76 1280,-555.8 1382.51,-544.69 1408.92,-553.38 1512,-555.8 1738.85,-561.14 1799.06,-537.49 2022,-579.8 2041.25,-583.46 2061.95,-590.18 2079,-596.52"/>
<polygon fill="#757575" stroke="#757575" points="2077.99,-599.88 2088.58,-600.18 2080.49,-593.34 2077.99,-599.88"/>
</g>
<!-- src/player/Player.js&#45;&gt;src/weapons/gatling.js -->
<g id="edge59" class="edge">
<title>src/player/Player.js&#45;&gt;src/weapons/gatling.js</title>
<path fill="none" stroke="#757575" d="M396.03,-763.8C461.49,-763.8 566.08,-763.8 656.5,-763.8 656.5,-763.8 656.5,-763.8 872.5,-763.8 1156.86,-763.8 1228.94,-756.62 1512,-783.8 1537.7,-786.27 1565.71,-790.41 1590.4,-794.57"/>
<polygon fill="#757575" stroke="#757575" points="1589.95,-798.04 1600.4,-796.28 1591.13,-791.14 1589.95,-798.04"/>
</g>
<!-- src/player/Player.js&#45;&gt;src/weapons/rocket.js -->
<g id="edge60" class="edge">
<title>src/player/Player.js&#45;&gt;src/weapons/rocket.js</title>
<path fill="none" stroke="#757575" d="M385.85,-775.31C389.4,-776.91 392.82,-778.73 396,-780.8 417.45,-794.79 411.88,-809.95 432,-825.8 487.14,-869.23 510.77,-864.51 575,-892.8 663.45,-931.76 686.06,-940.41 776,-975.8 876.25,-1015.25 898.87,-1033.17 1003,-1060.8 1107.88,-1088.63 1149.06,-1047.27 1244,-1099.8 1265.22,-1111.54 1257.91,-1130.8 1280,-1140.8 1373.93,-1183.33 1413.45,-1171.14 1512,-1140.8 1564.39,-1124.67 1614.86,-1083.06 1641.34,-1058.58"/>
<polygon fill="#757575" stroke="#757575" points="1643.89,-1060.98 1648.76,-1051.57 1639.09,-1055.89 1643.89,-1060.98"/>
</g>
<!-- src/player/Player.js&#45;&gt;src/music.js -->
<g id="edge58" class="edge">
<title>src/player/Player.js&#45;&gt;src/music.js</title>
<path fill="none" stroke="#757575" d="M396.32,-761.09C482.67,-757.6 640.86,-751.77 776,-749.8 1194.38,-743.72 1699.16,-759.97 1862.06,-765.81"/>
<polygon fill="#757575" stroke="#757575" points="1862.17,-769.31 1872.29,-766.18 1862.43,-762.32 1862.17,-769.31"/>
</g>
<!-- src/player/Player.js&#45;&gt;src/keyboard.js -->
<g id="edge57" class="edge">
<title>src/player/Player.js&#45;&gt;src/keyboard.js</title>
<path fill="none" stroke="#757575" d="M335.84,-775.73C345.92,-807.11 373.89,-894.6 396,-967.8 412.59,-1022.74 405.83,-1040.73 432,-1091.8 440.96,-1109.28 454.76,-1126.66 465.97,-1139.35"/>
<polygon fill="#757575" stroke="#757575" points="463.56,-1141.9 472.88,-1146.95 468.75,-1137.2 463.56,-1141.9"/>
</g>
<!-- src/gameOver.js -->
<g id="node27" class="node">
<title>src/gameOver.js</title>
<path fill="none" stroke="#c6c5fe" d="M1173.83,-1051.3C1173.83,-1051.3 1073.17,-1051.3 1073.17,-1051.3 1069.33,-1051.3 1065.5,-1047.47 1065.5,-1043.63 1065.5,-1043.63 1065.5,-1035.97 1065.5,-1035.97 1065.5,-1032.13 1069.33,-1028.3 1073.17,-1028.3 1073.17,-1028.3 1173.83,-1028.3 1173.83,-1028.3 1177.67,-1028.3 1181.5,-1032.13 1181.5,-1035.97 1181.5,-1035.97 1181.5,-1043.63 1181.5,-1043.63 1181.5,-1047.47 1177.67,-1051.3 1173.83,-1051.3"/>
<text text-anchor="middle" x="1123.5" y="-1036.1" font-family="Arial" font-size="14.00" fill="#c6c5fe">src/gameOver.js</text>
</g>
<!-- src/player/Player.js&#45;&gt;src/gameOver.js -->
<g id="edge55" class="edge">
<title>src/player/Player.js&#45;&gt;src/gameOver.js</title>
<path fill="none" stroke="#757575" d="M377.62,-775.31C383.82,-777.05 390.09,-778.91 396,-780.8 670.58,-868.81 727.83,-923.67 1003,-1009.8 1021.69,-1015.65 1042.29,-1021.15 1061.05,-1025.81"/>
<polygon fill="#757575" stroke="#757575" points="1060.42,-1029.26 1070.97,-1028.23 1062.08,-1022.46 1060.42,-1029.26"/>
</g>
<!-- src/step.js&#45;&gt;src/gameState.js -->
<g id="edge69" class="edge">
<title>src/step.js&#45;&gt;src/gameState.js</title>
<path fill="none" stroke="#757575" d="M884.24,-870.18C905.75,-849.64 953.81,-807.17 1003,-786.8 1375.29,-632.64 1869.12,-613.26 2047.82,-611.58"/>
<polygon fill="#757575" stroke="#757575" points="2047.89,-615.08 2057.87,-611.5 2047.84,-608.08 2047.89,-615.08"/>
</g>
<!-- src/step.js&#45;&gt;src/weapons/gatling.js -->
<g id="edge73" class="edge">
<title>src/step.js&#45;&gt;src/weapons/gatling.js</title>
<path fill="none" stroke="#757575" d="M891.08,-870.27C915.62,-855.75 960.72,-831.53 1003,-821.8 1204.77,-775.38 1450.6,-787.7 1576.83,-798.83"/>
<polygon fill="#757575" stroke="#757575" points="1576.55,-802.32 1586.82,-799.74 1577.18,-795.35 1576.55,-802.32"/>
</g>
<!-- src/step.js&#45;&gt;src/ammo.js -->
<g id="edge64" class="edge">
<title>src/step.js&#45;&gt;src/ammo.js</title>
<path fill="none" stroke="#757575" d="M910.17,-891.14C978.45,-906.35 1126.48,-931.38 1244,-895.8 1262.4,-890.23 1262.33,-879.38 1280,-871.8 1298.98,-863.66 1320.87,-857.9 1340.42,-853.9"/>
<polygon fill="#757575" stroke="#757575" points="1341.25,-857.31 1350.4,-851.97 1339.92,-850.43 1341.25,-857.31"/>
</g>
<!-- src/step.js&#45;&gt;src/weapons/rocket.js -->
<g id="edge74" class="edge">
<title>src/step.js&#45;&gt;src/weapons/rocket.js</title>
<path fill="none" stroke="#757575" d="M883.4,-893.44C904.28,-914.89 952.37,-960.36 1003,-980.8 1055.14,-1001.86 1413.79,-1025.31 1578.33,-1035.1"/>
<polygon fill="#757575" stroke="#757575" points="1578.21,-1038.6 1588.4,-1035.7 1578.63,-1031.61 1578.21,-1038.6"/>
</g>
<!-- src/step.js&#45;&gt;src/background.js -->
<g id="edge65" class="edge">
<title>src/step.js&#45;&gt;src/background.js</title>
<path fill="none" stroke="#757575" d="M875.19,-870.26C885.27,-829.12 924.34,-687.58 1003,-601.8 1052.01,-548.35 1505.39,-308.25 1629.32,-243.13"/>
<polygon fill="#757575" stroke="#757575" points="1631.1,-246.16 1638.32,-238.41 1627.84,-239.96 1631.1,-246.16"/>
</g>
<!-- src/step.js&#45;&gt;src/collisions/collisions.js -->
<g id="edge66" class="edge">
<title>src/step.js&#45;&gt;src/collisions/collisions.js</title>
<path fill="none" stroke="#757575" d="M898.05,-893.44C924.04,-904.93 965.68,-922.39 1003,-933.8 1018.07,-938.41 1034.45,-942.53 1050.12,-946.06"/>
<polygon fill="#757575" stroke="#757575" points="1049.77,-949.57 1060.28,-948.3 1051.27,-942.73 1049.77,-949.57"/>
</g>
<!-- src/step.js&#45;&gt;src/enemy/enemy.js -->
<g id="edge67" class="edge">
<title>src/step.js&#45;&gt;src/enemy/enemy.js</title>
<path fill="none" stroke="#757575" d="M910.24,-884.47C993.45,-889.62 1189.59,-897.59 1244,-862.8 1293.89,-830.91 1363.73,-657.69 1387.06,-596.9"/>
<polygon fill="#757575" stroke="#757575" points="1390.34,-598.12 1390.63,-587.53 1383.8,-595.63 1390.34,-598.12"/>
</g>
<!-- src/step.js&#45;&gt;src/gameOver.js -->
<g id="edge68" class="edge">
<title>src/step.js&#45;&gt;src/gameOver.js</title>
<path fill="none" stroke="#757575" d="M880.39,-893.53C898.64,-919.65 946.52,-982.75 1003,-1013.8 1018.86,-1022.52 1037.42,-1028.32 1055.11,-1032.17"/>
<polygon fill="#757575" stroke="#757575" points="1054.91,-1035.7 1065.4,-1034.22 1056.27,-1028.84 1054.91,-1035.7"/>
</g>
<!-- src/mobile/mobileVelocityController.js -->
<g id="node29" class="node">
<title>src/mobile/mobileVelocityController.js</title>
<path fill="none" stroke="#cfffac" d="M1236.33,-853.3C1236.33,-853.3 1010.67,-853.3 1010.67,-853.3 1006.83,-853.3 1003,-849.47 1003,-845.63 1003,-845.63 1003,-837.97 1003,-837.97 1003,-834.13 1006.83,-830.3 1010.67,-830.3 1010.67,-830.3 1236.33,-830.3 1236.33,-830.3 1240.17,-830.3 1244,-834.13 1244,-837.97 1244,-837.97 1244,-845.63 1244,-845.63 1244,-849.47 1240.17,-853.3 1236.33,-853.3"/>
<text text-anchor="middle" x="1123.5" y="-838.1" font-family="Arial" font-size="14.00" fill="#cfffac">src/mobile/mobileVelocityController.js</text>
</g>
<!-- src/step.js&#45;&gt;src/mobile/mobileVelocityController.js -->
<g id="edge70" class="edge">
<title>src/step.js&#45;&gt;src/mobile/mobileVelocityController.js</title>
<path fill="none" stroke="#757575" d="M910.2,-875.77C944.56,-870.27 996.49,-861.96 1040.39,-854.94"/>
<polygon fill="#757575" stroke="#757575" points="1041.17,-858.36 1050.49,-853.32 1040.06,-851.45 1041.17,-858.36"/>
</g>
<!-- src/mobileJoystick.js -->
<g id="node30" class="node">
<title>src/mobileJoystick.js</title>
<path fill="none" stroke="#cfffac" d="M1185.83,-1131.3C1185.83,-1131.3 1061.17,-1131.3 1061.17,-1131.3 1057.33,-1131.3 1053.5,-1127.47 1053.5,-1123.63 1053.5,-1123.63 1053.5,-1115.97 1053.5,-1115.97 1053.5,-1112.13 1057.33,-1108.3 1061.17,-1108.3 1061.17,-1108.3 1185.83,-1108.3 1185.83,-1108.3 1189.67,-1108.3 1193.5,-1112.13 1193.5,-1115.97 1193.5,-1115.97 1193.5,-1123.63 1193.5,-1123.63 1193.5,-1127.47 1189.67,-1131.3 1185.83,-1131.3"/>
<text text-anchor="middle" x="1123.5" y="-1116.1" font-family="Arial" font-size="14.00" fill="#cfffac">src/mobileJoystick.js</text>
</g>
<!-- src/step.js&#45;&gt;src/mobileJoystick.js -->
<g id="edge71" class="edge">
<title>src/step.js&#45;&gt;src/mobileJoystick.js</title>
<path fill="none" stroke="#757575" d="M878.32,-893.33C894.36,-924.14 942.1,-1009.53 1003,-1060.8 1025.58,-1079.81 1055.33,-1094.52 1079.5,-1104.5"/>
<polygon fill="#757575" stroke="#757575" points="1078.21,-1107.76 1088.8,-1108.23 1080.81,-1101.26 1078.21,-1107.76"/>
</g>
<!-- src/step.js&#45;&gt;src/scores/currentGameScore.js -->
<g id="edge72" class="edge">
<title>src/step.js&#45;&gt;src/scores/currentGameScore.js</title>
<path fill="none" stroke="#757575" d="M877.13,-869.97C891.09,-835.72 935.94,-735.24 1003,-677.8 1143.92,-557.1 1701.98,-375.05 1868.41,-322.49"/>
<polygon fill="#757575" stroke="#757575" points="1869.86,-325.7 1878.34,-319.36 1867.75,-319.03 1869.86,-325.7"/>
</g>
<!-- src/gameMenuActions.js&#45;&gt;src/gameState.js -->
<g id="edge46" class="edge">
<title>src/gameMenuActions.js&#45;&gt;src/gameState.js</title>
<path fill="none" stroke="#757575" d="M693.78,-1170.31C870.31,-1225.44 1663.29,-1443.75 2022,-1041.8 2077.41,-979.72 2106.57,-712.05 2114.05,-633.53"/>
<polygon fill="#757575" stroke="#757575" points="2117.55,-633.65 2114.99,-623.37 2110.58,-633 2117.55,-633.65"/>
</g>
<!-- src/gameMenuActions.js&#45;&gt;src/step.js -->
<g id="edge47" class="edge">
<title>src/gameMenuActions.js&#45;&gt;src/step.js</title>
<path fill="none" stroke="#757575" d="M726.11,-1147.29C731.07,-1144.95 735.78,-1142.15 740,-1138.8 818.9,-1076.19 854.4,-953.16 865.98,-903.43"/>
<polygon fill="#757575" stroke="#757575" points="869.44,-903.98 868.2,-893.46 862.61,-902.46 869.44,-903.98"/>
</g>
<!-- src/gameOver.js&#45;&gt;src/levelCompleteScreen.js -->
<g id="edge48" class="edge">
<title>src/gameOver.js&#45;&gt;src/levelCompleteScreen.js</title>
<path fill="none" stroke="#757575" d="M1181.51,-1046.86C1201.88,-1050.75 1224.58,-1056.71 1244,-1065.8 1262.36,-1074.39 1261.68,-1085.14 1280,-1093.8 1290.02,-1098.54 1300.94,-1102.44 1311.94,-1105.63"/>
<polygon fill="#757575" stroke="#757575" points="1311.04,-1109.02 1321.61,-1108.27 1312.88,-1102.26 1311.04,-1109.02"/>
</g>
<!-- src/gameOver.js&#45;&gt;src/music.js -->
<g id="edge49" class="edge">
<title>src/gameOver.js&#45;&gt;src/music.js</title>
<path fill="none" stroke="#757575" d="M1181.53,-1049.57C1321.43,-1072.29 1677.34,-1122.28 1775,-1060.8 1787.72,-1052.8 1876.62,-855.09 1906.06,-789.05"/>
<polygon fill="#757575" stroke="#757575" points="1909.38,-790.19 1910.25,-779.64 1902.99,-787.35 1909.38,-790.19"/>
</g>
<!-- src/touch.js&#45;&gt;src/mobileJoystick.js -->
<g id="edge75" class="edge">
<title>src/touch.js&#45;&gt;src/mobileJoystick.js</title>
<path fill="none" stroke="#757575" d="M700.09,-1117.98C777.21,-1118.31 943.6,-1119.03 1042.98,-1119.46"/>
<polygon fill="#757575" stroke="#757575" points="1043.26,-1122.96 1053.27,-1119.5 1043.29,-1115.96 1043.26,-1122.96"/>
</g>
<!-- src/scores/currentGameScore.js&#45;&gt;src/gameState.js -->
<g id="edge61" class="edge">
<title>src/scores/currentGameScore.js&#45;&gt;src/gameState.js</title>
<path fill="none" stroke="#757575" d="M1999.28,-319.36C2007.6,-323.01 2015.4,-327.72 2022,-333.8 2098.11,-403.9 2112.62,-537.75 2115.37,-590.07"/>
<polygon fill="#757575" stroke="#757575" points="2111.88,-590.38 2115.8,-600.22 2118.87,-590.08 2111.88,-590.38"/>
</g>
</g>
</svg>
