<?xml version="1.0" encoding="UTF-8" standalone="no"?>
<!DOCTYPE svg PUBLIC "-//W3C//DTD SVG 1.1//EN"
 "http://www.w3.org/Graphics/SVG/1.1/DTD/svg11.dtd">
<!-- Generated by graphviz version 2.43.0 (0)
 -->
<!-- Title: G Pages: 1 -->
<svg width="1896pt" height="1161pt"
 viewBox="0.00 0.00 1896.20 1161.22" xmlns="http://www.w3.org/2000/svg" xmlns:xlink="http://www.w3.org/1999/xlink">
<g id="graph0" class="graph" transform="scale(1 1) rotate(0) translate(21.6 1139.62)">
<title>G</title>
<polygon fill="#111111" stroke="transparent" points="-21.6,21.6 -21.6,-1139.62 1874.6,-1139.62 1874.6,21.6 -21.6,21.6"/>
<!-- app.js -->
<g id="node1" class="node">
<title>app.js</title>
<path fill="none" stroke="#c6c5fe" d="M46.33,-575.02C46.33,-575.02 7.67,-575.02 7.67,-575.02 3.83,-575.02 0,-571.19 0,-567.36 0,-567.36 0,-559.69 0,-559.69 0,-555.86 3.83,-552.02 7.67,-552.02 7.67,-552.02 46.33,-552.02 46.33,-552.02 50.17,-552.02 54,-555.86 54,-559.69 54,-559.69 54,-567.36 54,-567.36 54,-571.19 50.17,-575.02 46.33,-575.02"/>
<text text-anchor="middle" x="27" y="-559.82" font-family="Arial" font-size="14.00" fill="#c6c5fe">app.js</text>
</g>
<!-- src/gameManager.js -->
<g id="node2" class="node">
<title>src/gameManager.js</title>
<path fill="none" stroke="#c6c5fe" d="M222.33,-555.02C222.33,-555.02 97.67,-555.02 97.67,-555.02 93.83,-555.02 90,-551.19 90,-547.36 90,-547.36 90,-539.69 90,-539.69 90,-535.86 93.83,-532.02 97.67,-532.02 97.67,-532.02 222.33,-532.02 222.33,-532.02 226.17,-532.02 230,-535.86 230,-539.69 230,-539.69 230,-547.36 230,-547.36 230,-551.19 226.17,-555.02 222.33,-555.02"/>
<text text-anchor="middle" x="160" y="-539.82" font-family="Arial" font-size="14.00" fill="#c6c5fe">src/gameManager.js</text>
</g>
<!-- app.js&#45;&gt;src/gameManager.js -->
<g id="edge1" class="edge">
<title>app.js&#45;&gt;src/gameManager.js</title>
<path fill="none" stroke="#757575" d="M54.19,-559.52C61.87,-558.35 70.69,-557.01 79.89,-555.6"/>
<polygon fill="#757575" stroke="#757575" points="80.62,-559.03 89.97,-554.06 79.56,-552.11 80.62,-559.03"/>
</g>
<!-- src/startScreen.js -->
<g id="node3" class="node">
<title>src/startScreen.js</title>
<path fill="none" stroke="#c6c5fe" d="M383.83,-1118.02C383.83,-1118.02 278.17,-1118.02 278.17,-1118.02 274.33,-1118.02 270.5,-1114.19 270.5,-1110.36 270.5,-1110.36 270.5,-1102.69 270.5,-1102.69 270.5,-1098.86 274.33,-1095.02 278.17,-1095.02 278.17,-1095.02 383.83,-1095.02 383.83,-1095.02 387.67,-1095.02 391.5,-1098.86 391.5,-1102.69 391.5,-1102.69 391.5,-1110.36 391.5,-1110.36 391.5,-1114.19 387.67,-1118.02 383.83,-1118.02"/>
<text text-anchor="middle" x="331" y="-1102.82" font-family="Arial" font-size="14.00" fill="#c6c5fe">src/startScreen.js</text>
</g>
<!-- app.js&#45;&gt;src/startScreen.js -->
<g id="edge2" class="edge">
<title>app.js&#45;&gt;src/startScreen.js</title>
<path fill="none" stroke="#757575" d="M30.07,-575.14C41.58,-636.39 103.11,-924.89 266,-1080.52 269.96,-1084.3 274.54,-1087.56 279.39,-1090.36"/>
<polygon fill="#757575" stroke="#757575" points="277.85,-1093.51 288.35,-1094.93 281.03,-1087.27 277.85,-1093.51"/>
</g>
<!-- src/Boss.js -->
<g id="node4" class="node">
<title>src/Boss.js</title>
<path fill="none" stroke="#c6c5fe" d="M850.33,-886.02C850.33,-886.02 783.67,-886.02 783.67,-886.02 779.83,-886.02 776,-882.19 776,-878.36 776,-878.36 776,-870.69 776,-870.69 776,-866.86 779.83,-863.02 783.67,-863.02 783.67,-863.02 850.33,-863.02 850.33,-863.02 854.17,-863.02 858,-866.86 858,-870.69 858,-870.69 858,-878.36 858,-878.36 858,-882.19 854.17,-886.02 850.33,-886.02"/>
<text text-anchor="middle" x="817" y="-870.82" font-family="Arial" font-size="14.00" fill="#c6c5fe">src/Boss.js</text>
</g>
<!-- src/gameManager.js&#45;&gt;src/Boss.js -->
<g id="edge13" class="edge">
<title>src/gameManager.js&#45;&gt;src/Boss.js</title>
<path fill="none" stroke="#757575" d="M163.24,-555.13C173.34,-606.09 216.25,-809.17 266,-846.52 416.76,-959.72 661.58,-915.15 766.12,-888.69"/>
<polygon fill="#757575" stroke="#757575" points="767.28,-892.01 776.09,-886.12 765.53,-885.23 767.28,-892.01"/>
</g>
<!-- src/enemy.js -->
<g id="node5" class="node">
<title>src/enemy.js</title>
<path fill="none" stroke="#c6c5fe" d="M1052.83,-845.02C1052.83,-845.02 976.17,-845.02 976.17,-845.02 972.33,-845.02 968.5,-841.19 968.5,-837.36 968.5,-837.36 968.5,-829.69 968.5,-829.69 968.5,-825.86 972.33,-822.02 976.17,-822.02 976.17,-822.02 1052.83,-822.02 1052.83,-822.02 1056.67,-822.02 1060.5,-825.86 1060.5,-829.69 1060.5,-829.69 1060.5,-837.36 1060.5,-837.36 1060.5,-841.19 1056.67,-845.02 1052.83,-845.02"/>
<text text-anchor="middle" x="1014.5" y="-829.82" font-family="Arial" font-size="14.00" fill="#c6c5fe">src/enemy.js</text>
</g>
<!-- src/gameManager.js&#45;&gt;src/enemy.js -->
<g id="edge16" class="edge">
<title>src/gameManager.js&#45;&gt;src/enemy.js</title>
<path fill="none" stroke="#757575" d="M166.63,-555.21C193.57,-609.28 315.05,-832.52 484.5,-832.52 484.5,-832.52 484.5,-832.52 658.5,-832.52 764.46,-832.52 888.21,-832.97 958.07,-833.27"/>
<polygon fill="#757575" stroke="#757575" points="958.37,-836.77 968.39,-833.32 958.4,-829.77 958.37,-836.77"/>
</g>
<!-- src/levelCompleteScreen.js -->
<g id="node8" class="node">
<title>src/levelCompleteScreen.js</title>
<path fill="none" stroke="#cfffac" d="M1845.33,-964.02C1845.33,-964.02 1679.67,-964.02 1679.67,-964.02 1675.83,-964.02 1672,-960.19 1672,-956.36 1672,-956.36 1672,-948.69 1672,-948.69 1672,-944.86 1675.83,-941.02 1679.67,-941.02 1679.67,-941.02 1845.33,-941.02 1845.33,-941.02 1849.17,-941.02 1853,-944.86 1853,-948.69 1853,-948.69 1853,-956.36 1853,-956.36 1853,-960.19 1849.17,-964.02 1845.33,-964.02"/>
<text text-anchor="middle" x="1762.5" y="-948.82" font-family="Arial" font-size="14.00" fill="#cfffac">src/levelCompleteScreen.js</text>
</g>
<!-- src/gameManager.js&#45;&gt;src/levelCompleteScreen.js -->
<g id="edge19" class="edge">
<title>src/gameManager.js&#45;&gt;src/levelCompleteScreen.js</title>
<path fill="none" stroke="#757575" d="M164.43,-555.14C174.83,-590.58 206.79,-700.53 230,-792.52 247.62,-862.36 222.22,-893.34 266,-950.52 332.83,-1037.83 374.55,-1066.52 484.5,-1066.52 484.5,-1066.52 484.5,-1066.52 1301,-1066.52 1462.98,-1066.52 1647.87,-999.24 1724.86,-968.05"/>
<polygon fill="#757575" stroke="#757575" points="1726.64,-971.11 1734.57,-964.08 1723.99,-964.63 1726.64,-971.11"/>
</g>
<!-- src/ammo.js -->
<g id="node9" class="node">
<title>src/ammo.js</title>
<path fill="none" stroke="#c6c5fe" d="M1337.83,-381.02C1337.83,-381.02 1262.17,-381.02 1262.17,-381.02 1258.33,-381.02 1254.5,-377.19 1254.5,-373.36 1254.5,-373.36 1254.5,-365.69 1254.5,-365.69 1254.5,-361.86 1258.33,-358.02 1262.17,-358.02 1262.17,-358.02 1337.83,-358.02 1337.83,-358.02 1341.67,-358.02 1345.5,-361.86 1345.5,-365.69 1345.5,-365.69 1345.5,-373.36 1345.5,-373.36 1345.5,-377.19 1341.67,-381.02 1337.83,-381.02"/>
<text text-anchor="middle" x="1300" y="-365.82" font-family="Arial" font-size="14.00" fill="#c6c5fe">src/ammo.js</text>
</g>
<!-- src/gameManager.js&#45;&gt;src/ammo.js -->
<g id="edge14" class="edge">
<title>src/gameManager.js&#45;&gt;src/ammo.js</title>
<path fill="none" stroke="#757575" d="M163.1,-531.8C170.26,-495.45 197.17,-383.79 266,-328.52 325.18,-281.01 357.44,-302.69 432,-288.52 739.18,-230.18 829.74,-247.82 1135,-315.52 1178.76,-325.23 1227.35,-342.02 1260.2,-354.31"/>
<polygon fill="#757575" stroke="#757575" points="1259.28,-357.7 1269.87,-357.96 1261.75,-351.15 1259.28,-357.7"/>
</g>
<!-- src/background.js -->
<g id="node11" class="node">
<title>src/background.js</title>
<path fill="none" stroke="#cfffac" d="M1067.83,-419.02C1067.83,-419.02 961.17,-419.02 961.17,-419.02 957.33,-419.02 953.5,-415.19 953.5,-411.36 953.5,-411.36 953.5,-403.69 953.5,-403.69 953.5,-399.86 957.33,-396.02 961.17,-396.02 961.17,-396.02 1067.83,-396.02 1067.83,-396.02 1071.67,-396.02 1075.5,-399.86 1075.5,-403.69 1075.5,-403.69 1075.5,-411.36 1075.5,-411.36 1075.5,-415.19 1071.67,-419.02 1067.83,-419.02"/>
<text text-anchor="middle" x="1014.5" y="-403.82" font-family="Arial" font-size="14.00" fill="#cfffac">src/background.js</text>
</g>
<!-- src/gameManager.js&#45;&gt;src/background.js -->
<g id="edge15" class="edge">
<title>src/gameManager.js&#45;&gt;src/background.js</title>
<path fill="none" stroke="#757575" d="M176.54,-531.87C221.58,-499.26 357.14,-409.52 484.5,-409.52 484.5,-409.52 484.5,-409.52 658.5,-409.52 757.19,-409.52 871.31,-408.74 942.95,-408.15"/>
<polygon fill="#757575" stroke="#757575" points="943.23,-411.65 953.2,-408.07 943.17,-404.65 943.23,-411.65"/>
</g>
<!-- src/gameState.js -->
<g id="node14" class="node">
<title>src/gameState.js</title>
<path fill="none" stroke="#cfffac" d="M1813.83,-496.02C1813.83,-496.02 1711.17,-496.02 1711.17,-496.02 1707.33,-496.02 1703.5,-492.19 1703.5,-488.36 1703.5,-488.36 1703.5,-480.69 1703.5,-480.69 1703.5,-476.86 1707.33,-473.02 1711.17,-473.02 1711.17,-473.02 1813.83,-473.02 1813.83,-473.02 1817.67,-473.02 1821.5,-476.86 1821.5,-480.69 1821.5,-480.69 1821.5,-488.36 1821.5,-488.36 1821.5,-492.19 1817.67,-496.02 1813.83,-496.02"/>
<text text-anchor="middle" x="1762.5" y="-480.82" font-family="Arial" font-size="14.00" fill="#cfffac">src/gameState.js</text>
</g>
<!-- src/gameManager.js&#45;&gt;src/gameState.js -->
<g id="edge17" class="edge">
<title>src/gameManager.js&#45;&gt;src/gameState.js</title>
<path fill="none" stroke="#757575" d="M162.82,-531.58C174.91,-457.21 250.35,-60.52 484.5,-60.52 484.5,-60.52 484.5,-60.52 1301,-60.52 1375.58,-60.52 1581.8,-29.3 1636,-80.52 1686.24,-128.01 1642.82,-326.85 1672,-389.52 1686.78,-421.26 1716.31,-449.29 1737.41,-466.53"/>
<polygon fill="#757575" stroke="#757575" points="1735.31,-469.33 1745.32,-472.81 1739.66,-463.85 1735.31,-469.33"/>
</g>
<!-- src/keyboard.js -->
<g id="node15" class="node">
<title>src/keyboard.js</title>
<path fill="none" stroke="#c6c5fe" d="M531.33,-321.02C531.33,-321.02 439.67,-321.02 439.67,-321.02 435.83,-321.02 432,-317.19 432,-313.36 432,-313.36 432,-305.69 432,-305.69 432,-301.86 435.83,-298.02 439.67,-298.02 439.67,-298.02 531.33,-298.02 531.33,-298.02 535.17,-298.02 539,-301.86 539,-305.69 539,-305.69 539,-313.36 539,-313.36 539,-317.19 535.17,-321.02 531.33,-321.02"/>
<text text-anchor="middle" x="485.5" y="-305.82" font-family="Arial" font-size="14.00" fill="#c6c5fe">src/keyboard.js</text>
</g>
<!-- src/gameManager.js&#45;&gt;src/keyboard.js -->
<g id="edge18" class="edge">
<title>src/gameManager.js&#45;&gt;src/keyboard.js</title>
<path fill="none" stroke="#757575" d="M166.36,-531.78C179.49,-504.22 215.9,-434.76 266,-395.52 312.3,-359.27 375.79,-336.57 422.4,-323.66"/>
<polygon fill="#757575" stroke="#757575" points="423.33,-327.03 432.08,-321.05 421.51,-320.27 423.33,-327.03"/>
</g>
<!-- src/music.js -->
<g id="node16" class="node">
<title>src/music.js</title>
<path fill="none" stroke="#cfffac" d="M1798.83,-771.02C1798.83,-771.02 1726.17,-771.02 1726.17,-771.02 1722.33,-771.02 1718.5,-767.19 1718.5,-763.36 1718.5,-763.36 1718.5,-755.69 1718.5,-755.69 1718.5,-751.86 1722.33,-748.02 1726.17,-748.02 1726.17,-748.02 1798.83,-748.02 1798.83,-748.02 1802.67,-748.02 1806.5,-751.86 1806.5,-755.69 1806.5,-755.69 1806.5,-763.36 1806.5,-763.36 1806.5,-767.19 1802.67,-771.02 1798.83,-771.02"/>
<text text-anchor="middle" x="1762.5" y="-755.82" font-family="Arial" font-size="14.00" fill="#cfffac">src/music.js</text>
</g>
<!-- src/gameManager.js&#45;&gt;src/music.js -->
<g id="edge20" class="edge">
<title>src/gameManager.js&#45;&gt;src/music.js</title>
<path fill="none" stroke="#757575" d="M164.29,-555.32C180.79,-614.43 254.31,-876.09 266,-889.52 336.24,-970.22 377.52,-990.52 484.5,-990.52 484.5,-990.52 484.5,-990.52 1015.5,-990.52 1201.47,-990.52 1251.87,-983.17 1429,-926.52 1549.4,-888.02 1680.01,-810.81 1734.87,-776.56"/>
<polygon fill="#757575" stroke="#757575" points="1737.01,-779.34 1743.62,-771.06 1733.29,-773.42 1737.01,-779.34"/>
</g>
<!-- src/player/Player.js -->
<g id="node17" class="node">
<title>src/player/Player.js</title>
<path fill="none" stroke="#c6c5fe" d="M388.33,-653.02C388.33,-653.02 273.67,-653.02 273.67,-653.02 269.83,-653.02 266,-649.19 266,-645.36 266,-645.36 266,-637.69 266,-637.69 266,-633.86 269.83,-630.02 273.67,-630.02 273.67,-630.02 388.33,-630.02 388.33,-630.02 392.17,-630.02 396,-633.86 396,-637.69 396,-637.69 396,-645.36 396,-645.36 396,-649.19 392.17,-653.02 388.33,-653.02"/>
<text text-anchor="middle" x="331" y="-637.82" font-family="Arial" font-size="14.00" fill="#c6c5fe">src/player/Player.js</text>
</g>
<!-- src/gameManager.js&#45;&gt;src/player/Player.js -->
<g id="edge21" class="edge">
<title>src/gameManager.js&#45;&gt;src/player/Player.js</title>
<path fill="none" stroke="#757575" d="M181.05,-555.15C210.78,-572.39 266.72,-604.83 300.94,-624.67"/>
<polygon fill="#757575" stroke="#757575" points="299.57,-627.92 309.98,-629.91 303.08,-621.87 299.57,-627.92"/>
</g>
<!-- src/rendering/Helpers.js -->
<g id="node18" class="node">
<title>src/rendering/Helpers.js</title>
<path fill="none" stroke="#cfffac" d="M1834.33,-381.02C1834.33,-381.02 1690.67,-381.02 1690.67,-381.02 1686.83,-381.02 1683,-377.19 1683,-373.36 1683,-373.36 1683,-365.69 1683,-365.69 1683,-361.86 1686.83,-358.02 1690.67,-358.02 1690.67,-358.02 1834.33,-358.02 1834.33,-358.02 1838.17,-358.02 1842,-361.86 1842,-365.69 1842,-365.69 1842,-373.36 1842,-373.36 1842,-377.19 1838.17,-381.02 1834.33,-381.02"/>
<text text-anchor="middle" x="1762.5" y="-365.82" font-family="Arial" font-size="14.00" fill="#cfffac">src/rendering/Helpers.js</text>
</g>
<!-- src/gameManager.js&#45;&gt;src/rendering/Helpers.js -->
<g id="edge22" class="edge">
<title>src/gameManager.js&#45;&gt;src/rendering/Helpers.js</title>
<path fill="none" stroke="#757575" d="M162.05,-531.91C168.13,-467.11 200.88,-150.58 266,-82.52 335.62,-9.76 383.79,-22.52 484.5,-22.52 484.5,-22.52 484.5,-22.52 1301,-22.52 1450.3,-22.52 1515.96,41.26 1636,-47.52 1736.38,-121.77 1756.49,-288.06 1760.51,-347.71"/>
<polygon fill="#757575" stroke="#757575" points="1757.02,-348.08 1761.1,-357.86 1764.01,-347.67 1757.02,-348.08"/>
</g>
<!-- src/step.js -->
<g id="node19" class="node">
<title>src/step.js</title>
<path fill="none" stroke="#c6c5fe" d="M847.83,-497.02C847.83,-497.02 786.17,-497.02 786.17,-497.02 782.33,-497.02 778.5,-493.19 778.5,-489.36 778.5,-489.36 778.5,-481.69 778.5,-481.69 778.5,-477.86 782.33,-474.02 786.17,-474.02 786.17,-474.02 847.83,-474.02 847.83,-474.02 851.67,-474.02 855.5,-477.86 855.5,-481.69 855.5,-481.69 855.5,-489.36 855.5,-489.36 855.5,-493.19 851.67,-497.02 847.83,-497.02"/>
<text text-anchor="middle" x="817" y="-481.82" font-family="Arial" font-size="14.00" fill="#c6c5fe">src/step.js</text>
</g>
<!-- src/gameManager.js&#45;&gt;src/step.js -->
<g id="edge23" class="edge">
<title>src/gameManager.js&#45;&gt;src/step.js</title>
<path fill="none" stroke="#757575" d="M230.17,-537.4C363.62,-525.58 653.58,-499.91 768.09,-489.77"/>
<polygon fill="#757575" stroke="#757575" points="768.64,-493.23 778.29,-488.86 768.02,-486.26 768.64,-493.23"/>
</g>
<!-- src/startScreen.js&#45;&gt;src/music.js -->
<g id="edge50" class="edge">
<title>src/startScreen.js&#45;&gt;src/music.js</title>
<path fill="none" stroke="#757575" d="M360.1,-1095.01C415.7,-1073.32 544.09,-1028.52 656.5,-1028.52 656.5,-1028.52 656.5,-1028.52 1301,-1028.52 1456.38,-1028.52 1511.55,-1021.56 1636,-928.52 1690.88,-887.5 1732.69,-815.91 1751.14,-780.54"/>
<polygon fill="#757575" stroke="#757575" points="1754.48,-781.69 1755.91,-771.19 1748.25,-778.51 1754.48,-781.69"/>
</g>
<!-- src/Boss.js&#45;&gt;src/enemy.js -->
<g id="edge3" class="edge">
<title>src/Boss.js&#45;&gt;src/enemy.js</title>
<path fill="none" stroke="#757575" d="M858.03,-866.13C886.96,-860.06 926.4,-851.79 958.32,-845.1"/>
<polygon fill="#757575" stroke="#757575" points="959.32,-848.46 968.39,-842.98 957.89,-841.61 959.32,-848.46"/>
</g>
<!-- src/enemyRocketAtack.js -->
<g id="node6" class="node">
<title>src/enemyRocketAtack.js</title>
<path fill="none" stroke="#cfffac" d="M1376.83,-886.02C1376.83,-886.02 1223.17,-886.02 1223.17,-886.02 1219.33,-886.02 1215.5,-882.19 1215.5,-878.36 1215.5,-878.36 1215.5,-870.69 1215.5,-870.69 1215.5,-866.86 1219.33,-863.02 1223.17,-863.02 1223.17,-863.02 1376.83,-863.02 1376.83,-863.02 1380.67,-863.02 1384.5,-866.86 1384.5,-870.69 1384.5,-870.69 1384.5,-878.36 1384.5,-878.36 1384.5,-882.19 1380.67,-886.02 1376.83,-886.02"/>
<text text-anchor="middle" x="1300" y="-870.82" font-family="Arial" font-size="14.00" fill="#cfffac">src/enemyRocketAtack.js</text>
</g>
<!-- src/Boss.js&#45;&gt;src/enemyRocketAtack.js -->
<g id="edge4" class="edge">
<title>src/Boss.js&#45;&gt;src/enemyRocketAtack.js</title>
<path fill="none" stroke="#757575" d="M858.18,-874.52C933.9,-874.52 1099.53,-874.52 1204.81,-874.52"/>
<polygon fill="#757575" stroke="#757575" points="1205.12,-878.02 1215.12,-874.52 1205.12,-871.02 1205.12,-878.02"/>
</g>
<!-- src/gatling.js -->
<g id="node7" class="node">
<title>src/gatling.js</title>
<path fill="none" stroke="#c6c5fe" d="M1588.83,-574.02C1588.83,-574.02 1512.17,-574.02 1512.17,-574.02 1508.33,-574.02 1504.5,-570.19 1504.5,-566.36 1504.5,-566.36 1504.5,-558.69 1504.5,-558.69 1504.5,-554.86 1508.33,-551.02 1512.17,-551.02 1512.17,-551.02 1588.83,-551.02 1588.83,-551.02 1592.67,-551.02 1596.5,-554.86 1596.5,-558.69 1596.5,-558.69 1596.5,-566.36 1596.5,-566.36 1596.5,-570.19 1592.67,-574.02 1588.83,-574.02"/>
<text text-anchor="middle" x="1550.5" y="-558.82" font-family="Arial" font-size="14.00" fill="#c6c5fe">src/gatling.js</text>
</g>
<!-- src/Boss.js&#45;&gt;src/gatling.js -->
<g id="edge5" class="edge">
<title>src/Boss.js&#45;&gt;src/gatling.js</title>
<path fill="none" stroke="#757575" d="M858.29,-882.48C980.28,-905.57 1342.59,-966.57 1429,-894.52 1497.36,-837.52 1432.81,-780.51 1465,-697.52 1482.17,-653.25 1514.34,-607.62 1533.65,-582.38"/>
<polygon fill="#757575" stroke="#757575" points="1536.52,-584.38 1539.9,-574.34 1531,-580.09 1536.52,-584.38"/>
</g>
<!-- src/Boss.js&#45;&gt;src/levelCompleteScreen.js -->
<g id="edge6" class="edge">
<title>src/Boss.js&#45;&gt;src/levelCompleteScreen.js</title>
<path fill="none" stroke="#757575" d="M832.07,-886.1C846.58,-897.25 870.36,-913.45 894,-920.52 1162.01,-1000.67 1497.42,-981.42 1661.61,-964.77"/>
<polygon fill="#757575" stroke="#757575" points="1662.1,-968.24 1671.69,-963.73 1661.38,-961.28 1662.1,-968.24"/>
</g>
<!-- src/enemy.js&#45;&gt;src/enemyRocketAtack.js -->
<g id="edge10" class="edge">
<title>src/enemy.js&#45;&gt;src/enemyRocketAtack.js</title>
<path fill="none" stroke="#757575" d="M1060.73,-840.07C1100.59,-845.83 1159.83,-854.4 1209.26,-861.55"/>
<polygon fill="#757575" stroke="#757575" points="1208.93,-865.03 1219.33,-863 1209.94,-858.11 1208.93,-865.03"/>
</g>
<!-- src/enemy.js&#45;&gt;src/gatling.js -->
<g id="edge11" class="edge">
<title>src/enemy.js&#45;&gt;src/gatling.js</title>
<path fill="none" stroke="#757575" d="M1033.35,-821.89C1058.66,-804.67 1105.22,-770.22 1135,-731.52 1157.55,-702.22 1141.44,-678.73 1171,-656.52 1263.95,-586.71 1321.31,-657.3 1429,-613.52 1447.05,-606.19 1447.48,-597.04 1465,-588.52 1474.31,-584 1484.58,-580.05 1494.66,-576.69"/>
<polygon fill="#757575" stroke="#757575" points="1495.75,-580.02 1504.22,-573.65 1493.63,-573.34 1495.75,-580.02"/>
</g>
<!-- src/enemyManoeuvre.js -->
<g id="node12" class="node">
<title>src/enemyManoeuvre.js</title>
<path fill="none" stroke="#cfffac" d="M1372.83,-845.02C1372.83,-845.02 1227.17,-845.02 1227.17,-845.02 1223.33,-845.02 1219.5,-841.19 1219.5,-837.36 1219.5,-837.36 1219.5,-829.69 1219.5,-829.69 1219.5,-825.86 1223.33,-822.02 1227.17,-822.02 1227.17,-822.02 1372.83,-822.02 1372.83,-822.02 1376.67,-822.02 1380.5,-825.86 1380.5,-829.69 1380.5,-829.69 1380.5,-837.36 1380.5,-837.36 1380.5,-841.19 1376.67,-845.02 1372.83,-845.02"/>
<text text-anchor="middle" x="1300" y="-829.82" font-family="Arial" font-size="14.00" fill="#cfffac">src/enemyManoeuvre.js</text>
</g>
<!-- src/enemy.js&#45;&gt;src/enemyManoeuvre.js -->
<g id="edge9" class="edge">
<title>src/enemy.js&#45;&gt;src/enemyManoeuvre.js</title>
<path fill="none" stroke="#757575" d="M1060.73,-833.52C1100.59,-833.52 1159.83,-833.52 1209.26,-833.52"/>
<polygon fill="#757575" stroke="#757575" points="1209.33,-837.02 1219.33,-833.52 1209.33,-830.02 1209.33,-837.02"/>
</g>
<!-- src/rendering/EnemyCollisionsChecks.js -->
<g id="node13" class="node">
<title>src/rendering/EnemyCollisionsChecks.js</title>
<path fill="none" stroke="#c6c5fe" d="M1421.33,-689.02C1421.33,-689.02 1178.67,-689.02 1178.67,-689.02 1174.83,-689.02 1171,-685.19 1171,-681.36 1171,-681.36 1171,-673.69 1171,-673.69 1171,-669.86 1174.83,-666.02 1178.67,-666.02 1178.67,-666.02 1421.33,-666.02 1421.33,-666.02 1425.17,-666.02 1429,-669.86 1429,-673.69 1429,-673.69 1429,-681.36 1429,-681.36 1429,-685.19 1425.17,-689.02 1421.33,-689.02"/>
<text text-anchor="middle" x="1300" y="-673.82" font-family="Arial" font-size="14.00" fill="#c6c5fe">src/rendering/EnemyCollisionsChecks.js</text>
</g>
<!-- src/enemy.js&#45;&gt;src/rendering/EnemyCollisionsChecks.js -->
<g id="edge12" class="edge">
<title>src/enemy.js&#45;&gt;src/rendering/EnemyCollisionsChecks.js</title>
<path fill="none" stroke="#757575" d="M1036.81,-821.8C1086.7,-794.35 1211.22,-725.83 1268.85,-694.11"/>
<polygon fill="#757575" stroke="#757575" points="1270.76,-697.06 1277.83,-689.17 1267.38,-690.93 1270.76,-697.06"/>
</g>
<!-- src/gatling.js&#45;&gt;src/gameState.js -->
<g id="edge28" class="edge">
<title>src/gatling.js&#45;&gt;src/gameState.js</title>
<path fill="none" stroke="#757575" d="M1591.73,-550.99C1605.83,-546.73 1621.7,-541.67 1636,-536.52 1666.76,-525.45 1701,-511.12 1725.93,-500.31"/>
<polygon fill="#757575" stroke="#757575" points="1727.57,-503.42 1735.34,-496.21 1724.77,-497 1727.57,-503.42"/>
</g>
<!-- src/gatling.js&#45;&gt;src/music.js -->
<g id="edge29" class="edge">
<title>src/gatling.js&#45;&gt;src/music.js</title>
<path fill="none" stroke="#757575" d="M1564.01,-574.26C1599.1,-607.17 1698.69,-700.6 1741.52,-740.78"/>
<polygon fill="#757575" stroke="#757575" points="1739.37,-743.56 1749.06,-747.85 1744.16,-738.46 1739.37,-743.56"/>
</g>
<!-- src/ammo.js&#45;&gt;src/gatling.js -->
<g id="edge7" class="edge">
<title>src/ammo.js&#45;&gt;src/gatling.js</title>
<path fill="none" stroke="#757575" d="M1331.43,-381.11C1358.51,-392.24 1398.45,-410.7 1429,-433.52 1472.65,-466.13 1513.78,-515.65 1534.84,-542.88"/>
<polygon fill="#757575" stroke="#757575" points="1532.11,-545.06 1540.96,-550.88 1537.67,-540.81 1532.11,-545.06"/>
</g>
<!-- src/rocket.js -->
<g id="node10" class="node">
<title>src/rocket.js</title>
<path fill="none" stroke="#c6c5fe" d="M1587.33,-381.02C1587.33,-381.02 1513.67,-381.02 1513.67,-381.02 1509.83,-381.02 1506,-377.19 1506,-373.36 1506,-373.36 1506,-365.69 1506,-365.69 1506,-361.86 1509.83,-358.02 1513.67,-358.02 1513.67,-358.02 1587.33,-358.02 1587.33,-358.02 1591.17,-358.02 1595,-361.86 1595,-365.69 1595,-365.69 1595,-373.36 1595,-373.36 1595,-377.19 1591.17,-381.02 1587.33,-381.02"/>
<text text-anchor="middle" x="1550.5" y="-365.82" font-family="Arial" font-size="14.00" fill="#c6c5fe">src/rocket.js</text>
</g>
<!-- src/ammo.js&#45;&gt;src/rocket.js -->
<g id="edge8" class="edge">
<title>src/ammo.js&#45;&gt;src/rocket.js</title>
<path fill="none" stroke="#757575" d="M1345.71,-369.52C1387.85,-369.52 1451.03,-369.52 1495.86,-369.52"/>
<polygon fill="#757575" stroke="#757575" points="1495.98,-373.02 1505.98,-369.52 1495.98,-366.02 1495.98,-373.02"/>
</g>
<!-- src/rocket.js&#45;&gt;src/rendering/Helpers.js -->
<g id="edge49" class="edge">
<title>src/rocket.js&#45;&gt;src/rendering/Helpers.js</title>
<path fill="none" stroke="#757575" d="M1595.01,-369.52C1617.49,-369.52 1645.77,-369.52 1672.61,-369.52"/>
<polygon fill="#757575" stroke="#757575" points="1672.82,-373.02 1682.82,-369.52 1672.82,-366.02 1672.82,-373.02"/>
</g>
<!-- src/rendering/EnemyCollisionsChecks.js&#45;&gt;src/gatling.js -->
<g id="edge44" class="edge">
<title>src/rendering/EnemyCollisionsChecks.js&#45;&gt;src/gatling.js</title>
<path fill="none" stroke="#757575" d="M1401.35,-665.96C1411.21,-662.29 1420.64,-657.57 1429,-651.52 1455.13,-632.63 1439.82,-608.68 1465,-588.52 1473.62,-581.62 1484.08,-576.54 1494.65,-572.81"/>
<polygon fill="#757575" stroke="#757575" points="1495.86,-576.1 1504.34,-569.75 1493.75,-569.42 1495.86,-576.1"/>
</g>
<!-- src/rendering/EnemyCollisionsChecks.js&#45;&gt;src/rocket.js -->
<g id="edge48" class="edge">
<title>src/rendering/EnemyCollisionsChecks.js&#45;&gt;src/rocket.js</title>
<path fill="none" stroke="#757575" d="M1310.44,-665.83C1347.88,-619.42 1486.2,-447.97 1533.51,-389.34"/>
<polygon fill="#757575" stroke="#757575" points="1536.5,-391.21 1540.05,-381.23 1531.05,-386.82 1536.5,-391.21"/>
</g>
<!-- src/rendering/EnemyCollisionsChecks.js&#45;&gt;src/gameState.js -->
<g id="edge43" class="edge">
<title>src/rendering/EnemyCollisionsChecks.js&#45;&gt;src/gameState.js</title>
<path fill="none" stroke="#757575" d="M1429.32,-672.93C1494.46,-666.08 1572.94,-650.6 1636,-616.52 1686.42,-589.28 1728.36,-534.44 1748.55,-504.75"/>
<polygon fill="#757575" stroke="#757575" points="1751.48,-506.66 1754.1,-496.39 1745.65,-502.78 1751.48,-506.66"/>
</g>
<!-- src/rendering/EnemyCollisionsChecks.js&#45;&gt;src/music.js -->
<g id="edge45" class="edge">
<title>src/rendering/EnemyCollisionsChecks.js&#45;&gt;src/music.js</title>
<path fill="none" stroke="#757575" d="M1429.36,-673.32C1492.53,-674.23 1569.27,-679.82 1636,-697.52 1672.24,-707.14 1710.39,-727.68 1734.97,-742.49"/>
<polygon fill="#757575" stroke="#757575" points="1733.35,-745.6 1743.7,-747.85 1737.01,-739.64 1733.35,-745.6"/>
</g>
<!-- src/rendering/EnemyCollisionsChecks.js&#45;&gt;src/rendering/Helpers.js -->
<g id="edge47" class="edge">
<title>src/rendering/EnemyCollisionsChecks.js&#45;&gt;src/rendering/Helpers.js</title>
<path fill="none" stroke="#757575" d="M1384.15,-666.01C1399.58,-662.04 1415.17,-656.7 1429,-649.52 1448.27,-639.53 1445.64,-626.34 1465,-616.52 1534.12,-581.49 1578.6,-634.58 1636,-582.52 1676.93,-545.4 1644.19,-511.27 1672,-463.52 1689.54,-433.4 1718.56,-405.36 1738.78,-387.88"/>
<polygon fill="#757575" stroke="#757575" points="1741.21,-390.41 1746.59,-381.28 1736.69,-385.07 1741.21,-390.41"/>
</g>
<!-- src/gameOver.js -->
<g id="node21" class="node">
<title>src/gameOver.js</title>
<path fill="none" stroke="#c6c5fe" d="M1600.83,-771.02C1600.83,-771.02 1500.17,-771.02 1500.17,-771.02 1496.33,-771.02 1492.5,-767.19 1492.5,-763.36 1492.5,-763.36 1492.5,-755.69 1492.5,-755.69 1492.5,-751.86 1496.33,-748.02 1500.17,-748.02 1500.17,-748.02 1600.83,-748.02 1600.83,-748.02 1604.67,-748.02 1608.5,-751.86 1608.5,-755.69 1608.5,-755.69 1608.5,-763.36 1608.5,-763.36 1608.5,-767.19 1604.67,-771.02 1600.83,-771.02"/>
<text text-anchor="middle" x="1550.5" y="-755.82" font-family="Arial" font-size="14.00" fill="#c6c5fe">src/gameOver.js</text>
</g>
<!-- src/rendering/EnemyCollisionsChecks.js&#45;&gt;src/gameOver.js -->
<g id="edge42" class="edge">
<title>src/rendering/EnemyCollisionsChecks.js&#45;&gt;src/gameOver.js</title>
<path fill="none" stroke="#757575" d="M1391.39,-689.1C1404.44,-692.69 1417.37,-697.38 1429,-703.52 1448.73,-713.94 1445.5,-727.68 1465,-738.52 1470.55,-741.61 1476.55,-744.25 1482.71,-746.5"/>
<polygon fill="#757575" stroke="#757575" points="1481.88,-749.91 1492.47,-749.74 1484.08,-743.27 1481.88,-749.91"/>
</g>
<!-- src/rendering/Explosion.js -->
<g id="node25" class="node">
<title>src/rendering/Explosion.js</title>
<path fill="none" stroke="#cfffac" d="M1628.33,-730.02C1628.33,-730.02 1472.67,-730.02 1472.67,-730.02 1468.83,-730.02 1465,-726.19 1465,-722.36 1465,-722.36 1465,-714.69 1465,-714.69 1465,-710.86 1468.83,-707.02 1472.67,-707.02 1472.67,-707.02 1628.33,-707.02 1628.33,-707.02 1632.17,-707.02 1636,-710.86 1636,-714.69 1636,-714.69 1636,-722.36 1636,-722.36 1636,-726.19 1632.17,-730.02 1628.33,-730.02"/>
<text text-anchor="middle" x="1550.5" y="-714.82" font-family="Arial" font-size="14.00" fill="#cfffac">src/rendering/Explosion.js</text>
</g>
<!-- src/rendering/EnemyCollisionsChecks.js&#45;&gt;src/rendering/Explosion.js -->
<g id="edge46" class="edge">
<title>src/rendering/EnemyCollisionsChecks.js&#45;&gt;src/rendering/Explosion.js</title>
<path fill="none" stroke="#757575" d="M1370.88,-689.05C1401.58,-694.12 1437.8,-700.09 1469.57,-705.34"/>
<polygon fill="#757575" stroke="#757575" points="1469.28,-708.83 1479.71,-707.01 1470.42,-701.93 1469.28,-708.83"/>
</g>
<!-- src/keyboard.js&#45;&gt;src/gatling.js -->
<g id="edge32" class="edge">
<title>src/keyboard.js&#45;&gt;src/gatling.js</title>
<path fill="none" stroke="#757575" d="M539.26,-310.02C684.43,-311.74 1082.54,-318.86 1135,-345.52 1157.52,-356.97 1150.99,-374.09 1171,-389.52 1275.45,-470.07 1423.4,-523.71 1499.7,-547.86"/>
<polygon fill="#757575" stroke="#757575" points="1498.95,-551.29 1509.54,-550.94 1501.04,-544.61 1498.95,-551.29"/>
</g>
<!-- src/keyboard.js&#45;&gt;src/rocket.js -->
<g id="edge34" class="edge">
<title>src/keyboard.js&#45;&gt;src/rocket.js</title>
<path fill="none" stroke="#757575" d="M495.58,-297.95C510.13,-280.47 540.55,-248.03 575,-235.52 643.93,-210.5 666.67,-235.47 740,-235.52 1046.22,-235.75 1149.15,-112.2 1429,-236.52 1481.13,-259.68 1520.32,-317.73 1538.42,-348.93"/>
<polygon fill="#757575" stroke="#757575" points="1535.4,-350.68 1543.35,-357.68 1541.49,-347.25 1535.4,-350.68"/>
</g>
<!-- src/keyboard.js&#45;&gt;src/gameState.js -->
<g id="edge31" class="edge">
<title>src/keyboard.js&#45;&gt;src/gameState.js</title>
<path fill="none" stroke="#757575" d="M495.59,-297.88C531.24,-253.64 666.9,-98.52 816,-98.52 816,-98.52 816,-98.52 1301,-98.52 1451.67,-98.52 1529.7,-43.74 1636,-150.52 1711.79,-226.65 1625.03,-292.92 1672,-389.52 1687.39,-421.19 1717.07,-449.41 1738.02,-466.71"/>
<polygon fill="#757575" stroke="#757575" points="1735.86,-469.46 1745.85,-473 1740.25,-464 1735.86,-469.46"/>
</g>
<!-- src/keyboard.js&#45;&gt;src/music.js -->
<g id="edge33" class="edge">
<title>src/keyboard.js&#45;&gt;src/music.js</title>
<path fill="none" stroke="#757575" d="M528.51,-298.02C532.11,-296.64 535.66,-295.14 539,-293.52 556.53,-285.03 556.41,-274.35 575,-268.52 644.98,-246.61 666.71,-265.97 740,-268.52 1139.56,-282.42 1343.11,-76.38 1636,-348.52 1688.13,-396.96 1652.19,-436.18 1672,-504.52 1697.59,-592.78 1736.41,-695.25 1753.24,-738.52"/>
<polygon fill="#757575" stroke="#757575" points="1750.03,-739.94 1756.93,-747.98 1756.55,-737.39 1750.03,-739.94"/>
</g>
<!-- src/gameMenuActions.js -->
<g id="node20" class="node">
<title>src/gameMenuActions.js</title>
<path fill="none" stroke="#c6c5fe" d="M732.33,-301.02C732.33,-301.02 582.67,-301.02 582.67,-301.02 578.83,-301.02 575,-297.19 575,-293.36 575,-293.36 575,-285.69 575,-285.69 575,-281.86 578.83,-278.02 582.67,-278.02 582.67,-278.02 732.33,-278.02 732.33,-278.02 736.17,-278.02 740,-281.86 740,-285.69 740,-285.69 740,-293.36 740,-293.36 740,-297.19 736.17,-301.02 732.33,-301.02"/>
<text text-anchor="middle" x="657.5" y="-285.82" font-family="Arial" font-size="14.00" fill="#c6c5fe">src/gameMenuActions.js</text>
</g>
<!-- src/keyboard.js&#45;&gt;src/gameMenuActions.js -->
<g id="edge30" class="edge">
<title>src/keyboard.js&#45;&gt;src/gameMenuActions.js</title>
<path fill="none" stroke="#757575" d="M539.36,-303.31C547.48,-302.35 556.07,-301.34 564.75,-300.32"/>
<polygon fill="#757575" stroke="#757575" points="565.44,-303.76 574.96,-299.12 564.62,-296.81 565.44,-303.76"/>
</g>
<!-- src/touch.js -->
<g id="node22" class="node">
<title>src/touch.js</title>
<path fill="none" stroke="#c6c5fe" d="M692.33,-381.02C692.33,-381.02 622.67,-381.02 622.67,-381.02 618.83,-381.02 615,-377.19 615,-373.36 615,-373.36 615,-365.69 615,-365.69 615,-361.86 618.83,-358.02 622.67,-358.02 622.67,-358.02 692.33,-358.02 692.33,-358.02 696.17,-358.02 700,-361.86 700,-365.69 700,-365.69 700,-373.36 700,-373.36 700,-377.19 696.17,-381.02 692.33,-381.02"/>
<text text-anchor="middle" x="657.5" y="-365.82" font-family="Arial" font-size="14.00" fill="#c6c5fe">src/touch.js</text>
</g>
<!-- src/keyboard.js&#45;&gt;src/touch.js -->
<g id="edge35" class="edge">
<title>src/keyboard.js&#45;&gt;src/touch.js</title>
<path fill="none" stroke="#757575" d="M515.44,-321.13C532.65,-327.91 554.97,-336.49 575,-343.52 585.95,-347.37 597.8,-351.29 608.99,-354.88"/>
<polygon fill="#757575" stroke="#757575" points="608.02,-358.24 618.61,-357.94 610.14,-351.57 608.02,-358.24"/>
</g>
<!-- src/player/Player.js&#45;&gt;src/gatling.js -->
<g id="edge38" class="edge">
<title>src/player/Player.js&#45;&gt;src/gatling.js</title>
<path fill="none" stroke="#757575" d="M361,-653.07C417.1,-674.33 544.83,-717.52 656.5,-717.52 656.5,-717.52 656.5,-717.52 818,-717.52 961.56,-717.52 1010.97,-727.81 1135,-655.52 1156.24,-643.14 1149.4,-625.27 1171,-613.52 1185.04,-605.89 1392.78,-580.81 1494.37,-568.9"/>
<polygon fill="#757575" stroke="#757575" points="1494.92,-572.36 1504.45,-567.73 1494.11,-565.41 1494.92,-572.36"/>
</g>
<!-- src/player/Player.js&#45;&gt;src/rocket.js -->
<g id="edge41" class="edge">
<title>src/player/Player.js&#45;&gt;src/rocket.js</title>
<path fill="none" stroke="#757575" d="M347.38,-629.72C410.48,-582.11 657.42,-404.02 894,-345.52 1111.84,-291.66 1382.7,-334.94 1495.89,-357.72"/>
<polygon fill="#757575" stroke="#757575" points="1495.2,-361.16 1505.7,-359.73 1496.6,-354.3 1495.2,-361.16"/>
</g>
<!-- src/player/Player.js&#45;&gt;src/gameState.js -->
<g id="edge37" class="edge">
<title>src/player/Player.js&#45;&gt;src/gameState.js</title>
<path fill="none" stroke="#757575" d="M396.03,-641.52C461.49,-641.52 566.08,-641.52 656.5,-641.52 656.5,-641.52 656.5,-641.52 818,-641.52 961.23,-641.52 994.62,-611.95 1135,-583.52 1151.06,-580.27 1154.89,-578.55 1171,-575.52 1359.32,-540.13 1583.34,-508.43 1693.47,-493.52"/>
<polygon fill="#757575" stroke="#757575" points="1694.01,-496.98 1703.45,-492.18 1693.07,-490.05 1694.01,-496.98"/>
</g>
<!-- src/player/Player.js&#45;&gt;src/keyboard.js -->
<g id="edge39" class="edge">
<title>src/player/Player.js&#45;&gt;src/keyboard.js</title>
<path fill="none" stroke="#757575" d="M337.43,-629.71C359.89,-580.8 445.79,-393.8 474.84,-330.56"/>
<polygon fill="#757575" stroke="#757575" points="478.14,-331.75 479.14,-321.2 471.78,-328.82 478.14,-331.75"/>
</g>
<!-- src/player/Player.js&#45;&gt;src/music.js -->
<g id="edge40" class="edge">
<title>src/player/Player.js&#45;&gt;src/music.js</title>
<path fill="none" stroke="#757575" d="M345.86,-653.27C364.27,-668.19 398.38,-693.56 432,-706.52 492.06,-729.68 511.07,-721.98 575,-729.52 968.45,-775.93 1068.84,-776.16 1465,-779.52 1541,-780.17 1560.24,-785.52 1636,-779.52 1659.94,-777.63 1686.2,-773.73 1708.49,-769.87"/>
<polygon fill="#757575" stroke="#757575" points="1709.19,-773.3 1718.43,-768.11 1707.97,-766.41 1709.19,-773.3"/>
</g>
<!-- src/player/Player.js&#45;&gt;src/gameOver.js -->
<g id="edge36" class="edge">
<title>src/player/Player.js&#45;&gt;src/gameOver.js</title>
<path fill="none" stroke="#757575" d="M345.86,-653.27C364.27,-668.19 398.38,-693.56 432,-706.52 492.06,-729.68 510.92,-723.41 575,-729.52 914.86,-761.95 1324.1,-761.9 1482.43,-760.42"/>
<polygon fill="#757575" stroke="#757575" points="1482.53,-763.92 1492.5,-760.32 1482.46,-756.92 1482.53,-763.92"/>
</g>
<!-- src/step.js&#45;&gt;src/enemy.js -->
<g id="edge53" class="edge">
<title>src/step.js&#45;&gt;src/enemy.js</title>
<path fill="none" stroke="#757575" d="M820.76,-497.44C828.71,-530.31 853.68,-624.46 894,-693.52 922.18,-741.79 967.64,-789.46 993.61,-814.81"/>
<polygon fill="#757575" stroke="#757575" points="991.37,-817.52 1001,-821.94 996.23,-812.48 991.37,-817.52"/>
</g>
<!-- src/step.js&#45;&gt;src/gatling.js -->
<g id="edge56" class="edge">
<title>src/step.js&#45;&gt;src/gatling.js</title>
<path fill="none" stroke="#757575" d="M822.76,-497.09C832.44,-518.82 856.68,-565.24 894,-583.52 990.19,-630.65 1027.92,-586.23 1135,-583.52 1263.74,-580.26 1414.75,-571.32 1494.19,-566.22"/>
<polygon fill="#757575" stroke="#757575" points="1494.69,-569.69 1504.45,-565.55 1494.24,-562.71 1494.69,-569.69"/>
</g>
<!-- src/step.js&#45;&gt;src/ammo.js -->
<g id="edge51" class="edge">
<title>src/step.js&#45;&gt;src/ammo.js</title>
<path fill="none" stroke="#757575" d="M855.88,-478.53C868.05,-476.29 881.6,-473.8 894,-471.52 1001.1,-451.88 1037.13,-475.24 1135,-427.52 1154.24,-418.14 1151.85,-405.09 1171,-395.52 1193.62,-384.22 1220.81,-377.83 1244.31,-374.22"/>
<polygon fill="#757575" stroke="#757575" points="1245.06,-377.65 1254.47,-372.79 1244.08,-370.72 1245.06,-377.65"/>
</g>
<!-- src/step.js&#45;&gt;src/rocket.js -->
<g id="edge59" class="edge">
<title>src/step.js&#45;&gt;src/rocket.js</title>
<path fill="none" stroke="#757575" d="M855.78,-484.78C915.4,-483.18 1034.85,-478.27 1135,-463.52 1267.57,-444.01 1420.63,-404.88 1498.41,-383.78"/>
<polygon fill="#757575" stroke="#757575" points="1499.69,-387.06 1508.42,-381.05 1497.85,-380.31 1499.69,-387.06"/>
</g>
<!-- src/step.js&#45;&gt;src/background.js -->
<g id="edge52" class="edge">
<title>src/step.js&#45;&gt;src/background.js</title>
<path fill="none" stroke="#757575" d="M831.33,-474.01C845.8,-462.1 870.07,-443.84 894,-433.52 909.42,-426.87 926.72,-421.85 943.26,-418.09"/>
<polygon fill="#757575" stroke="#757575" points="944.4,-421.42 953.44,-415.9 942.93,-414.58 944.4,-421.42"/>
</g>
<!-- src/step.js&#45;&gt;src/gameState.js -->
<g id="edge55" class="edge">
<title>src/step.js&#45;&gt;src/gameState.js</title>
<path fill="none" stroke="#757575" d="M855.88,-487.31C868.05,-487.81 881.59,-488.28 894,-488.52 1001.09,-490.64 1027.89,-488.87 1135,-488.52 1337.98,-487.88 1577.95,-486.05 1693.12,-485.1"/>
<polygon fill="#757575" stroke="#757575" points="1693.23,-488.6 1703.2,-485.02 1693.17,-481.6 1693.23,-488.6"/>
</g>
<!-- src/step.js&#45;&gt;src/gameOver.js -->
<g id="edge54" class="edge">
<title>src/step.js&#45;&gt;src/gameOver.js</title>
<path fill="none" stroke="#757575" d="M822.04,-497.26C831.05,-521.64 855.06,-578.04 894,-608.52 995.83,-688.22 1045.29,-667.21 1171,-697.52 1200.65,-704.67 1381.71,-733.34 1482.29,-749.07"/>
<polygon fill="#757575" stroke="#757575" points="1481.94,-752.56 1492.36,-750.64 1483.02,-745.64 1481.94,-752.56"/>
</g>
<!-- src/mobile/mobileVelocityController.js -->
<g id="node23" class="node">
<title>src/mobile/mobileVelocityController.js</title>
<path fill="none" stroke="#cfffac" d="M1127.33,-575.02C1127.33,-575.02 901.67,-575.02 901.67,-575.02 897.83,-575.02 894,-571.19 894,-567.36 894,-567.36 894,-559.69 894,-559.69 894,-555.86 897.83,-552.02 901.67,-552.02 901.67,-552.02 1127.33,-552.02 1127.33,-552.02 1131.17,-552.02 1135,-555.86 1135,-559.69 1135,-559.69 1135,-567.36 1135,-567.36 1135,-571.19 1131.17,-575.02 1127.33,-575.02"/>
<text text-anchor="middle" x="1014.5" y="-559.82" font-family="Arial" font-size="14.00" fill="#cfffac">src/mobile/mobileVelocityController.js</text>
</g>
<!-- src/step.js&#45;&gt;src/mobile/mobileVelocityController.js -->
<g id="edge57" class="edge">
<title>src/step.js&#45;&gt;src/mobile/mobileVelocityController.js</title>
<path fill="none" stroke="#757575" d="M831.33,-497.04C845.8,-508.94 870.07,-527.2 894,-537.52 905.15,-542.33 917.29,-546.29 929.41,-549.54"/>
<polygon fill="#757575" stroke="#757575" points="928.56,-552.93 939.11,-551.99 930.28,-546.15 928.56,-552.93"/>
</g>
<!-- src/mobileJoystick.js -->
<g id="node24" class="node">
<title>src/mobileJoystick.js</title>
<path fill="none" stroke="#cfffac" d="M1076.83,-378.02C1076.83,-378.02 952.17,-378.02 952.17,-378.02 948.33,-378.02 944.5,-374.19 944.5,-370.36 944.5,-370.36 944.5,-362.69 944.5,-362.69 944.5,-358.86 948.33,-355.02 952.17,-355.02 952.17,-355.02 1076.83,-355.02 1076.83,-355.02 1080.67,-355.02 1084.5,-358.86 1084.5,-362.69 1084.5,-362.69 1084.5,-370.36 1084.5,-370.36 1084.5,-374.19 1080.67,-378.02 1076.83,-378.02"/>
<text text-anchor="middle" x="1014.5" y="-362.82" font-family="Arial" font-size="14.00" fill="#cfffac">src/mobileJoystick.js</text>
</g>
<!-- src/step.js&#45;&gt;src/mobileJoystick.js -->
<g id="edge58" class="edge">
<title>src/step.js&#45;&gt;src/mobileJoystick.js</title>
<path fill="none" stroke="#757575" d="M823.35,-473.74C833.68,-452.45 858.52,-407.84 894,-386.52 906.12,-379.25 920.1,-374.41 934.15,-371.24"/>
<polygon fill="#757575" stroke="#757575" points="935.23,-374.59 944.36,-369.21 933.87,-367.72 935.23,-374.59"/>
</g>
<!-- src/gameMenuActions.js&#45;&gt;src/gameState.js -->
<g id="edge24" class="edge">
<title>src/gameMenuActions.js&#45;&gt;src/gameState.js</title>
<path fill="none" stroke="#757575" d="M700.76,-277.99C869.28,-233.12 1491.18,-78.45 1636,-198.52 1702.5,-253.66 1632.81,-312.54 1672,-389.52 1687.97,-420.9 1717.53,-449.18 1738.29,-466.57"/>
<polygon fill="#757575" stroke="#757575" points="1736.08,-469.29 1746.04,-472.9 1740.51,-463.87 1736.08,-469.29"/>
</g>
<!-- src/gameMenuActions.js&#45;&gt;src/step.js -->
<g id="edge25" class="edge">
<title>src/gameMenuActions.js&#45;&gt;src/step.js</title>
<path fill="none" stroke="#757575" d="M679.55,-301.2C697.29,-311.81 722.5,-328.79 740,-348.52 771.82,-384.41 795.86,-435.87 807.75,-464.41"/>
<polygon fill="#757575" stroke="#757575" points="804.56,-465.87 811.57,-473.82 811.05,-463.24 804.56,-465.87"/>
</g>
<!-- src/gameOver.js&#45;&gt;src/levelCompleteScreen.js -->
<g id="edge26" class="edge">
<title>src/gameOver.js&#45;&gt;src/levelCompleteScreen.js</title>
<path fill="none" stroke="#757575" d="M1564.32,-771.31C1599.62,-803.75 1698.48,-894.6 1741.3,-933.96"/>
<polygon fill="#757575" stroke="#757575" points="1739.12,-936.71 1748.85,-940.9 1743.85,-931.55 1739.12,-936.71"/>
</g>
<!-- src/gameOver.js&#45;&gt;src/music.js -->
<g id="edge27" class="edge">
<title>src/gameOver.js&#45;&gt;src/music.js</title>
<path fill="none" stroke="#757575" d="M1608.61,-759.52C1639.71,-759.52 1677.94,-759.52 1708.39,-759.52"/>
<polygon fill="#757575" stroke="#757575" points="1708.4,-763.02 1718.4,-759.52 1708.4,-756.02 1708.4,-763.02"/>
</g>
<!-- src/touch.js&#45;&gt;src/mobileJoystick.js -->
<g id="edge60" class="edge">
<title>src/touch.js&#45;&gt;src/mobileJoystick.js</title>
<path fill="none" stroke="#757575" d="M700.27,-369.17C757.48,-368.69 861.36,-367.81 933.73,-367.2"/>
<polygon fill="#757575" stroke="#757575" points="934.2,-370.69 944.17,-367.11 934.15,-363.69 934.2,-370.69"/>
</g>
</g>
</svg>
