<?xml version="1.0" encoding="UTF-8" standalone="no"?>
<!DOCTYPE svg PUBLIC "-//W3C//DTD SVG 1.1//EN"
 "http://www.w3.org/Graphics/SVG/1.1/DTD/svg11.dtd">
<!-- Generated by graphviz version 2.43.0 (0)
 -->
<!-- Title: G Pages: 1 -->
<svg width="1944pt" height="823pt"
 viewBox="0.00 0.00 1944.20 823.09" xmlns="http://www.w3.org/2000/svg" xmlns:xlink="http://www.w3.org/1999/xlink">
<g id="graph0" class="graph" transform="scale(1 1) rotate(0) translate(21.6 801.49)">
<title>G</title>
<polygon fill="#111111" stroke="transparent" points="-21.6,21.6 -21.6,-801.49 1922.6,-801.49 1922.6,21.6 -21.6,21.6"/>
<!-- app.js -->
<g id="node1" class="node">
<title>app.js</title>
<path fill="none" stroke="#c6c5fe" d="M46.33,-633.39C46.33,-633.39 7.67,-633.39 7.67,-633.39 3.83,-633.39 0,-629.56 0,-625.73 0,-625.73 0,-618.06 0,-618.06 0,-614.23 3.83,-610.39 7.67,-610.39 7.67,-610.39 46.33,-610.39 46.33,-610.39 50.17,-610.39 54,-614.23 54,-618.06 54,-618.06 54,-625.73 54,-625.73 54,-629.56 50.17,-633.39 46.33,-633.39"/>
<text text-anchor="middle" x="27" y="-618.19" font-family="Arial" font-size="14.00" fill="#c6c5fe">app.js</text>
</g>
<!-- src/gameManager.js -->
<g id="node2" class="node">
<title>src/gameManager.js</title>
<path fill="none" stroke="#c6c5fe" d="M222.33,-482.39C222.33,-482.39 97.67,-482.39 97.67,-482.39 93.83,-482.39 90,-478.56 90,-474.73 90,-474.73 90,-467.06 90,-467.06 90,-463.23 93.83,-459.39 97.67,-459.39 97.67,-459.39 222.33,-459.39 222.33,-459.39 226.17,-459.39 230,-463.23 230,-467.06 230,-467.06 230,-474.73 230,-474.73 230,-478.56 226.17,-482.39 222.33,-482.39"/>
<text text-anchor="middle" x="160" y="-467.19" font-family="Arial" font-size="14.00" fill="#c6c5fe">src/gameManager.js</text>
</g>
<!-- app.js&#45;&gt;src/gameManager.js -->
<g id="edge1" class="edge">
<title>app.js&#45;&gt;src/gameManager.js</title>
<path fill="none" stroke="#757575" d="M38.28,-610.05C60.76,-584.13 114.48,-522.21 142.05,-490.44"/>
<polygon fill="#757575" stroke="#757575" points="144.86,-492.54 148.77,-482.69 139.57,-487.95 144.86,-492.54"/>
</g>
<!-- src/music.js -->
<g id="node3" class="node">
<title>src/music.js</title>
<path fill="none" stroke="#cfffac" d="M1846.83,-619.39C1846.83,-619.39 1774.17,-619.39 1774.17,-619.39 1770.33,-619.39 1766.5,-615.56 1766.5,-611.73 1766.5,-611.73 1766.5,-604.06 1766.5,-604.06 1766.5,-600.23 1770.33,-596.39 1774.17,-596.39 1774.17,-596.39 1846.83,-596.39 1846.83,-596.39 1850.67,-596.39 1854.5,-600.23 1854.5,-604.06 1854.5,-604.06 1854.5,-611.73 1854.5,-611.73 1854.5,-615.56 1850.67,-619.39 1846.83,-619.39"/>
<text text-anchor="middle" x="1810.5" y="-604.19" font-family="Arial" font-size="14.00" fill="#cfffac">src/music.js</text>
</g>
<!-- app.js&#45;&gt;src/music.js -->
<g id="edge2" class="edge">
<title>app.js&#45;&gt;src/music.js</title>
<path fill="none" stroke="#757575" d="M39.82,-633.65C77.17,-669.47 197.37,-774.89 318.5,-774.89 318.5,-774.89 318.5,-774.89 492.5,-774.89 837.06,-774.89 919.94,-703.89 1264.5,-703.89 1264.5,-703.89 1264.5,-703.89 1453,-703.89 1557.35,-703.89 1584.1,-692.04 1684,-661.89 1717.02,-651.93 1753.02,-635.86 1777.97,-623.84"/>
<polygon fill="#757575" stroke="#757575" points="1779.5,-626.98 1786.95,-619.45 1776.43,-620.69 1779.5,-626.98"/>
</g>
<!-- src/gameManager.js&#45;&gt;src/music.js -->
<g id="edge16" class="edge">
<title>src/gameManager.js&#45;&gt;src/music.js</title>
<path fill="none" stroke="#757575" d="M165.58,-482.81C177.48,-512.19 212.24,-588.59 266,-628.89 349.63,-691.58 385.98,-698.89 490.5,-698.89 490.5,-698.89 490.5,-698.89 652,-698.89 924.62,-698.89 991.88,-665.89 1264.5,-665.89 1264.5,-665.89 1264.5,-665.89 1453,-665.89 1562.22,-665.89 1687.86,-639.04 1757,-621.88"/>
<polygon fill="#757575" stroke="#757575" points="1757.94,-625.25 1766.79,-619.42 1756.24,-618.46 1757.94,-625.25"/>
</g>
<!-- src/Boss.js -->
<g id="node4" class="node">
<title>src/Boss.js</title>
<path fill="none" stroke="#c6c5fe" d="M684.33,-596.39C684.33,-596.39 617.67,-596.39 617.67,-596.39 613.83,-596.39 610,-592.56 610,-588.73 610,-588.73 610,-581.06 610,-581.06 610,-577.23 613.83,-573.39 617.67,-573.39 617.67,-573.39 684.33,-573.39 684.33,-573.39 688.17,-573.39 692,-577.23 692,-581.06 692,-581.06 692,-588.73 692,-588.73 692,-592.56 688.17,-596.39 684.33,-596.39"/>
<text text-anchor="middle" x="651" y="-581.19" font-family="Arial" font-size="14.00" fill="#c6c5fe">src/Boss.js</text>
</g>
<!-- src/gameManager.js&#45;&gt;src/Boss.js -->
<g id="edge10" class="edge">
<title>src/gameManager.js&#45;&gt;src/Boss.js</title>
<path fill="none" stroke="#757575" d="M170.51,-482.69C187.34,-502.57 224.52,-542.2 266,-558.89 378.34,-604.1 524.06,-598.33 599.61,-591.11"/>
<polygon fill="#757575" stroke="#757575" points="600.19,-594.56 609.79,-590.08 599.49,-587.6 600.19,-594.56"/>
</g>
<!-- src/enemy.js -->
<g id="node5" class="node">
<title>src/enemy.js</title>
<path fill="none" stroke="#c6c5fe" d="M827.33,-518.39C827.33,-518.39 750.67,-518.39 750.67,-518.39 746.83,-518.39 743,-514.56 743,-510.73 743,-510.73 743,-503.06 743,-503.06 743,-499.23 746.83,-495.39 750.67,-495.39 750.67,-495.39 827.33,-495.39 827.33,-495.39 831.17,-495.39 835,-499.23 835,-503.06 835,-503.06 835,-510.73 835,-510.73 835,-514.56 831.17,-518.39 827.33,-518.39"/>
<text text-anchor="middle" x="789" y="-503.19" font-family="Arial" font-size="14.00" fill="#c6c5fe">src/enemy.js</text>
</g>
<!-- src/gameManager.js&#45;&gt;src/enemy.js -->
<g id="edge13" class="edge">
<title>src/gameManager.js&#45;&gt;src/enemy.js</title>
<path fill="none" stroke="#757575" d="M230.12,-479.47C242.07,-480.76 254.39,-481.96 266,-482.89 435.75,-496.48 637.22,-503.05 732.62,-505.58"/>
<polygon fill="#757575" stroke="#757575" points="732.81,-509.09 742.9,-505.85 732.99,-502.09 732.81,-509.09"/>
</g>
<!-- src/levelCompleteScreen.js -->
<g id="node7" class="node">
<title>src/levelCompleteScreen.js</title>
<path fill="none" stroke="#cfffac" d="M1893.33,-753.39C1893.33,-753.39 1727.67,-753.39 1727.67,-753.39 1723.83,-753.39 1720,-749.56 1720,-745.73 1720,-745.73 1720,-738.06 1720,-738.06 1720,-734.23 1723.83,-730.39 1727.67,-730.39 1727.67,-730.39 1893.33,-730.39 1893.33,-730.39 1897.17,-730.39 1901,-734.23 1901,-738.06 1901,-738.06 1901,-745.73 1901,-745.73 1901,-749.56 1897.17,-753.39 1893.33,-753.39"/>
<text text-anchor="middle" x="1810.5" y="-738.19" font-family="Arial" font-size="14.00" fill="#cfffac">src/levelCompleteScreen.js</text>
</g>
<!-- src/gameManager.js&#45;&gt;src/levelCompleteScreen.js -->
<g id="edge15" class="edge">
<title>src/gameManager.js&#45;&gt;src/levelCompleteScreen.js</title>
<path fill="none" stroke="#757575" d="M163.59,-482.51C171.92,-517.03 201.29,-619.8 266,-671.89 350.19,-739.68 737.68,-779.89 1264.5,-779.89 1264.5,-779.89 1264.5,-779.89 1453,-779.89 1549.6,-779.89 1660.1,-765.93 1732.14,-754.93"/>
<polygon fill="#757575" stroke="#757575" points="1732.7,-758.38 1742.05,-753.4 1731.63,-751.47 1732.7,-758.38"/>
</g>
<!-- src/ammo.js -->
<g id="node8" class="node">
<title>src/ammo.js</title>
<path fill="none" stroke="#c6c5fe" d="M1052.83,-135.39C1052.83,-135.39 977.17,-135.39 977.17,-135.39 973.33,-135.39 969.5,-131.56 969.5,-127.73 969.5,-127.73 969.5,-120.06 969.5,-120.06 969.5,-116.23 973.33,-112.39 977.17,-112.39 977.17,-112.39 1052.83,-112.39 1052.83,-112.39 1056.67,-112.39 1060.5,-116.23 1060.5,-120.06 1060.5,-120.06 1060.5,-127.73 1060.5,-127.73 1060.5,-131.56 1056.67,-135.39 1052.83,-135.39"/>
<text text-anchor="middle" x="1015" y="-120.19" font-family="Arial" font-size="14.00" fill="#c6c5fe">src/ammo.js</text>
</g>
<!-- src/gameManager.js&#45;&gt;src/ammo.js -->
<g id="edge11" class="edge">
<title>src/gameManager.js&#45;&gt;src/ammo.js</title>
<path fill="none" stroke="#757575" d="M160.48,-459.36C158.99,-411.09 160.41,-224.11 266,-144.89 374.76,-63.3 805.73,-101.1 959.3,-117.59"/>
<polygon fill="#757575" stroke="#757575" points="959.12,-121.1 969.44,-118.7 959.87,-114.14 959.12,-121.1"/>
</g>
<!-- src/rocket.js -->
<g id="node9" class="node">
<title>src/rocket.js</title>
<path fill="none" stroke="#c6c5fe" d="M1655.33,-175.39C1655.33,-175.39 1581.67,-175.39 1581.67,-175.39 1577.83,-175.39 1574,-171.56 1574,-167.73 1574,-167.73 1574,-160.06 1574,-160.06 1574,-156.23 1577.83,-152.39 1581.67,-152.39 1581.67,-152.39 1655.33,-152.39 1655.33,-152.39 1659.17,-152.39 1663,-156.23 1663,-160.06 1663,-160.06 1663,-167.73 1663,-167.73 1663,-171.56 1659.17,-175.39 1655.33,-175.39"/>
<text text-anchor="middle" x="1618.5" y="-160.19" font-family="Arial" font-size="14.00" fill="#c6c5fe">src/rocket.js</text>
</g>
<!-- src/gameManager.js&#45;&gt;src/rocket.js -->
<g id="edge19" class="edge">
<title>src/gameManager.js&#45;&gt;src/rocket.js</title>
<path fill="none" stroke="#757575" d="M160.51,-459.31C159.04,-408.97 160.16,-207.04 266,-103.89 339.81,-31.97 387.45,-45.89 490.5,-45.89 490.5,-45.89 490.5,-45.89 1266.5,-45.89 1379.86,-45.89 1412.54,-49.87 1517,-93.89 1547.21,-106.63 1577.49,-129.41 1596.79,-145.53"/>
<polygon fill="#757575" stroke="#757575" points="1594.72,-148.36 1604.6,-152.19 1599.26,-143.04 1594.72,-148.36"/>
</g>
<!-- src/background.js -->
<g id="node10" class="node">
<title>src/background.js</title>
<path fill="none" stroke="#cfffac" d="M842.33,-477.39C842.33,-477.39 735.67,-477.39 735.67,-477.39 731.83,-477.39 728,-473.56 728,-469.73 728,-469.73 728,-462.06 728,-462.06 728,-458.23 731.83,-454.39 735.67,-454.39 735.67,-454.39 842.33,-454.39 842.33,-454.39 846.17,-454.39 850,-458.23 850,-462.06 850,-462.06 850,-469.73 850,-469.73 850,-473.56 846.17,-477.39 842.33,-477.39"/>
<text text-anchor="middle" x="789" y="-462.19" font-family="Arial" font-size="14.00" fill="#cfffac">src/background.js</text>
</g>
<!-- src/gameManager.js&#45;&gt;src/background.js -->
<g id="edge12" class="edge">
<title>src/gameManager.js&#45;&gt;src/background.js</title>
<path fill="none" stroke="#757575" d="M230.19,-470.34C350.42,-469.38 596.59,-467.42 717.63,-466.46"/>
<polygon fill="#757575" stroke="#757575" points="717.92,-469.95 727.89,-466.37 717.86,-462.95 717.92,-469.95"/>
</g>
<!-- src/keyboard.js -->
<g id="node12" class="node">
<title>src/keyboard.js</title>
<path fill="none" stroke="#c6c5fe" d="M365.33,-326.39C365.33,-326.39 273.67,-326.39 273.67,-326.39 269.83,-326.39 266,-322.56 266,-318.73 266,-318.73 266,-311.06 266,-311.06 266,-307.23 269.83,-303.39 273.67,-303.39 273.67,-303.39 365.33,-303.39 365.33,-303.39 369.17,-303.39 373,-307.23 373,-311.06 373,-311.06 373,-318.73 373,-318.73 373,-322.56 369.17,-326.39 365.33,-326.39"/>
<text text-anchor="middle" x="319.5" y="-311.19" font-family="Arial" font-size="14.00" fill="#c6c5fe">src/keyboard.js</text>
</g>
<!-- src/gameManager.js&#45;&gt;src/keyboard.js -->
<g id="edge14" class="edge">
<title>src/gameManager.js&#45;&gt;src/keyboard.js</title>
<path fill="none" stroke="#757575" d="M172.84,-459.17C199.86,-432.4 266.29,-366.61 299.27,-333.94"/>
<polygon fill="#757575" stroke="#757575" points="301.88,-336.28 306.52,-326.76 296.96,-331.31 301.88,-336.28"/>
</g>
<!-- src/player/Player.js -->
<g id="node13" class="node">
<title>src/player/Player.js</title>
<path fill="none" stroke="#c6c5fe" d="M1509.33,-289.39C1509.33,-289.39 1394.67,-289.39 1394.67,-289.39 1390.83,-289.39 1387,-285.56 1387,-281.73 1387,-281.73 1387,-274.06 1387,-274.06 1387,-270.23 1390.83,-266.39 1394.67,-266.39 1394.67,-266.39 1509.33,-266.39 1509.33,-266.39 1513.17,-266.39 1517,-270.23 1517,-274.06 1517,-274.06 1517,-281.73 1517,-281.73 1517,-285.56 1513.17,-289.39 1509.33,-289.39"/>
<text text-anchor="middle" x="1452" y="-274.19" font-family="Arial" font-size="14.00" fill="#c6c5fe">src/player/Player.js</text>
</g>
<!-- src/gameManager.js&#45;&gt;src/player/Player.js -->
<g id="edge17" class="edge">
<title>src/gameManager.js&#45;&gt;src/player/Player.js</title>
<path fill="none" stroke="#757575" d="M164.49,-459.39C174.64,-427.94 207.21,-339.85 266,-294.89 318.42,-254.81 343.62,-263.87 409,-254.89 768.92,-205.5 1205.21,-247.73 1376.69,-268.25"/>
<polygon fill="#757575" stroke="#757575" points="1376.52,-271.75 1386.87,-269.48 1377.36,-264.8 1376.52,-271.75"/>
</g>
<!-- src/rendering/Helpers.js -->
<g id="node14" class="node">
<title>src/rendering/Helpers.js</title>
<path fill="none" stroke="#cfffac" d="M1882.33,-232.39C1882.33,-232.39 1738.67,-232.39 1738.67,-232.39 1734.83,-232.39 1731,-228.56 1731,-224.73 1731,-224.73 1731,-217.06 1731,-217.06 1731,-213.23 1734.83,-209.39 1738.67,-209.39 1738.67,-209.39 1882.33,-209.39 1882.33,-209.39 1886.17,-209.39 1890,-213.23 1890,-217.06 1890,-217.06 1890,-224.73 1890,-224.73 1890,-228.56 1886.17,-232.39 1882.33,-232.39"/>
<text text-anchor="middle" x="1810.5" y="-217.19" font-family="Arial" font-size="14.00" fill="#cfffac">src/rendering/Helpers.js</text>
</g>
<!-- src/gameManager.js&#45;&gt;src/rendering/Helpers.js -->
<g id="edge18" class="edge">
<title>src/gameManager.js&#45;&gt;src/rendering/Helpers.js</title>
<path fill="none" stroke="#757575" d="M162.15,-459.22C168.56,-396.78 201.85,-102.98 266,-43.89 340.33,24.57 389.45,-7.89 490.5,-7.89 490.5,-7.89 490.5,-7.89 1453,-7.89 1603.22,-7.89 1745.06,-148.99 1792.66,-201.51"/>
<polygon fill="#757575" stroke="#757575" points="1790.21,-204.01 1799.48,-209.14 1795.43,-199.35 1790.21,-204.01"/>
</g>
<!-- src/speedometer.js -->
<g id="node15" class="node">
<title>src/speedometer.js</title>
<path fill="none" stroke="#cfffac" d="M1676.33,-541.39C1676.33,-541.39 1560.67,-541.39 1560.67,-541.39 1556.83,-541.39 1553,-537.56 1553,-533.73 1553,-533.73 1553,-526.06 1553,-526.06 1553,-522.23 1556.83,-518.39 1560.67,-518.39 1560.67,-518.39 1676.33,-518.39 1676.33,-518.39 1680.17,-518.39 1684,-522.23 1684,-526.06 1684,-526.06 1684,-533.73 1684,-533.73 1684,-537.56 1680.17,-541.39 1676.33,-541.39"/>
<text text-anchor="middle" x="1618.5" y="-526.19" font-family="Arial" font-size="14.00" fill="#cfffac">src/speedometer.js</text>
</g>
<!-- src/gameManager.js&#45;&gt;src/speedometer.js -->
<g id="edge20" class="edge">
<title>src/gameManager.js&#45;&gt;src/speedometer.js</title>
<path fill="none" stroke="#757575" d="M168.52,-482.48C184.02,-505.47 221.81,-557.15 266,-585.89 354.19,-643.25 385.3,-660.89 490.5,-660.89 490.5,-660.89 490.5,-660.89 652,-660.89 998.01,-660.89 1407.49,-577.26 1558.11,-543.64"/>
<polygon fill="#757575" stroke="#757575" points="1559.09,-547.01 1568.08,-541.4 1557.55,-540.18 1559.09,-547.01"/>
</g>
<!-- src/step.js -->
<g id="node16" class="node">
<title>src/step.js</title>
<path fill="none" stroke="#c6c5fe" d="M681.83,-399.39C681.83,-399.39 620.17,-399.39 620.17,-399.39 616.33,-399.39 612.5,-395.56 612.5,-391.73 612.5,-391.73 612.5,-384.06 612.5,-384.06 612.5,-380.23 616.33,-376.39 620.17,-376.39 620.17,-376.39 681.83,-376.39 681.83,-376.39 685.67,-376.39 689.5,-380.23 689.5,-384.06 689.5,-384.06 689.5,-391.73 689.5,-391.73 689.5,-395.56 685.67,-399.39 681.83,-399.39"/>
<text text-anchor="middle" x="651" y="-384.19" font-family="Arial" font-size="14.00" fill="#c6c5fe">src/step.js</text>
</g>
<!-- src/gameManager.js&#45;&gt;src/step.js -->
<g id="edge21" class="edge">
<title>src/gameManager.js&#45;&gt;src/step.js</title>
<path fill="none" stroke="#757575" d="M228.99,-459.35C329.46,-442.3 515.07,-410.8 602.32,-395.99"/>
<polygon fill="#757575" stroke="#757575" points="602.94,-399.43 612.21,-394.31 601.77,-392.53 602.94,-399.43"/>
</g>
<!-- src/Boss.js&#45;&gt;src/enemy.js -->
<g id="edge3" class="edge">
<title>src/Boss.js&#45;&gt;src/enemy.js</title>
<path fill="none" stroke="#757575" d="M672.07,-573.39C695.07,-560.19 732.96,-538.46 759.13,-523.45"/>
<polygon fill="#757575" stroke="#757575" points="760.92,-526.46 767.85,-518.45 757.43,-520.39 760.92,-526.46"/>
</g>
<!-- src/gatling.js -->
<g id="node6" class="node">
<title>src/gatling.js</title>
<path fill="none" stroke="#c6c5fe" d="M1303.83,-329.39C1303.83,-329.39 1227.17,-329.39 1227.17,-329.39 1223.33,-329.39 1219.5,-325.56 1219.5,-321.73 1219.5,-321.73 1219.5,-314.06 1219.5,-314.06 1219.5,-310.23 1223.33,-306.39 1227.17,-306.39 1227.17,-306.39 1303.83,-306.39 1303.83,-306.39 1307.67,-306.39 1311.5,-310.23 1311.5,-314.06 1311.5,-314.06 1311.5,-321.73 1311.5,-321.73 1311.5,-325.56 1307.67,-329.39 1303.83,-329.39"/>
<text text-anchor="middle" x="1265.5" y="-314.19" font-family="Arial" font-size="14.00" fill="#c6c5fe">src/gatling.js</text>
</g>
<!-- src/Boss.js&#45;&gt;src/gatling.js -->
<g id="edge4" class="edge">
<title>src/Boss.js&#45;&gt;src/gatling.js</title>
<path fill="none" stroke="#757575" d="M692.37,-580.21C734.5,-573.82 801.1,-559.32 850,-527.89 870.68,-514.6 864.63,-498.06 886,-485.89 987.16,-428.32 1055.58,-516.59 1144,-440.89 1181.8,-408.54 1142.63,-367.74 1180,-334.89 1188.26,-327.63 1198.75,-323.14 1209.49,-320.43"/>
<polygon fill="#757575" stroke="#757575" points="1210.29,-323.84 1219.38,-318.4 1208.88,-316.98 1210.29,-323.84"/>
</g>
<!-- src/Boss.js&#45;&gt;src/levelCompleteScreen.js -->
<g id="edge5" class="edge">
<title>src/Boss.js&#45;&gt;src/levelCompleteScreen.js</title>
<path fill="none" stroke="#757575" d="M677.66,-596.44C760.67,-632.7 1030.13,-741.89 1264.5,-741.89 1264.5,-741.89 1264.5,-741.89 1453,-741.89 1539.57,-741.89 1637.96,-741.89 1709.42,-741.89"/>
<polygon fill="#757575" stroke="#757575" points="1709.76,-745.39 1719.76,-741.89 1709.76,-738.39 1709.76,-745.39"/>
</g>
<!-- src/enemy.js&#45;&gt;src/gatling.js -->
<g id="edge8" class="edge">
<title>src/enemy.js&#45;&gt;src/gatling.js</title>
<path fill="none" stroke="#757575" d="M832.71,-495.32C838.71,-492.94 844.65,-490.15 850,-486.89 869.06,-475.3 866.22,-462.23 886,-451.89 989.53,-397.82 1047.82,-468.17 1144,-401.89 1168.98,-384.68 1155.97,-362.42 1180,-343.89 1188.65,-337.22 1199.03,-332.25 1209.5,-328.55"/>
<polygon fill="#757575" stroke="#757575" points="1210.63,-331.86 1219.1,-325.49 1208.51,-325.19 1210.63,-331.86"/>
</g>
<!-- src/rendering/EnemyCollisionsChecks.js -->
<g id="node11" class="node">
<title>src/rendering/EnemyCollisionsChecks.js</title>
<path fill="none" stroke="#c6c5fe" d="M1136.33,-517.39C1136.33,-517.39 893.67,-517.39 893.67,-517.39 889.83,-517.39 886,-513.56 886,-509.73 886,-509.73 886,-502.06 886,-502.06 886,-498.23 889.83,-494.39 893.67,-494.39 893.67,-494.39 1136.33,-494.39 1136.33,-494.39 1140.17,-494.39 1144,-498.23 1144,-502.06 1144,-502.06 1144,-509.73 1144,-509.73 1144,-513.56 1140.17,-517.39 1136.33,-517.39"/>
<text text-anchor="middle" x="1015" y="-502.19" font-family="Arial" font-size="14.00" fill="#c6c5fe">src/rendering/EnemyCollisionsChecks.js</text>
</g>
<!-- src/enemy.js&#45;&gt;src/rendering/EnemyCollisionsChecks.js -->
<g id="edge9" class="edge">
<title>src/enemy.js&#45;&gt;src/rendering/EnemyCollisionsChecks.js</title>
<path fill="none" stroke="#757575" d="M835.06,-506.69C847.31,-506.64 861.24,-506.58 875.81,-506.51"/>
<polygon fill="#757575" stroke="#757575" points="875.99,-510.01 885.97,-506.47 875.96,-503.01 875.99,-510.01"/>
</g>
<!-- src/gatling.js&#45;&gt;src/music.js -->
<g id="edge25" class="edge">
<title>src/gatling.js&#45;&gt;src/music.js</title>
<path fill="none" stroke="#757575" d="M1311.52,-324.69C1392.16,-338.56 1564.02,-376.02 1684,-457.89 1735.6,-493.1 1777.85,-555.17 1797.54,-587.31"/>
<polygon fill="#757575" stroke="#757575" points="1794.76,-589.49 1802.91,-596.26 1800.77,-585.89 1794.76,-589.49"/>
</g>
<!-- src/gatling.js&#45;&gt;src/player/Player.js -->
<g id="edge26" class="edge">
<title>src/gatling.js&#45;&gt;src/player/Player.js</title>
<path fill="none" stroke="#757575" d="M1311.63,-308.11C1334.61,-303.13 1362.93,-296.99 1388.02,-291.55"/>
<polygon fill="#757575" stroke="#757575" points="1388.79,-294.96 1397.82,-289.42 1387.3,-288.12 1388.79,-294.96"/>
</g>
<!-- src/ammo.js&#45;&gt;src/gatling.js -->
<g id="edge6" class="edge">
<title>src/ammo.js&#45;&gt;src/gatling.js</title>
<path fill="none" stroke="#757575" d="M1030.8,-135.45C1072.48,-167.99 1191.08,-260.58 1241.44,-299.89"/>
<polygon fill="#757575" stroke="#757575" points="1239.43,-302.76 1249.46,-306.15 1243.73,-297.24 1239.43,-302.76"/>
</g>
<!-- src/ammo.js&#45;&gt;src/rocket.js -->
<g id="edge7" class="edge">
<title>src/ammo.js&#45;&gt;src/rocket.js</title>
<path fill="none" stroke="#757575" d="M1060.67,-124.92C1148.33,-127.21 1349.01,-133.87 1517,-149.89 1532.1,-151.34 1548.42,-153.39 1563.42,-155.49"/>
<polygon fill="#757575" stroke="#757575" points="1563.17,-158.99 1573.57,-156.93 1564.16,-152.06 1563.17,-158.99"/>
</g>
<!-- src/rocket.js&#45;&gt;src/rendering/Helpers.js -->
<g id="edge43" class="edge">
<title>src/rocket.js&#45;&gt;src/rendering/Helpers.js</title>
<path fill="none" stroke="#757575" d="M1657.95,-175.43C1687.82,-184.39 1729.43,-196.87 1761.49,-206.49"/>
<polygon fill="#757575" stroke="#757575" points="1760.52,-209.86 1771.11,-209.38 1762.54,-203.15 1760.52,-209.86"/>
</g>
<!-- src/rendering/EnemyCollisionsChecks.js&#45;&gt;src/music.js -->
<g id="edge38" class="edge">
<title>src/rendering/EnemyCollisionsChecks.js&#45;&gt;src/music.js</title>
<path fill="none" stroke="#757575" d="M1068.46,-494.36C1184.11,-471.42 1467.88,-428.92 1684,-509.89 1728.46,-526.55 1769.75,-564.97 1792.12,-588.45"/>
<polygon fill="#757575" stroke="#757575" points="1789.83,-591.14 1799.21,-596.07 1794.96,-586.37 1789.83,-591.14"/>
</g>
<!-- src/rendering/EnemyCollisionsChecks.js&#45;&gt;src/gatling.js -->
<g id="edge37" class="edge">
<title>src/rendering/EnemyCollisionsChecks.js&#45;&gt;src/gatling.js</title>
<path fill="none" stroke="#757575" d="M1122.74,-494.31C1130.5,-490.54 1137.73,-485.81 1144,-479.89 1189.48,-436.99 1136.67,-388.98 1180,-343.89 1187.98,-335.59 1198.54,-329.92 1209.48,-326.06"/>
<polygon fill="#757575" stroke="#757575" points="1210.6,-329.37 1219.14,-323.1 1208.55,-322.68 1210.6,-329.37"/>
</g>
<!-- src/rendering/EnemyCollisionsChecks.js&#45;&gt;src/rocket.js -->
<g id="edge42" class="edge">
<title>src/rendering/EnemyCollisionsChecks.js&#45;&gt;src/rocket.js</title>
<path fill="none" stroke="#757575" d="M1107.9,-494.37C1120.73,-490.18 1133.21,-484.52 1144,-476.89 1168.47,-459.6 1155.88,-437.67 1180,-419.89 1243.35,-373.2 1276.9,-400.41 1351,-373.89 1427.23,-346.62 1453.93,-349.65 1517,-298.89 1557.7,-266.14 1590.57,-213.29 1606.7,-184.39"/>
<polygon fill="#757575" stroke="#757575" points="1609.79,-186.03 1611.51,-175.57 1603.65,-182.67 1609.79,-186.03"/>
</g>
<!-- src/rendering/EnemyCollisionsChecks.js&#45;&gt;src/player/Player.js -->
<g id="edge39" class="edge">
<title>src/rendering/EnemyCollisionsChecks.js&#45;&gt;src/player/Player.js</title>
<path fill="none" stroke="#757575" d="M1120.59,-494.36C1129.07,-490.62 1137.03,-485.88 1144,-479.89 1179.2,-449.66 1145.5,-412.93 1180,-381.89 1238.26,-329.49 1278.73,-369.2 1351,-338.89 1378.65,-327.3 1407.61,-308.83 1427.21,-295.25"/>
<polygon fill="#757575" stroke="#757575" points="1429.36,-298.02 1435.52,-289.4 1425.33,-292.29 1429.36,-298.02"/>
</g>
<!-- src/rendering/EnemyCollisionsChecks.js&#45;&gt;src/rendering/Helpers.js -->
<g id="edge41" class="edge">
<title>src/rendering/EnemyCollisionsChecks.js&#45;&gt;src/rendering/Helpers.js</title>
<path fill="none" stroke="#757575" d="M1081,-494.34C1101.46,-489.86 1123.94,-484.06 1144,-476.89 1160.85,-470.87 1163.31,-465.34 1180,-458.89 1253.63,-430.45 1276.29,-436.37 1351,-410.89 1426.3,-385.22 1443.44,-374.2 1517,-343.89 1609.25,-305.88 1717.39,-260.09 1772.75,-236.55"/>
<polygon fill="#757575" stroke="#757575" points="1774.3,-239.69 1782.13,-232.56 1771.56,-233.25 1774.3,-239.69"/>
</g>
<!-- src/rendering/Explosion.js -->
<g id="node20" class="node">
<title>src/rendering/Explosion.js</title>
<path fill="none" stroke="#cfffac" d="M1343.33,-523.39C1343.33,-523.39 1187.67,-523.39 1187.67,-523.39 1183.83,-523.39 1180,-519.56 1180,-515.73 1180,-515.73 1180,-508.06 1180,-508.06 1180,-504.23 1183.83,-500.39 1187.67,-500.39 1187.67,-500.39 1343.33,-500.39 1343.33,-500.39 1347.17,-500.39 1351,-504.23 1351,-508.06 1351,-508.06 1351,-515.73 1351,-515.73 1351,-519.56 1347.17,-523.39 1343.33,-523.39"/>
<text text-anchor="middle" x="1265.5" y="-508.19" font-family="Arial" font-size="14.00" fill="#cfffac">src/rendering/Explosion.js</text>
</g>
<!-- src/rendering/EnemyCollisionsChecks.js&#45;&gt;src/rendering/Explosion.js -->
<g id="edge40" class="edge">
<title>src/rendering/EnemyCollisionsChecks.js&#45;&gt;src/rendering/Explosion.js</title>
<path fill="none" stroke="#757575" d="M1144.25,-508.99C1152.86,-509.2 1161.44,-509.41 1169.83,-509.61"/>
<polygon fill="#757575" stroke="#757575" points="1169.87,-513.11 1179.96,-509.85 1170.04,-506.11 1169.87,-513.11"/>
</g>
<!-- src/keyboard.js&#45;&gt;src/music.js -->
<g id="edge29" class="edge">
<title>src/keyboard.js&#45;&gt;src/music.js</title>
<path fill="none" stroke="#757575" d="M335.68,-326.46C352.93,-339.35 382.18,-360.39 409,-375.89 544.97,-454.48 580.59,-473.71 728,-527.89 1101.5,-665.18 1595.47,-630.31 1756.38,-613.97"/>
<polygon fill="#757575" stroke="#757575" points="1756.91,-617.43 1766.5,-612.92 1756.19,-610.47 1756.91,-617.43"/>
</g>
<!-- src/keyboard.js&#45;&gt;src/gatling.js -->
<g id="edge28" class="edge">
<title>src/keyboard.js&#45;&gt;src/gatling.js</title>
<path fill="none" stroke="#757575" d="M373.28,-315.06C537.96,-315.59 1041.35,-317.19 1209.3,-317.72"/>
<polygon fill="#757575" stroke="#757575" points="1209.39,-321.22 1219.4,-317.75 1209.41,-314.22 1209.39,-321.22"/>
</g>
<!-- src/keyboard.js&#45;&gt;src/rocket.js -->
<g id="edge31" class="edge">
<title>src/keyboard.js&#45;&gt;src/rocket.js</title>
<path fill="none" stroke="#757575" d="M327.85,-303.39C341.46,-282.96 372.56,-240.2 409,-215.89 557.39,-116.92 609.63,-83.89 788,-83.89 788,-83.89 788,-83.89 1266.5,-83.89 1381.89,-83.89 1513.4,-125.5 1577.77,-148.71"/>
<polygon fill="#757575" stroke="#757575" points="1576.91,-152.12 1587.51,-152.26 1579.32,-145.54 1576.91,-152.12"/>
</g>
<!-- src/keyboard.js&#45;&gt;src/player/Player.js -->
<g id="edge30" class="edge">
<title>src/keyboard.js&#45;&gt;src/player/Player.js</title>
<path fill="none" stroke="#757575" d="M332.79,-303.33C348.87,-289.01 378.6,-265.25 409,-254.89 607.25,-187.38 1147.56,-176.16 1351,-225.89 1378.4,-232.59 1406.66,-248.24 1426.11,-260.63"/>
<polygon fill="#757575" stroke="#757575" points="1424.37,-263.67 1434.65,-266.22 1428.21,-257.82 1424.37,-263.67"/>
</g>
<!-- src/gameMenuActions.js -->
<g id="node17" class="node">
<title>src/gameMenuActions.js</title>
<path fill="none" stroke="#c6c5fe" d="M566.33,-366.39C566.33,-366.39 416.67,-366.39 416.67,-366.39 412.83,-366.39 409,-362.56 409,-358.73 409,-358.73 409,-351.06 409,-351.06 409,-347.23 412.83,-343.39 416.67,-343.39 416.67,-343.39 566.33,-343.39 566.33,-343.39 570.17,-343.39 574,-347.23 574,-351.06 574,-351.06 574,-358.73 574,-358.73 574,-362.56 570.17,-366.39 566.33,-366.39"/>
<text text-anchor="middle" x="491.5" y="-351.19" font-family="Arial" font-size="14.00" fill="#c6c5fe">src/gameMenuActions.js</text>
</g>
<!-- src/keyboard.js&#45;&gt;src/gameMenuActions.js -->
<g id="edge27" class="edge">
<title>src/keyboard.js&#45;&gt;src/gameMenuActions.js</title>
<path fill="none" stroke="#757575" d="M369.67,-326.46C388.97,-331 411.27,-336.25 431.43,-341"/>
<polygon fill="#757575" stroke="#757575" points="430.9,-344.47 441.44,-343.35 432.51,-337.65 430.9,-344.47"/>
</g>
<!-- src/touch.js -->
<g id="node19" class="node">
<title>src/touch.js</title>
<path fill="none" stroke="#cfffac" d="M526.33,-286.39C526.33,-286.39 456.67,-286.39 456.67,-286.39 452.83,-286.39 449,-282.56 449,-278.73 449,-278.73 449,-271.06 449,-271.06 449,-267.23 452.83,-263.39 456.67,-263.39 456.67,-263.39 526.33,-263.39 526.33,-263.39 530.17,-263.39 534,-267.23 534,-271.06 534,-271.06 534,-278.73 534,-278.73 534,-282.56 530.17,-286.39 526.33,-286.39"/>
<text text-anchor="middle" x="491.5" y="-271.19" font-family="Arial" font-size="14.00" fill="#cfffac">src/touch.js</text>
</g>
<!-- src/keyboard.js&#45;&gt;src/touch.js -->
<g id="edge32" class="edge">
<title>src/keyboard.js&#45;&gt;src/touch.js</title>
<path fill="none" stroke="#757575" d="M369.67,-303.32C391.44,-298.2 417.05,-292.18 439.07,-286.99"/>
<polygon fill="#757575" stroke="#757575" points="439.98,-290.38 448.91,-284.68 438.38,-283.56 439.98,-290.38"/>
</g>
<!-- src/player/Player.js&#45;&gt;src/rocket.js -->
<g id="edge35" class="edge">
<title>src/player/Player.js&#45;&gt;src/rocket.js</title>
<path fill="none" stroke="#757575" d="M1469.68,-266.34C1498.62,-246.28 1558.3,-204.92 1592.31,-181.35"/>
<polygon fill="#757575" stroke="#757575" points="1594.55,-184.06 1600.78,-175.48 1590.56,-178.3 1594.55,-184.06"/>
</g>
<!-- src/player/Player.js&#45;&gt;src/rendering/Helpers.js -->
<g id="edge34" class="edge">
<title>src/player/Player.js&#45;&gt;src/rendering/Helpers.js</title>
<path fill="none" stroke="#757575" d="M1517.15,-267.64C1575.95,-258.24 1663.32,-244.27 1727.23,-234.05"/>
<polygon fill="#757575" stroke="#757575" points="1727.96,-237.48 1737.28,-232.44 1726.86,-230.56 1727.96,-237.48"/>
</g>
<!-- src/player/Player.js&#45;&gt;src/speedometer.js -->
<g id="edge36" class="edge">
<title>src/player/Player.js&#45;&gt;src/speedometer.js</title>
<path fill="none" stroke="#757575" d="M1460.71,-289.71C1486.79,-329.65 1571.82,-459.91 1604.52,-510.01"/>
<polygon fill="#757575" stroke="#757575" points="1601.6,-511.93 1609.99,-518.39 1607.46,-508.11 1601.6,-511.93"/>
</g>
<!-- src/gameOver.js -->
<g id="node18" class="node">
<title>src/gameOver.js</title>
<path fill="none" stroke="#c6c5fe" d="M1668.83,-599.39C1668.83,-599.39 1568.17,-599.39 1568.17,-599.39 1564.33,-599.39 1560.5,-595.56 1560.5,-591.73 1560.5,-591.73 1560.5,-584.06 1560.5,-584.06 1560.5,-580.23 1564.33,-576.39 1568.17,-576.39 1568.17,-576.39 1668.83,-576.39 1668.83,-576.39 1672.67,-576.39 1676.5,-580.23 1676.5,-584.06 1676.5,-584.06 1676.5,-591.73 1676.5,-591.73 1676.5,-595.56 1672.67,-599.39 1668.83,-599.39"/>
<text text-anchor="middle" x="1618.5" y="-584.19" font-family="Arial" font-size="14.00" fill="#c6c5fe">src/gameOver.js</text>
</g>
<!-- src/player/Player.js&#45;&gt;src/gameOver.js -->
<g id="edge33" class="edge">
<title>src/player/Player.js&#45;&gt;src/gameOver.js</title>
<path fill="none" stroke="#757575" d="M1454.38,-289.42C1459.74,-329.86 1482.55,-467.35 1553,-550.89 1560,-559.2 1569.36,-566.04 1578.78,-571.48"/>
<polygon fill="#757575" stroke="#757575" points="1577.28,-574.65 1587.75,-576.27 1580.58,-568.47 1577.28,-574.65"/>
</g>
<!-- src/step.js&#45;&gt;src/enemy.js -->
<g id="edge46" class="edge">
<title>src/step.js&#45;&gt;src/enemy.js</title>
<path fill="none" stroke="#757575" d="M657.86,-399.48C668.85,-420.05 694.47,-463.01 728,-486.89 729.89,-488.24 731.88,-489.5 733.93,-490.68"/>
<polygon fill="#757575" stroke="#757575" points="732.77,-494.01 743.28,-495.34 735.9,-487.75 732.77,-494.01"/>
</g>
<!-- src/step.js&#45;&gt;src/gatling.js -->
<g id="edge48" class="edge">
<title>src/step.js&#45;&gt;src/gatling.js</title>
<path fill="none" stroke="#757575" d="M689.77,-387.8C772.81,-386.93 977.12,-381.15 1144,-346.89 1160.52,-343.5 1163.7,-339.23 1180,-334.89 1189.34,-332.41 1199.34,-330.1 1209.08,-328.03"/>
<polygon fill="#757575" stroke="#757575" points="1210.01,-331.41 1219.09,-325.96 1208.59,-324.55 1210.01,-331.41"/>
</g>
<!-- src/step.js&#45;&gt;src/ammo.js -->
<g id="edge44" class="edge">
<title>src/step.js&#45;&gt;src/ammo.js</title>
<path fill="none" stroke="#757575" d="M659.39,-376.21C685.07,-336.67 775.04,-207.18 886,-149.89 908.47,-138.3 935.64,-131.87 959.17,-128.31"/>
<polygon fill="#757575" stroke="#757575" points="959.91,-131.74 969.34,-126.91 958.96,-124.8 959.91,-131.74"/>
</g>
<!-- src/step.js&#45;&gt;src/rocket.js -->
<g id="edge50" class="edge">
<title>src/step.js&#45;&gt;src/rocket.js</title>
<path fill="none" stroke="#757575" d="M672.22,-376.38C687.29,-368.08 708.55,-356.96 728,-348.89 796.16,-320.62 814.44,-315.91 886,-297.89 1136.31,-234.86 1441.79,-188.55 1563.61,-171.29"/>
<polygon fill="#757575" stroke="#757575" points="1564.37,-174.72 1573.79,-169.86 1563.4,-167.79 1564.37,-174.72"/>
</g>
<!-- src/step.js&#45;&gt;src/background.js -->
<g id="edge45" class="edge">
<title>src/step.js&#45;&gt;src/background.js</title>
<path fill="none" stroke="#757575" d="M667.16,-399.55C682.12,-410.74 705.89,-427.68 728,-439.89 734.56,-443.52 741.72,-447 748.75,-450.17"/>
<polygon fill="#757575" stroke="#757575" points="747.6,-453.49 758.17,-454.29 750.41,-447.08 747.6,-453.49"/>
</g>
<!-- src/step.js&#45;&gt;src/player/Player.js -->
<g id="edge49" class="edge">
<title>src/step.js&#45;&gt;src/player/Player.js</title>
<path fill="none" stroke="#757575" d="M689.67,-381.19C735.9,-373 816.68,-358.74 886,-346.89 1016.58,-324.57 1048.47,-313.67 1180,-297.89 1246.23,-289.95 1321.96,-284.68 1376.5,-281.55"/>
<polygon fill="#757575" stroke="#757575" points="1376.99,-285.03 1386.78,-280.98 1376.6,-278.04 1376.99,-285.03"/>
</g>
<!-- src/step.js&#45;&gt;src/gameOver.js -->
<g id="edge47" class="edge">
<title>src/step.js&#45;&gt;src/gameOver.js</title>
<path fill="none" stroke="#757575" d="M689.69,-395.01C740.14,-405.17 826.07,-424.96 850,-445.89 879.65,-471.83 853.89,-504.07 886,-526.89 991.45,-601.84 1389.79,-596.28 1550.08,-590.77"/>
<polygon fill="#757575" stroke="#757575" points="1550.42,-594.26 1560.29,-590.4 1550.17,-587.26 1550.42,-594.26"/>
</g>
<!-- src/gameMenuActions.js&#45;&gt;src/step.js -->
<g id="edge22" class="edge">
<title>src/gameMenuActions.js&#45;&gt;src/step.js</title>
<path fill="none" stroke="#757575" d="M547.59,-366.44C565.38,-370.16 584.96,-374.27 602.18,-377.88"/>
<polygon fill="#757575" stroke="#757575" points="601.52,-381.31 612.02,-379.94 602.95,-374.46 601.52,-381.31"/>
</g>
<!-- src/gameOver.js&#45;&gt;src/music.js -->
<g id="edge24" class="edge">
<title>src/gameOver.js&#45;&gt;src/music.js</title>
<path fill="none" stroke="#757575" d="M1676.51,-593.89C1701.87,-596.56 1731.56,-599.69 1756.44,-602.31"/>
<polygon fill="#757575" stroke="#757575" points="1756.12,-605.79 1766.43,-603.36 1756.85,-598.83 1756.12,-605.79"/>
</g>
<!-- src/gameOver.js&#45;&gt;src/levelCompleteScreen.js -->
<g id="edge23" class="edge">
<title>src/gameOver.js&#45;&gt;src/levelCompleteScreen.js</title>
<path fill="none" stroke="#757575" d="M1633.78,-599.47C1666.52,-626 1747.19,-691.39 1786.81,-723.5"/>
<polygon fill="#757575" stroke="#757575" points="1785.08,-726.61 1795.05,-730.18 1789.49,-721.17 1785.08,-726.61"/>
</g>
</g>
</svg>
