<?xml version="1.0" encoding="UTF-8" standalone="no"?>
<!DOCTYPE svg PUBLIC "-//W3C//DTD SVG 1.1//EN"
 "http://www.w3.org/Graphics/SVG/1.1/DTD/svg11.dtd">
<!-- Generated by graphviz version 2.43.0 (0)
 -->
<!-- Title: G Pages: 1 -->
<svg width="1952pt" height="1177pt"
 viewBox="0.00 0.00 1952.20 1176.70" xmlns="http://www.w3.org/2000/svg" xmlns:xlink="http://www.w3.org/1999/xlink">
<g id="graph0" class="graph" transform="scale(1 1) rotate(0) translate(21.6 1155.1)">
<title>G</title>
<polygon fill="#111111" stroke="transparent" points="-21.6,21.6 -21.6,-1155.1 1930.6,-1155.1 1930.6,21.6 -21.6,21.6"/>
<!-- app.js -->
<g id="node1" class="node">
<title>app.js</title>
<path fill="none" stroke="#c6c5fe" d="M46.33,-340C46.33,-340 7.67,-340 7.67,-340 3.83,-340 0,-336.17 0,-332.33 0,-332.33 0,-324.67 0,-324.67 0,-320.83 3.83,-317 7.67,-317 7.67,-317 46.33,-317 46.33,-317 50.17,-317 54,-320.83 54,-324.67 54,-324.67 54,-332.33 54,-332.33 54,-336.17 50.17,-340 46.33,-340"/>
<text text-anchor="middle" x="27" y="-324.8" font-family="Arial" font-size="14.00" fill="#c6c5fe">app.js</text>
</g>
<!-- src/gameManager.js -->
<g id="node2" class="node">
<title>src/gameManager.js</title>
<path fill="none" stroke="#c6c5fe" d="M222.33,-570C222.33,-570 97.67,-570 97.67,-570 93.83,-570 90,-566.17 90,-562.33 90,-562.33 90,-554.67 90,-554.67 90,-550.83 93.83,-547 97.67,-547 97.67,-547 222.33,-547 222.33,-547 226.17,-547 230,-550.83 230,-554.67 230,-554.67 230,-562.33 230,-562.33 230,-566.17 226.17,-570 222.33,-570"/>
<text text-anchor="middle" x="160" y="-554.8" font-family="Arial" font-size="14.00" fill="#c6c5fe">src/gameManager.js</text>
</g>
<!-- app.js&#45;&gt;src/gameManager.js -->
<g id="edge1" class="edge">
<title>app.js&#45;&gt;src/gameManager.js</title>
<path fill="none" stroke="#757575" d="M34.68,-340.22C55.66,-377.06 120.45,-490.81 147.23,-537.83"/>
<polygon fill="#757575" stroke="#757575" points="144.35,-539.84 152.34,-546.8 150.43,-536.38 144.35,-539.84"/>
</g>
<!-- src/startScreen.js -->
<g id="node3" class="node">
<title>src/startScreen.js</title>
<path fill="none" stroke="#c6c5fe" d="M383.83,-23C383.83,-23 278.17,-23 278.17,-23 274.33,-23 270.5,-19.17 270.5,-15.33 270.5,-15.33 270.5,-7.67 270.5,-7.67 270.5,-3.83 274.33,0 278.17,0 278.17,0 383.83,0 383.83,0 387.67,0 391.5,-3.83 391.5,-7.67 391.5,-7.67 391.5,-15.33 391.5,-15.33 391.5,-19.17 387.67,-23 383.83,-23"/>
<text text-anchor="middle" x="331" y="-7.8" font-family="Arial" font-size="14.00" fill="#c6c5fe">src/startScreen.js</text>
</g>
<!-- app.js&#45;&gt;src/startScreen.js -->
<g id="edge2" class="edge">
<title>app.js&#45;&gt;src/startScreen.js</title>
<path fill="none" stroke="#757575" d="M34.61,-316.75C59.42,-273.6 151.5,-121.96 266,-37.5 271.19,-33.67 277.03,-30.3 283.01,-27.37"/>
<polygon fill="#757575" stroke="#757575" points="284.78,-30.41 292.46,-23.12 281.91,-24.03 284.78,-30.41"/>
</g>
<!-- src/Boss.js -->
<g id="node4" class="node">
<title>src/Boss.js</title>
<path fill="none" stroke="#c6c5fe" d="M850.33,-909C850.33,-909 783.67,-909 783.67,-909 779.83,-909 776,-905.17 776,-901.33 776,-901.33 776,-893.67 776,-893.67 776,-889.83 779.83,-886 783.67,-886 783.67,-886 850.33,-886 850.33,-886 854.17,-886 858,-889.83 858,-893.67 858,-893.67 858,-901.33 858,-901.33 858,-905.17 854.17,-909 850.33,-909"/>
<text text-anchor="middle" x="817" y="-893.8" font-family="Arial" font-size="14.00" fill="#c6c5fe">src/Boss.js</text>
</g>
<!-- src/gameManager.js&#45;&gt;src/Boss.js -->
<g id="edge15" class="edge">
<title>src/gameManager.js&#45;&gt;src/Boss.js</title>
<path fill="none" stroke="#757575" d="M160.68,-570.17C160.12,-617.35 164.95,-795.13 266,-871.5 416.93,-985.57 663.21,-938.81 767.21,-911.71"/>
<polygon fill="#757575" stroke="#757575" points="768.35,-915.03 777.11,-909.08 766.55,-908.26 768.35,-915.03"/>
</g>
<!-- src/enemy.js -->
<g id="node5" class="node">
<title>src/enemy.js</title>
<path fill="none" stroke="#c6c5fe" d="M1052.83,-909C1052.83,-909 976.17,-909 976.17,-909 972.33,-909 968.5,-905.17 968.5,-901.33 968.5,-901.33 968.5,-893.67 968.5,-893.67 968.5,-889.83 972.33,-886 976.17,-886 976.17,-886 1052.83,-886 1052.83,-886 1056.67,-886 1060.5,-889.83 1060.5,-893.67 1060.5,-893.67 1060.5,-901.33 1060.5,-901.33 1060.5,-905.17 1056.67,-909 1052.83,-909"/>
<text text-anchor="middle" x="1014.5" y="-893.8" font-family="Arial" font-size="14.00" fill="#c6c5fe">src/enemy.js</text>
</g>
<!-- src/gameManager.js&#45;&gt;src/enemy.js -->
<g id="edge18" class="edge">
<title>src/gameManager.js&#45;&gt;src/enemy.js</title>
<path fill="none" stroke="#757575" d="M161.41,-570.08C163.62,-613.17 177.63,-765.24 266,-833.5 343.31,-893.22 386.8,-857.5 484.5,-857.5 484.5,-857.5 484.5,-857.5 658.5,-857.5 765.2,-857.5 888.82,-875.56 958.42,-887.41"/>
<polygon fill="#757575" stroke="#757575" points="957.84,-890.87 968.29,-889.11 959.03,-883.97 957.84,-890.87"/>
</g>
<!-- src/levelCompleteScreen.js -->
<g id="node6" class="node">
<title>src/levelCompleteScreen.js</title>
<path fill="none" stroke="#cfffac" d="M1901.33,-1107C1901.33,-1107 1735.67,-1107 1735.67,-1107 1731.83,-1107 1728,-1103.17 1728,-1099.33 1728,-1099.33 1728,-1091.67 1728,-1091.67 1728,-1087.83 1731.83,-1084 1735.67,-1084 1735.67,-1084 1901.33,-1084 1901.33,-1084 1905.17,-1084 1909,-1087.83 1909,-1091.67 1909,-1091.67 1909,-1099.33 1909,-1099.33 1909,-1103.17 1905.17,-1107 1901.33,-1107"/>
<text text-anchor="middle" x="1818.5" y="-1091.8" font-family="Arial" font-size="14.00" fill="#cfffac">src/levelCompleteScreen.js</text>
</g>
<!-- src/gameManager.js&#45;&gt;src/levelCompleteScreen.js -->
<g id="edge21" class="edge">
<title>src/gameManager.js&#45;&gt;src/levelCompleteScreen.js</title>
<path fill="none" stroke="#757575" d="M162.24,-570.09C169.36,-634.85 206.81,-951.49 266,-1026.5 332.98,-1111.38 376.37,-1133.5 484.5,-1133.5 484.5,-1133.5 484.5,-1133.5 1301,-1133.5 1475.08,-1133.5 1518.61,-1125.95 1692,-1110.5 1700.33,-1109.76 1708.95,-1108.91 1717.61,-1107.99"/>
<polygon fill="#757575" stroke="#757575" points="1718.2,-1111.45 1727.76,-1106.89 1717.44,-1104.49 1718.2,-1111.45"/>
</g>
<!-- src/ammo.js -->
<g id="node9" class="node">
<title>src/ammo.js</title>
<path fill="none" stroke="#c6c5fe" d="M1337.83,-525C1337.83,-525 1262.17,-525 1262.17,-525 1258.33,-525 1254.5,-521.17 1254.5,-517.33 1254.5,-517.33 1254.5,-509.67 1254.5,-509.67 1254.5,-505.83 1258.33,-502 1262.17,-502 1262.17,-502 1337.83,-502 1337.83,-502 1341.67,-502 1345.5,-505.83 1345.5,-509.67 1345.5,-509.67 1345.5,-517.33 1345.5,-517.33 1345.5,-521.17 1341.67,-525 1337.83,-525"/>
<text text-anchor="middle" x="1300" y="-509.8" font-family="Arial" font-size="14.00" fill="#c6c5fe">src/ammo.js</text>
</g>
<!-- src/gameManager.js&#45;&gt;src/ammo.js -->
<g id="edge16" class="edge">
<title>src/gameManager.js&#45;&gt;src/ammo.js</title>
<path fill="none" stroke="#757575" d="M176.6,-546.9C196.46,-532.61 232.26,-508.38 266,-493.5 358.36,-452.76 383.56,-431.5 484.5,-431.5 484.5,-431.5 484.5,-431.5 818,-431.5 959.14,-431.5 997.06,-420.62 1135,-450.5 1182.28,-460.74 1233.92,-482.47 1266.37,-497.53"/>
<polygon fill="#757575" stroke="#757575" points="1265.26,-500.87 1275.8,-501.96 1268.24,-494.54 1265.26,-500.87"/>
</g>
<!-- src/background.js -->
<g id="node11" class="node">
<title>src/background.js</title>
<path fill="none" stroke="#cfffac" d="M1631.83,-757C1631.83,-757 1525.17,-757 1525.17,-757 1521.33,-757 1517.5,-753.17 1517.5,-749.33 1517.5,-749.33 1517.5,-741.67 1517.5,-741.67 1517.5,-737.83 1521.33,-734 1525.17,-734 1525.17,-734 1631.83,-734 1631.83,-734 1635.67,-734 1639.5,-737.83 1639.5,-741.67 1639.5,-741.67 1639.5,-749.33 1639.5,-749.33 1639.5,-753.17 1635.67,-757 1631.83,-757"/>
<text text-anchor="middle" x="1578.5" y="-741.8" font-family="Arial" font-size="14.00" fill="#cfffac">src/background.js</text>
</g>
<!-- src/gameManager.js&#45;&gt;src/background.js -->
<g id="edge17" class="edge">
<title>src/gameManager.js&#45;&gt;src/background.js</title>
<path fill="none" stroke="#757575" d="M167.52,-570.05C196.97,-620.56 323.22,-819.5 484.5,-819.5 484.5,-819.5 484.5,-819.5 1015.5,-819.5 1200.56,-819.5 1246.98,-803.9 1429,-770.5 1445.22,-767.52 1448.81,-764.67 1465,-761.5 1478.63,-758.83 1493.28,-756.42 1507.34,-754.33"/>
<polygon fill="#757575" stroke="#757575" points="1508.07,-757.76 1517.46,-752.86 1507.06,-750.84 1508.07,-757.76"/>
</g>
<!-- src/gameState.js -->
<g id="node15" class="node">
<title>src/gameState.js</title>
<path fill="none" stroke="#cfffac" d="M1869.83,-329C1869.83,-329 1767.17,-329 1767.17,-329 1763.33,-329 1759.5,-325.17 1759.5,-321.33 1759.5,-321.33 1759.5,-313.67 1759.5,-313.67 1759.5,-309.83 1763.33,-306 1767.17,-306 1767.17,-306 1869.83,-306 1869.83,-306 1873.67,-306 1877.5,-309.83 1877.5,-313.67 1877.5,-313.67 1877.5,-321.33 1877.5,-321.33 1877.5,-325.17 1873.67,-329 1869.83,-329"/>
<text text-anchor="middle" x="1818.5" y="-313.8" font-family="Arial" font-size="14.00" fill="#cfffac">src/gameState.js</text>
</g>
<!-- src/gameManager.js&#45;&gt;src/gameState.js -->
<g id="edge19" class="edge">
<title>src/gameManager.js&#45;&gt;src/gameState.js</title>
<path fill="none" stroke="#757575" d="M163.47,-546.97C178.89,-478.43 268.38,-127.5 484.5,-127.5 484.5,-127.5 484.5,-127.5 818,-127.5 1211.9,-127.5 1310.19,-177.67 1692,-274.5 1721.53,-281.99 1754.05,-293.22 1778.59,-302.32"/>
<polygon fill="#757575" stroke="#757575" points="1777.65,-305.71 1788.24,-305.95 1780.11,-299.16 1777.65,-305.71"/>
</g>
<!-- src/keyboard.js -->
<g id="node16" class="node">
<title>src/keyboard.js</title>
<path fill="none" stroke="#c6c5fe" d="M531.33,-483C531.33,-483 439.67,-483 439.67,-483 435.83,-483 432,-479.17 432,-475.33 432,-475.33 432,-467.67 432,-467.67 432,-463.83 435.83,-460 439.67,-460 439.67,-460 531.33,-460 531.33,-460 535.17,-460 539,-463.83 539,-467.67 539,-467.67 539,-475.33 539,-475.33 539,-479.17 535.17,-483 531.33,-483"/>
<text text-anchor="middle" x="485.5" y="-467.8" font-family="Arial" font-size="14.00" fill="#c6c5fe">src/keyboard.js</text>
</g>
<!-- src/gameManager.js&#45;&gt;src/keyboard.js -->
<g id="edge20" class="edge">
<title>src/gameManager.js&#45;&gt;src/keyboard.js</title>
<path fill="none" stroke="#757575" d="M203.96,-546.95C262.77,-531.13 368.28,-502.75 431.8,-485.67"/>
<polygon fill="#757575" stroke="#757575" points="432.87,-489.01 441.62,-483.03 431.06,-482.25 432.87,-489.01"/>
</g>
<!-- src/music.js -->
<g id="node17" class="node">
<title>src/music.js</title>
<path fill="none" stroke="#cfffac" d="M1854.83,-139C1854.83,-139 1782.17,-139 1782.17,-139 1778.33,-139 1774.5,-135.17 1774.5,-131.33 1774.5,-131.33 1774.5,-123.67 1774.5,-123.67 1774.5,-119.83 1778.33,-116 1782.17,-116 1782.17,-116 1854.83,-116 1854.83,-116 1858.67,-116 1862.5,-119.83 1862.5,-123.67 1862.5,-123.67 1862.5,-131.33 1862.5,-131.33 1862.5,-135.17 1858.67,-139 1854.83,-139"/>
<text text-anchor="middle" x="1818.5" y="-123.8" font-family="Arial" font-size="14.00" fill="#cfffac">src/music.js</text>
</g>
<!-- src/gameManager.js&#45;&gt;src/music.js -->
<g id="edge22" class="edge">
<title>src/gameManager.js&#45;&gt;src/music.js</title>
<path fill="none" stroke="#757575" d="M160.49,-546.7C158.82,-493.42 158.84,-272.42 266,-146.5 334.63,-65.86 378.61,-51.5 484.5,-51.5 484.5,-51.5 484.5,-51.5 1301,-51.5 1475.68,-51.5 1520.48,-58.4 1692,-91.5 1719.56,-96.82 1749.81,-105.41 1773.71,-112.87"/>
<polygon fill="#757575" stroke="#757575" points="1772.95,-116.3 1783.54,-115.98 1775.06,-109.63 1772.95,-116.3"/>
</g>
<!-- src/player/Player.js -->
<g id="node18" class="node">
<title>src/player/Player.js</title>
<path fill="none" stroke="#c6c5fe" d="M388.33,-329C388.33,-329 273.67,-329 273.67,-329 269.83,-329 266,-325.17 266,-321.33 266,-321.33 266,-313.67 266,-313.67 266,-309.83 269.83,-306 273.67,-306 273.67,-306 388.33,-306 388.33,-306 392.17,-306 396,-309.83 396,-313.67 396,-313.67 396,-321.33 396,-321.33 396,-325.17 392.17,-329 388.33,-329"/>
<text text-anchor="middle" x="331" y="-313.8" font-family="Arial" font-size="14.00" fill="#c6c5fe">src/player/Player.js</text>
</g>
<!-- src/gameManager.js&#45;&gt;src/player/Player.js -->
<g id="edge23" class="edge">
<title>src/gameManager.js&#45;&gt;src/player/Player.js</title>
<path fill="none" stroke="#757575" d="M169.15,-546.88C196.03,-508.54 282.1,-385.8 316.05,-337.4"/>
<polygon fill="#757575" stroke="#757575" points="319.05,-339.2 321.93,-329.01 313.32,-335.19 319.05,-339.2"/>
</g>
<!-- src/rendering/Helpers.js -->
<g id="node19" class="node">
<title>src/rendering/Helpers.js</title>
<path fill="none" stroke="#cfffac" d="M1890.33,-873C1890.33,-873 1746.67,-873 1746.67,-873 1742.83,-873 1739,-869.17 1739,-865.33 1739,-865.33 1739,-857.67 1739,-857.67 1739,-853.83 1742.83,-850 1746.67,-850 1746.67,-850 1890.33,-850 1890.33,-850 1894.17,-850 1898,-853.83 1898,-857.67 1898,-857.67 1898,-865.33 1898,-865.33 1898,-869.17 1894.17,-873 1890.33,-873"/>
<text text-anchor="middle" x="1818.5" y="-857.8" font-family="Arial" font-size="14.00" fill="#cfffac">src/rendering/Helpers.js</text>
</g>
<!-- src/gameManager.js&#45;&gt;src/rendering/Helpers.js -->
<g id="edge24" class="edge">
<title>src/gameManager.js&#45;&gt;src/rendering/Helpers.js</title>
<path fill="none" stroke="#757575" d="M162.17,-570.22C170.69,-648.75 230.36,-1095.5 484.5,-1095.5 484.5,-1095.5 484.5,-1095.5 818,-1095.5 1208.68,-1095.5 1344.31,-1179.67 1692,-1001.5 1745.44,-974.11 1786.89,-913.79 1805.98,-882.01"/>
<polygon fill="#757575" stroke="#757575" points="1809.14,-883.53 1811.17,-873.13 1803.1,-879.99 1809.14,-883.53"/>
</g>
<!-- src/step.js -->
<g id="node20" class="node">
<title>src/step.js</title>
<path fill="none" stroke="#c6c5fe" d="M847.83,-599C847.83,-599 786.17,-599 786.17,-599 782.33,-599 778.5,-595.17 778.5,-591.33 778.5,-591.33 778.5,-583.67 778.5,-583.67 778.5,-579.83 782.33,-576 786.17,-576 786.17,-576 847.83,-576 847.83,-576 851.67,-576 855.5,-579.83 855.5,-583.67 855.5,-583.67 855.5,-591.33 855.5,-591.33 855.5,-595.17 851.67,-599 847.83,-599"/>
<text text-anchor="middle" x="817" y="-583.8" font-family="Arial" font-size="14.00" fill="#c6c5fe">src/step.js</text>
</g>
<!-- src/gameManager.js&#45;&gt;src/step.js -->
<g id="edge25" class="edge">
<title>src/gameManager.js&#45;&gt;src/step.js</title>
<path fill="none" stroke="#757575" d="M230.17,-561.56C363.62,-567.47 653.58,-580.31 768.09,-585.38"/>
<polygon fill="#757575" stroke="#757575" points="768.15,-588.88 778.29,-585.83 768.46,-581.89 768.15,-588.88"/>
</g>
<!-- src/startScreen.js&#45;&gt;src/music.js -->
<g id="edge48" class="edge">
<title>src/startScreen.js&#45;&gt;src/music.js</title>
<path fill="none" stroke="#757575" d="M391.51,-11.79C456.59,-12.09 563.97,-12.5 656.5,-12.5 656.5,-12.5 656.5,-12.5 1301,-12.5 1475.13,-12.5 1528.01,21.06 1692,-37.5 1734.69,-52.74 1775.73,-87.11 1798.68,-108.69"/>
<polygon fill="#757575" stroke="#757575" points="1796.38,-111.33 1806.02,-115.73 1801.23,-106.28 1796.38,-111.33"/>
</g>
<!-- src/Boss.js&#45;&gt;src/enemy.js -->
<g id="edge3" class="edge">
<title>src/Boss.js&#45;&gt;src/enemy.js</title>
<path fill="none" stroke="#757575" d="M858.03,-897.5C886.96,-897.5 926.4,-897.5 958.32,-897.5"/>
<polygon fill="#757575" stroke="#757575" points="958.39,-901 968.39,-897.5 958.39,-894 958.39,-901"/>
</g>
<!-- src/Boss.js&#45;&gt;src/levelCompleteScreen.js -->
<g id="edge4" class="edge">
<title>src/Boss.js&#45;&gt;src/levelCompleteScreen.js</title>
<path fill="none" stroke="#757575" d="M827.41,-909.21C840.54,-924.65 865.95,-951.41 894,-964.5 1171.16,-1093.8 1542,-1103.62 1717.45,-1099.88"/>
<polygon fill="#757575" stroke="#757575" points="1717.79,-1103.37 1727.7,-1099.64 1717.62,-1096.37 1717.79,-1103.37"/>
</g>
<!-- src/weapons/enemyRocketAtack.js -->
<g id="node7" class="node">
<title>src/weapons/enemyRocketAtack.js</title>
<path fill="none" stroke="#cfffac" d="M1684.33,-993C1684.33,-993 1472.67,-993 1472.67,-993 1468.83,-993 1465,-989.17 1465,-985.33 1465,-985.33 1465,-977.67 1465,-977.67 1465,-973.83 1468.83,-970 1472.67,-970 1472.67,-970 1684.33,-970 1684.33,-970 1688.17,-970 1692,-973.83 1692,-977.67 1692,-977.67 1692,-985.33 1692,-985.33 1692,-989.17 1688.17,-993 1684.33,-993"/>
<text text-anchor="middle" x="1578.5" y="-977.8" font-family="Arial" font-size="14.00" fill="#cfffac">src/weapons/enemyRocketAtack.js</text>
</g>
<!-- src/Boss.js&#45;&gt;src/weapons/enemyRocketAtack.js -->
<g id="edge5" class="edge">
<title>src/Boss.js&#45;&gt;src/weapons/enemyRocketAtack.js</title>
<path fill="none" stroke="#757575" d="M858.22,-908.14C869.77,-911.18 882.38,-914.48 894,-917.5 1017.01,-949.45 1044.91,-972.6 1171,-988.5 1284.77,-1002.85 1314.37,-991.2 1429,-988.5 1437.35,-988.3 1445.95,-988.04 1454.62,-987.74"/>
<polygon fill="#757575" stroke="#757575" points="1454.95,-991.23 1464.82,-987.37 1454.69,-984.24 1454.95,-991.23"/>
</g>
<!-- src/weapons/gatling.js -->
<g id="node8" class="node">
<title>src/weapons/gatling.js</title>
<path fill="none" stroke="#c6c5fe" d="M1645.33,-644C1645.33,-644 1511.67,-644 1511.67,-644 1507.83,-644 1504,-640.17 1504,-636.33 1504,-636.33 1504,-628.67 1504,-628.67 1504,-624.83 1507.83,-621 1511.67,-621 1511.67,-621 1645.33,-621 1645.33,-621 1649.17,-621 1653,-624.83 1653,-628.67 1653,-628.67 1653,-636.33 1653,-636.33 1653,-640.17 1649.17,-644 1645.33,-644"/>
<text text-anchor="middle" x="1578.5" y="-628.8" font-family="Arial" font-size="14.00" fill="#c6c5fe">src/weapons/gatling.js</text>
</g>
<!-- src/Boss.js&#45;&gt;src/weapons/gatling.js -->
<g id="edge6" class="edge">
<title>src/Boss.js&#45;&gt;src/weapons/gatling.js</title>
<path fill="none" stroke="#757575" d="M857.52,-885.98C937.06,-862.63 1110.97,-810.63 1135,-795.5 1154.69,-783.11 1151.16,-769.65 1171,-757.5 1272.94,-695.08 1314.89,-717.12 1429,-681.5 1464.51,-670.42 1504.54,-657.16 1534.09,-647.23"/>
<polygon fill="#757575" stroke="#757575" points="1535.33,-650.51 1543.69,-644 1533.09,-643.88 1535.33,-650.51"/>
</g>
<!-- src/enemy.js&#45;&gt;src/weapons/enemyRocketAtack.js -->
<g id="edge11" class="edge">
<title>src/enemy.js&#45;&gt;src/weapons/enemyRocketAtack.js</title>
<path fill="none" stroke="#757575" d="M1036.87,-909.06C1066.16,-924.25 1120.86,-950.3 1171,-961.5 1264.57,-982.41 1373.16,-986.77 1454.55,-986.25"/>
<polygon fill="#757575" stroke="#757575" points="1454.88,-989.75 1464.84,-986.16 1454.81,-982.75 1454.88,-989.75"/>
</g>
<!-- src/enemy.js&#45;&gt;src/weapons/gatling.js -->
<g id="edge12" class="edge">
<title>src/enemy.js&#45;&gt;src/weapons/gatling.js</title>
<path fill="none" stroke="#757575" d="M1060.54,-893.38C1083.78,-889.88 1112,-883.42 1135,-871.5 1154.27,-861.51 1152.2,-849.34 1171,-838.5 1275.11,-778.46 1324.89,-817.54 1429,-757.5 1447.8,-746.66 1448.59,-738.71 1465,-724.5 1495.44,-698.14 1531.66,-668.89 1554.61,-650.59"/>
<polygon fill="#757575" stroke="#757575" points="1557.07,-653.11 1562.72,-644.15 1552.71,-647.63 1557.07,-653.11"/>
</g>
<!-- src/enemyManoeuvre.js -->
<g id="node12" class="node">
<title>src/enemyManoeuvre.js</title>
<path fill="none" stroke="#c6c5fe" d="M1372.83,-871C1372.83,-871 1227.17,-871 1227.17,-871 1223.33,-871 1219.5,-867.17 1219.5,-863.33 1219.5,-863.33 1219.5,-855.67 1219.5,-855.67 1219.5,-851.83 1223.33,-848 1227.17,-848 1227.17,-848 1372.83,-848 1372.83,-848 1376.67,-848 1380.5,-851.83 1380.5,-855.67 1380.5,-855.67 1380.5,-863.33 1380.5,-863.33 1380.5,-867.17 1376.67,-871 1372.83,-871"/>
<text text-anchor="middle" x="1300" y="-855.8" font-family="Arial" font-size="14.00" fill="#c6c5fe">src/enemyManoeuvre.js</text>
</g>
<!-- src/enemy.js&#45;&gt;src/enemyManoeuvre.js -->
<g id="edge9" class="edge">
<title>src/enemy.js&#45;&gt;src/enemyManoeuvre.js</title>
<path fill="none" stroke="#757575" d="M1060.73,-891.44C1100.59,-886.09 1159.83,-878.15 1209.26,-871.53"/>
<polygon fill="#757575" stroke="#757575" points="1209.89,-874.98 1219.33,-870.18 1208.96,-868.04 1209.89,-874.98"/>
</g>
<!-- src/rendering/EnemyCollisionsChecks.js -->
<g id="node13" class="node">
<title>src/rendering/EnemyCollisionsChecks.js</title>
<path fill="none" stroke="#c6c5fe" d="M1421.33,-912C1421.33,-912 1178.67,-912 1178.67,-912 1174.83,-912 1171,-908.17 1171,-904.33 1171,-904.33 1171,-896.67 1171,-896.67 1171,-892.83 1174.83,-889 1178.67,-889 1178.67,-889 1421.33,-889 1421.33,-889 1425.17,-889 1429,-892.83 1429,-896.67 1429,-896.67 1429,-904.33 1429,-904.33 1429,-908.17 1425.17,-912 1421.33,-912"/>
<text text-anchor="middle" x="1300" y="-896.8" font-family="Arial" font-size="14.00" fill="#c6c5fe">src/rendering/EnemyCollisionsChecks.js</text>
</g>
<!-- src/enemy.js&#45;&gt;src/rendering/EnemyCollisionsChecks.js -->
<g id="edge10" class="edge">
<title>src/enemy.js&#45;&gt;src/rendering/EnemyCollisionsChecks.js</title>
<path fill="none" stroke="#757575" d="M1060.73,-897.98C1088.1,-898.27 1124.6,-898.65 1160.8,-899.04"/>
<polygon fill="#757575" stroke="#757575" points="1160.95,-902.54 1170.99,-899.15 1161.03,-895.54 1160.95,-902.54"/>
</g>
<!-- src/weapons/groundEnemyAttack.js -->
<g id="node14" class="node">
<title>src/weapons/groundEnemyAttack.js</title>
<path fill="none" stroke="#c6c5fe" d="M1408.33,-953C1408.33,-953 1191.67,-953 1191.67,-953 1187.83,-953 1184,-949.17 1184,-945.33 1184,-945.33 1184,-937.67 1184,-937.67 1184,-933.83 1187.83,-930 1191.67,-930 1191.67,-930 1408.33,-930 1408.33,-930 1412.17,-930 1416,-933.83 1416,-937.67 1416,-937.67 1416,-945.33 1416,-945.33 1416,-949.17 1412.17,-953 1408.33,-953"/>
<text text-anchor="middle" x="1300" y="-937.8" font-family="Arial" font-size="14.00" fill="#c6c5fe">src/weapons/groundEnemyAttack.js</text>
</g>
<!-- src/enemy.js&#45;&gt;src/weapons/groundEnemyAttack.js -->
<g id="edge13" class="edge">
<title>src/enemy.js&#45;&gt;src/weapons/groundEnemyAttack.js</title>
<path fill="none" stroke="#757575" d="M1060.73,-904.52C1102.06,-910.93 1164.24,-920.58 1214.71,-928.42"/>
<polygon fill="#757575" stroke="#757575" points="1214.22,-931.88 1224.64,-929.96 1215.3,-924.97 1214.22,-931.88"/>
</g>
<!-- src/weapons/gatling.js&#45;&gt;src/gameState.js -->
<g id="edge59" class="edge">
<title>src/weapons/gatling.js&#45;&gt;src/gameState.js</title>
<path fill="none" stroke="#757575" d="M1653.01,-629.42C1667.06,-626.03 1680.84,-620.45 1692,-611.5 1780.91,-540.2 1807.93,-394.11 1815.15,-339.1"/>
<polygon fill="#757575" stroke="#757575" points="1818.63,-339.43 1816.37,-329.08 1811.68,-338.58 1818.63,-339.43"/>
</g>
<!-- src/weapons/gatling.js&#45;&gt;src/music.js -->
<g id="edge60" class="edge">
<title>src/weapons/gatling.js&#45;&gt;src/music.js</title>
<path fill="none" stroke="#757575" d="M1653.17,-632.27C1667.8,-628.8 1681.77,-622.48 1692,-611.5 1740.03,-559.95 1707.15,-363.8 1728,-296.5 1745.81,-239.02 1783.26,-178.22 1803.62,-147.61"/>
<polygon fill="#757575" stroke="#757575" points="1806.66,-149.37 1809.35,-139.12 1800.85,-145.45 1806.66,-149.37"/>
</g>
<!-- src/ammo.js&#45;&gt;src/weapons/gatling.js -->
<g id="edge7" class="edge">
<title>src/ammo.js&#45;&gt;src/weapons/gatling.js</title>
<path fill="none" stroke="#757575" d="M1316.33,-525.24C1344.27,-546.02 1406.06,-589.21 1465,-611.5 1474.2,-614.98 1484.05,-617.9 1493.95,-620.34"/>
<polygon fill="#757575" stroke="#757575" points="1493.31,-623.79 1503.85,-622.63 1494.89,-616.97 1493.31,-623.79"/>
</g>
<!-- src/weapons/rocket.js -->
<g id="node10" class="node">
<title>src/weapons/rocket.js</title>
<path fill="none" stroke="#c6c5fe" d="M1643.83,-603C1643.83,-603 1513.17,-603 1513.17,-603 1509.33,-603 1505.5,-599.17 1505.5,-595.33 1505.5,-595.33 1505.5,-587.67 1505.5,-587.67 1505.5,-583.83 1509.33,-580 1513.17,-580 1513.17,-580 1643.83,-580 1643.83,-580 1647.67,-580 1651.5,-583.83 1651.5,-587.67 1651.5,-587.67 1651.5,-595.33 1651.5,-595.33 1651.5,-599.17 1647.67,-603 1643.83,-603"/>
<text text-anchor="middle" x="1578.5" y="-587.8" font-family="Arial" font-size="14.00" fill="#c6c5fe">src/weapons/rocket.js</text>
</g>
<!-- src/ammo.js&#45;&gt;src/weapons/rocket.js -->
<g id="edge8" class="edge">
<title>src/ammo.js&#45;&gt;src/weapons/rocket.js</title>
<path fill="none" stroke="#757575" d="M1329.92,-525.03C1362.37,-537.63 1416.78,-557.7 1465,-570.5 1475.22,-573.21 1486.05,-575.71 1496.8,-577.95"/>
<polygon fill="#757575" stroke="#757575" points="1496.13,-581.39 1506.62,-579.95 1497.52,-574.53 1496.13,-581.39"/>
</g>
<!-- src/weapons/rocket.js&#45;&gt;src/rendering/Helpers.js -->
<g id="edge63" class="edge">
<title>src/weapons/rocket.js&#45;&gt;src/rendering/Helpers.js</title>
<path fill="none" stroke="#757575" d="M1651.68,-594.21C1666.06,-597.42 1680.31,-602.78 1692,-611.5 1770.36,-669.93 1803.08,-791.02 1813.49,-840.12"/>
<polygon fill="#757575" stroke="#757575" points="1810.07,-840.86 1815.48,-849.97 1816.93,-839.48 1810.07,-840.86"/>
</g>
<!-- src/enemyManoeuvre.js&#45;&gt;src/background.js -->
<g id="edge14" class="edge">
<title>src/enemyManoeuvre.js&#45;&gt;src/background.js</title>
<path fill="none" stroke="#757575" d="M1380.76,-854C1397.81,-850.01 1414.91,-843.62 1429,-833.5 1454.89,-814.92 1439.36,-790.42 1465,-771.5 1477.37,-762.37 1492.43,-756.37 1507.45,-752.46"/>
<polygon fill="#757575" stroke="#757575" points="1508.34,-755.84 1517.29,-750.17 1506.75,-749.03 1508.34,-755.84"/>
</g>
<!-- src/rendering/EnemyCollisionsChecks.js&#45;&gt;src/weapons/gatling.js -->
<g id="edge46" class="edge">
<title>src/rendering/EnemyCollisionsChecks.js&#45;&gt;src/weapons/gatling.js</title>
<path fill="none" stroke="#757575" d="M1416.4,-888.95C1420.91,-886.25 1425.14,-883.12 1429,-879.5 1480.62,-831.16 1427.63,-784.54 1465,-724.5 1485.39,-691.73 1521.58,-665.28 1547.41,-649.29"/>
<polygon fill="#757575" stroke="#757575" points="1549.31,-652.23 1556.07,-644.08 1545.7,-646.24 1549.31,-652.23"/>
</g>
<!-- src/rendering/EnemyCollisionsChecks.js&#45;&gt;src/weapons/rocket.js -->
<g id="edge47" class="edge">
<title>src/rendering/EnemyCollisionsChecks.js&#45;&gt;src/weapons/rocket.js</title>
<path fill="none" stroke="#757575" d="M1417.67,-888.85C1421.74,-886.15 1425.55,-883.05 1429,-879.5 1512.74,-793.29 1381.84,-698.26 1465,-611.5 1473.36,-602.77 1484.12,-597.07 1495.66,-593.44"/>
<polygon fill="#757575" stroke="#757575" points="1496.71,-596.78 1505.5,-590.86 1494.94,-590.01 1496.71,-596.78"/>
</g>
<!-- src/rendering/EnemyCollisionsChecks.js&#45;&gt;src/gameState.js -->
<g id="edge42" class="edge">
<title>src/rendering/EnemyCollisionsChecks.js&#45;&gt;src/gameState.js</title>
<path fill="none" stroke="#757575" d="M1391.26,-888.94C1404.06,-886.36 1416.96,-883.25 1429,-879.5 1445.89,-874.24 1448.41,-868.67 1465,-862.5 1563.14,-826.01 1618.56,-874.13 1692,-799.5 1758.75,-731.67 1803.5,-424.14 1814.73,-339.26"/>
<polygon fill="#757575" stroke="#757575" points="1818.22,-339.58 1816.04,-329.21 1811.27,-338.68 1818.22,-339.58"/>
</g>
<!-- src/rendering/EnemyCollisionsChecks.js&#45;&gt;src/music.js -->
<g id="edge43" class="edge">
<title>src/rendering/EnemyCollisionsChecks.js&#45;&gt;src/music.js</title>
<path fill="none" stroke="#757575" d="M1413.76,-888.9C1419.14,-886.25 1424.27,-883.14 1429,-879.5 1459.91,-855.74 1433.92,-823.04 1465,-799.5 1546.32,-737.9 1622.51,-840.19 1692,-765.5 1763.2,-688.97 1698.93,-396.91 1728,-296.5 1744.74,-238.7 1782.64,-178.03 1803.34,-147.53"/>
<polygon fill="#757575" stroke="#757575" points="1806.38,-149.29 1809.18,-139.07 1800.62,-145.31 1806.38,-149.29"/>
</g>
<!-- src/rendering/EnemyCollisionsChecks.js&#45;&gt;src/rendering/Helpers.js -->
<g id="edge45" class="edge">
<title>src/rendering/EnemyCollisionsChecks.js&#45;&gt;src/rendering/Helpers.js</title>
<path fill="none" stroke="#757575" d="M1386.43,-888.97C1411.69,-885.87 1439.43,-882.75 1465,-880.5 1554.61,-872.63 1657.35,-867.54 1728.7,-864.63"/>
<polygon fill="#757575" stroke="#757575" points="1729.14,-868.11 1738.99,-864.21 1728.86,-861.12 1729.14,-868.11"/>
</g>
<!-- src/gameOver.js -->
<g id="node22" class="node">
<title>src/gameOver.js</title>
<path fill="none" stroke="#c6c5fe" d="M1628.83,-562C1628.83,-562 1528.17,-562 1528.17,-562 1524.33,-562 1520.5,-558.17 1520.5,-554.33 1520.5,-554.33 1520.5,-546.67 1520.5,-546.67 1520.5,-542.83 1524.33,-539 1528.17,-539 1528.17,-539 1628.83,-539 1628.83,-539 1632.67,-539 1636.5,-542.83 1636.5,-546.67 1636.5,-546.67 1636.5,-554.33 1636.5,-554.33 1636.5,-558.17 1632.67,-562 1628.83,-562"/>
<text text-anchor="middle" x="1578.5" y="-546.8" font-family="Arial" font-size="14.00" fill="#c6c5fe">src/gameOver.js</text>
</g>
<!-- src/rendering/EnemyCollisionsChecks.js&#45;&gt;src/gameOver.js -->
<g id="edge41" class="edge">
<title>src/rendering/EnemyCollisionsChecks.js&#45;&gt;src/gameOver.js</title>
<path fill="none" stroke="#757575" d="M1417.75,-888.92C1421.8,-886.21 1425.58,-883.08 1429,-879.5 1524.46,-779.48 1370.21,-671.15 1465,-570.5 1476.77,-558.01 1493.43,-551.67 1510.34,-548.76"/>
<polygon fill="#757575" stroke="#757575" points="1510.84,-552.23 1520.28,-547.42 1509.91,-545.29 1510.84,-552.23"/>
</g>
<!-- src/rendering/Explosion.js -->
<g id="node26" class="node">
<title>src/rendering/Explosion.js</title>
<path fill="none" stroke="#cfffac" d="M1656.33,-913C1656.33,-913 1500.67,-913 1500.67,-913 1496.83,-913 1493,-909.17 1493,-905.33 1493,-905.33 1493,-897.67 1493,-897.67 1493,-893.83 1496.83,-890 1500.67,-890 1500.67,-890 1656.33,-890 1656.33,-890 1660.17,-890 1664,-893.83 1664,-897.67 1664,-897.67 1664,-905.33 1664,-905.33 1664,-909.17 1660.17,-913 1656.33,-913"/>
<text text-anchor="middle" x="1578.5" y="-897.8" font-family="Arial" font-size="14.00" fill="#cfffac">src/rendering/Explosion.js</text>
</g>
<!-- src/rendering/EnemyCollisionsChecks.js&#45;&gt;src/rendering/Explosion.js -->
<g id="edge44" class="edge">
<title>src/rendering/EnemyCollisionsChecks.js&#45;&gt;src/rendering/Explosion.js</title>
<path fill="none" stroke="#757575" d="M1429.13,-900.96C1447.2,-901.03 1465.5,-901.09 1482.79,-901.16"/>
<polygon fill="#757575" stroke="#757575" points="1482.83,-904.66 1492.84,-901.19 1482.85,-897.66 1482.83,-904.66"/>
</g>
<!-- src/weapons/groundEnemyAttack.js&#45;&gt;src/weapons/enemyRocketAtack.js -->
<g id="edge62" class="edge">
<title>src/weapons/groundEnemyAttack.js&#45;&gt;src/weapons/enemyRocketAtack.js</title>
<path fill="none" stroke="#757575" d="M1380.6,-953.02C1414.15,-957.87 1453.34,-963.54 1487.89,-968.54"/>
<polygon fill="#757575" stroke="#757575" points="1487.58,-972.03 1497.98,-970 1488.58,-965.1 1487.58,-972.03"/>
</g>
<!-- src/weapons/groundEnemyAttack.js&#45;&gt;src/gameState.js -->
<g id="edge61" class="edge">
<title>src/weapons/groundEnemyAttack.js&#45;&gt;src/gameState.js</title>
<path fill="none" stroke="#757575" d="M1416.4,-950.6C1516.67,-955.88 1651.94,-955.83 1692,-921.5 1737.9,-882.16 1800.45,-442.42 1814.58,-339.13"/>
<polygon fill="#757575" stroke="#757575" points="1818.05,-339.59 1815.93,-329.21 1811.12,-338.65 1818.05,-339.59"/>
</g>
<!-- src/keyboard.js&#45;&gt;src/weapons/rocket.js -->
<g id="edge34" class="edge">
<title>src/keyboard.js&#45;&gt;src/weapons/rocket.js</title>
<path fill="none" stroke="#757575" d="M499.65,-483.09C547.88,-524.68 721.23,-666.34 894,-711.5 997.63,-738.59 1034.29,-747.96 1135,-711.5 1154.58,-704.41 1152.05,-690.15 1171,-681.5 1276.69,-633.27 1322.51,-685.94 1429,-639.5 1447.58,-631.4 1446.48,-619.74 1465,-611.5 1474.55,-607.25 1484.93,-603.91 1495.39,-601.27"/>
<polygon fill="#757575" stroke="#757575" points="1496.47,-604.62 1505.43,-598.96 1494.9,-597.8 1496.47,-604.62"/>
</g>
<!-- src/keyboard.js&#45;&gt;src/gameState.js -->
<g id="edge31" class="edge">
<title>src/keyboard.js&#45;&gt;src/gameState.js</title>
<path fill="none" stroke="#757575" d="M533.24,-459.92C546.69,-456.72 561.4,-453.35 575,-450.5 716.04,-420.97 751.82,-415.94 894,-392.5 1146.17,-350.93 1209.83,-338.73 1465,-324.5 1563.73,-318.99 1678.24,-317.65 1749.28,-317.41"/>
<polygon fill="#757575" stroke="#757575" points="1749.45,-320.91 1759.44,-317.38 1749.43,-313.91 1749.45,-320.91"/>
</g>
<!-- src/keyboard.js&#45;&gt;src/music.js -->
<g id="edge32" class="edge">
<title>src/keyboard.js&#45;&gt;src/music.js</title>
<path fill="none" stroke="#757575" d="M501.31,-459.8C518.22,-446.97 547.18,-426.59 575,-414.5 949.2,-251.9 1066.04,-274.9 1465,-189.5 1570.47,-166.92 1694.99,-146.46 1764.22,-135.62"/>
<polygon fill="#757575" stroke="#757575" points="1765.09,-139.03 1774.44,-134.03 1764.02,-132.11 1765.09,-139.03"/>
</g>
<!-- src/gameMenuActions.js -->
<g id="node21" class="node">
<title>src/gameMenuActions.js</title>
<path fill="none" stroke="#c6c5fe" d="M732.33,-483C732.33,-483 582.67,-483 582.67,-483 578.83,-483 575,-479.17 575,-475.33 575,-475.33 575,-467.67 575,-467.67 575,-463.83 578.83,-460 582.67,-460 582.67,-460 732.33,-460 732.33,-460 736.17,-460 740,-463.83 740,-467.67 740,-467.67 740,-475.33 740,-475.33 740,-479.17 736.17,-483 732.33,-483"/>
<text text-anchor="middle" x="657.5" y="-467.8" font-family="Arial" font-size="14.00" fill="#c6c5fe">src/gameMenuActions.js</text>
</g>
<!-- src/keyboard.js&#45;&gt;src/gameMenuActions.js -->
<g id="edge30" class="edge">
<title>src/keyboard.js&#45;&gt;src/gameMenuActions.js</title>
<path fill="none" stroke="#757575" d="M539.36,-471.5C547.48,-471.5 556.07,-471.5 564.75,-471.5"/>
<polygon fill="#757575" stroke="#757575" points="564.96,-475 574.96,-471.5 564.96,-468 564.96,-475"/>
</g>
<!-- src/touch.js -->
<g id="node23" class="node">
<title>src/touch.js</title>
<path fill="none" stroke="#c6c5fe" d="M692.33,-524C692.33,-524 622.67,-524 622.67,-524 618.83,-524 615,-520.17 615,-516.33 615,-516.33 615,-508.67 615,-508.67 615,-504.83 618.83,-501 622.67,-501 622.67,-501 692.33,-501 692.33,-501 696.17,-501 700,-504.83 700,-508.67 700,-508.67 700,-516.33 700,-516.33 700,-520.17 696.17,-524 692.33,-524"/>
<text text-anchor="middle" x="657.5" y="-508.8" font-family="Arial" font-size="14.00" fill="#c6c5fe">src/touch.js</text>
</g>
<!-- src/keyboard.js&#45;&gt;src/touch.js -->
<g id="edge33" class="edge">
<title>src/keyboard.js&#45;&gt;src/touch.js</title>
<path fill="none" stroke="#757575" d="M534.31,-483.03C556.28,-488.33 582.38,-494.62 604.81,-500.03"/>
<polygon fill="#757575" stroke="#757575" points="604.28,-503.51 614.83,-502.45 605.93,-496.7 604.28,-503.51"/>
</g>
<!-- src/player/Player.js&#45;&gt;src/weapons/gatling.js -->
<g id="edge39" class="edge">
<title>src/player/Player.js&#45;&gt;src/weapons/gatling.js</title>
<path fill="none" stroke="#757575" d="M361,-329.04C417.1,-350.3 544.83,-393.5 656.5,-393.5 656.5,-393.5 656.5,-393.5 818,-393.5 955.55,-393.5 1328.26,-398.85 1429,-492.5 1469.47,-530.12 1423.85,-574.62 1465,-611.5 1473.27,-618.91 1483.29,-624.09 1493.9,-627.65"/>
<polygon fill="#757575" stroke="#757575" points="1493.21,-631.09 1503.78,-630.49 1495.14,-624.37 1493.21,-631.09"/>
</g>
<!-- src/player/Player.js&#45;&gt;src/weapons/rocket.js -->
<g id="edge40" class="edge">
<title>src/player/Player.js&#45;&gt;src/weapons/rocket.js</title>
<path fill="none" stroke="#757575" d="M396.03,-318.94C619.01,-324.52 1352.06,-348.08 1429,-417.5 1480.86,-464.3 1414.47,-522.27 1465,-570.5 1473.59,-578.7 1484.3,-584.21 1495.67,-587.85"/>
<polygon fill="#757575" stroke="#757575" points="1494.78,-591.24 1505.35,-590.48 1496.62,-584.48 1494.78,-591.24"/>
</g>
<!-- src/player/Player.js&#45;&gt;src/gameState.js -->
<g id="edge36" class="edge">
<title>src/player/Player.js&#45;&gt;src/gameState.js</title>
<path fill="none" stroke="#757575" d="M355.25,-305.96C375.15,-296.58 404.8,-283.75 432,-276.5 493.95,-259.98 511.06,-262.21 575,-257.5 1022.3,-224.56 1561.57,-284.55 1749.22,-308.37"/>
<polygon fill="#757575" stroke="#757575" points="1748.85,-311.85 1759.21,-309.65 1749.74,-304.91 1748.85,-311.85"/>
</g>
<!-- src/player/Player.js&#45;&gt;src/keyboard.js -->
<g id="edge37" class="edge">
<title>src/player/Player.js&#45;&gt;src/keyboard.js</title>
<path fill="none" stroke="#757575" d="M343.46,-329.08C369.52,-355.39 433.4,-419.9 465.48,-452.29"/>
<polygon fill="#757575" stroke="#757575" points="463.38,-455.15 472.9,-459.79 468.36,-450.22 463.38,-455.15"/>
</g>
<!-- src/player/Player.js&#45;&gt;src/music.js -->
<g id="edge38" class="edge">
<title>src/player/Player.js&#45;&gt;src/music.js</title>
<path fill="none" stroke="#757575" d="M340.01,-305.88C373.06,-259.42 504.34,-89.5 656.5,-89.5 656.5,-89.5 656.5,-89.5 1301,-89.5 1470.64,-89.5 1670.79,-110.14 1764.32,-121"/>
<polygon fill="#757575" stroke="#757575" points="1764.05,-124.49 1774.39,-122.18 1764.86,-117.54 1764.05,-124.49"/>
</g>
<!-- src/player/Player.js&#45;&gt;src/gameOver.js -->
<g id="edge35" class="edge">
<title>src/player/Player.js&#45;&gt;src/gameOver.js</title>
<path fill="none" stroke="#757575" d="M383.85,-305.97C548.66,-272.19 1070.7,-187.41 1429,-379.5 1495.17,-414.97 1545.24,-492.66 1566.42,-529.85"/>
<polygon fill="#757575" stroke="#757575" points="1563.48,-531.76 1571.4,-538.79 1569.59,-528.35 1563.48,-531.76"/>
</g>
<!-- src/step.js&#45;&gt;src/enemy.js -->
<g id="edge51" class="edge">
<title>src/step.js&#45;&gt;src/enemy.js</title>
<path fill="none" stroke="#757575" d="M821.92,-599.21C831.7,-627.63 858.95,-702.02 894,-757.5 923.85,-804.75 968.7,-852.79 994.11,-878.48"/>
<polygon fill="#757575" stroke="#757575" points="991.79,-881.11 1001.34,-885.71 996.74,-876.16 991.79,-881.11"/>
</g>
<!-- src/step.js&#45;&gt;src/weapons/gatling.js -->
<g id="edge56" class="edge">
<title>src/step.js&#45;&gt;src/weapons/gatling.js</title>
<path fill="none" stroke="#757575" d="M855.66,-589.73C972.35,-596.65 1329.82,-617.82 1493.76,-627.54"/>
<polygon fill="#757575" stroke="#757575" points="1493.61,-631.04 1503.8,-628.13 1494.02,-624.05 1493.61,-631.04"/>
</g>
<!-- src/step.js&#45;&gt;src/ammo.js -->
<g id="edge49" class="edge">
<title>src/step.js&#45;&gt;src/ammo.js</title>
<path fill="none" stroke="#757575" d="M855.84,-580.26C868.01,-578 881.56,-575.57 894,-573.5 1018.98,-552.74 1166.27,-531.8 1244.2,-521"/>
<polygon fill="#757575" stroke="#757575" points="1244.85,-524.44 1254.27,-519.6 1243.89,-517.51 1244.85,-524.44"/>
</g>
<!-- src/step.js&#45;&gt;src/weapons/rocket.js -->
<g id="edge57" class="edge">
<title>src/step.js&#45;&gt;src/weapons/rocket.js</title>
<path fill="none" stroke="#757575" d="M823.21,-599.26C833.33,-620.4 857.83,-664.23 894,-681.5 990.66,-727.65 1033.69,-716.26 1135,-681.5 1154.17,-674.92 1152.38,-661.51 1171,-653.5 1276.87,-607.96 1410.87,-595.2 1495.42,-591.99"/>
<polygon fill="#757575" stroke="#757575" points="1495.6,-595.48 1505.48,-591.64 1495.36,-588.49 1495.6,-595.48"/>
</g>
<!-- src/step.js&#45;&gt;src/background.js -->
<g id="edge50" class="edge">
<title>src/step.js&#45;&gt;src/background.js</title>
<path fill="none" stroke="#757575" d="M821.08,-599.01C828.61,-624.55 850.57,-685.74 894,-711.5 995.89,-771.93 1353.79,-758.84 1507.02,-750.11"/>
<polygon fill="#757575" stroke="#757575" points="1507.48,-753.59 1517.26,-749.51 1507.07,-746.6 1507.48,-753.59"/>
</g>
<!-- src/step.js&#45;&gt;src/gameState.js -->
<g id="edge53" class="edge">
<title>src/step.js&#45;&gt;src/gameState.js</title>
<path fill="none" stroke="#757575" d="M830.64,-575.78C844.9,-563.24 869.35,-543.78 894,-533.5 994.35,-491.65 1028.69,-514.28 1135,-491.5 1373.22,-440.46 1654.03,-363.47 1766.85,-331.84"/>
<polygon fill="#757575" stroke="#757575" points="1767.92,-335.18 1776.6,-329.1 1766.03,-328.44 1767.92,-335.18"/>
</g>
<!-- src/step.js&#45;&gt;src/gameOver.js -->
<g id="edge52" class="edge">
<title>src/step.js&#45;&gt;src/gameOver.js</title>
<path fill="none" stroke="#757575" d="M827.89,-599.07C841.19,-613.64 866.37,-637.91 894,-647.5 995.19,-682.63 1040.56,-698.04 1135,-647.5 1160.43,-633.89 1146.32,-608.43 1171,-593.5 1276.02,-529.96 1424.7,-532.65 1510.1,-541.08"/>
<polygon fill="#757575" stroke="#757575" points="1509.88,-544.58 1520.19,-542.14 1510.61,-537.62 1509.88,-544.58"/>
</g>
<!-- src/mobile/mobileVelocityController.js -->
<g id="node24" class="node">
<title>src/mobile/mobileVelocityController.js</title>
<path fill="none" stroke="#cfffac" d="M1127.33,-639C1127.33,-639 901.67,-639 901.67,-639 897.83,-639 894,-635.17 894,-631.33 894,-631.33 894,-623.67 894,-623.67 894,-619.83 897.83,-616 901.67,-616 901.67,-616 1127.33,-616 1127.33,-616 1131.17,-616 1135,-619.83 1135,-623.67 1135,-623.67 1135,-631.33 1135,-631.33 1135,-635.17 1131.17,-639 1127.33,-639"/>
<text text-anchor="middle" x="1014.5" y="-623.8" font-family="Arial" font-size="14.00" fill="#cfffac">src/mobile/mobileVelocityController.js</text>
</g>
<!-- src/step.js&#45;&gt;src/mobile/mobileVelocityController.js -->
<g id="edge54" class="edge">
<title>src/step.js&#45;&gt;src/mobile/mobileVelocityController.js</title>
<path fill="none" stroke="#757575" d="M855.69,-595.21C881.51,-600.5 916.46,-607.65 946.9,-613.87"/>
<polygon fill="#757575" stroke="#757575" points="946.54,-617.37 957.04,-615.95 947.94,-610.51 946.54,-617.37"/>
</g>
<!-- src/mobileJoystick.js -->
<g id="node25" class="node">
<title>src/mobileJoystick.js</title>
<path fill="none" stroke="#cfffac" d="M1076.83,-483C1076.83,-483 952.17,-483 952.17,-483 948.33,-483 944.5,-479.17 944.5,-475.33 944.5,-475.33 944.5,-467.67 944.5,-467.67 944.5,-463.83 948.33,-460 952.17,-460 952.17,-460 1076.83,-460 1076.83,-460 1080.67,-460 1084.5,-463.83 1084.5,-467.67 1084.5,-467.67 1084.5,-475.33 1084.5,-475.33 1084.5,-479.17 1080.67,-483 1076.83,-483"/>
<text text-anchor="middle" x="1014.5" y="-467.8" font-family="Arial" font-size="14.00" fill="#cfffac">src/mobileJoystick.js</text>
</g>
<!-- src/step.js&#45;&gt;src/mobileJoystick.js -->
<g id="edge55" class="edge">
<title>src/step.js&#45;&gt;src/mobileJoystick.js</title>
<path fill="none" stroke="#757575" d="M824.45,-575.71C835.79,-556.16 861.24,-517.22 894,-497.5 906.27,-490.12 920.36,-484.82 934.47,-481.02"/>
<polygon fill="#757575" stroke="#757575" points="935.35,-484.41 944.22,-478.62 933.68,-477.61 935.35,-484.41"/>
</g>
<!-- src/gameMenuActions.js&#45;&gt;src/gameState.js -->
<g id="edge26" class="edge">
<title>src/gameMenuActions.js&#45;&gt;src/gameState.js</title>
<path fill="none" stroke="#757575" d="M726.57,-459.98C865.2,-436.81 1190.41,-383.93 1465,-350.5 1563.57,-338.5 1678.12,-328.5 1749.22,-322.76"/>
<polygon fill="#757575" stroke="#757575" points="1749.7,-326.23 1759.38,-321.94 1749.14,-319.26 1749.7,-326.23"/>
</g>
<!-- src/gameMenuActions.js&#45;&gt;src/step.js -->
<g id="edge27" class="edge">
<title>src/gameMenuActions.js&#45;&gt;src/step.js</title>
<path fill="none" stroke="#757575" d="M723.35,-483.13C729.2,-485.43 734.85,-488.19 740,-491.5 769.6,-510.51 792.7,-545.07 805.32,-567.12"/>
<polygon fill="#757575" stroke="#757575" points="802.33,-568.94 810.23,-576 808.45,-565.55 802.33,-568.94"/>
</g>
<!-- src/gameOver.js&#45;&gt;src/levelCompleteScreen.js -->
<g id="edge28" class="edge">
<title>src/gameOver.js&#45;&gt;src/levelCompleteScreen.js</title>
<path fill="none" stroke="#757575" d="M1636.72,-547.42C1656.85,-549.42 1677.93,-555.55 1692,-570.5 1739.68,-621.17 1710.4,-814.19 1728,-881.5 1747.35,-955.54 1787.29,-1037.57 1806.59,-1074.94"/>
<polygon fill="#757575" stroke="#757575" points="1803.51,-1076.6 1811.24,-1083.85 1809.71,-1073.36 1803.51,-1076.6"/>
</g>
<!-- src/gameOver.js&#45;&gt;src/music.js -->
<g id="edge29" class="edge">
<title>src/gameOver.js&#45;&gt;src/music.js</title>
<path fill="none" stroke="#757575" d="M1586.11,-538.75C1618.81,-480.64 1763.26,-223.91 1805.72,-148.43"/>
<polygon fill="#757575" stroke="#757575" points="1808.95,-149.83 1810.81,-139.4 1802.85,-146.4 1808.95,-149.83"/>
</g>
<!-- src/touch.js&#45;&gt;src/mobileJoystick.js -->
<g id="edge58" class="edge">
<title>src/touch.js&#45;&gt;src/mobileJoystick.js</title>
<path fill="none" stroke="#757575" d="M700.27,-507.68C757.6,-501.06 861.78,-489.02 934.18,-480.66"/>
<polygon fill="#757575" stroke="#757575" points="934.64,-484.13 944.17,-479.51 933.84,-477.18 934.64,-484.13"/>
</g>
</g>
</svg>
