<?xml version="1.0" encoding="UTF-8" standalone="no"?>
<!DOCTYPE svg PUBLIC "-//W3C//DTD SVG 1.1//EN"
 "http://www.w3.org/Graphics/SVG/1.1/DTD/svg11.dtd">
<!-- Generated by graphviz version 2.43.0 (0)
 -->
<!-- Title: G Pages: 1 -->
<svg width="1958pt" height="869pt"
 viewBox="0.00 0.00 1958.20 868.70" xmlns="http://www.w3.org/2000/svg" xmlns:xlink="http://www.w3.org/1999/xlink">
<g id="graph0" class="graph" transform="scale(1 1) rotate(0) translate(21.6 847.1)">
<title>G</title>
<polygon fill="#111111" stroke="transparent" points="-21.6,21.6 -21.6,-847.1 1936.6,-847.1 1936.6,21.6 -21.6,21.6"/>
<!-- app.js -->
<g id="node1" class="node">
<title>app.js</title>
<path fill="none" stroke="#c6c5fe" d="M46.33,-274C46.33,-274 7.67,-274 7.67,-274 3.83,-274 0,-270.17 0,-266.33 0,-266.33 0,-258.67 0,-258.67 0,-254.83 3.83,-251 7.67,-251 7.67,-251 46.33,-251 46.33,-251 50.17,-251 54,-254.83 54,-258.67 54,-258.67 54,-266.33 54,-266.33 54,-270.17 50.17,-274 46.33,-274"/>
<text text-anchor="middle" x="27" y="-258.8" font-family="Arial" font-size="14.00" fill="#c6c5fe">app.js</text>
</g>
<!-- src/gameManager.js -->
<g id="node2" class="node">
<title>src/gameManager.js</title>
<path fill="none" stroke="#c6c5fe" d="M222.33,-525C222.33,-525 97.67,-525 97.67,-525 93.83,-525 90,-521.17 90,-517.33 90,-517.33 90,-509.67 90,-509.67 90,-505.83 93.83,-502 97.67,-502 97.67,-502 222.33,-502 222.33,-502 226.17,-502 230,-505.83 230,-509.67 230,-509.67 230,-517.33 230,-517.33 230,-521.17 226.17,-525 222.33,-525"/>
<text text-anchor="middle" x="160" y="-509.8" font-family="Arial" font-size="14.00" fill="#c6c5fe">src/gameManager.js</text>
</g>
<!-- app.js&#45;&gt;src/gameManager.js -->
<g id="edge1" class="edge">
<title>app.js&#45;&gt;src/gameManager.js</title>
<path fill="none" stroke="#757575" d="M34.14,-274.27C54.77,-313.8 121.75,-442.13 148.16,-492.72"/>
<polygon fill="#757575" stroke="#757575" points="145.14,-494.51 152.87,-501.76 151.35,-491.27 145.14,-494.51"/>
</g>
<!-- src/startScreen.js -->
<g id="node3" class="node">
<title>src/startScreen.js</title>
<path fill="none" stroke="#c6c5fe" d="M379.33,-23C379.33,-23 273.67,-23 273.67,-23 269.83,-23 266,-19.17 266,-15.33 266,-15.33 266,-7.67 266,-7.67 266,-3.83 269.83,0 273.67,0 273.67,0 379.33,0 379.33,0 383.17,0 387,-3.83 387,-7.67 387,-7.67 387,-15.33 387,-15.33 387,-19.17 383.17,-23 379.33,-23"/>
<text text-anchor="middle" x="326.5" y="-7.8" font-family="Arial" font-size="14.00" fill="#c6c5fe">src/startScreen.js</text>
</g>
<!-- app.js&#45;&gt;src/startScreen.js -->
<g id="edge2" class="edge">
<title>app.js&#45;&gt;src/startScreen.js</title>
<path fill="none" stroke="#757575" d="M37.77,-250.74C68.23,-214.67 165.48,-104.03 266,-37.5 271.68,-33.74 278,-30.3 284.34,-27.25"/>
<polygon fill="#757575" stroke="#757575" points="285.91,-30.38 293.56,-23.06 283.01,-24.01 285.91,-30.38"/>
</g>
<!-- src/Boss.js -->
<g id="node4" class="node">
<title>src/Boss.js</title>
<path fill="none" stroke="#c6c5fe" d="M698.33,-605C698.33,-605 631.67,-605 631.67,-605 627.83,-605 624,-601.17 624,-597.33 624,-597.33 624,-589.67 624,-589.67 624,-585.83 627.83,-582 631.67,-582 631.67,-582 698.33,-582 698.33,-582 702.17,-582 706,-585.83 706,-589.67 706,-589.67 706,-597.33 706,-597.33 706,-601.17 702.17,-605 698.33,-605"/>
<text text-anchor="middle" x="665" y="-589.8" font-family="Arial" font-size="14.00" fill="#c6c5fe">src/Boss.js</text>
</g>
<!-- src/gameManager.js&#45;&gt;src/Boss.js -->
<g id="edge10" class="edge">
<title>src/gameManager.js&#45;&gt;src/Boss.js</title>
<path fill="none" stroke="#757575" d="M178.29,-525.23C198.38,-538.17 233.01,-558.37 266,-567.5 387.26,-601.07 536.89,-600.09 613.53,-596.69"/>
<polygon fill="#757575" stroke="#757575" points="614.03,-600.17 623.85,-596.19 613.69,-593.17 614.03,-600.17"/>
</g>
<!-- src/enemy.js -->
<g id="node5" class="node">
<title>src/enemy.js</title>
<path fill="none" stroke="#c6c5fe" d="M841.33,-525C841.33,-525 764.67,-525 764.67,-525 760.83,-525 757,-521.17 757,-517.33 757,-517.33 757,-509.67 757,-509.67 757,-505.83 760.83,-502 764.67,-502 764.67,-502 841.33,-502 841.33,-502 845.17,-502 849,-505.83 849,-509.67 849,-509.67 849,-517.33 849,-517.33 849,-521.17 845.17,-525 841.33,-525"/>
<text text-anchor="middle" x="803" y="-509.8" font-family="Arial" font-size="14.00" fill="#c6c5fe">src/enemy.js</text>
</g>
<!-- src/gameManager.js&#45;&gt;src/enemy.js -->
<g id="edge13" class="edge">
<title>src/gameManager.js&#45;&gt;src/enemy.js</title>
<path fill="none" stroke="#757575" d="M230.21,-513.5C358.26,-513.5 629.74,-513.5 746.6,-513.5"/>
<polygon fill="#757575" stroke="#757575" points="746.75,-517 756.75,-513.5 746.75,-510 746.75,-517"/>
</g>
<!-- src/levelCompleteScreen.js -->
<g id="node7" class="node">
<title>src/levelCompleteScreen.js</title>
<path fill="none" stroke="#cfffac" d="M1907.33,-799C1907.33,-799 1741.67,-799 1741.67,-799 1737.83,-799 1734,-795.17 1734,-791.33 1734,-791.33 1734,-783.67 1734,-783.67 1734,-779.83 1737.83,-776 1741.67,-776 1741.67,-776 1907.33,-776 1907.33,-776 1911.17,-776 1915,-779.83 1915,-783.67 1915,-783.67 1915,-791.33 1915,-791.33 1915,-795.17 1911.17,-799 1907.33,-799"/>
<text text-anchor="middle" x="1824.5" y="-783.8" font-family="Arial" font-size="14.00" fill="#cfffac">src/levelCompleteScreen.js</text>
</g>
<!-- src/gameManager.js&#45;&gt;src/levelCompleteScreen.js -->
<g id="edge15" class="edge">
<title>src/gameManager.js&#45;&gt;src/levelCompleteScreen.js</title>
<path fill="none" stroke="#757575" d="M162.86,-525.12C169.49,-562.82 195.48,-682.92 266,-746.5 348.94,-821.27 392.84,-825.5 504.5,-825.5 504.5,-825.5 504.5,-825.5 1467,-825.5 1563.6,-825.5 1674.1,-811.53 1746.14,-800.53"/>
<polygon fill="#757575" stroke="#757575" points="1746.7,-803.99 1756.05,-799 1745.63,-797.07 1746.7,-803.99"/>
</g>
<!-- src/ammo.js -->
<g id="node8" class="node">
<title>src/ammo.js</title>
<path fill="none" stroke="#c6c5fe" d="M1066.83,-525C1066.83,-525 991.17,-525 991.17,-525 987.33,-525 983.5,-521.17 983.5,-517.33 983.5,-517.33 983.5,-509.67 983.5,-509.67 983.5,-505.83 987.33,-502 991.17,-502 991.17,-502 1066.83,-502 1066.83,-502 1070.67,-502 1074.5,-505.83 1074.5,-509.67 1074.5,-509.67 1074.5,-517.33 1074.5,-517.33 1074.5,-521.17 1070.67,-525 1066.83,-525"/>
<text text-anchor="middle" x="1029" y="-509.8" font-family="Arial" font-size="14.00" fill="#c6c5fe">src/ammo.js</text>
</g>
<!-- src/gameManager.js&#45;&gt;src/ammo.js -->
<g id="edge11" class="edge">
<title>src/gameManager.js&#45;&gt;src/ammo.js</title>
<path fill="none" stroke="#757575" d="M222.49,-525.02C291.03,-536.83 405.29,-553.5 504.5,-553.5 504.5,-553.5 504.5,-553.5 666,-553.5 754.45,-553.5 776.1,-543.3 864,-533.5 900.53,-529.43 941.57,-524.42 973.47,-520.44"/>
<polygon fill="#757575" stroke="#757575" points="973.99,-523.9 983.48,-519.18 973.12,-516.95 973.99,-523.9"/>
</g>
<!-- src/rocket.js -->
<g id="node9" class="node">
<title>src/rocket.js</title>
<path fill="none" stroke="#c6c5fe" d="M1669.33,-453C1669.33,-453 1595.67,-453 1595.67,-453 1591.83,-453 1588,-449.17 1588,-445.33 1588,-445.33 1588,-437.67 1588,-437.67 1588,-433.83 1591.83,-430 1595.67,-430 1595.67,-430 1669.33,-430 1669.33,-430 1673.17,-430 1677,-433.83 1677,-437.67 1677,-437.67 1677,-445.33 1677,-445.33 1677,-449.17 1673.17,-453 1669.33,-453"/>
<text text-anchor="middle" x="1632.5" y="-437.8" font-family="Arial" font-size="14.00" fill="#c6c5fe">src/rocket.js</text>
</g>
<!-- src/gameManager.js&#45;&gt;src/rocket.js -->
<g id="edge19" class="edge">
<title>src/gameManager.js&#45;&gt;src/rocket.js</title>
<path fill="none" stroke="#757575" d="M168.37,-525.2C183.88,-549.05 222.11,-603.88 266,-637.5 358.97,-708.71 387.39,-749.5 504.5,-749.5 504.5,-749.5 504.5,-749.5 804,-749.5 1055.16,-749.5 1136.38,-785.49 1365,-681.5 1480.01,-629.19 1580.14,-509.01 1616.71,-461.43"/>
<polygon fill="#757575" stroke="#757575" points="1619.72,-463.25 1622.98,-453.17 1614.15,-459.02 1619.72,-463.25"/>
</g>
<!-- src/background.js -->
<g id="node10" class="node">
<title>src/background.js</title>
<path fill="none" stroke="#cfffac" d="M856.33,-293C856.33,-293 749.67,-293 749.67,-293 745.83,-293 742,-289.17 742,-285.33 742,-285.33 742,-277.67 742,-277.67 742,-273.83 745.83,-270 749.67,-270 749.67,-270 856.33,-270 856.33,-270 860.17,-270 864,-273.83 864,-277.67 864,-277.67 864,-285.33 864,-285.33 864,-289.17 860.17,-293 856.33,-293"/>
<text text-anchor="middle" x="803" y="-277.8" font-family="Arial" font-size="14.00" fill="#cfffac">src/background.js</text>
</g>
<!-- src/gameManager.js&#45;&gt;src/background.js -->
<g id="edge12" class="edge">
<title>src/gameManager.js&#45;&gt;src/background.js</title>
<path fill="none" stroke="#757575" d="M177.64,-501.98C217.91,-474.62 324.53,-405.21 423,-367.5 526.87,-327.72 654.12,-303.51 731.57,-291.31"/>
<polygon fill="#757575" stroke="#757575" points="732.35,-294.74 741.7,-289.74 731.28,-287.82 732.35,-294.74"/>
</g>
<!-- src/keyboard.js -->
<g id="node12" class="node">
<title>src/keyboard.js</title>
<path fill="none" stroke="#c6c5fe" d="M372.33,-255C372.33,-255 280.67,-255 280.67,-255 276.83,-255 273,-251.17 273,-247.33 273,-247.33 273,-239.67 273,-239.67 273,-235.83 276.83,-232 280.67,-232 280.67,-232 372.33,-232 372.33,-232 376.17,-232 380,-235.83 380,-239.67 380,-239.67 380,-247.33 380,-247.33 380,-251.17 376.17,-255 372.33,-255"/>
<text text-anchor="middle" x="326.5" y="-239.8" font-family="Arial" font-size="14.00" fill="#c6c5fe">src/keyboard.js</text>
</g>
<!-- src/gameManager.js&#45;&gt;src/keyboard.js -->
<g id="edge14" class="edge">
<title>src/gameManager.js&#45;&gt;src/keyboard.js</title>
<path fill="none" stroke="#757575" d="M166.93,-501.78C182.23,-471.79 224.74,-390.08 266,-325.5 279.98,-303.61 297.63,-279.7 310.06,-263.37"/>
<polygon fill="#757575" stroke="#757575" points="313.06,-265.21 316.38,-255.14 307.51,-260.94 313.06,-265.21"/>
</g>
<!-- src/music.js -->
<g id="node13" class="node">
<title>src/music.js</title>
<path fill="none" stroke="#cfffac" d="M1860.83,-170C1860.83,-170 1788.17,-170 1788.17,-170 1784.33,-170 1780.5,-166.17 1780.5,-162.33 1780.5,-162.33 1780.5,-154.67 1780.5,-154.67 1780.5,-150.83 1784.33,-147 1788.17,-147 1788.17,-147 1860.83,-147 1860.83,-147 1864.67,-147 1868.5,-150.83 1868.5,-154.67 1868.5,-154.67 1868.5,-162.33 1868.5,-162.33 1868.5,-166.17 1864.67,-170 1860.83,-170"/>
<text text-anchor="middle" x="1824.5" y="-154.8" font-family="Arial" font-size="14.00" fill="#cfffac">src/music.js</text>
</g>
<!-- src/gameManager.js&#45;&gt;src/music.js -->
<g id="edge16" class="edge">
<title>src/gameManager.js&#45;&gt;src/music.js</title>
<path fill="none" stroke="#757575" d="M162.42,-501.71C169.95,-441.23 207.02,-166.36 266,-108.5 343.8,-32.17 395.51,-51.5 504.5,-51.5 504.5,-51.5 504.5,-51.5 1467,-51.5 1591.82,-51.5 1731.25,-112.42 1792.17,-142.33"/>
<polygon fill="#757575" stroke="#757575" points="1790.75,-145.53 1801.26,-146.85 1793.87,-139.26 1790.75,-145.53"/>
</g>
<!-- src/player/Player.js -->
<g id="node14" class="node">
<title>src/player/Player.js</title>
<path fill="none" stroke="#c6c5fe" d="M1523.33,-333C1523.33,-333 1408.67,-333 1408.67,-333 1404.83,-333 1401,-329.17 1401,-325.33 1401,-325.33 1401,-317.67 1401,-317.67 1401,-313.83 1404.83,-310 1408.67,-310 1408.67,-310 1523.33,-310 1523.33,-310 1527.17,-310 1531,-313.83 1531,-317.67 1531,-317.67 1531,-325.33 1531,-325.33 1531,-329.17 1527.17,-333 1523.33,-333"/>
<text text-anchor="middle" x="1466" y="-317.8" font-family="Arial" font-size="14.00" fill="#c6c5fe">src/player/Player.js</text>
</g>
<!-- src/gameManager.js&#45;&gt;src/player/Player.js -->
<g id="edge17" class="edge">
<title>src/gameManager.js&#45;&gt;src/player/Player.js</title>
<path fill="none" stroke="#757575" d="M173.67,-525.18C192.53,-542.05 229.7,-573.31 266,-592.5 364.97,-644.81 392.55,-673.5 504.5,-673.5 504.5,-673.5 504.5,-673.5 1030,-673.5 1104.56,-673.5 1306.46,-700.68 1365,-654.5 1415.51,-614.66 1451.23,-410.34 1461.78,-343.03"/>
<polygon fill="#757575" stroke="#757575" points="1465.24,-343.53 1463.3,-333.12 1458.32,-342.47 1465.24,-343.53"/>
</g>
<!-- src/rendering/Helpers.js -->
<g id="node15" class="node">
<title>src/rendering/Helpers.js</title>
<path fill="none" stroke="#cfffac" d="M1896.33,-529C1896.33,-529 1752.67,-529 1752.67,-529 1748.83,-529 1745,-525.17 1745,-521.33 1745,-521.33 1745,-513.67 1745,-513.67 1745,-509.83 1748.83,-506 1752.67,-506 1752.67,-506 1896.33,-506 1896.33,-506 1900.17,-506 1904,-509.83 1904,-513.67 1904,-513.67 1904,-521.33 1904,-521.33 1904,-525.17 1900.17,-529 1896.33,-529"/>
<text text-anchor="middle" x="1824.5" y="-513.8" font-family="Arial" font-size="14.00" fill="#cfffac">src/rendering/Helpers.js</text>
</g>
<!-- src/gameManager.js&#45;&gt;src/rendering/Helpers.js -->
<g id="edge18" class="edge">
<title>src/gameManager.js&#45;&gt;src/rendering/Helpers.js</title>
<path fill="none" stroke="#757575" d="M164.83,-525.43C175.63,-557.26 209.27,-645.14 266,-694.5 351.83,-769.19 390.73,-787.5 504.5,-787.5 504.5,-787.5 504.5,-787.5 1030,-787.5 1339.03,-787.5 1421.26,-732.04 1698,-594.5 1734.09,-576.57 1773.32,-551.52 1798.14,-534.92"/>
<polygon fill="#757575" stroke="#757575" points="1800.26,-537.71 1806.6,-529.22 1796.35,-531.91 1800.26,-537.71"/>
</g>
<!-- src/speedometer.js -->
<g id="node16" class="node">
<title>src/speedometer.js</title>
<path fill="none" stroke="#cfffac" d="M1690.33,-170C1690.33,-170 1574.67,-170 1574.67,-170 1570.83,-170 1567,-166.17 1567,-162.33 1567,-162.33 1567,-154.67 1567,-154.67 1567,-150.83 1570.83,-147 1574.67,-147 1574.67,-147 1690.33,-147 1690.33,-147 1694.17,-147 1698,-150.83 1698,-154.67 1698,-154.67 1698,-162.33 1698,-162.33 1698,-166.17 1694.17,-170 1690.33,-170"/>
<text text-anchor="middle" x="1632.5" y="-154.8" font-family="Arial" font-size="14.00" fill="#cfffac">src/speedometer.js</text>
</g>
<!-- src/gameManager.js&#45;&gt;src/speedometer.js -->
<g id="edge20" class="edge">
<title>src/gameManager.js&#45;&gt;src/speedometer.js</title>
<path fill="none" stroke="#757575" d="M162.33,-501.82C167.68,-459.52 191.11,-312.16 266,-222.5 343.81,-129.35 383.13,-89.5 504.5,-89.5 504.5,-89.5 504.5,-89.5 1280.5,-89.5 1392.44,-89.5 1520.75,-123.71 1586.89,-143.95"/>
<polygon fill="#757575" stroke="#757575" points="1585.99,-147.33 1596.57,-146.95 1588.06,-140.65 1585.99,-147.33"/>
</g>
<!-- src/step.js -->
<g id="node17" class="node">
<title>src/step.js</title>
<path fill="none" stroke="#c6c5fe" d="M695.83,-409C695.83,-409 634.17,-409 634.17,-409 630.33,-409 626.5,-405.17 626.5,-401.33 626.5,-401.33 626.5,-393.67 626.5,-393.67 626.5,-389.83 630.33,-386 634.17,-386 634.17,-386 695.83,-386 695.83,-386 699.67,-386 703.5,-389.83 703.5,-393.67 703.5,-393.67 703.5,-401.33 703.5,-401.33 703.5,-405.17 699.67,-409 695.83,-409"/>
<text text-anchor="middle" x="665" y="-393.8" font-family="Arial" font-size="14.00" fill="#c6c5fe">src/step.js</text>
</g>
<!-- src/gameManager.js&#45;&gt;src/step.js -->
<g id="edge21" class="edge">
<title>src/gameManager.js&#45;&gt;src/step.js</title>
<path fill="none" stroke="#757575" d="M211.07,-501.95C308.29,-479.53 521.41,-430.38 616.52,-408.45"/>
<polygon fill="#757575" stroke="#757575" points="617.48,-411.82 626.44,-406.16 615.91,-405 617.48,-411.82"/>
</g>
<!-- src/startScreen.js&#45;&gt;src/music.js -->
<g id="edge44" class="edge">
<title>src/startScreen.js&#45;&gt;src/music.js</title>
<path fill="none" stroke="#757575" d="M387.07,-11.78C454.32,-12.08 567.02,-12.5 664,-12.5 664,-12.5 664,-12.5 1467,-12.5 1570.27,-12.5 1604.46,6.25 1698,-37.5 1747.23,-60.52 1789.14,-110.78 1809.78,-138.74"/>
<polygon fill="#757575" stroke="#757575" points="1807.03,-140.91 1815.72,-146.97 1812.71,-136.81 1807.03,-140.91"/>
</g>
<!-- src/Boss.js&#45;&gt;src/enemy.js -->
<g id="edge3" class="edge">
<title>src/Boss.js&#45;&gt;src/enemy.js</title>
<path fill="none" stroke="#757575" d="M685.78,-581.87C708.84,-568.3 747.16,-545.76 773.45,-530.3"/>
<polygon fill="#757575" stroke="#757575" points="775.36,-533.23 782.2,-525.15 771.81,-527.2 775.36,-533.23"/>
</g>
<!-- src/gatling.js -->
<g id="node6" class="node">
<title>src/gatling.js</title>
<path fill="none" stroke="#c6c5fe" d="M1317.83,-413C1317.83,-413 1241.17,-413 1241.17,-413 1237.33,-413 1233.5,-409.17 1233.5,-405.33 1233.5,-405.33 1233.5,-397.67 1233.5,-397.67 1233.5,-393.83 1237.33,-390 1241.17,-390 1241.17,-390 1317.83,-390 1317.83,-390 1321.67,-390 1325.5,-393.83 1325.5,-397.67 1325.5,-397.67 1325.5,-405.33 1325.5,-405.33 1325.5,-409.17 1321.67,-413 1317.83,-413"/>
<text text-anchor="middle" x="1279.5" y="-397.8" font-family="Arial" font-size="14.00" fill="#c6c5fe">src/gatling.js</text>
</g>
<!-- src/Boss.js&#45;&gt;src/gatling.js -->
<g id="edge4" class="edge">
<title>src/Boss.js&#45;&gt;src/gatling.js</title>
<path fill="none" stroke="#757575" d="M706.27,-589.79C820.7,-579.08 1140.66,-547.98 1158,-533.5 1199.44,-498.91 1153.72,-453.44 1194,-417.5 1202.19,-410.19 1212.64,-405.76 1223.38,-403.16"/>
<polygon fill="#757575" stroke="#757575" points="1224.11,-406.58 1233.27,-401.25 1222.79,-399.71 1224.11,-406.58"/>
</g>
<!-- src/Boss.js&#45;&gt;src/levelCompleteScreen.js -->
<g id="edge5" class="edge">
<title>src/Boss.js&#45;&gt;src/levelCompleteScreen.js</title>
<path fill="none" stroke="#757575" d="M706.03,-600.89C794.13,-617.1 1011.52,-656.76 1194,-687.5 1388.23,-720.21 1616.69,-755.78 1737.88,-774.42"/>
<polygon fill="#757575" stroke="#757575" points="1737.43,-777.89 1747.84,-775.95 1738.49,-770.97 1737.43,-777.89"/>
</g>
<!-- src/enemy.js&#45;&gt;src/gatling.js -->
<g id="edge8" class="edge">
<title>src/enemy.js&#45;&gt;src/gatling.js</title>
<path fill="none" stroke="#757575" d="M849.32,-503.1C865.3,-499.56 883.41,-495.69 900,-492.5 1014.15,-470.52 1049.08,-490.11 1158,-449.5 1175.57,-442.95 1176.91,-435.21 1194,-427.5 1203.44,-423.25 1213.77,-419.43 1223.86,-416.11"/>
<polygon fill="#757575" stroke="#757575" points="1224.95,-419.44 1233.44,-413.09 1222.85,-412.76 1224.95,-419.44"/>
</g>
<!-- src/rendering/EnemyCollisionsChecks.js -->
<g id="node11" class="node">
<title>src/rendering/EnemyCollisionsChecks.js</title>
<path fill="none" stroke="#c6c5fe" d="M1150.33,-605C1150.33,-605 907.67,-605 907.67,-605 903.83,-605 900,-601.17 900,-597.33 900,-597.33 900,-589.67 900,-589.67 900,-585.83 903.83,-582 907.67,-582 907.67,-582 1150.33,-582 1150.33,-582 1154.17,-582 1158,-585.83 1158,-589.67 1158,-589.67 1158,-597.33 1158,-597.33 1158,-601.17 1154.17,-605 1150.33,-605"/>
<text text-anchor="middle" x="1029" y="-589.8" font-family="Arial" font-size="14.00" fill="#c6c5fe">src/rendering/EnemyCollisionsChecks.js</text>
</g>
<!-- src/enemy.js&#45;&gt;src/rendering/EnemyCollisionsChecks.js -->
<g id="edge9" class="edge">
<title>src/enemy.js&#45;&gt;src/rendering/EnemyCollisionsChecks.js</title>
<path fill="none" stroke="#757575" d="M836.57,-525.13C876.08,-539.24 942.77,-563.06 986.08,-578.53"/>
<polygon fill="#757575" stroke="#757575" points="985.16,-581.92 995.75,-581.98 987.51,-575.32 985.16,-581.92"/>
</g>
<!-- src/gatling.js&#45;&gt;src/music.js -->
<g id="edge25" class="edge">
<title>src/gatling.js&#45;&gt;src/music.js</title>
<path fill="none" stroke="#757575" d="M1291.84,-389.8C1312.13,-369.39 1356.7,-326.94 1401,-300.5 1523,-227.7 1687.31,-186.29 1770.5,-168.68"/>
<polygon fill="#757575" stroke="#757575" points="1771.4,-172.07 1780.48,-166.6 1769.97,-165.22 1771.4,-172.07"/>
</g>
<!-- src/gatling.js&#45;&gt;src/player/Player.js -->
<g id="edge26" class="edge">
<title>src/gatling.js&#45;&gt;src/player/Player.js</title>
<path fill="none" stroke="#757575" d="M1307.33,-389.87C1339.39,-375.96 1393.18,-352.64 1428.88,-337.16"/>
<polygon fill="#757575" stroke="#757575" points="1430.66,-340.21 1438.44,-333.02 1427.87,-333.78 1430.66,-340.21"/>
</g>
<!-- src/ammo.js&#45;&gt;src/gatling.js -->
<g id="edge6" class="edge">
<title>src/ammo.js&#45;&gt;src/gatling.js</title>
<path fill="none" stroke="#757575" d="M1074.7,-513.2C1101.05,-511.01 1133.84,-504.58 1158,-487.5 1183.39,-469.55 1169.52,-446.68 1194,-427.5 1202.7,-420.69 1213.18,-415.65 1223.76,-411.93"/>
<polygon fill="#757575" stroke="#757575" points="1224.98,-415.22 1233.46,-408.87 1222.87,-408.54 1224.98,-415.22"/>
</g>
<!-- src/ammo.js&#45;&gt;src/rocket.js -->
<g id="edge7" class="edge">
<title>src/ammo.js&#45;&gt;src/rocket.js</title>
<path fill="none" stroke="#757575" d="M1074.72,-508.15C1183.21,-495.16 1460.07,-462.02 1577.52,-447.96"/>
<polygon fill="#757575" stroke="#757575" points="1578.2,-451.41 1587.71,-446.74 1577.36,-444.46 1578.2,-451.41"/>
</g>
<!-- src/rocket.js&#45;&gt;src/rendering/Helpers.js -->
<g id="edge43" class="edge">
<title>src/rocket.js&#45;&gt;src/rendering/Helpers.js</title>
<path fill="none" stroke="#757575" d="M1662.36,-453.04C1695.23,-466.19 1749.09,-487.74 1785.4,-502.26"/>
<polygon fill="#757575" stroke="#757575" points="1784.1,-505.51 1794.68,-505.97 1786.7,-499.01 1784.1,-505.51"/>
</g>
<!-- src/rendering/EnemyCollisionsChecks.js&#45;&gt;src/gatling.js -->
<g id="edge37" class="edge">
<title>src/rendering/EnemyCollisionsChecks.js&#45;&gt;src/gatling.js</title>
<path fill="none" stroke="#757575" d="M1134.99,-581.92C1143.33,-578.18 1151.16,-573.45 1158,-567.5 1194.27,-535.95 1165.64,-504.32 1194,-465.5 1208.14,-446.14 1229.78,-429.91 1247.62,-418.64"/>
<polygon fill="#757575" stroke="#757575" points="1249.82,-421.39 1256.54,-413.2 1246.18,-415.41 1249.82,-421.39"/>
</g>
<!-- src/rendering/EnemyCollisionsChecks.js&#45;&gt;src/rocket.js -->
<g id="edge42" class="edge">
<title>src/rendering/EnemyCollisionsChecks.js&#45;&gt;src/rocket.js</title>
<path fill="none" stroke="#757575" d="M1113.19,-581.96C1128.45,-578.35 1143.98,-573.64 1158,-567.5 1176.08,-559.58 1175.89,-549.36 1194,-541.5 1334.01,-480.74 1383.5,-514.71 1531,-475.5 1551.07,-470.17 1572.95,-462.94 1591.16,-456.51"/>
<polygon fill="#757575" stroke="#757575" points="1592.35,-459.81 1600.59,-453.15 1589.99,-453.21 1592.35,-459.81"/>
</g>
<!-- src/rendering/EnemyCollisionsChecks.js&#45;&gt;src/music.js -->
<g id="edge38" class="edge">
<title>src/rendering/EnemyCollisionsChecks.js&#45;&gt;src/music.js</title>
<path fill="none" stroke="#757575" d="M1158.07,-582.96C1328.62,-566.49 1618.12,-529.29 1698,-461.5 1787.14,-385.84 1814.03,-236.59 1821.17,-180.5"/>
<polygon fill="#757575" stroke="#757575" points="1824.68,-180.63 1822.38,-170.29 1817.73,-179.81 1824.68,-180.63"/>
</g>
<!-- src/rendering/EnemyCollisionsChecks.js&#45;&gt;src/player/Player.js -->
<g id="edge39" class="edge">
<title>src/rendering/EnemyCollisionsChecks.js&#45;&gt;src/player/Player.js</title>
<path fill="none" stroke="#757575" d="M1130.39,-581.99C1140.24,-578.31 1149.66,-573.57 1158,-567.5 1184.38,-548.29 1170.18,-525.81 1194,-503.5 1255.51,-445.88 1296.22,-470.22 1365,-421.5 1398.25,-397.95 1430.42,-362.9 1448.93,-341.17"/>
<polygon fill="#757575" stroke="#757575" points="1451.81,-343.18 1455.55,-333.27 1446.45,-338.68 1451.81,-343.18"/>
</g>
<!-- src/rendering/EnemyCollisionsChecks.js&#45;&gt;src/rendering/Helpers.js -->
<g id="edge41" class="edge">
<title>src/rendering/EnemyCollisionsChecks.js&#45;&gt;src/rendering/Helpers.js</title>
<path fill="none" stroke="#757575" d="M1158.18,-602.27C1293.91,-608.47 1513.6,-609.65 1698,-569.5 1731.77,-562.15 1768,-546.17 1792.81,-533.86"/>
<polygon fill="#757575" stroke="#757575" points="1794.72,-536.82 1802.06,-529.17 1791.55,-530.57 1794.72,-536.82"/>
</g>
<!-- src/rendering/Explosion.js -->
<g id="node21" class="node">
<title>src/rendering/Explosion.js</title>
<path fill="none" stroke="#cfffac" d="M1357.33,-645C1357.33,-645 1201.67,-645 1201.67,-645 1197.83,-645 1194,-641.17 1194,-637.33 1194,-637.33 1194,-629.67 1194,-629.67 1194,-625.83 1197.83,-622 1201.67,-622 1201.67,-622 1357.33,-622 1357.33,-622 1361.17,-622 1365,-625.83 1365,-629.67 1365,-629.67 1365,-637.33 1365,-637.33 1365,-641.17 1361.17,-645 1357.33,-645"/>
<text text-anchor="middle" x="1279.5" y="-629.8" font-family="Arial" font-size="14.00" fill="#cfffac">src/rendering/Explosion.js</text>
</g>
<!-- src/rendering/EnemyCollisionsChecks.js&#45;&gt;src/rendering/Explosion.js -->
<g id="edge40" class="edge">
<title>src/rendering/EnemyCollisionsChecks.js&#45;&gt;src/rendering/Explosion.js</title>
<path fill="none" stroke="#757575" d="M1101.54,-605.02C1131.3,-609.81 1166.01,-615.39 1196.77,-620.34"/>
<polygon fill="#757575" stroke="#757575" points="1196.6,-623.86 1207.03,-622 1197.72,-616.95 1196.6,-623.86"/>
</g>
<!-- src/keyboard.js&#45;&gt;src/gatling.js -->
<g id="edge28" class="edge">
<title>src/keyboard.js&#45;&gt;src/gatling.js</title>
<path fill="none" stroke="#757575" d="M370.43,-231.99C386.76,-228.16 405.62,-224.39 423,-222.5 495.9,-214.58 514.84,-217.49 588,-222.5 711.53,-230.96 743.5,-231.99 864,-260.5 1006.35,-294.18 1168.92,-356.91 1240.87,-385.97"/>
<polygon fill="#757575" stroke="#757575" points="1239.82,-389.33 1250.41,-389.84 1242.46,-382.84 1239.82,-389.33"/>
</g>
<!-- src/keyboard.js&#45;&gt;src/rocket.js -->
<g id="edge31" class="edge">
<title>src/keyboard.js&#45;&gt;src/rocket.js</title>
<path fill="none" stroke="#757575" d="M357.51,-231.89C376.07,-225.35 400.55,-217.83 423,-214.5 547.45,-196.02 580.44,-213.41 706,-221.5 1073.58,-245.2 1212.55,-115.38 1531,-300.5 1578.6,-328.17 1609.54,-388.43 1623.29,-420.48"/>
<polygon fill="#757575" stroke="#757575" points="1620.09,-421.91 1627.14,-429.82 1626.56,-419.24 1620.09,-421.91"/>
</g>
<!-- src/keyboard.js&#45;&gt;src/music.js -->
<g id="edge29" class="edge">
<title>src/keyboard.js&#45;&gt;src/music.js</title>
<path fill="none" stroke="#757575" d="M346.43,-231.95C396.38,-202.61 536.7,-127.5 664,-127.5 664,-127.5 664,-127.5 1280.5,-127.5 1466.11,-127.5 1513.23,-119.92 1698,-137.5 1721.93,-139.78 1748.2,-143.91 1770.49,-147.92"/>
<polygon fill="#757575" stroke="#757575" points="1769.96,-151.38 1780.43,-149.74 1771.22,-144.49 1769.96,-151.38"/>
</g>
<!-- src/keyboard.js&#45;&gt;src/player/Player.js -->
<g id="edge30" class="edge">
<title>src/keyboard.js&#45;&gt;src/player/Player.js</title>
<path fill="none" stroke="#757575" d="M373.34,-255.1C388.99,-258.53 406.66,-261.81 423,-263.5 495.94,-271.06 514.67,-264.21 588,-263.5 656.45,-262.83 673.55,-261.17 742,-260.5 796.22,-259.97 809.85,-257.76 864,-260.5 1054.38,-270.14 1277.39,-296.84 1390.72,-311.52"/>
<polygon fill="#757575" stroke="#757575" points="1390.31,-314.99 1400.68,-312.81 1391.22,-308.05 1390.31,-314.99"/>
</g>
<!-- src/gameMenuActions.js -->
<g id="node18" class="node">
<title>src/gameMenuActions.js</title>
<path fill="none" stroke="#c6c5fe" d="M580.33,-400C580.33,-400 430.67,-400 430.67,-400 426.83,-400 423,-396.17 423,-392.33 423,-392.33 423,-384.67 423,-384.67 423,-380.83 426.83,-377 430.67,-377 430.67,-377 580.33,-377 580.33,-377 584.17,-377 588,-380.83 588,-384.67 588,-384.67 588,-392.33 588,-392.33 588,-396.17 584.17,-400 580.33,-400"/>
<text text-anchor="middle" x="505.5" y="-384.8" font-family="Arial" font-size="14.00" fill="#c6c5fe">src/gameMenuActions.js</text>
</g>
<!-- src/keyboard.js&#45;&gt;src/gameMenuActions.js -->
<g id="edge27" class="edge">
<title>src/keyboard.js&#45;&gt;src/gameMenuActions.js</title>
<path fill="none" stroke="#757575" d="M341.69,-255.12C372.37,-280.26 445.11,-339.84 482.08,-370.14"/>
<polygon fill="#757575" stroke="#757575" points="480.29,-373.19 490.25,-376.82 484.73,-367.78 480.29,-373.19"/>
</g>
<!-- src/touch.js -->
<g id="node20" class="node">
<title>src/touch.js</title>
<path fill="none" stroke="#cfffac" d="M540.33,-255C540.33,-255 470.67,-255 470.67,-255 466.83,-255 463,-251.17 463,-247.33 463,-247.33 463,-239.67 463,-239.67 463,-235.83 466.83,-232 470.67,-232 470.67,-232 540.33,-232 540.33,-232 544.17,-232 548,-235.83 548,-239.67 548,-239.67 548,-247.33 548,-247.33 548,-251.17 544.17,-255 540.33,-255"/>
<text text-anchor="middle" x="505.5" y="-239.8" font-family="Arial" font-size="14.00" fill="#cfffac">src/touch.js</text>
</g>
<!-- src/keyboard.js&#45;&gt;src/touch.js -->
<g id="edge32" class="edge">
<title>src/keyboard.js&#45;&gt;src/touch.js</title>
<path fill="none" stroke="#757575" d="M380.13,-243.5C403.01,-243.5 429.76,-243.5 452.56,-243.5"/>
<polygon fill="#757575" stroke="#757575" points="452.74,-247 462.74,-243.5 452.74,-240 452.74,-247"/>
</g>
<!-- src/player/Player.js&#45;&gt;src/rocket.js -->
<g id="edge35" class="edge">
<title>src/player/Player.js&#45;&gt;src/rocket.js</title>
<path fill="none" stroke="#757575" d="M1502.02,-333.05C1511.77,-336.97 1522.11,-341.81 1531,-347.5 1548.62,-358.77 1589.13,-398.58 1612.99,-422.63"/>
<polygon fill="#757575" stroke="#757575" points="1610.59,-425.17 1620.11,-429.83 1615.57,-420.25 1610.59,-425.17"/>
</g>
<!-- src/player/Player.js&#45;&gt;src/rendering/Helpers.js -->
<g id="edge34" class="edge">
<title>src/player/Player.js&#45;&gt;src/rendering/Helpers.js</title>
<path fill="none" stroke="#757575" d="M1496.06,-333.12C1507.03,-337.55 1519.62,-342.7 1531,-347.5 1605.64,-378.97 1628.32,-379.2 1698,-420.5 1737.63,-443.99 1779.05,-478.2 1803.01,-499.09"/>
<polygon fill="#757575" stroke="#757575" points="1800.9,-501.9 1810.72,-505.88 1805.53,-496.64 1800.9,-501.9"/>
</g>
<!-- src/player/Player.js&#45;&gt;src/speedometer.js -->
<g id="edge36" class="edge">
<title>src/player/Player.js&#45;&gt;src/speedometer.js</title>
<path fill="none" stroke="#757575" d="M1478.83,-309.78C1506.93,-281.93 1577.89,-211.62 1612.26,-177.57"/>
<polygon fill="#757575" stroke="#757575" points="1615.14,-179.64 1619.78,-170.12 1610.21,-174.67 1615.14,-179.64"/>
</g>
<!-- src/gameOver.js -->
<g id="node19" class="node">
<title>src/gameOver.js</title>
<path fill="none" stroke="#c6c5fe" d="M1682.83,-267C1682.83,-267 1582.17,-267 1582.17,-267 1578.33,-267 1574.5,-263.17 1574.5,-259.33 1574.5,-259.33 1574.5,-251.67 1574.5,-251.67 1574.5,-247.83 1578.33,-244 1582.17,-244 1582.17,-244 1682.83,-244 1682.83,-244 1686.67,-244 1690.5,-247.83 1690.5,-251.67 1690.5,-251.67 1690.5,-259.33 1690.5,-259.33 1690.5,-263.17 1686.67,-267 1682.83,-267"/>
<text text-anchor="middle" x="1632.5" y="-251.8" font-family="Arial" font-size="14.00" fill="#c6c5fe">src/gameOver.js</text>
</g>
<!-- src/player/Player.js&#45;&gt;src/gameOver.js -->
<g id="edge33" class="edge">
<title>src/player/Player.js&#45;&gt;src/gameOver.js</title>
<path fill="none" stroke="#757575" d="M1496.03,-309.85C1523.05,-299.01 1563.48,-282.79 1593.15,-270.89"/>
<polygon fill="#757575" stroke="#757575" points="1594.78,-274 1602.76,-267.03 1592.18,-267.51 1594.78,-274"/>
</g>
<!-- src/step.js&#45;&gt;src/enemy.js -->
<g id="edge47" class="edge">
<title>src/step.js&#45;&gt;src/enemy.js</title>
<path fill="none" stroke="#757575" d="M673.29,-409.22C685.47,-427.98 711.64,-464.93 742,-487.5 747.08,-491.28 752.8,-494.64 758.63,-497.6"/>
<polygon fill="#757575" stroke="#757575" points="757.28,-500.83 767.82,-501.9 760.25,-494.49 757.28,-500.83"/>
</g>
<!-- src/step.js&#45;&gt;src/gatling.js -->
<g id="edge49" class="edge">
<title>src/step.js&#45;&gt;src/gatling.js</title>
<path fill="none" stroke="#757575" d="M703.7,-405.85C715.86,-408.16 729.44,-410.35 742,-411.5 926.12,-428.32 973.27,-419.15 1158,-411.5 1179.35,-410.62 1202.78,-408.85 1223.25,-407.05"/>
<polygon fill="#757575" stroke="#757575" points="1223.71,-410.52 1233.35,-406.14 1223.08,-403.55 1223.71,-410.52"/>
</g>
<!-- src/step.js&#45;&gt;src/ammo.js -->
<g id="edge45" class="edge">
<title>src/step.js&#45;&gt;src/ammo.js</title>
<path fill="none" stroke="#757575" d="M679.61,-409.21C694.12,-421.09 718.25,-439.17 742,-449.5 818.37,-482.7 913.99,-499.61 973.03,-507.49"/>
<polygon fill="#757575" stroke="#757575" points="972.89,-511 983.26,-508.81 973.79,-504.06 972.89,-511"/>
</g>
<!-- src/step.js&#45;&gt;src/rocket.js -->
<g id="edge51" class="edge">
<title>src/step.js&#45;&gt;src/rocket.js</title>
<path fill="none" stroke="#757575" d="M703.63,-395.23C829.49,-387.85 1235.18,-365.83 1365,-380.5 1442.76,-389.29 1530.9,-412.06 1583.8,-427.15"/>
<polygon fill="#757575" stroke="#757575" points="1582.99,-430.57 1593.57,-429.97 1584.93,-423.84 1582.99,-430.57"/>
</g>
<!-- src/step.js&#45;&gt;src/background.js -->
<g id="edge46" class="edge">
<title>src/step.js&#45;&gt;src/background.js</title>
<path fill="none" stroke="#757575" d="M677.11,-385.76C685.27,-377.02 696.55,-364.7 706,-353.5 722.74,-333.66 721.46,-323.37 742,-307.5 746.95,-303.67 752.55,-300.29 758.3,-297.34"/>
<polygon fill="#757575" stroke="#757575" points="759.82,-300.49 767.36,-293.04 756.82,-294.16 759.82,-300.49"/>
</g>
<!-- src/step.js&#45;&gt;src/player/Player.js -->
<g id="edge50" class="edge">
<title>src/step.js&#45;&gt;src/player/Player.js</title>
<path fill="none" stroke="#757575" d="M703.77,-389.8C715.93,-387.52 729.5,-385.18 742,-383.5 977.83,-351.74 1259.25,-333.1 1390.6,-325.5"/>
<polygon fill="#757575" stroke="#757575" points="1391.16,-328.98 1400.94,-324.91 1390.76,-321.99 1391.16,-328.98"/>
</g>
<!-- src/step.js&#45;&gt;src/gameOver.js -->
<g id="edge48" class="edge">
<title>src/step.js&#45;&gt;src/gameOver.js</title>
<path fill="none" stroke="#757575" d="M689.8,-385.86C704.53,-379.06 724.01,-370.81 742,-365.5 810.4,-345.31 829.42,-347.7 900,-337.5 1143.82,-302.27 1435.24,-273.6 1564.31,-261.59"/>
<polygon fill="#757575" stroke="#757575" points="1564.8,-265.06 1574.43,-260.65 1564.15,-258.09 1564.8,-265.06"/>
</g>
<!-- src/gameMenuActions.js&#45;&gt;src/step.js -->
<g id="edge22" class="edge">
<title>src/gameMenuActions.js&#45;&gt;src/step.js</title>
<path fill="none" stroke="#757575" d="M588.02,-393.16C597.62,-393.71 607.17,-394.25 616.09,-394.76"/>
<polygon fill="#757575" stroke="#757575" points="616.06,-398.27 626.24,-395.34 616.46,-391.28 616.06,-398.27"/>
</g>
<!-- src/gameOver.js&#45;&gt;src/levelCompleteScreen.js -->
<g id="edge23" class="edge">
<title>src/gameOver.js&#45;&gt;src/levelCompleteScreen.js</title>
<path fill="none" stroke="#757575" d="M1638.5,-267.39C1649.77,-294.38 1677.74,-362.42 1698,-420.5 1715.92,-471.87 1716.83,-485.88 1734,-537.5 1762.43,-622.97 1799.6,-723.61 1815.61,-766.47"/>
<polygon fill="#757575" stroke="#757575" points="1812.33,-767.71 1819.12,-775.85 1818.89,-765.26 1812.33,-767.71"/>
</g>
<!-- src/gameOver.js&#45;&gt;src/music.js -->
<g id="edge24" class="edge">
<title>src/gameOver.js&#45;&gt;src/music.js</title>
<path fill="none" stroke="#757575" d="M1656.04,-243.99C1689.66,-226.83 1753.09,-194.45 1791.5,-174.84"/>
<polygon fill="#757575" stroke="#757575" points="1793.38,-177.81 1800.69,-170.14 1790.19,-171.57 1793.38,-177.81"/>
</g>
</g>
</svg>
