<?xml version="1.0" encoding="UTF-8" standalone="no"?>
<!DOCTYPE svg PUBLIC "-//W3C//DTD SVG 1.1//EN"
 "http://www.w3.org/Graphics/SVG/1.1/DTD/svg11.dtd">
<!-- Generated by graphviz version 2.43.0 (0)
 -->
<!-- Title: G Pages: 1 -->
<svg width="1957pt" height="1148pt"
 viewBox="0.00 0.00 1957.20 1147.59" xmlns="http://www.w3.org/2000/svg" xmlns:xlink="http://www.w3.org/1999/xlink">
<g id="graph0" class="graph" transform="scale(1 1) rotate(0) translate(21.6 1125.99)">
<title>G</title>
<polygon fill="#111111" stroke="transparent" points="-21.6,21.6 -21.6,-1125.99 1935.6,-1125.99 1935.6,21.6 -21.6,21.6"/>
<!-- app.js -->
<g id="node1" class="node">
<title>app.js</title>
<path fill="none" stroke="#c6c5fe" d="M46.33,-441C46.33,-441 7.67,-441 7.67,-441 3.83,-441 0,-437.17 0,-433.33 0,-433.33 0,-425.67 0,-425.67 0,-421.83 3.83,-418 7.67,-418 7.67,-418 46.33,-418 46.33,-418 50.17,-418 54,-421.83 54,-425.67 54,-425.67 54,-433.33 54,-433.33 54,-437.17 50.17,-441 46.33,-441"/>
<text text-anchor="middle" x="27" y="-425.8" font-family="Arial" font-size="14.00" fill="#c6c5fe">app.js</text>
</g>
<!-- src/gameManager.js -->
<g id="node2" class="node">
<title>src/gameManager.js</title>
<path fill="none" stroke="#c6c5fe" d="M222.33,-751C222.33,-751 97.67,-751 97.67,-751 93.83,-751 90,-747.17 90,-743.33 90,-743.33 90,-735.67 90,-735.67 90,-731.83 93.83,-728 97.67,-728 97.67,-728 222.33,-728 222.33,-728 226.17,-728 230,-731.83 230,-735.67 230,-735.67 230,-743.33 230,-743.33 230,-747.17 226.17,-751 222.33,-751"/>
<text text-anchor="middle" x="160" y="-735.8" font-family="Arial" font-size="14.00" fill="#c6c5fe">src/gameManager.js</text>
</g>
<!-- app.js&#45;&gt;src/gameManager.js -->
<g id="edge1" class="edge">
<title>app.js&#45;&gt;src/gameManager.js</title>
<path fill="none" stroke="#757575" d="M32.98,-441.27C52.59,-487.69 124.74,-658.42 150.11,-718.45"/>
<polygon fill="#757575" stroke="#757575" points="146.9,-719.87 154.02,-727.71 153.35,-717.14 146.9,-719.87"/>
</g>
<!-- src/startScreen.js -->
<g id="node3" class="node">
<title>src/startScreen.js</title>
<path fill="none" stroke="#c6c5fe" d="M383.83,-23C383.83,-23 278.17,-23 278.17,-23 274.33,-23 270.5,-19.17 270.5,-15.33 270.5,-15.33 270.5,-7.67 270.5,-7.67 270.5,-3.83 274.33,0 278.17,0 278.17,0 383.83,0 383.83,0 387.67,0 391.5,-3.83 391.5,-7.67 391.5,-7.67 391.5,-15.33 391.5,-15.33 391.5,-19.17 387.67,-23 383.83,-23"/>
<text text-anchor="middle" x="331" y="-7.8" font-family="Arial" font-size="14.00" fill="#c6c5fe">src/startScreen.js</text>
</g>
<!-- app.js&#45;&gt;src/startScreen.js -->
<g id="edge2" class="edge">
<title>app.js&#45;&gt;src/startScreen.js</title>
<path fill="none" stroke="#757575" d="M31.98,-417.73C50.2,-365.58 130.53,-152.88 266,-37.5 270.5,-33.66 275.65,-30.34 281.02,-27.48"/>
<polygon fill="#757575" stroke="#757575" points="282.69,-30.55 290.2,-23.08 279.67,-24.24 282.69,-30.55"/>
</g>
<!-- src/Boss.js -->
<g id="node4" class="node">
<title>src/Boss.js</title>
<path fill="none" stroke="#c6c5fe" d="M850.33,-878C850.33,-878 783.67,-878 783.67,-878 779.83,-878 776,-874.17 776,-870.33 776,-870.33 776,-862.67 776,-862.67 776,-858.83 779.83,-855 783.67,-855 783.67,-855 850.33,-855 850.33,-855 854.17,-855 858,-858.83 858,-862.67 858,-862.67 858,-870.33 858,-870.33 858,-874.17 854.17,-878 850.33,-878"/>
<text text-anchor="middle" x="817" y="-862.8" font-family="Arial" font-size="14.00" fill="#c6c5fe">src/Boss.js</text>
</g>
<!-- src/gameManager.js&#45;&gt;src/Boss.js -->
<g id="edge15" class="edge">
<title>src/gameManager.js&#45;&gt;src/Boss.js</title>
<path fill="none" stroke="#757575" d="M168.8,-751.33C184.25,-773.59 221.16,-821.19 266,-840.5 436.87,-914.08 665.8,-890.81 765.77,-875.42"/>
<polygon fill="#757575" stroke="#757575" points="766.56,-878.84 775.89,-873.82 765.46,-871.93 766.56,-878.84"/>
</g>
<!-- src/enemy.js -->
<g id="node5" class="node">
<title>src/enemy.js</title>
<path fill="none" stroke="#c6c5fe" d="M1052.83,-878C1052.83,-878 976.17,-878 976.17,-878 972.33,-878 968.5,-874.17 968.5,-870.33 968.5,-870.33 968.5,-862.67 968.5,-862.67 968.5,-858.83 972.33,-855 976.17,-855 976.17,-855 1052.83,-855 1052.83,-855 1056.67,-855 1060.5,-858.83 1060.5,-862.67 1060.5,-862.67 1060.5,-870.33 1060.5,-870.33 1060.5,-874.17 1056.67,-878 1052.83,-878"/>
<text text-anchor="middle" x="1014.5" y="-862.8" font-family="Arial" font-size="14.00" fill="#c6c5fe">src/enemy.js</text>
</g>
<!-- src/gameManager.js&#45;&gt;src/enemy.js -->
<g id="edge18" class="edge">
<title>src/gameManager.js&#45;&gt;src/enemy.js</title>
<path fill="none" stroke="#757575" d="M175.63,-751.12C195.04,-765.83 230.95,-790.69 266,-802.5 358.58,-833.69 386.8,-826.5 484.5,-826.5 484.5,-826.5 484.5,-826.5 658.5,-826.5 765.2,-826.5 888.82,-844.56 958.42,-856.41"/>
<polygon fill="#757575" stroke="#757575" points="957.84,-859.87 968.29,-858.11 959.03,-852.97 957.84,-859.87"/>
</g>
<!-- src/levelCompleteScreen.js -->
<g id="node6" class="node">
<title>src/levelCompleteScreen.js</title>
<path fill="none" stroke="#cfffac" d="M1906.33,-1077C1906.33,-1077 1740.67,-1077 1740.67,-1077 1736.83,-1077 1733,-1073.17 1733,-1069.33 1733,-1069.33 1733,-1061.67 1733,-1061.67 1733,-1057.83 1736.83,-1054 1740.67,-1054 1740.67,-1054 1906.33,-1054 1906.33,-1054 1910.17,-1054 1914,-1057.83 1914,-1061.67 1914,-1061.67 1914,-1069.33 1914,-1069.33 1914,-1073.17 1910.17,-1077 1906.33,-1077"/>
<text text-anchor="middle" x="1823.5" y="-1061.8" font-family="Arial" font-size="14.00" fill="#cfffac">src/levelCompleteScreen.js</text>
</g>
<!-- src/gameManager.js&#45;&gt;src/levelCompleteScreen.js -->
<g id="edge21" class="edge">
<title>src/gameManager.js&#45;&gt;src/levelCompleteScreen.js</title>
<path fill="none" stroke="#757575" d="M161.23,-751.05C162.8,-796.29 174.77,-963.09 266,-1047.5 339.59,-1115.58 384.25,-1103.5 484.5,-1103.5 484.5,-1103.5 484.5,-1103.5 1301,-1103.5 1447.93,-1103.5 1617.54,-1088.31 1722.41,-1077.14"/>
<polygon fill="#757575" stroke="#757575" points="1723.1,-1080.58 1732.67,-1076.03 1722.35,-1073.62 1723.1,-1080.58"/>
</g>
<!-- src/ammo.js -->
<g id="node9" class="node">
<title>src/ammo.js</title>
<path fill="none" stroke="#c6c5fe" d="M1337.83,-456C1337.83,-456 1262.17,-456 1262.17,-456 1258.33,-456 1254.5,-452.17 1254.5,-448.33 1254.5,-448.33 1254.5,-440.67 1254.5,-440.67 1254.5,-436.83 1258.33,-433 1262.17,-433 1262.17,-433 1337.83,-433 1337.83,-433 1341.67,-433 1345.5,-436.83 1345.5,-440.67 1345.5,-440.67 1345.5,-448.33 1345.5,-448.33 1345.5,-452.17 1341.67,-456 1337.83,-456"/>
<text text-anchor="middle" x="1300" y="-440.8" font-family="Arial" font-size="14.00" fill="#c6c5fe">src/ammo.js</text>
</g>
<!-- src/gameManager.js&#45;&gt;src/ammo.js -->
<g id="edge16" class="edge">
<title>src/gameManager.js&#45;&gt;src/ammo.js</title>
<path fill="none" stroke="#757575" d="M167.5,-727.86C196.85,-676.96 322.73,-476.5 484.5,-476.5 484.5,-476.5 484.5,-476.5 658.5,-476.5 763.51,-476.5 789.16,-463.41 894,-457.5 1019.2,-450.44 1166.39,-446.91 1244.26,-445.42"/>
<polygon fill="#757575" stroke="#757575" points="1244.39,-448.91 1254.32,-445.23 1244.26,-441.92 1244.39,-448.91"/>
</g>
<!-- src/background.js -->
<g id="node11" class="node">
<title>src/background.js</title>
<path fill="none" stroke="#cfffac" d="M1634.33,-763C1634.33,-763 1527.67,-763 1527.67,-763 1523.83,-763 1520,-759.17 1520,-755.33 1520,-755.33 1520,-747.67 1520,-747.67 1520,-743.83 1523.83,-740 1527.67,-740 1527.67,-740 1634.33,-740 1634.33,-740 1638.17,-740 1642,-743.83 1642,-747.67 1642,-747.67 1642,-755.33 1642,-755.33 1642,-759.17 1638.17,-763 1634.33,-763"/>
<text text-anchor="middle" x="1581" y="-747.8" font-family="Arial" font-size="14.00" fill="#cfffac">src/background.js</text>
</g>
<!-- src/gameManager.js&#45;&gt;src/background.js -->
<g id="edge17" class="edge">
<title>src/gameManager.js&#45;&gt;src/background.js</title>
<path fill="none" stroke="#757575" d="M207.54,-751.05C270.09,-765.54 384.95,-788.5 484.5,-788.5 484.5,-788.5 484.5,-788.5 1015.5,-788.5 1193.9,-788.5 1403.33,-769.87 1509.94,-759.05"/>
<polygon fill="#757575" stroke="#757575" points="1510.34,-762.53 1519.93,-758.03 1509.63,-755.57 1510.34,-762.53"/>
</g>
<!-- src/gameState.js -->
<g id="node15" class="node">
<title>src/gameState.js</title>
<path fill="none" stroke="#cfffac" d="M1874.83,-610C1874.83,-610 1772.17,-610 1772.17,-610 1768.33,-610 1764.5,-606.17 1764.5,-602.33 1764.5,-602.33 1764.5,-594.67 1764.5,-594.67 1764.5,-590.83 1768.33,-587 1772.17,-587 1772.17,-587 1874.83,-587 1874.83,-587 1878.67,-587 1882.5,-590.83 1882.5,-594.67 1882.5,-594.67 1882.5,-602.33 1882.5,-602.33 1882.5,-606.17 1878.67,-610 1874.83,-610"/>
<text text-anchor="middle" x="1823.5" y="-594.8" font-family="Arial" font-size="14.00" fill="#cfffac">src/gameState.js</text>
</g>
<!-- src/gameManager.js&#45;&gt;src/gameState.js -->
<g id="edge19" class="edge">
<title>src/gameManager.js&#45;&gt;src/gameState.js</title>
<path fill="none" stroke="#757575" d="M168.06,-751.22C198.79,-800.65 326.57,-989.5 484.5,-989.5 484.5,-989.5 484.5,-989.5 1301,-989.5 1389.11,-989.5 1629.64,-1026.31 1697,-969.5 1753.05,-922.23 1710.53,-878.3 1733,-808.5 1755.98,-737.12 1793.88,-656.54 1812.09,-619.35"/>
<polygon fill="#757575" stroke="#757575" points="1815.39,-620.57 1816.68,-610.05 1809.12,-617.47 1815.39,-620.57"/>
</g>
<!-- src/keyboard.js -->
<g id="node16" class="node">
<title>src/keyboard.js</title>
<path fill="none" stroke="#c6c5fe" d="M531.33,-329C531.33,-329 439.67,-329 439.67,-329 435.83,-329 432,-325.17 432,-321.33 432,-321.33 432,-313.67 432,-313.67 432,-309.83 435.83,-306 439.67,-306 439.67,-306 531.33,-306 531.33,-306 535.17,-306 539,-309.83 539,-313.67 539,-313.67 539,-321.33 539,-321.33 539,-325.17 535.17,-329 531.33,-329"/>
<text text-anchor="middle" x="485.5" y="-313.8" font-family="Arial" font-size="14.00" fill="#c6c5fe">src/keyboard.js</text>
</g>
<!-- src/gameManager.js&#45;&gt;src/keyboard.js -->
<g id="edge20" class="edge">
<title>src/gameManager.js&#45;&gt;src/keyboard.js</title>
<path fill="none" stroke="#757575" d="M162.77,-727.97C169.47,-687.47 196.54,-549.52 266,-462.5 315.66,-400.29 399.41,-355.42 447.52,-333.22"/>
<polygon fill="#757575" stroke="#757575" points="448.98,-336.4 456.64,-329.09 446.09,-330.02 448.98,-336.4"/>
</g>
<!-- src/music.js -->
<g id="node17" class="node">
<title>src/music.js</title>
<path fill="none" stroke="#cfffac" d="M1859.83,-146C1859.83,-146 1787.17,-146 1787.17,-146 1783.33,-146 1779.5,-142.17 1779.5,-138.33 1779.5,-138.33 1779.5,-130.67 1779.5,-130.67 1779.5,-126.83 1783.33,-123 1787.17,-123 1787.17,-123 1859.83,-123 1859.83,-123 1863.67,-123 1867.5,-126.83 1867.5,-130.67 1867.5,-130.67 1867.5,-138.33 1867.5,-138.33 1867.5,-142.17 1863.67,-146 1859.83,-146"/>
<text text-anchor="middle" x="1823.5" y="-130.8" font-family="Arial" font-size="14.00" fill="#cfffac">src/music.js</text>
</g>
<!-- src/gameManager.js&#45;&gt;src/music.js -->
<g id="edge22" class="edge">
<title>src/gameManager.js&#45;&gt;src/music.js</title>
<path fill="none" stroke="#757575" d="M160.91,-727.85C160.88,-637.44 172.67,-51.5 484.5,-51.5 484.5,-51.5 484.5,-51.5 1301,-51.5 1477.94,-51.5 1524.06,-55.09 1697,-92.5 1727,-98.99 1759.87,-110.14 1784.44,-119.33"/>
<polygon fill="#757575" stroke="#757575" points="1783.5,-122.72 1794.09,-122.99 1785.99,-116.17 1783.5,-122.72"/>
</g>
<!-- src/player/Player.js -->
<g id="node18" class="node">
<title>src/player/Player.js</title>
<path fill="none" stroke="#c6c5fe" d="M388.33,-253C388.33,-253 273.67,-253 273.67,-253 269.83,-253 266,-249.17 266,-245.33 266,-245.33 266,-237.67 266,-237.67 266,-233.83 269.83,-230 273.67,-230 273.67,-230 388.33,-230 388.33,-230 392.17,-230 396,-233.83 396,-237.67 396,-237.67 396,-245.33 396,-245.33 396,-249.17 392.17,-253 388.33,-253"/>
<text text-anchor="middle" x="331" y="-237.8" font-family="Arial" font-size="14.00" fill="#c6c5fe">src/player/Player.js</text>
</g>
<!-- src/gameManager.js&#45;&gt;src/player/Player.js -->
<g id="edge23" class="edge">
<title>src/gameManager.js&#45;&gt;src/player/Player.js</title>
<path fill="none" stroke="#757575" d="M163.32,-727.83C172.82,-680.97 210.88,-502.41 266,-363.5 280.73,-326.37 303.48,-285.77 317.51,-262.02"/>
<polygon fill="#757575" stroke="#757575" points="320.65,-263.6 322.77,-253.22 314.64,-260.01 320.65,-263.6"/>
</g>
<!-- src/rendering/Helpers.js -->
<g id="node19" class="node">
<title>src/rendering/Helpers.js</title>
<path fill="none" stroke="#cfffac" d="M1895.33,-841C1895.33,-841 1751.67,-841 1751.67,-841 1747.83,-841 1744,-837.17 1744,-833.33 1744,-833.33 1744,-825.67 1744,-825.67 1744,-821.83 1747.83,-818 1751.67,-818 1751.67,-818 1895.33,-818 1895.33,-818 1899.17,-818 1903,-821.83 1903,-825.67 1903,-825.67 1903,-833.33 1903,-833.33 1903,-837.17 1899.17,-841 1895.33,-841"/>
<text text-anchor="middle" x="1823.5" y="-825.8" font-family="Arial" font-size="14.00" fill="#cfffac">src/rendering/Helpers.js</text>
</g>
<!-- src/gameManager.js&#45;&gt;src/rendering/Helpers.js -->
<g id="edge24" class="edge">
<title>src/gameManager.js&#45;&gt;src/rendering/Helpers.js</title>
<path fill="none" stroke="#757575" d="M162.04,-751.02C166.35,-791.96 186.55,-931.77 266,-1003.5 340.93,-1071.15 383.56,-1065.5 484.5,-1065.5 484.5,-1065.5 484.5,-1065.5 1015.5,-1065.5 1167.57,-1065.5 1564.91,-1078.84 1697,-1003.5 1758.81,-968.25 1798.26,-888.71 1814.3,-850.62"/>
<polygon fill="#757575" stroke="#757575" points="1817.67,-851.62 1818.2,-841.04 1811.18,-848.98 1817.67,-851.62"/>
</g>
<!-- src/step.js -->
<g id="node20" class="node">
<title>src/step.js</title>
<path fill="none" stroke="#c6c5fe" d="M847.83,-644C847.83,-644 786.17,-644 786.17,-644 782.33,-644 778.5,-640.17 778.5,-636.33 778.5,-636.33 778.5,-628.67 778.5,-628.67 778.5,-624.83 782.33,-621 786.17,-621 786.17,-621 847.83,-621 847.83,-621 851.67,-621 855.5,-624.83 855.5,-628.67 855.5,-628.67 855.5,-636.33 855.5,-636.33 855.5,-640.17 851.67,-644 847.83,-644"/>
<text text-anchor="middle" x="817" y="-628.8" font-family="Arial" font-size="14.00" fill="#c6c5fe">src/step.js</text>
</g>
<!-- src/gameManager.js&#45;&gt;src/step.js -->
<g id="edge25" class="edge">
<title>src/gameManager.js&#45;&gt;src/step.js</title>
<path fill="none" stroke="#757575" d="M230.17,-728.2C363.62,-706.4 653.58,-659.03 768.09,-640.33"/>
<polygon fill="#757575" stroke="#757575" points="768.99,-643.73 778.29,-638.66 767.86,-636.82 768.99,-643.73"/>
</g>
<!-- src/startScreen.js&#45;&gt;src/music.js -->
<g id="edge48" class="edge">
<title>src/startScreen.js&#45;&gt;src/music.js</title>
<path fill="none" stroke="#757575" d="M391.51,-11.79C456.59,-12.09 563.97,-12.5 656.5,-12.5 656.5,-12.5 656.5,-12.5 1301,-12.5 1477.35,-12.5 1531.99,24.71 1697,-37.5 1741.26,-54.18 1782.62,-92.14 1805.05,-115.32"/>
<polygon fill="#757575" stroke="#757575" points="1802.75,-117.98 1812.17,-122.84 1807.84,-113.17 1802.75,-117.98"/>
</g>
<!-- src/Boss.js&#45;&gt;src/enemy.js -->
<g id="edge3" class="edge">
<title>src/Boss.js&#45;&gt;src/enemy.js</title>
<path fill="none" stroke="#757575" d="M858.03,-866.5C886.96,-866.5 926.4,-866.5 958.32,-866.5"/>
<polygon fill="#757575" stroke="#757575" points="958.39,-870 968.39,-866.5 958.39,-863 958.39,-870"/>
</g>
<!-- src/Boss.js&#45;&gt;src/levelCompleteScreen.js -->
<g id="edge4" class="edge">
<title>src/Boss.js&#45;&gt;src/levelCompleteScreen.js</title>
<path fill="none" stroke="#757575" d="M830.34,-878.22C844.53,-890.99 869.09,-911 894,-921.5 1177.7,-1041.12 1547.77,-1062.63 1722.65,-1065.67"/>
<polygon fill="#757575" stroke="#757575" points="1722.81,-1069.18 1732.87,-1065.83 1722.92,-1062.18 1722.81,-1069.18"/>
</g>
<!-- src/weapons/enemyRocketAtack.js -->
<g id="node7" class="node">
<title>src/weapons/enemyRocketAtack.js</title>
<path fill="none" stroke="#ff6c60" d="M1405.83,-961C1405.83,-961 1194.17,-961 1194.17,-961 1190.33,-961 1186.5,-957.17 1186.5,-953.33 1186.5,-953.33 1186.5,-945.67 1186.5,-945.67 1186.5,-941.83 1190.33,-938 1194.17,-938 1194.17,-938 1405.83,-938 1405.83,-938 1409.67,-938 1413.5,-941.83 1413.5,-945.67 1413.5,-945.67 1413.5,-953.33 1413.5,-953.33 1413.5,-957.17 1409.67,-961 1405.83,-961"/>
<text text-anchor="middle" x="1300" y="-945.8" font-family="Arial" font-size="14.00" fill="#ff6c60">src/weapons/enemyRocketAtack.js</text>
</g>
<!-- src/Boss.js&#45;&gt;src/weapons/enemyRocketAtack.js -->
<g id="edge5" class="edge">
<title>src/Boss.js&#45;&gt;src/weapons/enemyRocketAtack.js</title>
<path fill="none" stroke="#757575" d="M858.05,-877.86C869.59,-880.92 882.25,-884.05 894,-886.5 996.47,-907.89 1114.92,-925.5 1197.14,-936.61"/>
<polygon fill="#757575" stroke="#757575" points="1196.86,-940.11 1207.23,-937.97 1197.79,-933.17 1196.86,-940.11"/>
</g>
<!-- src/weapons/gatling.js -->
<g id="node8" class="node">
<title>src/weapons/gatling.js</title>
<path fill="none" stroke="#c6c5fe" d="M1647.83,-551C1647.83,-551 1514.17,-551 1514.17,-551 1510.33,-551 1506.5,-547.17 1506.5,-543.33 1506.5,-543.33 1506.5,-535.67 1506.5,-535.67 1506.5,-531.83 1510.33,-528 1514.17,-528 1514.17,-528 1647.83,-528 1647.83,-528 1651.67,-528 1655.5,-531.83 1655.5,-535.67 1655.5,-535.67 1655.5,-543.33 1655.5,-543.33 1655.5,-547.17 1651.67,-551 1647.83,-551"/>
<text text-anchor="middle" x="1581" y="-535.8" font-family="Arial" font-size="14.00" fill="#c6c5fe">src/weapons/gatling.js</text>
</g>
<!-- src/Boss.js&#45;&gt;src/weapons/gatling.js -->
<g id="edge6" class="edge">
<title>src/Boss.js&#45;&gt;src/weapons/gatling.js</title>
<path fill="none" stroke="#757575" d="M846.78,-854.9C905.1,-830.55 1039.73,-769.87 1135,-692.5 1154.08,-677 1150.17,-663.56 1171,-650.5 1271.47,-587.52 1314.64,-613.85 1429,-582.5 1463.01,-573.18 1501.21,-562.29 1530.68,-553.81"/>
<polygon fill="#757575" stroke="#757575" points="1531.68,-557.16 1540.32,-551.03 1529.74,-550.44 1531.68,-557.16"/>
</g>
<!-- src/enemy.js&#45;&gt;src/weapons/enemyRocketAtack.js -->
<g id="edge11" class="edge">
<title>src/enemy.js&#45;&gt;src/weapons/enemyRocketAtack.js</title>
<path fill="none" stroke="#757575" d="M1043.17,-878.09C1073.95,-890.63 1125.35,-910.58 1171,-923.5 1187.51,-928.17 1205.44,-932.35 1222.5,-935.93"/>
<polygon fill="#757575" stroke="#757575" points="1221.94,-939.38 1232.44,-937.96 1223.34,-932.53 1221.94,-939.38"/>
</g>
<!-- src/enemy.js&#45;&gt;src/weapons/gatling.js -->
<g id="edge12" class="edge">
<title>src/enemy.js&#45;&gt;src/weapons/gatling.js</title>
<path fill="none" stroke="#757575" d="M1060.54,-862.38C1083.78,-858.88 1112,-852.42 1135,-840.5 1154.27,-830.51 1153.65,-820.54 1171,-807.5 1278.32,-726.88 1338.38,-749.52 1429,-650.5 1453.42,-623.81 1437.71,-601.24 1465,-577.5 1476.71,-567.31 1491.23,-559.84 1505.97,-554.36"/>
<polygon fill="#757575" stroke="#757575" points="1507.33,-557.6 1515.66,-551.05 1505.06,-550.98 1507.33,-557.6"/>
</g>
<!-- src/enemyManoeuvre.js -->
<g id="node12" class="node">
<title>src/enemyManoeuvre.js</title>
<path fill="none" stroke="#c6c5fe" d="M1372.83,-840C1372.83,-840 1227.17,-840 1227.17,-840 1223.33,-840 1219.5,-836.17 1219.5,-832.33 1219.5,-832.33 1219.5,-824.67 1219.5,-824.67 1219.5,-820.83 1223.33,-817 1227.17,-817 1227.17,-817 1372.83,-817 1372.83,-817 1376.67,-817 1380.5,-820.83 1380.5,-824.67 1380.5,-824.67 1380.5,-832.33 1380.5,-832.33 1380.5,-836.17 1376.67,-840 1372.83,-840"/>
<text text-anchor="middle" x="1300" y="-824.8" font-family="Arial" font-size="14.00" fill="#c6c5fe">src/enemyManoeuvre.js</text>
</g>
<!-- src/enemy.js&#45;&gt;src/enemyManoeuvre.js -->
<g id="edge9" class="edge">
<title>src/enemy.js&#45;&gt;src/enemyManoeuvre.js</title>
<path fill="none" stroke="#757575" d="M1060.73,-860.44C1100.59,-855.09 1159.83,-847.15 1209.26,-840.53"/>
<polygon fill="#757575" stroke="#757575" points="1209.89,-843.98 1219.33,-839.18 1208.96,-837.04 1209.89,-843.98"/>
</g>
<!-- src/rendering/EnemyCollisionsChecks.js -->
<g id="node13" class="node">
<title>src/rendering/EnemyCollisionsChecks.js</title>
<path fill="none" stroke="#c6c5fe" d="M1421.33,-881C1421.33,-881 1178.67,-881 1178.67,-881 1174.83,-881 1171,-877.17 1171,-873.33 1171,-873.33 1171,-865.67 1171,-865.67 1171,-861.83 1174.83,-858 1178.67,-858 1178.67,-858 1421.33,-858 1421.33,-858 1425.17,-858 1429,-861.83 1429,-865.67 1429,-865.67 1429,-873.33 1429,-873.33 1429,-877.17 1425.17,-881 1421.33,-881"/>
<text text-anchor="middle" x="1300" y="-865.8" font-family="Arial" font-size="14.00" fill="#c6c5fe">src/rendering/EnemyCollisionsChecks.js</text>
</g>
<!-- src/enemy.js&#45;&gt;src/rendering/EnemyCollisionsChecks.js -->
<g id="edge10" class="edge">
<title>src/enemy.js&#45;&gt;src/rendering/EnemyCollisionsChecks.js</title>
<path fill="none" stroke="#757575" d="M1060.73,-866.98C1088.1,-867.27 1124.6,-867.65 1160.8,-868.04"/>
<polygon fill="#757575" stroke="#757575" points="1160.95,-871.54 1170.99,-868.15 1161.03,-864.54 1160.95,-871.54"/>
</g>
<!-- src/weapons/groundEnemyAttack.js -->
<g id="node14" class="node">
<title>src/weapons/groundEnemyAttack.js</title>
<path fill="none" stroke="#ff6c60" d="M1689.33,-961C1689.33,-961 1472.67,-961 1472.67,-961 1468.83,-961 1465,-957.17 1465,-953.33 1465,-953.33 1465,-945.67 1465,-945.67 1465,-941.83 1468.83,-938 1472.67,-938 1472.67,-938 1689.33,-938 1689.33,-938 1693.17,-938 1697,-941.83 1697,-945.67 1697,-945.67 1697,-953.33 1697,-953.33 1697,-957.17 1693.17,-961 1689.33,-961"/>
<text text-anchor="middle" x="1581" y="-945.8" font-family="Arial" font-size="14.00" fill="#ff6c60">src/weapons/groundEnemyAttack.js</text>
</g>
<!-- src/enemy.js&#45;&gt;src/weapons/groundEnemyAttack.js -->
<g id="edge13" class="edge">
<title>src/enemy.js&#45;&gt;src/weapons/groundEnemyAttack.js</title>
<path fill="none" stroke="#757575" d="M1060.71,-871.91C1083.1,-874.76 1110.52,-878.49 1135,-882.5 1151.08,-885.14 1154.93,-886.76 1171,-889.5 1230.22,-899.6 1386.92,-922.15 1488.26,-936.55"/>
<polygon fill="#757575" stroke="#757575" points="1487.8,-940.02 1498.2,-937.96 1488.79,-933.09 1487.8,-940.02"/>
</g>
<!-- src/weapons/enemyRocketAtack.js&#45;&gt;src/weapons/groundEnemyAttack.js -->
<g id="edge59" class="edge">
<title>src/weapons/enemyRocketAtack.js&#45;&gt;src/weapons/groundEnemyAttack.js</title>
<path fill="none" stroke="#757575" d="M1413.68,-942.86C1427.05,-942.75 1440.77,-942.72 1454.32,-942.78"/>
<polygon fill="#757575" stroke="#757575" points="1454.61,-946.28 1464.63,-942.84 1454.65,-939.28 1454.61,-946.28"/>
</g>
<!-- src/weapons/gatling.js&#45;&gt;src/gameState.js -->
<g id="edge60" class="edge">
<title>src/weapons/gatling.js&#45;&gt;src/gameState.js</title>
<path fill="none" stroke="#757575" d="M1628.94,-551.02C1668.05,-560.61 1723.88,-574.31 1765.54,-584.53"/>
<polygon fill="#757575" stroke="#757575" points="1764.72,-587.93 1775.27,-586.91 1766.39,-581.13 1764.72,-587.93"/>
</g>
<!-- src/weapons/gatling.js&#45;&gt;src/music.js -->
<g id="edge61" class="edge">
<title>src/weapons/gatling.js&#45;&gt;src/music.js</title>
<path fill="none" stroke="#757575" d="M1622.47,-527.99C1647,-519.14 1677.27,-504.62 1697,-482.5 1785.76,-382.99 1813.1,-215.99 1820.26,-156.43"/>
<polygon fill="#757575" stroke="#757575" points="1823.76,-156.63 1821.4,-146.3 1816.8,-155.84 1823.76,-156.63"/>
</g>
<!-- src/ammo.js&#45;&gt;src/weapons/gatling.js -->
<g id="edge7" class="edge">
<title>src/ammo.js&#45;&gt;src/weapons/gatling.js</title>
<path fill="none" stroke="#757575" d="M1334.93,-456.05C1385.48,-473.27 1480.58,-505.65 1536.28,-524.61"/>
<polygon fill="#757575" stroke="#757575" points="1535.27,-527.97 1545.87,-527.88 1537.53,-521.34 1535.27,-527.97"/>
</g>
<!-- src/weapons/rocket.js -->
<g id="node10" class="node">
<title>src/weapons/rocket.js</title>
<path fill="none" stroke="#c6c5fe" d="M1646.33,-474C1646.33,-474 1515.67,-474 1515.67,-474 1511.83,-474 1508,-470.17 1508,-466.33 1508,-466.33 1508,-458.67 1508,-458.67 1508,-454.83 1511.83,-451 1515.67,-451 1515.67,-451 1646.33,-451 1646.33,-451 1650.17,-451 1654,-454.83 1654,-458.67 1654,-458.67 1654,-466.33 1654,-466.33 1654,-470.17 1650.17,-474 1646.33,-474"/>
<text text-anchor="middle" x="1581" y="-458.8" font-family="Arial" font-size="14.00" fill="#c6c5fe">src/weapons/rocket.js</text>
</g>
<!-- src/ammo.js&#45;&gt;src/weapons/rocket.js -->
<g id="edge8" class="edge">
<title>src/ammo.js&#45;&gt;src/weapons/rocket.js</title>
<path fill="none" stroke="#757575" d="M1345.52,-447.37C1386.39,-450.01 1447.99,-453.98 1497.79,-457.2"/>
<polygon fill="#757575" stroke="#757575" points="1497.71,-460.7 1507.91,-457.85 1498.16,-453.71 1497.71,-460.7"/>
</g>
<!-- src/weapons/rocket.js&#45;&gt;src/rendering/Helpers.js -->
<g id="edge64" class="edge">
<title>src/weapons/rocket.js&#45;&gt;src/rendering/Helpers.js</title>
<path fill="none" stroke="#757575" d="M1623.58,-474.03C1647.91,-482.7 1677.57,-496.85 1697,-518.5 1728.56,-553.65 1715.77,-574.52 1733,-618.5 1760.46,-688.6 1796.22,-770.34 1813.01,-808.22"/>
<polygon fill="#757575" stroke="#757575" points="1809.96,-809.98 1817.22,-817.7 1816.36,-807.14 1809.96,-809.98"/>
</g>
<!-- src/enemyManoeuvre.js&#45;&gt;src/background.js -->
<g id="edge14" class="edge">
<title>src/enemyManoeuvre.js&#45;&gt;src/background.js</title>
<path fill="none" stroke="#757575" d="M1380.71,-817.53C1397.06,-813.84 1413.88,-808.96 1429,-802.5 1446.91,-794.85 1447.17,-785.35 1465,-777.5 1479.06,-771.31 1494.76,-766.51 1509.94,-762.83"/>
<polygon fill="#757575" stroke="#757575" points="1510.84,-766.21 1519.81,-760.56 1509.28,-759.39 1510.84,-766.21"/>
</g>
<!-- src/rendering/EnemyCollisionsChecks.js&#45;&gt;src/weapons/gatling.js -->
<g id="edge46" class="edge">
<title>src/rendering/EnemyCollisionsChecks.js&#45;&gt;src/weapons/gatling.js</title>
<path fill="none" stroke="#757575" d="M1417.68,-857.85C1421.75,-855.16 1425.55,-852.06 1429,-848.5 1513.59,-761.28 1387.48,-671.06 1465,-577.5 1473.44,-567.31 1484.69,-559.83 1496.85,-554.35"/>
<polygon fill="#757575" stroke="#757575" points="1498.33,-557.52 1506.29,-550.53 1495.71,-551.03 1498.33,-557.52"/>
</g>
<!-- src/rendering/EnemyCollisionsChecks.js&#45;&gt;src/weapons/rocket.js -->
<g id="edge47" class="edge">
<title>src/rendering/EnemyCollisionsChecks.js&#45;&gt;src/weapons/rocket.js</title>
<path fill="none" stroke="#757575" d="M1417.79,-857.95C1421.83,-855.23 1425.59,-852.1 1429,-848.5 1479.74,-794.95 1422.55,-578.83 1465,-518.5 1478.69,-499.04 1501.07,-486.06 1522.46,-477.55"/>
<polygon fill="#757575" stroke="#757575" points="1523.71,-480.82 1531.86,-474.05 1521.27,-474.25 1523.71,-480.82"/>
</g>
<!-- src/rendering/EnemyCollisionsChecks.js&#45;&gt;src/gameState.js -->
<g id="edge42" class="edge">
<title>src/rendering/EnemyCollisionsChecks.js&#45;&gt;src/gameState.js</title>
<path fill="none" stroke="#757575" d="M1393.56,-881.02C1428.53,-885.33 1460.96,-889.25 1465,-889.5 1567.92,-895.75 1610.85,-946.16 1697,-889.5 1698.53,-888.49 1784.86,-686.63 1813.43,-619.74"/>
<polygon fill="#757575" stroke="#757575" points="1816.79,-620.79 1817.5,-610.22 1810.35,-618.04 1816.79,-620.79"/>
</g>
<!-- src/rendering/EnemyCollisionsChecks.js&#45;&gt;src/music.js -->
<g id="edge43" class="edge">
<title>src/rendering/EnemyCollisionsChecks.js&#45;&gt;src/music.js</title>
<path fill="none" stroke="#757575" d="M1392.36,-857.98C1404.82,-855.4 1417.32,-852.28 1429,-848.5 1446.02,-842.99 1448.24,-836.74 1465,-830.5 1564.71,-793.39 1624.27,-849.16 1697,-771.5 1756.94,-707.49 1716.32,-663.59 1733,-577.5 1764.4,-415.45 1804.63,-220.58 1817.98,-156.26"/>
<polygon fill="#757575" stroke="#757575" points="1821.48,-156.63 1820.08,-146.12 1814.62,-155.2 1821.48,-156.63"/>
</g>
<!-- src/rendering/EnemyCollisionsChecks.js&#45;&gt;src/rendering/Helpers.js -->
<g id="edge45" class="edge">
<title>src/rendering/EnemyCollisionsChecks.js&#45;&gt;src/rendering/Helpers.js</title>
<path fill="none" stroke="#757575" d="M1381.37,-858C1407.94,-854.52 1437.7,-850.97 1465,-848.5 1556.49,-840.22 1661.5,-835.17 1733.92,-832.38"/>
<polygon fill="#757575" stroke="#757575" points="1734.06,-835.87 1743.92,-832 1733.8,-828.88 1734.06,-835.87"/>
</g>
<!-- src/gameOver.js -->
<g id="node22" class="node">
<title>src/gameOver.js</title>
<path fill="none" stroke="#c6c5fe" d="M1631.33,-610C1631.33,-610 1530.67,-610 1530.67,-610 1526.83,-610 1523,-606.17 1523,-602.33 1523,-602.33 1523,-594.67 1523,-594.67 1523,-590.83 1526.83,-587 1530.67,-587 1530.67,-587 1631.33,-587 1631.33,-587 1635.17,-587 1639,-590.83 1639,-594.67 1639,-594.67 1639,-602.33 1639,-602.33 1639,-606.17 1635.17,-610 1631.33,-610"/>
<text text-anchor="middle" x="1581" y="-594.8" font-family="Arial" font-size="14.00" fill="#c6c5fe">src/gameOver.js</text>
</g>
<!-- src/rendering/EnemyCollisionsChecks.js&#45;&gt;src/gameOver.js -->
<g id="edge41" class="edge">
<title>src/rendering/EnemyCollisionsChecks.js&#45;&gt;src/gameOver.js</title>
<path fill="none" stroke="#757575" d="M1415.52,-857.95C1420.32,-855.26 1424.85,-852.13 1429,-848.5 1470.27,-812.4 1438.41,-778.45 1465,-730.5 1490.27,-684.93 1533.27,-641.19 1558.92,-617.27"/>
<polygon fill="#757575" stroke="#757575" points="1561.6,-619.57 1566.6,-610.23 1556.86,-614.41 1561.6,-619.57"/>
</g>
<!-- src/rendering/Explosion.js -->
<g id="node26" class="node">
<title>src/rendering/Explosion.js</title>
<path fill="none" stroke="#cfffac" d="M1658.83,-881C1658.83,-881 1503.17,-881 1503.17,-881 1499.33,-881 1495.5,-877.17 1495.5,-873.33 1495.5,-873.33 1495.5,-865.67 1495.5,-865.67 1495.5,-861.83 1499.33,-858 1503.17,-858 1503.17,-858 1658.83,-858 1658.83,-858 1662.67,-858 1666.5,-861.83 1666.5,-865.67 1666.5,-865.67 1666.5,-873.33 1666.5,-873.33 1666.5,-877.17 1662.67,-881 1658.83,-881"/>
<text text-anchor="middle" x="1581" y="-865.8" font-family="Arial" font-size="14.00" fill="#cfffac">src/rendering/Explosion.js</text>
</g>
<!-- src/rendering/EnemyCollisionsChecks.js&#45;&gt;src/rendering/Explosion.js -->
<g id="edge44" class="edge">
<title>src/rendering/EnemyCollisionsChecks.js&#45;&gt;src/rendering/Explosion.js</title>
<path fill="none" stroke="#757575" d="M1429.07,-869.5C1447.96,-869.5 1467.13,-869.5 1485.18,-869.5"/>
<polygon fill="#757575" stroke="#757575" points="1485.38,-873 1495.38,-869.5 1485.38,-866 1485.38,-873"/>
</g>
<!-- src/weapons/groundEnemyAttack.js&#45;&gt;src/weapons/enemyRocketAtack.js -->
<g id="edge63" class="edge">
<title>src/weapons/groundEnemyAttack.js&#45;&gt;src/weapons/enemyRocketAtack.js</title>
<path fill="none" stroke="#757575" d="M1464.63,-956.16C1451.21,-956.26 1437.48,-956.28 1423.96,-956.21"/>
<polygon fill="#757575" stroke="#757575" points="1423.7,-952.71 1413.68,-956.14 1423.65,-959.71 1423.7,-952.71"/>
</g>
<!-- src/weapons/groundEnemyAttack.js&#45;&gt;src/gameState.js -->
<g id="edge62" class="edge">
<title>src/weapons/groundEnemyAttack.js&#45;&gt;src/gameState.js</title>
<path fill="none" stroke="#757575" d="M1674.64,-937.97C1682.81,-934.27 1690.45,-929.54 1697,-923.5 1736.37,-887.19 1714.48,-858.75 1733,-808.5 1758.93,-738.14 1795.42,-657.07 1812.7,-619.56"/>
<polygon fill="#757575" stroke="#757575" points="1816.02,-620.72 1817.04,-610.18 1809.66,-617.78 1816.02,-620.72"/>
</g>
<!-- src/keyboard.js&#45;&gt;src/weapons/rocket.js -->
<g id="edge34" class="edge">
<title>src/keyboard.js&#45;&gt;src/weapons/rocket.js</title>
<path fill="none" stroke="#757575" d="M539.05,-314.26C683.96,-306.84 1100.27,-295.63 1429,-386.5 1475.71,-399.41 1524.99,-427.29 1554.09,-445.45"/>
<polygon fill="#757575" stroke="#757575" points="1552.48,-448.57 1562.8,-450.98 1556.23,-442.66 1552.48,-448.57"/>
</g>
<!-- src/keyboard.js&#45;&gt;src/gameState.js -->
<g id="edge31" class="edge">
<title>src/keyboard.js&#45;&gt;src/gameState.js</title>
<path fill="none" stroke="#757575" d="M539.26,-309.16C551,-307.64 563.4,-306.28 575,-305.5 648.17,-300.56 666.67,-305.19 740,-305.5 1165.57,-307.3 1344.52,-99.02 1697,-337.5 1781.38,-394.59 1810.81,-524.83 1819.41,-576.64"/>
<polygon fill="#757575" stroke="#757575" points="1815.99,-577.38 1820.98,-586.72 1822.9,-576.3 1815.99,-577.38"/>
</g>
<!-- src/keyboard.js&#45;&gt;src/music.js -->
<g id="edge32" class="edge">
<title>src/keyboard.js&#45;&gt;src/music.js</title>
<path fill="none" stroke="#757575" d="M502.66,-305.86C519.81,-294.03 548.11,-276 575,-265.5 710.13,-212.76 750.36,-216.72 894,-196.5 1224.49,-149.98 1626.21,-138.17 1769,-135.34"/>
<polygon fill="#757575" stroke="#757575" points="1769.3,-138.83 1779.23,-135.14 1769.16,-131.83 1769.3,-138.83"/>
</g>
<!-- src/gameMenuActions.js -->
<g id="node21" class="node">
<title>src/gameMenuActions.js</title>
<path fill="none" stroke="#c6c5fe" d="M732.33,-410C732.33,-410 582.67,-410 582.67,-410 578.83,-410 575,-406.17 575,-402.33 575,-402.33 575,-394.67 575,-394.67 575,-390.83 578.83,-387 582.67,-387 582.67,-387 732.33,-387 732.33,-387 736.17,-387 740,-390.83 740,-394.67 740,-394.67 740,-402.33 740,-402.33 740,-406.17 736.17,-410 732.33,-410"/>
<text text-anchor="middle" x="657.5" y="-394.8" font-family="Arial" font-size="14.00" fill="#c6c5fe">src/gameMenuActions.js</text>
</g>
<!-- src/keyboard.js&#45;&gt;src/gameMenuActions.js -->
<g id="edge30" class="edge">
<title>src/keyboard.js&#45;&gt;src/gameMenuActions.js</title>
<path fill="none" stroke="#757575" d="M500.31,-329.11C517,-342.58 546.41,-364.59 575,-377.5 580.08,-379.79 585.45,-381.87 590.92,-383.74"/>
<polygon fill="#757575" stroke="#757575" points="590.23,-387.19 600.82,-386.89 592.35,-380.52 590.23,-387.19"/>
</g>
<!-- src/touch.js -->
<g id="node23" class="node">
<title>src/touch.js</title>
<path fill="none" stroke="#c6c5fe" d="M692.33,-369C692.33,-369 622.67,-369 622.67,-369 618.83,-369 615,-365.17 615,-361.33 615,-361.33 615,-353.67 615,-353.67 615,-349.83 618.83,-346 622.67,-346 622.67,-346 692.33,-346 692.33,-346 696.17,-346 700,-349.83 700,-353.67 700,-353.67 700,-361.33 700,-361.33 700,-365.17 696.17,-369 692.33,-369"/>
<text text-anchor="middle" x="657.5" y="-353.8" font-family="Arial" font-size="14.00" fill="#c6c5fe">src/touch.js</text>
</g>
<!-- src/keyboard.js&#45;&gt;src/touch.js -->
<g id="edge33" class="edge">
<title>src/keyboard.js&#45;&gt;src/touch.js</title>
<path fill="none" stroke="#757575" d="M535.67,-329.07C557.44,-334.19 583.05,-340.22 605.07,-345.4"/>
<polygon fill="#757575" stroke="#757575" points="604.38,-348.83 614.91,-347.71 605.98,-342.02 604.38,-348.83"/>
</g>
<!-- src/player/Player.js&#45;&gt;src/weapons/gatling.js -->
<g id="edge39" class="edge">
<title>src/player/Player.js&#45;&gt;src/weapons/gatling.js</title>
<path fill="none" stroke="#757575" d="M341.81,-253.11C372.06,-287.8 468.34,-390.06 575,-418.5 758.37,-467.4 1263.78,-330.13 1429,-423.5 1455.74,-438.61 1442.35,-461.75 1465,-482.5 1485.13,-500.94 1512.33,-514.78 1535.22,-524.21"/>
<polygon fill="#757575" stroke="#757575" points="1534.15,-527.55 1544.73,-527.98 1536.72,-521.04 1534.15,-527.55"/>
</g>
<!-- src/player/Player.js&#45;&gt;src/weapons/rocket.js -->
<g id="edge40" class="edge">
<title>src/player/Player.js&#45;&gt;src/weapons/rocket.js</title>
<path fill="none" stroke="#757575" d="M396.05,-231.72C571.55,-207.97 1070.87,-161.12 1429,-332.5 1485.8,-359.68 1538.17,-413.94 1563.69,-443.02"/>
<polygon fill="#757575" stroke="#757575" points="1561.26,-445.56 1570.44,-450.85 1566.56,-440.99 1561.26,-445.56"/>
</g>
<!-- src/player/Player.js&#45;&gt;src/gameState.js -->
<g id="edge36" class="edge">
<title>src/player/Player.js&#45;&gt;src/gameState.js</title>
<path fill="none" stroke="#757575" d="M350.58,-229.94C398.99,-200.96 533.79,-127.5 656.5,-127.5 656.5,-127.5 656.5,-127.5 818,-127.5 1014.67,-127.5 1544,-106.93 1697,-230.5 1807.72,-319.92 1821.19,-511.67 1822.5,-576.53"/>
<polygon fill="#757575" stroke="#757575" points="1819,-576.84 1822.62,-586.8 1826,-576.75 1819,-576.84"/>
</g>
<!-- src/player/Player.js&#45;&gt;src/keyboard.js -->
<g id="edge37" class="edge">
<title>src/player/Player.js&#45;&gt;src/keyboard.js</title>
<path fill="none" stroke="#757575" d="M355.16,-253.04C381.03,-265.93 423.07,-286.88 452.17,-301.39"/>
<polygon fill="#757575" stroke="#757575" points="450.61,-304.52 461.12,-305.85 453.73,-298.26 450.61,-304.52"/>
</g>
<!-- src/player/Player.js&#45;&gt;src/music.js -->
<g id="edge38" class="edge">
<title>src/player/Player.js&#45;&gt;src/music.js</title>
<path fill="none" stroke="#757575" d="M337.18,-229.74C349.39,-203.61 382.7,-140.89 432,-113.5 519.72,-64.77 556.15,-89.5 656.5,-89.5 656.5,-89.5 656.5,-89.5 1301,-89.5 1472.68,-89.5 1674.97,-114.01 1769.21,-126.85"/>
<polygon fill="#757575" stroke="#757575" points="1768.96,-130.35 1779.34,-128.24 1769.91,-123.41 1768.96,-130.35"/>
</g>
<!-- src/player/Player.js&#45;&gt;src/gameOver.js -->
<g id="edge35" class="edge">
<title>src/player/Player.js&#45;&gt;src/gameOver.js</title>
<path fill="none" stroke="#757575" d="M387.07,-253.07C465.74,-269.88 614.64,-302.75 740,-336.5 898.44,-379.16 1382.44,-534.71 1534.07,-583.65"/>
<polygon fill="#757575" stroke="#757575" points="1533.4,-587.11 1543.99,-586.85 1535.55,-580.45 1533.4,-587.11"/>
</g>
<!-- src/step.js&#45;&gt;src/enemy.js -->
<g id="edge51" class="edge">
<title>src/step.js&#45;&gt;src/enemy.js</title>
<path fill="none" stroke="#757575" d="M823.11,-644.28C833.92,-668.44 860.88,-724.64 894,-764.5 922.19,-798.43 962.45,-830.19 988.28,-848.99"/>
<polygon fill="#757575" stroke="#757575" points="986.29,-851.87 996.45,-854.85 990.37,-846.18 986.29,-851.87"/>
</g>
<!-- src/step.js&#45;&gt;src/weapons/gatling.js -->
<g id="edge56" class="edge">
<title>src/step.js&#45;&gt;src/weapons/gatling.js</title>
<path fill="none" stroke="#757575" d="M855.8,-625.02C867.97,-622.75 881.53,-620.36 894,-618.5 1110.31,-586.16 1366.7,-559.79 1496.2,-547.31"/>
<polygon fill="#757575" stroke="#757575" points="1496.82,-550.77 1506.44,-546.33 1496.15,-543.8 1496.82,-550.77"/>
</g>
<!-- src/step.js&#45;&gt;src/ammo.js -->
<g id="edge49" class="edge">
<title>src/step.js&#45;&gt;src/ammo.js</title>
<path fill="none" stroke="#757575" d="M824.2,-620.9C835.34,-601.28 860.73,-561.77 894,-542.5 988.21,-487.92 1035.62,-542.98 1135,-498.5 1153.5,-490.22 1152.58,-478.96 1171,-470.5 1193.88,-459.98 1221,-453.7 1244.38,-449.95"/>
<polygon fill="#757575" stroke="#757575" points="1245.11,-453.38 1254.48,-448.45 1244.08,-446.46 1245.11,-453.38"/>
</g>
<!-- src/step.js&#45;&gt;src/weapons/rocket.js -->
<g id="edge57" class="edge">
<title>src/step.js&#45;&gt;src/weapons/rocket.js</title>
<path fill="none" stroke="#757575" d="M832.5,-620.91C847.15,-609.81 870.86,-593.46 894,-584.5 949.75,-562.9 1328.47,-501.91 1498.11,-475.24"/>
<polygon fill="#757575" stroke="#757575" points="1498.66,-478.7 1508,-473.69 1497.57,-471.79 1498.66,-478.7"/>
</g>
<!-- src/step.js&#45;&gt;src/background.js -->
<g id="edge50" class="edge">
<title>src/step.js&#45;&gt;src/background.js</title>
<path fill="none" stroke="#757575" d="M855.77,-632.8C915.39,-633.72 1034.83,-637.34 1135,-651.5 1279.7,-671.96 1447.04,-714.89 1529.17,-737.26"/>
<polygon fill="#757575" stroke="#757575" points="1528.43,-740.69 1539,-739.95 1530.28,-733.93 1528.43,-740.69"/>
</g>
<!-- src/step.js&#45;&gt;src/gameState.js -->
<g id="edge53" class="edge">
<title>src/step.js&#45;&gt;src/gameState.js</title>
<path fill="none" stroke="#757575" d="M823.76,-644.17C834.42,-664.22 859.31,-704.62 894,-720.5 991.4,-765.08 1028.3,-729.89 1135,-720.5 1370.84,-699.74 1646.99,-639.64 1764.66,-612.32"/>
<polygon fill="#757575" stroke="#757575" points="1765.6,-615.69 1774.54,-610.02 1764.01,-608.88 1765.6,-615.69"/>
</g>
<!-- src/step.js&#45;&gt;src/gameOver.js -->
<g id="edge52" class="edge">
<title>src/step.js&#45;&gt;src/gameOver.js</title>
<path fill="none" stroke="#757575" d="M827.89,-644.07C841.19,-658.64 866.37,-682.91 894,-692.5 995.19,-727.63 1034.88,-730.57 1135,-692.5 1155.01,-684.89 1151.62,-669.59 1171,-660.5 1282.73,-608.1 1428.74,-598.11 1512.67,-597.21"/>
<polygon fill="#757575" stroke="#757575" points="1512.87,-600.7 1522.84,-597.14 1512.82,-593.7 1512.87,-600.7"/>
</g>
<!-- src/mobile/mobileVelocityController.js -->
<g id="node24" class="node">
<title>src/mobile/mobileVelocityController.js</title>
<path fill="none" stroke="#cfffac" d="M1127.33,-684C1127.33,-684 901.67,-684 901.67,-684 897.83,-684 894,-680.17 894,-676.33 894,-676.33 894,-668.67 894,-668.67 894,-664.83 897.83,-661 901.67,-661 901.67,-661 1127.33,-661 1127.33,-661 1131.17,-661 1135,-664.83 1135,-668.67 1135,-668.67 1135,-676.33 1135,-676.33 1135,-680.17 1131.17,-684 1127.33,-684"/>
<text text-anchor="middle" x="1014.5" y="-668.8" font-family="Arial" font-size="14.00" fill="#cfffac">src/mobile/mobileVelocityController.js</text>
</g>
<!-- src/step.js&#45;&gt;src/mobile/mobileVelocityController.js -->
<g id="edge54" class="edge">
<title>src/step.js&#45;&gt;src/mobile/mobileVelocityController.js</title>
<path fill="none" stroke="#757575" d="M855.69,-640.21C881.51,-645.5 916.46,-652.65 946.9,-658.87"/>
<polygon fill="#757575" stroke="#757575" points="946.54,-662.37 957.04,-660.95 947.94,-655.51 946.54,-662.37"/>
</g>
<!-- src/mobileJoystick.js -->
<g id="node25" class="node">
<title>src/mobileJoystick.js</title>
<path fill="none" stroke="#cfffac" d="M1076.83,-490C1076.83,-490 952.17,-490 952.17,-490 948.33,-490 944.5,-486.17 944.5,-482.33 944.5,-482.33 944.5,-474.67 944.5,-474.67 944.5,-470.83 948.33,-467 952.17,-467 952.17,-467 1076.83,-467 1076.83,-467 1080.67,-467 1084.5,-470.83 1084.5,-474.67 1084.5,-474.67 1084.5,-482.33 1084.5,-482.33 1084.5,-486.17 1080.67,-490 1076.83,-490"/>
<text text-anchor="middle" x="1014.5" y="-474.8" font-family="Arial" font-size="14.00" fill="#cfffac">src/mobileJoystick.js</text>
</g>
<!-- src/step.js&#45;&gt;src/mobileJoystick.js -->
<g id="edge55" class="edge">
<title>src/step.js&#45;&gt;src/mobileJoystick.js</title>
<path fill="none" stroke="#757575" d="M821.42,-620.76C829.5,-595.24 852.28,-534.58 894,-504.5 905.89,-495.93 920.07,-490.08 934.43,-486.13"/>
<polygon fill="#757575" stroke="#757575" points="935.5,-489.47 944.37,-483.68 933.82,-482.67 935.5,-489.47"/>
</g>
<!-- src/gameMenuActions.js&#45;&gt;src/gameState.js -->
<g id="edge26" class="edge">
<title>src/gameMenuActions.js&#45;&gt;src/gameState.js</title>
<path fill="none" stroke="#757575" d="M740.28,-389.07C752.24,-388 764.43,-387.09 776,-386.5 1185.53,-365.64 1347.29,-227.37 1697,-441.5 1752.53,-475.5 1793.78,-543.34 1812.07,-577.63"/>
<polygon fill="#757575" stroke="#757575" points="1809.09,-579.48 1816.81,-586.74 1815.3,-576.25 1809.09,-579.48"/>
</g>
<!-- src/gameMenuActions.js&#45;&gt;src/step.js -->
<g id="edge27" class="edge">
<title>src/gameMenuActions.js&#45;&gt;src/step.js</title>
<path fill="none" stroke="#757575" d="M666.31,-410.1C691.45,-447.45 770.48,-564.87 802.41,-612.31"/>
<polygon fill="#757575" stroke="#757575" points="799.66,-614.48 808.14,-620.83 805.46,-610.58 799.66,-614.48"/>
</g>
<!-- src/gameOver.js&#45;&gt;src/levelCompleteScreen.js -->
<g id="edge28" class="edge">
<title>src/gameOver.js&#45;&gt;src/levelCompleteScreen.js</title>
<path fill="none" stroke="#757575" d="M1595.42,-610.22C1619.24,-631.73 1669.05,-679.97 1697,-730.5 1723.74,-778.85 1714.4,-797.47 1733,-849.5 1758.98,-922.17 1795.73,-1006.04 1812.93,-1044.39"/>
<polygon fill="#757575" stroke="#757575" points="1809.94,-1046.27 1817.24,-1053.95 1816.32,-1043.4 1809.94,-1046.27"/>
</g>
<!-- src/gameOver.js&#45;&gt;src/music.js -->
<g id="edge29" class="edge">
<title>src/gameOver.js&#45;&gt;src/music.js</title>
<path fill="none" stroke="#757575" d="M1639.12,-590.38C1659.77,-584.8 1681.74,-575.39 1697,-559.5 1810.62,-441.27 1822.04,-225.32 1822.68,-156.31"/>
<polygon fill="#757575" stroke="#757575" points="1826.18,-156.2 1822.7,-146.2 1819.18,-156.19 1826.18,-156.2"/>
</g>
<!-- src/touch.js&#45;&gt;src/mobileJoystick.js -->
<g id="edge58" class="edge">
<title>src/touch.js&#45;&gt;src/mobileJoystick.js</title>
<path fill="none" stroke="#757575" d="M700.21,-366.77C713.05,-369.89 727.18,-373.57 740,-377.5 825.71,-403.75 923.71,-442.01 975.99,-463.11"/>
<polygon fill="#757575" stroke="#757575" points="974.93,-466.45 985.51,-466.97 977.56,-459.97 974.93,-466.45"/>
</g>
</g>
</svg>
