<?xml version="1.0" encoding="UTF-8" standalone="no"?>
<!DOCTYPE svg PUBLIC "-//W3C//DTD SVG 1.1//EN"
 "http://www.w3.org/Graphics/SVG/1.1/DTD/svg11.dtd">
<!-- Generated by graphviz version 8.0.2 (20230410.1723)
 -->
<!-- Title: G Pages: 1 -->
<svg width="942pt" height="435pt"
 viewBox="0.00 0.00 942.20 435.23" xmlns="http://www.w3.org/2000/svg" xmlns:xlink="http://www.w3.org/1999/xlink">
<g id="graph0" class="graph" transform="scale(1 1) rotate(0) translate(21.6 413.63)">
<title>G</title>
<polygon fill="#111111" stroke="none" points="-21.6,21.6 -21.6,-413.63 920.6,-413.63 920.6,21.6 -21.6,21.6"/>
<!-- app.js -->
<g id="node1" class="node">
<title>app.js</title>
<path fill="none" stroke="#c6c5fe" d="M47.33,-107.5C47.33,-107.5 7.67,-107.5 7.67,-107.5 3.83,-107.5 0,-103.67 0,-99.83 0,-99.83 0,-92.17 0,-92.17 0,-88.33 3.83,-84.5 7.67,-84.5 7.67,-84.5 47.33,-84.5 47.33,-84.5 51.17,-84.5 55,-88.33 55,-92.17 55,-92.17 55,-99.83 55,-99.83 55,-103.67 51.17,-107.5 47.33,-107.5"/>
<text text-anchor="middle" x="27.5" y="-92.3" font-family="Arial" font-size="14.00" fill="#c6c5fe">app.js</text>
</g>
<!-- src/gameManager.js -->
<g id="node2" class="node">
<title>src/gameManager.js</title>
<path fill="none" stroke="#c6c5fe" d="M228.33,-261.5C228.33,-261.5 98.67,-261.5 98.67,-261.5 94.83,-261.5 91,-257.67 91,-253.83 91,-253.83 91,-246.17 91,-246.17 91,-242.33 94.83,-238.5 98.67,-238.5 98.67,-238.5 228.33,-238.5 228.33,-238.5 232.17,-238.5 236,-242.33 236,-246.17 236,-246.17 236,-253.83 236,-253.83 236,-257.67 232.17,-261.5 228.33,-261.5"/>
<text text-anchor="middle" x="163.5" y="-246.3" font-family="Arial" font-size="14.00" fill="#c6c5fe">src/gameManager.js</text>
</g>
<!-- app.js&#45;&gt;src/gameManager.js -->
<g id="edge1" class="edge">
<title>app.js&#45;&gt;src/gameManager.js</title>
<path fill="none" stroke="#757575" d="M38.57,-107.58C61.37,-133.77 117.13,-197.86 145.43,-230.38"/>
<polygon fill="#757575" stroke="#757575" points="143.11,-232.04 152.31,-237.29 148.39,-227.45 143.11,-232.04"/>
</g>
<!-- src/music.js -->
<g id="node3" class="node">
<title>src/music.js</title>
<path fill="none" stroke="#cfffac" d="M753.83,-67.5C753.83,-67.5 677.17,-67.5 677.17,-67.5 673.33,-67.5 669.5,-63.67 669.5,-59.83 669.5,-59.83 669.5,-52.17 669.5,-52.17 669.5,-48.33 673.33,-44.5 677.17,-44.5 677.17,-44.5 753.83,-44.5 753.83,-44.5 757.67,-44.5 761.5,-48.33 761.5,-52.17 761.5,-52.17 761.5,-59.83 761.5,-59.83 761.5,-63.67 757.67,-67.5 753.83,-67.5"/>
<text text-anchor="middle" x="715.5" y="-52.3" font-family="Arial" font-size="14.00" fill="#cfffac">src/music.js</text>
</g>
<!-- app.js&#45;&gt;src/music.js -->
<g id="edge2" class="edge">
<title>app.js&#45;&gt;src/music.js</title>
<path fill="none" stroke="#757575" d="M48.95,-84.04C94.94,-58.3 210.68,0 315.5,0 315.5,0 315.5,0 446.5,0 526.54,0 617.25,-24.23 669.95,-40.82"/>
<polygon fill="#757575" stroke="#757575" points="668.7,-44.41 679.29,-44.12 670.83,-37.74 668.7,-44.41"/>
</g>
<!-- src/gameManager.js&#45;&gt;src/music.js -->
<g id="edge8" class="edge">
<title>src/gameManager.js&#45;&gt;src/music.js</title>
<path fill="none" stroke="#757575" d="M174.06,-238.38C203.16,-204.03 294.91,-103.07 397,-66 483.98,-34.42 593.34,-39.94 658.37,-47.5"/>
<polygon fill="#757575" stroke="#757575" points="657.85,-51.08 668.2,-48.82 658.7,-44.13 657.85,-51.08"/>
</g>
<!-- src/airfighter.js -->
<g id="node4" class="node">
<title>src/airfighter.js</title>
<path fill="none" stroke="#c6c5fe" d="M762.33,-243.5C762.33,-243.5 668.67,-243.5 668.67,-243.5 664.83,-243.5 661,-239.67 661,-235.83 661,-235.83 661,-228.17 661,-228.17 661,-224.33 664.83,-220.5 668.67,-220.5 668.67,-220.5 762.33,-220.5 762.33,-220.5 766.17,-220.5 770,-224.33 770,-228.17 770,-228.17 770,-235.83 770,-235.83 770,-239.67 766.17,-243.5 762.33,-243.5"/>
<text text-anchor="middle" x="715.5" y="-228.3" font-family="Arial" font-size="14.00" fill="#c6c5fe">src/airfighter.js</text>
</g>
<!-- src/gameManager.js&#45;&gt;src/airfighter.js -->
<g id="edge5" class="edge">
<title>src/gameManager.js&#45;&gt;src/airfighter.js</title>
<path fill="none" stroke="#757575" d="M236.49,-251.52C248.35,-251.72 260.52,-251.89 272,-252 428.89,-253.46 468.88,-264.59 625,-249 633.19,-248.18 641.75,-246.99 650.18,-245.62"/>
<polygon fill="#757575" stroke="#757575" points="650.51,-248.94 659.77,-243.8 649.32,-242.05 650.51,-248.94"/>
</g>
<!-- src/rocket.js -->
<g id="node5" class="node">
<title>src/rocket.js</title>
<path fill="none" stroke="#cfffac" d="M891.33,-243.5C891.33,-243.5 813.67,-243.5 813.67,-243.5 809.83,-243.5 806,-239.67 806,-235.83 806,-235.83 806,-228.17 806,-228.17 806,-224.33 809.83,-220.5 813.67,-220.5 813.67,-220.5 891.33,-220.5 891.33,-220.5 895.17,-220.5 899,-224.33 899,-228.17 899,-228.17 899,-235.83 899,-235.83 899,-239.67 895.17,-243.5 891.33,-243.5"/>
<text text-anchor="middle" x="852.5" y="-228.3" font-family="Arial" font-size="14.00" fill="#cfffac">src/rocket.js</text>
</g>
<!-- src/gameManager.js&#45;&gt;src/rocket.js -->
<g id="edge9" class="edge">
<title>src/gameManager.js&#45;&gt;src/rocket.js</title>
<path fill="none" stroke="#757575" d="M171,-261.69C185.46,-286.44 222.92,-343.89 272,-369 340.66,-404.13 367.37,-388 444.5,-388 444.5,-388 444.5,-388 578.5,-388 687.02,-388 791.63,-293.92 832.96,-251.88"/>
<polygon fill="#757575" stroke="#757575" points="835.16,-254.61 839.58,-244.98 830.12,-249.75 835.16,-254.61"/>
</g>
<!-- src/enemy.js -->
<g id="node6" class="node">
<title>src/enemy.js</title>
<path fill="none" stroke="#c6c5fe" d="M486.33,-203.5C486.33,-203.5 404.67,-203.5 404.67,-203.5 400.83,-203.5 397,-199.67 397,-195.83 397,-195.83 397,-188.17 397,-188.17 397,-184.33 400.83,-180.5 404.67,-180.5 404.67,-180.5 486.33,-180.5 486.33,-180.5 490.17,-180.5 494,-184.33 494,-188.17 494,-188.17 494,-195.83 494,-195.83 494,-199.67 490.17,-203.5 486.33,-203.5"/>
<text text-anchor="middle" x="445.5" y="-188.3" font-family="Arial" font-size="14.00" fill="#c6c5fe">src/enemy.js</text>
</g>
<!-- src/gameManager.js&#45;&gt;src/enemy.js -->
<g id="edge6" class="edge">
<title>src/gameManager.js&#45;&gt;src/enemy.js</title>
<path fill="none" stroke="#757575" d="M222.18,-238.05C270.1,-228.13 337.99,-214.06 386.11,-204.1"/>
<polygon fill="#757575" stroke="#757575" points="386.59,-207.36 395.67,-201.91 385.17,-200.51 386.59,-207.36"/>
</g>
<!-- src/gatling.js -->
<g id="node7" class="node">
<title>src/gatling.js</title>
<path fill="none" stroke="#c6c5fe" d="M617.33,-203.5C617.33,-203.5 537.67,-203.5 537.67,-203.5 533.83,-203.5 530,-199.67 530,-195.83 530,-195.83 530,-188.17 530,-188.17 530,-184.33 533.83,-180.5 537.67,-180.5 537.67,-180.5 617.33,-180.5 617.33,-180.5 621.17,-180.5 625,-184.33 625,-188.17 625,-188.17 625,-195.83 625,-195.83 625,-199.67 621.17,-203.5 617.33,-203.5"/>
<text text-anchor="middle" x="577.5" y="-188.3" font-family="Arial" font-size="14.00" fill="#c6c5fe">src/gatling.js</text>
</g>
<!-- src/gameManager.js&#45;&gt;src/gatling.js -->
<g id="edge7" class="edge">
<title>src/gameManager.js&#45;&gt;src/gatling.js</title>
<path fill="none" stroke="#757575" d="M236.49,-244.99C273.72,-242.09 319.87,-238.02 361,-233 420.4,-225.75 435.32,-223.73 494,-212 502.23,-210.36 510.88,-208.45 519.36,-206.49"/>
<polygon fill="#757575" stroke="#757575" points="520.04,-209.69 528.96,-203.98 518.43,-202.88 520.04,-209.69"/>
</g>
<!-- src/step.js -->
<g id="node8" class="node">
<title>src/step.js</title>
<path fill="none" stroke="#c6c5fe" d="M349.83,-182.5C349.83,-182.5 283.17,-182.5 283.17,-182.5 279.33,-182.5 275.5,-178.67 275.5,-174.83 275.5,-174.83 275.5,-167.17 275.5,-167.17 275.5,-163.33 279.33,-159.5 283.17,-159.5 283.17,-159.5 349.83,-159.5 349.83,-159.5 353.67,-159.5 357.5,-163.33 357.5,-167.17 357.5,-167.17 357.5,-174.83 357.5,-174.83 357.5,-178.67 353.67,-182.5 349.83,-182.5"/>
<text text-anchor="middle" x="316.5" y="-167.3" font-family="Arial" font-size="14.00" fill="#c6c5fe">src/step.js</text>
</g>
<!-- src/gameManager.js&#45;&gt;src/step.js -->
<g id="edge10" class="edge">
<title>src/gameManager.js&#45;&gt;src/step.js</title>
<path fill="none" stroke="#757575" d="M187.43,-238C212.97,-224.64 254.43,-202.95 283.23,-187.88"/>
<polygon fill="#757575" stroke="#757575" points="284.61,-190.59 291.85,-182.85 281.36,-184.39 284.61,-190.59"/>
</g>
<!-- src/touch.js -->
<g id="node9" class="node">
<title>src/touch.js</title>
<path fill="none" stroke="#cfffac" d="M353.33,-359.5C353.33,-359.5 279.67,-359.5 279.67,-359.5 275.83,-359.5 272,-355.67 272,-351.83 272,-351.83 272,-344.17 272,-344.17 272,-340.33 275.83,-336.5 279.67,-336.5 279.67,-336.5 353.33,-336.5 353.33,-336.5 357.17,-336.5 361,-340.33 361,-344.17 361,-344.17 361,-351.83 361,-351.83 361,-355.67 357.17,-359.5 353.33,-359.5"/>
<text text-anchor="middle" x="316.5" y="-344.3" font-family="Arial" font-size="14.00" fill="#cfffac">src/touch.js</text>
</g>
<!-- src/gameManager.js&#45;&gt;src/touch.js -->
<g id="edge11" class="edge">
<title>src/gameManager.js&#45;&gt;src/touch.js</title>
<path fill="none" stroke="#757575" d="M181.45,-261.75C202.48,-276.23 239.55,-301.45 272,-322 276.41,-324.79 281.12,-327.69 285.75,-330.49"/>
<polygon fill="#757575" stroke="#757575" points="283.63,-333.91 294.01,-336.05 287.23,-327.9 283.63,-333.91"/>
</g>
<!-- src/airfighter.js&#45;&gt;src/rocket.js -->
<g id="edge3" class="edge">
<title>src/airfighter.js&#45;&gt;src/rocket.js</title>
<path fill="none" stroke="#757575" d="M770.24,-232C778.33,-232 786.7,-232 794.84,-232"/>
<polygon fill="#757575" stroke="#757575" points="794.77,-235.5 804.77,-232 794.77,-228.5 794.77,-235.5"/>
</g>
<!-- src/enemy.js&#45;&gt;src/gatling.js -->
<g id="edge4" class="edge">
<title>src/enemy.js&#45;&gt;src/gatling.js</title>
<path fill="none" stroke="#757575" d="M494.17,-192C502.23,-192 510.68,-192 518.96,-192"/>
<polygon fill="#757575" stroke="#757575" points="518.7,-195.5 528.7,-192 518.7,-188.5 518.7,-195.5"/>
</g>
<!-- src/gatling.js&#45;&gt;src/music.js -->
<g id="edge13" class="edge">
<title>src/gatling.js&#45;&gt;src/music.js</title>
<path fill="none" stroke="#757575" d="M590.1,-180.4C613.36,-157.14 665.98,-104.52 694.77,-75.73"/>
<polygon fill="#757575" stroke="#757575" points="696.95,-78.5 701.55,-68.95 692,-73.55 696.95,-78.5"/>
</g>
<!-- src/gatling.js&#45;&gt;src/airfighter.js -->
<g id="edge12" class="edge">
<title>src/gatling.js&#45;&gt;src/airfighter.js</title>
<path fill="none" stroke="#757575" d="M618.94,-203.89C632.92,-208.01 648.78,-212.67 663.51,-217"/>
<polygon fill="#757575" stroke="#757575" points="662.4,-220.62 672.98,-220.08 664.38,-213.9 662.4,-220.62"/>
</g>
<!-- src/step.js&#45;&gt;src/music.js -->
<g id="edge17" class="edge">
<title>src/step.js&#45;&gt;src/music.js</title>
<path fill="none" stroke="#757575" d="M326.82,-159.09C340.35,-142.75 367.11,-113.83 397,-100 481.98,-60.68 592.42,-54.04 658.13,-54.11"/>
<polygon fill="#757575" stroke="#757575" points="658.05,-57.61 668.07,-54.18 658.1,-50.61 658.05,-57.61"/>
</g>
<!-- src/step.js&#45;&gt;src/airfighter.js -->
<g id="edge14" class="edge">
<title>src/step.js&#45;&gt;src/airfighter.js</title>
<path fill="none" stroke="#757575" d="M335.24,-182.88C350.8,-192.61 374.4,-205.76 397,-212 482.05,-235.5 584.6,-237.45 649.68,-235.61"/>
<polygon fill="#757575" stroke="#757575" points="649.71,-239.08 659.59,-235.25 649.48,-232.08 649.71,-239.08"/>
</g>
<!-- src/step.js&#45;&gt;src/rocket.js -->
<g id="edge18" class="edge">
<title>src/step.js&#45;&gt;src/rocket.js</title>
<path fill="none" stroke="#757575" d="M357.88,-166.14C370.4,-164.85 384.25,-163.64 397,-163 498.27,-157.92 524.93,-154.64 625,-171 688.63,-181.4 760.18,-202.26 805.52,-216.67"/>
<polygon fill="#757575" stroke="#757575" points="804.31,-220.28 814.9,-220.01 806.45,-213.62 804.31,-220.28"/>
</g>
<!-- src/step.js&#45;&gt;src/enemy.js -->
<g id="edge15" class="edge">
<title>src/step.js&#45;&gt;src/enemy.js</title>
<path fill="none" stroke="#757575" d="M357.68,-177.64C366.66,-179.13 376.36,-180.73 385.91,-182.31"/>
<polygon fill="#757575" stroke="#757575" points="385.14,-185.9 395.58,-184.08 386.28,-178.99 385.14,-185.9"/>
</g>
<!-- src/step.js&#45;&gt;src/gatling.js -->
<g id="edge16" class="edge">
<title>src/step.js&#45;&gt;src/gatling.js</title>
<path fill="none" stroke="#757575" d="M357.99,-168.15C393.87,-166.3 447.63,-165.19 494,-171 504.89,-172.36 516.4,-174.7 527.26,-177.34"/>
<polygon fill="#757575" stroke="#757575" points="526.3,-180.96 536.85,-180.04 528.03,-174.18 526.3,-180.96"/>
</g>
</g>
</svg>
