<?xml version="1.0" encoding="UTF-8" standalone="no"?>
<!DOCTYPE svg PUBLIC "-//W3C//DTD SVG 1.1//EN"
 "http://www.w3.org/Graphics/SVG/1.1/DTD/svg11.dtd">
<!-- Generated by graphviz version 2.43.0 (0)
 -->
<!-- Title: G Pages: 1 -->
<svg width="1896pt" height="1023pt"
 viewBox="0.00 0.00 1896.20 1022.81" xmlns="http://www.w3.org/2000/svg" xmlns:xlink="http://www.w3.org/1999/xlink">
<g id="graph0" class="graph" transform="scale(1 1) rotate(0) translate(21.6 1001.21)">
<title>G</title>
<polygon fill="#111111" stroke="transparent" points="-21.6,21.6 -21.6,-1001.21 1874.6,-1001.21 1874.6,21.6 -21.6,21.6"/>
<!-- app.js -->
<g id="node1" class="node">
<title>app.js</title>
<path fill="none" stroke="#c6c5fe" d="M46.33,-333C46.33,-333 7.67,-333 7.67,-333 3.83,-333 0,-329.17 0,-325.33 0,-325.33 0,-317.67 0,-317.67 0,-313.83 3.83,-310 7.67,-310 7.67,-310 46.33,-310 46.33,-310 50.17,-310 54,-313.83 54,-317.67 54,-317.67 54,-325.33 54,-325.33 54,-329.17 50.17,-333 46.33,-333"/>
<text text-anchor="middle" x="27" y="-317.8" font-family="Arial" font-size="14.00" fill="#c6c5fe">app.js</text>
</g>
<!-- src/gameManager.js -->
<g id="node2" class="node">
<title>src/gameManager.js</title>
<path fill="none" stroke="#c6c5fe" d="M222.33,-603C222.33,-603 97.67,-603 97.67,-603 93.83,-603 90,-599.17 90,-595.33 90,-595.33 90,-587.67 90,-587.67 90,-583.83 93.83,-580 97.67,-580 97.67,-580 222.33,-580 222.33,-580 226.17,-580 230,-583.83 230,-587.67 230,-587.67 230,-595.33 230,-595.33 230,-599.17 226.17,-603 222.33,-603"/>
<text text-anchor="middle" x="160" y="-587.8" font-family="Arial" font-size="14.00" fill="#c6c5fe">src/gameManager.js</text>
</g>
<!-- app.js&#45;&gt;src/gameManager.js -->
<g id="edge1" class="edge">
<title>app.js&#45;&gt;src/gameManager.js</title>
<path fill="none" stroke="#757575" d="M33.63,-333.1C53.83,-374.73 122.83,-516.95 148.91,-570.7"/>
<polygon fill="#757575" stroke="#757575" points="145.88,-572.47 153.39,-579.94 152.18,-569.42 145.88,-572.47"/>
</g>
<!-- src/startScreen.js -->
<g id="node3" class="node">
<title>src/startScreen.js</title>
<path fill="none" stroke="#c6c5fe" d="M383.83,-23C383.83,-23 278.17,-23 278.17,-23 274.33,-23 270.5,-19.17 270.5,-15.33 270.5,-15.33 270.5,-7.67 270.5,-7.67 270.5,-3.83 274.33,0 278.17,0 278.17,0 383.83,0 383.83,0 387.67,0 391.5,-3.83 391.5,-7.67 391.5,-7.67 391.5,-15.33 391.5,-15.33 391.5,-19.17 387.67,-23 383.83,-23"/>
<text text-anchor="middle" x="331" y="-7.8" font-family="Arial" font-size="14.00" fill="#c6c5fe">src/startScreen.js</text>
</g>
<!-- app.js&#45;&gt;src/startScreen.js -->
<g id="edge2" class="edge">
<title>app.js&#45;&gt;src/startScreen.js</title>
<path fill="none" stroke="#757575" d="M34.86,-309.75C60.19,-267.28 152.91,-119.89 266,-37.5 271.28,-33.65 277.21,-30.27 283.28,-27.32"/>
<polygon fill="#757575" stroke="#757575" points="285.14,-30.32 292.84,-23.04 282.29,-23.93 285.14,-30.32"/>
</g>
<!-- src/Boss.js -->
<g id="node4" class="node">
<title>src/Boss.js</title>
<path fill="none" stroke="#c6c5fe" d="M850.33,-875C850.33,-875 783.67,-875 783.67,-875 779.83,-875 776,-871.17 776,-867.33 776,-867.33 776,-859.67 776,-859.67 776,-855.83 779.83,-852 783.67,-852 783.67,-852 850.33,-852 850.33,-852 854.17,-852 858,-855.83 858,-859.67 858,-859.67 858,-867.33 858,-867.33 858,-871.17 854.17,-875 850.33,-875"/>
<text text-anchor="middle" x="817" y="-859.8" font-family="Arial" font-size="14.00" fill="#c6c5fe">src/Boss.js</text>
</g>
<!-- src/gameManager.js&#45;&gt;src/Boss.js -->
<g id="edge11" class="edge">
<title>src/gameManager.js&#45;&gt;src/Boss.js</title>
<path fill="none" stroke="#757575" d="M161.83,-603.17C165.43,-643.85 183.44,-780.13 266,-837.5 345.8,-892.96 645.79,-876.72 765.86,-867.69"/>
<polygon fill="#757575" stroke="#757575" points="766.19,-871.18 775.89,-866.93 765.65,-864.2 766.19,-871.18"/>
</g>
<!-- src/enemy.js -->
<g id="node5" class="node">
<title>src/enemy.js</title>
<path fill="none" stroke="#c6c5fe" d="M1052.83,-837C1052.83,-837 976.17,-837 976.17,-837 972.33,-837 968.5,-833.17 968.5,-829.33 968.5,-829.33 968.5,-821.67 968.5,-821.67 968.5,-817.83 972.33,-814 976.17,-814 976.17,-814 1052.83,-814 1052.83,-814 1056.67,-814 1060.5,-817.83 1060.5,-821.67 1060.5,-821.67 1060.5,-829.33 1060.5,-829.33 1060.5,-833.17 1056.67,-837 1052.83,-837"/>
<text text-anchor="middle" x="1014.5" y="-821.8" font-family="Arial" font-size="14.00" fill="#c6c5fe">src/enemy.js</text>
</g>
<!-- src/gameManager.js&#45;&gt;src/enemy.js -->
<g id="edge14" class="edge">
<title>src/gameManager.js&#45;&gt;src/enemy.js</title>
<path fill="none" stroke="#757575" d="M168.7,-603C201.06,-649.82 331.41,-823.5 484.5,-823.5 484.5,-823.5 484.5,-823.5 658.5,-823.5 764.46,-823.5 888.21,-824.4 958.07,-824.99"/>
<polygon fill="#757575" stroke="#757575" points="958.36,-828.5 968.39,-825.08 958.42,-821.5 958.36,-828.5"/>
</g>
<!-- src/levelCompleteScreen.js -->
<g id="node7" class="node">
<title>src/levelCompleteScreen.js</title>
<path fill="none" stroke="#cfffac" d="M1845.33,-953C1845.33,-953 1679.67,-953 1679.67,-953 1675.83,-953 1672,-949.17 1672,-945.33 1672,-945.33 1672,-937.67 1672,-937.67 1672,-933.83 1675.83,-930 1679.67,-930 1679.67,-930 1845.33,-930 1845.33,-930 1849.17,-930 1853,-933.83 1853,-937.67 1853,-937.67 1853,-945.33 1853,-945.33 1853,-949.17 1849.17,-953 1845.33,-953"/>
<text text-anchor="middle" x="1762.5" y="-937.8" font-family="Arial" font-size="14.00" fill="#cfffac">src/levelCompleteScreen.js</text>
</g>
<!-- src/gameManager.js&#45;&gt;src/levelCompleteScreen.js -->
<g id="edge17" class="edge">
<title>src/gameManager.js&#45;&gt;src/levelCompleteScreen.js</title>
<path fill="none" stroke="#757575" d="M161.41,-603.28C163.64,-648.7 177.74,-814.35 266,-903.5 338.33,-976.57 381.68,-979.5 484.5,-979.5 484.5,-979.5 484.5,-979.5 1301,-979.5 1450.06,-979.5 1487.85,-979.96 1636,-963.5 1655.1,-961.38 1675.69,-958.16 1694.56,-954.84"/>
<polygon fill="#757575" stroke="#757575" points="1695.33,-958.26 1704.55,-953.04 1694.09,-951.37 1695.33,-958.26"/>
</g>
<!-- src/ammo.js -->
<g id="node8" class="node">
<title>src/ammo.js</title>
<path fill="none" stroke="#c6c5fe" d="M1337.83,-488C1337.83,-488 1262.17,-488 1262.17,-488 1258.33,-488 1254.5,-484.17 1254.5,-480.33 1254.5,-480.33 1254.5,-472.67 1254.5,-472.67 1254.5,-468.83 1258.33,-465 1262.17,-465 1262.17,-465 1337.83,-465 1337.83,-465 1341.67,-465 1345.5,-468.83 1345.5,-472.67 1345.5,-472.67 1345.5,-480.33 1345.5,-480.33 1345.5,-484.17 1341.67,-488 1337.83,-488"/>
<text text-anchor="middle" x="1300" y="-472.8" font-family="Arial" font-size="14.00" fill="#c6c5fe">src/ammo.js</text>
</g>
<!-- src/gameManager.js&#45;&gt;src/ammo.js -->
<g id="edge12" class="edge">
<title>src/gameManager.js&#45;&gt;src/ammo.js</title>
<path fill="none" stroke="#757575" d="M189.32,-579.87C285.78,-540.96 611.28,-415.47 894,-374.5 1000,-359.14 1039.67,-325.67 1135,-374.5 1159.37,-386.98 1149.47,-407.57 1171,-424.5 1192.54,-441.44 1220.35,-453.62 1244.55,-461.91"/>
<polygon fill="#757575" stroke="#757575" points="1243.72,-465.32 1254.31,-465.12 1245.91,-458.67 1243.72,-465.32"/>
</g>
<!-- src/background.js -->
<g id="node10" class="node">
<title>src/background.js</title>
<path fill="none" stroke="#cfffac" d="M1067.83,-681C1067.83,-681 961.17,-681 961.17,-681 957.33,-681 953.5,-677.17 953.5,-673.33 953.5,-673.33 953.5,-665.67 953.5,-665.67 953.5,-661.83 957.33,-658 961.17,-658 961.17,-658 1067.83,-658 1067.83,-658 1071.67,-658 1075.5,-661.83 1075.5,-665.67 1075.5,-665.67 1075.5,-673.33 1075.5,-673.33 1075.5,-677.17 1071.67,-681 1067.83,-681"/>
<text text-anchor="middle" x="1014.5" y="-665.8" font-family="Arial" font-size="14.00" fill="#cfffac">src/background.js</text>
</g>
<!-- src/gameManager.js&#45;&gt;src/background.js -->
<g id="edge13" class="edge">
<title>src/gameManager.js&#45;&gt;src/background.js</title>
<path fill="none" stroke="#757575" d="M184.1,-603.03C204.93,-612.81 236.72,-626.23 266,-632.5 510.25,-684.78 809.19,-679.41 942.95,-673.49"/>
<polygon fill="#757575" stroke="#757575" points="943.23,-676.98 953.06,-673.02 942.91,-669.98 943.23,-676.98"/>
</g>
<!-- src/gameState.js -->
<g id="node13" class="node">
<title>src/gameState.js</title>
<path fill="none" stroke="#cfffac" d="M1813.83,-410C1813.83,-410 1711.17,-410 1711.17,-410 1707.33,-410 1703.5,-406.17 1703.5,-402.33 1703.5,-402.33 1703.5,-394.67 1703.5,-394.67 1703.5,-390.83 1707.33,-387 1711.17,-387 1711.17,-387 1813.83,-387 1813.83,-387 1817.67,-387 1821.5,-390.83 1821.5,-394.67 1821.5,-394.67 1821.5,-402.33 1821.5,-402.33 1821.5,-406.17 1817.67,-410 1813.83,-410"/>
<text text-anchor="middle" x="1762.5" y="-394.8" font-family="Arial" font-size="14.00" fill="#cfffac">src/gameState.js</text>
</g>
<!-- src/gameManager.js&#45;&gt;src/gameState.js -->
<g id="edge15" class="edge">
<title>src/gameManager.js&#45;&gt;src/gameState.js</title>
<path fill="none" stroke="#757575" d="M162.58,-579.59C173.41,-503.57 243.44,-89.5 484.5,-89.5 484.5,-89.5 484.5,-89.5 818,-89.5 1188.97,-89.5 1334.54,-39.32 1636,-255.5 1684.9,-290.56 1727.75,-348.13 1748.4,-378.42"/>
<polygon fill="#757575" stroke="#757575" points="1745.61,-380.54 1754.08,-386.89 1751.42,-376.64 1745.61,-380.54"/>
</g>
<!-- src/keyboard.js -->
<g id="node14" class="node">
<title>src/keyboard.js</title>
<path fill="none" stroke="#c6c5fe" d="M531.33,-292C531.33,-292 439.67,-292 439.67,-292 435.83,-292 432,-288.17 432,-284.33 432,-284.33 432,-276.67 432,-276.67 432,-272.83 435.83,-269 439.67,-269 439.67,-269 531.33,-269 531.33,-269 535.17,-269 539,-272.83 539,-276.67 539,-276.67 539,-284.33 539,-284.33 539,-288.17 535.17,-292 531.33,-292"/>
<text text-anchor="middle" x="485.5" y="-276.8" font-family="Arial" font-size="14.00" fill="#c6c5fe">src/keyboard.js</text>
</g>
<!-- src/gameManager.js&#45;&gt;src/keyboard.js -->
<g id="edge16" class="edge">
<title>src/gameManager.js&#45;&gt;src/keyboard.js</title>
<path fill="none" stroke="#757575" d="M164.14,-579.71C173.78,-545.55 205.98,-445.23 266,-386.5 313.22,-340.29 384.5,-310.94 432.7,-295.11"/>
<polygon fill="#757575" stroke="#757575" points="433.86,-298.42 442.31,-292.04 431.72,-291.75 433.86,-298.42"/>
</g>
<!-- src/music.js -->
<g id="node15" class="node">
<title>src/music.js</title>
<path fill="none" stroke="#cfffac" d="M1798.83,-139C1798.83,-139 1726.17,-139 1726.17,-139 1722.33,-139 1718.5,-135.17 1718.5,-131.33 1718.5,-131.33 1718.5,-123.67 1718.5,-123.67 1718.5,-119.83 1722.33,-116 1726.17,-116 1726.17,-116 1798.83,-116 1798.83,-116 1802.67,-116 1806.5,-119.83 1806.5,-123.67 1806.5,-123.67 1806.5,-131.33 1806.5,-131.33 1806.5,-135.17 1802.67,-139 1798.83,-139"/>
<text text-anchor="middle" x="1762.5" y="-123.8" font-family="Arial" font-size="14.00" fill="#cfffac">src/music.js</text>
</g>
<!-- src/gameManager.js&#45;&gt;src/music.js -->
<g id="edge18" class="edge">
<title>src/gameManager.js&#45;&gt;src/music.js</title>
<path fill="none" stroke="#757575" d="M161.95,-579.88C167.59,-513.6 198.75,-183.66 266,-112.5 335.25,-39.22 383.68,-51.5 484.5,-51.5 484.5,-51.5 484.5,-51.5 1301,-51.5 1451.28,-51.5 1625.5,-91.39 1710.11,-113.37"/>
<polygon fill="#757575" stroke="#757575" points="1709.41,-116.81 1719.97,-115.96 1711.19,-110.03 1709.41,-116.81"/>
</g>
<!-- src/player/Player.js -->
<g id="node16" class="node">
<title>src/player/Player.js</title>
<path fill="none" stroke="#c6c5fe" d="M388.33,-624C388.33,-624 273.67,-624 273.67,-624 269.83,-624 266,-620.17 266,-616.33 266,-616.33 266,-608.67 266,-608.67 266,-604.83 269.83,-601 273.67,-601 273.67,-601 388.33,-601 388.33,-601 392.17,-601 396,-604.83 396,-608.67 396,-608.67 396,-616.33 396,-616.33 396,-620.17 392.17,-624 388.33,-624"/>
<text text-anchor="middle" x="331" y="-608.8" font-family="Arial" font-size="14.00" fill="#c6c5fe">src/player/Player.js</text>
</g>
<!-- src/gameManager.js&#45;&gt;src/player/Player.js -->
<g id="edge19" class="edge">
<title>src/gameManager.js&#45;&gt;src/player/Player.js</title>
<path fill="none" stroke="#757575" d="M230.23,-600.1C238.59,-601.14 247.15,-602.21 255.58,-603.25"/>
<polygon fill="#757575" stroke="#757575" points="255.42,-606.76 265.78,-604.52 256.28,-599.81 255.42,-606.76"/>
</g>
<!-- src/rendering/Helpers.js -->
<g id="node17" class="node">
<title>src/rendering/Helpers.js</title>
<path fill="none" stroke="#cfffac" d="M1834.33,-834C1834.33,-834 1690.67,-834 1690.67,-834 1686.83,-834 1683,-830.17 1683,-826.33 1683,-826.33 1683,-818.67 1683,-818.67 1683,-814.83 1686.83,-811 1690.67,-811 1690.67,-811 1834.33,-811 1834.33,-811 1838.17,-811 1842,-814.83 1842,-818.67 1842,-818.67 1842,-826.33 1842,-826.33 1842,-830.17 1838.17,-834 1834.33,-834"/>
<text text-anchor="middle" x="1762.5" y="-818.8" font-family="Arial" font-size="14.00" fill="#cfffac">src/rendering/Helpers.js</text>
</g>
<!-- src/gameManager.js&#45;&gt;src/rendering/Helpers.js -->
<g id="edge20" class="edge">
<title>src/gameManager.js&#45;&gt;src/rendering/Helpers.js</title>
<path fill="none" stroke="#757575" d="M161.49,-603.02C163.99,-645.91 178.88,-797.52 266,-868.5 342.25,-930.62 386.15,-903.5 484.5,-903.5 484.5,-903.5 484.5,-903.5 1301,-903.5 1450.18,-903.5 1491.62,-920.03 1636,-882.5 1671.86,-873.18 1709.8,-853.49 1734.46,-839.2"/>
<polygon fill="#757575" stroke="#757575" points="1736.4,-842.12 1743.23,-834.02 1732.84,-836.09 1736.4,-842.12"/>
</g>
<!-- src/step.js -->
<g id="node18" class="node">
<title>src/step.js</title>
<path fill="none" stroke="#c6c5fe" d="M847.83,-563C847.83,-563 786.17,-563 786.17,-563 782.33,-563 778.5,-559.17 778.5,-555.33 778.5,-555.33 778.5,-547.67 778.5,-547.67 778.5,-543.83 782.33,-540 786.17,-540 786.17,-540 847.83,-540 847.83,-540 851.67,-540 855.5,-543.83 855.5,-547.67 855.5,-547.67 855.5,-555.33 855.5,-555.33 855.5,-559.17 851.67,-563 847.83,-563"/>
<text text-anchor="middle" x="817" y="-547.8" font-family="Arial" font-size="14.00" fill="#c6c5fe">src/step.js</text>
</g>
<!-- src/gameManager.js&#45;&gt;src/step.js -->
<g id="edge21" class="edge">
<title>src/gameManager.js&#45;&gt;src/step.js</title>
<path fill="none" stroke="#757575" d="M230.17,-587.28C363.62,-579.13 653.58,-561.42 768.09,-554.43"/>
<polygon fill="#757575" stroke="#757575" points="768.53,-557.91 778.29,-553.8 768.1,-550.92 768.53,-557.91"/>
</g>
<!-- src/startScreen.js&#45;&gt;src/music.js -->
<g id="edge47" class="edge">
<title>src/startScreen.js&#45;&gt;src/music.js</title>
<path fill="none" stroke="#757575" d="M391.51,-11.79C456.59,-12.09 563.97,-12.5 656.5,-12.5 656.5,-12.5 656.5,-12.5 1301,-12.5 1450.3,-12.5 1495.66,13.46 1636,-37.5 1678.61,-52.97 1719.67,-87.26 1742.65,-108.77"/>
<polygon fill="#757575" stroke="#757575" points="1740.35,-111.41 1750,-115.79 1745.19,-106.35 1740.35,-111.41"/>
</g>
<!-- src/Boss.js&#45;&gt;src/enemy.js -->
<g id="edge3" class="edge">
<title>src/Boss.js&#45;&gt;src/enemy.js</title>
<path fill="none" stroke="#757575" d="M858.03,-855.72C886.96,-850.1 926.4,-842.43 958.32,-836.23"/>
<polygon fill="#757575" stroke="#757575" points="959.24,-839.61 968.39,-834.27 957.91,-832.74 959.24,-839.61"/>
</g>
<!-- src/gatling.js -->
<g id="node6" class="node">
<title>src/gatling.js</title>
<path fill="none" stroke="#c6c5fe" d="M1588.83,-595C1588.83,-595 1512.17,-595 1512.17,-595 1508.33,-595 1504.5,-591.17 1504.5,-587.33 1504.5,-587.33 1504.5,-579.67 1504.5,-579.67 1504.5,-575.83 1508.33,-572 1512.17,-572 1512.17,-572 1588.83,-572 1588.83,-572 1592.67,-572 1596.5,-575.83 1596.5,-579.67 1596.5,-579.67 1596.5,-587.33 1596.5,-587.33 1596.5,-591.17 1592.67,-595 1588.83,-595"/>
<text text-anchor="middle" x="1550.5" y="-579.8" font-family="Arial" font-size="14.00" fill="#c6c5fe">src/gatling.js</text>
</g>
<!-- src/Boss.js&#45;&gt;src/gatling.js -->
<g id="edge4" class="edge">
<title>src/Boss.js&#45;&gt;src/gatling.js</title>
<path fill="none" stroke="#757575" d="M858.25,-868.43C980.15,-882.44 1342.2,-917.06 1429,-845.5 1485.24,-799.13 1432.86,-750.92 1465,-685.5 1481.13,-652.67 1509.84,-621.25 1529.27,-602.17"/>
<polygon fill="#757575" stroke="#757575" points="1531.93,-604.47 1536.72,-595.01 1527.08,-599.42 1531.93,-604.47"/>
</g>
<!-- src/Boss.js&#45;&gt;src/levelCompleteScreen.js -->
<g id="edge5" class="edge">
<title>src/Boss.js&#45;&gt;src/levelCompleteScreen.js</title>
<path fill="none" stroke="#757575" d="M839.93,-875.13C854.76,-882.38 875.02,-891.14 894,-895.5 1166.3,-958.04 1498.76,-954.15 1661.73,-947.23"/>
<polygon fill="#757575" stroke="#757575" points="1661.91,-950.73 1671.74,-946.79 1661.6,-943.73 1661.91,-950.73"/>
</g>
<!-- src/enemy.js&#45;&gt;src/gatling.js -->
<g id="edge9" class="edge">
<title>src/enemy.js&#45;&gt;src/gatling.js</title>
<path fill="none" stroke="#757575" d="M1040.9,-813.99C1127.95,-774.54 1414.45,-644.7 1514.58,-599.33"/>
<polygon fill="#757575" stroke="#757575" points="1516.28,-602.4 1523.95,-595.08 1513.39,-596.02 1516.28,-602.4"/>
</g>
<!-- src/enemyManoeuvre.js -->
<g id="node11" class="node">
<title>src/enemyManoeuvre.js</title>
<path fill="none" stroke="#cfffac" d="M1372.83,-837C1372.83,-837 1227.17,-837 1227.17,-837 1223.33,-837 1219.5,-833.17 1219.5,-829.33 1219.5,-829.33 1219.5,-821.67 1219.5,-821.67 1219.5,-817.83 1223.33,-814 1227.17,-814 1227.17,-814 1372.83,-814 1372.83,-814 1376.67,-814 1380.5,-817.83 1380.5,-821.67 1380.5,-821.67 1380.5,-829.33 1380.5,-829.33 1380.5,-833.17 1376.67,-837 1372.83,-837"/>
<text text-anchor="middle" x="1300" y="-821.8" font-family="Arial" font-size="14.00" fill="#cfffac">src/enemyManoeuvre.js</text>
</g>
<!-- src/enemy.js&#45;&gt;src/enemyManoeuvre.js -->
<g id="edge8" class="edge">
<title>src/enemy.js&#45;&gt;src/enemyManoeuvre.js</title>
<path fill="none" stroke="#757575" d="M1060.73,-825.5C1100.59,-825.5 1159.83,-825.5 1209.26,-825.5"/>
<polygon fill="#757575" stroke="#757575" points="1209.33,-829 1219.33,-825.5 1209.33,-822 1209.33,-829"/>
</g>
<!-- src/rendering/EnemyCollisionsChecks.js -->
<g id="node12" class="node">
<title>src/rendering/EnemyCollisionsChecks.js</title>
<path fill="none" stroke="#c6c5fe" d="M1421.33,-796C1421.33,-796 1178.67,-796 1178.67,-796 1174.83,-796 1171,-792.17 1171,-788.33 1171,-788.33 1171,-780.67 1171,-780.67 1171,-776.83 1174.83,-773 1178.67,-773 1178.67,-773 1421.33,-773 1421.33,-773 1425.17,-773 1429,-776.83 1429,-780.67 1429,-780.67 1429,-788.33 1429,-788.33 1429,-792.17 1425.17,-796 1421.33,-796"/>
<text text-anchor="middle" x="1300" y="-780.8" font-family="Arial" font-size="14.00" fill="#c6c5fe">src/rendering/EnemyCollisionsChecks.js</text>
</g>
<!-- src/enemy.js&#45;&gt;src/rendering/EnemyCollisionsChecks.js -->
<g id="edge10" class="edge">
<title>src/enemy.js&#45;&gt;src/rendering/EnemyCollisionsChecks.js</title>
<path fill="none" stroke="#757575" d="M1060.73,-818.96C1100.59,-813.19 1159.83,-804.63 1209.26,-797.48"/>
<polygon fill="#757575" stroke="#757575" points="1209.94,-800.92 1219.33,-796.02 1208.93,-793.99 1209.94,-800.92"/>
</g>
<!-- src/gatling.js&#45;&gt;src/gameState.js -->
<g id="edge26" class="edge">
<title>src/gatling.js&#45;&gt;src/gameState.js</title>
<path fill="none" stroke="#757575" d="M1586.28,-571.88C1602.32,-565.55 1621.07,-556.69 1636,-545.5 1684.9,-508.83 1727.75,-449.92 1748.4,-418.98"/>
<polygon fill="#757575" stroke="#757575" points="1751.52,-420.62 1754.08,-410.34 1745.67,-416.77 1751.52,-420.62"/>
</g>
<!-- src/gatling.js&#45;&gt;src/music.js -->
<g id="edge27" class="edge">
<title>src/gatling.js&#45;&gt;src/music.js</title>
<path fill="none" stroke="#757575" d="M1596.57,-572.13C1611.09,-566.38 1625.99,-557.89 1636,-545.5 1683.99,-486.11 1651.09,-450.94 1672,-377.5 1696.67,-290.87 1735.82,-190.84 1752.97,-148.34"/>
<polygon fill="#757575" stroke="#757575" points="1756.23,-149.62 1756.75,-139.04 1749.74,-146.99 1756.23,-149.62"/>
</g>
<!-- src/ammo.js&#45;&gt;src/gatling.js -->
<g id="edge6" class="edge">
<title>src/ammo.js&#45;&gt;src/gatling.js</title>
<path fill="none" stroke="#757575" d="M1328.07,-488.15C1372.97,-507.49 1462.91,-546.22 1513.25,-567.89"/>
<polygon fill="#757575" stroke="#757575" points="1511.9,-571.12 1522.47,-571.86 1514.67,-564.69 1511.9,-571.12"/>
</g>
<!-- src/rocket.js -->
<g id="node9" class="node">
<title>src/rocket.js</title>
<path fill="none" stroke="#c6c5fe" d="M1587.33,-537C1587.33,-537 1513.67,-537 1513.67,-537 1509.83,-537 1506,-533.17 1506,-529.33 1506,-529.33 1506,-521.67 1506,-521.67 1506,-517.83 1509.83,-514 1513.67,-514 1513.67,-514 1587.33,-514 1587.33,-514 1591.17,-514 1595,-517.83 1595,-521.67 1595,-521.67 1595,-529.33 1595,-529.33 1595,-533.17 1591.17,-537 1587.33,-537"/>
<text text-anchor="middle" x="1550.5" y="-521.8" font-family="Arial" font-size="14.00" fill="#c6c5fe">src/rocket.js</text>
</g>
<!-- src/ammo.js&#45;&gt;src/rocket.js -->
<g id="edge7" class="edge">
<title>src/ammo.js&#45;&gt;src/rocket.js</title>
<path fill="none" stroke="#757575" d="M1345.71,-485.32C1387.93,-493.64 1451.29,-506.14 1496.14,-514.98"/>
<polygon fill="#757575" stroke="#757575" points="1495.49,-518.42 1505.98,-516.92 1496.84,-511.55 1495.49,-518.42"/>
</g>
<!-- src/rocket.js&#45;&gt;src/rendering/Helpers.js -->
<g id="edge46" class="edge">
<title>src/rocket.js&#45;&gt;src/rendering/Helpers.js</title>
<path fill="none" stroke="#757575" d="M1593.24,-537.09C1608.12,-542.83 1624.12,-551.05 1636,-562.5 1708.48,-632.34 1744.47,-752.6 1756.62,-801.2"/>
<polygon fill="#757575" stroke="#757575" points="1753.23,-802.04 1758.98,-810.94 1760.03,-800.4 1753.23,-802.04"/>
</g>
<!-- src/rendering/EnemyCollisionsChecks.js&#45;&gt;src/gatling.js -->
<g id="edge41" class="edge">
<title>src/rendering/EnemyCollisionsChecks.js&#45;&gt;src/gatling.js</title>
<path fill="none" stroke="#757575" d="M1403.02,-772.94C1412.33,-769.25 1421.19,-764.52 1429,-758.5 1457.66,-736.42 1445.33,-715.86 1465,-685.5 1485.11,-654.46 1513.31,-622.16 1531.49,-602.44"/>
<polygon fill="#757575" stroke="#757575" points="1534.13,-604.74 1538.39,-595.04 1529.01,-599.97 1534.13,-604.74"/>
</g>
<!-- src/rendering/EnemyCollisionsChecks.js&#45;&gt;src/rocket.js -->
<g id="edge45" class="edge">
<title>src/rendering/EnemyCollisionsChecks.js&#45;&gt;src/rocket.js</title>
<path fill="none" stroke="#757575" d="M1306.83,-772.7C1325.24,-736.53 1385.6,-625.87 1465,-562.5 1476.08,-553.66 1489.6,-546.51 1502.55,-540.93"/>
<polygon fill="#757575" stroke="#757575" points="1503.89,-544.17 1511.83,-537.15 1501.25,-537.68 1503.89,-544.17"/>
</g>
<!-- src/rendering/EnemyCollisionsChecks.js&#45;&gt;src/gameState.js -->
<g id="edge40" class="edge">
<title>src/rendering/EnemyCollisionsChecks.js&#45;&gt;src/gameState.js</title>
<path fill="none" stroke="#757575" d="M1429,-789.51C1509.57,-790.03 1604.13,-784.94 1636,-760.5 1747.28,-675.15 1760.39,-484.84 1761.55,-420.35"/>
<polygon fill="#757575" stroke="#757575" points="1765.05,-420.18 1761.65,-410.15 1758.05,-420.11 1765.05,-420.18"/>
</g>
<!-- src/rendering/EnemyCollisionsChecks.js&#45;&gt;src/music.js -->
<g id="edge42" class="edge">
<title>src/rendering/EnemyCollisionsChecks.js&#45;&gt;src/music.js</title>
<path fill="none" stroke="#757575" d="M1381.9,-772.98C1478.23,-758.9 1627.31,-735.8 1636,-726.5 1689.21,-669.51 1654.74,-453.53 1672,-377.5 1691.9,-289.87 1733.38,-190.74 1752.05,-148.43"/>
<polygon fill="#757575" stroke="#757575" points="1755.3,-149.72 1756.17,-139.17 1748.91,-146.88 1755.3,-149.72"/>
</g>
<!-- src/rendering/EnemyCollisionsChecks.js&#45;&gt;src/rendering/Helpers.js -->
<g id="edge44" class="edge">
<title>src/rendering/EnemyCollisionsChecks.js&#45;&gt;src/rendering/Helpers.js</title>
<path fill="none" stroke="#757575" d="M1429.02,-795.48C1441.18,-796.51 1453.32,-797.53 1465,-798.5 1534.82,-804.31 1613.89,-810.7 1672.82,-815.42"/>
<polygon fill="#757575" stroke="#757575" points="1672.59,-818.92 1682.83,-816.23 1673.15,-811.94 1672.59,-818.92"/>
</g>
<!-- src/gameOver.js -->
<g id="node20" class="node">
<title>src/gameOver.js</title>
<path fill="none" stroke="#c6c5fe" d="M1600.83,-718C1600.83,-718 1500.17,-718 1500.17,-718 1496.33,-718 1492.5,-714.17 1492.5,-710.33 1492.5,-710.33 1492.5,-702.67 1492.5,-702.67 1492.5,-698.83 1496.33,-695 1500.17,-695 1500.17,-695 1600.83,-695 1600.83,-695 1604.67,-695 1608.5,-698.83 1608.5,-702.67 1608.5,-702.67 1608.5,-710.33 1608.5,-710.33 1608.5,-714.17 1604.67,-718 1600.83,-718"/>
<text text-anchor="middle" x="1550.5" y="-702.8" font-family="Arial" font-size="14.00" fill="#c6c5fe">src/gameOver.js</text>
</g>
<!-- src/rendering/EnemyCollisionsChecks.js&#45;&gt;src/gameOver.js -->
<g id="edge39" class="edge">
<title>src/rendering/EnemyCollisionsChecks.js&#45;&gt;src/gameOver.js</title>
<path fill="none" stroke="#757575" d="M1384.19,-772.96C1399.45,-769.35 1414.98,-764.64 1429,-758.5 1447.08,-750.58 1447.33,-741.3 1465,-732.5 1473.67,-728.18 1483.2,-724.42 1492.63,-721.19"/>
<polygon fill="#757575" stroke="#757575" points="1493.96,-724.44 1502.39,-718.02 1491.8,-717.78 1493.96,-724.44"/>
</g>
<!-- src/rendering/Explosion.js -->
<g id="node24" class="node">
<title>src/rendering/Explosion.js</title>
<path fill="none" stroke="#cfffac" d="M1628.33,-874C1628.33,-874 1472.67,-874 1472.67,-874 1468.83,-874 1465,-870.17 1465,-866.33 1465,-866.33 1465,-858.67 1465,-858.67 1465,-854.83 1468.83,-851 1472.67,-851 1472.67,-851 1628.33,-851 1628.33,-851 1632.17,-851 1636,-854.83 1636,-858.67 1636,-858.67 1636,-866.33 1636,-866.33 1636,-870.17 1632.17,-874 1628.33,-874"/>
<text text-anchor="middle" x="1550.5" y="-858.8" font-family="Arial" font-size="14.00" fill="#cfffac">src/rendering/Explosion.js</text>
</g>
<!-- src/rendering/EnemyCollisionsChecks.js&#45;&gt;src/rendering/Explosion.js -->
<g id="edge43" class="edge">
<title>src/rendering/EnemyCollisionsChecks.js&#45;&gt;src/rendering/Explosion.js</title>
<path fill="none" stroke="#757575" d="M1406.89,-796.07C1414.53,-798.41 1421.98,-801.19 1429,-804.5 1448.36,-813.63 1446.34,-826 1465,-836.5 1472.68,-840.82 1481.16,-844.51 1489.7,-847.64"/>
<polygon fill="#757575" stroke="#757575" points="1488.73,-851 1499.33,-850.93 1491,-844.38 1488.73,-851"/>
</g>
<!-- src/keyboard.js&#45;&gt;src/gatling.js -->
<g id="edge30" class="edge">
<title>src/keyboard.js&#45;&gt;src/gatling.js</title>
<path fill="none" stroke="#757575" d="M539.47,-283.68C590.79,-286.9 670.79,-292.28 740,-298.5 915.88,-314.31 968.43,-282.86 1135,-341.5 1152.91,-347.8 1153.94,-356.18 1171,-364.5 1280.28,-417.8 1341.26,-371.32 1429,-455.5 1460.09,-485.33 1435.18,-514.4 1465,-545.5 1474.23,-555.12 1486.33,-562.5 1498.49,-568.07"/>
<polygon fill="#757575" stroke="#757575" points="1497.18,-571.32 1507.75,-571.99 1499.91,-564.87 1497.18,-571.32"/>
</g>
<!-- src/keyboard.js&#45;&gt;src/rocket.js -->
<g id="edge32" class="edge">
<title>src/keyboard.js&#45;&gt;src/rocket.js</title>
<path fill="none" stroke="#757575" d="M500.4,-268.86C516.95,-255.84 546,-235.52 575,-227.5 693.2,-194.81 1065.69,-244.57 1135,-265.5 1276.81,-308.31 1306.65,-339 1429,-422.5 1467.23,-448.59 1507.23,-484.85 1530.18,-506.66"/>
<polygon fill="#757575" stroke="#757575" points="1527.92,-509.34 1537.56,-513.73 1532.76,-504.29 1527.92,-509.34"/>
</g>
<!-- src/keyboard.js&#45;&gt;src/gameState.js -->
<g id="edge29" class="edge">
<title>src/keyboard.js&#45;&gt;src/gameState.js</title>
<path fill="none" stroke="#757575" d="M498.23,-268.77C514.18,-253.56 544.24,-227.32 575,-213.5 674.62,-168.74 706.79,-165.5 816,-165.5 816,-165.5 816,-165.5 1015.5,-165.5 1300.52,-165.5 1371.85,-220.43 1636,-327.5 1672.37,-342.24 1711.25,-365.55 1735.93,-381.41"/>
<polygon fill="#757575" stroke="#757575" points="1734.06,-384.36 1744.35,-386.88 1737.88,-378.5 1734.06,-384.36"/>
</g>
<!-- src/keyboard.js&#45;&gt;src/music.js -->
<g id="edge31" class="edge">
<title>src/keyboard.js&#45;&gt;src/music.js</title>
<path fill="none" stroke="#757575" d="M491.22,-268.86C501.89,-244.24 530.5,-187.22 575,-163.5 749.81,-70.33 1266.99,-119.06 1465,-113.5 1540.97,-111.37 1560.12,-109.28 1636,-113.5 1659.82,-114.82 1686.07,-117.55 1708.38,-120.25"/>
<polygon fill="#757575" stroke="#757575" points="1707.97,-123.73 1718.33,-121.49 1708.83,-116.78 1707.97,-123.73"/>
</g>
<!-- src/gameMenuActions.js -->
<g id="node19" class="node">
<title>src/gameMenuActions.js</title>
<path fill="none" stroke="#c6c5fe" d="M732.33,-331C732.33,-331 582.67,-331 582.67,-331 578.83,-331 575,-327.17 575,-323.33 575,-323.33 575,-315.67 575,-315.67 575,-311.83 578.83,-308 582.67,-308 582.67,-308 732.33,-308 732.33,-308 736.17,-308 740,-311.83 740,-315.67 740,-315.67 740,-323.33 740,-323.33 740,-327.17 736.17,-331 732.33,-331"/>
<text text-anchor="middle" x="657.5" y="-315.8" font-family="Arial" font-size="14.00" fill="#c6c5fe">src/gameMenuActions.js</text>
</g>
<!-- src/keyboard.js&#45;&gt;src/gameMenuActions.js -->
<g id="edge28" class="edge">
<title>src/keyboard.js&#45;&gt;src/gameMenuActions.js</title>
<path fill="none" stroke="#757575" d="M537.05,-292.1C555.63,-296.36 576.86,-301.23 596.22,-305.67"/>
<polygon fill="#757575" stroke="#757575" points="595.62,-309.12 606.15,-307.95 597.19,-302.3 595.62,-309.12"/>
</g>
<!-- src/touch.js -->
<g id="node21" class="node">
<title>src/touch.js</title>
<path fill="none" stroke="#c6c5fe" d="M692.33,-372C692.33,-372 622.67,-372 622.67,-372 618.83,-372 615,-368.17 615,-364.33 615,-364.33 615,-356.67 615,-356.67 615,-352.83 618.83,-349 622.67,-349 622.67,-349 692.33,-349 692.33,-349 696.17,-349 700,-352.83 700,-356.67 700,-356.67 700,-364.33 700,-364.33 700,-368.17 696.17,-372 692.33,-372"/>
<text text-anchor="middle" x="657.5" y="-356.8" font-family="Arial" font-size="14.00" fill="#c6c5fe">src/touch.js</text>
</g>
<!-- src/keyboard.js&#45;&gt;src/touch.js -->
<g id="edge33" class="edge">
<title>src/keyboard.js&#45;&gt;src/touch.js</title>
<path fill="none" stroke="#757575" d="M500.64,-292.14C517.41,-305.39 546.67,-326.85 575,-339.5 584.5,-343.75 595.03,-347.25 605.27,-350.11"/>
<polygon fill="#757575" stroke="#757575" points="604.4,-353.5 614.96,-352.64 606.17,-346.73 604.4,-353.5"/>
</g>
<!-- src/player/Player.js&#45;&gt;src/rocket.js -->
<g id="edge38" class="edge">
<title>src/player/Player.js&#45;&gt;src/rocket.js</title>
<path fill="none" stroke="#757575" d="M354.13,-624.01C405.67,-649.7 538.31,-709.5 656.5,-709.5 656.5,-709.5 656.5,-709.5 818,-709.5 959.17,-709.5 1005.94,-746.7 1135,-689.5 1155.4,-680.46 1151.97,-666.16 1171,-654.5 1276.93,-589.57 1419.73,-552.38 1496.08,-535.88"/>
<polygon fill="#757575" stroke="#757575" points="1496.9,-539.28 1505.95,-533.78 1495.45,-532.43 1496.9,-539.28"/>
</g>
<!-- src/player/Player.js&#45;&gt;src/gameState.js -->
<g id="edge35" class="edge">
<title>src/player/Player.js&#45;&gt;src/gameState.js</title>
<path fill="none" stroke="#757575" d="M384.11,-624.04C511.95,-650.92 851.38,-713.67 1135,-689.5 1360.11,-670.32 1448.99,-730.27 1636,-603.5 1703.51,-557.74 1741.08,-462.37 1755.09,-419.81"/>
<polygon fill="#757575" stroke="#757575" points="1758.45,-420.78 1758.14,-410.19 1751.78,-418.66 1758.45,-420.78"/>
</g>
<!-- src/player/Player.js&#45;&gt;src/keyboard.js -->
<g id="edge36" class="edge">
<title>src/player/Player.js&#45;&gt;src/keyboard.js</title>
<path fill="none" stroke="#757575" d="M337.43,-600.68C359.89,-551.77 445.79,-364.77 474.84,-301.54"/>
<polygon fill="#757575" stroke="#757575" points="478.14,-302.72 479.14,-292.17 471.78,-299.8 478.14,-302.72"/>
</g>
<!-- src/player/Player.js&#45;&gt;src/music.js -->
<g id="edge37" class="edge">
<title>src/player/Player.js&#45;&gt;src/music.js</title>
<path fill="none" stroke="#757575" d="M337,-600.8C357.91,-553.48 443.38,-375.2 575,-298.5 772.39,-183.46 1503.94,-139.97 1708.21,-129.92"/>
<polygon fill="#757575" stroke="#757575" points="1708.57,-133.4 1718.39,-129.42 1708.23,-126.41 1708.57,-133.4"/>
</g>
<!-- src/player/Player.js&#45;&gt;src/gameOver.js -->
<g id="edge34" class="edge">
<title>src/player/Player.js&#45;&gt;src/gameOver.js</title>
<path fill="none" stroke="#757575" d="M343.08,-624.24C360.34,-641.77 395.48,-674.54 432,-691.5 573.51,-757.2 620.76,-745.87 776,-761.5 1036.44,-787.73 1347.47,-742.39 1482,-719.06"/>
<polygon fill="#757575" stroke="#757575" points="1482.9,-722.46 1492.15,-717.29 1481.7,-715.56 1482.9,-722.46"/>
</g>
<!-- src/step.js&#45;&gt;src/enemy.js -->
<g id="edge50" class="edge">
<title>src/step.js&#45;&gt;src/enemy.js</title>
<path fill="none" stroke="#757575" d="M823.32,-563.08C834.72,-587.45 863.04,-645.4 894,-689.5 925.59,-734.49 969.8,-781.49 994.63,-806.75"/>
<polygon fill="#757575" stroke="#757575" points="992.16,-809.22 1001.68,-813.86 997.13,-804.3 992.16,-809.22"/>
</g>
<!-- src/step.js&#45;&gt;src/gatling.js -->
<g id="edge53" class="edge">
<title>src/step.js&#45;&gt;src/gatling.js</title>
<path fill="none" stroke="#757575" d="M852.02,-539.99C865,-536.16 880.03,-532.39 894,-530.5 1115.57,-500.45 1381.75,-547.39 1494.62,-571.12"/>
<polygon fill="#757575" stroke="#757575" points="1493.91,-574.54 1504.42,-573.2 1495.36,-567.7 1493.91,-574.54"/>
</g>
<!-- src/step.js&#45;&gt;src/ammo.js -->
<g id="edge48" class="edge">
<title>src/step.js&#45;&gt;src/ammo.js</title>
<path fill="none" stroke="#757575" d="M829.66,-539.91C843.61,-526.9 868.32,-506.43 894,-497.5 1013.33,-455.99 1164.36,-462.35 1244.02,-469.87"/>
<polygon fill="#757575" stroke="#757575" points="1244.01,-473.39 1254.31,-470.89 1244.7,-466.42 1244.01,-473.39"/>
</g>
<!-- src/step.js&#45;&gt;src/rocket.js -->
<g id="edge56" class="edge">
<title>src/step.js&#45;&gt;src/rocket.js</title>
<path fill="none" stroke="#757575" d="M854.35,-563.1C866.79,-566.52 880.88,-569.8 894,-571.5 1000.23,-585.24 1034.58,-608.78 1135,-571.5 1154.79,-564.15 1151.35,-548.24 1171,-540.5 1279.84,-497.62 1420.17,-507.09 1495.68,-516.86"/>
<polygon fill="#757575" stroke="#757575" points="1495.52,-520.37 1505.9,-518.24 1496.45,-513.43 1495.52,-520.37"/>
</g>
<!-- src/step.js&#45;&gt;src/background.js -->
<g id="edge49" class="edge">
<title>src/step.js&#45;&gt;src/background.js</title>
<path fill="none" stroke="#757575" d="M824.2,-563.24C835.34,-583.12 860.74,-623.23 894,-643.5 908.85,-652.55 926.44,-658.47 943.48,-662.34"/>
<polygon fill="#757575" stroke="#757575" points="942.93,-665.8 953.43,-664.39 944.34,-658.94 942.93,-665.8"/>
</g>
<!-- src/step.js&#45;&gt;src/gameState.js -->
<g id="edge52" class="edge">
<title>src/step.js&#45;&gt;src/gameState.js</title>
<path fill="none" stroke="#757575" d="M823.78,-539.71C834.45,-519.38 859.37,-478.23 894,-460.5 964.4,-424.46 1500.65,-405.88 1693.06,-400.32"/>
<polygon fill="#757575" stroke="#757575" points="1693.43,-403.82 1703.32,-400.03 1693.23,-396.82 1693.43,-403.82"/>
</g>
<!-- src/step.js&#45;&gt;src/gameOver.js -->
<g id="edge51" class="edge">
<title>src/step.js&#45;&gt;src/gameOver.js</title>
<path fill="none" stroke="#757575" d="M833.73,-563.18C848.52,-573.57 871.68,-588.34 894,-596.5 948.82,-616.54 1326.37,-673.6 1482.33,-696.66"/>
<polygon fill="#757575" stroke="#757575" points="1481.87,-700.13 1492.27,-698.13 1482.89,-693.2 1481.87,-700.13"/>
</g>
<!-- src/mobile/mobileVelocityController.js -->
<g id="node22" class="node">
<title>src/mobile/mobileVelocityController.js</title>
<path fill="none" stroke="#cfffac" d="M1127.33,-563C1127.33,-563 901.67,-563 901.67,-563 897.83,-563 894,-559.17 894,-555.33 894,-555.33 894,-547.67 894,-547.67 894,-543.83 897.83,-540 901.67,-540 901.67,-540 1127.33,-540 1127.33,-540 1131.17,-540 1135,-543.83 1135,-547.67 1135,-547.67 1135,-555.33 1135,-555.33 1135,-559.17 1131.17,-563 1127.33,-563"/>
<text text-anchor="middle" x="1014.5" y="-547.8" font-family="Arial" font-size="14.00" fill="#cfffac">src/mobile/mobileVelocityController.js</text>
</g>
<!-- src/step.js&#45;&gt;src/mobile/mobileVelocityController.js -->
<g id="edge54" class="edge">
<title>src/step.js&#45;&gt;src/mobile/mobileVelocityController.js</title>
<path fill="none" stroke="#757575" d="M855.69,-551.5C864.18,-551.5 873.66,-551.5 883.63,-551.5"/>
<polygon fill="#757575" stroke="#757575" points="883.76,-555 893.76,-551.5 883.76,-548 883.76,-555"/>
</g>
<!-- src/mobileJoystick.js -->
<g id="node23" class="node">
<title>src/mobileJoystick.js</title>
<path fill="none" stroke="#cfffac" d="M1076.83,-407C1076.83,-407 952.17,-407 952.17,-407 948.33,-407 944.5,-403.17 944.5,-399.33 944.5,-399.33 944.5,-391.67 944.5,-391.67 944.5,-387.83 948.33,-384 952.17,-384 952.17,-384 1076.83,-384 1076.83,-384 1080.67,-384 1084.5,-387.83 1084.5,-391.67 1084.5,-391.67 1084.5,-399.33 1084.5,-399.33 1084.5,-403.17 1080.67,-407 1076.83,-407"/>
<text text-anchor="middle" x="1014.5" y="-391.8" font-family="Arial" font-size="14.00" fill="#cfffac">src/mobileJoystick.js</text>
</g>
<!-- src/step.js&#45;&gt;src/mobileJoystick.js -->
<g id="edge55" class="edge">
<title>src/step.js&#45;&gt;src/mobileJoystick.js</title>
<path fill="none" stroke="#757575" d="M821.25,-539.97C829.1,-514.29 851.69,-452.22 894,-421.5 905.87,-412.88 920.03,-407.03 934.38,-403.06"/>
<polygon fill="#757575" stroke="#757575" points="935.45,-406.4 944.32,-400.61 933.77,-399.61 935.45,-406.4"/>
</g>
<!-- src/gameMenuActions.js&#45;&gt;src/gameState.js -->
<g id="edge22" class="edge">
<title>src/gameMenuActions.js&#45;&gt;src/gameState.js</title>
<path fill="none" stroke="#757575" d="M740.28,-318.78C812.23,-318.21 919.82,-317.5 1013.5,-317.5 1013.5,-317.5 1013.5,-317.5 1301,-317.5 1453.3,-317.5 1629.72,-361.01 1713.09,-384.25"/>
<polygon fill="#757575" stroke="#757575" points="1712.21,-387.64 1722.79,-386.98 1714.11,-380.9 1712.21,-387.64"/>
</g>
<!-- src/gameMenuActions.js&#45;&gt;src/step.js -->
<g id="edge23" class="edge">
<title>src/gameMenuActions.js&#45;&gt;src/step.js</title>
<path fill="none" stroke="#757575" d="M727.77,-331.05C732.18,-333.39 736.32,-336.18 740,-339.5 796.52,-390.45 811.03,-486.45 814.73,-529.56"/>
<polygon fill="#757575" stroke="#757575" points="811.26,-530.07 815.49,-539.78 818.24,-529.55 811.26,-530.07"/>
</g>
<!-- src/gameOver.js&#45;&gt;src/levelCompleteScreen.js -->
<g id="edge24" class="edge">
<title>src/gameOver.js&#45;&gt;src/levelCompleteScreen.js</title>
<path fill="none" stroke="#757575" d="M1561.78,-718.18C1582.53,-741.75 1630.98,-796.66 1672,-842.5 1696.99,-870.42 1726.12,-902.57 1744.19,-922.47"/>
<polygon fill="#757575" stroke="#757575" points="1741.68,-924.9 1750.99,-929.95 1746.86,-920.2 1741.68,-924.9"/>
</g>
<!-- src/gameOver.js&#45;&gt;src/music.js -->
<g id="edge25" class="edge">
<title>src/gameOver.js&#45;&gt;src/music.js</title>
<path fill="none" stroke="#757575" d="M1564.59,-694.99C1583.7,-677.36 1618.83,-641.68 1636,-603.5 1677.71,-510.73 1646.75,-476.03 1672,-377.5 1694.31,-290.45 1734.53,-191.02 1752.46,-148.53"/>
<polygon fill="#757575" stroke="#757575" points="1755.72,-149.8 1756.41,-139.22 1749.28,-147.06 1755.72,-149.8"/>
</g>
<!-- src/touch.js&#45;&gt;src/mobileJoystick.js -->
<g id="edge57" class="edge">
<title>src/touch.js&#45;&gt;src/mobileJoystick.js</title>
<path fill="none" stroke="#757575" d="M700.27,-364.62C757.6,-370.27 861.78,-380.54 934.18,-387.68"/>
<polygon fill="#757575" stroke="#757575" points="933.88,-391.17 944.17,-388.67 934.57,-384.2 933.88,-391.17"/>
</g>
</g>
</svg>
