<?xml version="1.0" encoding="UTF-8" standalone="no"?>
<!DOCTYPE svg PUBLIC "-//W3C//DTD SVG 1.1//EN"
 "http://www.w3.org/Graphics/SVG/1.1/DTD/svg11.dtd">
<!-- Generated by graphviz version 2.43.0 (0)
 -->
<!-- Title: G Pages: 1 -->
<svg width="2078pt" height="1381pt"
 viewBox="0.00 0.00 2078.20 1380.86" xmlns="http://www.w3.org/2000/svg" xmlns:xlink="http://www.w3.org/1999/xlink">
<g id="graph0" class="graph" transform="scale(1 1) rotate(0) translate(21.6 1359.26)">
<title>G</title>
<polygon fill="#111111" stroke="transparent" points="-21.6,21.6 -21.6,-1359.26 2056.6,-1359.26 2056.6,21.6 -21.6,21.6"/>
<!-- app.js -->
<g id="node1" class="node">
<title>app.js</title>
<path fill="none" stroke="#c6c5fe" d="M46.33,-441.71C46.33,-441.71 7.67,-441.71 7.67,-441.71 3.83,-441.71 0,-437.88 0,-434.04 0,-434.04 0,-426.38 0,-426.38 0,-422.54 3.83,-418.71 7.67,-418.71 7.67,-418.71 46.33,-418.71 46.33,-418.71 50.17,-418.71 54,-422.54 54,-426.38 54,-426.38 54,-434.04 54,-434.04 54,-437.88 50.17,-441.71 46.33,-441.71"/>
<text text-anchor="middle" x="27" y="-426.51" font-family="Arial" font-size="14.00" fill="#c6c5fe">app.js</text>
</g>
<!-- src/gameManager.js -->
<g id="node2" class="node">
<title>src/gameManager.js</title>
<path fill="none" stroke="#c6c5fe" d="M222.33,-828.71C222.33,-828.71 97.67,-828.71 97.67,-828.71 93.83,-828.71 90,-824.88 90,-821.04 90,-821.04 90,-813.38 90,-813.38 90,-809.54 93.83,-805.71 97.67,-805.71 97.67,-805.71 222.33,-805.71 222.33,-805.71 226.17,-805.71 230,-809.54 230,-813.38 230,-813.38 230,-821.04 230,-821.04 230,-824.88 226.17,-828.71 222.33,-828.71"/>
<text text-anchor="middle" x="160" y="-813.51" font-family="Arial" font-size="14.00" fill="#c6c5fe">src/gameManager.js</text>
</g>
<!-- app.js&#45;&gt;src/gameManager.js -->
<g id="edge1" class="edge">
<title>app.js&#45;&gt;src/gameManager.js</title>
<path fill="none" stroke="#757575" d="M31.92,-441.79C50.26,-495.98 127.73,-724.84 151.82,-796"/>
<polygon fill="#757575" stroke="#757575" points="148.57,-797.32 155.09,-805.67 155.2,-795.08 148.57,-797.32"/>
</g>
<!-- src/startScreen.js -->
<g id="node3" class="node">
<title>src/startScreen.js</title>
<path fill="none" stroke="#c6c5fe" d="M383.83,-35.71C383.83,-35.71 278.17,-35.71 278.17,-35.71 274.33,-35.71 270.5,-31.88 270.5,-28.04 270.5,-28.04 270.5,-20.38 270.5,-20.38 270.5,-16.54 274.33,-12.71 278.17,-12.71 278.17,-12.71 383.83,-12.71 383.83,-12.71 387.67,-12.71 391.5,-16.54 391.5,-20.38 391.5,-20.38 391.5,-28.04 391.5,-28.04 391.5,-31.88 387.67,-35.71 383.83,-35.71"/>
<text text-anchor="middle" x="331" y="-20.51" font-family="Arial" font-size="14.00" fill="#c6c5fe">src/startScreen.js</text>
</g>
<!-- app.js&#45;&gt;src/startScreen.js -->
<g id="edge2" class="edge">
<title>app.js&#45;&gt;src/startScreen.js</title>
<path fill="none" stroke="#757575" d="M32.22,-418.46C51.13,-367.34 133.07,-161.85 266,-50.21 270.59,-46.35 275.82,-43.01 281.28,-40.13"/>
<polygon fill="#757575" stroke="#757575" points="283.06,-43.16 290.59,-35.71 280.06,-36.84 283.06,-43.16"/>
</g>
<!-- src/Boss.js -->
<g id="node4" class="node">
<title>src/Boss.js</title>
<path fill="none" stroke="#c6c5fe" d="M1459.33,-1274.71C1459.33,-1274.71 1392.67,-1274.71 1392.67,-1274.71 1388.83,-1274.71 1385,-1270.88 1385,-1267.04 1385,-1267.04 1385,-1259.38 1385,-1259.38 1385,-1255.54 1388.83,-1251.71 1392.67,-1251.71 1392.67,-1251.71 1459.33,-1251.71 1459.33,-1251.71 1463.17,-1251.71 1467,-1255.54 1467,-1259.38 1467,-1259.38 1467,-1267.04 1467,-1267.04 1467,-1270.88 1463.17,-1274.71 1459.33,-1274.71"/>
<text text-anchor="middle" x="1426" y="-1259.51" font-family="Arial" font-size="14.00" fill="#c6c5fe">src/Boss.js</text>
</g>
<!-- src/gameManager.js&#45;&gt;src/Boss.js -->
<g id="edge24" class="edge">
<title>src/gameManager.js&#45;&gt;src/Boss.js</title>
<path fill="none" stroke="#757575" d="M162.13,-828.77C168.45,-890.61 201.31,-1181.45 266,-1238.21 339.48,-1302.67 386.76,-1263.21 484.5,-1263.21 484.5,-1263.21 484.5,-1263.21 894,-1263.21 1070.6,-1263.21 1280.24,-1263.21 1374.58,-1263.21"/>
<polygon fill="#757575" stroke="#757575" points="1374.7,-1266.71 1384.7,-1263.21 1374.7,-1259.71 1374.7,-1266.71"/>
</g>
<!-- src/gameState.js -->
<g id="node5" class="node">
<title>src/gameState.js</title>
<path fill="none" stroke="#cfffac" d="M1995.83,-907.71C1995.83,-907.71 1893.17,-907.71 1893.17,-907.71 1889.33,-907.71 1885.5,-903.88 1885.5,-900.04 1885.5,-900.04 1885.5,-892.38 1885.5,-892.38 1885.5,-888.54 1889.33,-884.71 1893.17,-884.71 1893.17,-884.71 1995.83,-884.71 1995.83,-884.71 1999.67,-884.71 2003.5,-888.54 2003.5,-892.38 2003.5,-892.38 2003.5,-900.04 2003.5,-900.04 2003.5,-903.88 1999.67,-907.71 1995.83,-907.71"/>
<text text-anchor="middle" x="1944.5" y="-892.51" font-family="Arial" font-size="14.00" fill="#cfffac">src/gameState.js</text>
</g>
<!-- src/gameManager.js&#45;&gt;src/gameState.js -->
<g id="edge29" class="edge">
<title>src/gameManager.js&#45;&gt;src/gameState.js</title>
<path fill="none" stroke="#757575" d="M161.95,-828.83C166.06,-872.25 185.95,-1027.04 266,-1117.21 337.79,-1198.07 376.37,-1224.21 484.5,-1224.21 484.5,-1224.21 484.5,-1224.21 894,-1224.21 1099.72,-1224.21 1650.53,-1286.69 1818,-1167.21 1904.1,-1105.78 1932.67,-970.18 1940.73,-917.61"/>
<polygon fill="#757575" stroke="#757575" points="1944.19,-918.11 1942.15,-907.71 1937.26,-917.12 1944.19,-918.11"/>
</g>
<!-- src/levelCompleteScreen.js -->
<g id="node6" class="node">
<title>src/levelCompleteScreen.js</title>
<path fill="none" stroke="#cfffac" d="M2027.33,-1310.71C2027.33,-1310.71 1861.67,-1310.71 1861.67,-1310.71 1857.83,-1310.71 1854,-1306.88 1854,-1303.04 1854,-1303.04 1854,-1295.38 1854,-1295.38 1854,-1291.54 1857.83,-1287.71 1861.67,-1287.71 1861.67,-1287.71 2027.33,-1287.71 2027.33,-1287.71 2031.17,-1287.71 2035,-1291.54 2035,-1295.38 2035,-1295.38 2035,-1303.04 2035,-1303.04 2035,-1306.88 2031.17,-1310.71 2027.33,-1310.71"/>
<text text-anchor="middle" x="1944.5" y="-1295.51" font-family="Arial" font-size="14.00" fill="#cfffac">src/levelCompleteScreen.js</text>
</g>
<!-- src/gameManager.js&#45;&gt;src/levelCompleteScreen.js -->
<g id="edge31" class="edge">
<title>src/gameManager.js&#45;&gt;src/levelCompleteScreen.js</title>
<path fill="none" stroke="#757575" d="M162.15,-829.01C168.68,-893.46 202.96,-1202.61 266,-1270.21 335.28,-1344.49 382.93,-1337.21 484.5,-1337.21 484.5,-1337.21 484.5,-1337.21 1427,-1337.21 1572.1,-1337.21 1739.51,-1322.11 1843.44,-1310.95"/>
<polygon fill="#757575" stroke="#757575" points="1844.04,-1314.4 1853.61,-1309.84 1843.29,-1307.44 1844.04,-1314.4"/>
</g>
<!-- src/ammo.js -->
<g id="node9" class="node">
<title>src/ammo.js</title>
<path fill="none" stroke="#c6c5fe" d="M1463.83,-496.71C1463.83,-496.71 1388.17,-496.71 1388.17,-496.71 1384.33,-496.71 1380.5,-492.88 1380.5,-489.04 1380.5,-489.04 1380.5,-481.38 1380.5,-481.38 1380.5,-477.54 1384.33,-473.71 1388.17,-473.71 1388.17,-473.71 1463.83,-473.71 1463.83,-473.71 1467.67,-473.71 1471.5,-477.54 1471.5,-481.38 1471.5,-481.38 1471.5,-489.04 1471.5,-489.04 1471.5,-492.88 1467.67,-496.71 1463.83,-496.71"/>
<text text-anchor="middle" x="1426" y="-481.51" font-family="Arial" font-size="14.00" fill="#c6c5fe">src/ammo.js</text>
</g>
<!-- src/gameManager.js&#45;&gt;src/ammo.js -->
<g id="edge25" class="edge">
<title>src/gameManager.js&#45;&gt;src/ammo.js</title>
<path fill="none" stroke="#757575" d="M163.21,-805.66C177.38,-735.38 262.08,-368.21 484.5,-368.21 484.5,-368.21 484.5,-368.21 894,-368.21 1081.47,-368.21 1297.64,-438.62 1385.16,-470.2"/>
<polygon fill="#757575" stroke="#757575" points="1384.1,-473.54 1394.69,-473.67 1386.49,-466.96 1384.1,-473.54"/>
</g>
<!-- src/background.js -->
<g id="node11" class="node">
<title>src/background.js</title>
<path fill="none" stroke="#cfffac" d="M1479.33,-925.71C1479.33,-925.71 1372.67,-925.71 1372.67,-925.71 1368.83,-925.71 1365,-921.88 1365,-918.04 1365,-918.04 1365,-910.38 1365,-910.38 1365,-906.54 1368.83,-902.71 1372.67,-902.71 1372.67,-902.71 1479.33,-902.71 1479.33,-902.71 1483.17,-902.71 1487,-906.54 1487,-910.38 1487,-910.38 1487,-918.04 1487,-918.04 1487,-921.88 1483.17,-925.71 1479.33,-925.71"/>
<text text-anchor="middle" x="1426" y="-910.51" font-family="Arial" font-size="14.00" fill="#cfffac">src/background.js</text>
</g>
<!-- src/gameManager.js&#45;&gt;src/background.js -->
<g id="edge26" class="edge">
<title>src/gameManager.js&#45;&gt;src/background.js</title>
<path fill="none" stroke="#757575" d="M200.45,-828.74C260.99,-845.4 380.71,-874.21 484.5,-874.21 484.5,-874.21 484.5,-874.21 894,-874.21 1057.33,-874.21 1098.32,-878.6 1261,-893.21 1291.82,-895.98 1325.76,-900.14 1354.73,-904.02"/>
<polygon fill="#757575" stroke="#757575" points="1354.38,-907.51 1364.76,-905.39 1355.32,-900.57 1354.38,-907.51"/>
</g>
<!-- src/enemy/enemy.js -->
<g id="node12" class="node">
<title>src/enemy/enemy.js</title>
<path fill="none" stroke="#ff6c60" d="M1201.33,-769.71C1201.33,-769.71 1079.67,-769.71 1079.67,-769.71 1075.83,-769.71 1072,-765.88 1072,-762.04 1072,-762.04 1072,-754.38 1072,-754.38 1072,-750.54 1075.83,-746.71 1079.67,-746.71 1079.67,-746.71 1201.33,-746.71 1201.33,-746.71 1205.17,-746.71 1209,-750.54 1209,-754.38 1209,-754.38 1209,-762.04 1209,-762.04 1209,-765.88 1205.17,-769.71 1201.33,-769.71"/>
<text text-anchor="middle" x="1140.5" y="-754.51" font-family="Arial" font-size="14.00" fill="#ff6c60">src/enemy/enemy.js</text>
</g>
<!-- src/gameManager.js&#45;&gt;src/enemy/enemy.js -->
<g id="edge27" class="edge">
<title>src/gameManager.js&#45;&gt;src/enemy/enemy.js</title>
<path fill="none" stroke="#757575" d="M230.03,-823.61C295.48,-829.13 396.59,-836.21 484.5,-836.21 484.5,-836.21 484.5,-836.21 671.5,-836.21 825.21,-836.21 1003.51,-794.76 1088.87,-772.29"/>
<polygon fill="#757575" stroke="#757575" points="1089.8,-775.67 1098.56,-769.72 1088,-768.9 1089.8,-775.67"/>
</g>
<!-- src/music.js -->
<g id="node13" class="node">
<title>src/music.js</title>
<path fill="none" stroke="#cfffac" d="M1980.83,-302.71C1980.83,-302.71 1908.17,-302.71 1908.17,-302.71 1904.33,-302.71 1900.5,-298.88 1900.5,-295.04 1900.5,-295.04 1900.5,-287.38 1900.5,-287.38 1900.5,-283.54 1904.33,-279.71 1908.17,-279.71 1908.17,-279.71 1980.83,-279.71 1980.83,-279.71 1984.67,-279.71 1988.5,-283.54 1988.5,-287.38 1988.5,-287.38 1988.5,-295.04 1988.5,-295.04 1988.5,-298.88 1984.67,-302.71 1980.83,-302.71"/>
<text text-anchor="middle" x="1944.5" y="-287.51" font-family="Arial" font-size="14.00" fill="#cfffac">src/music.js</text>
</g>
<!-- src/gameManager.js&#45;&gt;src/music.js -->
<g id="edge32" class="edge">
<title>src/gameManager.js&#45;&gt;src/music.js</title>
<path fill="none" stroke="#757575" d="M161.98,-805.53C169.38,-718.45 217.52,-172.64 266,-119.21 333.28,-45.04 384.36,-64.21 484.5,-64.21 484.5,-64.21 484.5,-64.21 1427,-64.21 1602.88,-64.21 1667.07,-34.92 1818,-125.21 1876.66,-160.3 1917.17,-234.2 1934.31,-270.37"/>
<polygon fill="#757575" stroke="#757575" points="1931.16,-271.89 1938.52,-279.51 1937.51,-268.96 1931.16,-271.89"/>
</g>
<!-- src/rendering/Helpers.js -->
<g id="node16" class="node">
<title>src/rendering/Helpers.js</title>
<path fill="none" stroke="#cfffac" d="M2016.33,-592.71C2016.33,-592.71 1872.67,-592.71 1872.67,-592.71 1868.83,-592.71 1865,-588.88 1865,-585.04 1865,-585.04 1865,-577.38 1865,-577.38 1865,-573.54 1868.83,-569.71 1872.67,-569.71 1872.67,-569.71 2016.33,-569.71 2016.33,-569.71 2020.17,-569.71 2024,-573.54 2024,-577.38 2024,-577.38 2024,-585.04 2024,-585.04 2024,-588.88 2020.17,-592.71 2016.33,-592.71"/>
<text text-anchor="middle" x="1944.5" y="-577.51" font-family="Arial" font-size="14.00" fill="#cfffac">src/rendering/Helpers.js</text>
</g>
<!-- src/gameManager.js&#45;&gt;src/rendering/Helpers.js -->
<g id="edge34" class="edge">
<title>src/gameManager.js&#45;&gt;src/rendering/Helpers.js</title>
<path fill="none" stroke="#757575" d="M160.74,-805.69C159.31,-713.72 161.94,-102.21 484.5,-102.21 484.5,-102.21 484.5,-102.21 671.5,-102.21 799.6,-102.21 1717.55,-143.72 1818,-223.21 1825.03,-228.77 1910.91,-483.9 1936.41,-560"/>
<polygon fill="#757575" stroke="#757575" points="1933.09,-561.14 1939.59,-569.51 1939.73,-558.91 1933.09,-561.14"/>
</g>
<!-- src/scores/scores.js -->
<g id="node19" class="node">
<title>src/scores/scores.js</title>
<path fill="none" stroke="#c6c5fe" d="M1200.33,-1157.71C1200.33,-1157.71 1080.67,-1157.71 1080.67,-1157.71 1076.83,-1157.71 1073,-1153.88 1073,-1150.04 1073,-1150.04 1073,-1142.38 1073,-1142.38 1073,-1138.54 1076.83,-1134.71 1080.67,-1134.71 1080.67,-1134.71 1200.33,-1134.71 1200.33,-1134.71 1204.17,-1134.71 1208,-1138.54 1208,-1142.38 1208,-1142.38 1208,-1150.04 1208,-1150.04 1208,-1153.88 1204.17,-1157.71 1200.33,-1157.71"/>
<text text-anchor="middle" x="1140.5" y="-1142.51" font-family="Arial" font-size="14.00" fill="#c6c5fe">src/scores/scores.js</text>
</g>
<!-- src/gameManager.js&#45;&gt;src/scores/scores.js -->
<g id="edge35" class="edge">
<title>src/gameManager.js&#45;&gt;src/scores/scores.js</title>
<path fill="none" stroke="#757575" d="M164.66,-829.07C184.94,-892.23 289.83,-1186.21 484.5,-1186.21 484.5,-1186.21 484.5,-1186.21 671.5,-1186.21 809.64,-1186.21 969.88,-1168.69 1062.49,-1156.84"/>
<polygon fill="#757575" stroke="#757575" points="1063.15,-1160.29 1072.62,-1155.54 1062.25,-1153.35 1063.15,-1160.29"/>
</g>
<!-- src/enemy/enemyManager.js -->
<g id="node21" class="node">
<title>src/enemy/enemyManager.js</title>
<path fill="none" stroke="#c6c5fe" d="M758.33,-1012.71C758.33,-1012.71 582.67,-1012.71 582.67,-1012.71 578.83,-1012.71 575,-1008.88 575,-1005.04 575,-1005.04 575,-997.38 575,-997.38 575,-993.54 578.83,-989.71 582.67,-989.71 582.67,-989.71 758.33,-989.71 758.33,-989.71 762.17,-989.71 766,-993.54 766,-997.38 766,-997.38 766,-1005.04 766,-1005.04 766,-1008.88 762.17,-1012.71 758.33,-1012.71"/>
<text text-anchor="middle" x="670.5" y="-997.51" font-family="Arial" font-size="14.00" fill="#c6c5fe">src/enemy/enemyManager.js</text>
</g>
<!-- src/gameManager.js&#45;&gt;src/enemy/enemyManager.js -->
<g id="edge28" class="edge">
<title>src/gameManager.js&#45;&gt;src/enemy/enemyManager.js</title>
<path fill="none" stroke="#757575" d="M175.06,-828.91C194.41,-844.48 230.86,-871.93 266,-888.21 375.1,-938.75 511.52,-971.13 594.5,-987.73"/>
<polygon fill="#757575" stroke="#757575" points="593.86,-991.18 604.35,-989.68 595.22,-984.31 593.86,-991.18"/>
</g>
<!-- src/keyboard.js -->
<g id="node22" class="node">
<title>src/keyboard.js</title>
<path fill="none" stroke="#c6c5fe" d="M531.33,-459.71C531.33,-459.71 439.67,-459.71 439.67,-459.71 435.83,-459.71 432,-455.88 432,-452.04 432,-452.04 432,-444.38 432,-444.38 432,-440.54 435.83,-436.71 439.67,-436.71 439.67,-436.71 531.33,-436.71 531.33,-436.71 535.17,-436.71 539,-440.54 539,-444.38 539,-444.38 539,-452.04 539,-452.04 539,-455.88 535.17,-459.71 531.33,-459.71"/>
<text text-anchor="middle" x="485.5" y="-444.51" font-family="Arial" font-size="14.00" fill="#c6c5fe">src/keyboard.js</text>
</g>
<!-- src/gameManager.js&#45;&gt;src/keyboard.js -->
<g id="edge30" class="edge">
<title>src/gameManager.js&#45;&gt;src/keyboard.js</title>
<path fill="none" stroke="#757575" d="M171.4,-805.35C218.17,-752 409.34,-533.94 467.58,-467.51"/>
<polygon fill="#757575" stroke="#757575" points="470.34,-469.67 474.3,-459.84 465.08,-465.05 470.34,-469.67"/>
</g>
<!-- src/player/Player.js -->
<g id="node23" class="node">
<title>src/player/Player.js</title>
<path fill="none" stroke="#c6c5fe" d="M388.33,-303.71C388.33,-303.71 273.67,-303.71 273.67,-303.71 269.83,-303.71 266,-299.88 266,-296.04 266,-296.04 266,-288.38 266,-288.38 266,-284.54 269.83,-280.71 273.67,-280.71 273.67,-280.71 388.33,-280.71 388.33,-280.71 392.17,-280.71 396,-284.54 396,-288.38 396,-288.38 396,-296.04 396,-296.04 396,-299.88 392.17,-303.71 388.33,-303.71"/>
<text text-anchor="middle" x="331" y="-288.51" font-family="Arial" font-size="14.00" fill="#c6c5fe">src/player/Player.js</text>
</g>
<!-- src/gameManager.js&#45;&gt;src/player/Player.js -->
<g id="edge33" class="edge">
<title>src/gameManager.js&#45;&gt;src/player/Player.js</title>
<path fill="none" stroke="#757575" d="M161.25,-805.6C162.88,-751.02 175.12,-515.87 266,-354.21 275.73,-336.9 291.79,-321.36 305.39,-310.17"/>
<polygon fill="#757575" stroke="#757575" points="307.79,-312.73 313.46,-303.79 303.45,-307.24 307.79,-312.73"/>
</g>
<!-- src/step.js -->
<g id="node24" class="node">
<title>src/step.js</title>
<path fill="none" stroke="#c6c5fe" d="M923.83,-671.71C923.83,-671.71 862.17,-671.71 862.17,-671.71 858.33,-671.71 854.5,-667.88 854.5,-664.04 854.5,-664.04 854.5,-656.38 854.5,-656.38 854.5,-652.54 858.33,-648.71 862.17,-648.71 862.17,-648.71 923.83,-648.71 923.83,-648.71 927.67,-648.71 931.5,-652.54 931.5,-656.38 931.5,-656.38 931.5,-664.04 931.5,-664.04 931.5,-667.88 927.67,-671.71 923.83,-671.71"/>
<text text-anchor="middle" x="893" y="-656.51" font-family="Arial" font-size="14.00" fill="#c6c5fe">src/step.js</text>
</g>
<!-- src/gameManager.js&#45;&gt;src/step.js -->
<g id="edge36" class="edge">
<title>src/gameManager.js&#45;&gt;src/step.js</title>
<path fill="none" stroke="#757575" d="M214.75,-805.66C351.99,-776.19 713.67,-698.51 844.18,-670.48"/>
<polygon fill="#757575" stroke="#757575" points="845.22,-673.83 854.27,-668.31 843.75,-666.99 845.22,-673.83"/>
</g>
<!-- src/startScreen.js&#45;&gt;src/music.js -->
<g id="edge62" class="edge">
<title>src/startScreen.js&#45;&gt;src/music.js</title>
<path fill="none" stroke="#757575" d="M391.75,-24.49C459.2,-24.79 572.23,-25.21 669.5,-25.21 669.5,-25.21 669.5,-25.21 1427,-25.21 1601.13,-25.21 1672.08,44.82 1818,-50.21 1897.38,-101.91 1929.45,-220.79 1939.58,-269.65"/>
<polygon fill="#757575" stroke="#757575" points="1936.15,-270.33 1941.52,-279.47 1943.02,-268.98 1936.15,-270.33"/>
</g>
<!-- src/Boss.js&#45;&gt;src/gameState.js -->
<g id="edge3" class="edge">
<title>src/Boss.js&#45;&gt;src/gameState.js</title>
<path fill="none" stroke="#757575" d="M1467.12,-1265.87C1555.52,-1270.91 1763.52,-1277.96 1818,-1237.21 1923.81,-1158.06 1940.49,-980.14 1943.06,-918.07"/>
<polygon fill="#757575" stroke="#757575" points="1946.56,-917.99 1943.39,-907.88 1939.56,-917.76 1946.56,-917.99"/>
</g>
<!-- src/Boss.js&#45;&gt;src/levelCompleteScreen.js -->
<g id="edge4" class="edge">
<title>src/Boss.js&#45;&gt;src/levelCompleteScreen.js</title>
<path fill="none" stroke="#757575" d="M1467.1,-1266.2C1500.3,-1268.66 1548.71,-1272.22 1591,-1275.21 1676.15,-1281.22 1772.88,-1287.79 1843.45,-1292.53"/>
<polygon fill="#757575" stroke="#757575" points="1843.45,-1296.04 1853.66,-1293.22 1843.92,-1289.06 1843.45,-1296.04"/>
</g>
<!-- src/weapons/enemyRocketAtack.js -->
<g id="node7" class="node">
<title>src/weapons/enemyRocketAtack.js</title>
<path fill="none" stroke="#cfffac" d="M1810.33,-1124.71C1810.33,-1124.71 1598.67,-1124.71 1598.67,-1124.71 1594.83,-1124.71 1591,-1120.88 1591,-1117.04 1591,-1117.04 1591,-1109.38 1591,-1109.38 1591,-1105.54 1594.83,-1101.71 1598.67,-1101.71 1598.67,-1101.71 1810.33,-1101.71 1810.33,-1101.71 1814.17,-1101.71 1818,-1105.54 1818,-1109.38 1818,-1109.38 1818,-1117.04 1818,-1117.04 1818,-1120.88 1814.17,-1124.71 1810.33,-1124.71"/>
<text text-anchor="middle" x="1704.5" y="-1109.51" font-family="Arial" font-size="14.00" fill="#cfffac">src/weapons/enemyRocketAtack.js</text>
</g>
<!-- src/Boss.js&#45;&gt;src/weapons/enemyRocketAtack.js -->
<g id="edge5" class="edge">
<title>src/Boss.js&#45;&gt;src/weapons/enemyRocketAtack.js</title>
<path fill="none" stroke="#757575" d="M1448.24,-1251.69C1496.99,-1225.24 1617.06,-1160.1 1673.4,-1129.54"/>
<polygon fill="#757575" stroke="#757575" points="1675.07,-1132.61 1682.19,-1124.77 1671.73,-1126.46 1675.07,-1132.61"/>
</g>
<!-- src/weapons/gatling.js -->
<g id="node8" class="node">
<title>src/weapons/gatling.js</title>
<path fill="none" stroke="#c6c5fe" d="M1771.33,-730.71C1771.33,-730.71 1637.67,-730.71 1637.67,-730.71 1633.83,-730.71 1630,-726.88 1630,-723.04 1630,-723.04 1630,-715.38 1630,-715.38 1630,-711.54 1633.83,-707.71 1637.67,-707.71 1637.67,-707.71 1771.33,-707.71 1771.33,-707.71 1775.17,-707.71 1779,-711.54 1779,-715.38 1779,-715.38 1779,-723.04 1779,-723.04 1779,-726.88 1775.17,-730.71 1771.33,-730.71"/>
<text text-anchor="middle" x="1704.5" y="-715.51" font-family="Arial" font-size="14.00" fill="#c6c5fe">src/weapons/gatling.js</text>
</g>
<!-- src/Boss.js&#45;&gt;src/weapons/gatling.js -->
<g id="edge6" class="edge">
<title>src/Boss.js&#45;&gt;src/weapons/gatling.js</title>
<path fill="none" stroke="#757575" d="M1439.48,-1251.5C1465.92,-1225.87 1527.39,-1161.65 1555,-1094.21 1602.19,-978.91 1531.93,-925.9 1591,-816.21 1609.92,-781.07 1647.08,-752.97 1673.51,-736.24"/>
<polygon fill="#757575" stroke="#757575" points="1675.67,-739.01 1682.36,-730.8 1672.01,-733.05 1675.67,-739.01"/>
</g>
<!-- src/weapons/gatling.js&#45;&gt;src/gameState.js -->
<g id="edge74" class="edge">
<title>src/weapons/gatling.js&#45;&gt;src/gameState.js</title>
<path fill="none" stroke="#757575" d="M1729.24,-730.81C1752.65,-742.68 1789.03,-762.3 1818,-783.21 1858.8,-812.65 1901.29,-853.4 1924.87,-877.06"/>
<polygon fill="#757575" stroke="#757575" points="1922.6,-879.74 1932.12,-884.39 1927.58,-874.82 1922.6,-879.74"/>
</g>
<!-- src/weapons/gatling.js&#45;&gt;src/music.js -->
<g id="edge75" class="edge">
<title>src/weapons/gatling.js&#45;&gt;src/music.js</title>
<path fill="none" stroke="#757575" d="M1722.67,-707.64C1746.95,-690.49 1791.32,-656.13 1818,-617.21 1888.25,-514.72 1926.44,-367.47 1938.89,-312.75"/>
<polygon fill="#757575" stroke="#757575" points="1942.35,-313.33 1941.1,-302.8 1935.51,-311.81 1942.35,-313.33"/>
</g>
<!-- src/ammo.js&#45;&gt;src/weapons/gatling.js -->
<g id="edge7" class="edge">
<title>src/ammo.js&#45;&gt;src/weapons/gatling.js</title>
<path fill="none" stroke="#757575" d="M1440.71,-496.81C1485.49,-534.71 1627.65,-655.02 1682.05,-701.05"/>
<polygon fill="#757575" stroke="#757575" points="1679.81,-703.75 1689.71,-707.53 1684.33,-698.4 1679.81,-703.75"/>
</g>
<!-- src/weapons/rocket.js -->
<g id="node10" class="node">
<title>src/weapons/rocket.js</title>
<path fill="none" stroke="#c6c5fe" d="M1769.83,-494.71C1769.83,-494.71 1639.17,-494.71 1639.17,-494.71 1635.33,-494.71 1631.5,-490.88 1631.5,-487.04 1631.5,-487.04 1631.5,-479.38 1631.5,-479.38 1631.5,-475.54 1635.33,-471.71 1639.17,-471.71 1639.17,-471.71 1769.83,-471.71 1769.83,-471.71 1773.67,-471.71 1777.5,-475.54 1777.5,-479.38 1777.5,-479.38 1777.5,-487.04 1777.5,-487.04 1777.5,-490.88 1773.67,-494.71 1769.83,-494.71"/>
<text text-anchor="middle" x="1704.5" y="-479.51" font-family="Arial" font-size="14.00" fill="#c6c5fe">src/weapons/rocket.js</text>
</g>
<!-- src/ammo.js&#45;&gt;src/weapons/rocket.js -->
<g id="edge8" class="edge">
<title>src/ammo.js&#45;&gt;src/weapons/rocket.js</title>
<path fill="none" stroke="#757575" d="M1471.73,-484.89C1511.97,-484.59 1572.11,-484.16 1621.04,-483.81"/>
<polygon fill="#757575" stroke="#757575" points="1621.33,-487.3 1631.3,-483.73 1621.28,-480.3 1621.33,-487.3"/>
</g>
<!-- src/weapons/rocket.js&#45;&gt;src/rendering/Helpers.js -->
<g id="edge78" class="edge">
<title>src/weapons/rocket.js&#45;&gt;src/rendering/Helpers.js</title>
<path fill="none" stroke="#757575" d="M1733.74,-494.84C1776.59,-512.48 1858.1,-546.05 1905.92,-565.73"/>
<polygon fill="#757575" stroke="#757575" points="1904.72,-569.03 1915.3,-569.6 1907.39,-562.55 1904.72,-569.03"/>
</g>
<!-- src/enemy/enemy.js&#45;&gt;src/gameState.js -->
<g id="edge9" class="edge">
<title>src/enemy/enemy.js&#45;&gt;src/gameState.js</title>
<path fill="none" stroke="#757575" d="M1209.06,-767.23C1226.51,-771.07 1244.91,-776.51 1261,-784.21 1279.53,-793.07 1278.18,-804.96 1297,-813.21 1349.17,-836.09 1719.29,-874.33 1874.88,-889.61"/>
<polygon fill="#757575" stroke="#757575" points="1874.96,-893.13 1885.26,-890.63 1875.64,-886.17 1874.96,-893.13"/>
</g>
<!-- src/enemy/enemy.js&#45;&gt;src/music.js -->
<g id="edge10" class="edge">
<title>src/enemy/enemy.js&#45;&gt;src/music.js</title>
<path fill="none" stroke="#757575" d="M1159.75,-746.5C1188.37,-728.37 1245.86,-692.92 1297,-667.21 1423.86,-603.44 1454.78,-582.28 1591,-542.21 1689.21,-513.32 1733.7,-561.28 1818,-503.21 1887.16,-455.56 1924.06,-356.28 1937.5,-312.61"/>
<polygon fill="#757575" stroke="#757575" points="1940.93,-313.35 1940.42,-302.77 1934.22,-311.36 1940.93,-313.35"/>
</g>
<!-- src/rendering/EnemyCollisionsChecks.js -->
<g id="node14" class="node">
<title>src/rendering/EnemyCollisionsChecks.js</title>
<path fill="none" stroke="#ff6c60" d="M1547.33,-769.71C1547.33,-769.71 1304.67,-769.71 1304.67,-769.71 1300.83,-769.71 1297,-765.88 1297,-762.04 1297,-762.04 1297,-754.38 1297,-754.38 1297,-750.54 1300.83,-746.71 1304.67,-746.71 1304.67,-746.71 1547.33,-746.71 1547.33,-746.71 1551.17,-746.71 1555,-750.54 1555,-754.38 1555,-754.38 1555,-762.04 1555,-762.04 1555,-765.88 1551.17,-769.71 1547.33,-769.71"/>
<text text-anchor="middle" x="1426" y="-754.51" font-family="Arial" font-size="14.00" fill="#ff6c60">src/rendering/EnemyCollisionsChecks.js</text>
</g>
<!-- src/enemy/enemy.js&#45;&gt;src/rendering/EnemyCollisionsChecks.js -->
<g id="edge11" class="edge">
<title>src/enemy/enemy.js&#45;&gt;src/rendering/EnemyCollisionsChecks.js</title>
<path fill="none" stroke="#757575" d="M1209.05,-752.36C1232.43,-751.73 1259.56,-751.43 1286.53,-751.46"/>
<polygon fill="#757575" stroke="#757575" points="1286.84,-754.96 1296.85,-751.49 1286.86,-747.96 1286.84,-754.96"/>
</g>
<!-- src/rendering/Explosion.js -->
<g id="node15" class="node">
<title>src/rendering/Explosion.js</title>
<path fill="none" stroke="#cfffac" d="M1782.33,-848.71C1782.33,-848.71 1626.67,-848.71 1626.67,-848.71 1622.83,-848.71 1619,-844.88 1619,-841.04 1619,-841.04 1619,-833.38 1619,-833.38 1619,-829.54 1622.83,-825.71 1626.67,-825.71 1626.67,-825.71 1782.33,-825.71 1782.33,-825.71 1786.17,-825.71 1790,-829.54 1790,-833.38 1790,-833.38 1790,-841.04 1790,-841.04 1790,-844.88 1786.17,-848.71 1782.33,-848.71"/>
<text text-anchor="middle" x="1704.5" y="-833.51" font-family="Arial" font-size="14.00" fill="#cfffac">src/rendering/Explosion.js</text>
</g>
<!-- src/enemy/enemy.js&#45;&gt;src/rendering/Explosion.js -->
<g id="edge12" class="edge">
<title>src/enemy/enemy.js&#45;&gt;src/rendering/Explosion.js</title>
<path fill="none" stroke="#757575" d="M1209.01,-767.7C1309.37,-781.81 1498.2,-808.35 1611.24,-824.24"/>
<polygon fill="#757575" stroke="#757575" points="1610.87,-827.72 1621.26,-825.65 1611.85,-820.79 1610.87,-827.72"/>
</g>
<!-- src/enemy/enemy.js&#45;&gt;src/rendering/Helpers.js -->
<g id="edge13" class="edge">
<title>src/enemy/enemy.js&#45;&gt;src/rendering/Helpers.js</title>
<path fill="none" stroke="#757575" d="M1194.75,-746.66C1215.44,-742.17 1239.33,-736.96 1261,-732.21 1489.92,-681.98 1761.86,-621.6 1881.63,-594.97"/>
<polygon fill="#757575" stroke="#757575" points="1882.71,-598.32 1891.71,-592.73 1881.19,-591.48 1882.71,-598.32"/>
</g>
<!-- src/rendering/EnemyCollisionsChecks.js&#45;&gt;src/gameState.js -->
<g id="edge54" class="edge">
<title>src/rendering/EnemyCollisionsChecks.js&#45;&gt;src/gameState.js</title>
<path fill="none" stroke="#757575" d="M1540.65,-769.74C1637.49,-780.55 1768.58,-797.75 1818,-816.21 1857.45,-830.94 1897.54,-859.34 1921.46,-878.03"/>
<polygon fill="#757575" stroke="#757575" points="1919.51,-880.95 1929.51,-884.44 1923.86,-875.47 1919.51,-880.95"/>
</g>
<!-- src/rendering/EnemyCollisionsChecks.js&#45;&gt;src/weapons/gatling.js -->
<g id="edge58" class="edge">
<title>src/rendering/EnemyCollisionsChecks.js&#45;&gt;src/weapons/gatling.js</title>
<path fill="none" stroke="#757575" d="M1508.84,-746.67C1543.77,-741.74 1584.5,-735.99 1619.64,-731.04"/>
<polygon fill="#757575" stroke="#757575" points="1620.47,-734.46 1629.88,-729.59 1619.49,-727.52 1620.47,-734.46"/>
</g>
<!-- src/rendering/EnemyCollisionsChecks.js&#45;&gt;src/weapons/rocket.js -->
<g id="edge59" class="edge">
<title>src/rendering/EnemyCollisionsChecks.js&#45;&gt;src/weapons/rocket.js</title>
<path fill="none" stroke="#757575" d="M1433.39,-746.48C1452.92,-711.5 1515.16,-606.38 1591,-542.21 1612.66,-523.89 1640.95,-509.08 1663.75,-498.88"/>
<polygon fill="#757575" stroke="#757575" points="1665.37,-502 1673.14,-494.8 1662.58,-495.58 1665.37,-502"/>
</g>
<!-- src/rendering/EnemyCollisionsChecks.js&#45;&gt;src/enemy/enemy.js -->
<g id="edge52" class="edge">
<title>src/rendering/EnemyCollisionsChecks.js&#45;&gt;src/enemy/enemy.js</title>
<path fill="none" stroke="#757575" d="M1296.85,-764.93C1270.34,-765.04 1243.18,-764.83 1219.15,-764.3"/>
<polygon fill="#757575" stroke="#757575" points="1219.13,-760.8 1209.05,-764.06 1218.96,-767.8 1219.13,-760.8"/>
</g>
<!-- src/rendering/EnemyCollisionsChecks.js&#45;&gt;src/music.js -->
<g id="edge55" class="edge">
<title>src/rendering/EnemyCollisionsChecks.js&#45;&gt;src/music.js</title>
<path fill="none" stroke="#757575" d="M1456.14,-746.6C1542.11,-712.16 1790.43,-611.19 1818,-583.21 1896.81,-503.21 1929.63,-365.85 1939.78,-312.9"/>
<polygon fill="#757575" stroke="#757575" points="1943.24,-313.4 1941.61,-302.94 1936.36,-312.14 1943.24,-313.4"/>
</g>
<!-- src/rendering/EnemyCollisionsChecks.js&#45;&gt;src/rendering/Explosion.js -->
<g id="edge56" class="edge">
<title>src/rendering/EnemyCollisionsChecks.js&#45;&gt;src/rendering/Explosion.js</title>
<path fill="none" stroke="#757575" d="M1511.3,-769.79C1526.23,-773.38 1541.35,-778.08 1555,-784.21 1573.25,-792.4 1572.87,-802.77 1591,-811.21 1601.12,-815.92 1612.16,-819.81 1623.25,-823.01"/>
<polygon fill="#757575" stroke="#757575" points="1622.41,-826.41 1632.97,-825.65 1624.24,-819.65 1622.41,-826.41"/>
</g>
<!-- src/rendering/EnemyCollisionsChecks.js&#45;&gt;src/rendering/Helpers.js -->
<g id="edge57" class="edge">
<title>src/rendering/EnemyCollisionsChecks.js&#45;&gt;src/rendering/Helpers.js</title>
<path fill="none" stroke="#757575" d="M1555.12,-763.21C1651.23,-764.89 1773.56,-762.01 1818,-739.21 1876.72,-709.08 1916.98,-637.72 1934.15,-602.14"/>
<polygon fill="#757575" stroke="#757575" points="1937.49,-603.26 1938.56,-592.72 1931.15,-600.3 1937.49,-603.26"/>
</g>
<!-- src/gameOver.js -->
<g id="node26" class="node">
<title>src/gameOver.js</title>
<path fill="none" stroke="#c6c5fe" d="M1754.83,-574.71C1754.83,-574.71 1654.17,-574.71 1654.17,-574.71 1650.33,-574.71 1646.5,-570.88 1646.5,-567.04 1646.5,-567.04 1646.5,-559.38 1646.5,-559.38 1646.5,-555.54 1650.33,-551.71 1654.17,-551.71 1654.17,-551.71 1754.83,-551.71 1754.83,-551.71 1758.67,-551.71 1762.5,-555.54 1762.5,-559.38 1762.5,-559.38 1762.5,-567.04 1762.5,-567.04 1762.5,-570.88 1758.67,-574.71 1754.83,-574.71"/>
<text text-anchor="middle" x="1704.5" y="-559.51" font-family="Arial" font-size="14.00" fill="#c6c5fe">src/gameOver.js</text>
</g>
<!-- src/rendering/EnemyCollisionsChecks.js&#45;&gt;src/gameOver.js -->
<g id="edge53" class="edge">
<title>src/rendering/EnemyCollisionsChecks.js&#45;&gt;src/gameOver.js</title>
<path fill="none" stroke="#757575" d="M1436.73,-746.59C1465.97,-711.95 1553.35,-610.46 1591,-589.21 1604.75,-581.45 1620.68,-576 1636.16,-572.18"/>
<polygon fill="#757575" stroke="#757575" points="1637.26,-575.52 1646.24,-569.9 1635.71,-568.7 1637.26,-575.52"/>
</g>
<!-- src/enemy/enemyFactory.js -->
<g id="node17" class="node">
<title>src/enemy/enemyFactory.js</title>
<path fill="none" stroke="#c6c5fe" d="M976.33,-1041.71C976.33,-1041.71 809.67,-1041.71 809.67,-1041.71 805.83,-1041.71 802,-1037.88 802,-1034.04 802,-1034.04 802,-1026.38 802,-1026.38 802,-1022.54 805.83,-1018.71 809.67,-1018.71 809.67,-1018.71 976.33,-1018.71 976.33,-1018.71 980.17,-1018.71 984,-1022.54 984,-1026.38 984,-1026.38 984,-1034.04 984,-1034.04 984,-1037.88 980.17,-1041.71 976.33,-1041.71"/>
<text text-anchor="middle" x="893" y="-1026.51" font-family="Arial" font-size="14.00" fill="#c6c5fe">src/enemy/enemyFactory.js</text>
</g>
<!-- src/enemy/enemyFactory.js&#45;&gt;src/weapons/enemyRocketAtack.js -->
<g id="edge17" class="edge">
<title>src/enemy/enemyFactory.js&#45;&gt;src/weapons/enemyRocketAtack.js</title>
<path fill="none" stroke="#757575" d="M927,-1041.76C952.18,-1050.11 987.88,-1060.99 1020,-1067.21 1213.5,-1104.7 1442.92,-1112.93 1580.65,-1114.07"/>
<polygon fill="#757575" stroke="#757575" points="1580.79,-1117.57 1590.82,-1114.14 1580.84,-1110.57 1580.79,-1117.57"/>
</g>
<!-- src/enemy/enemyFactory.js&#45;&gt;src/weapons/gatling.js -->
<g id="edge18" class="edge">
<title>src/enemy/enemyFactory.js&#45;&gt;src/weapons/gatling.js</title>
<path fill="none" stroke="#757575" d="M984.11,-1027.52C1154.97,-1021.58 1512.82,-1004.9 1555,-968.21 1607.38,-922.65 1554.96,-875.54 1591,-816.21 1611.84,-781.9 1648.93,-753.46 1674.8,-736.42"/>
<polygon fill="#757575" stroke="#757575" points="1676.91,-739.23 1683.44,-730.89 1673.13,-733.34 1676.91,-739.23"/>
</g>
<!-- src/enemy/enemyFactory.js&#45;&gt;src/enemy/enemy.js -->
<g id="edge14" class="edge">
<title>src/enemy/enemyFactory.js&#45;&gt;src/enemy/enemy.js</title>
<path fill="none" stroke="#757575" d="M904.55,-1018.52C942.79,-976.15 1074.42,-830.32 1122.09,-777.5"/>
<polygon fill="#757575" stroke="#757575" points="1124.89,-779.62 1128.99,-769.85 1119.69,-774.93 1124.89,-779.62"/>
</g>
<!-- src/enemy/enemyManoeuvre.js -->
<g id="node18" class="node">
<title>src/enemy/enemyManoeuvre.js</title>
<path fill="none" stroke="#c6c5fe" d="M1235.83,-925.71C1235.83,-925.71 1045.17,-925.71 1045.17,-925.71 1041.33,-925.71 1037.5,-921.88 1037.5,-918.04 1037.5,-918.04 1037.5,-910.38 1037.5,-910.38 1037.5,-906.54 1041.33,-902.71 1045.17,-902.71 1045.17,-902.71 1235.83,-902.71 1235.83,-902.71 1239.67,-902.71 1243.5,-906.54 1243.5,-910.38 1243.5,-910.38 1243.5,-918.04 1243.5,-918.04 1243.5,-921.88 1239.67,-925.71 1235.83,-925.71"/>
<text text-anchor="middle" x="1140.5" y="-910.51" font-family="Arial" font-size="14.00" fill="#c6c5fe">src/enemy/enemyManoeuvre.js</text>
</g>
<!-- src/enemy/enemyFactory.js&#45;&gt;src/enemy/enemyManoeuvre.js -->
<g id="edge15" class="edge">
<title>src/enemy/enemyFactory.js&#45;&gt;src/enemy/enemyManoeuvre.js</title>
<path fill="none" stroke="#757575" d="M918.44,-1018.66C962.53,-997.83 1055.47,-953.91 1105.65,-930.2"/>
<polygon fill="#757575" stroke="#757575" points="1107.25,-933.32 1114.8,-925.88 1104.26,-926.99 1107.25,-933.32"/>
</g>
<!-- src/enemy/enemyFactory.js&#45;&gt;src/scores/scores.js -->
<g id="edge16" class="edge">
<title>src/enemy/enemyFactory.js&#45;&gt;src/scores/scores.js</title>
<path fill="none" stroke="#757575" d="M906.51,-1041.86C927.99,-1061.2 974.04,-1099.84 1020,-1120.21 1033.41,-1126.15 1048.27,-1130.78 1062.84,-1134.37"/>
<polygon fill="#757575" stroke="#757575" points="1062.33,-1137.84 1072.86,-1136.69 1063.91,-1131.02 1062.33,-1137.84"/>
</g>
<!-- src/weapons/groundEnemyAttack.js -->
<g id="node20" class="node">
<title>src/weapons/groundEnemyAttack.js</title>
<path fill="none" stroke="#c6c5fe" d="M1534.33,-1084.71C1534.33,-1084.71 1317.67,-1084.71 1317.67,-1084.71 1313.83,-1084.71 1310,-1080.88 1310,-1077.04 1310,-1077.04 1310,-1069.38 1310,-1069.38 1310,-1065.54 1313.83,-1061.71 1317.67,-1061.71 1317.67,-1061.71 1534.33,-1061.71 1534.33,-1061.71 1538.17,-1061.71 1542,-1065.54 1542,-1069.38 1542,-1069.38 1542,-1077.04 1542,-1077.04 1542,-1080.88 1538.17,-1084.71 1534.33,-1084.71"/>
<text text-anchor="middle" x="1426" y="-1069.51" font-family="Arial" font-size="14.00" fill="#c6c5fe">src/weapons/groundEnemyAttack.js</text>
</g>
<!-- src/enemy/enemyFactory.js&#45;&gt;src/weapons/groundEnemyAttack.js -->
<g id="edge19" class="edge">
<title>src/enemy/enemyFactory.js&#45;&gt;src/weapons/groundEnemyAttack.js</title>
<path fill="none" stroke="#757575" d="M984.12,-1040.66C996.18,-1041.93 1008.38,-1043.15 1020,-1044.21 1113.58,-1052.75 1219.51,-1060.26 1299.56,-1065.5"/>
<polygon fill="#757575" stroke="#757575" points="1299.48,-1069 1309.69,-1066.16 1299.93,-1062.01 1299.48,-1069"/>
</g>
<!-- src/enemy/enemyManoeuvre.js&#45;&gt;src/background.js -->
<g id="edge23" class="edge">
<title>src/enemy/enemyManoeuvre.js&#45;&gt;src/background.js</title>
<path fill="none" stroke="#757575" d="M1243.85,-914.21C1280.65,-914.21 1321.29,-914.21 1354.74,-914.21"/>
<polygon fill="#757575" stroke="#757575" points="1354.88,-917.71 1364.88,-914.21 1354.88,-910.71 1354.88,-917.71"/>
</g>
<!-- src/scores/currentGameScore.js -->
<g id="node30" class="node">
<title>src/scores/currentGameScore.js</title>
<path fill="none" stroke="#c6c5fe" d="M1523.83,-1043.71C1523.83,-1043.71 1328.17,-1043.71 1328.17,-1043.71 1324.33,-1043.71 1320.5,-1039.88 1320.5,-1036.04 1320.5,-1036.04 1320.5,-1028.38 1320.5,-1028.38 1320.5,-1024.54 1324.33,-1020.71 1328.17,-1020.71 1328.17,-1020.71 1523.83,-1020.71 1523.83,-1020.71 1527.67,-1020.71 1531.5,-1024.54 1531.5,-1028.38 1531.5,-1028.38 1531.5,-1036.04 1531.5,-1036.04 1531.5,-1039.88 1527.67,-1043.71 1523.83,-1043.71"/>
<text text-anchor="middle" x="1426" y="-1028.51" font-family="Arial" font-size="14.00" fill="#c6c5fe">src/scores/currentGameScore.js</text>
</g>
<!-- src/scores/scores.js&#45;&gt;src/scores/currentGameScore.js -->
<g id="edge61" class="edge">
<title>src/scores/scores.js&#45;&gt;src/scores/currentGameScore.js</title>
<path fill="none" stroke="#757575" d="M1156.41,-1134.63C1183.02,-1114.59 1241.17,-1073.64 1297,-1053.21 1304.29,-1050.54 1311.93,-1048.21 1319.7,-1046.18"/>
<polygon fill="#757575" stroke="#757575" points="1320.72,-1049.53 1329.6,-1043.76 1319.05,-1042.73 1320.72,-1049.53"/>
</g>
<!-- src/weapons/groundEnemyAttack.js&#45;&gt;src/gameState.js -->
<g id="edge76" class="edge">
<title>src/weapons/groundEnemyAttack.js&#45;&gt;src/gameState.js</title>
<path fill="none" stroke="#757575" d="M1519.63,-1061.66C1601.05,-1049.1 1721.29,-1024.6 1818,-980.21 1856.84,-962.38 1897.09,-933.21 1921.22,-914.36"/>
<polygon fill="#757575" stroke="#757575" points="1923.68,-916.87 1929.34,-907.92 1919.33,-911.39 1923.68,-916.87"/>
</g>
<!-- src/weapons/groundEnemyAttack.js&#45;&gt;src/weapons/enemyRocketAtack.js -->
<g id="edge77" class="edge">
<title>src/weapons/groundEnemyAttack.js&#45;&gt;src/weapons/enemyRocketAtack.js</title>
<path fill="none" stroke="#757575" d="M1506.6,-1084.72C1540.15,-1089.58 1579.34,-1095.25 1613.89,-1100.25"/>
<polygon fill="#757575" stroke="#757575" points="1613.58,-1103.74 1623.98,-1101.7 1614.58,-1096.81 1613.58,-1103.74"/>
</g>
<!-- src/enemy/enemyManager.js&#45;&gt;src/gameState.js -->
<g id="edge21" class="edge">
<title>src/enemy/enemyManager.js&#45;&gt;src/gameState.js</title>
<path fill="none" stroke="#757575" d="M688.61,-1012.82C737.55,-1045.23 883.38,-1136.33 1020,-1167.21 1194.8,-1206.71 1754.17,-1175.34 1818,-1134.21 1896.69,-1083.51 1929.08,-966.35 1939.45,-917.84"/>
<polygon fill="#757575" stroke="#757575" points="1942.92,-918.32 1941.48,-907.82 1936.06,-916.93 1942.92,-918.32"/>
</g>
<!-- src/enemy/enemyManager.js&#45;&gt;src/weapons/gatling.js -->
<g id="edge22" class="edge">
<title>src/enemy/enemyManager.js&#45;&gt;src/weapons/gatling.js</title>
<path fill="none" stroke="#757575" d="M766.33,-996.88C988.16,-986.37 1524.57,-958.58 1555,-934.21 1597.8,-899.94 1561.06,-862.14 1591,-816.21 1613.05,-782.39 1650.2,-753.66 1675.74,-736.44"/>
<polygon fill="#757575" stroke="#757575" points="1677.81,-739.26 1684.24,-730.84 1673.96,-733.42 1677.81,-739.26"/>
</g>
<!-- src/enemy/enemyManager.js&#45;&gt;src/enemy/enemyFactory.js -->
<g id="edge20" class="edge">
<title>src/enemy/enemyManager.js&#45;&gt;src/enemy/enemyFactory.js</title>
<path fill="none" stroke="#757575" d="M758.96,-1012.71C770.5,-1014.23 782.38,-1015.79 794.07,-1017.33"/>
<polygon fill="#757575" stroke="#757575" points="793.91,-1020.84 804.28,-1018.67 794.82,-1013.9 793.91,-1020.84"/>
</g>
<!-- src/keyboard.js&#45;&gt;src/gameState.js -->
<g id="edge42" class="edge">
<title>src/keyboard.js&#45;&gt;src/gameState.js</title>
<path fill="none" stroke="#757575" d="M499.92,-459.72C542.2,-495.61 677.22,-607.39 802,-680.21 1163.6,-891.23 1689.29,-902.05 1875.24,-898.6"/>
<polygon fill="#757575" stroke="#757575" points="1875.49,-902.09 1885.41,-898.39 1875.34,-895.1 1875.49,-902.09"/>
</g>
<!-- src/keyboard.js&#45;&gt;src/weapons/rocket.js -->
<g id="edge45" class="edge">
<title>src/keyboard.js&#45;&gt;src/weapons/rocket.js</title>
<path fill="none" stroke="#757575" d="M539.12,-446.91C694.65,-443.52 1165.69,-436.48 1555,-464.21 1576.49,-465.74 1599.62,-468.27 1621.09,-470.99"/>
<polygon fill="#757575" stroke="#757575" points="1620.79,-474.48 1631.15,-472.3 1621.69,-467.54 1620.79,-474.48"/>
</g>
<!-- src/keyboard.js&#45;&gt;src/music.js -->
<g id="edge43" class="edge">
<title>src/keyboard.js&#45;&gt;src/music.js</title>
<path fill="none" stroke="#757575" d="M495.04,-436.61C534.18,-384.93 702.55,-178.21 892,-178.21 892,-178.21 892,-178.21 1141.5,-178.21 1442.36,-178.21 1533,-105.81 1818,-202.21 1860.78,-216.68 1901.79,-250.85 1924.71,-272.39"/>
<polygon fill="#757575" stroke="#757575" points="1922.4,-275.03 1932.04,-279.43 1927.25,-269.98 1922.4,-275.03"/>
</g>
<!-- src/gameMenuActions.js -->
<g id="node25" class="node">
<title>src/gameMenuActions.js</title>
<path fill="none" stroke="#c6c5fe" d="M745.33,-419.71C745.33,-419.71 595.67,-419.71 595.67,-419.71 591.83,-419.71 588,-415.88 588,-412.04 588,-412.04 588,-404.38 588,-404.38 588,-400.54 591.83,-396.71 595.67,-396.71 595.67,-396.71 745.33,-396.71 745.33,-396.71 749.17,-396.71 753,-400.54 753,-404.38 753,-404.38 753,-412.04 753,-412.04 753,-415.88 749.17,-419.71 745.33,-419.71"/>
<text text-anchor="middle" x="670.5" y="-404.51" font-family="Arial" font-size="14.00" fill="#c6c5fe">src/gameMenuActions.js</text>
</g>
<!-- src/keyboard.js&#45;&gt;src/gameMenuActions.js -->
<g id="edge41" class="edge">
<title>src/keyboard.js&#45;&gt;src/gameMenuActions.js</title>
<path fill="none" stroke="#757575" d="M539.43,-436.64C560.49,-432.04 584.87,-426.71 606.81,-421.91"/>
<polygon fill="#757575" stroke="#757575" points="607.67,-425.31 616.69,-419.75 606.17,-418.47 607.67,-425.31"/>
</g>
<!-- src/touch.js -->
<g id="node27" class="node">
<title>src/touch.js</title>
<path fill="none" stroke="#c6c5fe" d="M927.83,-496.71C927.83,-496.71 858.17,-496.71 858.17,-496.71 854.33,-496.71 850.5,-492.88 850.5,-489.04 850.5,-489.04 850.5,-481.38 850.5,-481.38 850.5,-477.54 854.33,-473.71 858.17,-473.71 858.17,-473.71 927.83,-473.71 927.83,-473.71 931.67,-473.71 935.5,-477.54 935.5,-481.38 935.5,-481.38 935.5,-489.04 935.5,-489.04 935.5,-492.88 931.67,-496.71 927.83,-496.71"/>
<text text-anchor="middle" x="893" y="-481.51" font-family="Arial" font-size="14.00" fill="#c6c5fe">src/touch.js</text>
</g>
<!-- src/keyboard.js&#45;&gt;src/touch.js -->
<g id="edge44" class="edge">
<title>src/keyboard.js&#45;&gt;src/touch.js</title>
<path fill="none" stroke="#757575" d="M539.28,-457.31C551.01,-459.12 563.41,-460.87 575,-462.21 668.21,-472.94 777.45,-479.56 840.3,-482.8"/>
<polygon fill="#757575" stroke="#757575" points="840.19,-486.3 850.36,-483.31 840.55,-479.31 840.19,-486.3"/>
</g>
<!-- src/player/Player.js&#45;&gt;src/gameState.js -->
<g id="edge47" class="edge">
<title>src/player/Player.js&#45;&gt;src/gameState.js</title>
<path fill="none" stroke="#757575" d="M362.2,-280.67C420.62,-259.41 553.58,-216.21 669.5,-216.21 669.5,-216.21 669.5,-216.21 1427,-216.21 1616.67,-216.21 1710.96,-230.63 1818,-387.21 1872.43,-466.83 1831.95,-507.31 1854,-601.21 1878.45,-705.35 1919.28,-826.71 1936.01,-874.91"/>
<polygon fill="#757575" stroke="#757575" points="1932.77,-876.26 1939.37,-884.55 1939.38,-873.96 1932.77,-876.26"/>
</g>
<!-- src/player/Player.js&#45;&gt;src/weapons/gatling.js -->
<g id="edge50" class="edge">
<title>src/player/Player.js&#45;&gt;src/weapons/gatling.js</title>
<path fill="none" stroke="#757575" d="M395.83,-303.71C463.52,-314.9 573.68,-330.21 669.5,-330.21 669.5,-330.21 669.5,-330.21 1141.5,-330.21 1334.69,-330.21 1419.74,-326.27 1555,-464.21 1593.69,-503.66 1564.88,-534.52 1591,-583.21 1616.1,-629.99 1658.75,-675.74 1683.7,-700.43"/>
<polygon fill="#757575" stroke="#757575" points="1681.53,-703.2 1691.14,-707.68 1686.42,-698.19 1681.53,-703.2"/>
</g>
<!-- src/player/Player.js&#45;&gt;src/weapons/rocket.js -->
<g id="edge51" class="edge">
<title>src/player/Player.js&#45;&gt;src/weapons/rocket.js</title>
<path fill="none" stroke="#757575" d="M395.83,-280.7C463.52,-269.52 573.68,-254.21 669.5,-254.21 669.5,-254.21 669.5,-254.21 1141.5,-254.21 1325.59,-254.21 1393.53,-189.8 1555,-278.21 1630.85,-319.74 1677.83,-418.54 1695.51,-462.04"/>
<polygon fill="#757575" stroke="#757575" points="1692.36,-463.59 1699.29,-471.61 1698.87,-461.02 1692.36,-463.59"/>
</g>
<!-- src/player/Player.js&#45;&gt;src/music.js -->
<g id="edge49" class="edge">
<title>src/player/Player.js&#45;&gt;src/music.js</title>
<path fill="none" stroke="#757575" d="M340.62,-280.51C356.25,-260.35 391.41,-219.57 432,-202.21 891.43,-5.7 1055.32,-146.31 1555,-148.21 1671.89,-148.65 1711.53,-101.95 1818,-150.21 1873.18,-175.22 1914.11,-237.64 1932.6,-270.4"/>
<polygon fill="#757575" stroke="#757575" points="1929.73,-272.45 1937.61,-279.54 1935.87,-269.08 1929.73,-272.45"/>
</g>
<!-- src/player/Player.js&#45;&gt;src/keyboard.js -->
<g id="edge48" class="edge">
<title>src/player/Player.js&#45;&gt;src/keyboard.js</title>
<path fill="none" stroke="#757575" d="M343.46,-303.93C369.63,-330.7 433.95,-396.49 465.88,-429.17"/>
<polygon fill="#757575" stroke="#757575" points="463.41,-431.64 472.9,-436.35 468.42,-426.75 463.41,-431.64"/>
</g>
<!-- src/player/Player.js&#45;&gt;src/gameOver.js -->
<g id="edge46" class="edge">
<title>src/player/Player.js&#45;&gt;src/gameOver.js</title>
<path fill="none" stroke="#757575" d="M396.07,-292.21C463.96,-292.21 574.29,-292.21 669.5,-292.21 669.5,-292.21 669.5,-292.21 1141.5,-292.21 1233.54,-292.21 1485.76,-255.57 1555,-316.21 1618.67,-371.97 1540.76,-435.1 1591,-503.21 1606.46,-524.17 1631.48,-538.54 1654.01,-547.95"/>
<polygon fill="#757575" stroke="#757575" points="1652.89,-551.27 1663.47,-551.68 1655.45,-544.76 1652.89,-551.27"/>
</g>
<!-- src/step.js&#45;&gt;src/gameState.js -->
<g id="edge67" class="edge">
<title>src/step.js&#45;&gt;src/gameState.js</title>
<path fill="none" stroke="#757575" d="M931.7,-670.72C956.55,-677.12 989.95,-684.72 1020,-688.21 1042.02,-690.77 1798.64,-687.4 1818,-698.21 1887.45,-736.98 1924,-831.95 1937.41,-874.72"/>
<polygon fill="#757575" stroke="#757575" points="1934.09,-875.83 1940.33,-884.4 1940.8,-873.81 1934.09,-875.83"/>
</g>
<!-- src/step.js&#45;&gt;src/weapons/gatling.js -->
<g id="edge71" class="edge">
<title>src/step.js&#45;&gt;src/weapons/gatling.js</title>
<path fill="none" stroke="#757575" d="M920.92,-648.71C946.02,-638.65 984.78,-624.79 1020,-619.21 1262.68,-580.72 1554.73,-667.9 1661.67,-704.24"/>
<polygon fill="#757575" stroke="#757575" points="1660.84,-707.65 1671.43,-707.59 1663.11,-701.03 1660.84,-707.65"/>
</g>
<!-- src/step.js&#45;&gt;src/ammo.js -->
<g id="edge63" class="edge">
<title>src/step.js&#45;&gt;src/ammo.js</title>
<path fill="none" stroke="#757575" d="M902.97,-648.67C921.82,-625.33 968.11,-572.67 1020,-548.21 1051.15,-533.52 1266.81,-505.02 1370.1,-492"/>
<polygon fill="#757575" stroke="#757575" points="1370.84,-495.43 1380.33,-490.71 1369.97,-488.48 1370.84,-495.43"/>
</g>
<!-- src/step.js&#45;&gt;src/weapons/rocket.js -->
<g id="edge72" class="edge">
<title>src/step.js&#45;&gt;src/weapons/rocket.js</title>
<path fill="none" stroke="#757575" d="M916.64,-648.64C941.42,-636.43 982.62,-617.42 1020,-606.21 1131.8,-572.67 1465.48,-519.5 1621.45,-495.58"/>
<polygon fill="#757575" stroke="#757575" points="1622.11,-499.02 1631.46,-494.05 1621.05,-492.1 1622.11,-499.02"/>
</g>
<!-- src/step.js&#45;&gt;src/background.js -->
<g id="edge64" class="edge">
<title>src/step.js&#45;&gt;src/background.js</title>
<path fill="none" stroke="#757575" d="M903.51,-672.01C922.98,-695.46 969.82,-748.25 1020,-778.21 1028.06,-783.02 1276.7,-865.29 1380.34,-899.49"/>
<polygon fill="#757575" stroke="#757575" points="1379.31,-902.83 1389.9,-902.64 1381.5,-896.18 1379.31,-902.83"/>
</g>
<!-- src/step.js&#45;&gt;src/enemy/enemy.js -->
<g id="edge65" class="edge">
<title>src/step.js&#45;&gt;src/enemy/enemy.js</title>
<path fill="none" stroke="#757575" d="M910.3,-671.71C933.57,-687.6 978.14,-716.13 1020,-732.21 1033.29,-737.31 1047.81,-741.52 1062.01,-744.96"/>
<polygon fill="#757575" stroke="#757575" points="1061.23,-748.38 1071.77,-747.22 1062.81,-741.56 1061.23,-748.38"/>
</g>
<!-- src/step.js&#45;&gt;src/gameOver.js -->
<g id="edge66" class="edge">
<title>src/step.js&#45;&gt;src/gameOver.js</title>
<path fill="none" stroke="#757575" d="M931.57,-668.85C999.89,-682.73 1147.88,-704.21 1261,-660.21 1281.23,-652.34 1277.47,-636.69 1297,-627.21 1416.11,-569.4 1460.12,-599.2 1591,-579.21 1605.58,-576.98 1621.23,-574.69 1636.1,-572.56"/>
<polygon fill="#757575" stroke="#757575" points="1636.83,-576 1646.23,-571.12 1635.84,-569.07 1636.83,-576"/>
</g>
<!-- src/mobile/mobileVelocityController.js -->
<g id="node28" class="node">
<title>src/mobile/mobileVelocityController.js</title>
<path fill="none" stroke="#cfffac" d="M1253.33,-651.71C1253.33,-651.71 1027.67,-651.71 1027.67,-651.71 1023.83,-651.71 1020,-647.88 1020,-644.04 1020,-644.04 1020,-636.38 1020,-636.38 1020,-632.54 1023.83,-628.71 1027.67,-628.71 1027.67,-628.71 1253.33,-628.71 1253.33,-628.71 1257.17,-628.71 1261,-632.54 1261,-636.38 1261,-636.38 1261,-644.04 1261,-644.04 1261,-647.88 1257.17,-651.71 1253.33,-651.71"/>
<text text-anchor="middle" x="1140.5" y="-636.51" font-family="Arial" font-size="14.00" fill="#cfffac">src/mobile/mobileVelocityController.js</text>
</g>
<!-- src/step.js&#45;&gt;src/mobile/mobileVelocityController.js -->
<g id="edge68" class="edge">
<title>src/step.js&#45;&gt;src/mobile/mobileVelocityController.js</title>
<path fill="none" stroke="#757575" d="M931.55,-657.15C952.88,-655.41 980.98,-653.12 1009.6,-650.79"/>
<polygon fill="#757575" stroke="#757575" points="1010.05,-654.27 1019.73,-649.97 1009.48,-647.29 1010.05,-654.27"/>
</g>
<!-- src/mobileJoystick.js -->
<g id="node29" class="node">
<title>src/mobileJoystick.js</title>
<path fill="none" stroke="#cfffac" d="M1202.83,-495.71C1202.83,-495.71 1078.17,-495.71 1078.17,-495.71 1074.33,-495.71 1070.5,-491.88 1070.5,-488.04 1070.5,-488.04 1070.5,-480.38 1070.5,-480.38 1070.5,-476.54 1074.33,-472.71 1078.17,-472.71 1078.17,-472.71 1202.83,-472.71 1202.83,-472.71 1206.67,-472.71 1210.5,-476.54 1210.5,-480.38 1210.5,-480.38 1210.5,-488.04 1210.5,-488.04 1210.5,-491.88 1206.67,-495.71 1202.83,-495.71"/>
<text text-anchor="middle" x="1140.5" y="-480.51" font-family="Arial" font-size="14.00" fill="#cfffac">src/mobileJoystick.js</text>
</g>
<!-- src/step.js&#45;&gt;src/mobileJoystick.js -->
<g id="edge69" class="edge">
<title>src/step.js&#45;&gt;src/mobileJoystick.js</title>
<path fill="none" stroke="#757575" d="M900.13,-648.59C915.86,-620.03 960.61,-546.07 1020,-510.21 1032.26,-502.81 1046.35,-497.5 1060.46,-493.7"/>
<polygon fill="#757575" stroke="#757575" points="1061.33,-497.09 1070.21,-491.3 1059.66,-490.29 1061.33,-497.09"/>
</g>
<!-- src/step.js&#45;&gt;src/scores/currentGameScore.js -->
<g id="edge70" class="edge">
<title>src/step.js&#45;&gt;src/scores/currentGameScore.js</title>
<path fill="none" stroke="#757575" d="M895.68,-671.73C902.47,-713.98 931.87,-861.68 1020,-934.21 1101.62,-1001.38 1222.01,-1023.8 1310.32,-1030.67"/>
<polygon fill="#757575" stroke="#757575" points="1310.16,-1034.17 1320.38,-1031.39 1310.66,-1027.18 1310.16,-1034.17"/>
</g>
<!-- src/gameMenuActions.js&#45;&gt;src/gameState.js -->
<g id="edge37" class="edge">
<title>src/gameMenuActions.js&#45;&gt;src/gameState.js</title>
<path fill="none" stroke="#757575" d="M753.08,-407.65C846.47,-407.06 1004.01,-406.21 1139.5,-406.21 1139.5,-406.21 1139.5,-406.21 1427,-406.21 1602.55,-406.21 1687.16,-345.16 1818,-462.21 1865.56,-504.76 1836.73,-539.77 1854,-601.21 1882.95,-704.2 1921.25,-826.2 1936.66,-874.74"/>
<polygon fill="#757575" stroke="#757575" points="1933.38,-875.99 1939.74,-884.46 1940.05,-873.87 1933.38,-875.99"/>
</g>
<!-- src/gameMenuActions.js&#45;&gt;src/step.js -->
<g id="edge38" class="edge">
<title>src/gameMenuActions.js&#45;&gt;src/step.js</title>
<path fill="none" stroke="#757575" d="M681.84,-420.03C716.93,-460.13 831.71,-591.31 875.14,-640.95"/>
<polygon fill="#757575" stroke="#757575" points="872.72,-643.49 881.94,-648.71 877.99,-638.88 872.72,-643.49"/>
</g>
<!-- src/gameOver.js&#45;&gt;src/levelCompleteScreen.js -->
<g id="edge39" class="edge">
<title>src/gameOver.js&#45;&gt;src/levelCompleteScreen.js</title>
<path fill="none" stroke="#757575" d="M1719.27,-574.99C1743.59,-596.67 1793.88,-645.5 1818,-698.21 1858.87,-787.5 1834.82,-819.9 1854,-916.21 1881.63,-1054.93 1923.15,-1219.93 1937.99,-1277.85"/>
<polygon fill="#757575" stroke="#757575" points="1934.63,-1278.86 1940.51,-1287.67 1941.41,-1277.12 1934.63,-1278.86"/>
</g>
<!-- src/gameOver.js&#45;&gt;src/music.js -->
<g id="edge40" class="edge">
<title>src/gameOver.js&#45;&gt;src/music.js</title>
<path fill="none" stroke="#757575" d="M1762.6,-559.7C1781.79,-556.15 1802.28,-549.49 1818,-537.21 1893.54,-478.2 1927.64,-361.32 1938.95,-312.95"/>
<polygon fill="#757575" stroke="#757575" points="1942.42,-313.48 1941.18,-302.96 1935.59,-311.95 1942.42,-313.48"/>
</g>
<!-- src/touch.js&#45;&gt;src/mobileJoystick.js -->
<g id="edge73" class="edge">
<title>src/touch.js&#45;&gt;src/mobileJoystick.js</title>
<path fill="none" stroke="#757575" d="M935.65,-485.04C969.64,-484.9 1018.66,-484.7 1060.11,-484.53"/>
<polygon fill="#757575" stroke="#757575" points="1060.21,-488.03 1070.2,-484.49 1060.18,-481.03 1060.21,-488.03"/>
</g>
<!-- src/scores/currentGameScore.js&#45;&gt;src/gameState.js -->
<g id="edge60" class="edge">
<title>src/scores/currentGameScore.js&#45;&gt;src/gameState.js</title>
<path fill="none" stroke="#757575" d="M1488.73,-1020.65C1509.83,-1016.44 1533.51,-1011.42 1555,-1006.21 1679.27,-976.04 1823.7,-933.01 1896.46,-910.77"/>
<polygon fill="#757575" stroke="#757575" points="1897.71,-914.05 1906.24,-907.77 1895.66,-907.36 1897.71,-914.05"/>
</g>
</g>
</svg>
