<?xml version="1.0" encoding="UTF-8" standalone="no"?>
<!DOCTYPE svg PUBLIC "-//W3C//DTD SVG 1.1//EN"
 "http://www.w3.org/Graphics/SVG/1.1/DTD/svg11.dtd">
<!-- Generated by graphviz version 8.0.2 (20230410.1723)
 -->
<!-- Title: G Pages: 1 -->
<svg width="1202pt" height="529pt"
 viewBox="0.00 0.00 1202.20 529.20" xmlns="http://www.w3.org/2000/svg" xmlns:xlink="http://www.w3.org/1999/xlink">
<g id="graph0" class="graph" transform="scale(1 1) rotate(0) translate(21.6 507.6)">
<title>G</title>
<polygon fill="#111111" stroke="none" points="-21.6,21.6 -21.6,-507.6 1180.6,-507.6 1180.6,21.6 -21.6,21.6"/>
<!-- app.js -->
<g id="node1" class="node">
<title>app.js</title>
<path fill="none" stroke="#c6c5fe" d="M47.33,-70.5C47.33,-70.5 7.67,-70.5 7.67,-70.5 3.83,-70.5 0,-66.67 0,-62.83 0,-62.83 0,-55.17 0,-55.17 0,-51.33 3.83,-47.5 7.67,-47.5 7.67,-47.5 47.33,-47.5 47.33,-47.5 51.17,-47.5 55,-51.33 55,-55.17 55,-55.17 55,-62.83 55,-62.83 55,-66.67 51.17,-70.5 47.33,-70.5"/>
<text text-anchor="middle" x="27.5" y="-55.3" font-family="Arial" font-size="14.00" fill="#c6c5fe">app.js</text>
</g>
<!-- src/gameManager.js -->
<g id="node2" class="node">
<title>src/gameManager.js</title>
<path fill="none" stroke="#c6c5fe" d="M228.33,-148.5C228.33,-148.5 98.67,-148.5 98.67,-148.5 94.83,-148.5 91,-144.67 91,-140.83 91,-140.83 91,-133.17 91,-133.17 91,-129.33 94.83,-125.5 98.67,-125.5 98.67,-125.5 228.33,-125.5 228.33,-125.5 232.17,-125.5 236,-129.33 236,-133.17 236,-133.17 236,-140.83 236,-140.83 236,-144.67 232.17,-148.5 228.33,-148.5"/>
<text text-anchor="middle" x="163.5" y="-133.3" font-family="Arial" font-size="14.00" fill="#c6c5fe">src/gameManager.js</text>
</g>
<!-- app.js&#45;&gt;src/gameManager.js -->
<g id="edge1" class="edge">
<title>app.js&#45;&gt;src/gameManager.js</title>
<path fill="none" stroke="#757575" d="M48.85,-70.85C71.18,-83.85 107.24,-104.84 132.75,-119.68"/>
<polygon fill="#757575" stroke="#757575" points="130.55,-123.04 140.96,-125.04 134.08,-116.99 130.55,-123.04"/>
</g>
<!-- src/music.js -->
<g id="node3" class="node">
<title>src/music.js</title>
<path fill="none" stroke="#cfffac" d="M1150.83,-126.5C1150.83,-126.5 1074.17,-126.5 1074.17,-126.5 1070.33,-126.5 1066.5,-122.67 1066.5,-118.83 1066.5,-118.83 1066.5,-111.17 1066.5,-111.17 1066.5,-107.33 1070.33,-103.5 1074.17,-103.5 1074.17,-103.5 1150.83,-103.5 1150.83,-103.5 1154.67,-103.5 1158.5,-107.33 1158.5,-111.17 1158.5,-111.17 1158.5,-118.83 1158.5,-118.83 1158.5,-122.67 1154.67,-126.5 1150.83,-126.5"/>
<text text-anchor="middle" x="1112.5" y="-111.3" font-family="Arial" font-size="14.00" fill="#cfffac">src/music.js</text>
</g>
<!-- app.js&#45;&gt;src/music.js -->
<g id="edge2" class="edge">
<title>app.js&#45;&gt;src/music.js</title>
<path fill="none" stroke="#757575" d="M55.42,-49.65C105.82,-33.01 218.09,0 315.5,0 315.5,0 315.5,0 796,0 902.44,0 933.7,-5.65 1030,-51 1053.62,-62.12 1076.65,-81.2 1092.17,-95.64"/>
<polygon fill="#757575" stroke="#757575" points="1089.33,-97.73 1098.98,-102.11 1094.17,-92.67 1089.33,-97.73"/>
</g>
<!-- src/gameManager.js&#45;&gt;src/music.js -->
<g id="edge9" class="edge">
<title>src/gameManager.js&#45;&gt;src/music.js</title>
<path fill="none" stroke="#757575" d="M175.71,-125.12C193.9,-106.73 231.88,-71.93 272,-57 380.58,-16.58 416.14,-38 532,-38 532,-38 532,-38 796,-38 898.39,-38 1014.27,-76.75 1072.99,-99.27"/>
<polygon fill="#757575" stroke="#757575" points="1071.34,-102.77 1081.93,-103.14 1073.88,-96.25 1071.34,-102.77"/>
</g>
<!-- src/airfighter.js -->
<g id="node4" class="node">
<title>src/airfighter.js</title>
<path fill="none" stroke="#c6c5fe" d="M1022.33,-364.5C1022.33,-364.5 928.67,-364.5 928.67,-364.5 924.83,-364.5 921,-360.67 921,-356.83 921,-356.83 921,-349.17 921,-349.17 921,-345.33 924.83,-341.5 928.67,-341.5 928.67,-341.5 1022.33,-341.5 1022.33,-341.5 1026.17,-341.5 1030,-345.33 1030,-349.17 1030,-349.17 1030,-356.83 1030,-356.83 1030,-360.67 1026.17,-364.5 1022.33,-364.5"/>
<text text-anchor="middle" x="975.5" y="-349.3" font-family="Arial" font-size="14.00" fill="#c6c5fe">src/airfighter.js</text>
</g>
<!-- src/gameManager.js&#45;&gt;src/airfighter.js -->
<g id="edge6" class="edge">
<title>src/gameManager.js&#45;&gt;src/airfighter.js</title>
<path fill="none" stroke="#757575" d="M174.09,-148.63C203.28,-183.05 295.23,-284.5 397,-325 599.3,-405.5 668.02,-386.06 885,-368 893.08,-367.33 901.53,-366.32 909.87,-365.14"/>
<polygon fill="#757575" stroke="#757575" points="910.36,-368.45 919.73,-363.5 909.32,-361.53 910.36,-368.45"/>
</g>
<!-- src/rocket.js -->
<g id="node5" class="node">
<title>src/rocket.js</title>
<path fill="none" stroke="#cfffac" d="M1151.33,-392.5C1151.33,-392.5 1073.67,-392.5 1073.67,-392.5 1069.83,-392.5 1066,-388.67 1066,-384.83 1066,-384.83 1066,-377.17 1066,-377.17 1066,-373.33 1069.83,-369.5 1073.67,-369.5 1073.67,-369.5 1151.33,-369.5 1151.33,-369.5 1155.17,-369.5 1159,-373.33 1159,-377.17 1159,-377.17 1159,-384.83 1159,-384.83 1159,-388.67 1155.17,-392.5 1151.33,-392.5"/>
<text text-anchor="middle" x="1112.5" y="-377.3" font-family="Arial" font-size="14.00" fill="#cfffac">src/rocket.js</text>
</g>
<!-- src/gameManager.js&#45;&gt;src/rocket.js -->
<g id="edge10" class="edge">
<title>src/gameManager.js&#45;&gt;src/rocket.js</title>
<path fill="none" stroke="#757575" d="M169.53,-148.61C196.61,-209.17 331.39,-486 532,-486 532,-486 532,-486 796,-486 906.05,-486 1027.15,-427.77 1081.82,-398.04"/>
<polygon fill="#757575" stroke="#757575" points="1083.18,-400.74 1090.24,-392.84 1079.79,-394.61 1083.18,-400.74"/>
</g>
<!-- src/enemy.js -->
<g id="node6" class="node">
<title>src/enemy.js</title>
<path fill="none" stroke="#c6c5fe" d="M573.83,-149.5C573.83,-149.5 492.17,-149.5 492.17,-149.5 488.33,-149.5 484.5,-145.67 484.5,-141.83 484.5,-141.83 484.5,-134.17 484.5,-134.17 484.5,-130.33 488.33,-126.5 492.17,-126.5 492.17,-126.5 573.83,-126.5 573.83,-126.5 577.67,-126.5 581.5,-130.33 581.5,-134.17 581.5,-134.17 581.5,-141.83 581.5,-141.83 581.5,-145.67 577.67,-149.5 573.83,-149.5"/>
<text text-anchor="middle" x="533" y="-134.3" font-family="Arial" font-size="14.00" fill="#c6c5fe">src/enemy.js</text>
</g>
<!-- src/gameManager.js&#45;&gt;src/enemy.js -->
<g id="edge7" class="edge">
<title>src/gameManager.js&#45;&gt;src/enemy.js</title>
<path fill="none" stroke="#757575" d="M236.23,-137.2C305.44,-137.38 408.94,-137.67 473.36,-137.84"/>
<polygon fill="#757575" stroke="#757575" points="473.13,-141.34 483.13,-137.87 473.14,-134.34 473.13,-141.34"/>
</g>
<!-- src/gatling.js -->
<g id="node7" class="node">
<title>src/gatling.js</title>
<path fill="none" stroke="#c6c5fe" d="M834.83,-146.5C834.83,-146.5 755.17,-146.5 755.17,-146.5 751.33,-146.5 747.5,-142.67 747.5,-138.83 747.5,-138.83 747.5,-131.17 747.5,-131.17 747.5,-127.33 751.33,-123.5 755.17,-123.5 755.17,-123.5 834.83,-123.5 834.83,-123.5 838.67,-123.5 842.5,-127.33 842.5,-131.17 842.5,-131.17 842.5,-138.83 842.5,-138.83 842.5,-142.67 838.67,-146.5 834.83,-146.5"/>
<text text-anchor="middle" x="795" y="-131.3" font-family="Arial" font-size="14.00" fill="#c6c5fe">src/gatling.js</text>
</g>
<!-- src/gameManager.js&#45;&gt;src/gatling.js -->
<g id="edge8" class="edge">
<title>src/gameManager.js&#45;&gt;src/gatling.js</title>
<path fill="none" stroke="#757575" d="M236.43,-129.13C334.37,-119.56 515.12,-105.98 669,-117 691.16,-118.59 715.36,-121.74 736.52,-124.97"/>
<polygon fill="#757575" stroke="#757575" points="735.86,-128.56 746.28,-126.65 736.94,-121.65 735.86,-128.56"/>
</g>
<!-- src/step.js -->
<g id="node8" class="node">
<title>src/step.js</title>
<path fill="none" stroke="#c6c5fe" d="M349.83,-227.5C349.83,-227.5 283.17,-227.5 283.17,-227.5 279.33,-227.5 275.5,-223.67 275.5,-219.83 275.5,-219.83 275.5,-212.17 275.5,-212.17 275.5,-208.33 279.33,-204.5 283.17,-204.5 283.17,-204.5 349.83,-204.5 349.83,-204.5 353.67,-204.5 357.5,-208.33 357.5,-212.17 357.5,-212.17 357.5,-219.83 357.5,-219.83 357.5,-223.67 353.67,-227.5 349.83,-227.5"/>
<text text-anchor="middle" x="316.5" y="-212.3" font-family="Arial" font-size="14.00" fill="#c6c5fe">src/step.js</text>
</g>
<!-- src/gameManager.js&#45;&gt;src/step.js -->
<g id="edge11" class="edge">
<title>src/gameManager.js&#45;&gt;src/step.js</title>
<path fill="none" stroke="#757575" d="M187.43,-149C212.97,-162.36 254.43,-184.05 283.23,-199.12"/>
<polygon fill="#757575" stroke="#757575" points="281.36,-202.61 291.85,-204.15 284.61,-196.41 281.36,-202.61"/>
</g>
<!-- src/touch.js -->
<g id="node9" class="node">
<title>src/touch.js</title>
<path fill="none" stroke="#cfffac" d="M353.33,-89.5C353.33,-89.5 279.67,-89.5 279.67,-89.5 275.83,-89.5 272,-85.67 272,-81.83 272,-81.83 272,-74.17 272,-74.17 272,-70.33 275.83,-66.5 279.67,-66.5 279.67,-66.5 353.33,-66.5 353.33,-66.5 357.17,-66.5 361,-70.33 361,-74.17 361,-74.17 361,-81.83 361,-81.83 361,-85.67 357.17,-89.5 353.33,-89.5"/>
<text text-anchor="middle" x="316.5" y="-74.3" font-family="Arial" font-size="14.00" fill="#cfffac">src/touch.js</text>
</g>
<!-- src/gameManager.js&#45;&gt;src/touch.js -->
<g id="edge12" class="edge">
<title>src/gameManager.js&#45;&gt;src/touch.js</title>
<path fill="none" stroke="#757575" d="M195.06,-125.06C218.08,-116.06 249.88,-103.64 275.02,-93.82"/>
<polygon fill="#757575" stroke="#757575" points="275.95,-96.82 283.99,-89.92 273.4,-90.3 275.95,-96.82"/>
</g>
<!-- src/airfighter.js&#45;&gt;src/music.js -->
<g id="edge3" class="edge">
<title>src/airfighter.js&#45;&gt;src/music.js</title>
<path fill="none" stroke="#757575" d="M983.19,-341.2C1004.65,-303.37 1071.92,-184.78 1099.51,-136.14"/>
<polygon fill="#757575" stroke="#757575" points="1102.88,-138.3 1104.76,-127.87 1096.79,-134.84 1102.88,-138.3"/>
</g>
<!-- src/airfighter.js&#45;&gt;src/rocket.js -->
<g id="edge4" class="edge">
<title>src/airfighter.js&#45;&gt;src/rocket.js</title>
<path fill="none" stroke="#757575" d="M1030.24,-364.15C1038.42,-365.84 1046.89,-367.6 1055.12,-369.31"/>
<polygon fill="#757575" stroke="#757575" points="1054.27,-372.91 1064.77,-371.52 1055.69,-366.06 1054.27,-372.91"/>
</g>
<!-- src/enemy.js&#45;&gt;src/gatling.js -->
<g id="edge5" class="edge">
<title>src/enemy.js&#45;&gt;src/gatling.js</title>
<path fill="none" stroke="#757575" d="M581.99,-137.45C625.6,-136.94 690.01,-136.2 736.38,-135.66"/>
<polygon fill="#757575" stroke="#757575" points="736.21,-139.16 746.16,-135.54 736.12,-132.16 736.21,-139.16"/>
</g>
<!-- src/gatling.js&#45;&gt;src/music.js -->
<g id="edge14" class="edge">
<title>src/gatling.js&#45;&gt;src/music.js</title>
<path fill="none" stroke="#757575" d="M842.89,-132.03C899.53,-128.44 994.73,-122.4 1055.26,-118.57"/>
<polygon fill="#757575" stroke="#757575" points="1055.38,-122 1065.14,-117.88 1054.94,-115.02 1055.38,-122"/>
</g>
<!-- src/gatling.js&#45;&gt;src/airfighter.js -->
<g id="edge13" class="edge">
<title>src/gatling.js&#45;&gt;src/airfighter.js</title>
<path fill="none" stroke="#757575" d="M820.18,-146.91C839.49,-157.33 866.32,-173.91 885,-194 924.15,-236.1 952.77,-298.42 966.12,-331.13"/>
<polygon fill="#757575" stroke="#757575" points="963.1,-332.02 970.05,-340.02 969.6,-329.43 963.1,-332.02"/>
</g>
<!-- src/step.js&#45;&gt;src/music.js -->
<g id="edge24" class="edge">
<title>src/step.js&#45;&gt;src/music.js</title>
<path fill="none" stroke="#757575" d="M352.39,-204.08C366.16,-199.74 382.19,-195.14 397,-192 516.18,-166.75 562.36,-216.91 669,-158 691.12,-145.78 682.17,-124.82 705,-114 777.29,-79.74 805,-113.82 885,-114 943.12,-114.13 1009.64,-114.44 1055.48,-114.68"/>
<polygon fill="#757575" stroke="#757575" points="1055.36,-118.19 1065.38,-114.74 1055.4,-111.19 1055.36,-118.19"/>
</g>
<!-- src/step.js&#45;&gt;src/airfighter.js -->
<g id="edge21" class="edge">
<title>src/step.js&#45;&gt;src/airfighter.js</title>
<path fill="none" stroke="#757575" d="M329.58,-227.9C344.26,-241.65 370.39,-263.93 397,-276 569.78,-354.34 799.37,-359.22 909.79,-356.23"/>
<polygon fill="#757575" stroke="#757575" points="909.85,-359.7 919.74,-355.9 909.63,-352.7 909.85,-359.7"/>
</g>
<!-- src/step.js&#45;&gt;src/rocket.js -->
<g id="edge26" class="edge">
<title>src/step.js&#45;&gt;src/rocket.js</title>
<path fill="none" stroke="#757575" d="M322.37,-227.97C332.46,-251.09 358.02,-301.65 397,-325 610.66,-452.98 927.02,-415.06 1054.85,-392.43"/>
<polygon fill="#757575" stroke="#757575" points="1055.33,-395.72 1064.54,-390.5 1054.08,-388.84 1055.33,-395.72"/>
</g>
<!-- src/step.js&#45;&gt;src/enemy.js -->
<g id="edge22" class="edge">
<title>src/step.js&#45;&gt;src/enemy.js</title>
<path fill="none" stroke="#757575" d="M331.77,-204.17C346.98,-192.19 372.24,-174.03 397,-164 421.08,-154.25 449.08,-148.09 473.32,-144.23"/>
<polygon fill="#757575" stroke="#757575" points="473.79,-147.55 483.17,-142.62 472.76,-140.63 473.79,-147.55"/>
</g>
<!-- src/step.js&#45;&gt;src/gatling.js -->
<g id="edge23" class="edge">
<title>src/step.js&#45;&gt;src/gatling.js</title>
<path fill="none" stroke="#757575" d="M357.82,-221.23C425.15,-228.26 563.47,-235.32 669,-192 688.53,-183.98 686.45,-171.08 705,-161 714.86,-155.64 725.95,-151.28 736.87,-147.76"/>
<polygon fill="#757575" stroke="#757575" points="737.68,-150.87 746.24,-144.64 735.66,-144.17 737.68,-150.87"/>
</g>
<!-- src/rendering/EnemyCollisionsChecks.js -->
<g id="node10" class="node">
<title>src/rendering/EnemyCollisionsChecks.js</title>
<path fill="none" stroke="#c6c5fe" d="M661.33,-267.5C661.33,-267.5 404.67,-267.5 404.67,-267.5 400.83,-267.5 397,-263.67 397,-259.83 397,-259.83 397,-252.17 397,-252.17 397,-248.33 400.83,-244.5 404.67,-244.5 404.67,-244.5 661.33,-244.5 661.33,-244.5 665.17,-244.5 669,-248.33 669,-252.17 669,-252.17 669,-259.83 669,-259.83 669,-263.67 665.17,-267.5 661.33,-267.5"/>
<text text-anchor="middle" x="533" y="-252.3" font-family="Arial" font-size="14.00" fill="#c6c5fe">src/rendering/EnemyCollisionsChecks.js</text>
</g>
<!-- src/step.js&#45;&gt;src/rendering/EnemyCollisionsChecks.js -->
<g id="edge25" class="edge">
<title>src/step.js&#45;&gt;src/rendering/EnemyCollisionsChecks.js</title>
<path fill="none" stroke="#757575" d="M357.85,-223.52C385.77,-228.73 423.77,-235.82 457.15,-242.04"/>
<polygon fill="#757575" stroke="#757575" points="456.33,-245.64 466.8,-244.03 457.62,-238.75 456.33,-245.64"/>
</g>
<!-- src/rendering/EnemyCollisionsChecks.js&#45;&gt;src/music.js -->
<g id="edge17" class="edge">
<title>src/rendering/EnemyCollisionsChecks.js&#45;&gt;src/music.js</title>
<path fill="none" stroke="#757575" d="M611.48,-244.08C630.89,-239.37 651.23,-232.89 669,-224 687.63,-214.68 686.09,-202.73 705,-194 771.53,-163.27 958.53,-154.2 1030,-138 1040.43,-135.64 1051.52,-132.76 1062.04,-129.85"/>
<polygon fill="#757575" stroke="#757575" points="1062.66,-133.03 1071.33,-126.95 1060.76,-126.29 1062.66,-133.03"/>
</g>
<!-- src/rendering/EnemyCollisionsChecks.js&#45;&gt;src/airfighter.js -->
<g id="edge15" class="edge">
<title>src/rendering/EnemyCollisionsChecks.js&#45;&gt;src/airfighter.js</title>
<path fill="none" stroke="#757575" d="M566.7,-267.92C600.82,-279.97 656.07,-298.44 705,-310 774.27,-326.37 855.05,-338.34 909.98,-345.43"/>
<polygon fill="#757575" stroke="#757575" points="909.25,-348.99 919.61,-346.78 910.13,-342.05 909.25,-348.99"/>
</g>
<!-- src/rendering/EnemyCollisionsChecks.js&#45;&gt;src/rocket.js -->
<g id="edge20" class="edge">
<title>src/rendering/EnemyCollisionsChecks.js&#45;&gt;src/rocket.js</title>
<path fill="none" stroke="#757575" d="M624.75,-267.97C757.43,-285.76 992.69,-318.52 1030,-332 1050.45,-339.39 1071.42,-352.14 1086.97,-362.78"/>
<polygon fill="#757575" stroke="#757575" points="1084.71,-366.17 1094.9,-369.07 1088.74,-360.45 1084.71,-366.17"/>
</g>
<!-- src/rendering/EnemyCollisionsChecks.js&#45;&gt;src/gatling.js -->
<g id="edge16" class="edge">
<title>src/rendering/EnemyCollisionsChecks.js&#45;&gt;src/gatling.js</title>
<path fill="none" stroke="#757575" d="M643.45,-244.02C652.57,-240.37 661.25,-235.77 669,-230 696.74,-209.34 678.26,-182.94 705,-161 714.15,-153.5 725.38,-148.16 736.74,-144.36"/>
<polygon fill="#757575" stroke="#757575" points="737.56,-147.47 746.16,-141.29 735.58,-140.76 737.56,-147.47"/>
</g>
<!-- src/rendering/Explosion.js -->
<g id="node11" class="node">
<title>src/rendering/Explosion.js</title>
<path fill="none" stroke="#cfffac" d="M877.33,-226.5C877.33,-226.5 712.67,-226.5 712.67,-226.5 708.83,-226.5 705,-222.67 705,-218.83 705,-218.83 705,-211.17 705,-211.17 705,-207.33 708.83,-203.5 712.67,-203.5 712.67,-203.5 877.33,-203.5 877.33,-203.5 881.17,-203.5 885,-207.33 885,-211.17 885,-211.17 885,-218.83 885,-218.83 885,-222.67 881.17,-226.5 877.33,-226.5"/>
<text text-anchor="middle" x="795" y="-211.3" font-family="Arial" font-size="14.00" fill="#cfffac">src/rendering/Explosion.js</text>
</g>
<!-- src/rendering/EnemyCollisionsChecks.js&#45;&gt;src/rendering/Explosion.js -->
<g id="edge18" class="edge">
<title>src/rendering/EnemyCollisionsChecks.js&#45;&gt;src/rendering/Explosion.js</title>
<path fill="none" stroke="#757575" d="M609.9,-244.03C640.47,-239.21 675.9,-233.62 707.46,-228.65"/>
<polygon fill="#757575" stroke="#757575" points="707.67,-232 717,-226.98 706.58,-225.08 707.67,-232"/>
</g>
<!-- src/rendering/Helpers.js -->
<g id="node12" class="node">
<title>src/rendering/Helpers.js</title>
<path fill="none" stroke="#cfffac" d="M870.83,-267.5C870.83,-267.5 719.17,-267.5 719.17,-267.5 715.33,-267.5 711.5,-263.67 711.5,-259.83 711.5,-259.83 711.5,-252.17 711.5,-252.17 711.5,-248.33 715.33,-244.5 719.17,-244.5 719.17,-244.5 870.83,-244.5 870.83,-244.5 874.67,-244.5 878.5,-248.33 878.5,-252.17 878.5,-252.17 878.5,-259.83 878.5,-259.83 878.5,-263.67 874.67,-267.5 870.83,-267.5"/>
<text text-anchor="middle" x="795" y="-252.3" font-family="Arial" font-size="14.00" fill="#cfffac">src/rendering/Helpers.js</text>
</g>
<!-- src/rendering/EnemyCollisionsChecks.js&#45;&gt;src/rendering/Helpers.js -->
<g id="edge19" class="edge">
<title>src/rendering/EnemyCollisionsChecks.js&#45;&gt;src/rendering/Helpers.js</title>
<path fill="none" stroke="#757575" d="M669.33,-256C679.84,-256 690.31,-256 700.45,-256"/>
<polygon fill="#757575" stroke="#757575" points="700.32,-259.5 710.32,-256 700.32,-252.5 700.32,-259.5"/>
</g>
</g>
</svg>
