<?xml version="1.0" encoding="UTF-8" standalone="no"?>
<!DOCTYPE svg PUBLIC "-//W3C//DTD SVG 1.1//EN"
 "http://www.w3.org/Graphics/SVG/1.1/DTD/svg11.dtd">
<!-- Generated by graphviz version 2.43.0 (0)
 -->
<!-- Title: G Pages: 1 -->
<svg width="1944pt" height="864pt"
 viewBox="0.00 0.00 1944.20 863.91" xmlns="http://www.w3.org/2000/svg" xmlns:xlink="http://www.w3.org/1999/xlink">
<g id="graph0" class="graph" transform="scale(1 1) rotate(0) translate(21.6 842.31)">
<title>G</title>
<polygon fill="#111111" stroke="transparent" points="-21.6,21.6 -21.6,-842.31 1922.6,-842.31 1922.6,21.6 -21.6,21.6"/>
<!-- app.js -->
<g id="node1" class="node">
<title>app.js</title>
<path fill="none" stroke="#c6c5fe" d="M46.33,-621.13C46.33,-621.13 7.67,-621.13 7.67,-621.13 3.83,-621.13 0,-617.29 0,-613.46 0,-613.46 0,-605.79 0,-605.79 0,-601.96 3.83,-598.13 7.67,-598.13 7.67,-598.13 46.33,-598.13 46.33,-598.13 50.17,-598.13 54,-601.96 54,-605.79 54,-605.79 54,-613.46 54,-613.46 54,-617.29 50.17,-621.13 46.33,-621.13"/>
<text text-anchor="middle" x="27" y="-605.93" font-family="Arial" font-size="14.00" fill="#c6c5fe">app.js</text>
</g>
<!-- src/gameManager.js -->
<g id="node2" class="node">
<title>src/gameManager.js</title>
<path fill="none" stroke="#c6c5fe" d="M222.33,-449.13C222.33,-449.13 97.67,-449.13 97.67,-449.13 93.83,-449.13 90,-445.29 90,-441.46 90,-441.46 90,-433.79 90,-433.79 90,-429.96 93.83,-426.13 97.67,-426.13 97.67,-426.13 222.33,-426.13 222.33,-426.13 226.17,-426.13 230,-429.96 230,-433.79 230,-433.79 230,-441.46 230,-441.46 230,-445.29 226.17,-449.13 222.33,-449.13"/>
<text text-anchor="middle" x="160" y="-433.93" font-family="Arial" font-size="14.00" fill="#c6c5fe">src/gameManager.js</text>
</g>
<!-- app.js&#45;&gt;src/gameManager.js -->
<g id="edge1" class="edge">
<title>app.js&#45;&gt;src/gameManager.js</title>
<path fill="none" stroke="#757575" d="M36.8,-598.08C58.8,-569.19 116.4,-493.56 143.93,-457.42"/>
<polygon fill="#757575" stroke="#757575" points="146.96,-459.21 150.24,-449.13 141.4,-454.96 146.96,-459.21"/>
</g>
<!-- src/music.js -->
<g id="node3" class="node">
<title>src/music.js</title>
<path fill="none" stroke="#cfffac" d="M1846.83,-658.13C1846.83,-658.13 1774.17,-658.13 1774.17,-658.13 1770.33,-658.13 1766.5,-654.29 1766.5,-650.46 1766.5,-650.46 1766.5,-642.79 1766.5,-642.79 1766.5,-638.96 1770.33,-635.13 1774.17,-635.13 1774.17,-635.13 1846.83,-635.13 1846.83,-635.13 1850.67,-635.13 1854.5,-638.96 1854.5,-642.79 1854.5,-642.79 1854.5,-650.46 1854.5,-650.46 1854.5,-654.29 1850.67,-658.13 1846.83,-658.13"/>
<text text-anchor="middle" x="1810.5" y="-642.93" font-family="Arial" font-size="14.00" fill="#cfffac">src/music.js</text>
</g>
<!-- app.js&#45;&gt;src/music.js -->
<g id="edge2" class="edge">
<title>app.js&#45;&gt;src/music.js</title>
<path fill="none" stroke="#757575" d="M38.01,-621.25C72.62,-660.04 192,-782.63 318.5,-782.63 318.5,-782.63 318.5,-782.63 1453,-782.63 1584.77,-782.63 1727.02,-700.51 1783.89,-663.89"/>
<polygon fill="#757575" stroke="#757575" points="1786.12,-666.62 1792.58,-658.22 1782.29,-660.76 1786.12,-666.62"/>
</g>
<!-- src/gameManager.js&#45;&gt;src/music.js -->
<g id="edge16" class="edge">
<title>src/gameManager.js&#45;&gt;src/music.js</title>
<path fill="none" stroke="#757575" d="M164.95,-449.24C176.05,-480.25 210.36,-565.9 266,-614.63 347.12,-685.67 382.67,-706.63 490.5,-706.63 490.5,-706.63 490.5,-706.63 1453,-706.63 1556.01,-706.63 1583.02,-707.98 1684,-687.63 1713.82,-681.62 1746.45,-670.82 1770.96,-661.81"/>
<polygon fill="#757575" stroke="#757575" points="1772.46,-664.99 1780.6,-658.21 1770.01,-658.43 1772.46,-664.99"/>
</g>
<!-- src/Boss.js -->
<g id="node4" class="node">
<title>src/Boss.js</title>
<path fill="none" stroke="#c6c5fe" d="M684.33,-545.13C684.33,-545.13 617.67,-545.13 617.67,-545.13 613.83,-545.13 610,-541.29 610,-537.46 610,-537.46 610,-529.79 610,-529.79 610,-525.96 613.83,-522.13 617.67,-522.13 617.67,-522.13 684.33,-522.13 684.33,-522.13 688.17,-522.13 692,-525.96 692,-529.79 692,-529.79 692,-537.46 692,-537.46 692,-541.29 688.17,-545.13 684.33,-545.13"/>
<text text-anchor="middle" x="651" y="-529.93" font-family="Arial" font-size="14.00" fill="#c6c5fe">src/Boss.js</text>
</g>
<!-- src/gameManager.js&#45;&gt;src/Boss.js -->
<g id="edge10" class="edge">
<title>src/gameManager.js&#45;&gt;src/Boss.js</title>
<path fill="none" stroke="#757575" d="M179.54,-449.29C199.91,-461.5 234,-480.19 266,-489.63 382.17,-523.91 525.44,-531.72 599.83,-533.35"/>
<polygon fill="#757575" stroke="#757575" points="599.79,-536.85 609.86,-533.54 599.92,-529.85 599.79,-536.85"/>
</g>
<!-- src/enemy.js -->
<g id="node5" class="node">
<title>src/enemy.js</title>
<path fill="none" stroke="#c6c5fe" d="M827.33,-485.13C827.33,-485.13 750.67,-485.13 750.67,-485.13 746.83,-485.13 743,-481.29 743,-477.46 743,-477.46 743,-469.79 743,-469.79 743,-465.96 746.83,-462.13 750.67,-462.13 750.67,-462.13 827.33,-462.13 827.33,-462.13 831.17,-462.13 835,-465.96 835,-469.79 835,-469.79 835,-477.46 835,-477.46 835,-481.29 831.17,-485.13 827.33,-485.13"/>
<text text-anchor="middle" x="789" y="-469.93" font-family="Arial" font-size="14.00" fill="#c6c5fe">src/enemy.js</text>
</g>
<!-- src/gameManager.js&#45;&gt;src/enemy.js -->
<g id="edge13" class="edge">
<title>src/gameManager.js&#45;&gt;src/enemy.js</title>
<path fill="none" stroke="#757575" d="M230.18,-442.35C242.12,-443.13 254.42,-443.92 266,-444.63 436.06,-455.02 637.39,-465.76 732.69,-470.76"/>
<polygon fill="#757575" stroke="#757575" points="732.78,-474.27 742.95,-471.29 733.15,-467.28 732.78,-474.27"/>
</g>
<!-- src/levelCompleteScreen.js -->
<g id="node7" class="node">
<title>src/levelCompleteScreen.js</title>
<path fill="none" stroke="#cfffac" d="M1893.33,-756.13C1893.33,-756.13 1727.67,-756.13 1727.67,-756.13 1723.83,-756.13 1720,-752.29 1720,-748.46 1720,-748.46 1720,-740.79 1720,-740.79 1720,-736.96 1723.83,-733.13 1727.67,-733.13 1727.67,-733.13 1893.33,-733.13 1893.33,-733.13 1897.17,-733.13 1901,-736.96 1901,-740.79 1901,-740.79 1901,-748.46 1901,-748.46 1901,-752.29 1897.17,-756.13 1893.33,-756.13"/>
<text text-anchor="middle" x="1810.5" y="-740.93" font-family="Arial" font-size="14.00" fill="#cfffac">src/levelCompleteScreen.js</text>
</g>
<!-- src/gameManager.js&#45;&gt;src/levelCompleteScreen.js -->
<g id="edge15" class="edge">
<title>src/gameManager.js&#45;&gt;src/levelCompleteScreen.js</title>
<path fill="none" stroke="#757575" d="M163.04,-449.2C170.17,-486.2 197.35,-602.83 266,-665.63 338.38,-731.84 626.32,-820.63 788,-820.63 788,-820.63 788,-820.63 1453,-820.63 1556.22,-820.63 1583.94,-821.98 1684,-796.63 1717.1,-788.24 1752.9,-772.71 1777.76,-760.8"/>
<polygon fill="#757575" stroke="#757575" points="1779.6,-763.79 1787.05,-756.27 1776.53,-757.5 1779.6,-763.79"/>
</g>
<!-- src/ammo.js -->
<g id="node8" class="node">
<title>src/ammo.js</title>
<path fill="none" stroke="#c6c5fe" d="M1052.83,-180.13C1052.83,-180.13 977.17,-180.13 977.17,-180.13 973.33,-180.13 969.5,-176.29 969.5,-172.46 969.5,-172.46 969.5,-164.79 969.5,-164.79 969.5,-160.96 973.33,-157.13 977.17,-157.13 977.17,-157.13 1052.83,-157.13 1052.83,-157.13 1056.67,-157.13 1060.5,-160.96 1060.5,-164.79 1060.5,-164.79 1060.5,-172.46 1060.5,-172.46 1060.5,-176.29 1056.67,-180.13 1052.83,-180.13"/>
<text text-anchor="middle" x="1015" y="-164.93" font-family="Arial" font-size="14.00" fill="#c6c5fe">src/ammo.js</text>
</g>
<!-- src/gameManager.js&#45;&gt;src/ammo.js -->
<g id="edge11" class="edge">
<title>src/gameManager.js&#45;&gt;src/ammo.js</title>
<path fill="none" stroke="#757575" d="M164.09,-425.75C173.6,-391.34 205.5,-290.33 266,-231.63 345.19,-154.79 380.16,-125.63 490.5,-125.63 490.5,-125.63 490.5,-125.63 652,-125.63 761.64,-125.63 888.65,-145.32 959.33,-158.05"/>
<polygon fill="#757575" stroke="#757575" points="958.87,-161.52 969.34,-159.87 960.13,-154.64 958.87,-161.52"/>
</g>
<!-- src/rocket.js -->
<g id="node9" class="node">
<title>src/rocket.js</title>
<path fill="none" stroke="#c6c5fe" d="M1655.33,-214.13C1655.33,-214.13 1581.67,-214.13 1581.67,-214.13 1577.83,-214.13 1574,-210.29 1574,-206.46 1574,-206.46 1574,-198.79 1574,-198.79 1574,-194.96 1577.83,-191.13 1581.67,-191.13 1581.67,-191.13 1655.33,-191.13 1655.33,-191.13 1659.17,-191.13 1663,-194.96 1663,-198.79 1663,-198.79 1663,-206.46 1663,-206.46 1663,-210.29 1659.17,-214.13 1655.33,-214.13"/>
<text text-anchor="middle" x="1618.5" y="-198.93" font-family="Arial" font-size="14.00" fill="#c6c5fe">src/rocket.js</text>
</g>
<!-- src/gameManager.js&#45;&gt;src/rocket.js -->
<g id="edge19" class="edge">
<title>src/gameManager.js&#45;&gt;src/rocket.js</title>
<path fill="none" stroke="#757575" d="M160.42,-425.88C158.65,-375.79 158.87,-178.24 266,-84.63 342.04,-18.18 389.52,-49.63 490.5,-49.63 490.5,-49.63 490.5,-49.63 1266.5,-49.63 1400.31,-49.63 1540.7,-144.22 1594.6,-184.65"/>
<polygon fill="#757575" stroke="#757575" points="1592.7,-187.61 1602.78,-190.88 1596.94,-182.04 1592.7,-187.61"/>
</g>
<!-- src/background.js -->
<g id="node10" class="node">
<title>src/background.js</title>
<path fill="none" stroke="#cfffac" d="M842.33,-215.13C842.33,-215.13 735.67,-215.13 735.67,-215.13 731.83,-215.13 728,-211.29 728,-207.46 728,-207.46 728,-199.79 728,-199.79 728,-195.96 731.83,-192.13 735.67,-192.13 735.67,-192.13 842.33,-192.13 842.33,-192.13 846.17,-192.13 850,-195.96 850,-199.79 850,-199.79 850,-207.46 850,-207.46 850,-211.29 846.17,-215.13 842.33,-215.13"/>
<text text-anchor="middle" x="789" y="-199.93" font-family="Arial" font-size="14.00" fill="#cfffac">src/background.js</text>
</g>
<!-- src/gameManager.js&#45;&gt;src/background.js -->
<g id="edge12" class="edge">
<title>src/gameManager.js&#45;&gt;src/background.js</title>
<path fill="none" stroke="#757575" d="M167.48,-425.88C182.13,-400.18 220.14,-338.17 266,-299.63 320.78,-253.58 339.99,-244.56 409,-225.63 513.63,-196.92 640.4,-196.04 717.58,-199.06"/>
<polygon fill="#757575" stroke="#757575" points="717.53,-202.56 727.67,-199.49 717.83,-195.57 717.53,-202.56"/>
</g>
<!-- src/keyboard.js -->
<g id="node12" class="node">
<title>src/keyboard.js</title>
<path fill="none" stroke="#c6c5fe" d="M365.33,-331.13C365.33,-331.13 273.67,-331.13 273.67,-331.13 269.83,-331.13 266,-327.29 266,-323.46 266,-323.46 266,-315.79 266,-315.79 266,-311.96 269.83,-308.13 273.67,-308.13 273.67,-308.13 365.33,-308.13 365.33,-308.13 369.17,-308.13 373,-311.96 373,-315.79 373,-315.79 373,-323.46 373,-323.46 373,-327.29 369.17,-331.13 365.33,-331.13"/>
<text text-anchor="middle" x="319.5" y="-315.93" font-family="Arial" font-size="14.00" fill="#c6c5fe">src/keyboard.js</text>
</g>
<!-- src/gameManager.js&#45;&gt;src/keyboard.js -->
<g id="edge14" class="edge">
<title>src/gameManager.js&#45;&gt;src/keyboard.js</title>
<path fill="none" stroke="#757575" d="M176.39,-426.1C203.96,-405.44 261.94,-362 294.68,-337.47"/>
<polygon fill="#757575" stroke="#757575" points="296.91,-340.18 302.82,-331.38 292.71,-334.57 296.91,-340.18"/>
</g>
<!-- src/player/Player.js -->
<g id="node13" class="node">
<title>src/player/Player.js</title>
<path fill="none" stroke="#c6c5fe" d="M1509.33,-368.13C1509.33,-368.13 1394.67,-368.13 1394.67,-368.13 1390.83,-368.13 1387,-364.29 1387,-360.46 1387,-360.46 1387,-352.79 1387,-352.79 1387,-348.96 1390.83,-345.13 1394.67,-345.13 1394.67,-345.13 1509.33,-345.13 1509.33,-345.13 1513.17,-345.13 1517,-348.96 1517,-352.79 1517,-352.79 1517,-360.46 1517,-360.46 1517,-364.29 1513.17,-368.13 1509.33,-368.13"/>
<text text-anchor="middle" x="1452" y="-352.93" font-family="Arial" font-size="14.00" fill="#c6c5fe">src/player/Player.js</text>
</g>
<!-- src/gameManager.js&#45;&gt;src/player/Player.js -->
<g id="edge17" class="edge">
<title>src/gameManager.js&#45;&gt;src/player/Player.js</title>
<path fill="none" stroke="#757575" d="M161.43,-425.97C163.73,-381.82 178.04,-223.32 266,-143.63 342.21,-74.58 387.66,-87.63 490.5,-87.63 490.5,-87.63 490.5,-87.63 652,-87.63 872.34,-87.63 937.74,-71.13 1144,-148.63 1265.1,-194.13 1385.23,-296.35 1431.31,-338.21"/>
<polygon fill="#757575" stroke="#757575" points="1429.05,-340.9 1438.79,-345.08 1433.79,-335.74 1429.05,-340.9"/>
</g>
<!-- src/rendering/Helpers.js -->
<g id="node14" class="node">
<title>src/rendering/Helpers.js</title>
<path fill="none" stroke="#cfffac" d="M1882.33,-234.13C1882.33,-234.13 1738.67,-234.13 1738.67,-234.13 1734.83,-234.13 1731,-230.29 1731,-226.46 1731,-226.46 1731,-218.79 1731,-218.79 1731,-214.96 1734.83,-211.13 1738.67,-211.13 1738.67,-211.13 1882.33,-211.13 1882.33,-211.13 1886.17,-211.13 1890,-214.96 1890,-218.79 1890,-218.79 1890,-226.46 1890,-226.46 1890,-230.29 1886.17,-234.13 1882.33,-234.13"/>
<text text-anchor="middle" x="1810.5" y="-218.93" font-family="Arial" font-size="14.00" fill="#cfffac">src/rendering/Helpers.js</text>
</g>
<!-- src/gameManager.js&#45;&gt;src/rendering/Helpers.js -->
<g id="edge18" class="edge">
<title>src/gameManager.js&#45;&gt;src/rendering/Helpers.js</title>
<path fill="none" stroke="#757575" d="M162.33,-425.88C169.4,-365.65 204.56,-92.14 266,-38.63 341.78,27.38 390,-11.63 490.5,-11.63 490.5,-11.63 490.5,-11.63 1453,-11.63 1602.85,-11.63 1744.93,-151.39 1792.62,-203.42"/>
<polygon fill="#757575" stroke="#757575" points="1790.15,-205.91 1799.45,-210.98 1795.35,-201.22 1790.15,-205.91"/>
</g>
<!-- src/speedometer.js -->
<g id="node15" class="node">
<title>src/speedometer.js</title>
<path fill="none" stroke="#cfffac" d="M1676.33,-541.13C1676.33,-541.13 1560.67,-541.13 1560.67,-541.13 1556.83,-541.13 1553,-537.29 1553,-533.46 1553,-533.46 1553,-525.79 1553,-525.79 1553,-521.96 1556.83,-518.13 1560.67,-518.13 1560.67,-518.13 1676.33,-518.13 1676.33,-518.13 1680.17,-518.13 1684,-521.96 1684,-525.79 1684,-525.79 1684,-533.46 1684,-533.46 1684,-537.29 1680.17,-541.13 1676.33,-541.13"/>
<text text-anchor="middle" x="1618.5" y="-525.93" font-family="Arial" font-size="14.00" fill="#cfffac">src/speedometer.js</text>
</g>
<!-- src/gameManager.js&#45;&gt;src/speedometer.js -->
<g id="edge20" class="edge">
<title>src/gameManager.js&#45;&gt;src/speedometer.js</title>
<path fill="none" stroke="#757575" d="M169.14,-449.4C202.72,-496.47 336.1,-668.63 490.5,-668.63 490.5,-668.63 490.5,-668.63 1016,-668.63 1233.9,-668.63 1485.07,-580.96 1579.23,-544.87"/>
<polygon fill="#757575" stroke="#757575" points="1580.57,-548.11 1588.63,-541.24 1578.04,-541.58 1580.57,-548.11"/>
</g>
<!-- src/step.js -->
<g id="node16" class="node">
<title>src/step.js</title>
<path fill="none" stroke="#c6c5fe" d="M681.83,-427.13C681.83,-427.13 620.17,-427.13 620.17,-427.13 616.33,-427.13 612.5,-423.29 612.5,-419.46 612.5,-419.46 612.5,-411.79 612.5,-411.79 612.5,-407.96 616.33,-404.13 620.17,-404.13 620.17,-404.13 681.83,-404.13 681.83,-404.13 685.67,-404.13 689.5,-407.96 689.5,-411.79 689.5,-411.79 689.5,-419.46 689.5,-419.46 689.5,-423.29 685.67,-427.13 681.83,-427.13"/>
<text text-anchor="middle" x="651" y="-411.93" font-family="Arial" font-size="14.00" fill="#c6c5fe">src/step.js</text>
</g>
<!-- src/gameManager.js&#45;&gt;src/step.js -->
<g id="edge21" class="edge">
<title>src/gameManager.js&#45;&gt;src/step.js</title>
<path fill="none" stroke="#757575" d="M230.02,-434.52C330.71,-429.99 515.31,-421.69 602.28,-417.77"/>
<polygon fill="#757575" stroke="#757575" points="602.56,-421.27 612.39,-417.32 602.25,-414.27 602.56,-421.27"/>
</g>
<!-- src/Boss.js&#45;&gt;src/enemy.js -->
<g id="edge3" class="edge">
<title>src/Boss.js&#45;&gt;src/enemy.js</title>
<path fill="none" stroke="#757575" d="M678.22,-522.06C699.39,-512.72 729.37,-499.49 752.66,-489.22"/>
<polygon fill="#757575" stroke="#757575" points="754.12,-492.4 761.86,-485.16 751.3,-486 754.12,-492.4"/>
</g>
<!-- src/gatling.js -->
<g id="node6" class="node">
<title>src/gatling.js</title>
<path fill="none" stroke="#c6c5fe" d="M1303.83,-408.13C1303.83,-408.13 1227.17,-408.13 1227.17,-408.13 1223.33,-408.13 1219.5,-404.29 1219.5,-400.46 1219.5,-400.46 1219.5,-392.79 1219.5,-392.79 1219.5,-388.96 1223.33,-385.13 1227.17,-385.13 1227.17,-385.13 1303.83,-385.13 1303.83,-385.13 1307.67,-385.13 1311.5,-388.96 1311.5,-392.79 1311.5,-392.79 1311.5,-400.46 1311.5,-400.46 1311.5,-404.29 1307.67,-408.13 1303.83,-408.13"/>
<text text-anchor="middle" x="1265.5" y="-392.93" font-family="Arial" font-size="14.00" fill="#c6c5fe">src/gatling.js</text>
</g>
<!-- src/Boss.js&#45;&gt;src/gatling.js -->
<g id="edge4" class="edge">
<title>src/Boss.js&#45;&gt;src/gatling.js</title>
<path fill="none" stroke="#757575" d="M692.15,-533.66C795.93,-533.03 1070.13,-526.65 1144,-477.63 1171.19,-459.58 1153.6,-432.81 1180,-413.63 1188.62,-407.36 1198.99,-403.27 1209.46,-400.62"/>
<polygon fill="#757575" stroke="#757575" points="1210.42,-403.99 1219.48,-398.5 1208.97,-397.14 1210.42,-403.99"/>
</g>
<!-- src/Boss.js&#45;&gt;src/levelCompleteScreen.js -->
<g id="edge5" class="edge">
<title>src/Boss.js&#45;&gt;src/levelCompleteScreen.js</title>
<path fill="none" stroke="#757575" d="M670.75,-545.27C743.81,-589.51 1017.63,-744.63 1264.5,-744.63 1264.5,-744.63 1264.5,-744.63 1453,-744.63 1539.57,-744.63 1637.96,-744.63 1709.42,-744.63"/>
<polygon fill="#757575" stroke="#757575" points="1709.76,-748.13 1719.76,-744.63 1709.76,-741.13 1709.76,-748.13"/>
</g>
<!-- src/enemy.js&#45;&gt;src/gatling.js -->
<g id="edge8" class="edge">
<title>src/enemy.js&#45;&gt;src/gatling.js</title>
<path fill="none" stroke="#757575" d="M835.13,-477.75C903.95,-482.4 1038.27,-485.05 1144,-447.63 1162.36,-441.13 1162.48,-431.15 1180,-422.63 1189.31,-418.1 1199.58,-414.15 1209.66,-410.8"/>
<polygon fill="#757575" stroke="#757575" points="1210.75,-414.12 1219.22,-407.76 1208.63,-407.45 1210.75,-414.12"/>
</g>
<!-- src/rendering/EnemyCollisionsChecks.js -->
<g id="node11" class="node">
<title>src/rendering/EnemyCollisionsChecks.js</title>
<path fill="none" stroke="#c6c5fe" d="M1136.33,-562.13C1136.33,-562.13 893.67,-562.13 893.67,-562.13 889.83,-562.13 886,-558.29 886,-554.46 886,-554.46 886,-546.79 886,-546.79 886,-542.96 889.83,-539.13 893.67,-539.13 893.67,-539.13 1136.33,-539.13 1136.33,-539.13 1140.17,-539.13 1144,-542.96 1144,-546.79 1144,-546.79 1144,-554.46 1144,-554.46 1144,-558.29 1140.17,-562.13 1136.33,-562.13"/>
<text text-anchor="middle" x="1015" y="-546.93" font-family="Arial" font-size="14.00" fill="#c6c5fe">src/rendering/EnemyCollisionsChecks.js</text>
</g>
<!-- src/enemy.js&#45;&gt;src/rendering/EnemyCollisionsChecks.js -->
<g id="edge9" class="edge">
<title>src/enemy.js&#45;&gt;src/rendering/EnemyCollisionsChecks.js</title>
<path fill="none" stroke="#757575" d="M823.54,-485.16C862.71,-498.62 927.63,-520.94 970.61,-535.71"/>
<polygon fill="#757575" stroke="#757575" points="969.64,-539.08 980.24,-539.02 971.92,-532.46 969.64,-539.08"/>
</g>
<!-- src/gatling.js&#45;&gt;src/music.js -->
<g id="edge25" class="edge">
<title>src/gatling.js&#45;&gt;src/music.js</title>
<path fill="none" stroke="#757575" d="M1285.84,-408.21C1331.38,-435.21 1449.37,-503.64 1553,-550.63 1625.42,-583.46 1712.67,-614.36 1764.48,-631.85"/>
<polygon fill="#757575" stroke="#757575" points="1763.45,-635.19 1774.04,-635.06 1765.68,-628.56 1763.45,-635.19"/>
</g>
<!-- src/gatling.js&#45;&gt;src/player/Player.js -->
<g id="edge26" class="edge">
<title>src/gatling.js&#45;&gt;src/player/Player.js</title>
<path fill="none" stroke="#757575" d="M1311.63,-386.84C1334.61,-381.86 1362.93,-375.72 1388.02,-370.28"/>
<polygon fill="#757575" stroke="#757575" points="1388.79,-373.7 1397.82,-368.16 1387.3,-366.86 1388.79,-373.7"/>
</g>
<!-- src/ammo.js&#45;&gt;src/gatling.js -->
<g id="edge6" class="edge">
<title>src/ammo.js&#45;&gt;src/gatling.js</title>
<path fill="none" stroke="#757575" d="M1028.66,-180.25C1069.04,-217.3 1194.98,-332.85 1244.35,-378.14"/>
<polygon fill="#757575" stroke="#757575" points="1242.13,-380.85 1251.86,-385.03 1246.86,-375.69 1242.13,-380.85"/>
</g>
<!-- src/ammo.js&#45;&gt;src/rocket.js -->
<g id="edge7" class="edge">
<title>src/ammo.js&#45;&gt;src/rocket.js</title>
<path fill="none" stroke="#757575" d="M1060.72,-171.16C1169.21,-177.29 1446.07,-192.94 1563.52,-199.58"/>
<polygon fill="#757575" stroke="#757575" points="1563.53,-203.08 1573.71,-200.15 1563.92,-196.09 1563.53,-203.08"/>
</g>
<!-- src/rocket.js&#45;&gt;src/rendering/Helpers.js -->
<g id="edge43" class="edge">
<title>src/rocket.js&#45;&gt;src/rendering/Helpers.js</title>
<path fill="none" stroke="#757575" d="M1663.09,-207.22C1680.24,-209.02 1700.59,-211.16 1720.58,-213.27"/>
<polygon fill="#757575" stroke="#757575" points="1720.36,-216.76 1730.67,-214.33 1721.09,-209.8 1720.36,-216.76"/>
</g>
<!-- src/rendering/EnemyCollisionsChecks.js&#45;&gt;src/music.js -->
<g id="edge38" class="edge">
<title>src/rendering/EnemyCollisionsChecks.js&#45;&gt;src/music.js</title>
<path fill="none" stroke="#757575" d="M1144.33,-555.14C1206.82,-558.14 1282.97,-562.98 1351,-570.63 1498.74,-587.24 1671.34,-619.31 1756.47,-635.98"/>
<polygon fill="#757575" stroke="#757575" points="1755.92,-639.44 1766.41,-637.94 1757.27,-632.57 1755.92,-639.44"/>
</g>
<!-- src/rendering/EnemyCollisionsChecks.js&#45;&gt;src/gatling.js -->
<g id="edge37" class="edge">
<title>src/rendering/EnemyCollisionsChecks.js&#45;&gt;src/gatling.js</title>
<path fill="none" stroke="#757575" d="M1120.99,-539.05C1129.33,-535.31 1137.16,-530.58 1144,-524.63 1180.27,-493.08 1145.32,-455.92 1180,-422.63 1188.22,-414.74 1198.78,-409.23 1209.63,-405.4"/>
<polygon fill="#757575" stroke="#757575" points="1210.67,-408.74 1219.19,-402.44 1208.61,-402.06 1210.67,-408.74"/>
</g>
<!-- src/rendering/EnemyCollisionsChecks.js&#45;&gt;src/rocket.js -->
<g id="edge42" class="edge">
<title>src/rendering/EnemyCollisionsChecks.js&#45;&gt;src/rocket.js</title>
<path fill="none" stroke="#757575" d="M1066.18,-539.07C1090.06,-533.02 1118.83,-524.93 1144,-515.63 1160.6,-509.49 1163.39,-504.73 1180,-498.63 1329.38,-443.76 1399.15,-484.57 1517,-377.63 1565.65,-333.48 1596.94,-260.13 1610.21,-224.03"/>
<polygon fill="#757575" stroke="#757575" points="1613.55,-225.09 1613.61,-214.5 1606.96,-222.74 1613.55,-225.09"/>
</g>
<!-- src/rendering/EnemyCollisionsChecks.js&#45;&gt;src/player/Player.js -->
<g id="edge39" class="edge">
<title>src/rendering/EnemyCollisionsChecks.js&#45;&gt;src/player/Player.js</title>
<path fill="none" stroke="#757575" d="M1116.39,-539.12C1126.24,-535.44 1135.66,-530.7 1144,-524.63 1170.38,-505.42 1154.07,-480.44 1180,-460.63 1242.27,-413.05 1278.73,-447.93 1351,-417.63 1378.65,-406.03 1407.61,-387.56 1427.21,-373.98"/>
<polygon fill="#757575" stroke="#757575" points="1429.36,-376.75 1435.52,-368.13 1425.33,-371.03 1429.36,-376.75"/>
</g>
<!-- src/rendering/EnemyCollisionsChecks.js&#45;&gt;src/rendering/Helpers.js -->
<g id="edge41" class="edge">
<title>src/rendering/EnemyCollisionsChecks.js&#45;&gt;src/rendering/Helpers.js</title>
<path fill="none" stroke="#757575" d="M1113.17,-539.08C1180.67,-529.79 1272.26,-514.62 1351,-492.63 1427.31,-471.32 1447.18,-465.07 1517,-427.63 1625.04,-369.69 1740.65,-278.98 1787.71,-240.67"/>
<polygon fill="#757575" stroke="#757575" points="1790.16,-243.19 1795.68,-234.14 1785.72,-237.77 1790.16,-243.19"/>
</g>
<!-- src/rendering/Explosion.js -->
<g id="node20" class="node">
<title>src/rendering/Explosion.js</title>
<path fill="none" stroke="#cfffac" d="M1343.33,-602.13C1343.33,-602.13 1187.67,-602.13 1187.67,-602.13 1183.83,-602.13 1180,-598.29 1180,-594.46 1180,-594.46 1180,-586.79 1180,-586.79 1180,-582.96 1183.83,-579.13 1187.67,-579.13 1187.67,-579.13 1343.33,-579.13 1343.33,-579.13 1347.17,-579.13 1351,-582.96 1351,-586.79 1351,-586.79 1351,-594.46 1351,-594.46 1351,-598.29 1347.17,-602.13 1343.33,-602.13"/>
<text text-anchor="middle" x="1265.5" y="-586.93" font-family="Arial" font-size="14.00" fill="#cfffac">src/rendering/Explosion.js</text>
</g>
<!-- src/rendering/EnemyCollisionsChecks.js&#45;&gt;src/rendering/Explosion.js -->
<g id="edge40" class="edge">
<title>src/rendering/EnemyCollisionsChecks.js&#45;&gt;src/rendering/Explosion.js</title>
<path fill="none" stroke="#757575" d="M1087.54,-562.14C1117.3,-566.93 1152.01,-572.52 1182.77,-577.47"/>
<polygon fill="#757575" stroke="#757575" points="1182.6,-580.99 1193.03,-579.12 1183.72,-574.08 1182.6,-580.99"/>
</g>
<!-- src/keyboard.js&#45;&gt;src/music.js -->
<g id="edge29" class="edge">
<title>src/keyboard.js&#45;&gt;src/music.js</title>
<path fill="none" stroke="#757575" d="M373.08,-315.1C576.04,-298.42 1307.53,-245.93 1517,-336.63 1659.47,-398.32 1764.89,-567.13 1798.29,-626.03"/>
<polygon fill="#757575" stroke="#757575" points="1795.26,-627.78 1803.19,-634.8 1801.37,-624.37 1795.26,-627.78"/>
</g>
<!-- src/keyboard.js&#45;&gt;src/gatling.js -->
<g id="edge28" class="edge">
<title>src/keyboard.js&#45;&gt;src/gatling.js</title>
<path fill="none" stroke="#757575" d="M373.07,-329.46C437.93,-340.72 551.68,-357.63 650,-357.63 650,-357.63 650,-357.63 790,-357.63 942.26,-357.63 1121.08,-377.82 1209.4,-389.15"/>
<polygon fill="#757575" stroke="#757575" points="1209.09,-392.64 1219.46,-390.45 1209.99,-385.69 1209.09,-392.64"/>
</g>
<!-- src/keyboard.js&#45;&gt;src/rocket.js -->
<g id="edge31" class="edge">
<title>src/keyboard.js&#45;&gt;src/rocket.js</title>
<path fill="none" stroke="#757575" d="M330.64,-307.9C345.87,-291.08 376.37,-260.42 409,-244.63 705.53,-101.09 814.96,-132.35 1144,-148.63 1310.39,-156.86 1351.88,-163.5 1517,-185.63 1532.11,-187.65 1548.42,-190.24 1563.43,-192.78"/>
<polygon fill="#757575" stroke="#757575" points="1563.12,-196.28 1573.57,-194.52 1564.31,-189.38 1563.12,-196.28"/>
</g>
<!-- src/keyboard.js&#45;&gt;src/player/Player.js -->
<g id="edge30" class="edge">
<title>src/keyboard.js&#45;&gt;src/player/Player.js</title>
<path fill="none" stroke="#757575" d="M336.39,-308.11C359.6,-291.39 400.93,-262.11 409,-259.63 479.1,-238.1 500.78,-255.59 574,-259.63 872.66,-276.09 1225.94,-323.87 1376.76,-345.62"/>
<polygon fill="#757575" stroke="#757575" points="1376.44,-349.11 1386.83,-347.08 1377.44,-342.18 1376.44,-349.11"/>
</g>
<!-- src/gameMenuActions.js -->
<g id="node17" class="node">
<title>src/gameMenuActions.js</title>
<path fill="none" stroke="#c6c5fe" d="M566.33,-409.13C566.33,-409.13 416.67,-409.13 416.67,-409.13 412.83,-409.13 409,-405.29 409,-401.46 409,-401.46 409,-393.79 409,-393.79 409,-389.96 412.83,-386.13 416.67,-386.13 416.67,-386.13 566.33,-386.13 566.33,-386.13 570.17,-386.13 574,-389.96 574,-393.79 574,-393.79 574,-401.46 574,-401.46 574,-405.29 570.17,-409.13 566.33,-409.13"/>
<text text-anchor="middle" x="491.5" y="-393.93" font-family="Arial" font-size="14.00" fill="#c6c5fe">src/gameMenuActions.js</text>
</g>
<!-- src/keyboard.js&#45;&gt;src/gameMenuActions.js -->
<g id="edge27" class="edge">
<title>src/keyboard.js&#45;&gt;src/gameMenuActions.js</title>
<path fill="none" stroke="#757575" d="M337.52,-331.18C354.9,-342.6 382.97,-360 409,-371.63 418.26,-375.76 428.37,-379.54 438.22,-382.86"/>
<polygon fill="#757575" stroke="#757575" points="437.36,-386.26 447.95,-386.02 439.52,-379.6 437.36,-386.26"/>
</g>
<!-- src/touch.js -->
<g id="node19" class="node">
<title>src/touch.js</title>
<path fill="none" stroke="#cfffac" d="M526.33,-291.13C526.33,-291.13 456.67,-291.13 456.67,-291.13 452.83,-291.13 449,-287.29 449,-283.46 449,-283.46 449,-275.79 449,-275.79 449,-271.96 452.83,-268.13 456.67,-268.13 456.67,-268.13 526.33,-268.13 526.33,-268.13 530.17,-268.13 534,-271.96 534,-275.79 534,-275.79 534,-283.46 534,-283.46 534,-287.29 530.17,-291.13 526.33,-291.13"/>
<text text-anchor="middle" x="491.5" y="-275.93" font-family="Arial" font-size="14.00" fill="#cfffac">src/touch.js</text>
</g>
<!-- src/keyboard.js&#45;&gt;src/touch.js -->
<g id="edge32" class="edge">
<title>src/keyboard.js&#45;&gt;src/touch.js</title>
<path fill="none" stroke="#757575" d="M369.67,-308.06C391.44,-302.94 417.05,-296.91 439.07,-291.73"/>
<polygon fill="#757575" stroke="#757575" points="439.98,-295.11 448.91,-289.41 438.38,-288.3 439.98,-295.11"/>
</g>
<!-- src/player/Player.js&#45;&gt;src/rocket.js -->
<g id="edge35" class="edge">
<title>src/player/Player.js&#45;&gt;src/rocket.js</title>
<path fill="none" stroke="#757575" d="M1459.2,-345.07C1472.97,-320.42 1508.39,-262.21 1553,-228.63 1558.13,-224.77 1563.91,-221.39 1569.84,-218.46"/>
<polygon fill="#757575" stroke="#757575" points="1571.56,-221.52 1579.24,-214.22 1568.68,-215.14 1571.56,-221.52"/>
</g>
<!-- src/player/Player.js&#45;&gt;src/rendering/Helpers.js -->
<g id="edge34" class="edge">
<title>src/player/Player.js&#45;&gt;src/rendering/Helpers.js</title>
<path fill="none" stroke="#757575" d="M1483.7,-345.09C1548.07,-320.9 1697.1,-264.88 1769.11,-237.81"/>
<polygon fill="#757575" stroke="#757575" points="1770.61,-240.98 1778.74,-234.19 1768.15,-234.43 1770.61,-240.98"/>
</g>
<!-- src/player/Player.js&#45;&gt;src/speedometer.js -->
<g id="edge36" class="edge">
<title>src/player/Player.js&#45;&gt;src/speedometer.js</title>
<path fill="none" stroke="#757575" d="M1464.05,-368.25C1491.91,-397.55 1565.24,-474.66 1599.45,-510.64"/>
<polygon fill="#757575" stroke="#757575" points="1597.07,-513.22 1606.5,-518.06 1602.14,-508.4 1597.07,-513.22"/>
</g>
<!-- src/gameOver.js -->
<g id="node18" class="node">
<title>src/gameOver.js</title>
<path fill="none" stroke="#c6c5fe" d="M1668.83,-678.13C1668.83,-678.13 1568.17,-678.13 1568.17,-678.13 1564.33,-678.13 1560.5,-674.29 1560.5,-670.46 1560.5,-670.46 1560.5,-662.79 1560.5,-662.79 1560.5,-658.96 1564.33,-655.13 1568.17,-655.13 1568.17,-655.13 1668.83,-655.13 1668.83,-655.13 1672.67,-655.13 1676.5,-658.96 1676.5,-662.79 1676.5,-662.79 1676.5,-670.46 1676.5,-670.46 1676.5,-674.29 1672.67,-678.13 1668.83,-678.13"/>
<text text-anchor="middle" x="1618.5" y="-662.93" font-family="Arial" font-size="14.00" fill="#c6c5fe">src/gameOver.js</text>
</g>
<!-- src/player/Player.js&#45;&gt;src/gameOver.js -->
<g id="edge33" class="edge">
<title>src/player/Player.js&#45;&gt;src/gameOver.js</title>
<path fill="none" stroke="#757575" d="M1458.96,-368.51C1474.26,-398.94 1516.33,-482.15 1553,-550.63 1570.99,-584.22 1592.65,-622.82 1605.74,-645.94"/>
<polygon fill="#757575" stroke="#757575" points="1602.81,-647.87 1610.78,-654.84 1608.9,-644.41 1602.81,-647.87"/>
</g>
<!-- src/step.js&#45;&gt;src/enemy.js -->
<g id="edge45" class="edge">
<title>src/step.js&#45;&gt;src/enemy.js</title>
<path fill="none" stroke="#757575" d="M679.19,-427.23C699.95,-436.08 728.75,-448.36 751.51,-458.07"/>
<polygon fill="#757575" stroke="#757575" points="750.28,-461.35 760.85,-462.05 753.03,-454.91 750.28,-461.35"/>
</g>
<!-- src/step.js&#45;&gt;src/gatling.js -->
<g id="edge47" class="edge">
<title>src/step.js&#45;&gt;src/gatling.js</title>
<path fill="none" stroke="#757575" d="M689.7,-416.39C772.16,-417.79 974.74,-419.77 1144,-409.63 1165.38,-408.35 1188.81,-406.03 1209.28,-403.7"/>
<polygon fill="#757575" stroke="#757575" points="1209.85,-407.16 1219.38,-402.53 1209.04,-400.21 1209.85,-407.16"/>
</g>
<!-- src/step.js&#45;&gt;src/rocket.js -->
<g id="edge49" class="edge">
<title>src/step.js&#45;&gt;src/rocket.js</title>
<path fill="none" stroke="#757575" d="M689.83,-405.93C702,-402.88 715.55,-399.54 728,-396.63 1044.05,-322.67 1425.44,-242.53 1563.95,-213.72"/>
<polygon fill="#757575" stroke="#757575" points="1564.81,-217.11 1573.89,-211.65 1563.39,-210.26 1564.81,-217.11"/>
</g>
<!-- src/step.js&#45;&gt;src/background.js -->
<g id="edge44" class="edge">
<title>src/step.js&#45;&gt;src/background.js</title>
<path fill="none" stroke="#757575" d="M659.51,-403.93C681.66,-369.4 746.96,-267.61 774.98,-223.92"/>
<polygon fill="#757575" stroke="#757575" points="778.06,-225.6 780.52,-215.29 772.17,-221.82 778.06,-225.6"/>
</g>
<!-- src/step.js&#45;&gt;src/player/Player.js -->
<g id="edge48" class="edge">
<title>src/step.js&#45;&gt;src/player/Player.js</title>
<path fill="none" stroke="#757575" d="M689.77,-412.84C776.43,-406.43 996.21,-390.2 1180,-376.63 1246.52,-371.72 1322.23,-366.13 1376.68,-362.11"/>
<polygon fill="#757575" stroke="#757575" points="1377.22,-365.58 1386.94,-361.35 1376.71,-358.6 1377.22,-365.58"/>
</g>
<!-- src/step.js&#45;&gt;src/gameOver.js -->
<g id="edge46" class="edge">
<title>src/step.js&#45;&gt;src/gameOver.js</title>
<path fill="none" stroke="#757575" d="M661.02,-427.33C674.27,-443.95 700.46,-474.58 728,-494.63 791.16,-540.59 811.24,-548.97 886,-571.63 1122.86,-643.43 1419,-660.96 1549.92,-665.25"/>
<polygon fill="#757575" stroke="#757575" points="1550.08,-668.75 1560.19,-665.56 1550.3,-661.76 1550.08,-668.75"/>
</g>
<!-- src/gameMenuActions.js&#45;&gt;src/step.js -->
<g id="edge22" class="edge">
<title>src/gameMenuActions.js&#45;&gt;src/step.js</title>
<path fill="none" stroke="#757575" d="M574.02,-406.94C583.62,-408.04 593.17,-409.13 602.09,-410.15"/>
<polygon fill="#757575" stroke="#757575" points="601.91,-413.65 612.24,-411.31 602.7,-406.7 601.91,-413.65"/>
</g>
<!-- src/gameOver.js&#45;&gt;src/music.js -->
<g id="edge24" class="edge">
<title>src/gameOver.js&#45;&gt;src/music.js</title>
<path fill="none" stroke="#757575" d="M1676.51,-660.63C1701.87,-657.96 1731.56,-654.83 1756.44,-652.21"/>
<polygon fill="#757575" stroke="#757575" points="1756.85,-655.69 1766.43,-651.16 1756.12,-648.73 1756.85,-655.69"/>
</g>
<!-- src/gameOver.js&#45;&gt;src/levelCompleteScreen.js -->
<g id="edge23" class="edge">
<title>src/gameOver.js&#45;&gt;src/levelCompleteScreen.js</title>
<path fill="none" stroke="#757575" d="M1647.54,-678.14C1680.51,-691.67 1735.39,-714.2 1772,-729.23"/>
<polygon fill="#757575" stroke="#757575" points="1770.77,-732.51 1781.35,-733.07 1773.43,-726.04 1770.77,-732.51"/>
</g>
</g>
</svg>
