<?xml version="1.0" encoding="UTF-8" standalone="no"?>
<!DOCTYPE svg PUBLIC "-//W3C//DTD SVG 1.1//EN"
 "http://www.w3.org/Graphics/SVG/1.1/DTD/svg11.dtd">
<!-- Generated by graphviz version 2.43.0 (0)
 -->
<!-- Title: G Pages: 1 -->
<svg width="1920pt" height="1011pt"
 viewBox="0.00 0.00 1920.20 1011.11" xmlns="http://www.w3.org/2000/svg" xmlns:xlink="http://www.w3.org/1999/xlink">
<g id="graph0" class="graph" transform="scale(1 1) rotate(0) translate(21.6 989.51)">
<title>G</title>
<polygon fill="#111111" stroke="transparent" points="-21.6,21.6 -21.6,-989.51 1898.6,-989.51 1898.6,21.6 -21.6,21.6"/>
<!-- app.js -->
<g id="node1" class="node">
<title>app.js</title>
<path fill="none" stroke="#c6c5fe" d="M46.33,-244.09C46.33,-244.09 7.67,-244.09 7.67,-244.09 3.83,-244.09 0,-240.26 0,-236.42 0,-236.42 0,-228.76 0,-228.76 0,-224.92 3.83,-221.09 7.67,-221.09 7.67,-221.09 46.33,-221.09 46.33,-221.09 50.17,-221.09 54,-224.92 54,-228.76 54,-228.76 54,-236.42 54,-236.42 54,-240.26 50.17,-244.09 46.33,-244.09"/>
<text text-anchor="middle" x="27" y="-228.89" font-family="Arial" font-size="14.00" fill="#c6c5fe">app.js</text>
</g>
<!-- src/gameManager.js -->
<g id="node2" class="node">
<title>src/gameManager.js</title>
<path fill="none" stroke="#c6c5fe" d="M222.33,-418.09C222.33,-418.09 97.67,-418.09 97.67,-418.09 93.83,-418.09 90,-414.26 90,-410.42 90,-410.42 90,-402.76 90,-402.76 90,-398.92 93.83,-395.09 97.67,-395.09 97.67,-395.09 222.33,-395.09 222.33,-395.09 226.17,-395.09 230,-398.92 230,-402.76 230,-402.76 230,-410.42 230,-410.42 230,-414.26 226.17,-418.09 222.33,-418.09"/>
<text text-anchor="middle" x="160" y="-402.89" font-family="Arial" font-size="14.00" fill="#c6c5fe">src/gameManager.js</text>
</g>
<!-- app.js&#45;&gt;src/gameManager.js -->
<g id="edge1" class="edge">
<title>app.js&#45;&gt;src/gameManager.js</title>
<path fill="none" stroke="#757575" d="M36.8,-244.28C58.8,-273.5 116.4,-350.01 143.93,-386.57"/>
<polygon fill="#757575" stroke="#757575" points="141.43,-389.07 150.24,-394.95 147.02,-384.86 141.43,-389.07"/>
</g>
<!-- src/startScreen.js -->
<g id="node3" class="node">
<title>src/startScreen.js</title>
<path fill="none" stroke="#c6c5fe" d="M383.83,-88.09C383.83,-88.09 278.17,-88.09 278.17,-88.09 274.33,-88.09 270.5,-84.26 270.5,-80.42 270.5,-80.42 270.5,-72.76 270.5,-72.76 270.5,-68.92 274.33,-65.09 278.17,-65.09 278.17,-65.09 383.83,-65.09 383.83,-65.09 387.67,-65.09 391.5,-68.92 391.5,-72.76 391.5,-72.76 391.5,-80.42 391.5,-80.42 391.5,-84.26 387.67,-88.09 383.83,-88.09"/>
<text text-anchor="middle" x="331" y="-72.89" font-family="Arial" font-size="14.00" fill="#c6c5fe">src/startScreen.js</text>
</g>
<!-- app.js&#45;&gt;src/startScreen.js -->
<g id="edge2" class="edge">
<title>app.js&#45;&gt;src/startScreen.js</title>
<path fill="none" stroke="#757575" d="M47.35,-221.03C87.41,-197.33 182.62,-142.14 266,-102.59 273.71,-98.93 282.08,-95.3 290.14,-91.96"/>
<polygon fill="#757575" stroke="#757575" points="291.47,-95.2 299.42,-88.19 288.83,-88.71 291.47,-95.2"/>
</g>
<!-- src/Boss.js -->
<g id="node4" class="node">
<title>src/Boss.js</title>
<path fill="none" stroke="#c6c5fe" d="M874.33,-245.09C874.33,-245.09 807.67,-245.09 807.67,-245.09 803.83,-245.09 800,-241.26 800,-237.42 800,-237.42 800,-229.76 800,-229.76 800,-225.92 803.83,-222.09 807.67,-222.09 807.67,-222.09 874.33,-222.09 874.33,-222.09 878.17,-222.09 882,-225.92 882,-229.76 882,-229.76 882,-237.42 882,-237.42 882,-241.26 878.17,-245.09 874.33,-245.09"/>
<text text-anchor="middle" x="841" y="-229.89" font-family="Arial" font-size="14.00" fill="#c6c5fe">src/Boss.js</text>
</g>
<!-- src/gameManager.js&#45;&gt;src/Boss.js -->
<g id="edge11" class="edge">
<title>src/gameManager.js&#45;&gt;src/Boss.js</title>
<path fill="none" stroke="#757575" d="M168.21,-394.83C183.17,-371.62 220.03,-320.22 266,-297.59 442.55,-210.66 685.76,-219.4 789.66,-228.22"/>
<polygon fill="#757575" stroke="#757575" points="789.59,-231.72 799.86,-229.12 790.21,-224.75 789.59,-231.72"/>
</g>
<!-- src/enemy.js -->
<g id="node5" class="node">
<title>src/enemy.js</title>
<path fill="none" stroke="#c6c5fe" d="M1076.83,-358.09C1076.83,-358.09 1000.17,-358.09 1000.17,-358.09 996.33,-358.09 992.5,-354.26 992.5,-350.42 992.5,-350.42 992.5,-342.76 992.5,-342.76 992.5,-338.92 996.33,-335.09 1000.17,-335.09 1000.17,-335.09 1076.83,-335.09 1076.83,-335.09 1080.67,-335.09 1084.5,-338.92 1084.5,-342.76 1084.5,-342.76 1084.5,-350.42 1084.5,-350.42 1084.5,-354.26 1080.67,-358.09 1076.83,-358.09"/>
<text text-anchor="middle" x="1038.5" y="-342.89" font-family="Arial" font-size="14.00" fill="#c6c5fe">src/enemy.js</text>
</g>
<!-- src/gameManager.js&#45;&gt;src/enemy.js -->
<g id="edge14" class="edge">
<title>src/gameManager.js&#45;&gt;src/enemy.js</title>
<path fill="none" stroke="#757575" d="M184.76,-394.94C238.76,-369.57 375.43,-311.59 496.5,-311.59 496.5,-311.59 496.5,-311.59 682.5,-311.59 788.83,-311.59 912.21,-327.33 981.94,-337.7"/>
<polygon fill="#757575" stroke="#757575" points="981.84,-341.22 992.25,-339.25 982.88,-334.3 981.84,-341.22"/>
</g>
<!-- src/levelCompleteScreen.js -->
<g id="node7" class="node">
<title>src/levelCompleteScreen.js</title>
<path fill="none" stroke="#cfffac" d="M1869.33,-52.09C1869.33,-52.09 1703.67,-52.09 1703.67,-52.09 1699.83,-52.09 1696,-48.26 1696,-44.42 1696,-44.42 1696,-36.76 1696,-36.76 1696,-32.92 1699.83,-29.09 1703.67,-29.09 1703.67,-29.09 1869.33,-29.09 1869.33,-29.09 1873.17,-29.09 1877,-32.92 1877,-36.76 1877,-36.76 1877,-44.42 1877,-44.42 1877,-48.26 1873.17,-52.09 1869.33,-52.09"/>
<text text-anchor="middle" x="1786.5" y="-36.89" font-family="Arial" font-size="14.00" fill="#cfffac">src/levelCompleteScreen.js</text>
</g>
<!-- src/gameManager.js&#45;&gt;src/levelCompleteScreen.js -->
<g id="edge17" class="edge">
<title>src/gameManager.js&#45;&gt;src/levelCompleteScreen.js</title>
<path fill="none" stroke="#757575" d="M160.61,-394.77C159.67,-345.2 162.98,-152.16 266,-55.59 342.69,16.3 391.38,-2.59 496.5,-2.59 496.5,-2.59 496.5,-2.59 1325,-2.59 1450.77,-2.59 1595.22,-16.84 1688.29,-27.89"/>
<polygon fill="#757575" stroke="#757575" points="1687.91,-31.37 1698.25,-29.09 1688.74,-24.42 1687.91,-31.37"/>
</g>
<!-- src/ammo.js -->
<g id="node8" class="node">
<title>src/ammo.js</title>
<path fill="none" stroke="#c6c5fe" d="M1361.83,-517.09C1361.83,-517.09 1286.17,-517.09 1286.17,-517.09 1282.33,-517.09 1278.5,-513.26 1278.5,-509.42 1278.5,-509.42 1278.5,-501.76 1278.5,-501.76 1278.5,-497.92 1282.33,-494.09 1286.17,-494.09 1286.17,-494.09 1361.83,-494.09 1361.83,-494.09 1365.67,-494.09 1369.5,-497.92 1369.5,-501.76 1369.5,-501.76 1369.5,-509.42 1369.5,-509.42 1369.5,-513.26 1365.67,-517.09 1361.83,-517.09"/>
<text text-anchor="middle" x="1324" y="-501.89" font-family="Arial" font-size="14.00" fill="#c6c5fe">src/ammo.js</text>
</g>
<!-- src/gameManager.js&#45;&gt;src/ammo.js -->
<g id="edge12" class="edge">
<title>src/gameManager.js&#45;&gt;src/ammo.js</title>
<path fill="none" stroke="#757575" d="M214.82,-418.14C231.21,-421.45 249.3,-424.88 266,-427.59 397.31,-448.87 435.79,-425.71 563,-464.59 732.18,-516.29 745.95,-603.46 918,-644.59 1022.18,-669.49 1064.78,-695.53 1159,-644.59 1184.7,-630.7 1174.35,-610.26 1195,-589.59 1223.35,-561.2 1262.77,-537.09 1290.34,-522.08"/>
<polygon fill="#757575" stroke="#757575" points="1292.04,-525.14 1299.21,-517.34 1288.74,-518.97 1292.04,-525.14"/>
</g>
<!-- src/background.js -->
<g id="node10" class="node">
<title>src/background.js</title>
<path fill="none" stroke="#cfffac" d="M1091.83,-399.09C1091.83,-399.09 985.17,-399.09 985.17,-399.09 981.33,-399.09 977.5,-395.26 977.5,-391.42 977.5,-391.42 977.5,-383.76 977.5,-383.76 977.5,-379.92 981.33,-376.09 985.17,-376.09 985.17,-376.09 1091.83,-376.09 1091.83,-376.09 1095.67,-376.09 1099.5,-379.92 1099.5,-383.76 1099.5,-383.76 1099.5,-391.42 1099.5,-391.42 1099.5,-395.26 1095.67,-399.09 1091.83,-399.09"/>
<text text-anchor="middle" x="1038.5" y="-383.89" font-family="Arial" font-size="14.00" fill="#cfffac">src/background.js</text>
</g>
<!-- src/gameManager.js&#45;&gt;src/background.js -->
<g id="edge13" class="edge">
<title>src/gameManager.js&#45;&gt;src/background.js</title>
<path fill="none" stroke="#757575" d="M230.14,-405.09C393.67,-401.55 802.79,-392.68 967.33,-389.11"/>
<polygon fill="#757575" stroke="#757575" points="967.42,-392.61 977.34,-388.89 967.27,-385.61 967.42,-392.61"/>
</g>
<!-- src/gameState.js -->
<g id="node13" class="node">
<title>src/gameState.js</title>
<path fill="none" stroke="#cfffac" d="M1837.83,-827.09C1837.83,-827.09 1735.17,-827.09 1735.17,-827.09 1731.33,-827.09 1727.5,-823.26 1727.5,-819.42 1727.5,-819.42 1727.5,-811.76 1727.5,-811.76 1727.5,-807.92 1731.33,-804.09 1735.17,-804.09 1735.17,-804.09 1837.83,-804.09 1837.83,-804.09 1841.67,-804.09 1845.5,-807.92 1845.5,-811.76 1845.5,-811.76 1845.5,-819.42 1845.5,-819.42 1845.5,-823.26 1841.67,-827.09 1837.83,-827.09"/>
<text text-anchor="middle" x="1786.5" y="-811.89" font-family="Arial" font-size="14.00" fill="#cfffac">src/gameState.js</text>
</g>
<!-- src/gameManager.js&#45;&gt;src/gameState.js -->
<g id="edge15" class="edge">
<title>src/gameManager.js&#45;&gt;src/gameState.js</title>
<path fill="none" stroke="#757575" d="M162.12,-418.31C170.54,-498.87 230.95,-967.59 496.5,-967.59 496.5,-967.59 496.5,-967.59 1325,-967.59 1475.88,-967.59 1521.64,-972.78 1660,-912.59 1703.14,-893.82 1744.6,-856.9 1767.4,-834.41"/>
<polygon fill="#757575" stroke="#757575" points="1770.09,-836.67 1774.66,-827.12 1765.13,-831.74 1770.09,-836.67"/>
</g>
<!-- src/keyboard.js -->
<g id="node14" class="node">
<title>src/keyboard.js</title>
<path fill="none" stroke="#c6c5fe" d="M543.33,-691.09C543.33,-691.09 451.67,-691.09 451.67,-691.09 447.83,-691.09 444,-687.26 444,-683.42 444,-683.42 444,-675.76 444,-675.76 444,-671.92 447.83,-668.09 451.67,-668.09 451.67,-668.09 543.33,-668.09 543.33,-668.09 547.17,-668.09 551,-671.92 551,-675.76 551,-675.76 551,-683.42 551,-683.42 551,-687.26 547.17,-691.09 543.33,-691.09"/>
<text text-anchor="middle" x="497.5" y="-675.89" font-family="Arial" font-size="14.00" fill="#c6c5fe">src/keyboard.js</text>
</g>
<!-- src/gameManager.js&#45;&gt;src/keyboard.js -->
<g id="edge16" class="edge">
<title>src/gameManager.js&#45;&gt;src/keyboard.js</title>
<path fill="none" stroke="#757575" d="M164.93,-418.23C175.97,-449.3 210.15,-535.1 266,-583.59 314.64,-625.82 384.47,-651.37 434.51,-665.38"/>
<polygon fill="#757575" stroke="#757575" points="433.67,-668.78 444.24,-668.02 435.51,-662.02 433.67,-668.78"/>
</g>
<!-- src/music.js -->
<g id="node15" class="node">
<title>src/music.js</title>
<path fill="none" stroke="#cfffac" d="M1822.83,-242.09C1822.83,-242.09 1750.17,-242.09 1750.17,-242.09 1746.33,-242.09 1742.5,-238.26 1742.5,-234.42 1742.5,-234.42 1742.5,-226.76 1742.5,-226.76 1742.5,-222.92 1746.33,-219.09 1750.17,-219.09 1750.17,-219.09 1822.83,-219.09 1822.83,-219.09 1826.67,-219.09 1830.5,-222.92 1830.5,-226.76 1830.5,-226.76 1830.5,-234.42 1830.5,-234.42 1830.5,-238.26 1826.67,-242.09 1822.83,-242.09"/>
<text text-anchor="middle" x="1786.5" y="-226.89" font-family="Arial" font-size="14.00" fill="#cfffac">src/music.js</text>
</g>
<!-- src/gameManager.js&#45;&gt;src/music.js -->
<g id="edge18" class="edge">
<title>src/gameManager.js&#45;&gt;src/music.js</title>
<path fill="none" stroke="#757575" d="M166.95,-394.86C195.38,-340.61 323.27,-116.59 496.5,-116.59 496.5,-116.59 496.5,-116.59 1325,-116.59 1475.74,-116.59 1516.2,-124.37 1660,-169.59 1695.04,-180.61 1732.6,-199.97 1757.4,-213.93"/>
<polygon fill="#757575" stroke="#757575" points="1755.83,-217.07 1766.25,-218.99 1759.3,-210.99 1755.83,-217.07"/>
</g>
<!-- src/player/Player.js -->
<g id="node16" class="node">
<title>src/player/Player.js</title>
<path fill="none" stroke="#c6c5fe" d="M388.33,-574.09C388.33,-574.09 273.67,-574.09 273.67,-574.09 269.83,-574.09 266,-570.26 266,-566.42 266,-566.42 266,-558.76 266,-558.76 266,-554.92 269.83,-551.09 273.67,-551.09 273.67,-551.09 388.33,-551.09 388.33,-551.09 392.17,-551.09 396,-554.92 396,-558.76 396,-558.76 396,-566.42 396,-566.42 396,-570.26 392.17,-574.09 388.33,-574.09"/>
<text text-anchor="middle" x="331" y="-558.89" font-family="Arial" font-size="14.00" fill="#c6c5fe">src/player/Player.js</text>
</g>
<!-- src/gameManager.js&#45;&gt;src/player/Player.js -->
<g id="edge19" class="edge">
<title>src/gameManager.js&#45;&gt;src/player/Player.js</title>
<path fill="none" stroke="#757575" d="M173.7,-418.32C202.7,-445.08 273.98,-510.88 309.37,-543.55"/>
<polygon fill="#757575" stroke="#757575" points="307.43,-546.52 317.15,-550.73 312.18,-541.37 307.43,-546.52"/>
</g>
<!-- src/rendering/Helpers.js -->
<g id="node17" class="node">
<title>src/rendering/Helpers.js</title>
<path fill="none" stroke="#cfffac" d="M1858.33,-555.09C1858.33,-555.09 1714.67,-555.09 1714.67,-555.09 1710.83,-555.09 1707,-551.26 1707,-547.42 1707,-547.42 1707,-539.76 1707,-539.76 1707,-535.92 1710.83,-532.09 1714.67,-532.09 1714.67,-532.09 1858.33,-532.09 1858.33,-532.09 1862.17,-532.09 1866,-535.92 1866,-539.76 1866,-539.76 1866,-547.42 1866,-547.42 1866,-551.26 1862.17,-555.09 1858.33,-555.09"/>
<text text-anchor="middle" x="1786.5" y="-539.89" font-family="Arial" font-size="14.00" fill="#cfffac">src/rendering/Helpers.js</text>
</g>
<!-- src/gameManager.js&#45;&gt;src/rendering/Helpers.js -->
<g id="edge20" class="edge">
<title>src/gameManager.js&#45;&gt;src/rendering/Helpers.js</title>
<path fill="none" stroke="#757575" d="M163.56,-418.55C179.55,-489.63 272.36,-853.59 496.5,-853.59 496.5,-853.59 496.5,-853.59 1039.5,-853.59 1225.27,-853.59 1281.51,-864.01 1453,-792.59 1589.53,-735.73 1720.7,-610.17 1767.48,-562.47"/>
<polygon fill="#757575" stroke="#757575" points="1770.03,-564.87 1774.49,-555.26 1765.01,-559.99 1770.03,-564.87"/>
</g>
<!-- src/speedometer.js -->
<g id="node18" class="node">
<title>src/speedometer.js</title>
<path fill="none" stroke="#cfffac" d="M555.33,-496.09C555.33,-496.09 439.67,-496.09 439.67,-496.09 435.83,-496.09 432,-492.26 432,-488.42 432,-488.42 432,-480.76 432,-480.76 432,-476.92 435.83,-473.09 439.67,-473.09 439.67,-473.09 555.33,-473.09 555.33,-473.09 559.17,-473.09 563,-476.92 563,-480.76 563,-480.76 563,-488.42 563,-488.42 563,-492.26 559.17,-496.09 555.33,-496.09"/>
<text text-anchor="middle" x="497.5" y="-480.89" font-family="Arial" font-size="14.00" fill="#cfffac">src/speedometer.js</text>
</g>
<!-- src/gameManager.js&#45;&gt;src/speedometer.js -->
<g id="edge21" class="edge">
<title>src/gameManager.js&#45;&gt;src/speedometer.js</title>
<path fill="none" stroke="#757575" d="M179.54,-418.26C199.9,-430.48 233.99,-449.18 266,-458.59 316.64,-473.49 375.86,-479.94 421.59,-482.7"/>
<polygon fill="#757575" stroke="#757575" points="421.55,-486.2 431.73,-483.26 421.94,-479.21 421.55,-486.2"/>
</g>
<!-- src/step.js -->
<g id="node19" class="node">
<title>src/step.js</title>
<path fill="none" stroke="#c6c5fe" d="M871.83,-479.09C871.83,-479.09 810.17,-479.09 810.17,-479.09 806.33,-479.09 802.5,-475.26 802.5,-471.42 802.5,-471.42 802.5,-463.76 802.5,-463.76 802.5,-459.92 806.33,-456.09 810.17,-456.09 810.17,-456.09 871.83,-456.09 871.83,-456.09 875.67,-456.09 879.5,-459.92 879.5,-463.76 879.5,-463.76 879.5,-471.42 879.5,-471.42 879.5,-475.26 875.67,-479.09 871.83,-479.09"/>
<text text-anchor="middle" x="841" y="-463.89" font-family="Arial" font-size="14.00" fill="#c6c5fe">src/step.js</text>
</g>
<!-- src/gameManager.js&#45;&gt;src/step.js -->
<g id="edge22" class="edge">
<title>src/gameManager.js&#45;&gt;src/step.js</title>
<path fill="none" stroke="#757575" d="M230.12,-409.18C310.31,-412.54 446.43,-419.34 563,-430.59 643.76,-438.38 737.2,-451.78 792.3,-460.14"/>
<polygon fill="#757575" stroke="#757575" points="792.05,-463.64 802.47,-461.69 793.11,-456.72 792.05,-463.64"/>
</g>
<!-- src/startScreen.js&#45;&gt;src/music.js -->
<g id="edge49" class="edge">
<title>src/startScreen.js&#45;&gt;src/music.js</title>
<path fill="none" stroke="#757575" d="M391.51,-77.14C460.88,-77.73 579,-78.59 680.5,-78.59 680.5,-78.59 680.5,-78.59 1325,-78.59 1474.27,-78.59 1524.53,-39.9 1660,-102.59 1711.23,-126.29 1752.86,-180.66 1772.78,-210.34"/>
<polygon fill="#757575" stroke="#757575" points="1770.07,-212.59 1778.47,-219.04 1775.93,-208.76 1770.07,-212.59"/>
</g>
<!-- src/Boss.js&#45;&gt;src/enemy.js -->
<g id="edge3" class="edge">
<title>src/Boss.js&#45;&gt;src/enemy.js</title>
<path fill="none" stroke="#757575" d="M859.26,-245.29C874.5,-255.48 897.44,-270.48 918,-282.59 947,-299.67 980.9,-317.64 1005.16,-330.17"/>
<polygon fill="#757575" stroke="#757575" points="1003.79,-333.4 1014.29,-334.86 1006.99,-327.18 1003.79,-333.4"/>
</g>
<!-- src/gatling.js -->
<g id="node6" class="node">
<title>src/gatling.js</title>
<path fill="none" stroke="#c6c5fe" d="M1612.83,-477.09C1612.83,-477.09 1536.17,-477.09 1536.17,-477.09 1532.33,-477.09 1528.5,-473.26 1528.5,-469.42 1528.5,-469.42 1528.5,-461.76 1528.5,-461.76 1528.5,-457.92 1532.33,-454.09 1536.17,-454.09 1536.17,-454.09 1612.83,-454.09 1612.83,-454.09 1616.67,-454.09 1620.5,-457.92 1620.5,-461.76 1620.5,-461.76 1620.5,-469.42 1620.5,-469.42 1620.5,-473.26 1616.67,-477.09 1612.83,-477.09"/>
<text text-anchor="middle" x="1574.5" y="-461.89" font-family="Arial" font-size="14.00" fill="#c6c5fe">src/gatling.js</text>
</g>
<!-- src/Boss.js&#45;&gt;src/gatling.js -->
<g id="edge4" class="edge">
<title>src/Boss.js&#45;&gt;src/gatling.js</title>
<path fill="none" stroke="#757575" d="M882.24,-237.69C945.75,-245.76 1071.03,-268.3 1159,-326.59 1180.06,-340.55 1172.9,-358.34 1195,-370.59 1296.11,-426.63 1348.87,-353.38 1453,-403.59 1473.1,-413.28 1469.86,-427.11 1489,-438.59 1498.11,-444.05 1508.44,-448.53 1518.68,-452.16"/>
<polygon fill="#757575" stroke="#757575" points="1517.83,-455.57 1528.42,-455.38 1520.02,-448.92 1517.83,-455.57"/>
</g>
<!-- src/Boss.js&#45;&gt;src/levelCompleteScreen.js -->
<g id="edge5" class="edge">
<title>src/Boss.js&#45;&gt;src/levelCompleteScreen.js</title>
<path fill="none" stroke="#757575" d="M854.39,-221.99C868.62,-209.32 893.22,-189.41 918,-178.59 1155.16,-75.02 1232.71,-100.42 1489,-64.59 1554.14,-55.48 1627.84,-49.5 1685.47,-45.78"/>
<polygon fill="#757575" stroke="#757575" points="1685.92,-49.26 1695.68,-45.14 1685.47,-42.27 1685.92,-49.26"/>
</g>
<!-- src/enemy.js&#45;&gt;src/gatling.js -->
<g id="edge9" class="edge">
<title>src/enemy.js&#45;&gt;src/gatling.js</title>
<path fill="none" stroke="#757575" d="M1084.71,-348.08C1107.99,-350.4 1136.2,-355.73 1159,-367.59 1179.07,-378.03 1174.87,-393.26 1195,-403.59 1223.29,-418.1 1420.04,-445.47 1518.15,-458.43"/>
<polygon fill="#757575" stroke="#757575" points="1517.81,-461.92 1528.18,-459.75 1518.72,-454.98 1517.81,-461.92"/>
</g>
<!-- src/enemyManoeuvre.js -->
<g id="node11" class="node">
<title>src/enemyManoeuvre.js</title>
<path fill="none" stroke="#cfffac" d="M1396.83,-320.09C1396.83,-320.09 1251.17,-320.09 1251.17,-320.09 1247.33,-320.09 1243.5,-316.26 1243.5,-312.42 1243.5,-312.42 1243.5,-304.76 1243.5,-304.76 1243.5,-300.92 1247.33,-297.09 1251.17,-297.09 1251.17,-297.09 1396.83,-297.09 1396.83,-297.09 1400.67,-297.09 1404.5,-300.92 1404.5,-304.76 1404.5,-304.76 1404.5,-312.42 1404.5,-312.42 1404.5,-316.26 1400.67,-320.09 1396.83,-320.09"/>
<text text-anchor="middle" x="1324" y="-304.89" font-family="Arial" font-size="14.00" fill="#cfffac">src/enemyManoeuvre.js</text>
</g>
<!-- src/enemy.js&#45;&gt;src/enemyManoeuvre.js -->
<g id="edge8" class="edge">
<title>src/enemy.js&#45;&gt;src/enemyManoeuvre.js</title>
<path fill="none" stroke="#757575" d="M1084.73,-340.53C1124.59,-335.18 1183.83,-327.24 1233.26,-320.62"/>
<polygon fill="#757575" stroke="#757575" points="1233.89,-324.07 1243.33,-319.27 1232.96,-317.13 1233.89,-324.07"/>
</g>
<!-- src/rendering/EnemyCollisionsChecks.js -->
<g id="node12" class="node">
<title>src/rendering/EnemyCollisionsChecks.js</title>
<path fill="none" stroke="#c6c5fe" d="M1445.33,-361.09C1445.33,-361.09 1202.67,-361.09 1202.67,-361.09 1198.83,-361.09 1195,-357.26 1195,-353.42 1195,-353.42 1195,-345.76 1195,-345.76 1195,-341.92 1198.83,-338.09 1202.67,-338.09 1202.67,-338.09 1445.33,-338.09 1445.33,-338.09 1449.17,-338.09 1453,-341.92 1453,-345.76 1453,-345.76 1453,-353.42 1453,-353.42 1453,-357.26 1449.17,-361.09 1445.33,-361.09"/>
<text text-anchor="middle" x="1324" y="-345.89" font-family="Arial" font-size="14.00" fill="#c6c5fe">src/rendering/EnemyCollisionsChecks.js</text>
</g>
<!-- src/enemy.js&#45;&gt;src/rendering/EnemyCollisionsChecks.js -->
<g id="edge10" class="edge">
<title>src/enemy.js&#45;&gt;src/rendering/EnemyCollisionsChecks.js</title>
<path fill="none" stroke="#757575" d="M1084.73,-347.07C1112.1,-347.36 1148.6,-347.74 1184.8,-348.13"/>
<polygon fill="#757575" stroke="#757575" points="1184.95,-351.63 1194.99,-348.24 1185.03,-344.63 1184.95,-351.63"/>
</g>
<!-- src/gatling.js&#45;&gt;src/gameState.js -->
<g id="edge27" class="edge">
<title>src/gatling.js&#45;&gt;src/gameState.js</title>
<path fill="none" stroke="#757575" d="M1599.38,-477.19C1618,-487.25 1643.4,-503.38 1660,-523.59 1730.96,-609.99 1768.22,-742.56 1780.66,-794.08"/>
<polygon fill="#757575" stroke="#757575" points="1777.31,-795.12 1783.01,-804.06 1784.13,-793.52 1777.31,-795.12"/>
</g>
<!-- src/gatling.js&#45;&gt;src/music.js -->
<g id="edge28" class="edge">
<title>src/gatling.js&#45;&gt;src/music.js</title>
<path fill="none" stroke="#757575" d="M1585.91,-453.94C1619.64,-416.19 1726.13,-297.03 1768.18,-249.98"/>
<polygon fill="#757575" stroke="#757575" points="1770.97,-252.1 1775.02,-242.31 1765.75,-247.44 1770.97,-252.1"/>
</g>
<!-- src/ammo.js&#45;&gt;src/gatling.js -->
<g id="edge6" class="edge">
<title>src/ammo.js&#45;&gt;src/gatling.js</title>
<path fill="none" stroke="#757575" d="M1369.71,-498.39C1411.33,-491.69 1473.48,-481.69 1518.19,-474.49"/>
<polygon fill="#757575" stroke="#757575" points="1518.99,-477.91 1528.31,-472.86 1517.88,-471 1518.99,-477.91"/>
</g>
<!-- src/rocket.js -->
<g id="node9" class="node">
<title>src/rocket.js</title>
<path fill="none" stroke="#c6c5fe" d="M1611.33,-555.09C1611.33,-555.09 1537.67,-555.09 1537.67,-555.09 1533.83,-555.09 1530,-551.26 1530,-547.42 1530,-547.42 1530,-539.76 1530,-539.76 1530,-535.92 1533.83,-532.09 1537.67,-532.09 1537.67,-532.09 1611.33,-532.09 1611.33,-532.09 1615.17,-532.09 1619,-535.92 1619,-539.76 1619,-539.76 1619,-547.42 1619,-547.42 1619,-551.26 1615.17,-555.09 1611.33,-555.09"/>
<text text-anchor="middle" x="1574.5" y="-539.89" font-family="Arial" font-size="14.00" fill="#c6c5fe">src/rocket.js</text>
</g>
<!-- src/ammo.js&#45;&gt;src/rocket.js -->
<g id="edge7" class="edge">
<title>src/ammo.js&#45;&gt;src/rocket.js</title>
<path fill="none" stroke="#757575" d="M1369.71,-512.43C1411.85,-518.87 1475.03,-528.53 1519.86,-535.39"/>
<polygon fill="#757575" stroke="#757575" points="1519.56,-538.88 1529.98,-536.93 1520.62,-531.96 1519.56,-538.88"/>
</g>
<!-- src/rocket.js&#45;&gt;src/rendering/Helpers.js -->
<g id="edge48" class="edge">
<title>src/rocket.js&#45;&gt;src/rendering/Helpers.js</title>
<path fill="none" stroke="#757575" d="M1619.01,-543.59C1641.49,-543.59 1669.77,-543.59 1696.61,-543.59"/>
<polygon fill="#757575" stroke="#757575" points="1696.82,-547.09 1706.82,-543.59 1696.82,-540.09 1696.82,-547.09"/>
</g>
<!-- src/rendering/EnemyCollisionsChecks.js&#45;&gt;src/gatling.js -->
<g id="edge43" class="edge">
<title>src/rendering/EnemyCollisionsChecks.js&#45;&gt;src/gatling.js</title>
<path fill="none" stroke="#757575" d="M1425.39,-361.1C1435.24,-364.78 1444.66,-369.52 1453,-375.59 1479.38,-394.8 1463.59,-419.11 1489,-439.59 1497.6,-446.52 1508.04,-451.61 1518.61,-455.35"/>
<polygon fill="#757575" stroke="#757575" points="1517.72,-458.73 1528.31,-458.41 1519.83,-452.06 1517.72,-458.73"/>
</g>
<!-- src/rendering/EnemyCollisionsChecks.js&#45;&gt;src/rocket.js -->
<g id="edge47" class="edge">
<title>src/rendering/EnemyCollisionsChecks.js&#45;&gt;src/rocket.js</title>
<path fill="none" stroke="#757575" d="M1338.23,-361.44C1365.62,-385.8 1430.88,-442.89 1489,-486.59 1507.62,-500.59 1529.43,-515.26 1546.23,-526.21"/>
<polygon fill="#757575" stroke="#757575" points="1544.7,-529.39 1554.99,-531.89 1548.5,-523.51 1544.7,-529.39"/>
</g>
<!-- src/rendering/EnemyCollisionsChecks.js&#45;&gt;src/gameState.js -->
<g id="edge42" class="edge">
<title>src/rendering/EnemyCollisionsChecks.js&#45;&gt;src/gameState.js</title>
<path fill="none" stroke="#757575" d="M1410.83,-361.11C1425.3,-364.71 1439.87,-369.42 1453,-375.59 1471.6,-384.33 1470.56,-395.53 1489,-404.59 1559.14,-439.06 1603.15,-391.96 1660,-445.59 1700.2,-483.5 1678.72,-512.11 1696,-564.59 1724.28,-650.45 1761.53,-751.46 1777.58,-794.48"/>
<polygon fill="#757575" stroke="#757575" points="1774.32,-795.76 1781.1,-803.9 1780.88,-793.31 1774.32,-795.76"/>
</g>
<!-- src/rendering/EnemyCollisionsChecks.js&#45;&gt;src/music.js -->
<g id="edge44" class="edge">
<title>src/rendering/EnemyCollisionsChecks.js&#45;&gt;src/music.js</title>
<path fill="none" stroke="#757575" d="M1408.9,-338.09C1477.45,-327.44 1576.35,-309.2 1660,-282.59 1691.74,-272.49 1726.67,-257.7 1751.59,-246.48"/>
<polygon fill="#757575" stroke="#757575" points="1753.31,-249.54 1760.96,-242.22 1750.41,-243.17 1753.31,-249.54"/>
</g>
<!-- src/rendering/EnemyCollisionsChecks.js&#45;&gt;src/rendering/Helpers.js -->
<g id="edge46" class="edge">
<title>src/rendering/EnemyCollisionsChecks.js&#45;&gt;src/rendering/Helpers.js</title>
<path fill="none" stroke="#757575" d="M1424.32,-361.1C1507.97,-372.03 1620.16,-389.99 1660,-411.59 1710.38,-438.91 1752.33,-493.71 1772.54,-523.39"/>
<polygon fill="#757575" stroke="#757575" points="1769.64,-525.35 1778.09,-531.73 1775.46,-521.47 1769.64,-525.35"/>
</g>
<!-- src/gameOver.js -->
<g id="node21" class="node">
<title>src/gameOver.js</title>
<path fill="none" stroke="#c6c5fe" d="M1624.83,-202.09C1624.83,-202.09 1524.17,-202.09 1524.17,-202.09 1520.33,-202.09 1516.5,-198.26 1516.5,-194.42 1516.5,-194.42 1516.5,-186.76 1516.5,-186.76 1516.5,-182.92 1520.33,-179.09 1524.17,-179.09 1524.17,-179.09 1624.83,-179.09 1624.83,-179.09 1628.67,-179.09 1632.5,-182.92 1632.5,-186.76 1632.5,-186.76 1632.5,-194.42 1632.5,-194.42 1632.5,-198.26 1628.67,-202.09 1624.83,-202.09"/>
<text text-anchor="middle" x="1574.5" y="-186.89" font-family="Arial" font-size="14.00" fill="#c6c5fe">src/gameOver.js</text>
</g>
<!-- src/rendering/EnemyCollisionsChecks.js&#45;&gt;src/gameOver.js -->
<g id="edge41" class="edge">
<title>src/rendering/EnemyCollisionsChecks.js&#45;&gt;src/gameOver.js</title>
<path fill="none" stroke="#757575" d="M1434.34,-337.99C1440.82,-335.64 1447.1,-332.86 1453,-329.59 1466.51,-322.11 1528.44,-246.53 1557.87,-210.07"/>
<polygon fill="#757575" stroke="#757575" points="1560.74,-212.09 1564.28,-202.11 1555.28,-207.7 1560.74,-212.09"/>
</g>
<!-- src/rendering/Explosion.js -->
<g id="node25" class="node">
<title>src/rendering/Explosion.js</title>
<path fill="none" stroke="#cfffac" d="M1652.33,-359.09C1652.33,-359.09 1496.67,-359.09 1496.67,-359.09 1492.83,-359.09 1489,-355.26 1489,-351.42 1489,-351.42 1489,-343.76 1489,-343.76 1489,-339.92 1492.83,-336.09 1496.67,-336.09 1496.67,-336.09 1652.33,-336.09 1652.33,-336.09 1656.17,-336.09 1660,-339.92 1660,-343.76 1660,-343.76 1660,-351.42 1660,-351.42 1660,-355.26 1656.17,-359.09 1652.33,-359.09"/>
<text text-anchor="middle" x="1574.5" y="-343.89" font-family="Arial" font-size="14.00" fill="#cfffac">src/rendering/Explosion.js</text>
</g>
<!-- src/rendering/EnemyCollisionsChecks.js&#45;&gt;src/rendering/Explosion.js -->
<g id="edge45" class="edge">
<title>src/rendering/EnemyCollisionsChecks.js&#45;&gt;src/rendering/Explosion.js</title>
<path fill="none" stroke="#757575" d="M1453.25,-348.56C1461.86,-348.49 1470.44,-348.42 1478.83,-348.35"/>
<polygon fill="#757575" stroke="#757575" points="1478.98,-351.85 1488.96,-348.27 1478.93,-344.85 1478.98,-351.85"/>
</g>
<!-- src/keyboard.js&#45;&gt;src/gatling.js -->
<g id="edge31" class="edge">
<title>src/keyboard.js&#45;&gt;src/gatling.js</title>
<path fill="none" stroke="#757575" d="M520.98,-691.12C540.93,-700.76 571.13,-713.98 599,-720.59 703.54,-745.4 732.56,-739.59 840,-739.59 840,-739.59 840,-739.59 1039.5,-739.59 1152.46,-739.59 1457.09,-543.07 1547.72,-482.89"/>
<polygon fill="#757575" stroke="#757575" points="1549.9,-485.64 1556.29,-477.19 1546.02,-479.82 1549.9,-485.64"/>
</g>
<!-- src/keyboard.js&#45;&gt;src/rocket.js -->
<g id="edge33" class="edge">
<title>src/keyboard.js&#45;&gt;src/rocket.js</title>
<path fill="none" stroke="#757575" d="M509.9,-691.3C527.31,-708.35 562.39,-739.52 599,-753.59 699.47,-792.21 732.36,-777.59 840,-777.59 840,-777.59 840,-777.59 1039.5,-777.59 1223.59,-777.59 1296.44,-850.42 1453,-753.59 1523.36,-710.07 1556.76,-609.34 1568.44,-565.09"/>
<polygon fill="#757575" stroke="#757575" points="1571.9,-565.68 1570.95,-555.13 1565.11,-563.97 1571.9,-565.68"/>
</g>
<!-- src/keyboard.js&#45;&gt;src/gameState.js -->
<g id="edge30" class="edge">
<title>src/keyboard.js&#45;&gt;src/gameState.js</title>
<path fill="none" stroke="#757575" d="M508.01,-691.29C545.26,-735.73 686.83,-891.59 840,-891.59 840,-891.59 840,-891.59 1325,-891.59 1475.28,-891.59 1649.5,-851.7 1734.11,-829.72"/>
<polygon fill="#757575" stroke="#757575" points="1735.19,-833.06 1743.97,-827.13 1733.41,-826.28 1735.19,-833.06"/>
</g>
<!-- src/keyboard.js&#45;&gt;src/music.js -->
<g id="edge32" class="edge">
<title>src/keyboard.js&#45;&gt;src/music.js</title>
<path fill="none" stroke="#757575" d="M515.22,-667.98C557.96,-638.07 674.19,-555.25 764,-477.59 836.51,-414.89 832.01,-368.95 918,-326.59 985.96,-293.11 1557.59,-255.04 1660,-244.59 1683.74,-242.17 1709.97,-239.28 1732.29,-236.75"/>
<polygon fill="#757575" stroke="#757575" points="1732.71,-240.23 1742.25,-235.62 1731.92,-233.27 1732.71,-240.23"/>
</g>
<!-- src/gameMenuActions.js -->
<g id="node20" class="node">
<title>src/gameMenuActions.js</title>
<path fill="none" stroke="#c6c5fe" d="M756.33,-670.09C756.33,-670.09 606.67,-670.09 606.67,-670.09 602.83,-670.09 599,-666.26 599,-662.42 599,-662.42 599,-654.76 599,-654.76 599,-650.92 602.83,-647.09 606.67,-647.09 606.67,-647.09 756.33,-647.09 756.33,-647.09 760.17,-647.09 764,-650.92 764,-654.76 764,-654.76 764,-662.42 764,-662.42 764,-666.26 760.17,-670.09 756.33,-670.09"/>
<text text-anchor="middle" x="681.5" y="-654.89" font-family="Arial" font-size="14.00" fill="#c6c5fe">src/gameMenuActions.js</text>
</g>
<!-- src/keyboard.js&#45;&gt;src/gameMenuActions.js -->
<g id="edge29" class="edge">
<title>src/keyboard.js&#45;&gt;src/gameMenuActions.js</title>
<path fill="none" stroke="#757575" d="M551.14,-673.52C562.91,-672.16 575.71,-670.68 588.55,-669.2"/>
<polygon fill="#757575" stroke="#757575" points="589.3,-672.64 598.83,-668.01 588.49,-665.68 589.3,-672.64"/>
</g>
<!-- src/touch.js -->
<g id="node22" class="node">
<title>src/touch.js</title>
<path fill="none" stroke="#c6c5fe" d="M716.33,-711.09C716.33,-711.09 646.67,-711.09 646.67,-711.09 642.83,-711.09 639,-707.26 639,-703.42 639,-703.42 639,-695.76 639,-695.76 639,-691.92 642.83,-688.09 646.67,-688.09 646.67,-688.09 716.33,-688.09 716.33,-688.09 720.17,-688.09 724,-691.92 724,-695.76 724,-695.76 724,-703.42 724,-703.42 724,-707.26 720.17,-711.09 716.33,-711.09"/>
<text text-anchor="middle" x="681.5" y="-695.89" font-family="Arial" font-size="14.00" fill="#c6c5fe">src/touch.js</text>
</g>
<!-- src/keyboard.js&#45;&gt;src/touch.js -->
<g id="edge34" class="edge">
<title>src/keyboard.js&#45;&gt;src/touch.js</title>
<path fill="none" stroke="#757575" d="M551.14,-685.37C575.58,-688.06 604.53,-691.24 628.84,-693.91"/>
<polygon fill="#757575" stroke="#757575" points="628.63,-697.41 638.95,-695.02 629.39,-690.45 628.63,-697.41"/>
</g>
<!-- src/player/Player.js&#45;&gt;src/rocket.js -->
<g id="edge39" class="edge">
<title>src/player/Player.js&#45;&gt;src/rocket.js</title>
<path fill="none" stroke="#757575" d="M396.33,-572.38C480.99,-585.62 634.25,-610.79 764,-638.59 833.04,-653.38 847.94,-668.86 918,-677.59 1024.29,-690.84 1053.2,-694.27 1159,-677.59 1304.2,-654.7 1467.84,-589.33 1538.23,-559.18"/>
<polygon fill="#757575" stroke="#757575" points="1539.74,-562.34 1547.53,-555.16 1536.97,-555.91 1539.74,-562.34"/>
</g>
<!-- src/player/Player.js&#45;&gt;src/gameState.js -->
<g id="edge36" class="edge">
<title>src/player/Player.js&#45;&gt;src/gameState.js</title>
<path fill="none" stroke="#757575" d="M336.25,-574.38C359.72,-637.2 479.73,-929.59 680.5,-929.59 680.5,-929.59 680.5,-929.59 1325,-929.59 1475.67,-929.59 1516.35,-923.04 1660,-877.59 1695.34,-866.41 1733.11,-846.54 1757.88,-832.31"/>
<polygon fill="#757575" stroke="#757575" points="1759.83,-835.23 1766.7,-827.16 1756.3,-829.18 1759.83,-835.23"/>
</g>
<!-- src/player/Player.js&#45;&gt;src/keyboard.js -->
<g id="edge37" class="edge">
<title>src/player/Player.js&#45;&gt;src/keyboard.js</title>
<path fill="none" stroke="#757575" d="M348.37,-574.24C377.32,-594.82 437.68,-637.75 471.73,-661.97"/>
<polygon fill="#757575" stroke="#757575" points="470.01,-665.05 480.19,-667.99 474.07,-659.34 470.01,-665.05"/>
</g>
<!-- src/player/Player.js&#45;&gt;src/music.js -->
<g id="edge38" class="edge">
<title>src/player/Player.js&#45;&gt;src/music.js</title>
<path fill="none" stroke="#757575" d="M396.11,-570.73C445.52,-573.71 513.54,-570.33 563,-538.59 589.49,-521.59 577.36,-500.45 599,-477.59 655.96,-417.42 838.34,-307.38 918,-284.59 1162.59,-214.62 1234.89,-256.64 1489,-244.59 1573.98,-240.56 1672.66,-235.91 1732.03,-233.11"/>
<polygon fill="#757575" stroke="#757575" points="1732.46,-236.59 1742.29,-232.62 1732.13,-229.6 1732.46,-236.59"/>
</g>
<!-- src/player/Player.js&#45;&gt;src/speedometer.js -->
<g id="edge40" class="edge">
<title>src/player/Player.js&#45;&gt;src/speedometer.js</title>
<path fill="none" stroke="#757575" d="M352.78,-551.04C372.8,-540.08 404.09,-523.43 432,-510.59 439.88,-506.96 448.42,-503.32 456.63,-499.96"/>
<polygon fill="#757575" stroke="#757575" points="458.09,-503.15 466.05,-496.16 455.47,-496.66 458.09,-503.15"/>
</g>
<!-- src/player/Player.js&#45;&gt;src/gameOver.js -->
<g id="edge35" class="edge">
<title>src/player/Player.js&#45;&gt;src/gameOver.js</title>
<path fill="none" stroke="#757575" d="M396.25,-552.22C454.94,-541.78 536.5,-524.54 563,-505.59 587.07,-488.38 581.39,-473.37 599,-449.59 681.19,-338.59 684.02,-287.58 800,-212.59 845.83,-182.96 863.96,-186.22 918,-178.59 1131,-148.52 1386.76,-169.39 1506.06,-182.37"/>
<polygon fill="#757575" stroke="#757575" points="1505.81,-185.87 1516.14,-183.49 1506.58,-178.91 1505.81,-185.87"/>
</g>
<!-- src/step.js&#45;&gt;src/enemy.js -->
<g id="edge52" class="edge">
<title>src/step.js&#45;&gt;src/enemy.js</title>
<path fill="none" stroke="#757575" d="M847.17,-456.05C857.38,-434.74 882.25,-389.38 918,-367.59 937.09,-355.95 960.89,-350.36 982.21,-347.79"/>
<polygon fill="#757575" stroke="#757575" points="982.85,-351.24 992.45,-346.76 982.15,-344.28 982.85,-351.24"/>
</g>
<!-- src/step.js&#45;&gt;src/gatling.js -->
<g id="edge55" class="edge">
<title>src/step.js&#45;&gt;src/gatling.js</title>
<path fill="none" stroke="#757575" d="M878.35,-455.99C890.79,-452.57 904.88,-449.29 918,-447.59 1033.26,-432.68 1381.65,-453 1517.97,-461.84"/>
<polygon fill="#757575" stroke="#757575" points="1517.97,-465.35 1528.18,-462.51 1518.43,-458.37 1517.97,-465.35"/>
</g>
<!-- src/step.js&#45;&gt;src/ammo.js -->
<g id="edge50" class="edge">
<title>src/step.js&#45;&gt;src/ammo.js</title>
<path fill="none" stroke="#757575" d="M877.2,-479.11C889.92,-482.8 904.48,-486.47 918,-488.59 1042.09,-508.08 1190.02,-508.65 1268.22,-507.22"/>
<polygon fill="#757575" stroke="#757575" points="1268.4,-510.72 1278.33,-507.01 1268.26,-503.72 1268.4,-510.72"/>
</g>
<!-- src/step.js&#45;&gt;src/rocket.js -->
<g id="edge58" class="edge">
<title>src/step.js&#45;&gt;src/rocket.js</title>
<path fill="none" stroke="#757575" d="M857.01,-479.18C871.67,-489.76 895.06,-504.76 918,-511.59 1133.23,-575.69 1405.6,-560.05 1519.54,-549.47"/>
<polygon fill="#757575" stroke="#757575" points="1520.12,-552.93 1529.75,-548.49 1519.46,-545.96 1520.12,-552.93"/>
</g>
<!-- src/step.js&#45;&gt;src/background.js -->
<g id="edge51" class="edge">
<title>src/step.js&#45;&gt;src/background.js</title>
<path fill="none" stroke="#757575" d="M854.72,-456.06C869.06,-443.7 893.57,-424.38 918,-413.59 933.36,-406.8 950.63,-401.73 967.17,-397.96"/>
<polygon fill="#757575" stroke="#757575" points="968.31,-401.29 977.35,-395.77 966.84,-394.45 968.31,-401.29"/>
</g>
<!-- src/step.js&#45;&gt;src/gameState.js -->
<g id="edge54" class="edge">
<title>src/step.js&#45;&gt;src/gameState.js</title>
<path fill="none" stroke="#757575" d="M849.88,-479.11C862.3,-496.33 888.09,-528.57 918,-545.59 1013.76,-600.07 1053.16,-573.01 1159,-603.59 1382.97,-668.29 1645.74,-763.71 1744.9,-800.43"/>
<polygon fill="#757575" stroke="#757575" points="1743.93,-803.8 1754.52,-804 1746.37,-797.24 1743.93,-803.8"/>
</g>
<!-- src/step.js&#45;&gt;src/gameOver.js -->
<g id="edge53" class="edge">
<title>src/step.js&#45;&gt;src/gameOver.js</title>
<path fill="none" stroke="#757575" d="M844.71,-455.9C851.68,-428.54 872.96,-360.16 918,-326.59 1097.65,-192.69 1378.45,-183.33 1506.18,-186.88"/>
<polygon fill="#757575" stroke="#757575" points="1506.11,-190.38 1516.22,-187.19 1506.33,-183.38 1506.11,-190.38"/>
</g>
<!-- src/mobile/mobileVelocityController.js -->
<g id="node23" class="node">
<title>src/mobile/mobileVelocityController.js</title>
<path fill="none" stroke="#cfffac" d="M1151.33,-479.09C1151.33,-479.09 925.67,-479.09 925.67,-479.09 921.83,-479.09 918,-475.26 918,-471.42 918,-471.42 918,-463.76 918,-463.76 918,-459.92 921.83,-456.09 925.67,-456.09 925.67,-456.09 1151.33,-456.09 1151.33,-456.09 1155.17,-456.09 1159,-459.92 1159,-463.76 1159,-463.76 1159,-471.42 1159,-471.42 1159,-475.26 1155.17,-479.09 1151.33,-479.09"/>
<text text-anchor="middle" x="1038.5" y="-463.89" font-family="Arial" font-size="14.00" fill="#cfffac">src/mobile/mobileVelocityController.js</text>
</g>
<!-- src/step.js&#45;&gt;src/mobile/mobileVelocityController.js -->
<g id="edge56" class="edge">
<title>src/step.js&#45;&gt;src/mobile/mobileVelocityController.js</title>
<path fill="none" stroke="#757575" d="M879.69,-467.59C888.18,-467.59 897.66,-467.59 907.63,-467.59"/>
<polygon fill="#757575" stroke="#757575" points="907.76,-471.09 917.76,-467.59 907.76,-464.09 907.76,-471.09"/>
</g>
<!-- src/mobileJoystick.js -->
<g id="node24" class="node">
<title>src/mobileJoystick.js</title>
<path fill="none" stroke="#cfffac" d="M1100.83,-635.09C1100.83,-635.09 976.17,-635.09 976.17,-635.09 972.33,-635.09 968.5,-631.26 968.5,-627.42 968.5,-627.42 968.5,-619.76 968.5,-619.76 968.5,-615.92 972.33,-612.09 976.17,-612.09 976.17,-612.09 1100.83,-612.09 1100.83,-612.09 1104.67,-612.09 1108.5,-615.92 1108.5,-619.76 1108.5,-619.76 1108.5,-627.42 1108.5,-627.42 1108.5,-631.26 1104.67,-635.09 1100.83,-635.09"/>
<text text-anchor="middle" x="1038.5" y="-619.89" font-family="Arial" font-size="14.00" fill="#cfffac">src/mobileJoystick.js</text>
</g>
<!-- src/step.js&#45;&gt;src/mobileJoystick.js -->
<g id="edge57" class="edge">
<title>src/step.js&#45;&gt;src/mobileJoystick.js</title>
<path fill="none" stroke="#757575" d="M849.2,-479.21C857.29,-492.33 870.78,-514.38 882,-533.59 898.46,-561.77 891.75,-578.2 918,-597.59 929.79,-606.3 943.92,-612.21 958.26,-616.18"/>
<polygon fill="#757575" stroke="#757575" points="957.66,-619.64 968.2,-618.64 959.34,-612.84 957.66,-619.64"/>
</g>
<!-- src/gameMenuActions.js&#45;&gt;src/gameState.js -->
<g id="edge23" class="edge">
<title>src/gameMenuActions.js&#45;&gt;src/gameState.js</title>
<path fill="none" stroke="#757575" d="M727.43,-670.16C785.02,-684.87 881.76,-709.14 918,-715.59 1213.17,-768.12 1569.97,-799.16 1717.05,-810.57"/>
<polygon fill="#757575" stroke="#757575" points="1717.04,-814.08 1727.27,-811.36 1717.57,-807.1 1717.04,-814.08"/>
</g>
<!-- src/gameMenuActions.js&#45;&gt;src/step.js -->
<g id="edge24" class="edge">
<title>src/gameMenuActions.js&#45;&gt;src/step.js</title>
<path fill="none" stroke="#757575" d="M692.12,-646.93C718.32,-615.15 791.2,-526.77 823.83,-487.19"/>
<polygon fill="#757575" stroke="#757575" points="826.85,-489.04 830.51,-479.1 821.45,-484.59 826.85,-489.04"/>
</g>
<!-- src/gameOver.js&#45;&gt;src/levelCompleteScreen.js -->
<g id="edge25" class="edge">
<title>src/gameOver.js&#45;&gt;src/levelCompleteScreen.js</title>
<path fill="none" stroke="#757575" d="M1591.63,-179.07C1628.2,-152.95 1717.6,-89.09 1761.03,-58.07"/>
<polygon fill="#757575" stroke="#757575" points="1763.21,-60.81 1769.32,-52.15 1759.14,-55.11 1763.21,-60.81"/>
</g>
<!-- src/gameOver.js&#45;&gt;src/music.js -->
<g id="edge26" class="edge">
<title>src/gameOver.js&#45;&gt;src/music.js</title>
<path fill="none" stroke="#757575" d="M1632.61,-201.47C1663.71,-207.39 1701.94,-214.67 1732.39,-220.47"/>
<polygon fill="#757575" stroke="#757575" points="1731.92,-223.95 1742.4,-222.38 1733.23,-217.07 1731.92,-223.95"/>
</g>
<!-- src/touch.js&#45;&gt;src/mobileJoystick.js -->
<g id="edge59" class="edge">
<title>src/touch.js&#45;&gt;src/mobileJoystick.js</title>
<path fill="none" stroke="#757575" d="M724.27,-690.65C785.88,-677.46 901.63,-652.68 973.86,-637.21"/>
<polygon fill="#757575" stroke="#757575" points="974.71,-640.61 983.75,-635.1 973.24,-633.77 974.71,-640.61"/>
</g>
</g>
</svg>
