<?xml version="1.0" encoding="UTF-8" standalone="no"?>
<!DOCTYPE svg PUBLIC "-//W3C//DTD SVG 1.1//EN"
 "http://www.w3.org/Graphics/SVG/1.1/DTD/svg11.dtd">
<!-- Generated by graphviz version 2.43.0 (0)
 -->
<!-- Title: G Pages: 1 -->
<svg width="1899pt" height="1007pt"
 viewBox="0.00 0.00 1899.20 1006.70" xmlns="http://www.w3.org/2000/svg" xmlns:xlink="http://www.w3.org/1999/xlink">
<g id="graph0" class="graph" transform="scale(1 1) rotate(0) translate(21.6 985.1)">
<title>G</title>
<polygon fill="#111111" stroke="transparent" points="-21.6,21.6 -21.6,-985.1 1877.6,-985.1 1877.6,21.6 -21.6,21.6"/>
<!-- app.js -->
<g id="node1" class="node">
<title>app.js</title>
<path fill="none" stroke="#c6c5fe" d="M46.33,-360C46.33,-360 7.67,-360 7.67,-360 3.83,-360 0,-356.17 0,-352.33 0,-352.33 0,-344.67 0,-344.67 0,-340.83 3.83,-337 7.67,-337 7.67,-337 46.33,-337 46.33,-337 50.17,-337 54,-340.83 54,-344.67 54,-344.67 54,-352.33 54,-352.33 54,-356.17 50.17,-360 46.33,-360"/>
<text text-anchor="middle" x="27" y="-344.8" font-family="Arial" font-size="14.00" fill="#c6c5fe">app.js</text>
</g>
<!-- src/gameManager.js -->
<g id="node2" class="node">
<title>src/gameManager.js</title>
<path fill="none" stroke="#c6c5fe" d="M222.33,-533C222.33,-533 97.67,-533 97.67,-533 93.83,-533 90,-529.17 90,-525.33 90,-525.33 90,-517.67 90,-517.67 90,-513.83 93.83,-510 97.67,-510 97.67,-510 222.33,-510 222.33,-510 226.17,-510 230,-513.83 230,-517.67 230,-517.67 230,-525.33 230,-525.33 230,-529.17 226.17,-533 222.33,-533"/>
<text text-anchor="middle" x="160" y="-517.8" font-family="Arial" font-size="14.00" fill="#c6c5fe">src/gameManager.js</text>
</g>
<!-- app.js&#45;&gt;src/gameManager.js -->
<g id="edge1" class="edge">
<title>app.js&#45;&gt;src/gameManager.js</title>
<path fill="none" stroke="#757575" d="M36.8,-360.12C58.8,-389.17 116.4,-465.24 143.93,-501.6"/>
<polygon fill="#757575" stroke="#757575" points="141.41,-504.07 150.24,-509.93 146.99,-499.85 141.41,-504.07"/>
</g>
<!-- src/startScreen.js -->
<g id="node3" class="node">
<title>src/startScreen.js</title>
<path fill="none" stroke="#c6c5fe" d="M383.83,-23C383.83,-23 278.17,-23 278.17,-23 274.33,-23 270.5,-19.17 270.5,-15.33 270.5,-15.33 270.5,-7.67 270.5,-7.67 270.5,-3.83 274.33,0 278.17,0 278.17,0 383.83,0 383.83,0 387.67,0 391.5,-3.83 391.5,-7.67 391.5,-7.67 391.5,-15.33 391.5,-15.33 391.5,-19.17 387.67,-23 383.83,-23"/>
<text text-anchor="middle" x="331" y="-7.8" font-family="Arial" font-size="14.00" fill="#c6c5fe">src/startScreen.js</text>
</g>
<!-- app.js&#45;&gt;src/startScreen.js -->
<g id="edge2" class="edge">
<title>app.js&#45;&gt;src/startScreen.js</title>
<path fill="none" stroke="#757575" d="M33.9,-336.86C57.2,-291.95 147.35,-128.02 266,-37.5 271.07,-33.63 276.79,-30.25 282.68,-27.32"/>
<polygon fill="#757575" stroke="#757575" points="284.34,-30.41 291.99,-23.08 281.44,-24.04 284.34,-30.41"/>
</g>
<!-- src/Boss.js -->
<g id="node4" class="node">
<title>src/Boss.js</title>
<path fill="none" stroke="#c6c5fe" d="M1050.83,-878C1050.83,-878 984.17,-878 984.17,-878 980.33,-878 976.5,-874.17 976.5,-870.33 976.5,-870.33 976.5,-862.67 976.5,-862.67 976.5,-858.83 980.33,-855 984.17,-855 984.17,-855 1050.83,-855 1050.83,-855 1054.67,-855 1058.5,-858.83 1058.5,-862.67 1058.5,-862.67 1058.5,-870.33 1058.5,-870.33 1058.5,-874.17 1054.67,-878 1050.83,-878"/>
<text text-anchor="middle" x="1017.5" y="-862.8" font-family="Arial" font-size="14.00" fill="#c6c5fe">src/Boss.js</text>
</g>
<!-- src/gameManager.js&#45;&gt;src/Boss.js -->
<g id="edge12" class="edge">
<title>src/gameManager.js&#45;&gt;src/Boss.js</title>
<path fill="none" stroke="#757575" d="M162.18,-533.26C166.95,-574.43 188.39,-713.63 266,-788.5 340.1,-859.99 381.54,-865.5 484.5,-865.5 484.5,-865.5 484.5,-865.5 658.5,-865.5 768.16,-865.5 896.72,-865.98 966.04,-866.27"/>
<polygon fill="#757575" stroke="#757575" points="966.22,-869.77 976.23,-866.31 966.25,-862.77 966.22,-869.77"/>
</g>
<!-- src/levelCompleteScreen.js -->
<g id="node7" class="node">
<title>src/levelCompleteScreen.js</title>
<path fill="none" stroke="#cfffac" d="M1848.33,-937C1848.33,-937 1682.67,-937 1682.67,-937 1678.83,-937 1675,-933.17 1675,-929.33 1675,-929.33 1675,-921.67 1675,-921.67 1675,-917.83 1678.83,-914 1682.67,-914 1682.67,-914 1848.33,-914 1848.33,-914 1852.17,-914 1856,-917.83 1856,-921.67 1856,-921.67 1856,-929.33 1856,-929.33 1856,-933.17 1852.17,-937 1848.33,-937"/>
<text text-anchor="middle" x="1765.5" y="-921.8" font-family="Arial" font-size="14.00" fill="#cfffac">src/levelCompleteScreen.js</text>
</g>
<!-- src/gameManager.js&#45;&gt;src/levelCompleteScreen.js -->
<g id="edge18" class="edge">
<title>src/gameManager.js&#45;&gt;src/levelCompleteScreen.js</title>
<path fill="none" stroke="#757575" d="M160.75,-533.13C160.34,-582.84 165.35,-779.76 266,-886.5 336.64,-961.41 381.54,-963.5 484.5,-963.5 484.5,-963.5 484.5,-963.5 1304,-963.5 1429.77,-963.5 1574.22,-949.25 1667.29,-938.2"/>
<polygon fill="#757575" stroke="#757575" points="1667.74,-941.67 1677.25,-937 1666.91,-934.72 1667.74,-941.67"/>
</g>
<!-- src/ammo.js -->
<g id="node8" class="node">
<title>src/ammo.js</title>
<path fill="none" stroke="#c6c5fe" d="M1340.83,-331C1340.83,-331 1265.17,-331 1265.17,-331 1261.33,-331 1257.5,-327.17 1257.5,-323.33 1257.5,-323.33 1257.5,-315.67 1257.5,-315.67 1257.5,-311.83 1261.33,-308 1265.17,-308 1265.17,-308 1340.83,-308 1340.83,-308 1344.67,-308 1348.5,-311.83 1348.5,-315.67 1348.5,-315.67 1348.5,-323.33 1348.5,-323.33 1348.5,-327.17 1344.67,-331 1340.83,-331"/>
<text text-anchor="middle" x="1303" y="-315.8" font-family="Arial" font-size="14.00" fill="#c6c5fe">src/ammo.js</text>
</g>
<!-- src/gameManager.js&#45;&gt;src/ammo.js -->
<g id="edge13" class="edge">
<title>src/gameManager.js&#45;&gt;src/ammo.js</title>
<path fill="none" stroke="#757575" d="M164.73,-509.87C175.48,-477.96 209.46,-387.97 266,-335.5 325.75,-280.05 353.87,-280.74 432,-257.5 735.77,-167.14 1124.36,-265.97 1256.03,-305.04"/>
<polygon fill="#757575" stroke="#757575" points="1255.21,-308.45 1265.79,-307.97 1257.22,-301.74 1255.21,-308.45"/>
</g>
<!-- src/background.js -->
<g id="node10" class="node">
<title>src/background.js</title>
<path fill="none" stroke="#cfffac" d="M1070.83,-837C1070.83,-837 964.17,-837 964.17,-837 960.33,-837 956.5,-833.17 956.5,-829.33 956.5,-829.33 956.5,-821.67 956.5,-821.67 956.5,-817.83 960.33,-814 964.17,-814 964.17,-814 1070.83,-814 1070.83,-814 1074.67,-814 1078.5,-817.83 1078.5,-821.67 1078.5,-821.67 1078.5,-829.33 1078.5,-829.33 1078.5,-833.17 1074.67,-837 1070.83,-837"/>
<text text-anchor="middle" x="1017.5" y="-821.8" font-family="Arial" font-size="14.00" fill="#cfffac">src/background.js</text>
</g>
<!-- src/gameManager.js&#45;&gt;src/background.js -->
<g id="edge14" class="edge">
<title>src/gameManager.js&#45;&gt;src/background.js</title>
<path fill="none" stroke="#757575" d="M163.71,-533.03C172.44,-567.85 203.02,-673.15 266,-732.5 342.81,-804.88 378.96,-825.5 484.5,-825.5 484.5,-825.5 484.5,-825.5 658.5,-825.5 758.32,-825.5 873.79,-825.5 945.99,-825.5"/>
<polygon fill="#757575" stroke="#757575" points="946.32,-829 956.32,-825.5 946.32,-822 946.32,-829"/>
</g>
<!-- src/enemy.js -->
<g id="node11" class="node">
<title>src/enemy.js</title>
<path fill="none" stroke="#c6c5fe" d="M1055.83,-719C1055.83,-719 979.17,-719 979.17,-719 975.33,-719 971.5,-715.17 971.5,-711.33 971.5,-711.33 971.5,-703.67 971.5,-703.67 971.5,-699.83 975.33,-696 979.17,-696 979.17,-696 1055.83,-696 1055.83,-696 1059.67,-696 1063.5,-699.83 1063.5,-703.67 1063.5,-703.67 1063.5,-711.33 1063.5,-711.33 1063.5,-715.17 1059.67,-719 1055.83,-719"/>
<text text-anchor="middle" x="1017.5" y="-703.8" font-family="Arial" font-size="14.00" fill="#c6c5fe">src/enemy.js</text>
</g>
<!-- src/gameManager.js&#45;&gt;src/enemy.js -->
<g id="edge15" class="edge">
<title>src/gameManager.js&#45;&gt;src/enemy.js</title>
<path fill="none" stroke="#757575" d="M167.46,-533.27C196.66,-584.75 321.99,-787.5 484.5,-787.5 484.5,-787.5 484.5,-787.5 658.5,-787.5 776.32,-787.5 910.82,-745.72 976.35,-722.55"/>
<polygon fill="#757575" stroke="#757575" points="977.65,-725.8 985.89,-719.13 975.3,-719.21 977.65,-725.8"/>
</g>
<!-- src/gameState.js -->
<g id="node14" class="node">
<title>src/gameState.js</title>
<path fill="none" stroke="#cfffac" d="M1816.83,-679C1816.83,-679 1714.17,-679 1714.17,-679 1710.33,-679 1706.5,-675.17 1706.5,-671.33 1706.5,-671.33 1706.5,-663.67 1706.5,-663.67 1706.5,-659.83 1710.33,-656 1714.17,-656 1714.17,-656 1816.83,-656 1816.83,-656 1820.67,-656 1824.5,-659.83 1824.5,-663.67 1824.5,-663.67 1824.5,-671.33 1824.5,-671.33 1824.5,-675.17 1820.67,-679 1816.83,-679"/>
<text text-anchor="middle" x="1765.5" y="-663.8" font-family="Arial" font-size="14.00" fill="#cfffac">src/gameState.js</text>
</g>
<!-- src/gameManager.js&#45;&gt;src/gameState.js -->
<g id="edge16" class="edge">
<title>src/gameManager.js&#45;&gt;src/gameState.js</title>
<path fill="none" stroke="#757575" d="M161.22,-533.29C162.75,-579.48 174.59,-750.03 266,-839.5 338.59,-910.55 382.93,-906.5 484.5,-906.5 484.5,-906.5 484.5,-906.5 819.5,-906.5 1092.63,-906.5 1168.48,-928.29 1432,-856.5 1529.67,-829.89 1552,-813.25 1639,-761.5 1677.72,-738.47 1718.82,-705.93 1743.05,-685.81"/>
<polygon fill="#757575" stroke="#757575" points="1745.47,-688.35 1750.88,-679.24 1740.97,-682.98 1745.47,-688.35"/>
</g>
<!-- src/keyboard.js -->
<g id="node15" class="node">
<title>src/keyboard.js</title>
<path fill="none" stroke="#c6c5fe" d="M531.33,-388C531.33,-388 439.67,-388 439.67,-388 435.83,-388 432,-384.17 432,-380.33 432,-380.33 432,-372.67 432,-372.67 432,-368.83 435.83,-365 439.67,-365 439.67,-365 531.33,-365 531.33,-365 535.17,-365 539,-368.83 539,-372.67 539,-372.67 539,-380.33 539,-380.33 539,-384.17 535.17,-388 531.33,-388"/>
<text text-anchor="middle" x="485.5" y="-372.8" font-family="Arial" font-size="14.00" fill="#c6c5fe">src/keyboard.js</text>
</g>
<!-- src/gameManager.js&#45;&gt;src/keyboard.js -->
<g id="edge17" class="edge">
<title>src/gameManager.js&#45;&gt;src/keyboard.js</title>
<path fill="none" stroke="#757575" d="M186.93,-509.88C244.54,-484.05 383.3,-421.86 448.94,-392.44"/>
<polygon fill="#757575" stroke="#757575" points="450.76,-395.46 458.45,-388.18 447.89,-389.07 450.76,-395.46"/>
</g>
<!-- src/music.js -->
<g id="node16" class="node">
<title>src/music.js</title>
<path fill="none" stroke="#cfffac" d="M1801.83,-139C1801.83,-139 1729.17,-139 1729.17,-139 1725.33,-139 1721.5,-135.17 1721.5,-131.33 1721.5,-131.33 1721.5,-123.67 1721.5,-123.67 1721.5,-119.83 1725.33,-116 1729.17,-116 1729.17,-116 1801.83,-116 1801.83,-116 1805.67,-116 1809.5,-119.83 1809.5,-123.67 1809.5,-123.67 1809.5,-131.33 1809.5,-131.33 1809.5,-135.17 1805.67,-139 1801.83,-139"/>
<text text-anchor="middle" x="1765.5" y="-123.8" font-family="Arial" font-size="14.00" fill="#cfffac">src/music.js</text>
</g>
<!-- src/gameManager.js&#45;&gt;src/music.js -->
<g id="edge19" class="edge">
<title>src/gameManager.js&#45;&gt;src/music.js</title>
<path fill="none" stroke="#757575" d="M160.72,-509.84C160.12,-459.09 164.37,-254.88 266,-140.5 335.65,-62.12 379.64,-51.5 484.5,-51.5 484.5,-51.5 484.5,-51.5 1304,-51.5 1454,-51.5 1491.9,-63.16 1639,-92.5 1665.79,-97.84 1695.22,-105.93 1718.85,-112.99"/>
<polygon fill="#757575" stroke="#757575" points="1718.02,-116.39 1728.6,-115.94 1720.04,-109.69 1718.02,-116.39"/>
</g>
<!-- src/player/Player.js -->
<g id="node17" class="node">
<title>src/player/Player.js</title>
<path fill="none" stroke="#c6c5fe" d="M388.33,-368C388.33,-368 273.67,-368 273.67,-368 269.83,-368 266,-364.17 266,-360.33 266,-360.33 266,-352.67 266,-352.67 266,-348.83 269.83,-345 273.67,-345 273.67,-345 388.33,-345 388.33,-345 392.17,-345 396,-348.83 396,-352.67 396,-352.67 396,-360.33 396,-360.33 396,-364.17 392.17,-368 388.33,-368"/>
<text text-anchor="middle" x="331" y="-352.8" font-family="Arial" font-size="14.00" fill="#c6c5fe">src/player/Player.js</text>
</g>
<!-- src/gameManager.js&#45;&gt;src/player/Player.js -->
<g id="edge20" class="edge">
<title>src/gameManager.js&#45;&gt;src/player/Player.js</title>
<path fill="none" stroke="#757575" d="M166.99,-509.74C180.92,-483.46 218.03,-419.34 266,-382.5 271.06,-378.62 276.77,-375.23 282.66,-372.29"/>
<polygon fill="#757575" stroke="#757575" points="284.32,-375.38 291.97,-368.04 281.42,-369.01 284.32,-375.38"/>
</g>
<!-- src/rendering/Helpers.js -->
<g id="node18" class="node">
<title>src/rendering/Helpers.js</title>
<path fill="none" stroke="#cfffac" d="M1837.33,-291C1837.33,-291 1693.67,-291 1693.67,-291 1689.83,-291 1686,-287.17 1686,-283.33 1686,-283.33 1686,-275.67 1686,-275.67 1686,-271.83 1689.83,-268 1693.67,-268 1693.67,-268 1837.33,-268 1837.33,-268 1841.17,-268 1845,-271.83 1845,-275.67 1845,-275.67 1845,-283.33 1845,-283.33 1845,-287.17 1841.17,-291 1837.33,-291"/>
<text text-anchor="middle" x="1765.5" y="-275.8" font-family="Arial" font-size="14.00" fill="#cfffac">src/rendering/Helpers.js</text>
</g>
<!-- src/gameManager.js&#45;&gt;src/rendering/Helpers.js -->
<g id="edge21" class="edge">
<title>src/gameManager.js&#45;&gt;src/rendering/Helpers.js</title>
<path fill="none" stroke="#757575" d="M163.08,-509.94C170.57,-471.17 199.3,-343.8 266,-264.5 339.78,-176.78 369.88,-127.5 484.5,-127.5 484.5,-127.5 484.5,-127.5 658.5,-127.5 1062.39,-127.5 1541.59,-228.22 1705.87,-265.68"/>
<polygon fill="#757575" stroke="#757575" points="1705.24,-269.13 1715.77,-267.95 1706.81,-262.31 1705.24,-269.13"/>
</g>
<!-- src/step.js -->
<g id="node19" class="node">
<title>src/step.js</title>
<path fill="none" stroke="#c6c5fe" d="M849.33,-640C849.33,-640 787.67,-640 787.67,-640 783.83,-640 780,-636.17 780,-632.33 780,-632.33 780,-624.67 780,-624.67 780,-620.83 783.83,-617 787.67,-617 787.67,-617 849.33,-617 849.33,-617 853.17,-617 857,-620.83 857,-624.67 857,-624.67 857,-632.33 857,-632.33 857,-636.17 853.17,-640 849.33,-640"/>
<text text-anchor="middle" x="818.5" y="-624.8" font-family="Arial" font-size="14.00" fill="#c6c5fe">src/step.js</text>
</g>
<!-- src/gameManager.js&#45;&gt;src/step.js -->
<g id="edge22" class="edge">
<title>src/gameManager.js&#45;&gt;src/step.js</title>
<path fill="none" stroke="#757575" d="M191.34,-533.01C240.89,-551.23 342.61,-586.34 432,-602.5 552.17,-624.23 696.37,-628.2 769.66,-628.68"/>
<polygon fill="#757575" stroke="#757575" points="769.93,-632.19 779.95,-628.73 769.96,-625.19 769.93,-632.19"/>
</g>
<!-- src/startScreen.js&#45;&gt;src/music.js -->
<g id="edge48" class="edge">
<title>src/startScreen.js&#45;&gt;src/music.js</title>
<path fill="none" stroke="#757575" d="M391.51,-11.79C456.59,-12.09 563.97,-12.5 656.5,-12.5 656.5,-12.5 656.5,-12.5 1304,-12.5 1453.3,-12.5 1498.66,13.46 1639,-37.5 1681.61,-52.97 1722.67,-87.26 1745.65,-108.77"/>
<polygon fill="#757575" stroke="#757575" points="1743.35,-111.41 1753,-115.79 1748.19,-106.35 1743.35,-111.41"/>
</g>
<!-- src/enemyRocketAtack.js -->
<g id="node5" class="node">
<title>src/enemyRocketAtack.js</title>
<path fill="none" stroke="#cfffac" d="M1379.83,-848C1379.83,-848 1226.17,-848 1226.17,-848 1222.33,-848 1218.5,-844.17 1218.5,-840.33 1218.5,-840.33 1218.5,-832.67 1218.5,-832.67 1218.5,-828.83 1222.33,-825 1226.17,-825 1226.17,-825 1379.83,-825 1379.83,-825 1383.67,-825 1387.5,-828.83 1387.5,-832.67 1387.5,-832.67 1387.5,-840.33 1387.5,-840.33 1387.5,-844.17 1383.67,-848 1379.83,-848"/>
<text text-anchor="middle" x="1303" y="-832.8" font-family="Arial" font-size="14.00" fill="#cfffac">src/enemyRocketAtack.js</text>
</g>
<!-- src/Boss.js&#45;&gt;src/enemyRocketAtack.js -->
<g id="edge3" class="edge">
<title>src/Boss.js&#45;&gt;src/enemyRocketAtack.js</title>
<path fill="none" stroke="#757575" d="M1058.52,-862.27C1097.3,-858.16 1157.54,-851.79 1208.4,-846.4"/>
<polygon fill="#757575" stroke="#757575" points="1208.86,-849.88 1218.44,-845.34 1208.13,-842.91 1208.86,-849.88"/>
</g>
<!-- src/gatling.js -->
<g id="node6" class="node">
<title>src/gatling.js</title>
<path fill="none" stroke="#c6c5fe" d="M1591.83,-371C1591.83,-371 1515.17,-371 1515.17,-371 1511.33,-371 1507.5,-367.17 1507.5,-363.33 1507.5,-363.33 1507.5,-355.67 1507.5,-355.67 1507.5,-351.83 1511.33,-348 1515.17,-348 1515.17,-348 1591.83,-348 1591.83,-348 1595.67,-348 1599.5,-351.83 1599.5,-355.67 1599.5,-355.67 1599.5,-363.33 1599.5,-363.33 1599.5,-367.17 1595.67,-371 1591.83,-371"/>
<text text-anchor="middle" x="1553.5" y="-355.8" font-family="Arial" font-size="14.00" fill="#c6c5fe">src/gatling.js</text>
</g>
<!-- src/Boss.js&#45;&gt;src/gatling.js -->
<g id="edge4" class="edge">
<title>src/Boss.js&#45;&gt;src/gatling.js</title>
<path fill="none" stroke="#757575" d="M1058.64,-870.79C1085.02,-871.22 1118.2,-866.78 1138,-845.5 1191.7,-787.76 1120.04,-550 1174,-492.5 1253.55,-407.73 1338.87,-519.07 1432,-449.5 1461.3,-427.61 1438.94,-397.71 1468,-375.5 1476.45,-369.04 1486.74,-364.94 1497.19,-362.38"/>
<polygon fill="#757575" stroke="#757575" points="1498.09,-365.77 1507.21,-360.37 1496.72,-358.91 1498.09,-365.77"/>
</g>
<!-- src/Boss.js&#45;&gt;src/levelCompleteScreen.js -->
<g id="edge5" class="edge">
<title>src/Boss.js&#45;&gt;src/levelCompleteScreen.js</title>
<path fill="none" stroke="#757575" d="M1058.61,-869.67C1172.14,-878.65 1498.27,-904.44 1664.5,-917.59"/>
<polygon fill="#757575" stroke="#757575" points="1664.48,-921.1 1674.72,-918.4 1665.03,-914.12 1664.48,-921.1"/>
</g>
<!-- src/gatling.js&#45;&gt;src/gameState.js -->
<g id="edge27" class="edge">
<title>src/gatling.js&#45;&gt;src/gameState.js</title>
<path fill="none" stroke="#757575" d="M1565.23,-371.29C1581.89,-389.84 1614.57,-427.24 1639,-461.5 1685.43,-526.6 1732.41,-609.19 1753.3,-646.96"/>
<polygon fill="#757575" stroke="#757575" points="1750.37,-648.89 1758.25,-655.97 1756.5,-645.52 1750.37,-648.89"/>
</g>
<!-- src/gatling.js&#45;&gt;src/music.js -->
<g id="edge28" class="edge">
<title>src/gatling.js&#45;&gt;src/music.js</title>
<path fill="none" stroke="#757575" d="M1574.66,-347.79C1592.71,-336.72 1619.28,-318.97 1639,-299.5 1664.75,-274.08 1724.5,-186.97 1751.2,-147.37"/>
<polygon fill="#757575" stroke="#757575" points="1754.13,-149.29 1756.8,-139.04 1748.32,-145.38 1754.13,-149.29"/>
</g>
<!-- src/ammo.js&#45;&gt;src/gatling.js -->
<g id="edge6" class="edge">
<title>src/ammo.js&#45;&gt;src/gatling.js</title>
<path fill="none" stroke="#757575" d="M1348.71,-326.7C1390.33,-333.4 1452.48,-343.4 1497.19,-350.6"/>
<polygon fill="#757575" stroke="#757575" points="1496.88,-354.09 1507.31,-352.23 1497.99,-347.18 1496.88,-354.09"/>
</g>
<!-- src/rocket.js -->
<g id="node9" class="node">
<title>src/rocket.js</title>
<path fill="none" stroke="#c6c5fe" d="M1590.33,-291C1590.33,-291 1516.67,-291 1516.67,-291 1512.83,-291 1509,-287.17 1509,-283.33 1509,-283.33 1509,-275.67 1509,-275.67 1509,-271.83 1512.83,-268 1516.67,-268 1516.67,-268 1590.33,-268 1590.33,-268 1594.17,-268 1598,-271.83 1598,-275.67 1598,-275.67 1598,-283.33 1598,-283.33 1598,-287.17 1594.17,-291 1590.33,-291"/>
<text text-anchor="middle" x="1553.5" y="-275.8" font-family="Arial" font-size="14.00" fill="#c6c5fe">src/rocket.js</text>
</g>
<!-- src/ammo.js&#45;&gt;src/rocket.js -->
<g id="edge7" class="edge">
<title>src/ammo.js&#45;&gt;src/rocket.js</title>
<path fill="none" stroke="#757575" d="M1348.71,-312.3C1390.85,-305.52 1454.03,-295.35 1498.86,-288.13"/>
<polygon fill="#757575" stroke="#757575" points="1499.66,-291.55 1508.98,-286.51 1498.55,-284.64 1499.66,-291.55"/>
</g>
<!-- src/rocket.js&#45;&gt;src/rendering/Helpers.js -->
<g id="edge47" class="edge">
<title>src/rocket.js&#45;&gt;src/rendering/Helpers.js</title>
<path fill="none" stroke="#757575" d="M1598.01,-279.5C1620.49,-279.5 1648.77,-279.5 1675.61,-279.5"/>
<polygon fill="#757575" stroke="#757575" points="1675.82,-283 1685.82,-279.5 1675.82,-276 1675.82,-283"/>
</g>
<!-- src/enemy.js&#45;&gt;src/enemyRocketAtack.js -->
<g id="edge9" class="edge">
<title>src/enemy.js&#45;&gt;src/enemyRocketAtack.js</title>
<path fill="none" stroke="#757575" d="M1043.91,-719.06C1094.78,-742.21 1209.23,-794.29 1267.1,-820.62"/>
<polygon fill="#757575" stroke="#757575" points="1266,-823.96 1276.55,-824.92 1268.89,-817.59 1266,-823.96"/>
</g>
<!-- src/enemy.js&#45;&gt;src/gatling.js -->
<g id="edge10" class="edge">
<title>src/enemy.js&#45;&gt;src/gatling.js</title>
<path fill="none" stroke="#757575" d="M1063.78,-711.42C1088.99,-711.01 1119.02,-705.8 1138,-686.5 1209.63,-613.67 1102.74,-532.69 1174,-459.5 1255.37,-375.93 1324.79,-457.43 1432,-411.5 1450.14,-403.73 1450.33,-394.3 1468,-385.5 1477.27,-380.89 1487.52,-376.9 1497.59,-373.53"/>
<polygon fill="#757575" stroke="#757575" points="1498.68,-376.85 1507.15,-370.48 1496.56,-370.18 1498.68,-376.85"/>
</g>
<!-- src/enemyManoeuvre.js -->
<g id="node12" class="node">
<title>src/enemyManoeuvre.js</title>
<path fill="none" stroke="#cfffac" d="M1375.83,-719C1375.83,-719 1230.17,-719 1230.17,-719 1226.33,-719 1222.5,-715.17 1222.5,-711.33 1222.5,-711.33 1222.5,-703.67 1222.5,-703.67 1222.5,-699.83 1226.33,-696 1230.17,-696 1230.17,-696 1375.83,-696 1375.83,-696 1379.67,-696 1383.5,-699.83 1383.5,-703.67 1383.5,-703.67 1383.5,-711.33 1383.5,-711.33 1383.5,-715.17 1379.67,-719 1375.83,-719"/>
<text text-anchor="middle" x="1303" y="-703.8" font-family="Arial" font-size="14.00" fill="#cfffac">src/enemyManoeuvre.js</text>
</g>
<!-- src/enemy.js&#45;&gt;src/enemyManoeuvre.js -->
<g id="edge8" class="edge">
<title>src/enemy.js&#45;&gt;src/enemyManoeuvre.js</title>
<path fill="none" stroke="#757575" d="M1063.73,-707.5C1103.59,-707.5 1162.83,-707.5 1212.26,-707.5"/>
<polygon fill="#757575" stroke="#757575" points="1212.33,-711 1222.33,-707.5 1212.33,-704 1212.33,-711"/>
</g>
<!-- src/rendering/EnemyCollisionsChecks.js -->
<g id="node13" class="node">
<title>src/rendering/EnemyCollisionsChecks.js</title>
<path fill="none" stroke="#c6c5fe" d="M1424.33,-525C1424.33,-525 1181.67,-525 1181.67,-525 1177.83,-525 1174,-521.17 1174,-517.33 1174,-517.33 1174,-509.67 1174,-509.67 1174,-505.83 1177.83,-502 1181.67,-502 1181.67,-502 1424.33,-502 1424.33,-502 1428.17,-502 1432,-505.83 1432,-509.67 1432,-509.67 1432,-517.33 1432,-517.33 1432,-521.17 1428.17,-525 1424.33,-525"/>
<text text-anchor="middle" x="1303" y="-509.8" font-family="Arial" font-size="14.00" fill="#c6c5fe">src/rendering/EnemyCollisionsChecks.js</text>
</g>
<!-- src/enemy.js&#45;&gt;src/rendering/EnemyCollisionsChecks.js -->
<g id="edge11" class="edge">
<title>src/enemy.js&#45;&gt;src/rendering/EnemyCollisionsChecks.js</title>
<path fill="none" stroke="#757575" d="M1063.55,-706.29C1086.93,-704.05 1115.27,-698.71 1138,-686.5 1207.91,-648.94 1265.1,-570.59 1289.4,-533.62"/>
<polygon fill="#757575" stroke="#757575" points="1292.38,-535.47 1294.86,-525.17 1286.5,-531.67 1292.38,-535.47"/>
</g>
<!-- src/rendering/EnemyCollisionsChecks.js&#45;&gt;src/gatling.js -->
<g id="edge42" class="edge">
<title>src/rendering/EnemyCollisionsChecks.js&#45;&gt;src/gatling.js</title>
<path fill="none" stroke="#757575" d="M1408.99,-501.92C1417.33,-498.18 1425.16,-493.45 1432,-487.5 1468.27,-455.95 1433.32,-418.79 1468,-385.5 1476.22,-377.61 1486.78,-372.11 1497.63,-368.27"/>
<polygon fill="#757575" stroke="#757575" points="1498.67,-371.61 1507.19,-365.32 1496.61,-364.93 1498.67,-371.61"/>
</g>
<!-- src/rendering/EnemyCollisionsChecks.js&#45;&gt;src/rocket.js -->
<g id="edge46" class="edge">
<title>src/rendering/EnemyCollisionsChecks.js&#45;&gt;src/rocket.js</title>
<path fill="none" stroke="#757575" d="M1313.6,-501.65C1337.77,-472.22 1403.79,-394.1 1468,-338.5 1485.97,-322.94 1508.04,-307.64 1525.12,-296.52"/>
<polygon fill="#757575" stroke="#757575" points="1527.03,-299.46 1533.55,-291.11 1523.25,-293.57 1527.03,-299.46"/>
</g>
<!-- src/rendering/EnemyCollisionsChecks.js&#45;&gt;src/gameState.js -->
<g id="edge41" class="edge">
<title>src/rendering/EnemyCollisionsChecks.js&#45;&gt;src/gameState.js</title>
<path fill="none" stroke="#757575" d="M1370.11,-501.99C1454.12,-488.68 1593.66,-471.38 1639,-494.5 1702.15,-526.7 1740.94,-607.18 1756.56,-645.96"/>
<polygon fill="#757575" stroke="#757575" points="1753.46,-647.66 1760.35,-655.71 1759.99,-645.12 1753.46,-647.66"/>
</g>
<!-- src/rendering/EnemyCollisionsChecks.js&#45;&gt;src/music.js -->
<g id="edge43" class="edge">
<title>src/rendering/EnemyCollisionsChecks.js&#45;&gt;src/music.js</title>
<path fill="none" stroke="#757575" d="M1406.05,-501.99C1415.36,-498.28 1424.2,-493.54 1432,-487.5 1460.91,-465.1 1439.04,-435.84 1468,-413.5 1529.35,-366.17 1581.72,-431.69 1639,-379.5 1680.47,-341.71 1650.88,-309.16 1675,-258.5 1695.33,-215.79 1728.67,-171.42 1748.41,-146.85"/>
<polygon fill="#757575" stroke="#757575" points="1751.18,-148.98 1754.78,-139.02 1745.75,-144.56 1751.18,-148.98"/>
</g>
<!-- src/rendering/EnemyCollisionsChecks.js&#45;&gt;src/rendering/Helpers.js -->
<g id="edge45" class="edge">
<title>src/rendering/EnemyCollisionsChecks.js&#45;&gt;src/rendering/Helpers.js</title>
<path fill="none" stroke="#757575" d="M1369.88,-501.99C1389.96,-497.98 1412.01,-493.07 1432,-487.5 1526.11,-461.26 1557.32,-467.1 1639,-413.5 1686.85,-382.1 1729.32,-328.82 1750.41,-299.81"/>
<polygon fill="#757575" stroke="#757575" points="1753.53,-301.47 1756.49,-291.3 1747.83,-297.4 1753.53,-301.47"/>
</g>
<!-- src/gameOver.js -->
<g id="node21" class="node">
<title>src/gameOver.js</title>
<path fill="none" stroke="#c6c5fe" d="M1603.83,-568C1603.83,-568 1503.17,-568 1503.17,-568 1499.33,-568 1495.5,-564.17 1495.5,-560.33 1495.5,-560.33 1495.5,-552.67 1495.5,-552.67 1495.5,-548.83 1499.33,-545 1503.17,-545 1503.17,-545 1603.83,-545 1603.83,-545 1607.67,-545 1611.5,-548.83 1611.5,-552.67 1611.5,-552.67 1611.5,-560.33 1611.5,-560.33 1611.5,-564.17 1607.67,-568 1603.83,-568"/>
<text text-anchor="middle" x="1553.5" y="-552.8" font-family="Arial" font-size="14.00" fill="#c6c5fe">src/gameOver.js</text>
</g>
<!-- src/rendering/EnemyCollisionsChecks.js&#45;&gt;src/gameOver.js -->
<g id="edge40" class="edge">
<title>src/rendering/EnemyCollisionsChecks.js&#45;&gt;src/gameOver.js</title>
<path fill="none" stroke="#757575" d="M1370.59,-525.02C1406.05,-531.16 1449.56,-538.69 1485.14,-544.84"/>
<polygon fill="#757575" stroke="#757575" points="1484.98,-548.37 1495.43,-546.62 1486.17,-541.47 1484.98,-548.37"/>
</g>
<!-- src/rendering/Explosion.js -->
<g id="node25" class="node">
<title>src/rendering/Explosion.js</title>
<path fill="none" stroke="#cfffac" d="M1631.33,-527C1631.33,-527 1475.67,-527 1475.67,-527 1471.83,-527 1468,-523.17 1468,-519.33 1468,-519.33 1468,-511.67 1468,-511.67 1468,-507.83 1471.83,-504 1475.67,-504 1475.67,-504 1631.33,-504 1631.33,-504 1635.17,-504 1639,-507.83 1639,-511.67 1639,-511.67 1639,-519.33 1639,-519.33 1639,-523.17 1635.17,-527 1631.33,-527"/>
<text text-anchor="middle" x="1553.5" y="-511.8" font-family="Arial" font-size="14.00" fill="#cfffac">src/rendering/Explosion.js</text>
</g>
<!-- src/rendering/EnemyCollisionsChecks.js&#45;&gt;src/rendering/Explosion.js -->
<g id="edge44" class="edge">
<title>src/rendering/EnemyCollisionsChecks.js&#45;&gt;src/rendering/Explosion.js</title>
<path fill="none" stroke="#757575" d="M1432.25,-514.53C1440.86,-514.6 1449.44,-514.67 1457.83,-514.74"/>
<polygon fill="#757575" stroke="#757575" points="1457.93,-518.24 1467.96,-514.82 1457.98,-511.24 1457.93,-518.24"/>
</g>
<!-- src/keyboard.js&#45;&gt;src/gatling.js -->
<g id="edge31" class="edge">
<title>src/keyboard.js&#45;&gt;src/gatling.js</title>
<path fill="none" stroke="#757575" d="M539.36,-375.66C720.16,-372.77 1312.83,-363.32 1497.23,-360.38"/>
<polygon fill="#757575" stroke="#757575" points="1497.3,-363.88 1507.25,-360.22 1497.19,-356.88 1497.3,-363.88"/>
</g>
<!-- src/keyboard.js&#45;&gt;src/rocket.js -->
<g id="edge33" class="edge">
<title>src/keyboard.js&#45;&gt;src/rocket.js</title>
<path fill="none" stroke="#757575" d="M537.44,-364.97C650.97,-340 933.66,-281.76 1174,-264.5 1288.37,-256.28 1317.55,-257.4 1432,-264.5 1453.97,-265.86 1478.06,-268.61 1498.89,-271.38"/>
<polygon fill="#757575" stroke="#757575" points="1498.45,-274.86 1508.84,-272.74 1499.4,-267.92 1498.45,-274.86"/>
</g>
<!-- src/keyboard.js&#45;&gt;src/gameState.js -->
<g id="edge30" class="edge">
<title>src/keyboard.js&#45;&gt;src/gameState.js</title>
<path fill="none" stroke="#757575" d="M539.01,-379.07C692.88,-386.65 1132.26,-408.71 1138,-413.5 1190.61,-457.46 1124.06,-516.53 1174,-563.5 1211.79,-599.04 1548.77,-642.29 1696.08,-659.69"/>
<polygon fill="#757575" stroke="#757575" points="1696.01,-663.21 1706.35,-660.9 1696.83,-656.26 1696.01,-663.21"/>
</g>
<!-- src/keyboard.js&#45;&gt;src/music.js -->
<g id="edge32" class="edge">
<title>src/keyboard.js&#45;&gt;src/music.js</title>
<path fill="none" stroke="#757575" d="M502.07,-364.97C519.2,-352.74 547.89,-333.56 575,-321.5 711.1,-260.95 751.24,-259.2 897,-228.5 1147.58,-175.72 1213.4,-178.95 1468,-151.5 1552.77,-142.36 1651.51,-135.03 1710.95,-130.97"/>
<polygon fill="#757575" stroke="#757575" points="1711.48,-134.44 1721.22,-130.28 1711.01,-127.46 1711.48,-134.44"/>
</g>
<!-- src/gameMenuActions.js -->
<g id="node20" class="node">
<title>src/gameMenuActions.js</title>
<path fill="none" stroke="#c6c5fe" d="M732.33,-678C732.33,-678 582.67,-678 582.67,-678 578.83,-678 575,-674.17 575,-670.33 575,-670.33 575,-662.67 575,-662.67 575,-658.83 578.83,-655 582.67,-655 582.67,-655 732.33,-655 732.33,-655 736.17,-655 740,-658.83 740,-662.67 740,-662.67 740,-670.33 740,-670.33 740,-674.17 736.17,-678 732.33,-678"/>
<text text-anchor="middle" x="657.5" y="-662.8" font-family="Arial" font-size="14.00" fill="#c6c5fe">src/gameMenuActions.js</text>
</g>
<!-- src/keyboard.js&#45;&gt;src/gameMenuActions.js -->
<g id="edge29" class="edge">
<title>src/keyboard.js&#45;&gt;src/gameMenuActions.js</title>
<path fill="none" stroke="#757575" d="M493.37,-388.23C519.33,-432.5 611.56,-589.84 644.61,-646.21"/>
<polygon fill="#757575" stroke="#757575" points="641.65,-648.09 649.73,-654.94 647.69,-644.55 641.65,-648.09"/>
</g>
<!-- src/touch.js -->
<g id="node22" class="node">
<title>src/touch.js</title>
<path fill="none" stroke="#c6c5fe" d="M853.33,-446C853.33,-446 783.67,-446 783.67,-446 779.83,-446 776,-442.17 776,-438.33 776,-438.33 776,-430.67 776,-430.67 776,-426.83 779.83,-423 783.67,-423 783.67,-423 853.33,-423 853.33,-423 857.17,-423 861,-426.83 861,-430.67 861,-430.67 861,-438.33 861,-438.33 861,-442.17 857.17,-446 853.33,-446"/>
<text text-anchor="middle" x="818.5" y="-430.8" font-family="Arial" font-size="14.00" fill="#c6c5fe">src/touch.js</text>
</g>
<!-- src/keyboard.js&#45;&gt;src/touch.js -->
<g id="edge34" class="edge">
<title>src/keyboard.js&#45;&gt;src/touch.js</title>
<path fill="none" stroke="#757575" d="M513.11,-388.02C530.42,-395.04 553.67,-403.58 575,-408.5 639.71,-423.44 716.15,-429.83 765.66,-432.54"/>
<polygon fill="#757575" stroke="#757575" points="765.64,-436.05 775.81,-433.07 766,-429.06 765.64,-436.05"/>
</g>
<!-- src/player/Player.js&#45;&gt;src/rocket.js -->
<g id="edge39" class="edge">
<title>src/player/Player.js&#45;&gt;src/rocket.js</title>
<path fill="none" stroke="#757575" d="M350.56,-344.84C398.94,-315.6 533.67,-241.5 656.5,-241.5 656.5,-241.5 656.5,-241.5 819.5,-241.5 1091.79,-241.5 1161.34,-225.68 1432,-255.5 1454.14,-257.94 1478.26,-262.38 1499.07,-266.79"/>
<polygon fill="#757575" stroke="#757575" points="1498.48,-270.24 1509,-268.94 1499.97,-263.4 1498.48,-270.24"/>
</g>
<!-- src/player/Player.js&#45;&gt;src/gameState.js -->
<g id="edge36" class="edge">
<title>src/player/Player.js&#45;&gt;src/gameState.js</title>
<path fill="none" stroke="#757575" d="M339.73,-368C372.22,-414.82 503.1,-588.5 656.5,-588.5 656.5,-588.5 656.5,-588.5 819.5,-588.5 1109.17,-588.5 1179.12,-632.22 1468,-653.5 1546.22,-659.26 1636.23,-663.12 1696.37,-665.3"/>
<polygon fill="#757575" stroke="#757575" points="1696.38,-668.81 1706.49,-665.67 1696.63,-661.81 1696.38,-668.81"/>
</g>
<!-- src/player/Player.js&#45;&gt;src/keyboard.js -->
<g id="edge37" class="edge">
<title>src/player/Player.js&#45;&gt;src/keyboard.js</title>
<path fill="none" stroke="#757575" d="M396.23,-364.92C404.68,-366.03 413.33,-367.17 421.76,-368.27"/>
<polygon fill="#757575" stroke="#757575" points="421.52,-371.77 431.89,-369.6 422.43,-364.83 421.52,-371.77"/>
</g>
<!-- src/player/Player.js&#45;&gt;src/music.js -->
<g id="edge38" class="edge">
<title>src/player/Player.js&#45;&gt;src/music.js</title>
<path fill="none" stroke="#757575" d="M341.37,-344.71C357.87,-324.58 393.98,-283.27 432,-257.5 586.71,-152.64 630.6,-89.5 817.5,-89.5 817.5,-89.5 817.5,-89.5 1304,-89.5 1452.01,-89.5 1625.86,-109.24 1711.44,-120.26"/>
<polygon fill="#757575" stroke="#757575" points="1711.06,-123.74 1721.43,-121.56 1711.96,-116.8 1711.06,-123.74"/>
</g>
<!-- src/player/Player.js&#45;&gt;src/gameOver.js -->
<g id="edge35" class="edge">
<title>src/player/Player.js&#45;&gt;src/gameOver.js</title>
<path fill="none" stroke="#757575" d="M393.35,-345C458.42,-333.81 564.33,-318.5 656.5,-318.5 656.5,-318.5 656.5,-318.5 819.5,-318.5 963.71,-318.5 1034.07,-280.53 1138,-380.5 1188.35,-428.93 1120.58,-488.49 1174,-533.5 1219.48,-571.82 1389.28,-567.51 1485.28,-561.65"/>
<polygon fill="#757575" stroke="#757575" points="1485.71,-565.13 1495.47,-561.01 1485.27,-558.15 1485.71,-565.13"/>
</g>
<!-- src/step.js&#45;&gt;src/gatling.js -->
<g id="edge54" class="edge">
<title>src/step.js&#45;&gt;src/gatling.js</title>
<path fill="none" stroke="#757575" d="M844.67,-616.85C859.68,-610.13 879.22,-601.8 897,-595.5 1002.01,-558.27 1058.26,-604.31 1138,-526.5 1176.33,-489.1 1133.11,-446.08 1174,-411.5 1180.13,-406.31 1393.89,-379.18 1497.41,-366.3"/>
<polygon fill="#757575" stroke="#757575" points="1497.88,-369.77 1507.37,-365.06 1497.01,-362.82 1497.88,-369.77"/>
</g>
<!-- src/step.js&#45;&gt;src/ammo.js -->
<g id="edge49" class="edge">
<title>src/step.js&#45;&gt;src/ammo.js</title>
<path fill="none" stroke="#757575" d="M825.84,-616.7C837.25,-596.73 863.2,-556.47 897,-536.5 991.03,-480.94 1055.79,-560.4 1138,-488.5 1175.14,-456.02 1141.52,-420.63 1174,-383.5 1194.25,-360.35 1224.85,-344.62 1251.05,-334.55"/>
<polygon fill="#757575" stroke="#757575" points="1252.29,-337.83 1260.48,-331.1 1249.88,-331.25 1252.29,-337.83"/>
</g>
<!-- src/step.js&#45;&gt;src/rocket.js -->
<g id="edge57" class="edge">
<title>src/step.js&#45;&gt;src/rocket.js</title>
<path fill="none" stroke="#757575" d="M822.22,-616.69C829.24,-589.09 850.77,-520.31 897,-488.5 986.11,-427.18 1058.27,-527.6 1138,-454.5 1190.45,-406.41 1119.44,-344.18 1174,-298.5 1221.77,-258.5 1406.04,-267.29 1498.68,-274.57"/>
<polygon fill="#757575" stroke="#757575" points="1498.45,-278.06 1508.7,-275.38 1499.01,-271.08 1498.45,-278.06"/>
</g>
<!-- src/step.js&#45;&gt;src/background.js -->
<g id="edge50" class="edge">
<title>src/step.js&#45;&gt;src/background.js</title>
<path fill="none" stroke="#757575" d="M823.77,-640.23C833.38,-665.29 858.92,-724.76 897,-761.5 919.2,-782.92 950.01,-799.19 974.78,-809.96"/>
<polygon fill="#757575" stroke="#757575" points="973.71,-813.31 984.29,-813.96 976.43,-806.86 973.71,-813.31"/>
</g>
<!-- src/step.js&#45;&gt;src/enemy.js -->
<g id="edge51" class="edge">
<title>src/step.js&#45;&gt;src/enemy.js</title>
<path fill="none" stroke="#757575" d="M831.49,-640.38C845.81,-653.82 871.09,-675.29 897,-686.5 917.1,-695.2 940.59,-700.29 961.4,-703.28"/>
<polygon fill="#757575" stroke="#757575" points="961,-706.76 971.37,-704.58 961.91,-699.81 961,-706.76"/>
</g>
<!-- src/step.js&#45;&gt;src/gameState.js -->
<g id="edge53" class="edge">
<title>src/step.js&#45;&gt;src/gameState.js</title>
<path fill="none" stroke="#757575" d="M824.39,-640.18C834.31,-662.15 859.13,-709.05 897,-727.5 1003.88,-779.57 1313.58,-738.1 1432,-727.5 1529.11,-718.81 1640.29,-696.11 1706.33,-681.26"/>
<polygon fill="#757575" stroke="#757575" points="1707.15,-684.66 1716.13,-679.03 1705.61,-677.83 1707.15,-684.66"/>
</g>
<!-- src/step.js&#45;&gt;src/gameOver.js -->
<g id="edge52" class="edge">
<title>src/step.js&#45;&gt;src/gameOver.js</title>
<path fill="none" stroke="#757575" d="M857.11,-624.81C974.39,-613.29 1334.58,-577.91 1485.2,-563.11"/>
<polygon fill="#757575" stroke="#757575" points="1485.63,-566.59 1495.24,-562.12 1484.95,-559.62 1485.63,-566.59"/>
</g>
<!-- src/mobile/mobileVelocityController.js -->
<g id="node23" class="node">
<title>src/mobile/mobileVelocityController.js</title>
<path fill="none" stroke="#cfffac" d="M1130.33,-678C1130.33,-678 904.67,-678 904.67,-678 900.83,-678 897,-674.17 897,-670.33 897,-670.33 897,-662.67 897,-662.67 897,-658.83 900.83,-655 904.67,-655 904.67,-655 1130.33,-655 1130.33,-655 1134.17,-655 1138,-658.83 1138,-662.67 1138,-662.67 1138,-670.33 1138,-670.33 1138,-674.17 1134.17,-678 1130.33,-678"/>
<text text-anchor="middle" x="1017.5" y="-662.8" font-family="Arial" font-size="14.00" fill="#cfffac">src/mobile/mobileVelocityController.js</text>
</g>
<!-- src/step.js&#45;&gt;src/mobile/mobileVelocityController.js -->
<g id="edge55" class="edge">
<title>src/step.js&#45;&gt;src/mobile/mobileVelocityController.js</title>
<path fill="none" stroke="#757575" d="M857.02,-635.74C882.29,-640.61 916.4,-647.19 946.59,-653.01"/>
<polygon fill="#757575" stroke="#757575" points="946.17,-656.5 956.65,-654.96 947.5,-649.63 946.17,-656.5"/>
</g>
<!-- src/mobileJoystick.js -->
<g id="node24" class="node">
<title>src/mobileJoystick.js</title>
<path fill="none" stroke="#cfffac" d="M1079.83,-446C1079.83,-446 955.17,-446 955.17,-446 951.33,-446 947.5,-442.17 947.5,-438.33 947.5,-438.33 947.5,-430.67 947.5,-430.67 947.5,-426.83 951.33,-423 955.17,-423 955.17,-423 1079.83,-423 1079.83,-423 1083.67,-423 1087.5,-426.83 1087.5,-430.67 1087.5,-430.67 1087.5,-438.33 1087.5,-438.33 1087.5,-442.17 1083.67,-446 1079.83,-446"/>
<text text-anchor="middle" x="1017.5" y="-430.8" font-family="Arial" font-size="14.00" fill="#cfffac">src/mobileJoystick.js</text>
</g>
<!-- src/step.js&#45;&gt;src/mobileJoystick.js -->
<g id="edge56" class="edge">
<title>src/step.js&#45;&gt;src/mobileJoystick.js</title>
<path fill="none" stroke="#757575" d="M821.23,-616.97C826.48,-586.28 845.15,-502.12 897,-460.5 908.57,-451.21 922.73,-445.06 937.2,-441.02"/>
<polygon fill="#757575" stroke="#757575" points="938.36,-444.34 947.23,-438.55 936.69,-437.54 938.36,-444.34"/>
</g>
<!-- src/gameMenuActions.js&#45;&gt;src/gameState.js -->
<g id="edge23" class="edge">
<title>src/gameMenuActions.js&#45;&gt;src/gameState.js</title>
<path fill="none" stroke="#757575" d="M681.42,-678.09C723.06,-698.42 814.45,-739.76 897,-754.5 1221.91,-812.53 1322.06,-816.59 1639,-724.5 1673.23,-714.55 1710.12,-696.88 1734.98,-683.84"/>
<polygon fill="#757575" stroke="#757575" points="1736.71,-686.89 1743.89,-679.1 1733.42,-680.71 1736.71,-686.89"/>
</g>
<!-- src/gameMenuActions.js&#45;&gt;src/step.js -->
<g id="edge24" class="edge">
<title>src/gameMenuActions.js&#45;&gt;src/step.js</title>
<path fill="none" stroke="#757575" d="M706.64,-655C726.73,-650.19 750.01,-644.63 770.03,-639.84"/>
<polygon fill="#757575" stroke="#757575" points="770.96,-643.22 779.87,-637.49 769.33,-636.41 770.96,-643.22"/>
</g>
<!-- src/gameOver.js&#45;&gt;src/levelCompleteScreen.js -->
<g id="edge25" class="edge">
<title>src/gameOver.js&#45;&gt;src/levelCompleteScreen.js</title>
<path fill="none" stroke="#757575" d="M1561.25,-568.36C1591.43,-621.39 1714.2,-837.11 1752.81,-904.97"/>
<polygon fill="#757575" stroke="#757575" points="1749.89,-906.91 1757.88,-913.87 1755.98,-903.45 1749.89,-906.91"/>
</g>
<!-- src/gameOver.js&#45;&gt;src/music.js -->
<g id="edge26" class="edge">
<title>src/gameOver.js&#45;&gt;src/music.js</title>
<path fill="none" stroke="#757575" d="M1611.92,-552C1622.18,-548.69 1631.86,-543.51 1639,-535.5 1680.31,-489.17 1652.88,-316.5 1675,-258.5 1691.77,-214.53 1726.02,-170.9 1746.95,-146.74"/>
<polygon fill="#757575" stroke="#757575" points="1749.75,-148.85 1753.75,-139.04 1744.5,-144.22 1749.75,-148.85"/>
</g>
<!-- src/touch.js&#45;&gt;src/mobileJoystick.js -->
<g id="edge58" class="edge">
<title>src/touch.js&#45;&gt;src/mobileJoystick.js</title>
<path fill="none" stroke="#757575" d="M861.28,-434.5C883.31,-434.5 911.1,-434.5 937.04,-434.5"/>
<polygon fill="#757575" stroke="#757575" points="937.26,-438 947.26,-434.5 937.26,-431 937.26,-438"/>
</g>
</g>
</svg>
