<?xml version="1.0" encoding="UTF-8" standalone="no"?>
<!DOCTYPE svg PUBLIC "-//W3C//DTD SVG 1.1//EN"
 "http://www.w3.org/Graphics/SVG/1.1/DTD/svg11.dtd">
<!-- Generated by graphviz version 2.43.0 (0)
 -->
<!-- Title: G Pages: 1 -->
<svg width="2007pt" height="1251pt"
 viewBox="0.00 0.00 2007.20 1250.70" xmlns="http://www.w3.org/2000/svg" xmlns:xlink="http://www.w3.org/1999/xlink">
<g id="graph0" class="graph" transform="scale(1 1) rotate(0) translate(21.6 1229.1)">
<title>G</title>
<polygon fill="#111111" stroke="transparent" points="-21.6,21.6 -21.6,-1229.1 1985.6,-1229.1 1985.6,21.6 -21.6,21.6"/>
<!-- app.js -->
<g id="node1" class="node">
<title>app.js</title>
<path fill="none" stroke="#c6c5fe" d="M46.33,-409C46.33,-409 7.67,-409 7.67,-409 3.83,-409 0,-405.17 0,-401.33 0,-401.33 0,-393.67 0,-393.67 0,-389.83 3.83,-386 7.67,-386 7.67,-386 46.33,-386 46.33,-386 50.17,-386 54,-389.83 54,-393.67 54,-393.67 54,-401.33 54,-401.33 54,-405.17 50.17,-409 46.33,-409"/>
<text text-anchor="middle" x="27" y="-393.8" font-family="Arial" font-size="14.00" fill="#c6c5fe">app.js</text>
</g>
<!-- src/gameManager.js -->
<g id="node2" class="node">
<title>src/gameManager.js</title>
<path fill="none" stroke="#c6c5fe" d="M222.33,-795C222.33,-795 97.67,-795 97.67,-795 93.83,-795 90,-791.17 90,-787.33 90,-787.33 90,-779.67 90,-779.67 90,-775.83 93.83,-772 97.67,-772 97.67,-772 222.33,-772 222.33,-772 226.17,-772 230,-775.83 230,-779.67 230,-779.67 230,-787.33 230,-787.33 230,-791.17 226.17,-795 222.33,-795"/>
<text text-anchor="middle" x="160" y="-779.8" font-family="Arial" font-size="14.00" fill="#c6c5fe">src/gameManager.js</text>
</g>
<!-- app.js&#45;&gt;src/gameManager.js -->
<g id="edge1" class="edge">
<title>app.js&#45;&gt;src/gameManager.js</title>
<path fill="none" stroke="#757575" d="M31.92,-409.05C50.26,-463.1 127.73,-691.37 151.82,-762.35"/>
<polygon fill="#757575" stroke="#757575" points="148.57,-763.65 155.09,-771.99 155.2,-761.4 148.57,-763.65"/>
</g>
<!-- src/startScreen.js -->
<g id="node3" class="node">
<title>src/startScreen.js</title>
<path fill="none" stroke="#c6c5fe" d="M383.83,-23C383.83,-23 278.17,-23 278.17,-23 274.33,-23 270.5,-19.17 270.5,-15.33 270.5,-15.33 270.5,-7.67 270.5,-7.67 270.5,-3.83 274.33,0 278.17,0 278.17,0 383.83,0 383.83,0 387.67,0 391.5,-3.83 391.5,-7.67 391.5,-7.67 391.5,-15.33 391.5,-15.33 391.5,-19.17 387.67,-23 383.83,-23"/>
<text text-anchor="middle" x="331" y="-7.8" font-family="Arial" font-size="14.00" fill="#c6c5fe">src/startScreen.js</text>
</g>
<!-- app.js&#45;&gt;src/startScreen.js -->
<g id="edge2" class="edge">
<title>app.js&#45;&gt;src/startScreen.js</title>
<path fill="none" stroke="#757575" d="M32.67,-385.71C52.84,-336.22 137.32,-142.9 266,-37.5 270.64,-33.7 275.9,-30.4 281.37,-27.54"/>
<polygon fill="#757575" stroke="#757575" points="283.15,-30.57 290.7,-23.13 280.16,-24.24 283.15,-30.57"/>
</g>
<!-- src/Boss.js -->
<g id="node4" class="node">
<title>src/Boss.js</title>
<path fill="none" stroke="#c6c5fe" d="M1388.33,-1109C1388.33,-1109 1321.67,-1109 1321.67,-1109 1317.83,-1109 1314,-1105.17 1314,-1101.33 1314,-1101.33 1314,-1093.67 1314,-1093.67 1314,-1089.83 1317.83,-1086 1321.67,-1086 1321.67,-1086 1388.33,-1086 1388.33,-1086 1392.17,-1086 1396,-1089.83 1396,-1093.67 1396,-1093.67 1396,-1101.33 1396,-1101.33 1396,-1105.17 1392.17,-1109 1388.33,-1109"/>
<text text-anchor="middle" x="1355" y="-1093.8" font-family="Arial" font-size="14.00" fill="#c6c5fe">src/Boss.js</text>
</g>
<!-- src/gameManager.js&#45;&gt;src/Boss.js -->
<g id="edge20" class="edge">
<title>src/gameManager.js&#45;&gt;src/Boss.js</title>
<path fill="none" stroke="#757575" d="M164.14,-795.03C174.01,-829.42 207.22,-932.92 266,-997.5 342.68,-1081.75 370.58,-1131.5 484.5,-1131.5 484.5,-1131.5 484.5,-1131.5 845.5,-1131.5 1013.76,-1131.5 1212.64,-1112.74 1303.8,-1103.09"/>
<polygon fill="#757575" stroke="#757575" points="1304.28,-1106.56 1313.85,-1102.01 1303.54,-1099.6 1304.28,-1106.56"/>
</g>
<!-- src/gameState.js -->
<g id="node5" class="node">
<title>src/gameState.js</title>
<path fill="none" stroke="#cfffac" d="M1924.83,-793C1924.83,-793 1822.17,-793 1822.17,-793 1818.33,-793 1814.5,-789.17 1814.5,-785.33 1814.5,-785.33 1814.5,-777.67 1814.5,-777.67 1814.5,-773.83 1818.33,-770 1822.17,-770 1822.17,-770 1924.83,-770 1924.83,-770 1928.67,-770 1932.5,-773.83 1932.5,-777.67 1932.5,-777.67 1932.5,-785.33 1932.5,-785.33 1932.5,-789.17 1928.67,-793 1924.83,-793"/>
<text text-anchor="middle" x="1873.5" y="-777.8" font-family="Arial" font-size="14.00" fill="#cfffac">src/gameState.js</text>
</g>
<!-- src/gameManager.js&#45;&gt;src/gameState.js -->
<g id="edge25" class="edge">
<title>src/gameManager.js&#45;&gt;src/gameState.js</title>
<path fill="none" stroke="#757575" d="M162.11,-795.23C166.7,-837.66 187.86,-985.07 266,-1069.5 338.54,-1147.88 377.7,-1169.5 484.5,-1169.5 484.5,-1169.5 484.5,-1169.5 1356,-1169.5 1532.54,-1169.5 1610.4,-1211.33 1747,-1099.5 1842.15,-1021.6 1865.49,-861.5 1870.93,-803.28"/>
<polygon fill="#757575" stroke="#757575" points="1874.44,-803.31 1871.8,-793.05 1867.46,-802.72 1874.44,-803.31"/>
</g>
<!-- src/levelCompleteScreen.js -->
<g id="node6" class="node">
<title>src/levelCompleteScreen.js</title>
<path fill="none" stroke="#cfffac" d="M1956.33,-1143C1956.33,-1143 1790.67,-1143 1790.67,-1143 1786.83,-1143 1783,-1139.17 1783,-1135.33 1783,-1135.33 1783,-1127.67 1783,-1127.67 1783,-1123.83 1786.83,-1120 1790.67,-1120 1790.67,-1120 1956.33,-1120 1956.33,-1120 1960.17,-1120 1964,-1123.83 1964,-1127.67 1964,-1127.67 1964,-1135.33 1964,-1135.33 1964,-1139.17 1960.17,-1143 1956.33,-1143"/>
<text text-anchor="middle" x="1873.5" y="-1127.8" font-family="Arial" font-size="14.00" fill="#cfffac">src/levelCompleteScreen.js</text>
</g>
<!-- src/gameManager.js&#45;&gt;src/levelCompleteScreen.js -->
<g id="edge27" class="edge">
<title>src/gameManager.js&#45;&gt;src/levelCompleteScreen.js</title>
<path fill="none" stroke="#757575" d="M161,-795.13C161.65,-843.12 170.5,-1027.95 266,-1128.5 337.11,-1203.37 381.24,-1207.5 484.5,-1207.5 484.5,-1207.5 484.5,-1207.5 1356,-1207.5 1524.78,-1207.5 1721.3,-1167.29 1815.91,-1145.36"/>
<polygon fill="#757575" stroke="#757575" points="1816.9,-1148.73 1825.84,-1143.04 1815.3,-1141.91 1816.9,-1148.73"/>
</g>
<!-- src/ammo.js -->
<g id="node9" class="node">
<title>src/ammo.js</title>
<path fill="none" stroke="#c6c5fe" d="M1392.83,-502C1392.83,-502 1317.17,-502 1317.17,-502 1313.33,-502 1309.5,-498.17 1309.5,-494.33 1309.5,-494.33 1309.5,-486.67 1309.5,-486.67 1309.5,-482.83 1313.33,-479 1317.17,-479 1317.17,-479 1392.83,-479 1392.83,-479 1396.67,-479 1400.5,-482.83 1400.5,-486.67 1400.5,-486.67 1400.5,-494.33 1400.5,-494.33 1400.5,-498.17 1396.67,-502 1392.83,-502"/>
<text text-anchor="middle" x="1355" y="-486.8" font-family="Arial" font-size="14.00" fill="#c6c5fe">src/ammo.js</text>
</g>
<!-- src/gameManager.js&#45;&gt;src/ammo.js -->
<g id="edge21" class="edge">
<title>src/gameManager.js&#45;&gt;src/ammo.js</title>
<path fill="none" stroke="#757575" d="M163.6,-771.61C179.47,-702.48 269.81,-355.5 484.5,-355.5 484.5,-355.5 484.5,-355.5 845.5,-355.5 1029.82,-355.5 1239.52,-439.38 1320.05,-474.91"/>
<polygon fill="#757575" stroke="#757575" points="1318.67,-478.12 1329.23,-478.99 1321.51,-471.72 1318.67,-478.12"/>
</g>
<!-- src/background.js -->
<g id="node11" class="node">
<title>src/background.js</title>
<path fill="none" stroke="#cfffac" d="M1408.33,-1029C1408.33,-1029 1301.67,-1029 1301.67,-1029 1297.83,-1029 1294,-1025.17 1294,-1021.33 1294,-1021.33 1294,-1013.67 1294,-1013.67 1294,-1009.83 1297.83,-1006 1301.67,-1006 1301.67,-1006 1408.33,-1006 1408.33,-1006 1412.17,-1006 1416,-1009.83 1416,-1013.67 1416,-1013.67 1416,-1021.33 1416,-1021.33 1416,-1025.17 1412.17,-1029 1408.33,-1029"/>
<text text-anchor="middle" x="1355" y="-1013.8" font-family="Arial" font-size="14.00" fill="#cfffac">src/background.js</text>
</g>
<!-- src/gameManager.js&#45;&gt;src/background.js -->
<g id="edge22" class="edge">
<title>src/gameManager.js&#45;&gt;src/background.js</title>
<path fill="none" stroke="#757575" d="M167.2,-795.19C195.73,-847.25 320.13,-1055.5 484.5,-1055.5 484.5,-1055.5 484.5,-1055.5 845.5,-1055.5 998.84,-1055.5 1037.21,-1049.55 1190,-1036.5 1220.78,-1033.87 1254.72,-1030.09 1283.7,-1026.59"/>
<polygon fill="#757575" stroke="#757575" points="1284.22,-1030.05 1293.72,-1025.36 1283.37,-1023.1 1284.22,-1030.05"/>
</g>
<!-- src/enemy.js -->
<g id="node12" class="node">
<title>src/enemy.js</title>
<path fill="none" stroke="#c6c5fe" d="M1107.83,-833C1107.83,-833 1031.17,-833 1031.17,-833 1027.33,-833 1023.5,-829.17 1023.5,-825.33 1023.5,-825.33 1023.5,-817.67 1023.5,-817.67 1023.5,-813.83 1027.33,-810 1031.17,-810 1031.17,-810 1107.83,-810 1107.83,-810 1111.67,-810 1115.5,-813.83 1115.5,-817.67 1115.5,-817.67 1115.5,-825.33 1115.5,-825.33 1115.5,-829.17 1111.67,-833 1107.83,-833"/>
<text text-anchor="middle" x="1069.5" y="-817.8" font-family="Arial" font-size="14.00" fill="#c6c5fe">src/enemy.js</text>
</g>
<!-- src/gameManager.js&#45;&gt;src/enemy.js -->
<g id="edge23" class="edge">
<title>src/gameManager.js&#45;&gt;src/enemy.js</title>
<path fill="none" stroke="#757575" d="M222.16,-795C287.03,-806.19 392.61,-821.5 484.5,-821.5 484.5,-821.5 484.5,-821.5 658.5,-821.5 785.38,-821.5 934.34,-821.5 1013.12,-821.5"/>
<polygon fill="#757575" stroke="#757575" points="1013.3,-825 1023.3,-821.5 1013.3,-818 1013.3,-825"/>
</g>
<!-- src/enemyManager.js -->
<g id="node17" class="node">
<title>src/enemyManager.js</title>
<path fill="none" stroke="#c6c5fe" d="M722.83,-902C722.83,-902 592.17,-902 592.17,-902 588.33,-902 584.5,-898.17 584.5,-894.33 584.5,-894.33 584.5,-886.67 584.5,-886.67 584.5,-882.83 588.33,-879 592.17,-879 592.17,-879 722.83,-879 722.83,-879 726.67,-879 730.5,-882.83 730.5,-886.67 730.5,-886.67 730.5,-894.33 730.5,-894.33 730.5,-898.17 726.67,-902 722.83,-902"/>
<text text-anchor="middle" x="657.5" y="-886.8" font-family="Arial" font-size="14.00" fill="#c6c5fe">src/enemyManager.js</text>
</g>
<!-- src/gameManager.js&#45;&gt;src/enemyManager.js -->
<g id="edge24" class="edge">
<title>src/gameManager.js&#45;&gt;src/enemyManager.js</title>
<path fill="none" stroke="#757575" d="M179.59,-795C200,-807.08 234.13,-825.65 266,-835.5 369.5,-867.5 494.24,-880.96 574.42,-886.56"/>
<polygon fill="#757575" stroke="#757575" points="574.25,-890.06 584.46,-887.24 574.72,-883.08 574.25,-890.06"/>
</g>
<!-- src/keyboard.js -->
<g id="node18" class="node">
<title>src/keyboard.js</title>
<path fill="none" stroke="#c6c5fe" d="M531.33,-447C531.33,-447 439.67,-447 439.67,-447 435.83,-447 432,-443.17 432,-439.33 432,-439.33 432,-431.67 432,-431.67 432,-427.83 435.83,-424 439.67,-424 439.67,-424 531.33,-424 531.33,-424 535.17,-424 539,-427.83 539,-431.67 539,-431.67 539,-439.33 539,-439.33 539,-443.17 535.17,-447 531.33,-447"/>
<text text-anchor="middle" x="485.5" y="-431.8" font-family="Arial" font-size="14.00" fill="#c6c5fe">src/keyboard.js</text>
</g>
<!-- src/gameManager.js&#45;&gt;src/keyboard.js -->
<g id="edge26" class="edge">
<title>src/gameManager.js&#45;&gt;src/keyboard.js</title>
<path fill="none" stroke="#757575" d="M171.76,-771.92C218.97,-721.14 407.96,-517.84 466.87,-454.46"/>
<polygon fill="#757575" stroke="#757575" points="469.45,-456.83 473.7,-447.12 464.32,-452.06 469.45,-456.83"/>
</g>
<!-- src/music.js -->
<g id="node19" class="node">
<title>src/music.js</title>
<path fill="none" stroke="#cfffac" d="M1909.83,-139C1909.83,-139 1837.17,-139 1837.17,-139 1833.33,-139 1829.5,-135.17 1829.5,-131.33 1829.5,-131.33 1829.5,-123.67 1829.5,-123.67 1829.5,-119.83 1833.33,-116 1837.17,-116 1837.17,-116 1909.83,-116 1909.83,-116 1913.67,-116 1917.5,-119.83 1917.5,-123.67 1917.5,-123.67 1917.5,-131.33 1917.5,-131.33 1917.5,-135.17 1913.67,-139 1909.83,-139"/>
<text text-anchor="middle" x="1873.5" y="-123.8" font-family="Arial" font-size="14.00" fill="#cfffac">src/music.js</text>
</g>
<!-- src/gameManager.js&#45;&gt;src/music.js -->
<g id="edge28" class="edge">
<title>src/gameManager.js&#45;&gt;src/music.js</title>
<path fill="none" stroke="#757575" d="M162.03,-771.88C169.67,-686.42 218.71,-157.18 266,-105.5 333.53,-31.7 384.47,-51.5 484.5,-51.5 484.5,-51.5 484.5,-51.5 1356,-51.5 1526.96,-51.5 1726.4,-92.76 1819.53,-114.48"/>
<polygon fill="#757575" stroke="#757575" points="1818.75,-117.89 1829.28,-116.77 1820.35,-111.08 1818.75,-117.89"/>
</g>
<!-- src/player/Player.js -->
<g id="node20" class="node">
<title>src/player/Player.js</title>
<path fill="none" stroke="#c6c5fe" d="M388.33,-291C388.33,-291 273.67,-291 273.67,-291 269.83,-291 266,-287.17 266,-283.33 266,-283.33 266,-275.67 266,-275.67 266,-271.83 269.83,-268 273.67,-268 273.67,-268 388.33,-268 388.33,-268 392.17,-268 396,-271.83 396,-275.67 396,-275.67 396,-283.33 396,-283.33 396,-287.17 392.17,-291 388.33,-291"/>
<text text-anchor="middle" x="331" y="-275.8" font-family="Arial" font-size="14.00" fill="#c6c5fe">src/player/Player.js</text>
</g>
<!-- src/gameManager.js&#45;&gt;src/player/Player.js -->
<g id="edge29" class="edge">
<title>src/gameManager.js&#45;&gt;src/player/Player.js</title>
<path fill="none" stroke="#757575" d="M161.42,-771.71C163.77,-718.3 178.64,-495.06 266,-341.5 275.82,-324.24 291.88,-308.7 305.46,-297.5"/>
<polygon fill="#757575" stroke="#757575" points="307.86,-300.06 313.51,-291.1 303.5,-294.58 307.86,-300.06"/>
</g>
<!-- src/rendering/Helpers.js -->
<g id="node21" class="node">
<title>src/rendering/Helpers.js</title>
<path fill="none" stroke="#cfffac" d="M1945.33,-476C1945.33,-476 1801.67,-476 1801.67,-476 1797.83,-476 1794,-472.17 1794,-468.33 1794,-468.33 1794,-460.67 1794,-460.67 1794,-456.83 1797.83,-453 1801.67,-453 1801.67,-453 1945.33,-453 1945.33,-453 1949.17,-453 1953,-456.83 1953,-460.67 1953,-460.67 1953,-468.33 1953,-468.33 1953,-472.17 1949.17,-476 1945.33,-476"/>
<text text-anchor="middle" x="1873.5" y="-460.8" font-family="Arial" font-size="14.00" fill="#cfffac">src/rendering/Helpers.js</text>
</g>
<!-- src/gameManager.js&#45;&gt;src/rendering/Helpers.js -->
<g id="edge30" class="edge">
<title>src/gameManager.js&#45;&gt;src/rendering/Helpers.js</title>
<path fill="none" stroke="#757575" d="M160.87,-771.75C160.53,-680.55 170.45,-89.5 484.5,-89.5 484.5,-89.5 484.5,-89.5 658.5,-89.5 780.23,-89.5 1647.25,-143.74 1747,-213.5 1827.36,-269.7 1858.94,-392.69 1868.76,-442.7"/>
<polygon fill="#757575" stroke="#757575" points="1865.36,-443.54 1870.63,-452.73 1872.24,-442.26 1865.36,-443.54"/>
</g>
<!-- src/step.js -->
<g id="node22" class="node">
<title>src/step.js</title>
<path fill="none" stroke="#c6c5fe" d="M875.33,-637C875.33,-637 813.67,-637 813.67,-637 809.83,-637 806,-633.17 806,-629.33 806,-629.33 806,-621.67 806,-621.67 806,-617.83 809.83,-614 813.67,-614 813.67,-614 875.33,-614 875.33,-614 879.17,-614 883,-617.83 883,-621.67 883,-621.67 883,-629.33 883,-629.33 883,-633.17 879.17,-637 875.33,-637"/>
<text text-anchor="middle" x="844.5" y="-621.8" font-family="Arial" font-size="14.00" fill="#c6c5fe">src/step.js</text>
</g>
<!-- src/gameManager.js&#45;&gt;src/step.js -->
<g id="edge31" class="edge">
<title>src/gameManager.js&#45;&gt;src/step.js</title>
<path fill="none" stroke="#757575" d="M210.91,-771.95C337.79,-742.57 671.42,-665.34 795.83,-636.54"/>
<polygon fill="#757575" stroke="#757575" points="796.86,-639.89 805.82,-634.22 795.29,-633.07 796.86,-639.89"/>
</g>
<!-- src/startScreen.js&#45;&gt;src/music.js -->
<g id="edge54" class="edge">
<title>src/startScreen.js&#45;&gt;src/music.js</title>
<path fill="none" stroke="#757575" d="M391.51,-11.79C456.59,-12.09 563.97,-12.5 656.5,-12.5 656.5,-12.5 656.5,-12.5 1356,-12.5 1530.13,-12.5 1583.01,21.06 1747,-37.5 1789.69,-52.74 1830.73,-87.11 1853.68,-108.69"/>
<polygon fill="#757575" stroke="#757575" points="1851.38,-111.33 1861.02,-115.73 1856.23,-106.28 1851.38,-111.33"/>
</g>
<!-- src/Boss.js&#45;&gt;src/gameState.js -->
<g id="edge3" class="edge">
<title>src/Boss.js&#45;&gt;src/gameState.js</title>
<path fill="none" stroke="#757575" d="M1396.3,-1099.72C1484.56,-1103.8 1691.51,-1108.75 1747,-1069.5 1838.44,-1004.82 1863.93,-858.59 1870.44,-803.26"/>
<polygon fill="#757575" stroke="#757575" points="1873.94,-803.5 1871.53,-793.18 1866.98,-802.74 1873.94,-803.5"/>
</g>
<!-- src/Boss.js&#45;&gt;src/levelCompleteScreen.js -->
<g id="edge4" class="edge">
<title>src/Boss.js&#45;&gt;src/levelCompleteScreen.js</title>
<path fill="none" stroke="#757575" d="M1396.1,-1100.14C1476.17,-1105.41 1657.96,-1117.38 1772.39,-1124.91"/>
<polygon fill="#757575" stroke="#757575" points="1772.36,-1128.42 1782.56,-1125.58 1772.82,-1121.43 1772.36,-1128.42"/>
</g>
<!-- src/weapons/enemyRocketAtack.js -->
<g id="node7" class="node">
<title>src/weapons/enemyRocketAtack.js</title>
<path fill="none" stroke="#cfffac" d="M1739.33,-989C1739.33,-989 1527.67,-989 1527.67,-989 1523.83,-989 1520,-985.17 1520,-981.33 1520,-981.33 1520,-973.67 1520,-973.67 1520,-969.83 1523.83,-966 1527.67,-966 1527.67,-966 1739.33,-966 1739.33,-966 1743.17,-966 1747,-969.83 1747,-973.67 1747,-973.67 1747,-981.33 1747,-981.33 1747,-985.17 1743.17,-989 1739.33,-989"/>
<text text-anchor="middle" x="1633.5" y="-973.8" font-family="Arial" font-size="14.00" fill="#cfffac">src/weapons/enemyRocketAtack.js</text>
</g>
<!-- src/Boss.js&#45;&gt;src/weapons/enemyRocketAtack.js -->
<g id="edge5" class="edge">
<title>src/Boss.js&#45;&gt;src/weapons/enemyRocketAtack.js</title>
<path fill="none" stroke="#757575" d="M1382.51,-1085.99C1432.34,-1064.37 1540.03,-1017.63 1596.41,-993.16"/>
<polygon fill="#757575" stroke="#757575" points="1597.88,-996.34 1605.66,-989.15 1595.1,-989.92 1597.88,-996.34"/>
</g>
<!-- src/weapons/gatling.js -->
<g id="node8" class="node">
<title>src/weapons/gatling.js</title>
<path fill="none" stroke="#c6c5fe" d="M1700.33,-715C1700.33,-715 1566.67,-715 1566.67,-715 1562.83,-715 1559,-711.17 1559,-707.33 1559,-707.33 1559,-699.67 1559,-699.67 1559,-695.83 1562.83,-692 1566.67,-692 1566.67,-692 1700.33,-692 1700.33,-692 1704.17,-692 1708,-695.83 1708,-699.67 1708,-699.67 1708,-707.33 1708,-707.33 1708,-711.17 1704.17,-715 1700.33,-715"/>
<text text-anchor="middle" x="1633.5" y="-699.8" font-family="Arial" font-size="14.00" fill="#c6c5fe">src/weapons/gatling.js</text>
</g>
<!-- src/Boss.js&#45;&gt;src/weapons/gatling.js -->
<g id="edge6" class="edge">
<title>src/Boss.js&#45;&gt;src/weapons/gatling.js</title>
<path fill="none" stroke="#757575" d="M1396.22,-1087.17C1423.93,-1078.26 1459.95,-1062.9 1484,-1038.5 1484.19,-1038.31 1590.6,-798.1 1623.15,-724.61"/>
<polygon fill="#757575" stroke="#757575" points="1626.55,-725.58 1627.4,-715.02 1620.15,-722.75 1626.55,-725.58"/>
</g>
<!-- src/weapons/gatling.js&#45;&gt;src/gameState.js -->
<g id="edge65" class="edge">
<title>src/weapons/gatling.js&#45;&gt;src/gameState.js</title>
<path fill="none" stroke="#757575" d="M1692.81,-715.05C1710.39,-719.04 1729.63,-723.94 1747,-729.5 1778.73,-739.66 1813.65,-754.44 1838.58,-765.65"/>
<polygon fill="#757575" stroke="#757575" points="1837.4,-768.95 1847.95,-769.9 1840.29,-762.58 1837.4,-768.95"/>
</g>
<!-- src/weapons/gatling.js&#45;&gt;src/music.js -->
<g id="edge66" class="edge">
<title>src/weapons/gatling.js&#45;&gt;src/music.js</title>
<path fill="none" stroke="#757575" d="M1674.9,-691.94C1699.53,-682.79 1729.54,-667.48 1747,-643.5 1800.17,-570.49 1762.67,-531.5 1783,-443.5 1808.89,-331.44 1849.54,-199.8 1865.62,-149"/>
<polygon fill="#757575" stroke="#757575" points="1869.06,-149.75 1868.75,-139.16 1862.38,-147.63 1869.06,-149.75"/>
</g>
<!-- src/ammo.js&#45;&gt;src/weapons/gatling.js -->
<g id="edge7" class="edge">
<title>src/ammo.js&#45;&gt;src/weapons/gatling.js</title>
<path fill="none" stroke="#757575" d="M1369.33,-502.09C1392.88,-522.67 1443.22,-567.14 1484,-606.5 1500.51,-622.43 1501.66,-629.71 1520,-643.5 1543.53,-661.19 1572.98,-676.69 1595.84,-687.51"/>
<polygon fill="#757575" stroke="#757575" points="1594.66,-690.82 1605.2,-691.85 1597.6,-684.46 1594.66,-690.82"/>
</g>
<!-- src/weapons/rocket.js -->
<g id="node10" class="node">
<title>src/weapons/rocket.js</title>
<path fill="none" stroke="#c6c5fe" d="M1698.83,-476C1698.83,-476 1568.17,-476 1568.17,-476 1564.33,-476 1560.5,-472.17 1560.5,-468.33 1560.5,-468.33 1560.5,-460.67 1560.5,-460.67 1560.5,-456.83 1564.33,-453 1568.17,-453 1568.17,-453 1698.83,-453 1698.83,-453 1702.67,-453 1706.5,-456.83 1706.5,-460.67 1706.5,-460.67 1706.5,-468.33 1706.5,-468.33 1706.5,-472.17 1702.67,-476 1698.83,-476"/>
<text text-anchor="middle" x="1633.5" y="-460.8" font-family="Arial" font-size="14.00" fill="#c6c5fe">src/weapons/rocket.js</text>
</g>
<!-- src/ammo.js&#45;&gt;src/weapons/rocket.js -->
<g id="edge8" class="edge">
<title>src/ammo.js&#45;&gt;src/weapons/rocket.js</title>
<path fill="none" stroke="#757575" d="M1400.73,-486.29C1440.97,-482.51 1501.11,-476.86 1550.04,-472.25"/>
<polygon fill="#757575" stroke="#757575" points="1550.67,-475.71 1560.3,-471.29 1550.02,-468.74 1550.67,-475.71"/>
</g>
<!-- src/weapons/rocket.js&#45;&gt;src/rendering/Helpers.js -->
<g id="edge69" class="edge">
<title>src/weapons/rocket.js&#45;&gt;src/rendering/Helpers.js</title>
<path fill="none" stroke="#757575" d="M1706.55,-464.5C1730.83,-464.5 1758.21,-464.5 1783.63,-464.5"/>
<polygon fill="#757575" stroke="#757575" points="1783.64,-468 1793.64,-464.5 1783.64,-461 1783.64,-468"/>
</g>
<!-- src/enemy.js&#45;&gt;src/gameState.js -->
<g id="edge9" class="edge">
<title>src/enemy.js&#45;&gt;src/gameState.js</title>
<path fill="none" stroke="#757575" d="M1115.69,-820.9C1224.51,-819.2 1509.66,-813.28 1747,-795.5 1765.63,-794.1 1785.76,-792.09 1804.34,-790.02"/>
<polygon fill="#757575" stroke="#757575" points="1804.93,-793.47 1814.47,-788.86 1804.14,-786.52 1804.93,-793.47"/>
</g>
<!-- src/rendering/EnemyCollisionsChecks.js -->
<g id="node13" class="node">
<title>src/rendering/EnemyCollisionsChecks.js</title>
<path fill="none" stroke="#c6c5fe" d="M1476.33,-639C1476.33,-639 1233.67,-639 1233.67,-639 1229.83,-639 1226,-635.17 1226,-631.33 1226,-631.33 1226,-623.67 1226,-623.67 1226,-619.83 1229.83,-616 1233.67,-616 1233.67,-616 1476.33,-616 1476.33,-616 1480.17,-616 1484,-619.83 1484,-623.67 1484,-623.67 1484,-631.33 1484,-631.33 1484,-635.17 1480.17,-639 1476.33,-639"/>
<text text-anchor="middle" x="1355" y="-623.8" font-family="Arial" font-size="14.00" fill="#c6c5fe">src/rendering/EnemyCollisionsChecks.js</text>
</g>
<!-- src/enemy.js&#45;&gt;src/rendering/EnemyCollisionsChecks.js -->
<g id="edge10" class="edge">
<title>src/enemy.js&#45;&gt;src/rendering/EnemyCollisionsChecks.js</title>
<path fill="none" stroke="#757575" d="M1087.39,-809.95C1135.13,-777.27 1271.36,-684.05 1328.4,-645.02"/>
<polygon fill="#757575" stroke="#757575" points="1330.57,-647.78 1336.84,-639.24 1326.62,-642 1330.57,-647.78"/>
</g>
<!-- src/rendering/EnemyCollisionsChecks.js&#45;&gt;src/gameState.js -->
<g id="edge48" class="edge">
<title>src/rendering/EnemyCollisionsChecks.js&#45;&gt;src/gameState.js</title>
<path fill="none" stroke="#757575" d="M1457.78,-639.03C1564.67,-651.57 1720.88,-671.34 1747,-682.5 1790.83,-701.23 1832.34,-739.39 1854.91,-762.48"/>
<polygon fill="#757575" stroke="#757575" points="1852.63,-765.16 1862.08,-769.96 1857.69,-760.31 1852.63,-765.16"/>
</g>
<!-- src/rendering/EnemyCollisionsChecks.js&#45;&gt;src/weapons/gatling.js -->
<g id="edge52" class="edge">
<title>src/rendering/EnemyCollisionsChecks.js&#45;&gt;src/weapons/gatling.js</title>
<path fill="none" stroke="#757575" d="M1437.31,-639.08C1453.13,-642.7 1469.34,-647.4 1484,-653.5 1501.75,-660.89 1502.35,-669.88 1520,-677.5 1530.93,-682.22 1542.84,-686.15 1554.69,-689.4"/>
<polygon fill="#757575" stroke="#757575" points="1554.04,-692.85 1564.6,-691.97 1555.8,-686.07 1554.04,-692.85"/>
</g>
<!-- src/rendering/EnemyCollisionsChecks.js&#45;&gt;src/weapons/rocket.js -->
<g id="edge53" class="edge">
<title>src/rendering/EnemyCollisionsChecks.js&#45;&gt;src/weapons/rocket.js</title>
<path fill="none" stroke="#757575" d="M1394.68,-615.94C1422.54,-605.93 1459.42,-588.98 1484,-563.5 1510.79,-535.73 1489.51,-508.14 1520,-484.5 1528.97,-477.54 1539.56,-472.7 1550.58,-469.37"/>
<polygon fill="#757575" stroke="#757575" points="1551.56,-472.73 1560.36,-466.81 1549.8,-465.95 1551.56,-472.73"/>
</g>
<!-- src/rendering/EnemyCollisionsChecks.js&#45;&gt;src/music.js -->
<g id="edge49" class="edge">
<title>src/rendering/EnemyCollisionsChecks.js&#45;&gt;src/music.js</title>
<path fill="none" stroke="#757575" d="M1449.93,-615.97C1461.86,-612.36 1473.54,-607.65 1484,-601.5 1505.2,-589.04 1498.49,-571.4 1520,-559.5 1609.26,-510.11 1669.44,-591.76 1747,-525.5 1762.09,-512.61 1843.32,-230.1 1866.39,-149.05"/>
<polygon fill="#757575" stroke="#757575" points="1869.77,-149.97 1869.13,-139.4 1863.03,-148.06 1869.77,-149.97"/>
</g>
<!-- src/rendering/EnemyCollisionsChecks.js&#45;&gt;src/rendering/Helpers.js -->
<g id="edge51" class="edge">
<title>src/rendering/EnemyCollisionsChecks.js&#45;&gt;src/rendering/Helpers.js</title>
<path fill="none" stroke="#757575" d="M1427.5,-615.96C1536.3,-598.27 1732.45,-565.83 1747,-559.5 1789.59,-540.98 1830.95,-505.18 1853.93,-483.2"/>
<polygon fill="#757575" stroke="#757575" points="1856.55,-485.54 1861.27,-476.06 1851.67,-480.53 1856.55,-485.54"/>
</g>
<!-- src/gameOver.js -->
<g id="node24" class="node">
<title>src/gameOver.js</title>
<path fill="none" stroke="#c6c5fe" d="M1683.83,-517C1683.83,-517 1583.17,-517 1583.17,-517 1579.33,-517 1575.5,-513.17 1575.5,-509.33 1575.5,-509.33 1575.5,-501.67 1575.5,-501.67 1575.5,-497.83 1579.33,-494 1583.17,-494 1583.17,-494 1683.83,-494 1683.83,-494 1687.67,-494 1691.5,-497.83 1691.5,-501.67 1691.5,-501.67 1691.5,-509.33 1691.5,-509.33 1691.5,-513.17 1687.67,-517 1683.83,-517"/>
<text text-anchor="middle" x="1633.5" y="-501.8" font-family="Arial" font-size="14.00" fill="#c6c5fe">src/gameOver.js</text>
</g>
<!-- src/rendering/EnemyCollisionsChecks.js&#45;&gt;src/gameOver.js -->
<g id="edge47" class="edge">
<title>src/rendering/EnemyCollisionsChecks.js&#45;&gt;src/gameOver.js</title>
<path fill="none" stroke="#757575" d="M1457.59,-615.93C1467.04,-612.24 1476.05,-607.52 1484,-601.5 1511.89,-580.38 1492.39,-552.99 1520,-531.5 1533.03,-521.35 1549.33,-515.05 1565.44,-511.16"/>
<polygon fill="#757575" stroke="#757575" points="1566.37,-514.54 1575.42,-509.03 1564.91,-507.69 1566.37,-514.54"/>
</g>
<!-- src/rendering/Explosion.js -->
<g id="node28" class="node">
<title>src/rendering/Explosion.js</title>
<path fill="none" stroke="#cfffac" d="M1711.33,-635C1711.33,-635 1555.67,-635 1555.67,-635 1551.83,-635 1548,-631.17 1548,-627.33 1548,-627.33 1548,-619.67 1548,-619.67 1548,-615.83 1551.83,-612 1555.67,-612 1555.67,-612 1711.33,-612 1711.33,-612 1715.17,-612 1719,-615.83 1719,-619.67 1719,-619.67 1719,-627.33 1719,-627.33 1719,-631.17 1715.17,-635 1711.33,-635"/>
<text text-anchor="middle" x="1633.5" y="-619.8" font-family="Arial" font-size="14.00" fill="#cfffac">src/rendering/Explosion.js</text>
</g>
<!-- src/rendering/EnemyCollisionsChecks.js&#45;&gt;src/rendering/Explosion.js -->
<g id="edge50" class="edge">
<title>src/rendering/EnemyCollisionsChecks.js&#45;&gt;src/rendering/Explosion.js</title>
<path fill="none" stroke="#757575" d="M1484.13,-625.65C1502.2,-625.38 1520.5,-625.12 1537.79,-624.87"/>
<polygon fill="#757575" stroke="#757575" points="1537.89,-628.37 1547.84,-624.72 1537.79,-621.37 1537.89,-628.37"/>
</g>
<!-- src/enemyFactory.js -->
<g id="node14" class="node">
<title>src/enemyFactory.js</title>
<path fill="none" stroke="#c6c5fe" d="M905.33,-931C905.33,-931 783.67,-931 783.67,-931 779.83,-931 776,-927.17 776,-923.33 776,-923.33 776,-915.67 776,-915.67 776,-911.83 779.83,-908 783.67,-908 783.67,-908 905.33,-908 905.33,-908 909.17,-908 913,-911.83 913,-915.67 913,-915.67 913,-923.33 913,-923.33 913,-927.17 909.17,-931 905.33,-931"/>
<text text-anchor="middle" x="844.5" y="-915.8" font-family="Arial" font-size="14.00" fill="#c6c5fe">src/enemyFactory.js</text>
</g>
<!-- src/enemyFactory.js&#45;&gt;src/weapons/enemyRocketAtack.js -->
<g id="edge13" class="edge">
<title>src/enemyFactory.js&#45;&gt;src/weapons/enemyRocketAtack.js</title>
<path fill="none" stroke="#757575" d="M890.05,-931.05C908.21,-935.32 929.49,-939.79 949,-942.5 1143.75,-969.58 1372.33,-976.28 1509.62,-977.63"/>
<polygon fill="#757575" stroke="#757575" points="1509.72,-981.13 1519.75,-977.72 1509.78,-974.13 1509.72,-981.13"/>
</g>
<!-- src/enemyFactory.js&#45;&gt;src/weapons/gatling.js -->
<g id="edge14" class="edge">
<title>src/enemyFactory.js&#45;&gt;src/weapons/gatling.js</title>
<path fill="none" stroke="#757575" d="M913.22,-917.6C1067.2,-912.86 1434.16,-899 1484,-873.5 1506.19,-862.15 1503.73,-849.39 1520,-830.5 1553.16,-792 1592.71,-747.72 1614.98,-722.93"/>
<polygon fill="#757575" stroke="#757575" points="1617.76,-725.08 1621.84,-715.31 1612.55,-720.4 1617.76,-725.08"/>
</g>
<!-- src/enemyFactory.js&#45;&gt;src/enemy.js -->
<g id="edge11" class="edge">
<title>src/enemyFactory.js&#45;&gt;src/enemy.js</title>
<path fill="none" stroke="#757575" d="M871.96,-907.87C911.94,-890.3 987.85,-856.94 1032.73,-837.22"/>
<polygon fill="#757575" stroke="#757575" points="1034.33,-840.34 1042.08,-833.11 1031.51,-833.93 1034.33,-840.34"/>
</g>
<!-- src/enemyManoeuvre.js -->
<g id="node15" class="node">
<title>src/enemyManoeuvre.js</title>
<path fill="none" stroke="#c6c5fe" d="M1142.33,-1027C1142.33,-1027 996.67,-1027 996.67,-1027 992.83,-1027 989,-1023.17 989,-1019.33 989,-1019.33 989,-1011.67 989,-1011.67 989,-1007.83 992.83,-1004 996.67,-1004 996.67,-1004 1142.33,-1004 1142.33,-1004 1146.17,-1004 1150,-1007.83 1150,-1011.67 1150,-1011.67 1150,-1019.33 1150,-1019.33 1150,-1023.17 1146.17,-1027 1142.33,-1027"/>
<text text-anchor="middle" x="1069.5" y="-1011.8" font-family="Arial" font-size="14.00" fill="#c6c5fe">src/enemyManoeuvre.js</text>
</g>
<!-- src/enemyFactory.js&#45;&gt;src/enemyManoeuvre.js -->
<g id="edge12" class="edge">
<title>src/enemyFactory.js&#45;&gt;src/enemyManoeuvre.js</title>
<path fill="none" stroke="#757575" d="M858.9,-931.07C877.74,-946.71 913.7,-974.39 949,-989.5 960.24,-994.31 972.48,-998.28 984.69,-1001.53"/>
<polygon fill="#757575" stroke="#757575" points="983.9,-1004.94 994.45,-1003.99 985.61,-998.15 983.9,-1004.94"/>
</g>
<!-- src/weapons/groundEnemyAttack.js -->
<g id="node16" class="node">
<title>src/weapons/groundEnemyAttack.js</title>
<path fill="none" stroke="#c6c5fe" d="M1463.33,-949C1463.33,-949 1246.67,-949 1246.67,-949 1242.83,-949 1239,-945.17 1239,-941.33 1239,-941.33 1239,-933.67 1239,-933.67 1239,-929.83 1242.83,-926 1246.67,-926 1246.67,-926 1463.33,-926 1463.33,-926 1467.17,-926 1471,-929.83 1471,-933.67 1471,-933.67 1471,-941.33 1471,-941.33 1471,-945.17 1467.17,-949 1463.33,-949"/>
<text text-anchor="middle" x="1355" y="-933.8" font-family="Arial" font-size="14.00" fill="#c6c5fe">src/weapons/groundEnemyAttack.js</text>
</g>
<!-- src/enemyFactory.js&#45;&gt;src/weapons/groundEnemyAttack.js -->
<g id="edge15" class="edge">
<title>src/enemyFactory.js&#45;&gt;src/weapons/groundEnemyAttack.js</title>
<path fill="none" stroke="#757575" d="M913.02,-921.89C993.34,-924.73 1129.06,-929.54 1228.77,-933.07"/>
<polygon fill="#757575" stroke="#757575" points="1228.79,-936.57 1238.91,-933.43 1229.04,-929.57 1228.79,-936.57"/>
</g>
<!-- src/enemyManoeuvre.js&#45;&gt;src/background.js -->
<g id="edge19" class="edge">
<title>src/enemyManoeuvre.js&#45;&gt;src/background.js</title>
<path fill="none" stroke="#757575" d="M1150.23,-1016.06C1192.2,-1016.36 1243.21,-1016.72 1283.69,-1017"/>
<polygon fill="#757575" stroke="#757575" points="1283.72,-1020.5 1293.74,-1017.07 1283.77,-1013.5 1283.72,-1020.5"/>
</g>
<!-- src/weapons/groundEnemyAttack.js&#45;&gt;src/gameState.js -->
<g id="edge67" class="edge">
<title>src/weapons/groundEnemyAttack.js&#45;&gt;src/gameState.js</title>
<path fill="none" stroke="#757575" d="M1418.09,-925.98C1439.1,-921.8 1462.65,-916.78 1484,-911.5 1602.23,-882.24 1632.27,-875.37 1747,-834.5 1778.27,-823.36 1812.98,-808.5 1837.96,-797.35"/>
<polygon fill="#757575" stroke="#757575" points="1839.67,-800.42 1847.36,-793.13 1836.8,-794.03 1839.67,-800.42"/>
</g>
<!-- src/weapons/groundEnemyAttack.js&#45;&gt;src/weapons/enemyRocketAtack.js -->
<g id="edge68" class="edge">
<title>src/weapons/groundEnemyAttack.js&#45;&gt;src/weapons/enemyRocketAtack.js</title>
<path fill="none" stroke="#757575" d="M1435.6,-949.02C1469.15,-953.87 1508.34,-959.54 1542.89,-964.54"/>
<polygon fill="#757575" stroke="#757575" points="1542.58,-968.03 1552.98,-966 1543.58,-961.1 1542.58,-968.03"/>
</g>
<!-- src/enemyManager.js&#45;&gt;src/gameState.js -->
<g id="edge17" class="edge">
<title>src/enemyManager.js&#45;&gt;src/gameState.js</title>
<path fill="none" stroke="#757575" d="M674.79,-902.13C717.32,-931.7 836.23,-1009.33 949,-1036.5 1180.16,-1092.2 1246.9,-1056.43 1484,-1038.5 1601.9,-1029.59 1649.33,-1065.13 1747,-998.5 1817.91,-950.12 1854.05,-847.48 1866.91,-802.91"/>
<polygon fill="#757575" stroke="#757575" points="1870.32,-803.7 1869.62,-793.13 1863.57,-801.83 1870.32,-803.7"/>
</g>
<!-- src/enemyManager.js&#45;&gt;src/weapons/gatling.js -->
<g id="edge18" class="edge">
<title>src/enemyManager.js&#45;&gt;src/weapons/gatling.js</title>
<path fill="none" stroke="#757575" d="M730.54,-888.65C833.39,-884.94 1027.8,-873.89 1190,-841.5 1342.56,-811.03 1517.05,-747.88 1593.35,-718.79"/>
<polygon fill="#757575" stroke="#757575" points="1594.93,-721.93 1603.02,-715.08 1592.43,-715.39 1594.93,-721.93"/>
</g>
<!-- src/enemyManager.js&#45;&gt;src/enemyFactory.js -->
<g id="edge16" class="edge">
<title>src/enemyManager.js&#45;&gt;src/enemyFactory.js</title>
<path fill="none" stroke="#757575" d="M730.56,-901.8C742.09,-903.6 754.07,-905.48 765.73,-907.31"/>
<polygon fill="#757575" stroke="#757575" points="765.46,-910.81 775.88,-908.9 766.54,-903.89 765.46,-910.81"/>
</g>
<!-- src/keyboard.js&#45;&gt;src/gameState.js -->
<g id="edge37" class="edge">
<title>src/keyboard.js&#45;&gt;src/gameState.js</title>
<path fill="none" stroke="#757575" d="M497.52,-447.24C545.29,-497.13 741.38,-692.06 949,-757.5 1108.14,-807.65 1618.64,-792.14 1804.23,-784.57"/>
<polygon fill="#757575" stroke="#757575" points="1804.56,-788.06 1814.4,-784.15 1804.27,-781.06 1804.56,-788.06"/>
</g>
<!-- src/keyboard.js&#45;&gt;src/weapons/rocket.js -->
<g id="edge40" class="edge">
<title>src/keyboard.js&#45;&gt;src/weapons/rocket.js</title>
<path fill="none" stroke="#757575" d="M539.01,-436.43C655.95,-438.56 946.68,-444.06 1190,-450.5 1315.77,-453.83 1461.62,-458.63 1550.45,-461.65"/>
<polygon fill="#757575" stroke="#757575" points="1550.35,-465.15 1560.46,-461.99 1550.59,-458.15 1550.35,-465.15"/>
</g>
<!-- src/keyboard.js&#45;&gt;src/music.js -->
<g id="edge38" class="edge">
<title>src/keyboard.js&#45;&gt;src/music.js</title>
<path fill="none" stroke="#757575" d="M493.68,-423.9C526.65,-372.22 669.43,-165.5 843.5,-165.5 843.5,-165.5 843.5,-165.5 1070.5,-165.5 1352.85,-165.5 1690.48,-141.71 1819.15,-131.78"/>
<polygon fill="#757575" stroke="#757575" points="1819.8,-135.24 1829.5,-130.97 1819.26,-128.26 1819.8,-135.24"/>
</g>
<!-- src/gameMenuActions.js -->
<g id="node23" class="node">
<title>src/gameMenuActions.js</title>
<path fill="none" stroke="#c6c5fe" d="M732.33,-407C732.33,-407 582.67,-407 582.67,-407 578.83,-407 575,-403.17 575,-399.33 575,-399.33 575,-391.67 575,-391.67 575,-387.83 578.83,-384 582.67,-384 582.67,-384 732.33,-384 732.33,-384 736.17,-384 740,-387.83 740,-391.67 740,-391.67 740,-399.33 740,-399.33 740,-403.17 736.17,-407 732.33,-407"/>
<text text-anchor="middle" x="657.5" y="-391.8" font-family="Arial" font-size="14.00" fill="#c6c5fe">src/gameMenuActions.js</text>
</g>
<!-- src/keyboard.js&#45;&gt;src/gameMenuActions.js -->
<g id="edge36" class="edge">
<title>src/keyboard.js&#45;&gt;src/gameMenuActions.js</title>
<path fill="none" stroke="#757575" d="M535.67,-423.93C554.97,-419.39 577.27,-414.14 597.43,-409.4"/>
<polygon fill="#757575" stroke="#757575" points="598.51,-412.74 607.44,-407.04 596.9,-405.93 598.51,-412.74"/>
</g>
<!-- src/touch.js -->
<g id="node25" class="node">
<title>src/touch.js</title>
<path fill="none" stroke="#c6c5fe" d="M879.33,-484C879.33,-484 809.67,-484 809.67,-484 805.83,-484 802,-480.17 802,-476.33 802,-476.33 802,-468.67 802,-468.67 802,-464.83 805.83,-461 809.67,-461 809.67,-461 879.33,-461 879.33,-461 883.17,-461 887,-464.83 887,-468.67 887,-468.67 887,-476.33 887,-476.33 887,-480.17 883.17,-484 879.33,-484"/>
<text text-anchor="middle" x="844.5" y="-468.8" font-family="Arial" font-size="14.00" fill="#c6c5fe">src/touch.js</text>
</g>
<!-- src/keyboard.js&#45;&gt;src/touch.js -->
<g id="edge39" class="edge">
<title>src/keyboard.js&#45;&gt;src/touch.js</title>
<path fill="none" stroke="#757575" d="M539.29,-444.48C551.03,-446.3 563.42,-448.09 575,-449.5 650.04,-458.64 737.33,-465.4 791.5,-469.15"/>
<polygon fill="#757575" stroke="#757575" points="791.33,-472.65 801.55,-469.84 791.81,-465.66 791.33,-472.65"/>
</g>
<!-- src/player/Player.js&#45;&gt;src/gameState.js -->
<g id="edge42" class="edge">
<title>src/player/Player.js&#45;&gt;src/gameState.js</title>
<path fill="none" stroke="#757575" d="M361,-267.96C417.1,-246.7 544.83,-203.5 656.5,-203.5 656.5,-203.5 656.5,-203.5 1356,-203.5 1545.67,-203.5 1629.83,-225.35 1747,-374.5 1753.28,-382.49 1841.34,-676.96 1866.08,-759.94"/>
<polygon fill="#757575" stroke="#757575" points="1862.74,-761 1868.95,-769.59 1869.45,-759 1862.74,-761"/>
</g>
<!-- src/player/Player.js&#45;&gt;src/weapons/gatling.js -->
<g id="edge45" class="edge">
<title>src/player/Player.js&#45;&gt;src/weapons/gatling.js</title>
<path fill="none" stroke="#757575" d="M393.35,-291C458.42,-302.19 564.33,-317.5 656.5,-317.5 656.5,-317.5 656.5,-317.5 1070.5,-317.5 1266.3,-317.5 1356.18,-321.18 1484,-469.5 1535.55,-529.32 1472.69,-580.27 1520,-643.5 1535.67,-664.43 1560.83,-678.82 1583.39,-688.25"/>
<polygon fill="#757575" stroke="#757575" points="1582.27,-691.58 1592.86,-691.99 1584.84,-685.07 1582.27,-691.58"/>
</g>
<!-- src/player/Player.js&#45;&gt;src/weapons/rocket.js -->
<g id="edge46" class="edge">
<title>src/player/Player.js&#45;&gt;src/weapons/rocket.js</title>
<path fill="none" stroke="#757575" d="M393.35,-268C458.42,-256.81 564.33,-241.5 656.5,-241.5 656.5,-241.5 656.5,-241.5 1070.5,-241.5 1254.59,-241.5 1321.91,-178.24 1484,-265.5 1558.34,-305.52 1605.85,-400.78 1624.07,-443.33"/>
<polygon fill="#757575" stroke="#757575" points="1620.9,-444.84 1627.98,-452.72 1627.37,-442.15 1620.9,-444.84"/>
</g>
<!-- src/player/Player.js&#45;&gt;src/keyboard.js -->
<g id="edge43" class="edge">
<title>src/player/Player.js&#45;&gt;src/keyboard.js</title>
<path fill="none" stroke="#757575" d="M343.46,-291.23C369.63,-317.99 433.95,-383.79 465.88,-416.46"/>
<polygon fill="#757575" stroke="#757575" points="463.41,-418.93 472.9,-423.64 468.42,-414.04 463.41,-418.93"/>
</g>
<!-- src/player/Player.js&#45;&gt;src/music.js -->
<g id="edge44" class="edge">
<title>src/player/Player.js&#45;&gt;src/music.js</title>
<path fill="none" stroke="#757575" d="M340.63,-267.82C356.27,-247.7 391.46,-206.98 432,-189.5 876.62,2.17 1035.98,-146.51 1520,-134.5 1626.08,-131.87 1750.13,-129.59 1819.17,-128.39"/>
<polygon fill="#757575" stroke="#757575" points="1819.42,-131.89 1829.36,-128.22 1819.3,-124.89 1819.42,-131.89"/>
</g>
<!-- src/player/Player.js&#45;&gt;src/gameOver.js -->
<g id="edge41" class="edge">
<title>src/player/Player.js&#45;&gt;src/gameOver.js</title>
<path fill="none" stroke="#757575" d="M396.03,-279.5C461.49,-279.5 566.08,-279.5 656.5,-279.5 656.5,-279.5 656.5,-279.5 1070.5,-279.5 1162.54,-279.5 1414.57,-243.07 1484,-303.5 1545.87,-357.35 1461.66,-426.85 1520,-484.5 1532,-496.35 1548.4,-502.66 1564.98,-505.79"/>
<polygon fill="#757575" stroke="#757575" points="1564.88,-509.31 1575.29,-507.34 1565.92,-502.39 1564.88,-509.31"/>
</g>
<!-- src/step.js&#45;&gt;src/gameState.js -->
<g id="edge59" class="edge">
<title>src/step.js&#45;&gt;src/gameState.js</title>
<path fill="none" stroke="#757575" d="M853.49,-637.29C868.96,-658.98 905.36,-704.71 949,-723.5 1112.12,-793.74 1570.01,-752.76 1747,-767.5 1765.62,-769.05 1785.75,-771.12 1804.32,-773.19"/>
<polygon fill="#757575" stroke="#757575" points="1804.13,-776.69 1814.46,-774.34 1804.92,-769.74 1804.13,-776.69"/>
</g>
<!-- src/step.js&#45;&gt;src/weapons/gatling.js -->
<g id="edge62" class="edge">
<title>src/step.js&#45;&gt;src/weapons/gatling.js</title>
<path fill="none" stroke="#757575" d="M883.15,-624.85C946.7,-624.23 1079.15,-625.05 1190,-639.5 1206.25,-641.62 1209.87,-644.6 1226,-647.5 1337.06,-667.46 1466.31,-684.15 1548.72,-693.99"/>
<polygon fill="#757575" stroke="#757575" points="1548.44,-697.48 1558.78,-695.18 1549.26,-690.53 1548.44,-697.48"/>
</g>
<!-- src/step.js&#45;&gt;src/ammo.js -->
<g id="edge55" class="edge">
<title>src/step.js&#45;&gt;src/ammo.js</title>
<path fill="none" stroke="#757575" d="M854.59,-613.95C871.01,-594.01 907.78,-553.57 949,-535.5 1010.5,-508.54 1203.49,-496.82 1299.14,-492.56"/>
<polygon fill="#757575" stroke="#757575" points="1299.36,-496.05 1309.2,-492.12 1299.06,-489.06 1299.36,-496.05"/>
</g>
<!-- src/step.js&#45;&gt;src/weapons/rocket.js -->
<g id="edge63" class="edge">
<title>src/step.js&#45;&gt;src/weapons/rocket.js</title>
<path fill="none" stroke="#757575" d="M883.21,-615.72C902.77,-610.81 927.09,-604.98 949,-600.5 1067.11,-576.33 1372.77,-557.01 1484,-510.5 1502.21,-502.89 1501.83,-492.2 1520,-484.5 1529.55,-480.45 1539.89,-477.23 1550.31,-474.65"/>
<polygon fill="#757575" stroke="#757575" points="1551.32,-478.01 1560.29,-472.38 1549.76,-471.19 1551.32,-478.01"/>
</g>
<!-- src/step.js&#45;&gt;src/background.js -->
<g id="edge56" class="edge">
<title>src/step.js&#45;&gt;src/background.js</title>
<path fill="none" stroke="#757575" d="M883.27,-630.53C970.5,-642.29 1179.35,-671.48 1190,-682.5 1275.96,-771.46 1152.69,-858.86 1226,-958.5 1241.75,-979.9 1267.16,-993.76 1291.21,-1002.63"/>
<polygon fill="#757575" stroke="#757575" points="1290.1,-1005.95 1300.69,-1005.9 1292.38,-999.33 1290.1,-1005.95"/>
</g>
<!-- src/step.js&#45;&gt;src/enemy.js -->
<g id="edge57" class="edge">
<title>src/step.js&#45;&gt;src/enemy.js</title>
<path fill="none" stroke="#757575" d="M852.23,-637.04C867.08,-661.73 904.85,-720.41 949,-757.5 973.18,-777.81 1004.84,-794.42 1029.5,-805.62"/>
<polygon fill="#757575" stroke="#757575" points="1028.36,-808.94 1038.92,-809.79 1031.19,-802.54 1028.36,-808.94"/>
</g>
<!-- src/step.js&#45;&gt;src/gameOver.js -->
<g id="edge58" class="edge">
<title>src/step.js&#45;&gt;src/gameOver.js</title>
<path fill="none" stroke="#757575" d="M883.04,-623.49C1011.8,-616.37 1430.58,-591.28 1484,-563.5 1505.81,-552.16 1498.44,-533.32 1520,-521.5 1533.69,-513.99 1549.67,-509.59 1565.22,-507.1"/>
<polygon fill="#757575" stroke="#757575" points="1565.9,-510.54 1575.34,-505.73 1564.96,-503.61 1565.9,-510.54"/>
</g>
<!-- src/mobile/mobileVelocityController.js -->
<g id="node26" class="node">
<title>src/mobile/mobileVelocityController.js</title>
<path fill="none" stroke="#cfffac" d="M1182.33,-715C1182.33,-715 956.67,-715 956.67,-715 952.83,-715 949,-711.17 949,-707.33 949,-707.33 949,-699.67 949,-699.67 949,-695.83 952.83,-692 956.67,-692 956.67,-692 1182.33,-692 1182.33,-692 1186.17,-692 1190,-695.83 1190,-699.67 1190,-699.67 1190,-707.33 1190,-707.33 1190,-711.17 1186.17,-715 1182.33,-715"/>
<text text-anchor="middle" x="1069.5" y="-699.8" font-family="Arial" font-size="14.00" fill="#cfffac">src/mobile/mobileVelocityController.js</text>
</g>
<!-- src/step.js&#45;&gt;src/mobile/mobileVelocityController.js -->
<g id="edge60" class="edge">
<title>src/step.js&#45;&gt;src/mobile/mobileVelocityController.js</title>
<path fill="none" stroke="#757575" d="M865.07,-637.21C885.41,-648.92 918.48,-666.71 949,-677.5 962.5,-682.27 977.18,-686.34 991.48,-689.73"/>
<polygon fill="#757575" stroke="#757575" points="990.77,-693.16 1001.3,-691.98 992.33,-686.34 990.77,-693.16"/>
</g>
<!-- src/mobileJoystick.js -->
<g id="node27" class="node">
<title>src/mobileJoystick.js</title>
<path fill="none" stroke="#cfffac" d="M1131.83,-483C1131.83,-483 1007.17,-483 1007.17,-483 1003.33,-483 999.5,-479.17 999.5,-475.33 999.5,-475.33 999.5,-467.67 999.5,-467.67 999.5,-463.83 1003.33,-460 1007.17,-460 1007.17,-460 1131.83,-460 1131.83,-460 1135.67,-460 1139.5,-463.83 1139.5,-467.67 1139.5,-467.67 1139.5,-475.33 1139.5,-475.33 1139.5,-479.17 1135.67,-483 1131.83,-483"/>
<text text-anchor="middle" x="1069.5" y="-467.8" font-family="Arial" font-size="14.00" fill="#cfffac">src/mobileJoystick.js</text>
</g>
<!-- src/step.js&#45;&gt;src/mobileJoystick.js -->
<g id="edge61" class="edge">
<title>src/step.js&#45;&gt;src/mobileJoystick.js</title>
<path fill="none" stroke="#757575" d="M851.41,-613.73C864.9,-588.14 900.59,-527.35 949,-497.5 961.26,-489.94 975.42,-484.56 989.6,-480.74"/>
<polygon fill="#757575" stroke="#757575" points="990.52,-484.11 999.4,-478.33 988.86,-477.32 990.52,-484.11"/>
</g>
<!-- src/gameMenuActions.js&#45;&gt;src/gameState.js -->
<g id="edge32" class="edge">
<title>src/gameMenuActions.js&#45;&gt;src/gameState.js</title>
<path fill="none" stroke="#757575" d="M740.18,-394.87C822.93,-394.28 954.61,-393.5 1068.5,-393.5 1068.5,-393.5 1068.5,-393.5 1356,-393.5 1531.19,-393.5 1609.81,-334.54 1747,-443.5 1799.23,-484.99 1851.48,-691.68 1867.52,-759.73"/>
<polygon fill="#757575" stroke="#757575" points="1864.17,-760.81 1869.85,-769.76 1870.99,-759.22 1864.17,-760.81"/>
</g>
<!-- src/gameMenuActions.js&#45;&gt;src/step.js -->
<g id="edge33" class="edge">
<title>src/gameMenuActions.js&#45;&gt;src/step.js</title>
<path fill="none" stroke="#757575" d="M667.93,-407.22C697.8,-444.36 790.59,-559.72 827.81,-606"/>
<polygon fill="#757575" stroke="#757575" points="825.1,-608.2 834.09,-613.8 830.55,-603.82 825.1,-608.2"/>
</g>
<!-- src/gameOver.js&#45;&gt;src/levelCompleteScreen.js -->
<g id="edge34" class="edge">
<title>src/gameOver.js&#45;&gt;src/levelCompleteScreen.js</title>
<path fill="none" stroke="#757575" d="M1655.33,-517.26C1681.27,-533.08 1724.87,-563.76 1747,-602.5 1791.59,-680.54 1763.22,-713.82 1783,-801.5 1809.53,-919.08 1850.28,-1057.75 1866,-1110.08"/>
<polygon fill="#757575" stroke="#757575" points="1862.73,-1111.34 1868.96,-1119.9 1869.43,-1109.31 1862.73,-1111.34"/>
</g>
<!-- src/gameOver.js&#45;&gt;src/music.js -->
<g id="edge35" class="edge">
<title>src/gameOver.js&#45;&gt;src/music.js</title>
<path fill="none" stroke="#757575" d="M1691.53,-506.09C1711.04,-503.58 1731.76,-497.56 1747,-484.5 1800.5,-438.64 1852.46,-218.95 1867.9,-148.97"/>
<polygon fill="#757575" stroke="#757575" points="1871.34,-149.58 1870.06,-139.07 1864.51,-148.09 1871.34,-149.58"/>
</g>
<!-- src/touch.js&#45;&gt;src/mobileJoystick.js -->
<g id="edge64" class="edge">
<title>src/touch.js&#45;&gt;src/mobileJoystick.js</title>
<path fill="none" stroke="#757575" d="M887.18,-472.31C915.87,-472.18 954.87,-472.01 989.35,-471.85"/>
<polygon fill="#757575" stroke="#757575" points="989.43,-475.35 999.41,-471.81 989.4,-468.35 989.43,-475.35"/>
</g>
</g>
</svg>
