<?xml version="1.0" encoding="UTF-8" standalone="no"?>
<!DOCTYPE svg PUBLIC "-//W3C//DTD SVG 1.1//EN"
 "http://www.w3.org/Graphics/SVG/1.1/DTD/svg11.dtd">
<!-- Generated by graphviz version 2.43.0 (0)
 -->
<!-- Title: G Pages: 1 -->
<svg width="2114pt" height="1438pt"
 viewBox="0.00 0.00 2114.20 1438.25" xmlns="http://www.w3.org/2000/svg" xmlns:xlink="http://www.w3.org/1999/xlink">
<g id="graph0" class="graph" transform="scale(1 1) rotate(0) translate(21.6 1416.65)">
<title>G</title>
<polygon fill="#111111" stroke="transparent" points="-21.6,21.6 -21.6,-1416.65 2092.6,-1416.65 2092.6,21.6 -21.6,21.6"/>
<!-- app.js -->
<g id="node1" class="node">
<title>app.js</title>
<path fill="none" stroke="#c6c5fe" d="M46.33,-377.18C46.33,-377.18 7.67,-377.18 7.67,-377.18 3.83,-377.18 0,-373.35 0,-369.52 0,-369.52 0,-361.85 0,-361.85 0,-358.02 3.83,-354.18 7.67,-354.18 7.67,-354.18 46.33,-354.18 46.33,-354.18 50.17,-354.18 54,-358.02 54,-361.85 54,-361.85 54,-369.52 54,-369.52 54,-373.35 50.17,-377.18 46.33,-377.18"/>
<text text-anchor="middle" x="27" y="-361.98" font-family="Arial" font-size="14.00" fill="#c6c5fe">app.js</text>
</g>
<!-- src/gameManager.js -->
<g id="node2" class="node">
<title>src/gameManager.js</title>
<path fill="none" stroke="#c6c5fe" d="M222.33,-607.18C222.33,-607.18 97.67,-607.18 97.67,-607.18 93.83,-607.18 90,-603.35 90,-599.52 90,-599.52 90,-591.85 90,-591.85 90,-588.02 93.83,-584.18 97.67,-584.18 97.67,-584.18 222.33,-584.18 222.33,-584.18 226.17,-584.18 230,-588.02 230,-591.85 230,-591.85 230,-599.52 230,-599.52 230,-603.35 226.17,-607.18 222.33,-607.18"/>
<text text-anchor="middle" x="160" y="-591.98" font-family="Arial" font-size="14.00" fill="#c6c5fe">src/gameManager.js</text>
</g>
<!-- app.js&#45;&gt;src/gameManager.js -->
<g id="edge1" class="edge">
<title>app.js&#45;&gt;src/gameManager.js</title>
<path fill="none" stroke="#757575" d="M34.68,-377.4C55.66,-414.24 120.45,-527.99 147.23,-575.01"/>
<polygon fill="#757575" stroke="#757575" points="144.35,-577.03 152.34,-583.98 150.43,-573.56 144.35,-577.03"/>
</g>
<!-- src/startScreen.js -->
<g id="node3" class="node">
<title>src/startScreen.js</title>
<path fill="none" stroke="#c6c5fe" d="M383.83,-89.18C383.83,-89.18 278.17,-89.18 278.17,-89.18 274.33,-89.18 270.5,-85.35 270.5,-81.52 270.5,-81.52 270.5,-73.85 270.5,-73.85 270.5,-70.02 274.33,-66.18 278.17,-66.18 278.17,-66.18 383.83,-66.18 383.83,-66.18 387.67,-66.18 391.5,-70.02 391.5,-73.85 391.5,-73.85 391.5,-81.52 391.5,-81.52 391.5,-85.35 387.67,-89.18 383.83,-89.18"/>
<text text-anchor="middle" x="331" y="-73.98" font-family="Arial" font-size="14.00" fill="#c6c5fe">src/startScreen.js</text>
</g>
<!-- app.js&#45;&gt;src/startScreen.js -->
<g id="edge2" class="edge">
<title>app.js&#45;&gt;src/startScreen.js</title>
<path fill="none" stroke="#757575" d="M35.65,-354.06C62.56,-313.95 157.18,-179.68 266,-103.68 271.55,-99.81 277.76,-96.38 284.08,-93.38"/>
<polygon fill="#757575" stroke="#757575" points="285.59,-96.54 293.34,-89.31 282.77,-90.13 285.59,-96.54"/>
</g>
<!-- src/Boss.js -->
<g id="node4" class="node">
<title>src/Boss.js</title>
<path fill="none" stroke="#c6c5fe" d="M1050.83,-283.18C1050.83,-283.18 984.17,-283.18 984.17,-283.18 980.33,-283.18 976.5,-279.35 976.5,-275.52 976.5,-275.52 976.5,-267.85 976.5,-267.85 976.5,-264.02 980.33,-260.18 984.17,-260.18 984.17,-260.18 1050.83,-260.18 1050.83,-260.18 1054.67,-260.18 1058.5,-264.02 1058.5,-267.85 1058.5,-267.85 1058.5,-275.52 1058.5,-275.52 1058.5,-279.35 1054.67,-283.18 1050.83,-283.18"/>
<text text-anchor="middle" x="1017.5" y="-267.98" font-family="Arial" font-size="14.00" fill="#c6c5fe">src/Boss.js</text>
</g>
<!-- src/gameManager.js&#45;&gt;src/Boss.js -->
<g id="edge34" class="edge">
<title>src/gameManager.js&#45;&gt;src/Boss.js</title>
<path fill="none" stroke="#757575" d="M161.05,-584.12C161.91,-538.92 171.63,-372.9 266,-297.68 342.43,-236.76 386.76,-272.68 484.5,-272.68 484.5,-272.68 484.5,-272.68 658.5,-272.68 768.16,-272.68 896.72,-272.21 966.04,-271.91"/>
<polygon fill="#757575" stroke="#757575" points="966.25,-275.41 976.23,-271.87 966.22,-268.41 966.25,-275.41"/>
</g>
<!-- src/gameState.js -->
<g id="node5" class="node">
<title>src/gameState.js</title>
<path fill="none" stroke="#cfffac" d="M2063.33,-763.18C2063.33,-763.18 1960.67,-763.18 1960.67,-763.18 1956.83,-763.18 1953,-759.35 1953,-755.52 1953,-755.52 1953,-747.85 1953,-747.85 1953,-744.02 1956.83,-740.18 1960.67,-740.18 1960.67,-740.18 2063.33,-740.18 2063.33,-740.18 2067.17,-740.18 2071,-744.02 2071,-747.85 2071,-747.85 2071,-755.52 2071,-755.52 2071,-759.35 2067.17,-763.18 2063.33,-763.18"/>
<text text-anchor="middle" x="2012" y="-747.98" font-family="Arial" font-size="14.00" fill="#cfffac">src/gameState.js</text>
</g>
<!-- src/gameManager.js&#45;&gt;src/gameState.js -->
<g id="edge39" class="edge">
<title>src/gameManager.js&#45;&gt;src/gameState.js</title>
<path fill="none" stroke="#757575" d="M161.81,-583.93C165.51,-537.75 184.42,-366.02 266,-258.68 335.93,-166.67 368.92,-117.68 484.5,-117.68 484.5,-117.68 484.5,-117.68 1018.5,-117.68 1054.18,-117.68 1619.06,-203.44 1654,-210.68 1772.55,-235.27 1834.27,-193.28 1917,-281.68 1979.38,-348.34 2003.88,-646 2009.61,-729.71"/>
<polygon fill="#757575" stroke="#757575" points="2006.13,-730.11 2010.28,-739.86 2013.11,-729.65 2006.13,-730.11"/>
</g>
<!-- src/levelCompleteScreen.js -->
<g id="node6" class="node">
<title>src/levelCompleteScreen.js</title>
<path fill="none" stroke="#cfffac" d="M1362.83,-590.18C1362.83,-590.18 1197.17,-590.18 1197.17,-590.18 1193.33,-590.18 1189.5,-586.35 1189.5,-582.52 1189.5,-582.52 1189.5,-574.85 1189.5,-574.85 1189.5,-571.02 1193.33,-567.18 1197.17,-567.18 1197.17,-567.18 1362.83,-567.18 1362.83,-567.18 1366.67,-567.18 1370.5,-571.02 1370.5,-574.85 1370.5,-574.85 1370.5,-582.52 1370.5,-582.52 1370.5,-586.35 1366.67,-590.18 1362.83,-590.18"/>
<text text-anchor="middle" x="1280" y="-574.98" font-family="Arial" font-size="14.00" fill="#cfffac">src/levelCompleteScreen.js</text>
</g>
<!-- src/gameManager.js&#45;&gt;src/levelCompleteScreen.js -->
<g id="edge41" class="edge">
<title>src/gameManager.js&#45;&gt;src/levelCompleteScreen.js</title>
<path fill="none" stroke="#757575" d="M173.75,-583.96C192.42,-567.56 229.03,-538.26 266,-524.68 357.71,-491 386.8,-500.68 484.5,-500.68 484.5,-500.68 484.5,-500.68 819.5,-500.68 961.46,-500.68 1008.15,-467.31 1138,-524.68 1158.13,-533.58 1154.4,-548.67 1174,-558.68 1177.57,-560.51 1181.28,-562.17 1185.09,-563.67"/>
<polygon fill="#757575" stroke="#757575" points="1184.14,-567.05 1194.73,-567.12 1186.5,-560.46 1184.14,-567.05"/>
</g>
<!-- src/ammo.js -->
<g id="node9" class="node">
<title>src/ammo.js</title>
<path fill="none" stroke="#c6c5fe" d="M1317.83,-784.18C1317.83,-784.18 1242.17,-784.18 1242.17,-784.18 1238.33,-784.18 1234.5,-780.35 1234.5,-776.52 1234.5,-776.52 1234.5,-768.85 1234.5,-768.85 1234.5,-765.02 1238.33,-761.18 1242.17,-761.18 1242.17,-761.18 1317.83,-761.18 1317.83,-761.18 1321.67,-761.18 1325.5,-765.02 1325.5,-768.85 1325.5,-768.85 1325.5,-776.52 1325.5,-776.52 1325.5,-780.35 1321.67,-784.18 1317.83,-784.18"/>
<text text-anchor="middle" x="1280" y="-768.98" font-family="Arial" font-size="14.00" fill="#c6c5fe">src/ammo.js</text>
</g>
<!-- src/gameManager.js&#45;&gt;src/ammo.js -->
<g id="edge35" class="edge">
<title>src/gameManager.js&#45;&gt;src/ammo.js</title>
<path fill="none" stroke="#757575" d="M173.74,-607.43C192.4,-623.86 228.99,-653.2 266,-666.68 444.96,-731.89 1040.07,-762.41 1224.22,-770.45"/>
<polygon fill="#757575" stroke="#757575" points="1224.07,-773.95 1234.21,-770.88 1224.37,-766.96 1224.07,-773.95"/>
</g>
<!-- src/background.js -->
<g id="node11" class="node">
<title>src/background.js</title>
<path fill="none" stroke="#cfffac" d="M1856.83,-1208.18C1856.83,-1208.18 1750.17,-1208.18 1750.17,-1208.18 1746.33,-1208.18 1742.5,-1204.35 1742.5,-1200.52 1742.5,-1200.52 1742.5,-1192.85 1742.5,-1192.85 1742.5,-1189.02 1746.33,-1185.18 1750.17,-1185.18 1750.17,-1185.18 1856.83,-1185.18 1856.83,-1185.18 1860.67,-1185.18 1864.5,-1189.02 1864.5,-1192.85 1864.5,-1192.85 1864.5,-1200.52 1864.5,-1200.52 1864.5,-1204.35 1860.67,-1208.18 1856.83,-1208.18"/>
<text text-anchor="middle" x="1803.5" y="-1192.98" font-family="Arial" font-size="14.00" fill="#cfffac">src/background.js</text>
</g>
<!-- src/gameManager.js&#45;&gt;src/background.js -->
<g id="edge36" class="edge">
<title>src/gameManager.js&#45;&gt;src/background.js</title>
<path fill="none" stroke="#757575" d="M161.77,-607.55C166.86,-683.59 197.76,-1102.57 266,-1207.68 329.6,-1305.64 367.7,-1353.68 484.5,-1353.68 484.5,-1353.68 484.5,-1353.68 819.5,-1353.68 1179.83,-1353.68 1605.26,-1249.54 1750.74,-1210.89"/>
<polygon fill="#757575" stroke="#757575" points="1751.97,-1214.19 1760.73,-1208.23 1750.16,-1207.43 1751.97,-1214.19"/>
</g>
<!-- src/music.js -->
<g id="node13" class="node">
<title>src/music.js</title>
<path fill="none" stroke="#cfffac" d="M1839.83,-453.18C1839.83,-453.18 1767.17,-453.18 1767.17,-453.18 1763.33,-453.18 1759.5,-449.35 1759.5,-445.52 1759.5,-445.52 1759.5,-437.85 1759.5,-437.85 1759.5,-434.02 1763.33,-430.18 1767.17,-430.18 1767.17,-430.18 1839.83,-430.18 1839.83,-430.18 1843.67,-430.18 1847.5,-434.02 1847.5,-437.85 1847.5,-437.85 1847.5,-445.52 1847.5,-445.52 1847.5,-449.35 1843.67,-453.18 1839.83,-453.18"/>
<text text-anchor="middle" x="1803.5" y="-437.98" font-family="Arial" font-size="14.00" fill="#cfffac">src/music.js</text>
</g>
<!-- src/gameManager.js&#45;&gt;src/music.js -->
<g id="edge42" class="edge">
<title>src/gameManager.js&#45;&gt;src/music.js</title>
<path fill="none" stroke="#757575" d="M166.87,-583.84C194.42,-530.09 316.72,-311.68 484.5,-311.68 484.5,-311.68 484.5,-311.68 819.5,-311.68 1004.96,-311.68 1480.22,-255.91 1654,-320.68 1710.72,-341.82 1761.86,-394.08 1786.68,-422.51"/>
<polygon fill="#757575" stroke="#757575" points="1784.08,-424.85 1793.24,-430.18 1789.4,-420.3 1784.08,-424.85"/>
</g>
<!-- src/rendering/Helpers.js -->
<g id="node15" class="node">
<title>src/rendering/Helpers.js</title>
<path fill="none" stroke="#cfffac" d="M1875.33,-977.18C1875.33,-977.18 1731.67,-977.18 1731.67,-977.18 1727.83,-977.18 1724,-973.35 1724,-969.52 1724,-969.52 1724,-961.85 1724,-961.85 1724,-958.02 1727.83,-954.18 1731.67,-954.18 1731.67,-954.18 1875.33,-954.18 1875.33,-954.18 1879.17,-954.18 1883,-958.02 1883,-961.85 1883,-961.85 1883,-969.52 1883,-969.52 1883,-973.35 1879.17,-977.18 1875.33,-977.18"/>
<text text-anchor="middle" x="1803.5" y="-961.98" font-family="Arial" font-size="14.00" fill="#cfffac">src/rendering/Helpers.js</text>
</g>
<!-- src/gameManager.js&#45;&gt;src/rendering/Helpers.js -->
<g id="edge44" class="edge">
<title>src/gameManager.js&#45;&gt;src/rendering/Helpers.js</title>
<path fill="none" stroke="#757575" d="M160.95,-607.23C161.22,-696.85 174.9,-1277.68 484.5,-1277.68 484.5,-1277.68 484.5,-1277.68 819.5,-1277.68 1202.17,-1277.68 1310.82,-1234.99 1654,-1065.68 1701.74,-1042.13 1752.08,-1005.33 1780.16,-983.55"/>
<polygon fill="#757575" stroke="#757575" points="1782.42,-986.23 1788.13,-977.3 1778.1,-980.71 1782.42,-986.23"/>
</g>
<!-- src/scores/scores.js -->
<g id="node16" class="node">
<title>src/scores/scores.js</title>
<path fill="none" stroke="#c6c5fe" d="M1597.83,-744.18C1597.83,-744.18 1478.17,-744.18 1478.17,-744.18 1474.33,-744.18 1470.5,-740.35 1470.5,-736.52 1470.5,-736.52 1470.5,-728.85 1470.5,-728.85 1470.5,-725.02 1474.33,-721.18 1478.17,-721.18 1478.17,-721.18 1597.83,-721.18 1597.83,-721.18 1601.67,-721.18 1605.5,-725.02 1605.5,-728.85 1605.5,-728.85 1605.5,-736.52 1605.5,-736.52 1605.5,-740.35 1601.67,-744.18 1597.83,-744.18"/>
<text text-anchor="middle" x="1538" y="-728.98" font-family="Arial" font-size="14.00" fill="#c6c5fe">src/scores/scores.js</text>
</g>
<!-- src/gameManager.js&#45;&gt;src/scores/scores.js -->
<g id="edge45" class="edge">
<title>src/gameManager.js&#45;&gt;src/scores/scores.js</title>
<path fill="none" stroke="#757575" d="M230.18,-602.57C462.81,-625.73 1215.91,-700.71 1459.92,-725.01"/>
<polygon fill="#757575" stroke="#757575" points="1459.82,-728.51 1470.12,-726.02 1460.51,-721.55 1459.82,-728.51"/>
</g>
<!-- src/enemy/enemy.js -->
<g id="node18" class="node">
<title>src/enemy/enemy.js</title>
<path fill="none" stroke="#c6c5fe" d="M1598.83,-703.18C1598.83,-703.18 1477.17,-703.18 1477.17,-703.18 1473.33,-703.18 1469.5,-699.35 1469.5,-695.52 1469.5,-695.52 1469.5,-687.85 1469.5,-687.85 1469.5,-684.02 1473.33,-680.18 1477.17,-680.18 1477.17,-680.18 1598.83,-680.18 1598.83,-680.18 1602.67,-680.18 1606.5,-684.02 1606.5,-687.85 1606.5,-687.85 1606.5,-695.52 1606.5,-695.52 1606.5,-699.35 1602.67,-703.18 1598.83,-703.18"/>
<text text-anchor="middle" x="1538" y="-687.98" font-family="Arial" font-size="14.00" fill="#c6c5fe">src/enemy/enemy.js</text>
</g>
<!-- src/gameManager.js&#45;&gt;src/enemy/enemy.js -->
<g id="edge37" class="edge">
<title>src/gameManager.js&#45;&gt;src/enemy/enemy.js</title>
<path fill="none" stroke="#757575" d="M200.45,-584.15C260.99,-567.49 380.71,-538.68 484.5,-538.68 484.5,-538.68 484.5,-538.68 819.5,-538.68 1093.72,-538.68 1154.1,-613.13 1422,-671.68 1434.03,-674.31 1446.83,-676.82 1459.35,-679.11"/>
<polygon fill="#757575" stroke="#757575" points="1458.85,-682.58 1469.31,-680.91 1460.09,-675.69 1458.85,-682.58"/>
</g>
<!-- src/enemy/enemyManager.js -->
<g id="node22" class="node">
<title>src/enemy/enemyManager.js</title>
<path fill="none" stroke="#c6c5fe" d="M1105.33,-471.18C1105.33,-471.18 929.67,-471.18 929.67,-471.18 925.83,-471.18 922,-467.35 922,-463.52 922,-463.52 922,-455.85 922,-455.85 922,-452.02 925.83,-448.18 929.67,-448.18 929.67,-448.18 1105.33,-448.18 1105.33,-448.18 1109.17,-448.18 1113,-452.02 1113,-455.85 1113,-455.85 1113,-463.52 1113,-463.52 1113,-467.35 1109.17,-471.18 1105.33,-471.18"/>
<text text-anchor="middle" x="1017.5" y="-455.98" font-family="Arial" font-size="14.00" fill="#c6c5fe">src/enemy/enemyManager.js</text>
</g>
<!-- src/gameManager.js&#45;&gt;src/enemy/enemyManager.js -->
<g id="edge38" class="edge">
<title>src/gameManager.js&#45;&gt;src/enemy/enemyManager.js</title>
<path fill="none" stroke="#757575" d="M168.23,-583.95C183.21,-560.79 220.12,-509.49 266,-486.68 353.58,-443.15 386.7,-460.68 484.5,-460.68 484.5,-460.68 484.5,-460.68 658.5,-460.68 743.66,-460.68 840.21,-460.4 911.56,-460.13"/>
<polygon fill="#757575" stroke="#757575" points="911.92,-463.63 921.9,-460.09 911.89,-456.63 911.92,-463.63"/>
</g>
<!-- src/keyboard.js -->
<g id="node23" class="node">
<title>src/keyboard.js</title>
<path fill="none" stroke="#c6c5fe" d="M531.33,-1133.18C531.33,-1133.18 439.67,-1133.18 439.67,-1133.18 435.83,-1133.18 432,-1129.35 432,-1125.52 432,-1125.52 432,-1117.85 432,-1117.85 432,-1114.02 435.83,-1110.18 439.67,-1110.18 439.67,-1110.18 531.33,-1110.18 531.33,-1110.18 535.17,-1110.18 539,-1114.02 539,-1117.85 539,-1117.85 539,-1125.52 539,-1125.52 539,-1129.35 535.17,-1133.18 531.33,-1133.18"/>
<text text-anchor="middle" x="485.5" y="-1117.98" font-family="Arial" font-size="14.00" fill="#c6c5fe">src/keyboard.js</text>
</g>
<!-- src/gameManager.js&#45;&gt;src/keyboard.js -->
<g id="edge40" class="edge">
<title>src/gameManager.js&#45;&gt;src/keyboard.js</title>
<path fill="none" stroke="#757575" d="M162.3,-607.34C167.86,-653.22 192.79,-824.58 266,-941.68 319.35,-1027.01 349.16,-1038.54 432,-1095.68 437.04,-1099.16 442.62,-1102.44 448.19,-1105.42"/>
<polygon fill="#757575" stroke="#757575" points="446.99,-1108.74 457.49,-1110.15 450.16,-1102.5 446.99,-1108.74"/>
</g>
<!-- src/player/Player.js -->
<g id="node24" class="node">
<title>src/player/Player.js</title>
<path fill="none" stroke="#c6c5fe" d="M388.33,-932.18C388.33,-932.18 273.67,-932.18 273.67,-932.18 269.83,-932.18 266,-928.35 266,-924.52 266,-924.52 266,-916.85 266,-916.85 266,-913.02 269.83,-909.18 273.67,-909.18 273.67,-909.18 388.33,-909.18 388.33,-909.18 392.17,-909.18 396,-913.02 396,-916.85 396,-916.85 396,-924.52 396,-924.52 396,-928.35 392.17,-932.18 388.33,-932.18"/>
<text text-anchor="middle" x="331" y="-916.98" font-family="Arial" font-size="14.00" fill="#c6c5fe">src/player/Player.js</text>
</g>
<!-- src/gameManager.js&#45;&gt;src/player/Player.js -->
<g id="edge43" class="edge">
<title>src/gameManager.js&#45;&gt;src/player/Player.js</title>
<path fill="none" stroke="#757575" d="M161.76,-607.45C165.21,-651.37 183.07,-807.66 266,-894.68 269.53,-898.39 273.66,-901.58 278.09,-904.32"/>
<polygon fill="#757575" stroke="#757575" points="276.45,-907.41 286.91,-909.08 279.77,-901.25 276.45,-907.41"/>
</g>
<!-- src/step.js -->
<g id="node25" class="node">
<title>src/step.js</title>
<path fill="none" stroke="#c6c5fe" d="M849.33,-938.18C849.33,-938.18 787.67,-938.18 787.67,-938.18 783.83,-938.18 780,-934.35 780,-930.52 780,-930.52 780,-922.85 780,-922.85 780,-919.02 783.83,-915.18 787.67,-915.18 787.67,-915.18 849.33,-915.18 849.33,-915.18 853.17,-915.18 857,-919.02 857,-922.85 857,-922.85 857,-930.52 857,-930.52 857,-934.35 853.17,-938.18 849.33,-938.18"/>
<text text-anchor="middle" x="818.5" y="-922.98" font-family="Arial" font-size="14.00" fill="#c6c5fe">src/step.js</text>
</g>
<!-- src/gameManager.js&#45;&gt;src/step.js -->
<g id="edge46" class="edge">
<title>src/gameManager.js&#45;&gt;src/step.js</title>
<path fill="none" stroke="#757575" d="M169.56,-607.42C186.03,-629.26 224.18,-676.47 266,-704.68 434.56,-818.37 670.25,-888.54 769.96,-914.85"/>
<polygon fill="#757575" stroke="#757575" points="769.18,-918.27 779.74,-917.41 770.95,-911.5 769.18,-918.27"/>
</g>
<!-- src/startScreen.js&#45;&gt;src/music.js -->
<g id="edge64" class="edge">
<title>src/startScreen.js&#45;&gt;src/music.js</title>
<path fill="none" stroke="#757575" d="M345.15,-89.26C387.24,-125.07 523.68,-231.68 656.5,-231.68 656.5,-231.68 656.5,-231.68 1281,-231.68 1447.12,-231.68 1506.7,-178.88 1654,-255.68 1724.93,-292.67 1773.51,-380.08 1792.97,-420.51"/>
<polygon fill="#757575" stroke="#757575" points="1789.88,-422.14 1797.29,-429.71 1796.21,-419.17 1789.88,-422.14"/>
</g>
<!-- src/Boss.js&#45;&gt;src/gameState.js -->
<g id="edge3" class="edge">
<title>src/Boss.js&#45;&gt;src/gameState.js</title>
<path fill="none" stroke="#757575" d="M1034.37,-260.01C1131.81,-189.83 1653.48,164.49 1917,-92.68 2010.27,-183.71 2012.16,-625.87 2011.29,-729.79"/>
<polygon fill="#757575" stroke="#757575" points="2007.78,-729.97 2011.18,-740.01 2014.78,-730.05 2007.78,-729.97"/>
</g>
<!-- src/Boss.js&#45;&gt;src/levelCompleteScreen.js -->
<g id="edge4" class="edge">
<title>src/Boss.js&#45;&gt;src/levelCompleteScreen.js</title>
<path fill="none" stroke="#757575" d="M1028.97,-283.45C1051.82,-309.69 1106.63,-375.73 1138,-439.68 1162.33,-489.29 1132.92,-521.73 1174,-558.68 1175.99,-560.47 1178.09,-562.13 1180.28,-563.65"/>
<polygon fill="#757575" stroke="#757575" points="1178.76,-566.82 1189.15,-568.92 1182.34,-560.8 1178.76,-566.82"/>
</g>
<!-- src/weapons/enemyRocketAtack.js -->
<g id="node7" class="node">
<title>src/weapons/enemyRocketAtack.js</title>
<path fill="none" stroke="#cfffac" d="M1909.33,-125.18C1909.33,-125.18 1697.67,-125.18 1697.67,-125.18 1693.83,-125.18 1690,-121.35 1690,-117.52 1690,-117.52 1690,-109.85 1690,-109.85 1690,-106.02 1693.83,-102.18 1697.67,-102.18 1697.67,-102.18 1909.33,-102.18 1909.33,-102.18 1913.17,-102.18 1917,-106.02 1917,-109.85 1917,-109.85 1917,-117.52 1917,-117.52 1917,-121.35 1913.17,-125.18 1909.33,-125.18"/>
<text text-anchor="middle" x="1803.5" y="-109.98" font-family="Arial" font-size="14.00" fill="#cfffac">src/weapons/enemyRocketAtack.js</text>
</g>
<!-- src/Boss.js&#45;&gt;src/weapons/enemyRocketAtack.js -->
<g id="edge5" class="edge">
<title>src/Boss.js&#45;&gt;src/weapons/enemyRocketAtack.js</title>
<path fill="none" stroke="#757575" d="M1058.7,-264.7C1143.07,-249.38 1335.04,-210.92 1386,-169.68 1412.89,-147.92 1392.42,-118.61 1422,-100.68 1529.83,-35.31 1688.26,-74.59 1761.99,-98.85"/>
<polygon fill="#757575" stroke="#757575" points="1761.22,-102.29 1771.81,-102.16 1763.46,-95.65 1761.22,-102.29"/>
</g>
<!-- src/weapons/gatling.js -->
<g id="node8" class="node">
<title>src/weapons/gatling.js</title>
<path fill="none" stroke="#c6c5fe" d="M1604.83,-662.18C1604.83,-662.18 1471.17,-662.18 1471.17,-662.18 1467.33,-662.18 1463.5,-658.35 1463.5,-654.52 1463.5,-654.52 1463.5,-646.85 1463.5,-646.85 1463.5,-643.02 1467.33,-639.18 1471.17,-639.18 1471.17,-639.18 1604.83,-639.18 1604.83,-639.18 1608.67,-639.18 1612.5,-643.02 1612.5,-646.85 1612.5,-646.85 1612.5,-654.52 1612.5,-654.52 1612.5,-658.35 1608.67,-662.18 1604.83,-662.18"/>
<text text-anchor="middle" x="1538" y="-646.98" font-family="Arial" font-size="14.00" fill="#c6c5fe">src/weapons/gatling.js</text>
</g>
<!-- src/Boss.js&#45;&gt;src/weapons/gatling.js -->
<g id="edge6" class="edge">
<title>src/Boss.js&#45;&gt;src/weapons/gatling.js</title>
<path fill="none" stroke="#757575" d="M1051.14,-283.2C1118.75,-308.13 1276.87,-372.18 1386,-461.68 1448,-512.54 1501.52,-592.67 1524.71,-630.12"/>
<polygon fill="#757575" stroke="#757575" points="1521.99,-632.37 1530.19,-639.08 1527.96,-628.72 1521.99,-632.37"/>
</g>
<!-- src/weapons/gatling.js&#45;&gt;src/gameState.js -->
<g id="edge77" class="edge">
<title>src/weapons/gatling.js&#45;&gt;src/gameState.js</title>
<path fill="none" stroke="#757575" d="M1612.55,-652.1C1690.06,-655.45 1814.83,-666.15 1917,-699.68 1941.86,-707.84 1967.7,-722.67 1985.99,-734.42"/>
<polygon fill="#757575" stroke="#757575" points="1984.29,-737.49 1994.57,-740.06 1988.13,-731.64 1984.29,-737.49"/>
</g>
<!-- src/weapons/gatling.js&#45;&gt;src/music.js -->
<g id="edge78" class="edge">
<title>src/weapons/gatling.js&#45;&gt;src/music.js</title>
<path fill="none" stroke="#757575" d="M1553.54,-639.15C1597.08,-604.61 1726.64,-501.85 1779.58,-459.86"/>
<polygon fill="#757575" stroke="#757575" points="1782.02,-462.39 1787.68,-453.44 1777.67,-456.91 1782.02,-462.39"/>
</g>
<!-- src/ammo.js&#45;&gt;src/weapons/gatling.js -->
<g id="edge7" class="edge">
<title>src/ammo.js&#45;&gt;src/weapons/gatling.js</title>
<path fill="none" stroke="#757575" d="M1303.79,-760.97C1325.81,-749.16 1359.63,-729.71 1386,-708.68 1403.94,-694.38 1401.75,-682.48 1422,-671.68 1431.67,-666.53 1442.37,-662.61 1453.24,-659.65"/>
<polygon fill="#757575" stroke="#757575" points="1454.38,-662.97 1463.25,-657.18 1452.7,-656.17 1454.38,-662.97"/>
</g>
<!-- src/weapons/rocket.js -->
<g id="node10" class="node">
<title>src/weapons/rocket.js</title>
<path fill="none" stroke="#c6c5fe" d="M1603.33,-1056.18C1603.33,-1056.18 1472.67,-1056.18 1472.67,-1056.18 1468.83,-1056.18 1465,-1052.35 1465,-1048.52 1465,-1048.52 1465,-1040.85 1465,-1040.85 1465,-1037.02 1468.83,-1033.18 1472.67,-1033.18 1472.67,-1033.18 1603.33,-1033.18 1603.33,-1033.18 1607.17,-1033.18 1611,-1037.02 1611,-1040.85 1611,-1040.85 1611,-1048.52 1611,-1048.52 1611,-1052.35 1607.17,-1056.18 1603.33,-1056.18"/>
<text text-anchor="middle" x="1538" y="-1040.98" font-family="Arial" font-size="14.00" fill="#c6c5fe">src/weapons/rocket.js</text>
</g>
<!-- src/ammo.js&#45;&gt;src/weapons/rocket.js -->
<g id="edge8" class="edge">
<title>src/ammo.js&#45;&gt;src/weapons/rocket.js</title>
<path fill="none" stroke="#757575" d="M1292,-784.37C1331.96,-826.83 1469.7,-973.17 1519.15,-1025.71"/>
<polygon fill="#757575" stroke="#757575" points="1516.64,-1028.15 1526.04,-1033.04 1521.74,-1023.36 1516.64,-1028.15"/>
</g>
<!-- src/weapons/rocket.js&#45;&gt;src/rendering/Helpers.js -->
<g id="edge81" class="edge">
<title>src/weapons/rocket.js&#45;&gt;src/rendering/Helpers.js</title>
<path fill="none" stroke="#757575" d="M1577.6,-1033.11C1624.37,-1019.09 1703.21,-995.45 1754.03,-980.21"/>
<polygon fill="#757575" stroke="#757575" points="1755.23,-983.51 1763.8,-977.28 1753.22,-976.8 1755.23,-983.51"/>
</g>
<!-- src/collisions/collisionHandlers.js -->
<g id="node12" class="node">
<title>src/collisions/collisionHandlers.js</title>
<path fill="none" stroke="#c6c5fe" d="M1378.33,-940.18C1378.33,-940.18 1181.67,-940.18 1181.67,-940.18 1177.83,-940.18 1174,-936.35 1174,-932.52 1174,-932.52 1174,-924.85 1174,-924.85 1174,-921.02 1177.83,-917.18 1181.67,-917.18 1181.67,-917.18 1378.33,-917.18 1378.33,-917.18 1382.17,-917.18 1386,-921.02 1386,-924.85 1386,-924.85 1386,-932.52 1386,-932.52 1386,-936.35 1382.17,-940.18 1378.33,-940.18"/>
<text text-anchor="middle" x="1280" y="-924.98" font-family="Arial" font-size="14.00" fill="#c6c5fe">src/collisions/collisionHandlers.js</text>
</g>
<!-- src/collisions/collisionHandlers.js&#45;&gt;src/gameState.js -->
<g id="edge9" class="edge">
<title>src/collisions/collisionHandlers.js&#45;&gt;src/gameState.js</title>
<path fill="none" stroke="#757575" d="M1386.12,-934.08C1518.17,-936.28 1747.9,-924.63 1917,-832.68 1946.87,-816.44 1975.64,-789.44 1993.31,-771.12"/>
<polygon fill="#757575" stroke="#757575" points="1996.29,-773.05 2000.61,-763.38 1991.2,-768.25 1996.29,-773.05"/>
</g>
<!-- src/collisions/collisionHandlers.js&#45;&gt;src/weapons/gatling.js -->
<g id="edge14" class="edge">
<title>src/collisions/collisionHandlers.js&#45;&gt;src/weapons/gatling.js</title>
<path fill="none" stroke="#757575" d="M1298.11,-917.02C1321.68,-900 1363.76,-866.07 1386,-826.68 1420.77,-765.1 1370.82,-720.49 1422,-671.68 1430.78,-663.31 1441.73,-657.7 1453.35,-654.03"/>
<polygon fill="#757575" stroke="#757575" points="1454.49,-657.35 1463.24,-651.37 1452.68,-650.58 1454.49,-657.35"/>
</g>
<!-- src/collisions/collisionHandlers.js&#45;&gt;src/weapons/rocket.js -->
<g id="edge15" class="edge">
<title>src/collisions/collisionHandlers.js&#45;&gt;src/weapons/rocket.js</title>
<path fill="none" stroke="#757575" d="M1306.48,-940.23C1352.56,-961.11 1449.78,-1005.16 1502.03,-1028.84"/>
<polygon fill="#757575" stroke="#757575" points="1500.69,-1032.07 1511.24,-1033.01 1503.58,-1025.69 1500.69,-1032.07"/>
</g>
<!-- src/collisions/collisionHandlers.js&#45;&gt;src/music.js -->
<g id="edge10" class="edge">
<title>src/collisions/collisionHandlers.js&#45;&gt;src/music.js</title>
<path fill="none" stroke="#757575" d="M1305.05,-917.02C1327.38,-905.53 1360.88,-886.55 1386,-864.68 1405.06,-848.09 1400.91,-834.59 1422,-820.68 1511.59,-761.59 1572.18,-823.14 1654,-753.68 1748.32,-673.61 1787.05,-520.04 1798.54,-463.38"/>
<polygon fill="#757575" stroke="#757575" points="1802.01,-463.87 1800.48,-453.39 1795.14,-462.54 1802.01,-463.87"/>
</g>
<!-- src/rendering/Explosion.js -->
<g id="node14" class="node">
<title>src/rendering/Explosion.js</title>
<path fill="none" stroke="#cfffac" d="M1881.33,-823.18C1881.33,-823.18 1725.67,-823.18 1725.67,-823.18 1721.83,-823.18 1718,-819.35 1718,-815.52 1718,-815.52 1718,-807.85 1718,-807.85 1718,-804.02 1721.83,-800.18 1725.67,-800.18 1725.67,-800.18 1881.33,-800.18 1881.33,-800.18 1885.17,-800.18 1889,-804.02 1889,-807.85 1889,-807.85 1889,-815.52 1889,-815.52 1889,-819.35 1885.17,-823.18 1881.33,-823.18"/>
<text text-anchor="middle" x="1803.5" y="-807.98" font-family="Arial" font-size="14.00" fill="#cfffac">src/rendering/Explosion.js</text>
</g>
<!-- src/collisions/collisionHandlers.js&#45;&gt;src/rendering/Explosion.js -->
<g id="edge11" class="edge">
<title>src/collisions/collisionHandlers.js&#45;&gt;src/rendering/Explosion.js</title>
<path fill="none" stroke="#757575" d="M1349.58,-917.11C1362.13,-913.51 1374.79,-908.8 1386,-902.68 1405.32,-892.13 1402.21,-878.31 1422,-868.68 1470.95,-844.87 1611.8,-828.27 1707.69,-819.36"/>
<polygon fill="#757575" stroke="#757575" points="1708.05,-822.84 1717.69,-818.44 1707.42,-815.87 1708.05,-822.84"/>
</g>
<!-- src/collisions/collisionHandlers.js&#45;&gt;src/rendering/Helpers.js -->
<g id="edge12" class="edge">
<title>src/collisions/collisionHandlers.js&#45;&gt;src/rendering/Helpers.js</title>
<path fill="none" stroke="#757575" d="M1386.06,-939.56C1398.17,-940.69 1410.35,-941.75 1422,-942.68 1521.75,-950.65 1636.42,-957.23 1713.57,-961.28"/>
<polygon fill="#757575" stroke="#757575" points="1713.57,-964.78 1723.73,-961.81 1713.93,-957.79 1713.57,-964.78"/>
</g>
<!-- src/collisions/collisionHandlers.js&#45;&gt;src/scores/scores.js -->
<g id="edge13" class="edge">
<title>src/collisions/collisionHandlers.js&#45;&gt;src/scores/scores.js</title>
<path fill="none" stroke="#757575" d="M1311.23,-917.08C1334.67,-906.64 1366.38,-889.17 1386,-864.68 1417.11,-825.85 1385.02,-791.97 1422,-758.68 1432.82,-748.95 1446.49,-742.61 1460.61,-738.54"/>
<polygon fill="#757575" stroke="#757575" points="1461.58,-741.91 1470.42,-736.07 1459.87,-735.12 1461.58,-741.91"/>
</g>
<!-- src/scores/currentGameScore.js -->
<g id="node31" class="node">
<title>src/scores/currentGameScore.js</title>
<path fill="none" stroke="#c6c5fe" d="M1901.33,-763.18C1901.33,-763.18 1705.67,-763.18 1705.67,-763.18 1701.83,-763.18 1698,-759.35 1698,-755.52 1698,-755.52 1698,-747.85 1698,-747.85 1698,-744.02 1701.83,-740.18 1705.67,-740.18 1705.67,-740.18 1901.33,-740.18 1901.33,-740.18 1905.17,-740.18 1909,-744.02 1909,-747.85 1909,-747.85 1909,-755.52 1909,-755.52 1909,-759.35 1905.17,-763.18 1901.33,-763.18"/>
<text text-anchor="middle" x="1803.5" y="-747.98" font-family="Arial" font-size="14.00" fill="#c6c5fe">src/scores/currentGameScore.js</text>
</g>
<!-- src/scores/scores.js&#45;&gt;src/scores/currentGameScore.js -->
<g id="edge63" class="edge">
<title>src/scores/scores.js&#45;&gt;src/scores/currentGameScore.js</title>
<path fill="none" stroke="#757575" d="M1605.83,-737.5C1630.68,-739.29 1659.64,-741.38 1687.57,-743.4"/>
<polygon fill="#757575" stroke="#757575" points="1687.58,-746.9 1697.81,-744.13 1688.09,-739.92 1687.58,-746.9"/>
</g>
<!-- src/collisions/collisions.js -->
<g id="node17" class="node">
<title>src/collisions/collisions.js</title>
<path fill="none" stroke="#c6c5fe" d="M1092.33,-979.18C1092.33,-979.18 942.67,-979.18 942.67,-979.18 938.83,-979.18 935,-975.35 935,-971.52 935,-971.52 935,-963.85 935,-963.85 935,-960.02 938.83,-956.18 942.67,-956.18 942.67,-956.18 1092.33,-956.18 1092.33,-956.18 1096.17,-956.18 1100,-960.02 1100,-963.85 1100,-963.85 1100,-971.52 1100,-971.52 1100,-975.35 1096.17,-979.18 1092.33,-979.18"/>
<text text-anchor="middle" x="1017.5" y="-963.98" font-family="Arial" font-size="14.00" fill="#c6c5fe">src/collisions/collisions.js</text>
</g>
<!-- src/collisions/collisions.js&#45;&gt;src/gameState.js -->
<g id="edge17" class="edge">
<title>src/collisions/collisions.js&#45;&gt;src/gameState.js</title>
<path fill="none" stroke="#757575" d="M1100.2,-971.95C1315.37,-982.86 1883.53,-1009.34 1917,-986.68 1989.76,-937.42 2006.21,-821.73 2009.92,-773.45"/>
<polygon fill="#757575" stroke="#757575" points="2013.43,-773.41 2010.59,-763.2 2006.44,-772.95 2013.43,-773.41"/>
</g>
<!-- src/collisions/collisions.js&#45;&gt;src/weapons/gatling.js -->
<g id="edge18" class="edge">
<title>src/collisions/collisions.js&#45;&gt;src/weapons/gatling.js</title>
<path fill="none" stroke="#757575" d="M1100.29,-961.39C1113.39,-958.33 1126.43,-953.93 1138,-947.68 1158.75,-936.46 1155.38,-923.17 1174,-908.68 1258.6,-842.86 1318.57,-877.01 1386,-793.68 1421.56,-749.74 1379.96,-709.48 1422,-671.68 1430.96,-663.63 1441.95,-658.18 1453.55,-654.56"/>
<polygon fill="#757575" stroke="#757575" points="1454.64,-657.89 1463.4,-651.93 1452.84,-651.13 1454.64,-657.89"/>
</g>
<!-- src/collisions/collisions.js&#45;&gt;src/weapons/rocket.js -->
<g id="edge19" class="edge">
<title>src/collisions/collisions.js&#45;&gt;src/weapons/rocket.js</title>
<path fill="none" stroke="#757575" d="M1096.12,-979.21C1192.54,-993.53 1356.3,-1017.85 1454.8,-1032.47"/>
<polygon fill="#757575" stroke="#757575" points="1454.3,-1035.94 1464.71,-1033.95 1455.33,-1029.01 1454.3,-1035.94"/>
</g>
<!-- src/collisions/collisions.js&#45;&gt;src/collisions/collisionHandlers.js -->
<g id="edge16" class="edge">
<title>src/collisions/collisions.js&#45;&gt;src/collisions/collisionHandlers.js</title>
<path fill="none" stroke="#757575" d="M1095.6,-956.14C1125.93,-951.6 1160.89,-946.36 1192.1,-941.69"/>
<polygon fill="#757575" stroke="#757575" points="1192.73,-945.14 1202.1,-940.2 1191.69,-938.21 1192.73,-945.14"/>
</g>
<!-- src/enemy/enemy.js&#45;&gt;src/gameState.js -->
<g id="edge20" class="edge">
<title>src/enemy/enemy.js&#45;&gt;src/gameState.js</title>
<path fill="none" stroke="#757575" d="M1606.54,-696.69C1682.37,-702.81 1808.97,-714.52 1917,-731.68 1928.22,-733.46 1940.11,-735.71 1951.53,-738.05"/>
<polygon fill="#757575" stroke="#757575" points="1950.92,-741.5 1961.42,-740.12 1952.35,-734.65 1950.92,-741.5"/>
</g>
<!-- src/enemy/enemy.js&#45;&gt;src/music.js -->
<g id="edge21" class="edge">
<title>src/enemy/enemy.js&#45;&gt;src/music.js</title>
<path fill="none" stroke="#757575" d="M1606.66,-689.29C1623.16,-686.27 1640.06,-680.91 1654,-671.68 1732.86,-619.47 1778.85,-509.45 1795.42,-463.05"/>
<polygon fill="#757575" stroke="#757575" points="1798.79,-464.01 1798.76,-453.42 1792.18,-461.72 1798.79,-464.01"/>
</g>
<!-- src/enemy/enemy.js&#45;&gt;src/rendering/Explosion.js -->
<g id="edge22" class="edge">
<title>src/enemy/enemy.js&#45;&gt;src/rendering/Explosion.js</title>
<path fill="none" stroke="#757575" d="M1606.6,-694.36C1623.19,-697.52 1640.15,-703.09 1654,-712.68 1679.57,-730.38 1665.86,-753.08 1690,-772.68 1703.09,-783.31 1719.26,-791.13 1735.22,-796.84"/>
<polygon fill="#757575" stroke="#757575" points="1734.5,-800.29 1745.1,-800.14 1736.72,-793.65 1734.5,-800.29"/>
</g>
<!-- src/enemy/enemy.js&#45;&gt;src/rendering/Helpers.js -->
<g id="edge23" class="edge">
<title>src/enemy/enemy.js&#45;&gt;src/rendering/Helpers.js</title>
<path fill="none" stroke="#757575" d="M1606.58,-691.77C1623.75,-694.85 1640.99,-701.04 1654,-712.68 1695.49,-749.81 1663.46,-783.73 1690,-832.68 1714.84,-878.5 1757.22,-922.91 1782.27,-947.04"/>
<polygon fill="#757575" stroke="#757575" points="1780.09,-949.79 1789.75,-954.13 1784.91,-944.71 1780.09,-949.79"/>
</g>
<!-- src/enemy/enemyFactory.js -->
<g id="node19" class="node">
<title>src/enemy/enemyFactory.js</title>
<path fill="none" stroke="#c6c5fe" d="M1363.33,-549.18C1363.33,-549.18 1196.67,-549.18 1196.67,-549.18 1192.83,-549.18 1189,-545.35 1189,-541.52 1189,-541.52 1189,-533.85 1189,-533.85 1189,-530.02 1192.83,-526.18 1196.67,-526.18 1196.67,-526.18 1363.33,-526.18 1363.33,-526.18 1367.17,-526.18 1371,-530.02 1371,-533.85 1371,-533.85 1371,-541.52 1371,-541.52 1371,-545.35 1367.17,-549.18 1363.33,-549.18"/>
<text text-anchor="middle" x="1280" y="-533.98" font-family="Arial" font-size="14.00" fill="#c6c5fe">src/enemy/enemyFactory.js</text>
</g>
<!-- src/enemy/enemyFactory.js&#45;&gt;src/weapons/enemyRocketAtack.js -->
<g id="edge27" class="edge">
<title>src/enemy/enemyFactory.js&#45;&gt;src/weapons/enemyRocketAtack.js</title>
<path fill="none" stroke="#757575" d="M1284.67,-525.97C1305.14,-460.82 1404.9,-145.49 1422,-132.68 1461.5,-103.1 1584.23,-101.55 1679.74,-105.4"/>
<polygon fill="#757575" stroke="#757575" points="1679.63,-108.9 1689.77,-105.83 1679.93,-101.91 1679.63,-108.9"/>
</g>
<!-- src/enemy/enemyFactory.js&#45;&gt;src/weapons/gatling.js -->
<g id="edge28" class="edge">
<title>src/enemy/enemyFactory.js&#45;&gt;src/weapons/gatling.js</title>
<path fill="none" stroke="#757575" d="M1355.65,-549.24C1366.01,-551.82 1376.39,-554.93 1386,-558.68 1434.72,-577.71 1485.47,-612.16 1513.97,-633.08"/>
<polygon fill="#757575" stroke="#757575" points="1511.96,-635.94 1522.08,-639.1 1516.14,-630.33 1511.96,-635.94"/>
</g>
<!-- src/enemy/enemyFactory.js&#45;&gt;src/scores/scores.js -->
<g id="edge26" class="edge">
<title>src/enemy/enemyFactory.js&#45;&gt;src/scores/scores.js</title>
<path fill="none" stroke="#757575" d="M1371.18,-548.01C1376.58,-550.9 1381.59,-554.41 1386,-558.68 1436.5,-607.58 1370.89,-664.43 1422,-712.68 1432.6,-722.69 1446.31,-728.65 1460.56,-732.05"/>
<polygon fill="#757575" stroke="#757575" points="1459.99,-735.5 1470.48,-734.01 1461.35,-728.64 1459.99,-735.5"/>
</g>
<!-- src/enemy/enemyFactory.js&#45;&gt;src/enemy/enemy.js -->
<g id="edge24" class="edge">
<title>src/enemy/enemyFactory.js&#45;&gt;src/enemy/enemy.js</title>
<path fill="none" stroke="#757575" d="M1371.31,-548.67C1376.6,-551.41 1381.57,-554.72 1386,-558.68 1425.28,-593.83 1382.28,-637.03 1422,-671.68 1432.51,-680.85 1445.67,-686.53 1459.31,-689.94"/>
<polygon fill="#757575" stroke="#757575" points="1458.78,-693.41 1469.29,-692.04 1460.22,-686.56 1458.78,-693.41"/>
</g>
<!-- src/enemy/enemyManoeuvre.js -->
<g id="node20" class="node">
<title>src/enemy/enemyManoeuvre.js</title>
<path fill="none" stroke="#c6c5fe" d="M1633.33,-900.18C1633.33,-900.18 1442.67,-900.18 1442.67,-900.18 1438.83,-900.18 1435,-896.35 1435,-892.52 1435,-892.52 1435,-884.85 1435,-884.85 1435,-881.02 1438.83,-877.18 1442.67,-877.18 1442.67,-877.18 1633.33,-877.18 1633.33,-877.18 1637.17,-877.18 1641,-881.02 1641,-884.85 1641,-884.85 1641,-892.52 1641,-892.52 1641,-896.35 1637.17,-900.18 1633.33,-900.18"/>
<text text-anchor="middle" x="1538" y="-884.98" font-family="Arial" font-size="14.00" fill="#c6c5fe">src/enemy/enemyManoeuvre.js</text>
</g>
<!-- src/enemy/enemyFactory.js&#45;&gt;src/enemy/enemyManoeuvre.js -->
<g id="edge25" class="edge">
<title>src/enemy/enemyFactory.js&#45;&gt;src/enemy/enemyManoeuvre.js</title>
<path fill="none" stroke="#757575" d="M1371.41,-547.78C1376.75,-550.72 1381.69,-554.31 1386,-558.68 1447.85,-621.46 1384.14,-674.1 1422,-753.68 1444.78,-801.55 1488.94,-846.1 1515.42,-870.14"/>
<polygon fill="#757575" stroke="#757575" points="1513.23,-872.88 1523.02,-876.92 1517.89,-867.65 1513.23,-872.88"/>
</g>
<!-- src/weapons/groundEnemyAttack.js -->
<g id="node21" class="node">
<title>src/weapons/groundEnemyAttack.js</title>
<path fill="none" stroke="#c6c5fe" d="M1646.33,-165.18C1646.33,-165.18 1429.67,-165.18 1429.67,-165.18 1425.83,-165.18 1422,-161.35 1422,-157.52 1422,-157.52 1422,-149.85 1422,-149.85 1422,-146.02 1425.83,-142.18 1429.67,-142.18 1429.67,-142.18 1646.33,-142.18 1646.33,-142.18 1650.17,-142.18 1654,-146.02 1654,-149.85 1654,-149.85 1654,-157.52 1654,-157.52 1654,-161.35 1650.17,-165.18 1646.33,-165.18"/>
<text text-anchor="middle" x="1538" y="-149.98" font-family="Arial" font-size="14.00" fill="#c6c5fe">src/weapons/groundEnemyAttack.js</text>
</g>
<!-- src/enemy/enemyFactory.js&#45;&gt;src/weapons/groundEnemyAttack.js -->
<g id="edge29" class="edge">
<title>src/enemy/enemyFactory.js&#45;&gt;src/weapons/groundEnemyAttack.js</title>
<path fill="none" stroke="#757575" d="M1288.94,-525.77C1325.45,-471.01 1477.34,-243.18 1523.58,-173.81"/>
<polygon fill="#757575" stroke="#757575" points="1526.52,-175.72 1529.15,-165.46 1520.69,-171.84 1526.52,-175.72"/>
</g>
<!-- src/enemy/enemyManoeuvre.js&#45;&gt;src/background.js -->
<g id="edge33" class="edge">
<title>src/enemy/enemyManoeuvre.js&#45;&gt;src/background.js</title>
<path fill="none" stroke="#757575" d="M1549.01,-900.38C1588.79,-946.88 1735.99,-1118.94 1785.86,-1177.23"/>
<polygon fill="#757575" stroke="#757575" points="1783.32,-1179.65 1792.48,-1184.97 1788.64,-1175.1 1783.32,-1179.65"/>
</g>
<!-- src/weapons/groundEnemyAttack.js&#45;&gt;src/gameState.js -->
<g id="edge79" class="edge">
<title>src/weapons/groundEnemyAttack.js&#45;&gt;src/gameState.js</title>
<path fill="none" stroke="#757575" d="M1654.31,-146.51C1751.2,-143.12 1879.66,-145.7 1917,-179.68 2000.15,-255.34 2009.76,-634.61 2010.86,-729.92"/>
<polygon fill="#757575" stroke="#757575" points="2007.36,-730.13 2010.96,-740.1 2014.36,-730.06 2007.36,-730.13"/>
</g>
<!-- src/weapons/groundEnemyAttack.js&#45;&gt;src/weapons/enemyRocketAtack.js -->
<g id="edge80" class="edge">
<title>src/weapons/groundEnemyAttack.js&#45;&gt;src/weapons/enemyRocketAtack.js</title>
<path fill="none" stroke="#757575" d="M1614.86,-142.17C1646.69,-137.33 1683.86,-131.69 1716.68,-126.71"/>
<polygon fill="#757575" stroke="#757575" points="1717.36,-130.15 1726.72,-125.19 1716.31,-123.23 1717.36,-130.15"/>
</g>
<!-- src/enemy/enemyManager.js&#45;&gt;src/gameState.js -->
<g id="edge31" class="edge">
<title>src/enemy/enemyManager.js&#45;&gt;src/gameState.js</title>
<path fill="none" stroke="#757575" d="M1045,-448.08C1069.8,-436.77 1107.51,-418.45 1138,-398.68 1155.24,-387.51 1154.62,-376.52 1174,-369.68 1486.18,-259.58 1673.5,-197.44 1917,-421.68 1963.5,-464.5 1997.5,-663.11 2007.77,-729.79"/>
<polygon fill="#757575" stroke="#757575" points="2004.36,-730.62 2009.31,-739.98 2011.28,-729.57 2004.36,-730.62"/>
</g>
<!-- src/enemy/enemyManager.js&#45;&gt;src/weapons/gatling.js -->
<g id="edge32" class="edge">
<title>src/enemy/enemyManager.js&#45;&gt;src/weapons/gatling.js</title>
<path fill="none" stroke="#757575" d="M1113.34,-460.23C1190.17,-463.99 1299.48,-477.02 1386,-517.68 1443.84,-544.86 1496.13,-601.12 1521.26,-631.01"/>
<polygon fill="#757575" stroke="#757575" points="1518.82,-633.55 1527.89,-639.04 1524.22,-629.1 1518.82,-633.55"/>
</g>
<!-- src/enemy/enemyManager.js&#45;&gt;src/enemy/enemyFactory.js -->
<g id="edge30" class="edge">
<title>src/enemy/enemyManager.js&#45;&gt;src/enemy/enemyFactory.js</title>
<path fill="none" stroke="#757575" d="M1076.31,-471.22C1096.02,-475.55 1118.1,-480.86 1138,-486.68 1173.42,-497.05 1212.86,-511.57 1241,-522.47"/>
<polygon fill="#757575" stroke="#757575" points="1239.87,-525.79 1250.45,-526.17 1242.41,-519.27 1239.87,-525.79"/>
</g>
<!-- src/keyboard.js&#45;&gt;src/gameState.js -->
<g id="edge52" class="edge">
<title>src/keyboard.js&#45;&gt;src/gameState.js</title>
<path fill="none" stroke="#757575" d="M496.27,-1133.39C511.26,-1150.47 541.73,-1181.79 575,-1196.68 657.33,-1233.52 686.43,-1214.06 776,-1224.68 1027.83,-1254.55 1724.4,-1410.66 1917,-1245.68 1990.2,-1182.97 2007.06,-860.89 2010.31,-773.55"/>
<polygon fill="#757575" stroke="#757575" points="2013.81,-773.58 2010.66,-763.46 2006.82,-773.33 2013.81,-773.58"/>
</g>
<!-- src/keyboard.js&#45;&gt;src/weapons/rocket.js -->
<g id="edge55" class="edge">
<title>src/keyboard.js&#45;&gt;src/weapons/rocket.js</title>
<path fill="none" stroke="#757575" d="M505.77,-1133.25C523.2,-1143.12 549.91,-1156.77 575,-1163.68 816.38,-1230.14 891.1,-1224.17 1138,-1182.68 1278.55,-1159.06 1435.77,-1091.71 1503.26,-1060.69"/>
<polygon fill="#757575" stroke="#757575" points="1504.95,-1063.76 1512.55,-1056.38 1502.01,-1057.41 1504.95,-1063.76"/>
</g>
<!-- src/keyboard.js&#45;&gt;src/music.js -->
<g id="edge53" class="edge">
<title>src/keyboard.js&#45;&gt;src/music.js</title>
<path fill="none" stroke="#757575" d="M492.78,-1110.15C526.44,-1049.31 691.53,-762.12 897,-596.68 989.59,-522.13 1046.54,-556.61 1138,-480.68 1158.79,-463.42 1150.35,-444.75 1174,-431.68 1368.51,-324.2 1651.27,-394.05 1758.79,-427.11"/>
<polygon fill="#757575" stroke="#757575" points="1757.75,-430.45 1768.34,-430.09 1759.84,-423.77 1757.75,-430.45"/>
</g>
<!-- src/gameMenuActions.js -->
<g id="node26" class="node">
<title>src/gameMenuActions.js</title>
<path fill="none" stroke="#c6c5fe" d="M732.33,-1133.18C732.33,-1133.18 582.67,-1133.18 582.67,-1133.18 578.83,-1133.18 575,-1129.35 575,-1125.52 575,-1125.52 575,-1117.85 575,-1117.85 575,-1114.02 578.83,-1110.18 582.67,-1110.18 582.67,-1110.18 732.33,-1110.18 732.33,-1110.18 736.17,-1110.18 740,-1114.02 740,-1117.85 740,-1117.85 740,-1125.52 740,-1125.52 740,-1129.35 736.17,-1133.18 732.33,-1133.18"/>
<text text-anchor="middle" x="657.5" y="-1117.98" font-family="Arial" font-size="14.00" fill="#c6c5fe">src/gameMenuActions.js</text>
</g>
<!-- src/keyboard.js&#45;&gt;src/gameMenuActions.js -->
<g id="edge51" class="edge">
<title>src/keyboard.js&#45;&gt;src/gameMenuActions.js</title>
<path fill="none" stroke="#757575" d="M539.36,-1121.68C547.48,-1121.68 556.07,-1121.68 564.75,-1121.68"/>
<polygon fill="#757575" stroke="#757575" points="564.96,-1125.18 574.96,-1121.68 564.96,-1118.18 564.96,-1125.18"/>
</g>
<!-- src/touch.js -->
<g id="node28" class="node">
<title>src/touch.js</title>
<path fill="none" stroke="#c6c5fe" d="M853.33,-1173.18C853.33,-1173.18 783.67,-1173.18 783.67,-1173.18 779.83,-1173.18 776,-1169.35 776,-1165.52 776,-1165.52 776,-1157.85 776,-1157.85 776,-1154.02 779.83,-1150.18 783.67,-1150.18 783.67,-1150.18 853.33,-1150.18 853.33,-1150.18 857.17,-1150.18 861,-1154.02 861,-1157.85 861,-1157.85 861,-1165.52 861,-1165.52 861,-1169.35 857.17,-1173.18 853.33,-1173.18"/>
<text text-anchor="middle" x="818.5" y="-1157.98" font-family="Arial" font-size="14.00" fill="#c6c5fe">src/touch.js</text>
</g>
<!-- src/keyboard.js&#45;&gt;src/touch.js -->
<g id="edge54" class="edge">
<title>src/keyboard.js&#45;&gt;src/touch.js</title>
<path fill="none" stroke="#757575" d="M529.45,-1133.28C543.83,-1136.79 560.02,-1140.33 575,-1142.68 640.24,-1152.92 716.26,-1157.74 765.55,-1159.94"/>
<polygon fill="#757575" stroke="#757575" points="765.51,-1163.44 775.65,-1160.37 765.81,-1156.45 765.51,-1163.44"/>
</g>
<!-- src/player/Player.js&#45;&gt;src/gameState.js -->
<g id="edge57" class="edge">
<title>src/player/Player.js&#45;&gt;src/gameState.js</title>
<path fill="none" stroke="#757575" d="M334.48,-932.25C342.6,-967.73 371.44,-1076.62 432,-1142.68 543.95,-1264.8 917.06,-1391.68 1016.5,-1391.68 1016.5,-1391.68 1016.5,-1391.68 1539,-1391.68 1712.44,-1391.68 1799.35,-1422.12 1917,-1294.68 1989.11,-1216.57 2006.86,-864.88 2010.29,-773.46"/>
<polygon fill="#757575" stroke="#757575" points="2013.79,-773.53 2010.65,-763.41 2006.79,-773.28 2013.79,-773.53"/>
</g>
<!-- src/player/Player.js&#45;&gt;src/weapons/gatling.js -->
<g id="edge60" class="edge">
<title>src/player/Player.js&#45;&gt;src/weapons/gatling.js</title>
<path fill="none" stroke="#757575" d="M357.88,-909.06C436.94,-874.04 682.97,-768.52 897,-713.68 1017.62,-682.78 1050.16,-684.62 1174,-671.68 1269.49,-661.7 1379.65,-656.17 1453.34,-653.32"/>
<polygon fill="#757575" stroke="#757575" points="1453.63,-656.81 1463.49,-652.94 1453.36,-649.82 1453.63,-656.81"/>
</g>
<!-- src/player/Player.js&#45;&gt;src/weapons/rocket.js -->
<g id="edge61" class="edge">
<title>src/player/Player.js&#45;&gt;src/weapons/rocket.js</title>
<path fill="none" stroke="#757575" d="M382.88,-932.22C513.42,-961.02 871.19,-1034.87 1174,-1050.68 1270.34,-1055.71 1381.23,-1052.58 1454.84,-1049.25"/>
<polygon fill="#757575" stroke="#757575" points="1455.15,-1052.74 1464.97,-1048.78 1454.82,-1045.75 1455.15,-1052.74"/>
</g>
<!-- src/player/Player.js&#45;&gt;src/music.js -->
<g id="edge59" class="edge">
<title>src/player/Player.js&#45;&gt;src/music.js</title>
<path fill="none" stroke="#757575" d="M341.74,-909.07C392.65,-849.16 635.84,-572.67 897,-439.68 1198.09,-286.35 1324.69,-294.06 1654,-369.68 1699.86,-380.21 1747.99,-406.86 1776.61,-424.62"/>
<polygon fill="#757575" stroke="#757575" points="1774.87,-427.65 1785.19,-430.04 1778.6,-421.74 1774.87,-427.65"/>
</g>
<!-- src/player/Player.js&#45;&gt;src/keyboard.js -->
<g id="edge58" class="edge">
<title>src/player/Player.js&#45;&gt;src/keyboard.js</title>
<path fill="none" stroke="#757575" d="M339.31,-932.44C351.41,-952.01 376.24,-992.6 396,-1027.68 412.78,-1057.48 407.49,-1071.83 432,-1095.68 435.69,-1099.27 439.97,-1102.46 444.46,-1105.26"/>
<polygon fill="#757575" stroke="#757575" points="442.83,-1108.35 453.27,-1110.18 446.24,-1102.24 442.83,-1108.35"/>
</g>
<!-- src/gameOver.js -->
<g id="node27" class="node">
<title>src/gameOver.js</title>
<path fill="none" stroke="#c6c5fe" d="M1067.83,-628.18C1067.83,-628.18 967.17,-628.18 967.17,-628.18 963.33,-628.18 959.5,-624.35 959.5,-620.52 959.5,-620.52 959.5,-612.85 959.5,-612.85 959.5,-609.02 963.33,-605.18 967.17,-605.18 967.17,-605.18 1067.83,-605.18 1067.83,-605.18 1071.67,-605.18 1075.5,-609.02 1075.5,-612.85 1075.5,-612.85 1075.5,-620.52 1075.5,-620.52 1075.5,-624.35 1071.67,-628.18 1067.83,-628.18"/>
<text text-anchor="middle" x="1017.5" y="-612.98" font-family="Arial" font-size="14.00" fill="#c6c5fe">src/gameOver.js</text>
</g>
<!-- src/player/Player.js&#45;&gt;src/gameOver.js -->
<g id="edge56" class="edge">
<title>src/player/Player.js&#45;&gt;src/gameOver.js</title>
<path fill="none" stroke="#757575" d="M358,-909.14C463.56,-862.25 860.3,-686.05 981.27,-632.33"/>
<polygon fill="#757575" stroke="#757575" points="982.76,-635.5 990.48,-628.24 979.92,-629.1 982.76,-635.5"/>
</g>
<!-- src/step.js&#45;&gt;src/gameState.js -->
<g id="edge70" class="edge">
<title>src/step.js&#45;&gt;src/gameState.js</title>
<path fill="none" stroke="#757575" d="M825.03,-938.21C835.7,-958.99 861.23,-1002.36 897,-1021.68 971.12,-1061.74 1570.29,-1075.26 1654,-1065.68 1773.21,-1052.04 1826.91,-1083.94 1917,-1004.68 1987.5,-942.66 2005.23,-822.71 2009.6,-773.53"/>
<polygon fill="#757575" stroke="#757575" points="2013.1,-773.63 2010.4,-763.39 2006.12,-773.08 2013.1,-773.63"/>
</g>
<!-- src/step.js&#45;&gt;src/weapons/gatling.js -->
<g id="edge74" class="edge">
<title>src/step.js&#45;&gt;src/weapons/gatling.js</title>
<path fill="none" stroke="#757575" d="M822.1,-915C828.97,-886.96 850.4,-815.65 897,-780.68 941.25,-747.48 1289.99,-689.35 1453.25,-663.59"/>
<polygon fill="#757575" stroke="#757575" points="1453.92,-667.03 1463.25,-662.02 1452.83,-660.11 1453.92,-667.03"/>
</g>
<!-- src/step.js&#45;&gt;src/ammo.js -->
<g id="edge65" class="edge">
<title>src/step.js&#45;&gt;src/ammo.js</title>
<path fill="none" stroke="#757575" d="M825.59,-915.08C836.79,-895.02 862.66,-854.15 897,-834.68 951.94,-803.53 1132.21,-784.69 1224.1,-776.89"/>
<polygon fill="#757575" stroke="#757575" points="1224.64,-780.35 1234.31,-776.03 1224.06,-773.38 1224.64,-780.35"/>
</g>
<!-- src/step.js&#45;&gt;src/weapons/rocket.js -->
<g id="edge75" class="edge">
<title>src/step.js&#45;&gt;src/weapons/rocket.js</title>
<path fill="none" stroke="#757575" d="M829.98,-938.39C843.77,-952.93 869.48,-977.21 897,-988.68 995.69,-1029.81 1305.51,-1040.75 1454.88,-1043.64"/>
<polygon fill="#757575" stroke="#757575" points="1454.85,-1047.14 1464.92,-1043.83 1454.98,-1040.14 1454.85,-1047.14"/>
</g>
<!-- src/step.js&#45;&gt;src/background.js -->
<g id="edge66" class="edge">
<title>src/step.js&#45;&gt;src/background.js</title>
<path fill="none" stroke="#757575" d="M822.91,-938.32C831.14,-964.28 854.57,-1027.17 897,-1059.68 1028.13,-1160.16 1543.01,-1187.78 1732.24,-1194.63"/>
<polygon fill="#757575" stroke="#757575" points="1732.23,-1198.13 1742.35,-1194.98 1732.48,-1191.13 1732.23,-1198.13"/>
</g>
<!-- src/step.js&#45;&gt;src/collisions/collisions.js -->
<g id="edge67" class="edge">
<title>src/step.js&#45;&gt;src/collisions/collisions.js</title>
<path fill="none" stroke="#757575" d="M857.16,-937.69C869.76,-941.16 883.93,-944.82 897,-947.68 907.89,-950.06 919.39,-952.31 930.78,-954.39"/>
<polygon fill="#757575" stroke="#757575" points="930.28,-957.85 940.74,-956.16 931.51,-950.96 930.28,-957.85"/>
</g>
<!-- src/step.js&#45;&gt;src/enemy/enemy.js -->
<g id="edge68" class="edge">
<title>src/step.js&#45;&gt;src/enemy/enemy.js</title>
<path fill="none" stroke="#757575" d="M832.14,-915.14C846.67,-902.56 871.76,-882.89 897,-872.68 1101.09,-790.13 1211.59,-928.03 1386,-793.68 1417.21,-769.64 1391.04,-737.04 1422,-712.68 1432.85,-704.15 1446.04,-698.67 1459.58,-695.22"/>
<polygon fill="#757575" stroke="#757575" points="1460.45,-698.61 1469.46,-693.05 1458.95,-691.77 1460.45,-698.61"/>
</g>
<!-- src/step.js&#45;&gt;src/gameOver.js -->
<g id="edge69" class="edge">
<title>src/step.js&#45;&gt;src/gameOver.js</title>
<path fill="none" stroke="#757575" d="M821.71,-914.9C828.39,-881.55 850.83,-784.68 897,-718.68 922.01,-682.94 962.4,-652.05 989.2,-633.9"/>
<polygon fill="#757575" stroke="#757575" points="991.33,-636.68 997.73,-628.24 987.46,-630.85 991.33,-636.68"/>
</g>
<!-- src/mobile/mobileVelocityController.js -->
<g id="node29" class="node">
<title>src/mobile/mobileVelocityController.js</title>
<path fill="none" stroke="#cfffac" d="M1130.33,-938.18C1130.33,-938.18 904.67,-938.18 904.67,-938.18 900.83,-938.18 897,-934.35 897,-930.52 897,-930.52 897,-922.85 897,-922.85 897,-919.02 900.83,-915.18 904.67,-915.18 904.67,-915.18 1130.33,-915.18 1130.33,-915.18 1134.17,-915.18 1138,-919.02 1138,-922.85 1138,-922.85 1138,-930.52 1138,-930.52 1138,-934.35 1134.17,-938.18 1130.33,-938.18"/>
<text text-anchor="middle" x="1017.5" y="-922.98" font-family="Arial" font-size="14.00" fill="#cfffac">src/mobile/mobileVelocityController.js</text>
</g>
<!-- src/step.js&#45;&gt;src/mobile/mobileVelocityController.js -->
<g id="edge71" class="edge">
<title>src/step.js&#45;&gt;src/mobile/mobileVelocityController.js</title>
<path fill="none" stroke="#757575" d="M857.02,-926.68C865.9,-926.68 875.87,-926.68 886.39,-926.68"/>
<polygon fill="#757575" stroke="#757575" points="886.61,-930.18 896.61,-926.68 886.61,-923.18 886.61,-930.18"/>
</g>
<!-- src/mobileJoystick.js -->
<g id="node30" class="node">
<title>src/mobileJoystick.js</title>
<path fill="none" stroke="#cfffac" d="M1079.83,-1173.18C1079.83,-1173.18 955.17,-1173.18 955.17,-1173.18 951.33,-1173.18 947.5,-1169.35 947.5,-1165.52 947.5,-1165.52 947.5,-1157.85 947.5,-1157.85 947.5,-1154.02 951.33,-1150.18 955.17,-1150.18 955.17,-1150.18 1079.83,-1150.18 1079.83,-1150.18 1083.67,-1150.18 1087.5,-1154.02 1087.5,-1157.85 1087.5,-1157.85 1087.5,-1165.52 1087.5,-1165.52 1087.5,-1169.35 1083.67,-1173.18 1079.83,-1173.18"/>
<text text-anchor="middle" x="1017.5" y="-1157.98" font-family="Arial" font-size="14.00" fill="#cfffac">src/mobileJoystick.js</text>
</g>
<!-- src/step.js&#45;&gt;src/mobileJoystick.js -->
<g id="edge72" class="edge">
<title>src/step.js&#45;&gt;src/mobileJoystick.js</title>
<path fill="none" stroke="#757575" d="M820.09,-938.32C822.56,-973.86 835.05,-1081.9 897,-1135.68 908.44,-1145.62 922.79,-1152.03 937.54,-1156.12"/>
<polygon fill="#757575" stroke="#757575" points="936.72,-1159.52 947.26,-1158.48 938.37,-1152.72 936.72,-1159.52"/>
</g>
<!-- src/step.js&#45;&gt;src/scores/currentGameScore.js -->
<g id="edge73" class="edge">
<title>src/step.js&#45;&gt;src/scores/currentGameScore.js</title>
<path fill="none" stroke="#757575" d="M857.14,-916.04C869.74,-912.73 883.91,-909.27 897,-906.68 1112.25,-864.09 1173.64,-893.93 1386,-838.68 1402.61,-834.36 1405.5,-829.43 1422,-824.68 1518.2,-797 1631.13,-776.83 1708.84,-764.8"/>
<polygon fill="#757575" stroke="#757575" points="1709.74,-768.2 1719.09,-763.23 1708.68,-761.28 1709.74,-768.2"/>
</g>
<!-- src/gameMenuActions.js&#45;&gt;src/gameState.js -->
<g id="edge47" class="edge">
<title>src/gameMenuActions.js&#45;&gt;src/gameState.js</title>
<path fill="none" stroke="#757575" d="M740.25,-1116.27C778.77,-1117 824.23,-1122.8 861,-1141.68 882.57,-1152.76 875.13,-1172.2 897,-1182.68 1215.1,-1335.23 1337.3,-1209.9 1690,-1217.68 1790.86,-1219.91 1838.93,-1281.58 1917,-1217.68 1987.22,-1160.21 2006.16,-857.65 2010.11,-773.45"/>
<polygon fill="#757575" stroke="#757575" points="2013.61,-773.41 2010.56,-763.27 2006.62,-773.1 2013.61,-773.41"/>
</g>
<!-- src/gameMenuActions.js&#45;&gt;src/step.js -->
<g id="edge48" class="edge">
<title>src/gameMenuActions.js&#45;&gt;src/step.js</title>
<path fill="none" stroke="#757575" d="M667.97,-1110.07C694.31,-1077.76 768.65,-986.59 801.53,-946.27"/>
<polygon fill="#757575" stroke="#757575" points="804.27,-948.44 807.88,-938.48 798.85,-944.02 804.27,-948.44"/>
</g>
<!-- src/gameOver.js&#45;&gt;src/levelCompleteScreen.js -->
<g id="edge49" class="edge">
<title>src/gameOver.js&#45;&gt;src/levelCompleteScreen.js</title>
<path fill="none" stroke="#757575" d="M1075.67,-608.34C1109.08,-603.47 1151.97,-597.21 1189.74,-591.7"/>
<polygon fill="#757575" stroke="#757575" points="1190.34,-595.15 1199.73,-590.24 1189.33,-588.22 1190.34,-595.15"/>
</g>
<!-- src/gameOver.js&#45;&gt;src/music.js -->
<g id="edge50" class="edge">
<title>src/gameOver.js&#45;&gt;src/music.js</title>
<path fill="none" stroke="#757575" d="M1075.54,-614.59C1096.95,-611.32 1120.35,-604.48 1138,-590.68 1166.5,-568.4 1144.48,-538.6 1174,-517.68 1352.45,-391.23 1633.23,-415.44 1749.43,-432.5"/>
<polygon fill="#757575" stroke="#757575" points="1749.08,-435.99 1759.5,-434.02 1750.13,-429.06 1749.08,-435.99"/>
</g>
<!-- src/touch.js&#45;&gt;src/mobileJoystick.js -->
<g id="edge76" class="edge">
<title>src/touch.js&#45;&gt;src/mobileJoystick.js</title>
<path fill="none" stroke="#757575" d="M861.28,-1161.68C883.31,-1161.68 911.1,-1161.68 937.04,-1161.68"/>
<polygon fill="#757575" stroke="#757575" points="937.26,-1165.18 947.26,-1161.68 937.26,-1158.18 937.26,-1165.18"/>
</g>
<!-- src/scores/currentGameScore.js&#45;&gt;src/gameState.js -->
<g id="edge62" class="edge">
<title>src/scores/currentGameScore.js&#45;&gt;src/gameState.js</title>
<path fill="none" stroke="#757575" d="M1909.26,-751.68C1920.61,-751.68 1931.94,-751.68 1942.69,-751.68"/>
<polygon fill="#757575" stroke="#757575" points="1942.8,-755.18 1952.8,-751.68 1942.8,-748.18 1942.8,-755.18"/>
</g>
</g>
</svg>
