<?xml version="1.0" encoding="UTF-8" standalone="no"?>
<!DOCTYPE svg PUBLIC "-//W3C//DTD SVG 1.1//EN"
 "http://www.w3.org/Graphics/SVG/1.1/DTD/svg11.dtd">
<!-- Generated by graphviz version 2.43.0 (0)
 -->
<!-- Title: G Pages: 1 -->
<svg width="2248pt" height="1547pt"
 viewBox="0.00 0.00 2248.20 1546.89" xmlns="http://www.w3.org/2000/svg" xmlns:xlink="http://www.w3.org/1999/xlink">
<g id="graph0" class="graph" transform="scale(1 1) rotate(0) translate(21.6 1525.29)">
<title>G</title>
<polygon fill="#111111" stroke="transparent" points="-21.6,21.6 -21.6,-1525.29 2226.6,-1525.29 2226.6,21.6 -21.6,21.6"/>
<!-- app.js -->
<g id="node1" class="node">
<title>app.js</title>
<path fill="none" stroke="#c6c5fe" d="M46.33,-947.54C46.33,-947.54 7.67,-947.54 7.67,-947.54 3.83,-947.54 0,-943.71 0,-939.88 0,-939.88 0,-932.21 0,-932.21 0,-928.38 3.83,-924.54 7.67,-924.54 7.67,-924.54 46.33,-924.54 46.33,-924.54 50.17,-924.54 54,-928.38 54,-932.21 54,-932.21 54,-939.88 54,-939.88 54,-943.71 50.17,-947.54 46.33,-947.54"/>
<text text-anchor="middle" x="27" y="-932.34" font-family="Arial" font-size="14.00" fill="#c6c5fe">app.js</text>
</g>
<!-- src/gameManager.js -->
<g id="node2" class="node">
<title>src/gameManager.js</title>
<path fill="none" stroke="#c6c5fe" d="M222.33,-927.54C222.33,-927.54 97.67,-927.54 97.67,-927.54 93.83,-927.54 90,-923.71 90,-919.88 90,-919.88 90,-912.21 90,-912.21 90,-908.38 93.83,-904.54 97.67,-904.54 97.67,-904.54 222.33,-904.54 222.33,-904.54 226.17,-904.54 230,-908.38 230,-912.21 230,-912.21 230,-919.88 230,-919.88 230,-923.71 226.17,-927.54 222.33,-927.54"/>
<text text-anchor="middle" x="160" y="-912.34" font-family="Arial" font-size="14.00" fill="#c6c5fe">src/gameManager.js</text>
</g>
<!-- app.js&#45;&gt;src/gameManager.js -->
<g id="edge1" class="edge">
<title>app.js&#45;&gt;src/gameManager.js</title>
<path fill="none" stroke="#757575" d="M54.19,-932.04C61.87,-930.87 70.69,-929.53 79.89,-928.12"/>
<polygon fill="#757575" stroke="#757575" points="80.62,-931.55 89.97,-926.58 79.56,-924.63 80.62,-931.55"/>
</g>
<!-- src/startScreen.js -->
<g id="node3" class="node">
<title>src/startScreen.js</title>
<path fill="none" stroke="#c6c5fe" d="M383.83,-1448.54C383.83,-1448.54 278.17,-1448.54 278.17,-1448.54 274.33,-1448.54 270.5,-1444.71 270.5,-1440.88 270.5,-1440.88 270.5,-1433.21 270.5,-1433.21 270.5,-1429.38 274.33,-1425.54 278.17,-1425.54 278.17,-1425.54 383.83,-1425.54 383.83,-1425.54 387.67,-1425.54 391.5,-1429.38 391.5,-1433.21 391.5,-1433.21 391.5,-1440.88 391.5,-1440.88 391.5,-1444.71 387.67,-1448.54 383.83,-1448.54"/>
<text text-anchor="middle" x="331" y="-1433.34" font-family="Arial" font-size="14.00" fill="#c6c5fe">src/startScreen.js</text>
</g>
<!-- app.js&#45;&gt;src/startScreen.js -->
<g id="edge2" class="edge">
<title>app.js&#45;&gt;src/startScreen.js</title>
<path fill="none" stroke="#757575" d="M31.6,-947.58C49.25,-1002.77 131.36,-1243.36 266,-1394.04 275.15,-1404.28 287.24,-1413.22 298.45,-1420.26"/>
<polygon fill="#757575" stroke="#757575" points="296.8,-1423.35 307.18,-1425.48 300.39,-1417.34 296.8,-1423.35"/>
</g>
<!-- src/Boss.js -->
<g id="node4" class="node">
<title>src/Boss.js</title>
<path fill="none" stroke="#c6c5fe" d="M1185.83,-1372.54C1185.83,-1372.54 1119.17,-1372.54 1119.17,-1372.54 1115.33,-1372.54 1111.5,-1368.71 1111.5,-1364.88 1111.5,-1364.88 1111.5,-1357.21 1111.5,-1357.21 1111.5,-1353.38 1115.33,-1349.54 1119.17,-1349.54 1119.17,-1349.54 1185.83,-1349.54 1185.83,-1349.54 1189.67,-1349.54 1193.5,-1353.38 1193.5,-1357.21 1193.5,-1357.21 1193.5,-1364.88 1193.5,-1364.88 1193.5,-1368.71 1189.67,-1372.54 1185.83,-1372.54"/>
<text text-anchor="middle" x="1152.5" y="-1357.34" font-family="Arial" font-size="14.00" fill="#c6c5fe">src/Boss.js</text>
</g>
<!-- src/gameManager.js&#45;&gt;src/Boss.js -->
<g id="edge33" class="edge">
<title>src/gameManager.js&#45;&gt;src/Boss.js</title>
<path fill="none" stroke="#757575" d="M165.77,-927.55C177.88,-957.08 210.24,-1038.17 230,-1108.04 251.26,-1183.2 212.28,-1223.35 266,-1280.04 339.71,-1357.82 391.84,-1342.04 499,-1342.04 499,-1342.04 499,-1342.04 687.5,-1342.04 838.23,-1342.04 1016.26,-1352.18 1101.34,-1357.64"/>
<polygon fill="#757575" stroke="#757575" points="1101.28,-1361.15 1111.49,-1358.3 1101.74,-1354.16 1101.28,-1361.15"/>
</g>
<!-- src/gameState.js -->
<g id="node5" class="node">
<title>src/gameState.js</title>
<path fill="none" stroke="#cfffac" d="M2197.33,-839.54C2197.33,-839.54 2094.67,-839.54 2094.67,-839.54 2090.83,-839.54 2087,-835.71 2087,-831.88 2087,-831.88 2087,-824.21 2087,-824.21 2087,-820.38 2090.83,-816.54 2094.67,-816.54 2094.67,-816.54 2197.33,-816.54 2197.33,-816.54 2201.17,-816.54 2205,-820.38 2205,-824.21 2205,-824.21 2205,-831.88 2205,-831.88 2205,-835.71 2201.17,-839.54 2197.33,-839.54"/>
<text text-anchor="middle" x="2146" y="-824.34" font-family="Arial" font-size="14.00" fill="#cfffac">src/gameState.js</text>
</g>
<!-- src/gameManager.js&#45;&gt;src/gameState.js -->
<g id="edge38" class="edge">
<title>src/gameManager.js&#45;&gt;src/gameState.js</title>
<path fill="none" stroke="#757575" d="M161.5,-927.87C164.84,-1000.09 186.07,-1381.1 266,-1458.04 341.49,-1530.71 394.22,-1494.04 499,-1494.04 499,-1494.04 499,-1494.04 1691.5,-1494.04 1854.28,-1494.04 1937.98,-1541.19 2051,-1424.04 2132.33,-1339.74 2143.3,-947.87 2144.77,-850.16"/>
<polygon fill="#757575" stroke="#757575" points="2148.27,-850.02 2144.91,-839.97 2141.27,-849.93 2148.27,-850.02"/>
</g>
<!-- src/levelCompleteScreen.js -->
<g id="node6" class="node">
<title>src/levelCompleteScreen.js</title>
<path fill="none" stroke="#cfffac" d="M1507.83,-1313.54C1507.83,-1313.54 1342.17,-1313.54 1342.17,-1313.54 1338.33,-1313.54 1334.5,-1309.71 1334.5,-1305.88 1334.5,-1305.88 1334.5,-1298.21 1334.5,-1298.21 1334.5,-1294.38 1338.33,-1290.54 1342.17,-1290.54 1342.17,-1290.54 1507.83,-1290.54 1507.83,-1290.54 1511.67,-1290.54 1515.5,-1294.38 1515.5,-1298.21 1515.5,-1298.21 1515.5,-1305.88 1515.5,-1305.88 1515.5,-1309.71 1511.67,-1313.54 1507.83,-1313.54"/>
<text text-anchor="middle" x="1425" y="-1298.34" font-family="Arial" font-size="14.00" fill="#cfffac">src/levelCompleteScreen.js</text>
</g>
<!-- src/gameManager.js&#45;&gt;src/levelCompleteScreen.js -->
<g id="edge40" class="edge">
<title>src/gameManager.js&#45;&gt;src/levelCompleteScreen.js</title>
<path fill="none" stroke="#757575" d="M166.13,-927.94C178.79,-957.71 211.79,-1038.12 230,-1108.04 254.63,-1202.65 199.24,-1253.62 266,-1325.04 338.66,-1402.77 392.6,-1380.04 499,-1380.04 499,-1380.04 499,-1380.04 687.5,-1380.04 841.59,-1380.04 878.77,-1357.34 1032,-1341.04 1131.46,-1330.47 1245.21,-1319.25 1324.47,-1311.57"/>
<polygon fill="#757575" stroke="#757575" points="1324.83,-1315.05 1334.44,-1310.6 1324.15,-1308.08 1324.83,-1315.05"/>
</g>
<!-- src/ammo.js -->
<g id="node9" class="node">
<title>src/ammo.js</title>
<path fill="none" stroke="#c6c5fe" d="M1462.83,-853.54C1462.83,-853.54 1387.17,-853.54 1387.17,-853.54 1383.33,-853.54 1379.5,-849.71 1379.5,-845.88 1379.5,-845.88 1379.5,-838.21 1379.5,-838.21 1379.5,-834.38 1383.33,-830.54 1387.17,-830.54 1387.17,-830.54 1462.83,-830.54 1462.83,-830.54 1466.67,-830.54 1470.5,-834.38 1470.5,-838.21 1470.5,-838.21 1470.5,-845.88 1470.5,-845.88 1470.5,-849.71 1466.67,-853.54 1462.83,-853.54"/>
<text text-anchor="middle" x="1425" y="-838.34" font-family="Arial" font-size="14.00" fill="#c6c5fe">src/ammo.js</text>
</g>
<!-- src/gameManager.js&#45;&gt;src/ammo.js -->
<g id="edge34" class="edge">
<title>src/gameManager.js&#45;&gt;src/ammo.js</title>
<path fill="none" stroke="#757575" d="M204.24,-904.47C257.39,-890.9 350.56,-869.22 432,-861.04 617.95,-842.36 1086.56,-875.95 1273,-863.04 1304.98,-860.83 1340.5,-856.01 1369.06,-851.55"/>
<polygon fill="#757575" stroke="#757575" points="1369.92,-854.95 1379.24,-849.92 1368.81,-848.04 1369.92,-854.95"/>
</g>
<!-- src/background.js -->
<g id="node11" class="node">
<title>src/background.js</title>
<path fill="none" stroke="#cfffac" d="M1743.83,-189.54C1743.83,-189.54 1637.17,-189.54 1637.17,-189.54 1633.33,-189.54 1629.5,-185.71 1629.5,-181.88 1629.5,-181.88 1629.5,-174.21 1629.5,-174.21 1629.5,-170.38 1633.33,-166.54 1637.17,-166.54 1637.17,-166.54 1743.83,-166.54 1743.83,-166.54 1747.67,-166.54 1751.5,-170.38 1751.5,-174.21 1751.5,-174.21 1751.5,-181.88 1751.5,-181.88 1751.5,-185.71 1747.67,-189.54 1743.83,-189.54"/>
<text text-anchor="middle" x="1690.5" y="-174.34" font-family="Arial" font-size="14.00" fill="#cfffac">src/background.js</text>
</g>
<!-- src/gameManager.js&#45;&gt;src/background.js -->
<g id="edge35" class="edge">
<title>src/gameManager.js&#45;&gt;src/background.js</title>
<path fill="none" stroke="#757575" d="M162.09,-904.22C169.03,-830.25 208.74,-430.73 266,-324.04 333.64,-198.01 355.97,-102.04 499,-102.04 499,-102.04 499,-102.04 901.5,-102.04 1167.66,-102.04 1482.06,-145.53 1619.41,-166.72"/>
<polygon fill="#757575" stroke="#757575" points="1618.97,-170.19 1629.39,-168.26 1620.04,-163.27 1618.97,-170.19"/>
</g>
<!-- src/music.js -->
<g id="node13" class="node">
<title>src/music.js</title>
<path fill="none" stroke="#cfffac" d="M1981.83,-1141.54C1981.83,-1141.54 1909.17,-1141.54 1909.17,-1141.54 1905.33,-1141.54 1901.5,-1137.71 1901.5,-1133.88 1901.5,-1133.88 1901.5,-1126.21 1901.5,-1126.21 1901.5,-1122.38 1905.33,-1118.54 1909.17,-1118.54 1909.17,-1118.54 1981.83,-1118.54 1981.83,-1118.54 1985.67,-1118.54 1989.5,-1122.38 1989.5,-1126.21 1989.5,-1126.21 1989.5,-1133.88 1989.5,-1133.88 1989.5,-1137.71 1985.67,-1141.54 1981.83,-1141.54"/>
<text text-anchor="middle" x="1945.5" y="-1126.34" font-family="Arial" font-size="14.00" fill="#cfffac">src/music.js</text>
</g>
<!-- src/gameManager.js&#45;&gt;src/music.js -->
<g id="edge41" class="edge">
<title>src/gameManager.js&#45;&gt;src/music.js</title>
<path fill="none" stroke="#757575" d="M163.25,-927.64C171,-964.77 199.84,-1082.3 266,-1151.04 346.08,-1234.25 383.52,-1266.04 499,-1266.04 499,-1266.04 499,-1266.04 901.5,-1266.04 1304.14,-1266.04 1414.39,-1288.65 1804,-1187.04 1842.28,-1177.06 1884.03,-1159.16 1911.99,-1146.07"/>
<polygon fill="#757575" stroke="#757575" points="1913.74,-1149.11 1921.28,-1141.66 1910.74,-1142.79 1913.74,-1149.11"/>
</g>
<!-- src/rendering/Helpers.js -->
<g id="node15" class="node">
<title>src/rendering/Helpers.js</title>
<path fill="none" stroke="#cfffac" d="M2017.33,-564.54C2017.33,-564.54 1873.67,-564.54 1873.67,-564.54 1869.83,-564.54 1866,-560.71 1866,-556.88 1866,-556.88 1866,-549.21 1866,-549.21 1866,-545.38 1869.83,-541.54 1873.67,-541.54 1873.67,-541.54 2017.33,-541.54 2017.33,-541.54 2021.17,-541.54 2025,-545.38 2025,-549.21 2025,-549.21 2025,-556.88 2025,-556.88 2025,-560.71 2021.17,-564.54 2017.33,-564.54"/>
<text text-anchor="middle" x="1945.5" y="-549.34" font-family="Arial" font-size="14.00" fill="#cfffac">src/rendering/Helpers.js</text>
</g>
<!-- src/gameManager.js&#45;&gt;src/rendering/Helpers.js -->
<g id="edge43" class="edge">
<title>src/gameManager.js&#45;&gt;src/rendering/Helpers.js</title>
<path fill="none" stroke="#757575" d="M165.73,-904.3C178.23,-874.49 214.7,-794.73 266,-745.04 351.65,-662.09 379.76,-612.04 499,-612.04 499,-612.04 499,-612.04 901.5,-612.04 1066.83,-612.04 1124.18,-665.05 1273,-593.04 1294.83,-582.48 1286.91,-562.04 1309,-552.04 1402.93,-509.52 1437.89,-551.92 1541,-552.04 1649.27,-552.18 1773.88,-552.51 1855.63,-552.76"/>
<polygon fill="#757575" stroke="#757575" points="1855.63,-556.26 1865.64,-552.79 1855.65,-549.26 1855.63,-556.26"/>
</g>
<!-- src/scores/scores.js -->
<g id="node16" class="node">
<title>src/scores/scores.js</title>
<path fill="none" stroke="#c6c5fe" d="M1750.33,-699.54C1750.33,-699.54 1630.67,-699.54 1630.67,-699.54 1626.83,-699.54 1623,-695.71 1623,-691.88 1623,-691.88 1623,-684.21 1623,-684.21 1623,-680.38 1626.83,-676.54 1630.67,-676.54 1630.67,-676.54 1750.33,-676.54 1750.33,-676.54 1754.17,-676.54 1758,-680.38 1758,-684.21 1758,-684.21 1758,-691.88 1758,-691.88 1758,-695.71 1754.17,-699.54 1750.33,-699.54"/>
<text text-anchor="middle" x="1690.5" y="-684.34" font-family="Arial" font-size="14.00" fill="#c6c5fe">src/scores/scores.js</text>
</g>
<!-- src/gameManager.js&#45;&gt;src/scores/scores.js -->
<g id="edge44" class="edge">
<title>src/gameManager.js&#45;&gt;src/scores/scores.js</title>
<path fill="none" stroke="#757575" d="M171.7,-904.44C210.98,-863.19 352.59,-726.04 499,-726.04 499,-726.04 499,-726.04 901.5,-726.04 1162.56,-726.04 1471.71,-704.98 1612.62,-694.22"/>
<polygon fill="#757575" stroke="#757575" points="1613.17,-697.68 1622.87,-693.43 1612.64,-690.7 1613.17,-697.68"/>
</g>
<!-- src/enemy/enemy.js -->
<g id="node18" class="node">
<title>src/enemy/enemy.js</title>
<path fill="none" stroke="#c6c5fe" d="M1485.83,-427.54C1485.83,-427.54 1364.17,-427.54 1364.17,-427.54 1360.33,-427.54 1356.5,-423.71 1356.5,-419.88 1356.5,-419.88 1356.5,-412.21 1356.5,-412.21 1356.5,-408.38 1360.33,-404.54 1364.17,-404.54 1364.17,-404.54 1485.83,-404.54 1485.83,-404.54 1489.67,-404.54 1493.5,-408.38 1493.5,-412.21 1493.5,-412.21 1493.5,-419.88 1493.5,-419.88 1493.5,-423.71 1489.67,-427.54 1485.83,-427.54"/>
<text text-anchor="middle" x="1425" y="-412.34" font-family="Arial" font-size="14.00" fill="#c6c5fe">src/enemy/enemy.js</text>
</g>
<!-- src/gameManager.js&#45;&gt;src/enemy/enemy.js -->
<g id="edge36" class="edge">
<title>src/gameManager.js&#45;&gt;src/enemy/enemy.js</title>
<path fill="none" stroke="#757575" d="M160.95,-904.54C161.31,-854.41 168.95,-652.3 266,-533.04 339.39,-442.85 382.72,-414.04 499,-414.04 499,-414.04 499,-414.04 901.5,-414.04 1059.36,-414.04 1244.05,-414.97 1346.14,-415.56"/>
<polygon fill="#757575" stroke="#757575" points="1346.34,-419.06 1356.36,-415.62 1346.38,-412.06 1346.34,-419.06"/>
</g>
<!-- src/enemy/enemyManager.js -->
<g id="node22" class="node">
<title>src/enemy/enemyManager.js</title>
<path fill="none" stroke="#c6c5fe" d="M988.33,-363.54C988.33,-363.54 812.67,-363.54 812.67,-363.54 808.83,-363.54 805,-359.71 805,-355.88 805,-355.88 805,-348.21 805,-348.21 805,-344.38 808.83,-340.54 812.67,-340.54 812.67,-340.54 988.33,-340.54 988.33,-340.54 992.17,-340.54 996,-344.38 996,-348.21 996,-348.21 996,-355.88 996,-355.88 996,-359.71 992.17,-363.54 988.33,-363.54"/>
<text text-anchor="middle" x="900.5" y="-348.34" font-family="Arial" font-size="14.00" fill="#c6c5fe">src/enemy/enemyManager.js</text>
</g>
<!-- src/gameManager.js&#45;&gt;src/enemy/enemyManager.js -->
<g id="edge37" class="edge">
<title>src/gameManager.js&#45;&gt;src/enemy/enemyManager.js</title>
<path fill="none" stroke="#757575" d="M161.54,-904.24C165.04,-833.83 186.82,-469.89 266,-400.04 433.18,-252.58 731.24,-308.04 849.32,-337.92"/>
<polygon fill="#757575" stroke="#757575" points="848.63,-341.36 859.18,-340.47 850.37,-334.58 848.63,-341.36"/>
</g>
<!-- src/keyboard.js -->
<g id="node23" class="node">
<title>src/keyboard.js</title>
<path fill="none" stroke="#c6c5fe" d="M545.83,-1007.54C545.83,-1007.54 454.17,-1007.54 454.17,-1007.54 450.33,-1007.54 446.5,-1003.71 446.5,-999.88 446.5,-999.88 446.5,-992.21 446.5,-992.21 446.5,-988.38 450.33,-984.54 454.17,-984.54 454.17,-984.54 545.83,-984.54 545.83,-984.54 549.67,-984.54 553.5,-988.38 553.5,-992.21 553.5,-992.21 553.5,-999.88 553.5,-999.88 553.5,-1003.71 549.67,-1007.54 545.83,-1007.54"/>
<text text-anchor="middle" x="500" y="-992.34" font-family="Arial" font-size="14.00" fill="#c6c5fe">src/keyboard.js</text>
</g>
<!-- src/gameManager.js&#45;&gt;src/keyboard.js -->
<g id="edge39" class="edge">
<title>src/gameManager.js&#45;&gt;src/keyboard.js</title>
<path fill="none" stroke="#757575" d="M209.79,-927.59C270.7,-942.01 374.8,-966.65 440.09,-982.1"/>
<polygon fill="#757575" stroke="#757575" points="439.69,-985.6 450.23,-984.5 441.3,-978.79 439.69,-985.6"/>
</g>
<!-- src/player/Player.js -->
<g id="node24" class="node">
<title>src/player/Player.js</title>
<path fill="none" stroke="#c6c5fe" d="M388.33,-1141.54C388.33,-1141.54 273.67,-1141.54 273.67,-1141.54 269.83,-1141.54 266,-1137.71 266,-1133.88 266,-1133.88 266,-1126.21 266,-1126.21 266,-1122.38 269.83,-1118.54 273.67,-1118.54 273.67,-1118.54 388.33,-1118.54 388.33,-1118.54 392.17,-1118.54 396,-1122.38 396,-1126.21 396,-1126.21 396,-1133.88 396,-1133.88 396,-1137.71 392.17,-1141.54 388.33,-1141.54"/>
<text text-anchor="middle" x="331" y="-1126.34" font-family="Arial" font-size="14.00" fill="#c6c5fe">src/player/Player.js</text>
</g>
<!-- src/gameManager.js&#45;&gt;src/player/Player.js -->
<g id="edge42" class="edge">
<title>src/gameManager.js&#45;&gt;src/player/Player.js</title>
<path fill="none" stroke="#757575" d="M170.09,-927.55C197.6,-962.38 280.2,-1066.99 314.65,-1110.61"/>
<polygon fill="#757575" stroke="#757575" points="311.92,-1112.8 320.87,-1118.48 317.42,-1108.46 311.92,-1112.8"/>
</g>
<!-- src/step.js -->
<g id="node25" class="node">
<title>src/step.js</title>
<path fill="none" stroke="#c6c5fe" d="M931.33,-583.54C931.33,-583.54 869.67,-583.54 869.67,-583.54 865.83,-583.54 862,-579.71 862,-575.88 862,-575.88 862,-568.21 862,-568.21 862,-564.38 865.83,-560.54 869.67,-560.54 869.67,-560.54 931.33,-560.54 931.33,-560.54 935.17,-560.54 939,-564.38 939,-568.21 939,-568.21 939,-575.88 939,-575.88 939,-579.71 935.17,-583.54 931.33,-583.54"/>
<text text-anchor="middle" x="900.5" y="-568.34" font-family="Arial" font-size="14.00" fill="#c6c5fe">src/step.js</text>
</g>
<!-- src/gameManager.js&#45;&gt;src/step.js -->
<g id="edge45" class="edge">
<title>src/gameManager.js&#45;&gt;src/step.js</title>
<path fill="none" stroke="#757575" d="M160.61,-904.5C159.69,-857.02 163.2,-675.61 266,-598.04 444.47,-463.37 738.55,-526.04 852.42,-557.67"/>
<polygon fill="#757575" stroke="#757575" points="851.66,-561.09 862.23,-560.45 853.56,-554.36 851.66,-561.09"/>
</g>
<!-- src/startScreen.js&#45;&gt;src/music.js -->
<g id="edge64" class="edge">
<title>src/startScreen.js&#45;&gt;src/music.js</title>
<path fill="none" stroke="#757575" d="M391.68,-1442.21C461.92,-1447.84 582.09,-1456.04 685.5,-1456.04 685.5,-1456.04 685.5,-1456.04 1153.5,-1456.04 1453.48,-1456.04 1548.25,-1432.82 1804,-1276.04 1859.14,-1242.24 1907.54,-1181.69 1930.45,-1150.24"/>
<polygon fill="#757575" stroke="#757575" points="1933.49,-1152 1936.47,-1141.83 1927.8,-1147.93 1933.49,-1152"/>
</g>
<!-- src/Boss.js&#45;&gt;src/gameState.js -->
<g id="edge3" class="edge">
<title>src/Boss.js&#45;&gt;src/gameState.js</title>
<path fill="none" stroke="#757575" d="M1193.57,-1363.58C1359.23,-1373.68 1984.98,-1407.83 2051,-1352.04 2129.36,-1285.82 2142.5,-940.38 2144.61,-849.81"/>
<polygon fill="#757575" stroke="#757575" points="2148.12,-849.7 2144.83,-839.63 2141.12,-849.55 2148.12,-849.7"/>
</g>
<!-- src/Boss.js&#45;&gt;src/levelCompleteScreen.js -->
<g id="edge4" class="edge">
<title>src/Boss.js&#45;&gt;src/levelCompleteScreen.js</title>
<path fill="none" stroke="#757575" d="M1193.61,-1352.33C1216.81,-1347.28 1246.55,-1340.81 1273,-1335.04 1302.07,-1328.7 1334.29,-1321.67 1361.47,-1315.72"/>
<polygon fill="#757575" stroke="#757575" points="1362.22,-1319.14 1371.24,-1313.59 1360.73,-1312.3 1362.22,-1319.14"/>
</g>
<!-- src/weapons/enemyRocketAtack.js -->
<g id="node7" class="node">
<title>src/weapons/enemyRocketAtack.js</title>
<path fill="none" stroke="#cfffac" d="M1796.33,-349.54C1796.33,-349.54 1584.67,-349.54 1584.67,-349.54 1580.83,-349.54 1577,-345.71 1577,-341.88 1577,-341.88 1577,-334.21 1577,-334.21 1577,-330.38 1580.83,-326.54 1584.67,-326.54 1584.67,-326.54 1796.33,-326.54 1796.33,-326.54 1800.17,-326.54 1804,-330.38 1804,-334.21 1804,-334.21 1804,-341.88 1804,-341.88 1804,-345.71 1800.17,-349.54 1796.33,-349.54"/>
<text text-anchor="middle" x="1690.5" y="-334.34" font-family="Arial" font-size="14.00" fill="#cfffac">src/weapons/enemyRocketAtack.js</text>
</g>
<!-- src/Boss.js&#45;&gt;src/weapons/enemyRocketAtack.js -->
<g id="edge5" class="edge">
<title>src/Boss.js&#45;&gt;src/weapons/enemyRocketAtack.js</title>
<path fill="none" stroke="#757575" d="M1167.15,-1349.36C1193.4,-1325.91 1250.35,-1270.1 1273,-1209.04 1304.45,-1124.27 1248.57,-463.31 1309,-396.04 1318.23,-385.77 1474.25,-364.57 1583.61,-350.85"/>
<polygon fill="#757575" stroke="#757575" points="1584.22,-354.3 1593.71,-349.59 1583.35,-347.35 1584.22,-354.3"/>
</g>
<!-- src/weapons/gatling.js -->
<g id="node8" class="node">
<title>src/weapons/gatling.js</title>
<path fill="none" stroke="#c6c5fe" d="M1757.33,-859.54C1757.33,-859.54 1623.67,-859.54 1623.67,-859.54 1619.83,-859.54 1616,-855.71 1616,-851.88 1616,-851.88 1616,-844.21 1616,-844.21 1616,-840.38 1619.83,-836.54 1623.67,-836.54 1623.67,-836.54 1757.33,-836.54 1757.33,-836.54 1761.17,-836.54 1765,-840.38 1765,-844.21 1765,-844.21 1765,-851.88 1765,-851.88 1765,-855.71 1761.17,-859.54 1757.33,-859.54"/>
<text text-anchor="middle" x="1690.5" y="-844.34" font-family="Arial" font-size="14.00" fill="#c6c5fe">src/weapons/gatling.js</text>
</g>
<!-- src/Boss.js&#45;&gt;src/weapons/gatling.js -->
<g id="edge6" class="edge">
<title>src/Boss.js&#45;&gt;src/weapons/gatling.js</title>
<path fill="none" stroke="#757575" d="M1193.82,-1362.52C1282.06,-1364.9 1488.62,-1365.64 1541,-1323.04 1614.78,-1263.05 1671.47,-955.05 1685.91,-869.89"/>
<polygon fill="#757575" stroke="#757575" points="1689.4,-870.25 1687.6,-859.81 1682.5,-869.09 1689.4,-870.25"/>
</g>
<!-- src/weapons/gatling.js&#45;&gt;src/gameState.js -->
<g id="edge78" class="edge">
<title>src/weapons/gatling.js&#45;&gt;src/gameState.js</title>
<path fill="none" stroke="#757575" d="M1765.12,-844.8C1851.32,-840.99 1992.95,-834.75 2076.77,-831.05"/>
<polygon fill="#757575" stroke="#757575" points="2077.11,-834.54 2086.94,-830.6 2076.8,-827.55 2077.11,-834.54"/>
</g>
<!-- src/weapons/gatling.js&#45;&gt;src/music.js -->
<g id="edge79" class="edge">
<title>src/weapons/gatling.js&#45;&gt;src/music.js</title>
<path fill="none" stroke="#757575" d="M1702.05,-859.8C1741.19,-903.43 1878.34,-1056.3 1927.12,-1110.67"/>
<polygon fill="#757575" stroke="#757575" points="1924.62,-1113.13 1933.91,-1118.23 1929.83,-1108.45 1924.62,-1113.13"/>
</g>
<!-- src/ammo.js&#45;&gt;src/weapons/gatling.js -->
<g id="edge7" class="edge">
<title>src/ammo.js&#45;&gt;src/weapons/gatling.js</title>
<path fill="none" stroke="#757575" d="M1470.7,-843.06C1507.62,-843.9 1561.06,-845.12 1605.88,-846.14"/>
<polygon fill="#757575" stroke="#757575" points="1605.82,-849.64 1615.89,-846.37 1605.98,-842.64 1605.82,-849.64"/>
</g>
<!-- src/weapons/rocket.js -->
<g id="node10" class="node">
<title>src/weapons/rocket.js</title>
<path fill="none" stroke="#c6c5fe" d="M1755.83,-779.54C1755.83,-779.54 1625.17,-779.54 1625.17,-779.54 1621.33,-779.54 1617.5,-775.71 1617.5,-771.88 1617.5,-771.88 1617.5,-764.21 1617.5,-764.21 1617.5,-760.38 1621.33,-756.54 1625.17,-756.54 1625.17,-756.54 1755.83,-756.54 1755.83,-756.54 1759.67,-756.54 1763.5,-760.38 1763.5,-764.21 1763.5,-764.21 1763.5,-771.88 1763.5,-771.88 1763.5,-775.71 1759.67,-779.54 1755.83,-779.54"/>
<text text-anchor="middle" x="1690.5" y="-764.34" font-family="Arial" font-size="14.00" fill="#c6c5fe">src/weapons/rocket.js</text>
</g>
<!-- src/ammo.js&#45;&gt;src/weapons/rocket.js -->
<g id="edge8" class="edge">
<title>src/ammo.js&#45;&gt;src/weapons/rocket.js</title>
<path fill="none" stroke="#757575" d="M1467.17,-830.48C1513.45,-817.49 1588.61,-796.38 1638.55,-782.35"/>
<polygon fill="#757575" stroke="#757575" points="1639.5,-785.72 1648.18,-779.65 1637.61,-778.98 1639.5,-785.72"/>
</g>
<!-- src/weapons/rocket.js&#45;&gt;src/rendering/Helpers.js -->
<g id="edge82" class="edge">
<title>src/weapons/rocket.js&#45;&gt;src/rendering/Helpers.js</title>
<path fill="none" stroke="#757575" d="M1719.95,-756.51C1743.74,-746.1 1777.87,-729.33 1804,-709.04 1857.15,-667.76 1906.72,-604.88 1930.23,-573.03"/>
<polygon fill="#757575" stroke="#757575" points="1933.08,-575.05 1936.14,-564.91 1927.42,-570.93 1933.08,-575.05"/>
</g>
<!-- src/collisions/collisionHandlers.js -->
<g id="node12" class="node">
<title>src/collisions/collisionHandlers.js</title>
<path fill="none" stroke="#c6c5fe" d="M1523.33,-583.54C1523.33,-583.54 1326.67,-583.54 1326.67,-583.54 1322.83,-583.54 1319,-579.71 1319,-575.88 1319,-575.88 1319,-568.21 1319,-568.21 1319,-564.38 1322.83,-560.54 1326.67,-560.54 1326.67,-560.54 1523.33,-560.54 1523.33,-560.54 1527.17,-560.54 1531,-564.38 1531,-568.21 1531,-568.21 1531,-575.88 1531,-575.88 1531,-579.71 1527.17,-583.54 1523.33,-583.54"/>
<text text-anchor="middle" x="1425" y="-568.34" font-family="Arial" font-size="14.00" fill="#c6c5fe">src/collisions/collisionHandlers.js</text>
</g>
<!-- src/collisions/collisionHandlers.js&#45;&gt;src/gameState.js -->
<g id="edge9" class="edge">
<title>src/collisions/collisionHandlers.js&#45;&gt;src/gameState.js</title>
<path fill="none" stroke="#757575" d="M1513.21,-583.57C1522.63,-585.22 1532.04,-587.05 1541,-589.04 1660.13,-615.59 1690,-624.45 1804,-668.04 1921.45,-712.96 2054.86,-780.67 2113.98,-811.59"/>
<polygon fill="#757575" stroke="#757575" points="2112.67,-814.86 2123.15,-816.41 2115.92,-808.66 2112.67,-814.86"/>
</g>
<!-- src/collisions/collisionHandlers.js&#45;&gt;src/weapons/gatling.js -->
<g id="edge14" class="edge">
<title>src/collisions/collisionHandlers.js&#45;&gt;src/weapons/gatling.js</title>
<path fill="none" stroke="#757575" d="M1463.01,-583.62C1488.67,-593.53 1521.58,-610.34 1541,-636.04 1583.11,-691.78 1534.2,-733.83 1577,-789.04 1592.84,-809.48 1617.77,-823.57 1640.14,-832.85"/>
<polygon fill="#757575" stroke="#757575" points="1638.95,-836.14 1649.54,-836.53 1641.51,-829.62 1638.95,-836.14"/>
</g>
<!-- src/collisions/collisionHandlers.js&#45;&gt;src/weapons/rocket.js -->
<g id="edge15" class="edge">
<title>src/collisions/collisionHandlers.js&#45;&gt;src/weapons/rocket.js</title>
<path fill="none" stroke="#757575" d="M1519.84,-583.57C1527.63,-587.3 1534.85,-592.03 1541,-598.04 1588.17,-644.16 1529.94,-695.81 1577,-742.04 1585.55,-750.44 1596.23,-756.33 1607.6,-760.43"/>
<polygon fill="#757575" stroke="#757575" points="1606.68,-763.81 1617.27,-763.47 1608.78,-757.13 1606.68,-763.81"/>
</g>
<!-- src/collisions/collisionHandlers.js&#45;&gt;src/music.js -->
<g id="edge10" class="edge">
<title>src/collisions/collisionHandlers.js&#45;&gt;src/music.js</title>
<path fill="none" stroke="#757575" d="M1531.22,-582.02C1534.67,-584.07 1537.95,-586.4 1541,-589.04 1583.12,-625.47 1535.31,-672.13 1577,-709.04 1653.64,-776.91 1725.33,-682.55 1804,-748.04 1818.81,-760.38 1910.48,-1029.29 1937.2,-1108.36"/>
<polygon fill="#757575" stroke="#757575" points="1934.01,-1109.86 1940.52,-1118.21 1940.64,-1107.62 1934.01,-1109.86"/>
</g>
<!-- src/rendering/Explosion.js -->
<g id="node14" class="node">
<title>src/rendering/Explosion.js</title>
<path fill="none" stroke="#cfffac" d="M1768.33,-505.54C1768.33,-505.54 1612.67,-505.54 1612.67,-505.54 1608.83,-505.54 1605,-501.71 1605,-497.88 1605,-497.88 1605,-490.21 1605,-490.21 1605,-486.38 1608.83,-482.54 1612.67,-482.54 1612.67,-482.54 1768.33,-482.54 1768.33,-482.54 1772.17,-482.54 1776,-486.38 1776,-490.21 1776,-490.21 1776,-497.88 1776,-497.88 1776,-501.71 1772.17,-505.54 1768.33,-505.54"/>
<text text-anchor="middle" x="1690.5" y="-490.34" font-family="Arial" font-size="14.00" fill="#cfffac">src/rendering/Explosion.js</text>
</g>
<!-- src/collisions/collisionHandlers.js&#45;&gt;src/rendering/Explosion.js -->
<g id="edge11" class="edge">
<title>src/collisions/collisionHandlers.js&#45;&gt;src/rendering/Explosion.js</title>
<path fill="none" stroke="#757575" d="M1464.88,-560.53C1511.59,-546.71 1589.97,-523.51 1640.7,-508.49"/>
<polygon fill="#757575" stroke="#757575" points="1641.86,-511.79 1650.46,-505.6 1639.88,-505.08 1641.86,-511.79"/>
</g>
<!-- src/collisions/collisionHandlers.js&#45;&gt;src/rendering/Helpers.js -->
<g id="edge12" class="edge">
<title>src/collisions/collisionHandlers.js&#45;&gt;src/rendering/Helpers.js</title>
<path fill="none" stroke="#757575" d="M1531.24,-568.19C1626.58,-564.69 1765.51,-559.6 1855.46,-556.31"/>
<polygon fill="#757575" stroke="#757575" points="1855.77,-559.8 1865.63,-555.93 1855.51,-552.8 1855.77,-559.8"/>
</g>
<!-- src/collisions/collisionHandlers.js&#45;&gt;src/scores/scores.js -->
<g id="edge13" class="edge">
<title>src/collisions/collisionHandlers.js&#45;&gt;src/scores/scores.js</title>
<path fill="none" stroke="#757575" d="M1513.61,-583.58C1523.41,-587.21 1532.79,-591.93 1541,-598.04 1567.17,-617.54 1550.88,-642.48 1577,-662.04 1587.55,-669.94 1600.1,-675.5 1612.93,-679.4"/>
<polygon fill="#757575" stroke="#757575" points="1612.19,-682.82 1622.76,-682.06 1614.03,-676.07 1612.19,-682.82"/>
</g>
<!-- src/scores/currentGameScore.js -->
<g id="node32" class="node">
<title>src/scores/currentGameScore.js</title>
<path fill="none" stroke="#c6c5fe" d="M2043.33,-819.54C2043.33,-819.54 1847.67,-819.54 1847.67,-819.54 1843.83,-819.54 1840,-815.71 1840,-811.88 1840,-811.88 1840,-804.21 1840,-804.21 1840,-800.38 1843.83,-796.54 1847.67,-796.54 1847.67,-796.54 2043.33,-796.54 2043.33,-796.54 2047.17,-796.54 2051,-800.38 2051,-804.21 2051,-804.21 2051,-811.88 2051,-811.88 2051,-815.71 2047.17,-819.54 2043.33,-819.54"/>
<text text-anchor="middle" x="1945.5" y="-804.34" font-family="Arial" font-size="14.00" fill="#c6c5fe">src/scores/currentGameScore.js</text>
</g>
<!-- src/scores/scores.js&#45;&gt;src/scores/currentGameScore.js -->
<g id="edge63" class="edge">
<title>src/scores/scores.js&#45;&gt;src/scores/currentGameScore.js</title>
<path fill="none" stroke="#757575" d="M1758.22,-699.27C1773.6,-702.99 1789.65,-707.83 1804,-714.04 1849.69,-733.81 1896.52,-768.66 1922.92,-789.92"/>
<polygon fill="#757575" stroke="#757575" points="1920.79,-792.69 1930.75,-796.31 1925.21,-787.27 1920.79,-792.69"/>
</g>
<!-- src/collisions/collisions.js -->
<g id="node17" class="node">
<title>src/collisions/collisions.js</title>
<path fill="none" stroke="#c6c5fe" d="M1227.33,-503.54C1227.33,-503.54 1077.67,-503.54 1077.67,-503.54 1073.83,-503.54 1070,-499.71 1070,-495.88 1070,-495.88 1070,-488.21 1070,-488.21 1070,-484.38 1073.83,-480.54 1077.67,-480.54 1077.67,-480.54 1227.33,-480.54 1227.33,-480.54 1231.17,-480.54 1235,-484.38 1235,-488.21 1235,-488.21 1235,-495.88 1235,-495.88 1235,-499.71 1231.17,-503.54 1227.33,-503.54"/>
<text text-anchor="middle" x="1152.5" y="-488.34" font-family="Arial" font-size="14.00" fill="#c6c5fe">src/collisions/collisions.js</text>
</g>
<!-- src/collisions/collisions.js&#45;&gt;src/gameState.js -->
<g id="edge17" class="edge">
<title>src/collisions/collisions.js&#45;&gt;src/gameState.js</title>
<path fill="none" stroke="#757575" d="M1235.12,-483.03C1433.72,-463.03 1934.42,-424.78 2051,-533.04 2131.53,-607.83 2143.39,-751.33 2144.9,-806.08"/>
<polygon fill="#757575" stroke="#757575" points="2141.4,-806.42 2145.08,-816.36 2148.4,-806.3 2141.4,-806.42"/>
</g>
<!-- src/collisions/collisions.js&#45;&gt;src/weapons/gatling.js -->
<g id="edge18" class="edge">
<title>src/collisions/collisions.js&#45;&gt;src/weapons/gatling.js</title>
<path fill="none" stroke="#757575" d="M1191.16,-503.62C1216.91,-513.15 1250.36,-528.88 1273,-552.04 1299.12,-578.77 1283.13,-601.07 1309,-628.04 1389.64,-712.12 1448.59,-679.1 1541,-750.04 1559.71,-764.41 1558.28,-774.69 1577,-789.04 1599.97,-806.66 1628.96,-821.72 1651.76,-832.21"/>
<polygon fill="#757575" stroke="#757575" points="1650.56,-835.51 1661.11,-836.43 1653.43,-829.13 1650.56,-835.51"/>
</g>
<!-- src/collisions/collisions.js&#45;&gt;src/weapons/rocket.js -->
<g id="edge19" class="edge">
<title>src/collisions/collisions.js&#45;&gt;src/weapons/rocket.js</title>
<path fill="none" stroke="#757575" d="M1235.1,-499.39C1248.74,-503.42 1262.01,-509.36 1273,-518.04 1302.01,-540.97 1279.64,-570.57 1309,-593.04 1392.28,-656.78 1461.7,-567.42 1541,-636.04 1578.62,-668.6 1540.1,-708.67 1577,-742.04 1585.77,-749.97 1596.47,-755.63 1607.75,-759.64"/>
<polygon fill="#757575" stroke="#757575" points="1606.74,-762.99 1617.32,-762.63 1608.82,-756.31 1606.74,-762.99"/>
</g>
<!-- src/collisions/collisions.js&#45;&gt;src/collisions/collisionHandlers.js -->
<g id="edge16" class="edge">
<title>src/collisions/collisions.js&#45;&gt;src/collisions/collisionHandlers.js</title>
<path fill="none" stroke="#757575" d="M1231.03,-503.61C1245.36,-507.22 1259.92,-511.92 1273,-518.04 1291.36,-526.63 1290.68,-537.38 1309,-546.04 1319.02,-550.78 1329.94,-554.68 1340.94,-557.88"/>
<polygon fill="#757575" stroke="#757575" points="1340.04,-561.26 1350.61,-560.51 1341.88,-554.5 1340.04,-561.26"/>
</g>
<!-- src/enemy/enemy.js&#45;&gt;src/gameState.js -->
<g id="edge20" class="edge">
<title>src/enemy/enemy.js&#45;&gt;src/gameState.js</title>
<path fill="none" stroke="#757575" d="M1493.69,-408.64C1637.81,-394.42 1968.58,-370.5 2051,-440.04 2108.19,-488.3 2135.78,-731.16 2143.01,-806.03"/>
<polygon fill="#757575" stroke="#757575" points="2139.55,-806.56 2143.97,-816.19 2146.52,-805.9 2139.55,-806.56"/>
</g>
<!-- src/enemy/enemy.js&#45;&gt;src/music.js -->
<g id="edge21" class="edge">
<title>src/enemy/enemy.js&#45;&gt;src/music.js</title>
<path fill="none" stroke="#757575" d="M1493.73,-414.82C1510.51,-417.39 1527.52,-422.76 1541,-433.04 1572.64,-457.19 1551.49,-484.49 1577,-515.04 1654.98,-608.43 1735.42,-567.55 1804,-668.04 1845.33,-728.61 1819.94,-758.52 1840,-829.04 1870.38,-935.87 1917.38,-1060.27 1936.25,-1108.97"/>
<polygon fill="#757575" stroke="#757575" points="1933.04,-1110.39 1939.93,-1118.44 1939.57,-1107.85 1933.04,-1110.39"/>
</g>
<!-- src/enemy/enemy.js&#45;&gt;src/rendering/Explosion.js -->
<g id="edge22" class="edge">
<title>src/enemy/enemy.js&#45;&gt;src/rendering/Explosion.js</title>
<path fill="none" stroke="#757575" d="M1464.88,-427.55C1511.59,-441.38 1589.97,-464.58 1640.7,-479.6"/>
<polygon fill="#757575" stroke="#757575" points="1639.88,-483 1650.46,-482.49 1641.86,-476.29 1639.88,-483"/>
</g>
<!-- src/enemy/enemy.js&#45;&gt;src/rendering/Helpers.js -->
<g id="edge23" class="edge">
<title>src/enemy/enemy.js&#45;&gt;src/rendering/Helpers.js</title>
<path fill="none" stroke="#757575" d="M1493.64,-419.11C1570.65,-424.26 1699.34,-437.93 1804,-474.04 1847.49,-489.05 1893.07,-517.37 1920.12,-535.71"/>
<polygon fill="#757575" stroke="#757575" points="1918.33,-538.72 1928.55,-541.51 1922.3,-532.96 1918.33,-538.72"/>
</g>
<!-- src/enemy/enemyFactory.js -->
<g id="node19" class="node">
<title>src/enemy/enemyFactory.js</title>
<path fill="none" stroke="#c6c5fe" d="M1235.83,-358.54C1235.83,-358.54 1069.17,-358.54 1069.17,-358.54 1065.33,-358.54 1061.5,-354.71 1061.5,-350.88 1061.5,-350.88 1061.5,-343.21 1061.5,-343.21 1061.5,-339.38 1065.33,-335.54 1069.17,-335.54 1069.17,-335.54 1235.83,-335.54 1235.83,-335.54 1239.67,-335.54 1243.5,-339.38 1243.5,-343.21 1243.5,-343.21 1243.5,-350.88 1243.5,-350.88 1243.5,-354.71 1239.67,-358.54 1235.83,-358.54"/>
<text text-anchor="middle" x="1152.5" y="-343.34" font-family="Arial" font-size="14.00" fill="#c6c5fe">src/enemy/enemyFactory.js</text>
</g>
<!-- src/enemy/enemyFactory.js&#45;&gt;src/weapons/enemyRocketAtack.js -->
<g id="edge27" class="edge">
<title>src/enemy/enemyFactory.js&#45;&gt;src/weapons/enemyRocketAtack.js</title>
<path fill="none" stroke="#757575" d="M1243.52,-345.53C1332.16,-344.04 1468.23,-341.76 1566.76,-340.1"/>
<polygon fill="#757575" stroke="#757575" points="1566.83,-343.6 1576.77,-339.94 1566.72,-336.6 1566.83,-343.6"/>
</g>
<!-- src/enemy/enemyFactory.js&#45;&gt;src/scores/scores.js -->
<g id="edge26" class="edge">
<title>src/enemy/enemyFactory.js&#45;&gt;src/scores/scores.js</title>
<path fill="none" stroke="#757575" d="M1172.91,-358.82C1202.12,-376.41 1259.25,-410.35 1309,-437.04 1410.41,-491.45 1459.48,-470.81 1541,-552.04 1566.34,-577.3 1552.39,-598.08 1577,-624.04 1597.11,-645.26 1625.83,-661.44 1649.21,-672.22"/>
<polygon fill="#757575" stroke="#757575" points="1647.98,-675.5 1658.54,-676.37 1650.83,-669.11 1647.98,-675.5"/>
</g>
<!-- src/enemy/enemyFactory.js&#45;&gt;src/enemy/enemy.js -->
<g id="edge24" class="edge">
<title>src/enemy/enemyFactory.js&#45;&gt;src/enemy/enemy.js</title>
<path fill="none" stroke="#757575" d="M1198.78,-358.59C1245.59,-370.53 1318.72,-389.19 1368.87,-401.98"/>
<polygon fill="#757575" stroke="#757575" points="1368.02,-405.38 1378.58,-404.46 1369.75,-398.59 1368.02,-405.38"/>
</g>
<!-- src/enemy/enemyManoeuvre.js -->
<g id="node20" class="node">
<title>src/enemy/enemyManoeuvre.js</title>
<path fill="none" stroke="#c6c5fe" d="M1520.33,-229.54C1520.33,-229.54 1329.67,-229.54 1329.67,-229.54 1325.83,-229.54 1322,-225.71 1322,-221.88 1322,-221.88 1322,-214.21 1322,-214.21 1322,-210.38 1325.83,-206.54 1329.67,-206.54 1329.67,-206.54 1520.33,-206.54 1520.33,-206.54 1524.17,-206.54 1528,-210.38 1528,-214.21 1528,-214.21 1528,-221.88 1528,-221.88 1528,-225.71 1524.17,-229.54 1520.33,-229.54"/>
<text text-anchor="middle" x="1425" y="-214.34" font-family="Arial" font-size="14.00" fill="#c6c5fe">src/enemy/enemyManoeuvre.js</text>
</g>
<!-- src/enemy/enemyFactory.js&#45;&gt;src/enemy/enemyManoeuvre.js -->
<g id="edge25" class="edge">
<title>src/enemy/enemyFactory.js&#45;&gt;src/enemy/enemyManoeuvre.js</title>
<path fill="none" stroke="#757575" d="M1177.98,-335.37C1226.57,-312.2 1335.22,-260.38 1390.43,-234.05"/>
<polygon fill="#757575" stroke="#757575" points="1392.25,-237.06 1399.77,-229.6 1389.24,-230.74 1392.25,-237.06"/>
</g>
<!-- src/weapons/groundEnemyAttack.js -->
<g id="node21" class="node">
<title>src/weapons/groundEnemyAttack.js</title>
<path fill="none" stroke="#c6c5fe" d="M1533.33,-309.54C1533.33,-309.54 1316.67,-309.54 1316.67,-309.54 1312.83,-309.54 1309,-305.71 1309,-301.88 1309,-301.88 1309,-294.21 1309,-294.21 1309,-290.38 1312.83,-286.54 1316.67,-286.54 1316.67,-286.54 1533.33,-286.54 1533.33,-286.54 1537.17,-286.54 1541,-290.38 1541,-294.21 1541,-294.21 1541,-301.88 1541,-301.88 1541,-305.71 1537.17,-309.54 1533.33,-309.54"/>
<text text-anchor="middle" x="1425" y="-294.34" font-family="Arial" font-size="14.00" fill="#c6c5fe">src/weapons/groundEnemyAttack.js</text>
</g>
<!-- src/enemy/enemyFactory.js&#45;&gt;src/weapons/groundEnemyAttack.js -->
<g id="edge28" class="edge">
<title>src/enemy/enemyFactory.js&#45;&gt;src/weapons/groundEnemyAttack.js</title>
<path fill="none" stroke="#757575" d="M1217.26,-335.49C1257.09,-328.28 1308.52,-318.96 1350.12,-311.43"/>
<polygon fill="#757575" stroke="#757575" points="1350.98,-314.83 1360.2,-309.6 1349.73,-307.94 1350.98,-314.83"/>
</g>
<!-- src/enemy/enemyManoeuvre.js&#45;&gt;src/background.js -->
<g id="edge32" class="edge">
<title>src/enemy/enemyManoeuvre.js&#45;&gt;src/background.js</title>
<path fill="none" stroke="#757575" d="M1501.86,-206.53C1538.83,-200.92 1583,-194.21 1619.2,-188.72"/>
<polygon fill="#757575" stroke="#757575" points="1619.82,-192.16 1629.18,-187.2 1618.77,-185.24 1619.82,-192.16"/>
</g>
<!-- src/weapons/groundEnemyAttack.js&#45;&gt;src/gameState.js -->
<g id="edge80" class="edge">
<title>src/weapons/groundEnemyAttack.js&#45;&gt;src/gameState.js</title>
<path fill="none" stroke="#757575" d="M1541.11,-298.45C1702.48,-301.67 1983.82,-317.82 2051,-390.04 2108.68,-452.05 2136.25,-725.56 2143.2,-805.83"/>
<polygon fill="#757575" stroke="#757575" points="2139.75,-806.55 2144.07,-816.22 2146.72,-805.96 2139.75,-806.55"/>
</g>
<!-- src/weapons/groundEnemyAttack.js&#45;&gt;src/weapons/enemyRocketAtack.js -->
<g id="edge81" class="edge">
<title>src/weapons/groundEnemyAttack.js&#45;&gt;src/weapons/enemyRocketAtack.js</title>
<path fill="none" stroke="#757575" d="M1501.86,-309.56C1533.69,-314.39 1570.86,-320.03 1603.68,-325.02"/>
<polygon fill="#757575" stroke="#757575" points="1603.31,-328.5 1613.72,-326.54 1604.36,-321.58 1603.31,-328.5"/>
</g>
<!-- src/enemy/enemyManager.js&#45;&gt;src/gameState.js -->
<g id="edge30" class="edge">
<title>src/enemy/enemyManager.js&#45;&gt;src/gameState.js</title>
<path fill="none" stroke="#757575" d="M906.01,-340.31C919.35,-307.47 962.11,-214.69 1032,-178.04 1433.84,32.65 1757.81,106.23 2051,-240.04 2125.62,-328.18 2141.59,-710.33 2144.45,-806.18"/>
<polygon fill="#757575" stroke="#757575" points="2140.95,-806.51 2144.73,-816.41 2147.95,-806.31 2140.95,-806.51"/>
</g>
<!-- src/enemy/enemyManager.js&#45;&gt;src/weapons/gatling.js -->
<g id="edge31" class="edge">
<title>src/enemy/enemyManager.js&#45;&gt;src/weapons/gatling.js</title>
<path fill="none" stroke="#757575" d="M906.58,-363.82C925.55,-407.36 993.14,-558.52 1032,-593.04 1056.72,-615 1508.08,-781.54 1648.3,-832.97"/>
<polygon fill="#757575" stroke="#757575" points="1647.25,-836.31 1657.84,-836.47 1649.66,-829.74 1647.25,-836.31"/>
</g>
<!-- src/enemy/enemyManager.js&#45;&gt;src/enemy/enemyFactory.js -->
<g id="edge29" class="edge">
<title>src/enemy/enemyManager.js&#45;&gt;src/enemy/enemyFactory.js</title>
<path fill="none" stroke="#757575" d="M996.01,-350.15C1014.1,-349.79 1033.09,-349.41 1051.34,-349.05"/>
<polygon fill="#757575" stroke="#757575" points="1051.47,-352.54 1061.4,-348.85 1051.33,-345.55 1051.47,-352.54"/>
</g>
<!-- src/keyboard.js&#45;&gt;src/gameState.js -->
<g id="edge51" class="edge">
<title>src/keyboard.js&#45;&gt;src/gameState.js</title>
<path fill="none" stroke="#757575" d="M553.72,-1006.45C569.8,-1009.16 587.56,-1011.7 604,-1013.04 677.09,-1019.03 695.67,-1013.53 769,-1013.04 869.9,-1012.38 895.15,-1013.26 996,-1010.04 1119.21,-1006.12 1150.3,-1007.9 1273,-996.04 1510.3,-973.11 1568.25,-955.52 1804,-920.04 1913.9,-903.5 1946.04,-917.58 2051,-881.04 2075.94,-872.36 2101.91,-857.18 2120.21,-845.28"/>
<polygon fill="#757575" stroke="#757575" points="2122.15,-848.19 2128.55,-839.74 2118.28,-842.36 2122.15,-848.19"/>
</g>
<!-- src/keyboard.js&#45;&gt;src/weapons/rocket.js -->
<g id="edge54" class="edge">
<title>src/keyboard.js&#45;&gt;src/weapons/rocket.js</title>
<path fill="none" stroke="#757575" d="M553.54,-997.63C741.74,-1002.33 1379.59,-1009.43 1541,-896.04 1568.98,-876.39 1552.86,-852.26 1577,-828.04 1596.62,-808.36 1624.06,-793.55 1646.93,-783.57"/>
<polygon fill="#757575" stroke="#757575" points="1648.55,-786.69 1656.41,-779.59 1645.84,-780.23 1648.55,-786.69"/>
</g>
<!-- src/keyboard.js&#45;&gt;src/music.js -->
<g id="edge52" class="edge">
<title>src/keyboard.js&#45;&gt;src/music.js</title>
<path fill="none" stroke="#757575" d="M518.34,-1007.58C538.12,-1020.07 571.9,-1039.36 604,-1048.04 853.12,-1115.46 1673.79,-1127.6 1891.24,-1129.65"/>
<polygon fill="#757575" stroke="#757575" points="1891.4,-1133.15 1901.43,-1129.74 1891.46,-1126.15 1891.4,-1133.15"/>
</g>
<!-- src/gameMenuActions.js -->
<g id="node26" class="node">
<title>src/gameMenuActions.js</title>
<path fill="none" stroke="#c6c5fe" d="M761.33,-926.54C761.33,-926.54 611.67,-926.54 611.67,-926.54 607.83,-926.54 604,-922.71 604,-918.88 604,-918.88 604,-911.21 604,-911.21 604,-907.38 607.83,-903.54 611.67,-903.54 611.67,-903.54 761.33,-903.54 761.33,-903.54 765.17,-903.54 769,-907.38 769,-911.21 769,-911.21 769,-918.88 769,-918.88 769,-922.71 765.17,-926.54 761.33,-926.54"/>
<text text-anchor="middle" x="686.5" y="-911.34" font-family="Arial" font-size="14.00" fill="#c6c5fe">src/gameMenuActions.js</text>
</g>
<!-- src/keyboard.js&#45;&gt;src/gameMenuActions.js -->
<g id="edge50" class="edge">
<title>src/keyboard.js&#45;&gt;src/gameMenuActions.js</title>
<path fill="none" stroke="#757575" d="M517.75,-984.33C537.53,-970.97 571.84,-949.26 604,-936.04 609.77,-933.67 615.87,-931.51 622.05,-929.55"/>
<polygon fill="#757575" stroke="#757575" points="623.19,-932.86 631.76,-926.64 621.18,-926.16 623.19,-932.86"/>
</g>
<!-- src/touch.js -->
<g id="node28" class="node">
<title>src/touch.js</title>
<path fill="none" stroke="#c6c5fe" d="M721.33,-967.54C721.33,-967.54 651.67,-967.54 651.67,-967.54 647.83,-967.54 644,-963.71 644,-959.88 644,-959.88 644,-952.21 644,-952.21 644,-948.38 647.83,-944.54 651.67,-944.54 651.67,-944.54 721.33,-944.54 721.33,-944.54 725.17,-944.54 729,-948.38 729,-952.21 729,-952.21 729,-959.88 729,-959.88 729,-963.71 725.17,-967.54 721.33,-967.54"/>
<text text-anchor="middle" x="686.5" y="-952.34" font-family="Arial" font-size="14.00" fill="#c6c5fe">src/touch.js</text>
</g>
<!-- src/keyboard.js&#45;&gt;src/touch.js -->
<g id="edge53" class="edge">
<title>src/keyboard.js&#45;&gt;src/touch.js</title>
<path fill="none" stroke="#757575" d="M553.87,-984.58C578.95,-979.14 608.82,-972.67 633.75,-967.26"/>
<polygon fill="#757575" stroke="#757575" points="634.72,-970.63 643.75,-965.09 633.24,-963.79 634.72,-970.63"/>
</g>
<!-- src/player/Player.js&#45;&gt;src/gameState.js -->
<g id="edge56" class="edge">
<title>src/player/Player.js&#45;&gt;src/gameState.js</title>
<path fill="none" stroke="#757575" d="M341.72,-1141.58C358.47,-1160.85 394.58,-1199.85 432,-1224.04 620.92,-1346.18 674.54,-1418.04 899.5,-1418.04 899.5,-1418.04 899.5,-1418.04 1691.5,-1418.04 1852.17,-1418.04 1933.85,-1490 2051,-1380.04 2129.93,-1305.96 2142.67,-943 2144.65,-849.86"/>
<polygon fill="#757575" stroke="#757575" points="2148.15,-849.72 2144.84,-839.65 2141.15,-849.58 2148.15,-849.72"/>
</g>
<!-- src/player/Player.js&#45;&gt;src/weapons/gatling.js -->
<g id="edge60" class="edge">
<title>src/player/Player.js&#45;&gt;src/weapons/gatling.js</title>
<path fill="none" stroke="#757575" d="M396.12,-1124.23C466.9,-1118.33 584.23,-1110.04 685.5,-1110.04 685.5,-1110.04 685.5,-1110.04 901.5,-1110.04 1213.65,-1110.04 1561.46,-922.63 1661.32,-864.82"/>
<polygon fill="#757575" stroke="#757575" points="1663.33,-867.7 1670.2,-859.64 1659.8,-861.65 1663.33,-867.7"/>
</g>
<!-- src/player/Player.js&#45;&gt;src/weapons/rocket.js -->
<g id="edge61" class="edge">
<title>src/player/Player.js&#45;&gt;src/weapons/rocket.js</title>
<path fill="none" stroke="#757575" d="M336.81,-1118.45C348.93,-1090.5 383.24,-1018.59 432,-976.04 495.66,-920.49 521.78,-914.53 604,-895.04 705.36,-871.01 1445.61,-904.91 1541,-863.04 1561.43,-854.07 1558.98,-841.2 1577,-828.04 1600.93,-810.57 1630.6,-794.96 1653.46,-784.05"/>
<polygon fill="#757575" stroke="#757575" points="1655.24,-787.08 1662.8,-779.67 1652.26,-780.74 1655.24,-787.08"/>
</g>
<!-- src/player/Player.js&#45;&gt;src/music.js -->
<g id="edge58" class="edge">
<title>src/player/Player.js&#45;&gt;src/music.js</title>
<path fill="none" stroke="#757575" d="M345.49,-1141.69C363.75,-1156.74 398,-1182.52 432,-1195.04 538.62,-1234.31 571.88,-1228.04 685.5,-1228.04 685.5,-1228.04 685.5,-1228.04 901.5,-1228.04 1303.82,-1228.04 1405.98,-1216.66 1804,-1158.04 1833,-1153.77 1865.08,-1147.5 1891.25,-1141.97"/>
<polygon fill="#757575" stroke="#757575" points="1892.29,-1145.33 1901.34,-1139.82 1890.83,-1138.48 1892.29,-1145.33"/>
</g>
<!-- src/player/Player.js&#45;&gt;src/keyboard.js -->
<g id="edge57" class="edge">
<title>src/player/Player.js&#45;&gt;src/keyboard.js</title>
<path fill="none" stroke="#757575" d="M346.53,-1118.39C375.64,-1095.02 441.33,-1042.32 476.22,-1014.32"/>
<polygon fill="#757575" stroke="#757575" points="478.78,-1016.76 484.39,-1007.77 474.4,-1011.3 478.78,-1016.76"/>
</g>
<!-- src/gameOver.js -->
<g id="node27" class="node">
<title>src/gameOver.js</title>
<path fill="none" stroke="#c6c5fe" d="M1202.83,-1199.54C1202.83,-1199.54 1102.17,-1199.54 1102.17,-1199.54 1098.33,-1199.54 1094.5,-1195.71 1094.5,-1191.88 1094.5,-1191.88 1094.5,-1184.21 1094.5,-1184.21 1094.5,-1180.38 1098.33,-1176.54 1102.17,-1176.54 1102.17,-1176.54 1202.83,-1176.54 1202.83,-1176.54 1206.67,-1176.54 1210.5,-1180.38 1210.5,-1184.21 1210.5,-1184.21 1210.5,-1191.88 1210.5,-1191.88 1210.5,-1195.71 1206.67,-1199.54 1202.83,-1199.54"/>
<text text-anchor="middle" x="1152.5" y="-1184.34" font-family="Arial" font-size="14.00" fill="#c6c5fe">src/gameOver.js</text>
</g>
<!-- src/player/Player.js&#45;&gt;src/gameOver.js -->
<g id="edge55" class="edge">
<title>src/player/Player.js&#45;&gt;src/gameOver.js</title>
<path fill="none" stroke="#757575" d="M353.51,-1141.56C373.27,-1151.49 403.72,-1165.12 432,-1171.04 667.47,-1220.34 955.73,-1205.1 1084.18,-1194.52"/>
<polygon fill="#757575" stroke="#757575" points="1084.59,-1197.99 1094.26,-1193.67 1084,-1191.02 1084.59,-1197.99"/>
</g>
<!-- src/weapons/flare.js -->
<g id="node31" class="node">
<title>src/weapons/flare.js</title>
<path fill="none" stroke="#c6c5fe" d="M560.33,-1161.54C560.33,-1161.54 439.67,-1161.54 439.67,-1161.54 435.83,-1161.54 432,-1157.71 432,-1153.88 432,-1153.88 432,-1146.21 432,-1146.21 432,-1142.38 435.83,-1138.54 439.67,-1138.54 439.67,-1138.54 560.33,-1138.54 560.33,-1138.54 564.17,-1138.54 568,-1142.38 568,-1146.21 568,-1146.21 568,-1153.88 568,-1153.88 568,-1157.71 564.17,-1161.54 560.33,-1161.54"/>
<text text-anchor="middle" x="500" y="-1146.34" font-family="Arial" font-size="14.00" fill="#c6c5fe">src/weapons/flare.js</text>
</g>
<!-- src/player/Player.js&#45;&gt;src/weapons/flare.js -->
<g id="edge59" class="edge">
<title>src/player/Player.js&#45;&gt;src/weapons/flare.js</title>
<path fill="none" stroke="#757575" d="M396.09,-1137.72C404.49,-1138.72 413.16,-1139.76 421.74,-1140.79"/>
<polygon fill="#757575" stroke="#757575" points="421.41,-1144.28 431.76,-1141.99 422.25,-1137.33 421.41,-1144.28"/>
</g>
<!-- src/step.js&#45;&gt;src/gameState.js -->
<g id="edge70" class="edge">
<title>src/step.js&#45;&gt;src/gameState.js</title>
<path fill="none" stroke="#757575" d="M906.94,-560.43C928.85,-513.91 1010.46,-342.69 1032,-327.04 1175.13,-223.08 1247.1,-258.04 1424,-258.04 1424,-258.04 1424,-258.04 1691.5,-258.04 1853.42,-258.04 1935.41,-203.66 2051,-317.04 2122.25,-386.94 2140.56,-717.85 2144.21,-806.27"/>
<polygon fill="#757575" stroke="#757575" points="2140.72,-806.61 2144.61,-816.46 2147.72,-806.33 2140.72,-806.61"/>
</g>
<!-- src/step.js&#45;&gt;src/weapons/gatling.js -->
<g id="edge74" class="edge">
<title>src/step.js&#45;&gt;src/weapons/gatling.js</title>
<path fill="none" stroke="#757575" d="M906.22,-583.85C920.09,-617.03 964.11,-711.74 1032,-759.04 1122.83,-822.34 1178.79,-763.9 1273,-822.04 1293.64,-834.78 1286.91,-853.04 1309,-863.04 1420.59,-913.56 1569.97,-883.1 1643.98,-862.41"/>
<polygon fill="#757575" stroke="#757575" points="1645.27,-865.68 1653.92,-859.56 1643.34,-858.95 1645.27,-865.68"/>
</g>
<!-- src/step.js&#45;&gt;src/ammo.js -->
<g id="edge65" class="edge">
<title>src/step.js&#45;&gt;src/ammo.js</title>
<path fill="none" stroke="#757575" d="M910.32,-583.83C929.67,-608.96 978.46,-668.24 1032,-702.04 1128.17,-762.75 1173.3,-733.33 1273,-788.04 1290.77,-797.79 1290.68,-807.38 1309,-816.04 1327.75,-824.91 1349.68,-830.83 1369.33,-834.75"/>
<polygon fill="#757575" stroke="#757575" points="1368.89,-838.23 1379.37,-836.62 1370.18,-831.35 1368.89,-838.23"/>
</g>
<!-- src/step.js&#45;&gt;src/weapons/rocket.js -->
<g id="edge75" class="edge">
<title>src/step.js&#45;&gt;src/weapons/rocket.js</title>
<path fill="none" stroke="#757575" d="M929.4,-560.44C995.19,-535.06 1162.75,-482.27 1273,-552.04 1304.58,-572.03 1282.05,-602.15 1309,-628.04 1402.35,-717.71 1453.92,-701.98 1577,-742.04 1591.02,-746.61 1606.26,-750.69 1620.88,-754.2"/>
<polygon fill="#757575" stroke="#757575" points="1620.33,-757.67 1630.87,-756.53 1621.93,-750.85 1620.33,-757.67"/>
</g>
<!-- src/step.js&#45;&gt;src/background.js -->
<g id="edge66" class="edge">
<title>src/step.js&#45;&gt;src/background.js</title>
<path fill="none" stroke="#757575" d="M907.99,-560.24C924.46,-529.91 968.55,-446.48 996,-373.04 1016.84,-317.29 987.78,-283.89 1032,-244.04 1116.88,-167.57 1467.68,-170.14 1619.24,-175.05"/>
<polygon fill="#757575" stroke="#757575" points="1619.25,-178.55 1629.36,-175.39 1619.49,-171.56 1619.25,-178.55"/>
</g>
<!-- src/step.js&#45;&gt;src/collisions/collisions.js -->
<g id="edge67" class="edge">
<title>src/step.js&#45;&gt;src/collisions/collisions.js</title>
<path fill="none" stroke="#757575" d="M926.03,-560.35C951.9,-548.38 994.09,-529.91 1032,-518.04 1046.79,-513.41 1062.87,-509.31 1078.29,-505.81"/>
<polygon fill="#757575" stroke="#757575" points="1079.3,-509.17 1088.31,-503.6 1077.79,-502.34 1079.3,-509.17"/>
</g>
<!-- src/step.js&#45;&gt;src/enemy/enemy.js -->
<g id="edge68" class="edge">
<title>src/step.js&#45;&gt;src/enemy/enemy.js</title>
<path fill="none" stroke="#757575" d="M912.42,-560.4C933.33,-538.91 981.48,-493.28 1032,-472.04 1087.17,-448.86 1248.58,-431.31 1346.23,-422.45"/>
<polygon fill="#757575" stroke="#757575" points="1346.7,-425.92 1356.35,-421.55 1346.08,-418.95 1346.7,-425.92"/>
</g>
<!-- src/step.js&#45;&gt;src/gameOver.js -->
<g id="edge69" class="edge">
<title>src/step.js&#45;&gt;src/gameOver.js</title>
<path fill="none" stroke="#757575" d="M906.27,-583.8C936.62,-658.58 1102.78,-1067.99 1142.82,-1166.65"/>
<polygon fill="#757575" stroke="#757575" points="1139.68,-1168.21 1146.68,-1176.16 1146.16,-1165.58 1139.68,-1168.21"/>
</g>
<!-- src/mobile/mobileVelocityController.js -->
<g id="node29" class="node">
<title>src/mobile/mobileVelocityController.js</title>
<path fill="none" stroke="#cfffac" d="M1265.33,-583.54C1265.33,-583.54 1039.67,-583.54 1039.67,-583.54 1035.83,-583.54 1032,-579.71 1032,-575.88 1032,-575.88 1032,-568.21 1032,-568.21 1032,-564.38 1035.83,-560.54 1039.67,-560.54 1039.67,-560.54 1265.33,-560.54 1265.33,-560.54 1269.17,-560.54 1273,-564.38 1273,-568.21 1273,-568.21 1273,-575.88 1273,-575.88 1273,-579.71 1269.17,-583.54 1265.33,-583.54"/>
<text text-anchor="middle" x="1152.5" y="-568.34" font-family="Arial" font-size="14.00" fill="#cfffac">src/mobile/mobileVelocityController.js</text>
</g>
<!-- src/step.js&#45;&gt;src/mobile/mobileVelocityController.js -->
<g id="edge71" class="edge">
<title>src/step.js&#45;&gt;src/mobile/mobileVelocityController.js</title>
<path fill="none" stroke="#757575" d="M939.2,-572.04C961.56,-572.04 991.38,-572.04 1021.58,-572.04"/>
<polygon fill="#757575" stroke="#757575" points="1021.82,-575.54 1031.82,-572.04 1021.82,-568.54 1021.82,-575.54"/>
</g>
<!-- src/mobileJoystick.js -->
<g id="node30" class="node">
<title>src/mobileJoystick.js</title>
<path fill="none" stroke="#cfffac" d="M1214.83,-853.54C1214.83,-853.54 1090.17,-853.54 1090.17,-853.54 1086.33,-853.54 1082.5,-849.71 1082.5,-845.88 1082.5,-845.88 1082.5,-838.21 1082.5,-838.21 1082.5,-834.38 1086.33,-830.54 1090.17,-830.54 1090.17,-830.54 1214.83,-830.54 1214.83,-830.54 1218.67,-830.54 1222.5,-834.38 1222.5,-838.21 1222.5,-838.21 1222.5,-845.88 1222.5,-845.88 1222.5,-849.71 1218.67,-853.54 1214.83,-853.54"/>
<text text-anchor="middle" x="1152.5" y="-838.34" font-family="Arial" font-size="14.00" fill="#cfffac">src/mobileJoystick.js</text>
</g>
<!-- src/step.js&#45;&gt;src/mobileJoystick.js -->
<g id="edge72" class="edge">
<title>src/step.js&#45;&gt;src/mobileJoystick.js</title>
<path fill="none" stroke="#757575" d="M904.06,-583.75C913.39,-623.4 949.4,-753.64 1032,-816.04 1043.77,-824.93 1057.95,-830.91 1072.37,-834.91"/>
<polygon fill="#757575" stroke="#757575" points="1071.81,-838.38 1082.36,-837.37 1073.49,-831.58 1071.81,-838.38"/>
</g>
<!-- src/step.js&#45;&gt;src/scores/currentGameScore.js -->
<g id="edge73" class="edge">
<title>src/step.js&#45;&gt;src/scores/currentGameScore.js</title>
<path fill="none" stroke="#757575" d="M933.8,-583.65C1049.77,-625.14 1445.24,-764.9 1577,-789.04 1660.73,-804.39 1756.84,-808.91 1829.78,-809.71"/>
<polygon fill="#757575" stroke="#757575" points="1829.88,-813.21 1839.91,-809.8 1829.94,-806.21 1829.88,-813.21"/>
</g>
<!-- src/gameMenuActions.js&#45;&gt;src/gameState.js -->
<g id="edge46" class="edge">
<title>src/gameMenuActions.js&#45;&gt;src/gameState.js</title>
<path fill="none" stroke="#757575" d="M769.23,-920.82C839,-925.45 942.03,-931.56 1032,-934.04 1486.25,-946.56 1603.03,-926.35 2051,-850.04 2064.03,-847.82 2077.96,-844.88 2091,-841.87"/>
<polygon fill="#757575" stroke="#757575" points="2091.83,-845.27 2100.76,-839.57 2090.22,-838.46 2091.83,-845.27"/>
</g>
<!-- src/gameMenuActions.js&#45;&gt;src/step.js -->
<g id="edge47" class="edge">
<title>src/gameMenuActions.js&#45;&gt;src/step.js</title>
<path fill="none" stroke="#757575" d="M694.8,-903.24C725.82,-853.04 847,-656.99 886.77,-592.63"/>
<polygon fill="#757575" stroke="#757575" points="889.95,-594.15 892.23,-583.8 884,-590.47 889.95,-594.15"/>
</g>
<!-- src/gameOver.js&#45;&gt;src/levelCompleteScreen.js -->
<g id="edge48" class="edge">
<title>src/gameOver.js&#45;&gt;src/levelCompleteScreen.js</title>
<path fill="none" stroke="#757575" d="M1180.93,-1199.6C1229.83,-1220.21 1332.12,-1263.32 1387.13,-1286.5"/>
<polygon fill="#757575" stroke="#757575" points="1385.93,-1289.8 1396.5,-1290.45 1388.65,-1283.35 1385.93,-1289.8"/>
</g>
<!-- src/gameOver.js&#45;&gt;src/music.js -->
<g id="edge49" class="edge">
<title>src/gameOver.js&#45;&gt;src/music.js</title>
<path fill="none" stroke="#757575" d="M1210.69,-1181.65C1240.05,-1178.5 1276.41,-1174.8 1309,-1172.04 1524.61,-1153.83 1781.92,-1138.92 1891.2,-1132.91"/>
<polygon fill="#757575" stroke="#757575" points="1891.51,-1136.39 1901.31,-1132.35 1891.13,-1129.4 1891.51,-1136.39"/>
</g>
<!-- src/touch.js&#45;&gt;src/mobileJoystick.js -->
<g id="edge76" class="edge">
<title>src/touch.js&#45;&gt;src/mobileJoystick.js</title>
<path fill="none" stroke="#757575" d="M729.38,-945.77C742.1,-942.65 756.12,-939.21 769,-936.04 884.59,-907.66 1019.83,-874.41 1094.56,-856.04"/>
<polygon fill="#757575" stroke="#757575" points="1095.81,-859.34 1104.69,-853.55 1094.14,-852.54 1095.81,-859.34"/>
</g>
<!-- src/weapons/flare.js&#45;&gt;src/gameState.js -->
<g id="edge77" class="edge">
<title>src/weapons/flare.js&#45;&gt;src/gameState.js</title>
<path fill="none" stroke="#757575" d="M568.15,-1151.18C861.94,-1156.01 2020.94,-1173.61 2051,-1151.04 2100.57,-1113.85 2132.55,-916.35 2142.04,-849.89"/>
<polygon fill="#757575" stroke="#757575" points="2145.54,-850.11 2143.46,-839.72 2138.61,-849.14 2145.54,-850.11"/>
</g>
<!-- src/scores/currentGameScore.js&#45;&gt;src/gameState.js -->
<g id="edge62" class="edge">
<title>src/scores/currentGameScore.js&#45;&gt;src/gameState.js</title>
<path fill="none" stroke="#757575" d="M2051.27,-818.6C2059.86,-819.46 2068.39,-820.32 2076.6,-821.15"/>
<polygon fill="#757575" stroke="#757575" points="2076.52,-824.66 2086.82,-822.18 2077.22,-817.7 2076.52,-824.66"/>
</g>
</g>
</svg>
