<?xml version="1.0" encoding="UTF-8" standalone="no"?>
<!DOCTYPE svg PUBLIC "-//W3C//DTD SVG 1.1//EN"
 "http://www.w3.org/Graphics/SVG/1.1/DTD/svg11.dtd">
<!-- Generated by graphviz version 2.43.0 (0)
 -->
<!-- Title: G Pages: 1 -->
<svg width="1958pt" height="870pt"
 viewBox="0.00 0.00 1958.20 870.42" xmlns="http://www.w3.org/2000/svg" xmlns:xlink="http://www.w3.org/1999/xlink">
<g id="graph0" class="graph" transform="scale(1 1) rotate(0) translate(21.6 848.82)">
<title>G</title>
<polygon fill="#111111" stroke="transparent" points="-21.6,21.6 -21.6,-848.82 1936.6,-848.82 1936.6,21.6 -21.6,21.6"/>
<!-- app.js -->
<g id="node1" class="node">
<title>app.js</title>
<path fill="none" stroke="#c6c5fe" d="M46.33,-384.22C46.33,-384.22 7.67,-384.22 7.67,-384.22 3.83,-384.22 0,-380.39 0,-376.55 0,-376.55 0,-368.89 0,-368.89 0,-365.05 3.83,-361.22 7.67,-361.22 7.67,-361.22 46.33,-361.22 46.33,-361.22 50.17,-361.22 54,-365.05 54,-368.89 54,-368.89 54,-376.55 54,-376.55 54,-380.39 50.17,-384.22 46.33,-384.22"/>
<text text-anchor="middle" x="27" y="-369.02" font-family="Arial" font-size="14.00" fill="#c6c5fe">app.js</text>
</g>
<!-- src/gameManager.js -->
<g id="node2" class="node">
<title>src/gameManager.js</title>
<path fill="none" stroke="#c6c5fe" d="M222.33,-364.22C222.33,-364.22 97.67,-364.22 97.67,-364.22 93.83,-364.22 90,-360.39 90,-356.55 90,-356.55 90,-348.89 90,-348.89 90,-345.05 93.83,-341.22 97.67,-341.22 97.67,-341.22 222.33,-341.22 222.33,-341.22 226.17,-341.22 230,-345.05 230,-348.89 230,-348.89 230,-356.55 230,-356.55 230,-360.39 226.17,-364.22 222.33,-364.22"/>
<text text-anchor="middle" x="160" y="-349.02" font-family="Arial" font-size="14.00" fill="#c6c5fe">src/gameManager.js</text>
</g>
<!-- app.js&#45;&gt;src/gameManager.js -->
<g id="edge1" class="edge">
<title>app.js&#45;&gt;src/gameManager.js</title>
<path fill="none" stroke="#757575" d="M54.19,-368.72C61.87,-367.55 70.69,-366.2 79.89,-364.8"/>
<polygon fill="#757575" stroke="#757575" points="80.62,-368.23 89.97,-363.26 79.56,-361.31 80.62,-368.23"/>
</g>
<!-- src/startScreen.js -->
<g id="node3" class="node">
<title>src/startScreen.js</title>
<path fill="none" stroke="#c6c5fe" d="M379.33,-827.22C379.33,-827.22 273.67,-827.22 273.67,-827.22 269.83,-827.22 266,-823.39 266,-819.55 266,-819.55 266,-811.89 266,-811.89 266,-808.05 269.83,-804.22 273.67,-804.22 273.67,-804.22 379.33,-804.22 379.33,-804.22 383.17,-804.22 387,-808.05 387,-811.89 387,-811.89 387,-819.55 387,-819.55 387,-823.39 383.17,-827.22 379.33,-827.22"/>
<text text-anchor="middle" x="326.5" y="-812.02" font-family="Arial" font-size="14.00" fill="#c6c5fe">src/startScreen.js</text>
</g>
<!-- app.js&#45;&gt;src/startScreen.js -->
<g id="edge2" class="edge">
<title>app.js&#45;&gt;src/startScreen.js</title>
<path fill="none" stroke="#757575" d="M31.6,-384.43C48.71,-438.25 126.81,-664.64 266,-789.72 270.14,-793.44 274.9,-796.69 279.88,-799.52"/>
<polygon fill="#757575" stroke="#757575" points="278.5,-802.75 289,-804.16 281.67,-796.51 278.5,-802.75"/>
</g>
<!-- src/Boss.js -->
<g id="node4" class="node">
<title>src/Boss.js</title>
<path fill="none" stroke="#c6c5fe" d="M698.33,-548.22C698.33,-548.22 631.67,-548.22 631.67,-548.22 627.83,-548.22 624,-544.39 624,-540.55 624,-540.55 624,-532.89 624,-532.89 624,-529.05 627.83,-525.22 631.67,-525.22 631.67,-525.22 698.33,-525.22 698.33,-525.22 702.17,-525.22 706,-529.05 706,-532.89 706,-532.89 706,-540.55 706,-540.55 706,-544.39 702.17,-548.22 698.33,-548.22"/>
<text text-anchor="middle" x="665" y="-533.02" font-family="Arial" font-size="14.00" fill="#c6c5fe">src/Boss.js</text>
</g>
<!-- src/gameManager.js&#45;&gt;src/Boss.js -->
<g id="edge10" class="edge">
<title>src/gameManager.js&#45;&gt;src/Boss.js</title>
<path fill="none" stroke="#757575" d="M165.99,-364.53C178.33,-392.1 213.16,-460.62 266,-490.72 377.21,-554.06 534.15,-550.11 613.64,-542.88"/>
<polygon fill="#757575" stroke="#757575" points="614.25,-546.34 623.87,-541.9 613.58,-539.37 614.25,-546.34"/>
</g>
<!-- src/enemy.js -->
<g id="node5" class="node">
<title>src/enemy.js</title>
<path fill="none" stroke="#c6c5fe" d="M841.33,-518.22C841.33,-518.22 764.67,-518.22 764.67,-518.22 760.83,-518.22 757,-514.39 757,-510.55 757,-510.55 757,-502.89 757,-502.89 757,-499.05 760.83,-495.22 764.67,-495.22 764.67,-495.22 841.33,-495.22 841.33,-495.22 845.17,-495.22 849,-499.05 849,-502.89 849,-502.89 849,-510.55 849,-510.55 849,-514.39 845.17,-518.22 841.33,-518.22"/>
<text text-anchor="middle" x="803" y="-503.02" font-family="Arial" font-size="14.00" fill="#c6c5fe">src/enemy.js</text>
</g>
<!-- src/gameManager.js&#45;&gt;src/enemy.js -->
<g id="edge13" class="edge">
<title>src/gameManager.js&#45;&gt;src/enemy.js</title>
<path fill="none" stroke="#757575" d="M189.61,-364.28C237.28,-383.15 336.3,-420.67 423,-442.72 536.49,-471.59 672.49,-490.95 746.8,-500.28"/>
<polygon fill="#757575" stroke="#757575" points="746.52,-503.77 756.87,-501.53 747.38,-496.82 746.52,-503.77"/>
</g>
<!-- src/levelCompleteScreen.js -->
<g id="node7" class="node">
<title>src/levelCompleteScreen.js</title>
<path fill="none" stroke="#cfffac" d="M1907.33,-597.22C1907.33,-597.22 1741.67,-597.22 1741.67,-597.22 1737.83,-597.22 1734,-593.39 1734,-589.55 1734,-589.55 1734,-581.89 1734,-581.89 1734,-578.05 1737.83,-574.22 1741.67,-574.22 1741.67,-574.22 1907.33,-574.22 1907.33,-574.22 1911.17,-574.22 1915,-578.05 1915,-581.89 1915,-581.89 1915,-589.55 1915,-589.55 1915,-593.39 1911.17,-597.22 1907.33,-597.22"/>
<text text-anchor="middle" x="1824.5" y="-582.02" font-family="Arial" font-size="14.00" fill="#cfffac">src/levelCompleteScreen.js</text>
</g>
<!-- src/gameManager.js&#45;&gt;src/levelCompleteScreen.js -->
<g id="edge15" class="edge">
<title>src/gameManager.js&#45;&gt;src/levelCompleteScreen.js</title>
<path fill="none" stroke="#757575" d="M164.67,-364.24C185.87,-428.3 298.92,-737.72 504.5,-737.72 504.5,-737.72 504.5,-737.72 804,-737.72 1176.17,-737.72 1616.49,-637.4 1768.61,-599.76"/>
<polygon fill="#757575" stroke="#757575" points="1769.78,-603.08 1778.64,-597.27 1768.09,-596.29 1769.78,-603.08"/>
</g>
<!-- src/ammo.js -->
<g id="node8" class="node">
<title>src/ammo.js</title>
<path fill="none" stroke="#c6c5fe" d="M1066.83,-283.22C1066.83,-283.22 991.17,-283.22 991.17,-283.22 987.33,-283.22 983.5,-279.39 983.5,-275.55 983.5,-275.55 983.5,-267.89 983.5,-267.89 983.5,-264.05 987.33,-260.22 991.17,-260.22 991.17,-260.22 1066.83,-260.22 1066.83,-260.22 1070.67,-260.22 1074.5,-264.05 1074.5,-267.89 1074.5,-267.89 1074.5,-275.55 1074.5,-275.55 1074.5,-279.39 1070.67,-283.22 1066.83,-283.22"/>
<text text-anchor="middle" x="1029" y="-268.02" font-family="Arial" font-size="14.00" fill="#c6c5fe">src/ammo.js</text>
</g>
<!-- src/gameManager.js&#45;&gt;src/ammo.js -->
<g id="edge11" class="edge">
<title>src/gameManager.js&#45;&gt;src/ammo.js</title>
<path fill="none" stroke="#757575" d="M177.42,-341.06C217.2,-313.61 322.85,-245.36 423,-220.72 613.34,-173.9 670.63,-183.62 864,-215.72 910.13,-223.38 960.7,-242.38 993.31,-256.13"/>
<polygon fill="#757575" stroke="#757575" points="992.26,-259.48 1002.83,-260.21 995.02,-253.05 992.26,-259.48"/>
</g>
<!-- src/background.js -->
<g id="node10" class="node">
<title>src/background.js</title>
<path fill="none" stroke="#cfffac" d="M856.33,-248.22C856.33,-248.22 749.67,-248.22 749.67,-248.22 745.83,-248.22 742,-244.39 742,-240.55 742,-240.55 742,-232.89 742,-232.89 742,-229.05 745.83,-225.22 749.67,-225.22 749.67,-225.22 856.33,-225.22 856.33,-225.22 860.17,-225.22 864,-229.05 864,-232.89 864,-232.89 864,-240.55 864,-240.55 864,-244.39 860.17,-248.22 856.33,-248.22"/>
<text text-anchor="middle" x="803" y="-233.02" font-family="Arial" font-size="14.00" fill="#cfffac">src/background.js</text>
</g>
<!-- src/gameManager.js&#45;&gt;src/background.js -->
<g id="edge12" class="edge">
<title>src/gameManager.js&#45;&gt;src/background.js</title>
<path fill="none" stroke="#757575" d="M188.32,-341.04C209.32,-332.31 239.2,-320.42 266,-311.72 334.59,-289.46 351.95,-283.1 423,-270.72 529.82,-252.11 655.46,-243.39 731.88,-239.52"/>
<polygon fill="#757575" stroke="#757575" points="732.05,-243.02 741.86,-239.03 731.7,-236.03 732.05,-243.02"/>
</g>
<!-- src/keyboard.js -->
<g id="node12" class="node">
<title>src/keyboard.js</title>
<path fill="none" stroke="#c6c5fe" d="M372.33,-344.22C372.33,-344.22 280.67,-344.22 280.67,-344.22 276.83,-344.22 273,-340.39 273,-336.55 273,-336.55 273,-328.89 273,-328.89 273,-325.05 276.83,-321.22 280.67,-321.22 280.67,-321.22 372.33,-321.22 372.33,-321.22 376.17,-321.22 380,-325.05 380,-328.89 380,-328.89 380,-336.55 380,-336.55 380,-340.39 376.17,-344.22 372.33,-344.22"/>
<text text-anchor="middle" x="326.5" y="-329.02" font-family="Arial" font-size="14.00" fill="#c6c5fe">src/keyboard.js</text>
</g>
<!-- src/gameManager.js&#45;&gt;src/keyboard.js -->
<g id="edge14" class="edge">
<title>src/gameManager.js&#45;&gt;src/keyboard.js</title>
<path fill="none" stroke="#757575" d="M230.29,-344.3C241.07,-342.99 252.15,-341.64 262.77,-340.35"/>
<polygon fill="#757575" stroke="#757575" points="263.29,-343.81 272.79,-339.13 262.44,-336.86 263.29,-343.81"/>
</g>
<!-- src/music.js -->
<g id="node13" class="node">
<title>src/music.js</title>
<path fill="none" stroke="#cfffac" d="M1860.83,-730.22C1860.83,-730.22 1788.17,-730.22 1788.17,-730.22 1784.33,-730.22 1780.5,-726.39 1780.5,-722.55 1780.5,-722.55 1780.5,-714.89 1780.5,-714.89 1780.5,-711.05 1784.33,-707.22 1788.17,-707.22 1788.17,-707.22 1860.83,-707.22 1860.83,-707.22 1864.67,-707.22 1868.5,-711.05 1868.5,-714.89 1868.5,-714.89 1868.5,-722.55 1868.5,-722.55 1868.5,-726.39 1864.67,-730.22 1860.83,-730.22"/>
<text text-anchor="middle" x="1824.5" y="-715.02" font-family="Arial" font-size="14.00" fill="#cfffac">src/music.js</text>
</g>
<!-- src/gameManager.js&#45;&gt;src/music.js -->
<g id="edge16" class="edge">
<title>src/gameManager.js&#45;&gt;src/music.js</title>
<path fill="none" stroke="#757575" d="M165.79,-364.55C177.4,-393.41 207.74,-469.83 230,-534.72 247.65,-586.18 232.23,-609.06 266,-651.72 340.15,-745.39 385.03,-775.72 504.5,-775.72 504.5,-775.72 504.5,-775.72 1467,-775.72 1575.88,-775.72 1701.14,-749.48 1770.42,-732.6"/>
<polygon fill="#757575" stroke="#757575" points="1771.36,-735.98 1780.23,-730.19 1769.68,-729.18 1771.36,-735.98"/>
</g>
<!-- src/player/Player.js -->
<g id="node14" class="node">
<title>src/player/Player.js</title>
<path fill="none" stroke="#c6c5fe" d="M1523.33,-321.22C1523.33,-321.22 1408.67,-321.22 1408.67,-321.22 1404.83,-321.22 1401,-317.39 1401,-313.55 1401,-313.55 1401,-305.89 1401,-305.89 1401,-302.05 1404.83,-298.22 1408.67,-298.22 1408.67,-298.22 1523.33,-298.22 1523.33,-298.22 1527.17,-298.22 1531,-302.05 1531,-305.89 1531,-305.89 1531,-313.55 1531,-313.55 1531,-317.39 1527.17,-321.22 1523.33,-321.22"/>
<text text-anchor="middle" x="1466" y="-306.02" font-family="Arial" font-size="14.00" fill="#c6c5fe">src/player/Player.js</text>
</g>
<!-- src/gameManager.js&#45;&gt;src/player/Player.js -->
<g id="edge17" class="edge">
<title>src/gameManager.js&#45;&gt;src/player/Player.js</title>
<path fill="none" stroke="#757575" d="M167.8,-341.12C199.03,-289.44 334.59,-82.72 504.5,-82.72 504.5,-82.72 504.5,-82.72 804,-82.72 1060.14,-82.72 1139.65,-92.95 1365,-214.72 1400.15,-233.71 1431.96,-268.31 1449.85,-290.09"/>
<polygon fill="#757575" stroke="#757575" points="1447.23,-292.42 1456.22,-298.03 1452.69,-288.04 1447.23,-292.42"/>
</g>
<!-- src/rendering/Helpers.js -->
<g id="node15" class="node">
<title>src/rendering/Helpers.js</title>
<path fill="none" stroke="#cfffac" d="M1896.33,-321.22C1896.33,-321.22 1752.67,-321.22 1752.67,-321.22 1748.83,-321.22 1745,-317.39 1745,-313.55 1745,-313.55 1745,-305.89 1745,-305.89 1745,-302.05 1748.83,-298.22 1752.67,-298.22 1752.67,-298.22 1896.33,-298.22 1896.33,-298.22 1900.17,-298.22 1904,-302.05 1904,-305.89 1904,-305.89 1904,-313.55 1904,-313.55 1904,-317.39 1900.17,-321.22 1896.33,-321.22"/>
<text text-anchor="middle" x="1824.5" y="-306.02" font-family="Arial" font-size="14.00" fill="#cfffac">src/rendering/Helpers.js</text>
</g>
<!-- src/gameManager.js&#45;&gt;src/rendering/Helpers.js -->
<g id="edge18" class="edge">
<title>src/gameManager.js&#45;&gt;src/rendering/Helpers.js</title>
<path fill="none" stroke="#757575" d="M161.05,-341.01C161.95,-295.18 171.75,-126.63 266,-46.72 347.98,22.78 397.02,-6.72 504.5,-6.72 504.5,-6.72 504.5,-6.72 1467,-6.72 1641.97,-6.72 1774.89,-221.25 1812.65,-289.28"/>
<polygon fill="#757575" stroke="#757575" points="1809.66,-291.11 1817.52,-298.21 1815.81,-287.76 1809.66,-291.11"/>
</g>
<!-- src/speedometer.js -->
<g id="node16" class="node">
<title>src/speedometer.js</title>
<path fill="none" stroke="#cfffac" d="M1690.33,-169.22C1690.33,-169.22 1574.67,-169.22 1574.67,-169.22 1570.83,-169.22 1567,-165.39 1567,-161.55 1567,-161.55 1567,-153.89 1567,-153.89 1567,-150.05 1570.83,-146.22 1574.67,-146.22 1574.67,-146.22 1690.33,-146.22 1690.33,-146.22 1694.17,-146.22 1698,-150.05 1698,-153.89 1698,-153.89 1698,-161.55 1698,-161.55 1698,-165.39 1694.17,-169.22 1690.33,-169.22"/>
<text text-anchor="middle" x="1632.5" y="-154.02" font-family="Arial" font-size="14.00" fill="#cfffac">src/speedometer.js</text>
</g>
<!-- src/gameManager.js&#45;&gt;src/speedometer.js -->
<g id="edge19" class="edge">
<title>src/gameManager.js&#45;&gt;src/speedometer.js</title>
<path fill="none" stroke="#757575" d="M162.55,-341.17C168.35,-302.61 192.36,-177.05 266,-112.72 349.01,-40.2 394.28,-44.72 504.5,-44.72 504.5,-44.72 504.5,-44.72 1280.5,-44.72 1404.82,-44.72 1542.5,-109.74 1601.74,-141.14"/>
<polygon fill="#757575" stroke="#757575" points="1600.42,-144.4 1610.88,-146.05 1603.73,-138.24 1600.42,-144.4"/>
</g>
<!-- src/step.js -->
<g id="node17" class="node">
<title>src/step.js</title>
<path fill="none" stroke="#c6c5fe" d="M695.83,-364.22C695.83,-364.22 634.17,-364.22 634.17,-364.22 630.33,-364.22 626.5,-360.39 626.5,-356.55 626.5,-356.55 626.5,-348.89 626.5,-348.89 626.5,-345.05 630.33,-341.22 634.17,-341.22 634.17,-341.22 695.83,-341.22 695.83,-341.22 699.67,-341.22 703.5,-345.05 703.5,-348.89 703.5,-348.89 703.5,-356.55 703.5,-356.55 703.5,-360.39 699.67,-364.22 695.83,-364.22"/>
<text text-anchor="middle" x="665" y="-349.02" font-family="Arial" font-size="14.00" fill="#c6c5fe">src/step.js</text>
</g>
<!-- src/gameManager.js&#45;&gt;src/step.js -->
<g id="edge20" class="edge">
<title>src/gameManager.js&#45;&gt;src/step.js</title>
<path fill="none" stroke="#757575" d="M230.15,-352.72C333.76,-352.72 526.66,-352.72 616.13,-352.72"/>
<polygon fill="#757575" stroke="#757575" points="616.26,-356.22 626.26,-352.72 616.26,-349.22 616.26,-356.22"/>
</g>
<!-- src/startScreen.js&#45;&gt;src/music.js -->
<g id="edge42" class="edge">
<title>src/startScreen.js&#45;&gt;src/music.js</title>
<path fill="none" stroke="#757575" d="M387.07,-815.44C454.32,-815.14 567.02,-814.72 664,-814.72 664,-814.72 664,-814.72 1467,-814.72 1570.27,-814.72 1599.7,-821.35 1698,-789.72 1735.99,-777.5 1775.33,-752.96 1799.61,-736.19"/>
<polygon fill="#757575" stroke="#757575" points="1801.68,-739.02 1807.85,-730.4 1797.65,-733.29 1801.68,-739.02"/>
</g>
<!-- src/Boss.js&#45;&gt;src/enemy.js -->
<g id="edge3" class="edge">
<title>src/Boss.js&#45;&gt;src/enemy.js</title>
<path fill="none" stroke="#757575" d="M706.07,-527.88C718.93,-525.04 733.41,-521.85 747.14,-518.82"/>
<polygon fill="#757575" stroke="#757575" points="747.96,-522.22 756.97,-516.65 746.45,-515.39 747.96,-522.22"/>
</g>
<!-- src/gatling.js -->
<g id="node6" class="node">
<title>src/gatling.js</title>
<path fill="none" stroke="#c6c5fe" d="M1317.83,-401.22C1317.83,-401.22 1241.17,-401.22 1241.17,-401.22 1237.33,-401.22 1233.5,-397.39 1233.5,-393.55 1233.5,-393.55 1233.5,-385.89 1233.5,-385.89 1233.5,-382.05 1237.33,-378.22 1241.17,-378.22 1241.17,-378.22 1317.83,-378.22 1317.83,-378.22 1321.67,-378.22 1325.5,-382.05 1325.5,-385.89 1325.5,-385.89 1325.5,-393.55 1325.5,-393.55 1325.5,-397.39 1321.67,-401.22 1317.83,-401.22"/>
<text text-anchor="middle" x="1279.5" y="-386.02" font-family="Arial" font-size="14.00" fill="#c6c5fe">src/gatling.js</text>
</g>
<!-- src/Boss.js&#45;&gt;src/gatling.js -->
<g id="edge4" class="edge">
<title>src/Boss.js&#45;&gt;src/gatling.js</title>
<path fill="none" stroke="#757575" d="M706.29,-535.92C746.37,-534.83 809.56,-532.34 864,-526.72 896.89,-523.33 1131.46,-500.45 1158,-480.72 1187.67,-458.66 1164.68,-428.25 1194,-405.72 1202.43,-399.24 1212.72,-395.13 1223.17,-392.57"/>
<polygon fill="#757575" stroke="#757575" points="1224.06,-395.96 1233.18,-390.56 1222.69,-389.09 1224.06,-395.96"/>
</g>
<!-- src/Boss.js&#45;&gt;src/levelCompleteScreen.js -->
<g id="edge5" class="edge">
<title>src/Boss.js&#45;&gt;src/levelCompleteScreen.js</title>
<path fill="none" stroke="#757575" d="M700.79,-548.25C746.07,-562.66 827.94,-586.63 900,-596.72 1197.22,-638.33 1553.51,-613.21 1723.59,-596.7"/>
<polygon fill="#757575" stroke="#757575" points="1724.17,-600.16 1733.78,-595.7 1723.49,-593.19 1724.17,-600.16"/>
</g>
<!-- src/enemy.js&#45;&gt;src/gatling.js -->
<g id="edge8" class="edge">
<title>src/enemy.js&#45;&gt;src/gatling.js</title>
<path fill="none" stroke="#757575" d="M849.14,-499.13C941.36,-483.54 1143.88,-448.87 1158,-442.72 1176.33,-434.73 1176.18,-424.8 1194,-415.72 1203.22,-411.02 1213.45,-407 1223.52,-403.61"/>
<polygon fill="#757575" stroke="#757575" points="1224.61,-406.94 1233.08,-400.56 1222.49,-400.27 1224.61,-406.94"/>
</g>
<!-- src/rendering/EnemyCollisionsChecks.js -->
<g id="node11" class="node">
<title>src/rendering/EnemyCollisionsChecks.js</title>
<path fill="none" stroke="#c6c5fe" d="M1150.33,-556.22C1150.33,-556.22 907.67,-556.22 907.67,-556.22 903.83,-556.22 900,-552.39 900,-548.55 900,-548.55 900,-540.89 900,-540.89 900,-537.05 903.83,-533.22 907.67,-533.22 907.67,-533.22 1150.33,-533.22 1150.33,-533.22 1154.17,-533.22 1158,-537.05 1158,-540.89 1158,-540.89 1158,-548.55 1158,-548.55 1158,-552.39 1154.17,-556.22 1150.33,-556.22"/>
<text text-anchor="middle" x="1029" y="-541.02" font-family="Arial" font-size="14.00" fill="#c6c5fe">src/rendering/EnemyCollisionsChecks.js</text>
</g>
<!-- src/enemy.js&#45;&gt;src/rendering/EnemyCollisionsChecks.js -->
<g id="edge9" class="edge">
<title>src/enemy.js&#45;&gt;src/rendering/EnemyCollisionsChecks.js</title>
<path fill="none" stroke="#757575" d="M849.06,-514.36C877.89,-519.25 916.07,-525.73 949.75,-531.45"/>
<polygon fill="#757575" stroke="#757575" points="949.6,-534.97 960.04,-533.19 950.77,-528.07 949.6,-534.97"/>
</g>
<!-- src/gatling.js&#45;&gt;src/music.js -->
<g id="edge24" class="edge">
<title>src/gatling.js&#45;&gt;src/music.js</title>
<path fill="none" stroke="#757575" d="M1298.86,-401.23C1344.21,-429.61 1465.21,-505.12 1567,-566.72 1649.41,-616.59 1747.55,-674.28 1795,-702.06"/>
<polygon fill="#757575" stroke="#757575" points="1793.4,-705.18 1803.8,-707.21 1796.93,-699.14 1793.4,-705.18"/>
</g>
<!-- src/gatling.js&#45;&gt;src/player/Player.js -->
<g id="edge25" class="edge">
<title>src/gatling.js&#45;&gt;src/player/Player.js</title>
<path fill="none" stroke="#757575" d="M1307.33,-378.09C1339.39,-364.18 1393.18,-340.86 1428.88,-325.38"/>
<polygon fill="#757575" stroke="#757575" points="1430.66,-328.43 1438.44,-321.24 1427.87,-322 1430.66,-328.43"/>
</g>
<!-- src/ammo.js&#45;&gt;src/gatling.js -->
<g id="edge6" class="edge">
<title>src/ammo.js&#45;&gt;src/gatling.js</title>
<path fill="none" stroke="#757575" d="M1054.28,-283.25C1098.91,-304.44 1194.06,-349.62 1244.87,-373.75"/>
<polygon fill="#757575" stroke="#757575" points="1243.59,-377.02 1254.12,-378.14 1246.59,-370.69 1243.59,-377.02"/>
</g>
<!-- src/rocket.js -->
<g id="node9" class="node">
<title>src/rocket.js</title>
<path fill="none" stroke="#c6c5fe" d="M1669.33,-321.22C1669.33,-321.22 1595.67,-321.22 1595.67,-321.22 1591.83,-321.22 1588,-317.39 1588,-313.55 1588,-313.55 1588,-305.89 1588,-305.89 1588,-302.05 1591.83,-298.22 1595.67,-298.22 1595.67,-298.22 1669.33,-298.22 1669.33,-298.22 1673.17,-298.22 1677,-302.05 1677,-305.89 1677,-305.89 1677,-313.55 1677,-313.55 1677,-317.39 1673.17,-321.22 1669.33,-321.22"/>
<text text-anchor="middle" x="1632.5" y="-306.02" font-family="Arial" font-size="14.00" fill="#c6c5fe">src/rocket.js</text>
</g>
<!-- src/ammo.js&#45;&gt;src/rocket.js -->
<g id="edge7" class="edge">
<title>src/ammo.js&#45;&gt;src/rocket.js</title>
<path fill="none" stroke="#757575" d="M1074.77,-270.67C1162.61,-269.17 1363.59,-268.54 1531,-288.72 1546.24,-290.56 1562.6,-293.53 1577.6,-296.68"/>
<polygon fill="#757575" stroke="#757575" points="1577.23,-300.18 1587.74,-298.87 1578.71,-293.34 1577.23,-300.18"/>
</g>
<!-- src/rocket.js&#45;&gt;src/rendering/Helpers.js -->
<g id="edge41" class="edge">
<title>src/rocket.js&#45;&gt;src/rendering/Helpers.js</title>
<path fill="none" stroke="#757575" d="M1677.09,-309.72C1694.24,-309.72 1714.59,-309.72 1734.58,-309.72"/>
<polygon fill="#757575" stroke="#757575" points="1734.67,-313.22 1744.67,-309.72 1734.67,-306.22 1734.67,-313.22"/>
</g>
<!-- src/rendering/EnemyCollisionsChecks.js&#45;&gt;src/gatling.js -->
<g id="edge35" class="edge">
<title>src/rendering/EnemyCollisionsChecks.js&#45;&gt;src/gatling.js</title>
<path fill="none" stroke="#757575" d="M1135.01,-533.16C1143.34,-529.42 1151.17,-524.68 1158,-518.72 1194.54,-486.84 1159.07,-449.36 1194,-415.72 1202.21,-407.81 1212.76,-402.31 1223.62,-398.47"/>
<polygon fill="#757575" stroke="#757575" points="1224.66,-401.82 1233.17,-395.52 1222.59,-395.13 1224.66,-401.82"/>
</g>
<!-- src/rendering/EnemyCollisionsChecks.js&#45;&gt;src/rocket.js -->
<g id="edge40" class="edge">
<title>src/rendering/EnemyCollisionsChecks.js&#45;&gt;src/rocket.js</title>
<path fill="none" stroke="#757575" d="M1106,-533.22C1123.5,-529.18 1141.74,-523.81 1158,-516.72 1175.86,-508.93 1176.33,-499.93 1194,-491.72 1265.38,-458.56 1291.37,-473.5 1365,-445.72 1441.99,-416.67 1457.86,-401.42 1531,-363.72 1554.86,-351.42 1581.63,-337.01 1601.53,-326.17"/>
<polygon fill="#757575" stroke="#757575" points="1603.34,-329.17 1610.44,-321.31 1599.98,-323.03 1603.34,-329.17"/>
</g>
<!-- src/rendering/EnemyCollisionsChecks.js&#45;&gt;src/music.js -->
<g id="edge36" class="edge">
<title>src/rendering/EnemyCollisionsChecks.js&#45;&gt;src/music.js</title>
<path fill="none" stroke="#757575" d="M1082.68,-556.27C1226.68,-587.85 1625.76,-675.36 1770.34,-707.06"/>
<polygon fill="#757575" stroke="#757575" points="1769.78,-710.52 1780.3,-709.25 1771.28,-703.69 1769.78,-710.52"/>
</g>
<!-- src/rendering/EnemyCollisionsChecks.js&#45;&gt;src/player/Player.js -->
<g id="edge37" class="edge">
<title>src/rendering/EnemyCollisionsChecks.js&#45;&gt;src/player/Player.js</title>
<path fill="none" stroke="#757575" d="M1130.75,-533.15C1140.48,-529.47 1149.77,-524.75 1158,-518.72 1184.63,-499.19 1167.88,-473.93 1194,-453.72 1256.07,-405.7 1296.84,-448.62 1365,-409.72 1400.96,-389.2 1432.93,-352.33 1450.57,-329.55"/>
<polygon fill="#757575" stroke="#757575" points="1453.57,-331.38 1456.81,-321.29 1447.99,-327.16 1453.57,-331.38"/>
</g>
<!-- src/rendering/EnemyCollisionsChecks.js&#45;&gt;src/rendering/Helpers.js -->
<g id="edge39" class="edge">
<title>src/rendering/EnemyCollisionsChecks.js&#45;&gt;src/rendering/Helpers.js</title>
<path fill="none" stroke="#757575" d="M1115.28,-533.22C1183.55,-522.99 1281.39,-506.03 1365,-482.72 1526.96,-437.56 1712.11,-359.03 1788.12,-325.56"/>
<polygon fill="#757575" stroke="#757575" points="1789.95,-328.57 1797.68,-321.33 1787.12,-322.17 1789.95,-328.57"/>
</g>
<!-- src/rendering/Explosion.js -->
<g id="node21" class="node">
<title>src/rendering/Explosion.js</title>
<path fill="none" stroke="#cfffac" d="M1357.33,-557.22C1357.33,-557.22 1201.67,-557.22 1201.67,-557.22 1197.83,-557.22 1194,-553.39 1194,-549.55 1194,-549.55 1194,-541.89 1194,-541.89 1194,-538.05 1197.83,-534.22 1201.67,-534.22 1201.67,-534.22 1357.33,-534.22 1357.33,-534.22 1361.17,-534.22 1365,-538.05 1365,-541.89 1365,-541.89 1365,-549.55 1365,-549.55 1365,-553.39 1361.17,-557.22 1357.33,-557.22"/>
<text text-anchor="middle" x="1279.5" y="-542.02" font-family="Arial" font-size="14.00" fill="#cfffac">src/rendering/Explosion.js</text>
</g>
<!-- src/rendering/EnemyCollisionsChecks.js&#45;&gt;src/rendering/Explosion.js -->
<g id="edge38" class="edge">
<title>src/rendering/EnemyCollisionsChecks.js&#45;&gt;src/rendering/Explosion.js</title>
<path fill="none" stroke="#757575" d="M1158.25,-545.24C1166.86,-545.27 1175.44,-545.31 1183.83,-545.34"/>
<polygon fill="#757575" stroke="#757575" points="1183.94,-548.84 1193.96,-545.38 1183.97,-541.84 1183.94,-548.84"/>
</g>
<!-- src/keyboard.js&#45;&gt;src/gatling.js -->
<g id="edge27" class="edge">
<title>src/keyboard.js&#45;&gt;src/gatling.js</title>
<path fill="none" stroke="#757575" d="M350.91,-344.3C404.77,-369.83 542.19,-428.72 664,-428.72 664,-428.72 664,-428.72 804,-428.72 956.26,-428.72 1135.08,-408.53 1223.4,-397.2"/>
<polygon fill="#757575" stroke="#757575" points="1223.99,-400.65 1233.46,-395.9 1223.09,-393.71 1223.99,-400.65"/>
</g>
<!-- src/keyboard.js&#45;&gt;src/rocket.js -->
<g id="edge30" class="edge">
<title>src/keyboard.js&#45;&gt;src/rocket.js</title>
<path fill="none" stroke="#757575" d="M334.31,-321.19C348.1,-298.84 381.6,-249.58 423,-223.72 571.05,-131.25 627.45,-120.72 802,-120.72 802,-120.72 802,-120.72 1280.5,-120.72 1423.09,-120.72 1563.51,-243.14 1612.9,-290.93"/>
<polygon fill="#757575" stroke="#757575" points="1610.7,-293.67 1620.29,-298.18 1615.6,-288.68 1610.7,-293.67"/>
</g>
<!-- src/keyboard.js&#45;&gt;src/music.js -->
<g id="edge28" class="edge">
<title>src/keyboard.js&#45;&gt;src/music.js</title>
<path fill="none" stroke="#757575" d="M331.48,-344.52C353.48,-407.33 466.48,-699.72 664,-699.72 664,-699.72 664,-699.72 804,-699.72 1173.53,-699.72 1618.26,-712.35 1769.87,-717.02"/>
<polygon fill="#757575" stroke="#757575" points="1770.18,-720.53 1780.28,-717.34 1770.39,-713.53 1770.18,-720.53"/>
</g>
<!-- src/keyboard.js&#45;&gt;src/player/Player.js -->
<g id="edge29" class="edge">
<title>src/keyboard.js&#45;&gt;src/player/Player.js</title>
<path fill="none" stroke="#757575" d="M341.42,-321.19C359.2,-307.07 391.48,-283.47 423,-270.72 502.55,-238.55 716.19,-196.72 802,-196.72 802,-196.72 802,-196.72 1030,-196.72 1183.08,-196.72 1357.02,-263.09 1429.93,-294.1"/>
<polygon fill="#757575" stroke="#757575" points="1428.56,-297.32 1439.13,-298.05 1431.33,-290.89 1428.56,-297.32"/>
</g>
<!-- src/gameMenuActions.js -->
<g id="node18" class="node">
<title>src/gameMenuActions.js</title>
<path fill="none" stroke="#c6c5fe" d="M580.33,-344.22C580.33,-344.22 430.67,-344.22 430.67,-344.22 426.83,-344.22 423,-340.39 423,-336.55 423,-336.55 423,-328.89 423,-328.89 423,-325.05 426.83,-321.22 430.67,-321.22 430.67,-321.22 580.33,-321.22 580.33,-321.22 584.17,-321.22 588,-325.05 588,-328.89 588,-328.89 588,-336.55 588,-336.55 588,-340.39 584.17,-344.22 580.33,-344.22"/>
<text text-anchor="middle" x="505.5" y="-329.02" font-family="Arial" font-size="14.00" fill="#c6c5fe">src/gameMenuActions.js</text>
</g>
<!-- src/keyboard.js&#45;&gt;src/gameMenuActions.js -->
<g id="edge26" class="edge">
<title>src/keyboard.js&#45;&gt;src/gameMenuActions.js</title>
<path fill="none" stroke="#757575" d="M380.13,-332.72C390.43,-332.72 401.5,-332.72 412.65,-332.72"/>
<polygon fill="#757575" stroke="#757575" points="412.89,-336.22 422.89,-332.72 412.89,-329.22 412.89,-336.22"/>
</g>
<!-- src/touch.js -->
<g id="node20" class="node">
<title>src/touch.js</title>
<path fill="none" stroke="#cfffac" d="M540.33,-303.22C540.33,-303.22 470.67,-303.22 470.67,-303.22 466.83,-303.22 463,-299.39 463,-295.55 463,-295.55 463,-287.89 463,-287.89 463,-284.05 466.83,-280.22 470.67,-280.22 470.67,-280.22 540.33,-280.22 540.33,-280.22 544.17,-280.22 548,-284.05 548,-287.89 548,-287.89 548,-295.55 548,-295.55 548,-299.39 544.17,-303.22 540.33,-303.22"/>
<text text-anchor="middle" x="505.5" y="-288.02" font-family="Arial" font-size="14.00" fill="#cfffac">src/touch.js</text>
</g>
<!-- src/keyboard.js&#45;&gt;src/touch.js -->
<g id="edge31" class="edge">
<title>src/keyboard.js&#45;&gt;src/touch.js</title>
<path fill="none" stroke="#757575" d="M377.28,-321.19C400.9,-315.72 429.1,-309.19 452.94,-303.66"/>
<polygon fill="#757575" stroke="#757575" points="453.92,-307.03 462.87,-301.36 452.34,-300.21 453.92,-307.03"/>
</g>
<!-- src/player/Player.js&#45;&gt;src/rocket.js -->
<g id="edge33" class="edge">
<title>src/player/Player.js&#45;&gt;src/rocket.js</title>
<path fill="none" stroke="#757575" d="M1531.07,-309.72C1546.46,-309.72 1562.75,-309.72 1577.63,-309.72"/>
<polygon fill="#757575" stroke="#757575" points="1577.67,-313.22 1587.67,-309.72 1577.67,-306.22 1577.67,-313.22"/>
</g>
<!-- src/player/Player.js&#45;&gt;src/speedometer.js -->
<g id="edge34" class="edge">
<title>src/player/Player.js&#45;&gt;src/speedometer.js</title>
<path fill="none" stroke="#757575" d="M1479.63,-298.05C1508.05,-271.79 1577.19,-207.9 1611.51,-176.2"/>
<polygon fill="#757575" stroke="#757575" points="1614.08,-178.58 1619.05,-169.23 1609.33,-173.44 1614.08,-178.58"/>
</g>
<!-- src/gameOver.js -->
<g id="node19" class="node">
<title>src/gameOver.js</title>
<path fill="none" stroke="#c6c5fe" d="M1682.83,-557.22C1682.83,-557.22 1582.17,-557.22 1582.17,-557.22 1578.33,-557.22 1574.5,-553.39 1574.5,-549.55 1574.5,-549.55 1574.5,-541.89 1574.5,-541.89 1574.5,-538.05 1578.33,-534.22 1582.17,-534.22 1582.17,-534.22 1682.83,-534.22 1682.83,-534.22 1686.67,-534.22 1690.5,-538.05 1690.5,-541.89 1690.5,-541.89 1690.5,-549.55 1690.5,-549.55 1690.5,-553.39 1686.67,-557.22 1682.83,-557.22"/>
<text text-anchor="middle" x="1632.5" y="-542.02" font-family="Arial" font-size="14.00" fill="#c6c5fe">src/gameOver.js</text>
</g>
<!-- src/player/Player.js&#45;&gt;src/gameOver.js -->
<g id="edge32" class="edge">
<title>src/player/Player.js&#45;&gt;src/gameOver.js</title>
<path fill="none" stroke="#757575" d="M1475.16,-321.42C1501.47,-359.17 1584.3,-478 1617.52,-525.66"/>
<polygon fill="#757575" stroke="#757575" points="1614.7,-527.74 1623.29,-533.95 1620.45,-523.74 1614.7,-527.74"/>
</g>
<!-- src/step.js&#45;&gt;src/enemy.js -->
<g id="edge45" class="edge">
<title>src/step.js&#45;&gt;src/enemy.js</title>
<path fill="none" stroke="#757575" d="M670.02,-364.25C679.13,-388.83 703.59,-446.9 742,-480.72 746.21,-484.42 751.02,-487.67 756.06,-490.49"/>
<polygon fill="#757575" stroke="#757575" points="754.76,-493.75 765.27,-495.12 757.91,-487.5 754.76,-493.75"/>
</g>
<!-- src/step.js&#45;&gt;src/gatling.js -->
<g id="edge47" class="edge">
<title>src/step.js&#45;&gt;src/gatling.js</title>
<path fill="none" stroke="#757575" d="M703.73,-360.74C715.89,-363.04 729.47,-365.3 742,-366.72 916.96,-386.49 1125.78,-389.61 1223.26,-389.88"/>
<polygon fill="#757575" stroke="#757575" points="1223.46,-393.38 1233.47,-389.9 1223.48,-386.38 1223.46,-393.38"/>
</g>
<!-- src/step.js&#45;&gt;src/ammo.js -->
<g id="edge43" class="edge">
<title>src/step.js&#45;&gt;src/ammo.js</title>
<path fill="none" stroke="#757575" d="M678.59,-341.11C692.81,-328.76 717.23,-309.78 742,-300.72 818.72,-272.67 914.24,-268.63 973.17,-269.37"/>
<polygon fill="#757575" stroke="#757575" points="973.31,-272.87 983.37,-269.55 973.44,-265.87 973.31,-272.87"/>
</g>
<!-- src/step.js&#45;&gt;src/rocket.js -->
<g id="edge49" class="edge">
<title>src/step.js&#45;&gt;src/rocket.js</title>
<path fill="none" stroke="#757575" d="M703.67,-353.99C824.44,-357.59 1212.63,-365.37 1531,-329.72 1546.23,-328.02 1562.58,-325.19 1577.59,-322.2"/>
<polygon fill="#757575" stroke="#757575" points="1578.64,-325.56 1587.72,-320.11 1577.22,-318.7 1578.64,-325.56"/>
</g>
<!-- src/step.js&#45;&gt;src/background.js -->
<g id="edge44" class="edge">
<title>src/step.js&#45;&gt;src/background.js</title>
<path fill="none" stroke="#757575" d="M673.29,-341C685.47,-322.24 711.64,-285.29 742,-262.72 747.08,-258.94 752.8,-255.58 758.63,-252.62"/>
<polygon fill="#757575" stroke="#757575" points="760.25,-255.73 767.82,-248.32 757.28,-249.39 760.25,-255.73"/>
</g>
<!-- src/step.js&#45;&gt;src/player/Player.js -->
<g id="edge48" class="edge">
<title>src/step.js&#45;&gt;src/player/Player.js</title>
<path fill="none" stroke="#757575" d="M703.73,-344.68C715.89,-342.38 729.47,-340.12 742,-338.72 977.82,-312.41 1259.25,-309.13 1390.6,-309.23"/>
<polygon fill="#757575" stroke="#757575" points="1390.93,-312.73 1400.94,-309.24 1390.94,-305.73 1390.93,-312.73"/>
</g>
<!-- src/step.js&#45;&gt;src/gameOver.js -->
<g id="edge46" class="edge">
<title>src/step.js&#45;&gt;src/gameOver.js</title>
<path fill="none" stroke="#757575" d="M691.84,-364.23C733.19,-383.79 814.58,-427.18 864,-485.72 889.15,-515.51 867.29,-544.49 900,-565.72 1008.12,-635.89 1404.44,-582.25 1564.14,-556.99"/>
<polygon fill="#757575" stroke="#757575" points="1564.99,-560.4 1574.31,-555.37 1563.89,-553.49 1564.99,-560.4"/>
</g>
<!-- src/gameMenuActions.js&#45;&gt;src/step.js -->
<g id="edge21" class="edge">
<title>src/gameMenuActions.js&#45;&gt;src/step.js</title>
<path fill="none" stroke="#757575" d="M588.02,-343.07C597.62,-344.29 607.17,-345.5 616.09,-346.64"/>
<polygon fill="#757575" stroke="#757575" points="615.88,-350.14 626.24,-347.93 616.76,-343.19 615.88,-350.14"/>
</g>
<!-- src/gameOver.js&#45;&gt;src/levelCompleteScreen.js -->
<g id="edge22" class="edge">
<title>src/gameOver.js&#45;&gt;src/levelCompleteScreen.js</title>
<path fill="none" stroke="#757575" d="M1688.2,-557.24C1710.26,-561.88 1735.88,-567.27 1758.85,-572.11"/>
<polygon fill="#757575" stroke="#757575" points="1758.35,-575.58 1768.86,-574.22 1759.79,-568.73 1758.35,-575.58"/>
</g>
<!-- src/gameOver.js&#45;&gt;src/music.js -->
<g id="edge23" class="edge">
<title>src/gameOver.js&#45;&gt;src/music.js</title>
<path fill="none" stroke="#757575" d="M1646.26,-557.34C1678.58,-586.76 1763.85,-664.41 1803.14,-700.18"/>
<polygon fill="#757575" stroke="#757575" points="1801.04,-703.01 1810.79,-707.15 1805.76,-697.83 1801.04,-703.01"/>
</g>
</g>
</svg>
