<?xml version="1.0" encoding="UTF-8" standalone="no"?>
<!DOCTYPE svg PUBLIC "-//W3C//DTD SVG 1.1//EN"
 "http://www.w3.org/Graphics/SVG/1.1/DTD/svg11.dtd">
<!-- Generated by graphviz version 2.43.0 (0)
 -->
<!-- Title: G Pages: 1 -->
<svg width="2248pt" height="1448pt"
 viewBox="0.00 0.00 2248.20 1447.70" xmlns="http://www.w3.org/2000/svg" xmlns:xlink="http://www.w3.org/1999/xlink">
<g id="graph0" class="graph" transform="scale(1 1) rotate(0) translate(21.6 1426.1)">
<title>G</title>
<polygon fill="#111111" stroke="transparent" points="-21.6,21.6 -21.6,-1426.1 2226.6,-1426.1 2226.6,21.6 -21.6,21.6"/>
<!-- app.js -->
<g id="node1" class="node">
<title>app.js</title>
<path fill="none" stroke="#c6c5fe" d="M46.33,-849.5C46.33,-849.5 7.67,-849.5 7.67,-849.5 3.83,-849.5 0,-845.67 0,-841.83 0,-841.83 0,-834.17 0,-834.17 0,-830.33 3.83,-826.5 7.67,-826.5 7.67,-826.5 46.33,-826.5 46.33,-826.5 50.17,-826.5 54,-830.33 54,-834.17 54,-834.17 54,-841.83 54,-841.83 54,-845.67 50.17,-849.5 46.33,-849.5"/>
<text text-anchor="middle" x="27" y="-834.3" font-family="Arial" font-size="14.00" fill="#c6c5fe">app.js</text>
</g>
<!-- src/gameManager.js -->
<g id="node2" class="node">
<title>src/gameManager.js</title>
<path fill="none" stroke="#c6c5fe" d="M222.33,-829.5C222.33,-829.5 97.67,-829.5 97.67,-829.5 93.83,-829.5 90,-825.67 90,-821.83 90,-821.83 90,-814.17 90,-814.17 90,-810.33 93.83,-806.5 97.67,-806.5 97.67,-806.5 222.33,-806.5 222.33,-806.5 226.17,-806.5 230,-810.33 230,-814.17 230,-814.17 230,-821.83 230,-821.83 230,-825.67 226.17,-829.5 222.33,-829.5"/>
<text text-anchor="middle" x="160" y="-814.3" font-family="Arial" font-size="14.00" fill="#c6c5fe">src/gameManager.js</text>
</g>
<!-- app.js&#45;&gt;src/gameManager.js -->
<g id="edge1" class="edge">
<title>app.js&#45;&gt;src/gameManager.js</title>
<path fill="none" stroke="#757575" d="M54.19,-834C61.87,-832.83 70.69,-831.48 79.89,-830.08"/>
<polygon fill="#757575" stroke="#757575" points="80.62,-833.51 89.97,-828.54 79.56,-826.59 80.62,-833.51"/>
</g>
<!-- src/startScreen.js -->
<g id="node3" class="node">
<title>src/startScreen.js</title>
<path fill="none" stroke="#cfffac" d="M383.83,-1404.5C383.83,-1404.5 278.17,-1404.5 278.17,-1404.5 274.33,-1404.5 270.5,-1400.67 270.5,-1396.83 270.5,-1396.83 270.5,-1389.17 270.5,-1389.17 270.5,-1385.33 274.33,-1381.5 278.17,-1381.5 278.17,-1381.5 383.83,-1381.5 383.83,-1381.5 387.67,-1381.5 391.5,-1385.33 391.5,-1389.17 391.5,-1389.17 391.5,-1396.83 391.5,-1396.83 391.5,-1400.67 387.67,-1404.5 383.83,-1404.5"/>
<text text-anchor="middle" x="331" y="-1389.3" font-family="Arial" font-size="14.00" fill="#cfffac">src/startScreen.js</text>
</g>
<!-- app.js&#45;&gt;src/startScreen.js -->
<g id="edge2" class="edge">
<title>app.js&#45;&gt;src/startScreen.js</title>
<path fill="none" stroke="#757575" d="M29.99,-849.88C41.05,-912.54 100.67,-1207.66 266,-1367 269.94,-1370.8 274.51,-1374.07 279.36,-1376.88"/>
<polygon fill="#757575" stroke="#757575" points="277.81,-1380.02 288.31,-1381.45 281,-1373.78 277.81,-1380.02"/>
</g>
<!-- src/gameManager.js&#45;&gt;src/startScreen.js -->
<g id="edge45" class="edge">
<title>src/gameManager.js&#45;&gt;src/startScreen.js</title>
<path fill="none" stroke="#757575" d="M164.15,-829.64C174.69,-868.96 209.28,-1000.57 230,-1111 240.6,-1167.46 230.67,-1321.7 266,-1367 268.7,-1370.46 271.93,-1373.46 275.49,-1376.06"/>
<polygon fill="#757575" stroke="#757575" points="273.93,-1379.21 284.29,-1381.44 277.58,-1373.24 273.93,-1379.21"/>
</g>
<!-- src/Boss.js -->
<g id="node4" class="node">
<title>src/Boss.js</title>
<path fill="none" stroke="#c6c5fe" d="M1185.83,-359.5C1185.83,-359.5 1119.17,-359.5 1119.17,-359.5 1115.33,-359.5 1111.5,-355.67 1111.5,-351.83 1111.5,-351.83 1111.5,-344.17 1111.5,-344.17 1111.5,-340.33 1115.33,-336.5 1119.17,-336.5 1119.17,-336.5 1185.83,-336.5 1185.83,-336.5 1189.67,-336.5 1193.5,-340.33 1193.5,-344.17 1193.5,-344.17 1193.5,-351.83 1193.5,-351.83 1193.5,-355.67 1189.67,-359.5 1185.83,-359.5"/>
<text text-anchor="middle" x="1152.5" y="-344.3" font-family="Arial" font-size="14.00" fill="#c6c5fe">src/Boss.js</text>
</g>
<!-- src/gameManager.js&#45;&gt;src/Boss.js -->
<g id="edge33" class="edge">
<title>src/gameManager.js&#45;&gt;src/Boss.js</title>
<path fill="none" stroke="#757575" d="M163.22,-806.41C177.75,-734.18 266.15,-349 499,-349 499,-349 499,-349 687.5,-349 838.1,-349 1016.2,-348.47 1101.31,-348.18"/>
<polygon fill="#757575" stroke="#757575" points="1101.48,-351.68 1111.47,-348.14 1101.46,-344.68 1101.48,-351.68"/>
</g>
<!-- src/gameState.js -->
<g id="node5" class="node">
<title>src/gameState.js</title>
<path fill="none" stroke="#cfffac" d="M2197.33,-475.5C2197.33,-475.5 2094.67,-475.5 2094.67,-475.5 2090.83,-475.5 2087,-471.67 2087,-467.83 2087,-467.83 2087,-460.17 2087,-460.17 2087,-456.33 2090.83,-452.5 2094.67,-452.5 2094.67,-452.5 2197.33,-452.5 2197.33,-452.5 2201.17,-452.5 2205,-456.33 2205,-460.17 2205,-460.17 2205,-467.83 2205,-467.83 2205,-471.67 2201.17,-475.5 2197.33,-475.5"/>
<text text-anchor="middle" x="2146" y="-460.3" font-family="Arial" font-size="14.00" fill="#cfffac">src/gameState.js</text>
</g>
<!-- src/gameManager.js&#45;&gt;src/gameState.js -->
<g id="edge38" class="edge">
<title>src/gameManager.js&#45;&gt;src/gameState.js</title>
<path fill="none" stroke="#757575" d="M164.49,-829.52C175.22,-865.17 208.3,-976.95 230,-1071 249.32,-1154.75 211.3,-1194.7 266,-1261 336.85,-1346.88 387.66,-1353 499,-1353 499,-1353 499,-1353 1691.5,-1353 1851.8,-1353 1936.06,-1435.73 2051,-1324 2113.14,-1263.6 2139.64,-613.17 2144.25,-485.63"/>
<polygon fill="#757575" stroke="#757575" points="2147.75,-485.66 2144.61,-475.54 2140.76,-485.41 2147.75,-485.66"/>
</g>
<!-- src/levelCompleteScreen.js -->
<g id="node6" class="node">
<title>src/levelCompleteScreen.js</title>
<path fill="none" stroke="#cfffac" d="M1507.83,-1020.5C1507.83,-1020.5 1342.17,-1020.5 1342.17,-1020.5 1338.33,-1020.5 1334.5,-1016.67 1334.5,-1012.83 1334.5,-1012.83 1334.5,-1005.17 1334.5,-1005.17 1334.5,-1001.33 1338.33,-997.5 1342.17,-997.5 1342.17,-997.5 1507.83,-997.5 1507.83,-997.5 1511.67,-997.5 1515.5,-1001.33 1515.5,-1005.17 1515.5,-1005.17 1515.5,-1012.83 1515.5,-1012.83 1515.5,-1016.67 1511.67,-1020.5 1507.83,-1020.5"/>
<text text-anchor="middle" x="1425" y="-1005.3" font-family="Arial" font-size="14.00" fill="#cfffac">src/levelCompleteScreen.js</text>
</g>
<!-- src/gameManager.js&#45;&gt;src/levelCompleteScreen.js -->
<g id="edge40" class="edge">
<title>src/gameManager.js&#45;&gt;src/levelCompleteScreen.js</title>
<path fill="none" stroke="#757575" d="M175.12,-829.67C219.64,-865.27 362.28,-970 499,-970 499,-970 499,-970 901.5,-970 1066.85,-970 1108.31,-975.22 1273,-990 1291.82,-991.69 1311.92,-993.92 1331.1,-996.25"/>
<polygon fill="#757575" stroke="#757575" points="1330.69,-999.73 1341.04,-997.48 1331.55,-992.78 1330.69,-999.73"/>
</g>
<!-- src/ammo.js -->
<g id="node9" class="node">
<title>src/ammo.js</title>
<path fill="none" stroke="#c6c5fe" d="M1462.83,-823.5C1462.83,-823.5 1387.17,-823.5 1387.17,-823.5 1383.33,-823.5 1379.5,-819.67 1379.5,-815.83 1379.5,-815.83 1379.5,-808.17 1379.5,-808.17 1379.5,-804.33 1383.33,-800.5 1387.17,-800.5 1387.17,-800.5 1462.83,-800.5 1462.83,-800.5 1466.67,-800.5 1470.5,-804.33 1470.5,-808.17 1470.5,-808.17 1470.5,-815.83 1470.5,-815.83 1470.5,-819.67 1466.67,-823.5 1462.83,-823.5"/>
<text text-anchor="middle" x="1425" y="-808.3" font-family="Arial" font-size="14.00" fill="#c6c5fe">src/ammo.js</text>
</g>
<!-- src/gameManager.js&#45;&gt;src/ammo.js -->
<g id="edge34" class="edge">
<title>src/gameManager.js&#45;&gt;src/ammo.js</title>
<path fill="none" stroke="#757575" d="M230.27,-818C298.59,-818 405.99,-818 499,-818 499,-818 499,-818 901.5,-818 1072.01,-818 1273.79,-814.77 1369.02,-813.05"/>
<polygon fill="#757575" stroke="#757575" points="1369.34,-816.54 1379.27,-812.86 1369.21,-809.54 1369.34,-816.54"/>
</g>
<!-- src/background.js -->
<g id="node11" class="node">
<title>src/background.js</title>
<path fill="none" stroke="#cfffac" d="M1743.83,-980.5C1743.83,-980.5 1637.17,-980.5 1637.17,-980.5 1633.33,-980.5 1629.5,-976.67 1629.5,-972.83 1629.5,-972.83 1629.5,-965.17 1629.5,-965.17 1629.5,-961.33 1633.33,-957.5 1637.17,-957.5 1637.17,-957.5 1743.83,-957.5 1743.83,-957.5 1747.67,-957.5 1751.5,-961.33 1751.5,-965.17 1751.5,-965.17 1751.5,-972.83 1751.5,-972.83 1751.5,-976.67 1747.67,-980.5 1743.83,-980.5"/>
<text text-anchor="middle" x="1690.5" y="-965.3" font-family="Arial" font-size="14.00" fill="#cfffac">src/background.js</text>
</g>
<!-- src/gameManager.js&#45;&gt;src/background.js -->
<g id="edge35" class="edge">
<title>src/gameManager.js&#45;&gt;src/background.js</title>
<path fill="none" stroke="#757575" d="M163.4,-829.81C178.75,-901.65 269.9,-1277 499,-1277 499,-1277 499,-1277 687.5,-1277 880.76,-1277 1369.25,-1198.62 1541,-1110 1599.33,-1079.9 1650.77,-1019.87 1674.91,-988.74"/>
<polygon fill="#757575" stroke="#757575" points="1677.71,-990.85 1680.98,-980.78 1672.14,-986.61 1677.71,-990.85"/>
</g>
<!-- src/music.js -->
<g id="node13" class="node">
<title>src/music.js</title>
<path fill="none" stroke="#cfffac" d="M1981.83,-629.5C1981.83,-629.5 1909.17,-629.5 1909.17,-629.5 1905.33,-629.5 1901.5,-625.67 1901.5,-621.83 1901.5,-621.83 1901.5,-614.17 1901.5,-614.17 1901.5,-610.33 1905.33,-606.5 1909.17,-606.5 1909.17,-606.5 1981.83,-606.5 1981.83,-606.5 1985.67,-606.5 1989.5,-610.33 1989.5,-614.17 1989.5,-614.17 1989.5,-621.83 1989.5,-621.83 1989.5,-625.67 1985.67,-629.5 1981.83,-629.5"/>
<text text-anchor="middle" x="1945.5" y="-614.3" font-family="Arial" font-size="14.00" fill="#cfffac">src/music.js</text>
</g>
<!-- src/gameManager.js&#45;&gt;src/music.js -->
<g id="edge41" class="edge">
<title>src/gameManager.js&#45;&gt;src/music.js</title>
<path fill="none" stroke="#757575" d="M162.4,-806.23C170.09,-743.28 208.97,-446.52 266,-377 338.27,-288.9 385.05,-270 499,-270 499,-270 499,-270 901.5,-270 1068.61,-270 1139.87,-226.99 1273,-328 1303.74,-351.32 1277.64,-384.52 1309,-407 1398.86,-471.41 1705.78,-406.24 1804,-457 1866.36,-489.23 1913.29,-561.77 1933.53,-597.42"/>
<polygon fill="#757575" stroke="#757575" points="1930.62,-599.39 1938.53,-606.44 1936.74,-595.99 1930.62,-599.39"/>
</g>
<!-- src/rendering/Helpers.js -->
<g id="node15" class="node">
<title>src/rendering/Helpers.js</title>
<path fill="none" stroke="#cfffac" d="M2017.33,-709.5C2017.33,-709.5 1873.67,-709.5 1873.67,-709.5 1869.83,-709.5 1866,-705.67 1866,-701.83 1866,-701.83 1866,-694.17 1866,-694.17 1866,-690.33 1869.83,-686.5 1873.67,-686.5 1873.67,-686.5 2017.33,-686.5 2017.33,-686.5 2021.17,-686.5 2025,-690.33 2025,-694.17 2025,-694.17 2025,-701.83 2025,-701.83 2025,-705.67 2021.17,-709.5 2017.33,-709.5"/>
<text text-anchor="middle" x="1945.5" y="-694.3" font-family="Arial" font-size="14.00" fill="#cfffac">src/rendering/Helpers.js</text>
</g>
<!-- src/gameManager.js&#45;&gt;src/rendering/Helpers.js -->
<g id="edge43" class="edge">
<title>src/gameManager.js&#45;&gt;src/rendering/Helpers.js</title>
<path fill="none" stroke="#757575" d="M164.16,-829.54C181.35,-892.33 262.99,-1190.19 266,-1194 338.33,-1285.57 382.31,-1315 499,-1315 499,-1315 499,-1315 687.5,-1315 939.56,-1315 1616.55,-1283.51 1804,-1115 1925.09,-1006.15 1941.94,-789.5 1944.19,-720"/>
<polygon fill="#757575" stroke="#757575" points="1947.69,-719.89 1944.44,-709.81 1940.69,-719.72 1947.69,-719.89"/>
</g>
<!-- src/scores/scores.js -->
<g id="node16" class="node">
<title>src/scores/scores.js</title>
<path fill="none" stroke="#c6c5fe" d="M1750.33,-128.5C1750.33,-128.5 1630.67,-128.5 1630.67,-128.5 1626.83,-128.5 1623,-124.67 1623,-120.83 1623,-120.83 1623,-113.17 1623,-113.17 1623,-109.33 1626.83,-105.5 1630.67,-105.5 1630.67,-105.5 1750.33,-105.5 1750.33,-105.5 1754.17,-105.5 1758,-109.33 1758,-113.17 1758,-113.17 1758,-120.83 1758,-120.83 1758,-124.67 1754.17,-128.5 1750.33,-128.5"/>
<text text-anchor="middle" x="1690.5" y="-113.3" font-family="Arial" font-size="14.00" fill="#c6c5fe">src/scores/scores.js</text>
</g>
<!-- src/gameManager.js&#45;&gt;src/scores/scores.js -->
<g id="edge44" class="edge">
<title>src/gameManager.js&#45;&gt;src/scores/scores.js</title>
<path fill="none" stroke="#757575" d="M161.48,-806.42C164.96,-726.51 188.55,-256.62 266,-141 333.37,-40.44 377.96,0 499,0 499,0 499,0 1153.5,0 1327.64,0 1372.86,-12.66 1541,-58 1581.67,-68.97 1626.33,-87.68 1655.95,-101.09"/>
<polygon fill="#757575" stroke="#757575" points="1654.84,-104.43 1665.39,-105.42 1657.76,-98.07 1654.84,-104.43"/>
</g>
<!-- src/enemy/enemy.js -->
<g id="node18" class="node">
<title>src/enemy/enemy.js</title>
<path fill="none" stroke="#c6c5fe" d="M1485.83,-397.5C1485.83,-397.5 1364.17,-397.5 1364.17,-397.5 1360.33,-397.5 1356.5,-393.67 1356.5,-389.83 1356.5,-389.83 1356.5,-382.17 1356.5,-382.17 1356.5,-378.33 1360.33,-374.5 1364.17,-374.5 1364.17,-374.5 1485.83,-374.5 1485.83,-374.5 1489.67,-374.5 1493.5,-378.33 1493.5,-382.17 1493.5,-382.17 1493.5,-389.83 1493.5,-389.83 1493.5,-393.67 1489.67,-397.5 1485.83,-397.5"/>
<text text-anchor="middle" x="1425" y="-382.3" font-family="Arial" font-size="14.00" fill="#c6c5fe">src/enemy/enemy.js</text>
</g>
<!-- src/gameManager.js&#45;&gt;src/enemy/enemy.js -->
<g id="edge36" class="edge">
<title>src/gameManager.js&#45;&gt;src/enemy/enemy.js</title>
<path fill="none" stroke="#757575" d="M161.36,-806.16C163.89,-732.19 181.31,-334.01 266,-256 342.57,-185.47 394.9,-232 499,-232 499,-232 499,-232 901.5,-232 1066.96,-232 1119.82,-193.45 1273,-256 1331.59,-279.92 1383.55,-336.04 1408.44,-366.12"/>
<polygon fill="#757575" stroke="#757575" points="1405.98,-368.65 1415,-374.22 1411.42,-364.24 1405.98,-368.65"/>
</g>
<!-- src/enemy/enemyManager.js -->
<g id="node22" class="node">
<title>src/enemy/enemyManager.js</title>
<path fill="none" stroke="#c6c5fe" d="M988.33,-181.5C988.33,-181.5 812.67,-181.5 812.67,-181.5 808.83,-181.5 805,-177.67 805,-173.83 805,-173.83 805,-166.17 805,-166.17 805,-162.33 808.83,-158.5 812.67,-158.5 812.67,-158.5 988.33,-158.5 988.33,-158.5 992.17,-158.5 996,-162.33 996,-166.17 996,-166.17 996,-173.83 996,-173.83 996,-177.67 992.17,-181.5 988.33,-181.5"/>
<text text-anchor="middle" x="900.5" y="-166.3" font-family="Arial" font-size="14.00" fill="#c6c5fe">src/enemy/enemyManager.js</text>
</g>
<!-- src/gameManager.js&#45;&gt;src/enemy/enemyManager.js -->
<g id="edge37" class="edge">
<title>src/gameManager.js&#45;&gt;src/enemy/enemyManager.js</title>
<path fill="none" stroke="#757575" d="M161.18,-806.34C162.62,-729.9 174.74,-300.76 266,-218 431.73,-67.71 732.54,-125.45 850.33,-155.91"/>
<polygon fill="#757575" stroke="#757575" points="849.59,-159.33 860.15,-158.49 851.38,-152.56 849.59,-159.33"/>
</g>
<!-- src/keyboard.js -->
<g id="node23" class="node">
<title>src/keyboard.js</title>
<path fill="none" stroke="#c6c5fe" d="M545.83,-641.5C545.83,-641.5 454.17,-641.5 454.17,-641.5 450.33,-641.5 446.5,-637.67 446.5,-633.83 446.5,-633.83 446.5,-626.17 446.5,-626.17 446.5,-622.33 450.33,-618.5 454.17,-618.5 454.17,-618.5 545.83,-618.5 545.83,-618.5 549.67,-618.5 553.5,-622.33 553.5,-626.17 553.5,-626.17 553.5,-633.83 553.5,-633.83 553.5,-637.67 549.67,-641.5 545.83,-641.5"/>
<text text-anchor="middle" x="500" y="-626.3" font-family="Arial" font-size="14.00" fill="#c6c5fe">src/keyboard.js</text>
</g>
<!-- src/gameManager.js&#45;&gt;src/keyboard.js -->
<g id="edge39" class="edge">
<title>src/gameManager.js&#45;&gt;src/keyboard.js</title>
<path fill="none" stroke="#757575" d="M168.51,-806.47C183.99,-783.57 221.74,-732.18 266,-704 318.42,-670.62 387.09,-651.22 436.28,-640.72"/>
<polygon fill="#757575" stroke="#757575" points="437.08,-644.13 446.16,-638.68 435.66,-637.28 437.08,-644.13"/>
</g>
<!-- src/player/Player.js -->
<g id="node24" class="node">
<title>src/player/Player.js</title>
<path fill="none" stroke="#c6c5fe" d="M388.33,-1097.5C388.33,-1097.5 273.67,-1097.5 273.67,-1097.5 269.83,-1097.5 266,-1093.67 266,-1089.83 266,-1089.83 266,-1082.17 266,-1082.17 266,-1078.33 269.83,-1074.5 273.67,-1074.5 273.67,-1074.5 388.33,-1074.5 388.33,-1074.5 392.17,-1074.5 396,-1078.33 396,-1082.17 396,-1082.17 396,-1089.83 396,-1089.83 396,-1093.67 392.17,-1097.5 388.33,-1097.5"/>
<text text-anchor="middle" x="331" y="-1082.3" font-family="Arial" font-size="14.00" fill="#c6c5fe">src/player/Player.js</text>
</g>
<!-- src/gameManager.js&#45;&gt;src/player/Player.js -->
<g id="edge42" class="edge">
<title>src/gameManager.js&#45;&gt;src/player/Player.js</title>
<path fill="none" stroke="#757575" d="M168.26,-829.52C194.37,-870.91 283.67,-1012.53 317.17,-1065.66"/>
<polygon fill="#757575" stroke="#757575" points="314.28,-1067.63 322.58,-1074.23 320.2,-1063.9 314.28,-1067.63"/>
</g>
<!-- src/step.js -->
<g id="node25" class="node">
<title>src/step.js</title>
<path fill="none" stroke="#c6c5fe" d="M931.33,-709.5C931.33,-709.5 869.67,-709.5 869.67,-709.5 865.83,-709.5 862,-705.67 862,-701.83 862,-701.83 862,-694.17 862,-694.17 862,-690.33 865.83,-686.5 869.67,-686.5 869.67,-686.5 931.33,-686.5 931.33,-686.5 935.17,-686.5 939,-690.33 939,-694.17 939,-694.17 939,-701.83 939,-701.83 939,-705.67 935.17,-709.5 931.33,-709.5"/>
<text text-anchor="middle" x="900.5" y="-694.3" font-family="Arial" font-size="14.00" fill="#c6c5fe">src/step.js</text>
</g>
<!-- src/gameManager.js&#45;&gt;src/step.js -->
<g id="edge46" class="edge">
<title>src/gameManager.js&#45;&gt;src/step.js</title>
<path fill="none" stroke="#757575" d="M230.14,-806.76C378.54,-782.65 724.39,-726.45 851.51,-705.8"/>
<polygon fill="#757575" stroke="#757575" points="852.4,-709.2 861.7,-704.14 851.27,-702.29 852.4,-709.2"/>
</g>
<!-- src/Boss.js&#45;&gt;src/gameState.js -->
<g id="edge3" class="edge">
<title>src/Boss.js&#45;&gt;src/gameState.js</title>
<path fill="none" stroke="#757575" d="M1181.07,-336.46C1211.76,-324.08 1263.09,-304.76 1309,-294 1469.71,-256.34 1911.99,-171 2051,-260 2115.35,-301.2 2136.26,-398.84 2142.53,-442.39"/>
<polygon fill="#757575" stroke="#757575" points="2139.08,-443 2143.86,-452.46 2146.02,-442.09 2139.08,-443"/>
</g>
<!-- src/Boss.js&#45;&gt;src/levelCompleteScreen.js -->
<g id="edge4" class="edge">
<title>src/Boss.js&#45;&gt;src/levelCompleteScreen.js</title>
<path fill="none" stroke="#757575" d="M1176.72,-359.54C1204.97,-374.95 1251.53,-405.15 1273,-446 1361.81,-614.97 1235.59,-697.79 1309,-874 1329.39,-922.94 1374.38,-967.12 1401.65,-990.8"/>
<polygon fill="#757575" stroke="#757575" points="1399.61,-993.66 1409.5,-997.48 1404.15,-988.33 1399.61,-993.66"/>
</g>
<!-- src/weapons/enemyRocketAtack.js -->
<g id="node7" class="node">
<title>src/weapons/enemyRocketAtack.js</title>
<path fill="none" stroke="#cfffac" d="M1796.33,-169.5C1796.33,-169.5 1584.67,-169.5 1584.67,-169.5 1580.83,-169.5 1577,-165.67 1577,-161.83 1577,-161.83 1577,-154.17 1577,-154.17 1577,-150.33 1580.83,-146.5 1584.67,-146.5 1584.67,-146.5 1796.33,-146.5 1796.33,-146.5 1800.17,-146.5 1804,-150.33 1804,-154.17 1804,-154.17 1804,-161.83 1804,-161.83 1804,-165.67 1800.17,-169.5 1796.33,-169.5"/>
<text text-anchor="middle" x="1690.5" y="-154.3" font-family="Arial" font-size="14.00" fill="#cfffac">src/weapons/enemyRocketAtack.js</text>
</g>
<!-- src/Boss.js&#45;&gt;src/weapons/enemyRocketAtack.js -->
<g id="edge5" class="edge">
<title>src/Boss.js&#45;&gt;src/weapons/enemyRocketAtack.js</title>
<path fill="none" stroke="#757575" d="M1163.37,-336.24C1186.06,-310.08 1244.92,-247.1 1309,-218 1334.22,-206.55 1486.13,-184.79 1590.2,-170.86"/>
<polygon fill="#757575" stroke="#757575" points="1590.67,-174.33 1600.12,-169.54 1589.75,-167.39 1590.67,-174.33"/>
</g>
<!-- src/weapons/gatling.js -->
<g id="node8" class="node">
<title>src/weapons/gatling.js</title>
<path fill="none" stroke="#c6c5fe" d="M1757.33,-747.5C1757.33,-747.5 1623.67,-747.5 1623.67,-747.5 1619.83,-747.5 1616,-743.67 1616,-739.83 1616,-739.83 1616,-732.17 1616,-732.17 1616,-728.33 1619.83,-724.5 1623.67,-724.5 1623.67,-724.5 1757.33,-724.5 1757.33,-724.5 1761.17,-724.5 1765,-728.33 1765,-732.17 1765,-732.17 1765,-739.83 1765,-739.83 1765,-743.67 1761.17,-747.5 1757.33,-747.5"/>
<text text-anchor="middle" x="1690.5" y="-732.3" font-family="Arial" font-size="14.00" fill="#c6c5fe">src/weapons/gatling.js</text>
</g>
<!-- src/Boss.js&#45;&gt;src/weapons/gatling.js -->
<g id="edge6" class="edge">
<title>src/Boss.js&#45;&gt;src/weapons/gatling.js</title>
<path fill="none" stroke="#757575" d="M1174.8,-359.55C1201.91,-375.38 1248.21,-406.44 1273,-446 1309.4,-504.1 1259.76,-548.29 1309,-596 1384.62,-669.27 1454.44,-584.05 1541,-644 1565.63,-661.06 1553.23,-682.76 1577,-701 1588.4,-709.75 1602.03,-716.34 1615.79,-721.28"/>
<polygon fill="#757575" stroke="#757575" points="1614.72,-724.62 1625.31,-724.45 1616.93,-717.98 1614.72,-724.62"/>
</g>
<!-- src/weapons/gatling.js&#45;&gt;src/gameState.js -->
<g id="edge78" class="edge">
<title>src/weapons/gatling.js&#45;&gt;src/gameState.js</title>
<path fill="none" stroke="#757575" d="M1765.03,-741.78C1856.83,-747.44 2007.15,-751.13 2051,-719 2127.78,-662.73 2141.92,-536.79 2144.47,-485.93"/>
<polygon fill="#757575" stroke="#757575" points="2147.97,-485.87 2144.87,-475.74 2140.98,-485.59 2147.97,-485.87"/>
</g>
<!-- src/weapons/gatling.js&#45;&gt;src/music.js -->
<g id="edge79" class="edge">
<title>src/weapons/gatling.js&#45;&gt;src/music.js</title>
<path fill="none" stroke="#757575" d="M1716.22,-724.47C1761.75,-703.23 1858.93,-657.91 1910.59,-633.82"/>
<polygon fill="#757575" stroke="#757575" points="1912.1,-636.97 1919.68,-629.58 1909.14,-630.63 1912.1,-636.97"/>
</g>
<!-- src/ammo.js&#45;&gt;src/weapons/gatling.js -->
<g id="edge7" class="edge">
<title>src/ammo.js&#45;&gt;src/weapons/gatling.js</title>
<path fill="none" stroke="#757575" d="M1466.02,-800.46C1512.59,-787.03 1589.5,-764.84 1639.84,-750.32"/>
<polygon fill="#757575" stroke="#757575" points="1640.9,-753.66 1649.54,-747.53 1638.96,-746.94 1640.9,-753.66"/>
</g>
<!-- src/weapons/rocket.js -->
<g id="node10" class="node">
<title>src/weapons/rocket.js</title>
<path fill="none" stroke="#c6c5fe" d="M1755.83,-827.5C1755.83,-827.5 1625.17,-827.5 1625.17,-827.5 1621.33,-827.5 1617.5,-823.67 1617.5,-819.83 1617.5,-819.83 1617.5,-812.17 1617.5,-812.17 1617.5,-808.33 1621.33,-804.5 1625.17,-804.5 1625.17,-804.5 1755.83,-804.5 1755.83,-804.5 1759.67,-804.5 1763.5,-808.33 1763.5,-812.17 1763.5,-812.17 1763.5,-819.83 1763.5,-819.83 1763.5,-823.67 1759.67,-827.5 1755.83,-827.5"/>
<text text-anchor="middle" x="1690.5" y="-812.3" font-family="Arial" font-size="14.00" fill="#c6c5fe">src/weapons/rocket.js</text>
</g>
<!-- src/ammo.js&#45;&gt;src/weapons/rocket.js -->
<g id="edge8" class="edge">
<title>src/ammo.js&#45;&gt;src/weapons/rocket.js</title>
<path fill="none" stroke="#757575" d="M1470.7,-812.68C1508.03,-813.25 1562.25,-814.07 1607.37,-814.75"/>
<polygon fill="#757575" stroke="#757575" points="1607.39,-818.25 1617.44,-814.91 1607.5,-811.25 1607.39,-818.25"/>
</g>
<!-- src/weapons/rocket.js&#45;&gt;src/rendering/Helpers.js -->
<g id="edge82" class="edge">
<title>src/weapons/rocket.js&#45;&gt;src/rendering/Helpers.js</title>
<path fill="none" stroke="#757575" d="M1716.22,-804.47C1761.75,-783.23 1858.93,-737.91 1910.59,-713.82"/>
<polygon fill="#757575" stroke="#757575" points="1912.1,-716.97 1919.68,-709.58 1909.14,-710.63 1912.1,-716.97"/>
</g>
<!-- src/collisions/collisionHandlers.js -->
<g id="node12" class="node">
<title>src/collisions/collisionHandlers.js</title>
<path fill="none" stroke="#c6c5fe" d="M1523.33,-553.5C1523.33,-553.5 1326.67,-553.5 1326.67,-553.5 1322.83,-553.5 1319,-549.67 1319,-545.83 1319,-545.83 1319,-538.17 1319,-538.17 1319,-534.33 1322.83,-530.5 1326.67,-530.5 1326.67,-530.5 1523.33,-530.5 1523.33,-530.5 1527.17,-530.5 1531,-534.33 1531,-538.17 1531,-538.17 1531,-545.83 1531,-545.83 1531,-549.67 1527.17,-553.5 1523.33,-553.5"/>
<text text-anchor="middle" x="1425" y="-538.3" font-family="Arial" font-size="14.00" fill="#c6c5fe">src/collisions/collisionHandlers.js</text>
</g>
<!-- src/collisions/collisionHandlers.js&#45;&gt;src/gameState.js -->
<g id="edge9" class="edge">
<title>src/collisions/collisionHandlers.js&#45;&gt;src/gameState.js</title>
<path fill="none" stroke="#757575" d="M1512.47,-553.56C1522.63,-557.18 1532.41,-561.89 1541,-568 1565.71,-585.6 1550.86,-610.6 1577,-626 1622.4,-652.74 2005.78,-666.04 2051,-639 2107.42,-605.26 2131.94,-524.73 2140.78,-485.8"/>
<polygon fill="#757575" stroke="#757575" points="2144.25,-486.3 2142.91,-475.79 2137.41,-484.84 2144.25,-486.3"/>
</g>
<!-- src/collisions/collisionHandlers.js&#45;&gt;src/weapons/gatling.js -->
<g id="edge14" class="edge">
<title>src/collisions/collisionHandlers.js&#45;&gt;src/weapons/gatling.js</title>
<path fill="none" stroke="#757575" d="M1519.82,-553.55C1527.61,-557.27 1534.84,-562 1541,-568 1587.63,-613.44 1530.48,-664.45 1577,-710 1585.2,-718.03 1595.35,-723.76 1606.18,-727.83"/>
<polygon fill="#757575" stroke="#757575" points="1605.25,-731.21 1615.84,-731 1607.42,-724.56 1605.25,-731.21"/>
</g>
<!-- src/collisions/collisionHandlers.js&#45;&gt;src/weapons/rocket.js -->
<g id="edge15" class="edge">
<title>src/collisions/collisionHandlers.js&#45;&gt;src/weapons/rocket.js</title>
<path fill="none" stroke="#757575" d="M1431.65,-553.71C1449,-588.61 1504.69,-693.48 1577,-757 1598.17,-775.59 1626.22,-790.32 1649.02,-800.41"/>
<polygon fill="#757575" stroke="#757575" points="1647.87,-803.73 1658.44,-804.45 1650.63,-797.29 1647.87,-803.73"/>
</g>
<!-- src/collisions/collisionHandlers.js&#45;&gt;src/music.js -->
<g id="edge10" class="edge">
<title>src/collisions/collisionHandlers.js&#45;&gt;src/music.js</title>
<path fill="none" stroke="#757575" d="M1499.39,-553.53C1513.58,-557.16 1528.05,-561.87 1541,-568 1559.32,-576.66 1558.03,-588.85 1577,-596 1682.75,-635.85 1817.72,-631.15 1891.11,-624.43"/>
<polygon fill="#757575" stroke="#757575" points="1891.86,-627.87 1901.48,-623.43 1891.19,-620.9 1891.86,-627.87"/>
</g>
<!-- src/rendering/Explosion.js -->
<g id="node14" class="node">
<title>src/rendering/Explosion.js</title>
<path fill="none" stroke="#cfffac" d="M1768.33,-553.5C1768.33,-553.5 1612.67,-553.5 1612.67,-553.5 1608.83,-553.5 1605,-549.67 1605,-545.83 1605,-545.83 1605,-538.17 1605,-538.17 1605,-534.33 1608.83,-530.5 1612.67,-530.5 1612.67,-530.5 1768.33,-530.5 1768.33,-530.5 1772.17,-530.5 1776,-534.33 1776,-538.17 1776,-538.17 1776,-545.83 1776,-545.83 1776,-549.67 1772.17,-553.5 1768.33,-553.5"/>
<text text-anchor="middle" x="1690.5" y="-538.3" font-family="Arial" font-size="14.00" fill="#cfffac">src/rendering/Explosion.js</text>
</g>
<!-- src/collisions/collisionHandlers.js&#45;&gt;src/rendering/Explosion.js -->
<g id="edge11" class="edge">
<title>src/collisions/collisionHandlers.js&#45;&gt;src/rendering/Explosion.js</title>
<path fill="none" stroke="#757575" d="M1531.28,-542C1552.13,-542 1573.9,-542 1594.38,-542"/>
<polygon fill="#757575" stroke="#757575" points="1594.64,-545.5 1604.64,-542 1594.64,-538.5 1594.64,-545.5"/>
</g>
<!-- src/collisions/collisionHandlers.js&#45;&gt;src/rendering/Helpers.js -->
<g id="edge12" class="edge">
<title>src/collisions/collisionHandlers.js&#45;&gt;src/rendering/Helpers.js</title>
<path fill="none" stroke="#757575" d="M1518.17,-553.6C1526.49,-557.28 1534.29,-561.99 1541,-568 1577.45,-600.62 1538.18,-642.24 1577,-672 1619.12,-704.29 1761.07,-705.64 1855.71,-702.6"/>
<polygon fill="#757575" stroke="#757575" points="1855.99,-706.09 1865.86,-702.25 1855.75,-699.1 1855.99,-706.09"/>
</g>
<!-- src/collisions/collisionHandlers.js&#45;&gt;src/scores/scores.js -->
<g id="edge13" class="edge">
<title>src/collisions/collisionHandlers.js&#45;&gt;src/scores/scores.js</title>
<path fill="none" stroke="#757575" d="M1440.24,-530.36C1465.37,-508.91 1517.18,-460.43 1541,-407 1590.11,-296.83 1493.93,-225.46 1577,-138 1586.58,-127.91 1599.33,-121.77 1612.81,-118.18"/>
<polygon fill="#757575" stroke="#757575" points="1613.7,-121.56 1622.71,-115.99 1612.19,-114.73 1613.7,-121.56"/>
</g>
<!-- src/scores/currentGameScore.js -->
<g id="node32" class="node">
<title>src/scores/currentGameScore.js</title>
<path fill="none" stroke="#c6c5fe" d="M2043.33,-169.5C2043.33,-169.5 1847.67,-169.5 1847.67,-169.5 1843.83,-169.5 1840,-165.67 1840,-161.83 1840,-161.83 1840,-154.17 1840,-154.17 1840,-150.33 1843.83,-146.5 1847.67,-146.5 1847.67,-146.5 2043.33,-146.5 2043.33,-146.5 2047.17,-146.5 2051,-150.33 2051,-154.17 2051,-154.17 2051,-161.83 2051,-161.83 2051,-165.67 2047.17,-169.5 2043.33,-169.5"/>
<text text-anchor="middle" x="1945.5" y="-154.3" font-family="Arial" font-size="14.00" fill="#c6c5fe">src/scores/currentGameScore.js</text>
</g>
<!-- src/scores/scores.js&#45;&gt;src/scores/currentGameScore.js -->
<g id="edge64" class="edge">
<title>src/scores/scores.js&#45;&gt;src/scores/currentGameScore.js</title>
<path fill="none" stroke="#757575" d="M1758.3,-127.83C1790.55,-133.05 1829.51,-139.37 1863.44,-144.86"/>
<polygon fill="#757575" stroke="#757575" points="1862.9,-148.32 1873.33,-146.47 1864.02,-141.41 1862.9,-148.32"/>
</g>
<!-- src/collisions/collisions.js -->
<g id="node17" class="node">
<title>src/collisions/collisions.js</title>
<path fill="none" stroke="#c6c5fe" d="M1227.33,-709.5C1227.33,-709.5 1077.67,-709.5 1077.67,-709.5 1073.83,-709.5 1070,-705.67 1070,-701.83 1070,-701.83 1070,-694.17 1070,-694.17 1070,-690.33 1073.83,-686.5 1077.67,-686.5 1077.67,-686.5 1227.33,-686.5 1227.33,-686.5 1231.17,-686.5 1235,-690.33 1235,-694.17 1235,-694.17 1235,-701.83 1235,-701.83 1235,-705.67 1231.17,-709.5 1227.33,-709.5"/>
<text text-anchor="middle" x="1152.5" y="-694.3" font-family="Arial" font-size="14.00" fill="#c6c5fe">src/collisions/collisions.js</text>
</g>
<!-- src/collisions/collisions.js&#45;&gt;src/gameState.js -->
<g id="edge17" class="edge">
<title>src/collisions/collisions.js&#45;&gt;src/gameState.js</title>
<path fill="none" stroke="#757575" d="M1234.69,-709.56C1268.22,-714.32 1301.13,-718.97 1309,-720 1411.98,-733.5 1438.87,-729.15 1541,-748 1557.22,-750.99 1560.63,-754.98 1577,-757 1677.13,-769.33 1703.14,-759.24 1804,-757 1913.86,-754.55 1963.31,-812.22 2051,-746 2135.2,-682.42 2144.87,-540.52 2145.34,-485.96"/>
<polygon fill="#757575" stroke="#757575" points="2148.84,-485.7 2145.33,-475.7 2141.84,-485.71 2148.84,-485.7"/>
</g>
<!-- src/collisions/collisions.js&#45;&gt;src/weapons/gatling.js -->
<g id="edge18" class="edge">
<title>src/collisions/collisions.js&#45;&gt;src/weapons/gatling.js</title>
<path fill="none" stroke="#757575" d="M1235.23,-701.44C1313.71,-705.02 1435.56,-711.33 1541,-720 1561.99,-721.73 1584.6,-723.97 1605.7,-726.22"/>
<polygon fill="#757575" stroke="#757575" points="1605.61,-729.73 1615.93,-727.33 1606.36,-722.77 1605.61,-729.73"/>
</g>
<!-- src/collisions/collisions.js&#45;&gt;src/weapons/rocket.js -->
<g id="edge19" class="edge">
<title>src/collisions/collisions.js&#45;&gt;src/weapons/rocket.js</title>
<path fill="none" stroke="#757575" d="M1235.13,-702.92C1248.19,-705.59 1261.25,-709.45 1273,-715 1292.62,-724.28 1289.55,-738.38 1309,-748 1322.38,-754.62 1501.13,-784.91 1608.8,-802.75"/>
<polygon fill="#757575" stroke="#757575" points="1608.55,-806.26 1618.99,-804.44 1609.69,-799.36 1608.55,-806.26"/>
</g>
<!-- src/collisions/collisions.js&#45;&gt;src/collisions/collisionHandlers.js -->
<g id="edge16" class="edge">
<title>src/collisions/collisions.js&#45;&gt;src/collisions/collisionHandlers.js</title>
<path fill="none" stroke="#757575" d="M1176.17,-686.34C1200.36,-673.78 1239.7,-653.04 1273,-634 1316.95,-608.87 1366.95,-577.93 1396.96,-559.1"/>
<polygon fill="#757575" stroke="#757575" points="1399,-561.95 1405.6,-553.67 1395.27,-556.03 1399,-561.95"/>
</g>
<!-- src/enemy/enemy.js&#45;&gt;src/gameState.js -->
<g id="edge20" class="edge">
<title>src/enemy/enemy.js&#45;&gt;src/gameState.js</title>
<path fill="none" stroke="#757575" d="M1490.81,-374.46C1517.42,-370.27 1548.6,-366.06 1577,-364 1677.63,-356.71 1704.14,-349.66 1804,-364 1916.75,-380.19 2044.23,-425.04 2106.55,-448.79"/>
<polygon fill="#757575" stroke="#757575" points="2105.39,-452.09 2115.98,-452.41 2107.9,-445.56 2105.39,-452.09"/>
</g>
<!-- src/enemy/enemy.js&#45;&gt;src/music.js -->
<g id="edge21" class="edge">
<title>src/enemy/enemy.js&#45;&gt;src/music.js</title>
<path fill="none" stroke="#757575" d="M1488.99,-374.48C1568.15,-363.39 1705.55,-355.57 1804,-412 1877.91,-454.36 1921.21,-553.31 1937.29,-596.83"/>
<polygon fill="#757575" stroke="#757575" points="1934.05,-598.16 1940.71,-606.4 1940.64,-595.8 1934.05,-598.16"/>
</g>
<!-- src/enemy/enemy.js&#45;&gt;src/rendering/Explosion.js -->
<g id="edge22" class="edge">
<title>src/enemy/enemy.js&#45;&gt;src/rendering/Explosion.js</title>
<path fill="none" stroke="#757575" d="M1439.09,-397.57C1474.31,-428.66 1568.98,-511.94 1577,-516 1586.21,-520.67 1596.28,-524.51 1606.48,-527.67"/>
<polygon fill="#757575" stroke="#757575" points="1605.69,-531.09 1616.27,-530.5 1607.63,-524.36 1605.69,-531.09"/>
</g>
<!-- src/enemy/enemy.js&#45;&gt;src/rendering/Helpers.js -->
<g id="edge23" class="edge">
<title>src/enemy/enemy.js&#45;&gt;src/rendering/Helpers.js</title>
<path fill="none" stroke="#757575" d="M1493.54,-392.14C1577.78,-403.38 1720.83,-434.83 1804,-522 1841.56,-561.36 1805.89,-596.62 1840,-639 1855.75,-658.56 1879.83,-672.79 1900.91,-682.36"/>
<polygon fill="#757575" stroke="#757575" points="1899.78,-685.68 1910.35,-686.43 1902.55,-679.25 1899.78,-685.68"/>
</g>
<!-- src/enemy/enemyFactory.js -->
<g id="node19" class="node">
<title>src/enemy/enemyFactory.js</title>
<path fill="none" stroke="#c6c5fe" d="M1235.83,-176.5C1235.83,-176.5 1069.17,-176.5 1069.17,-176.5 1065.33,-176.5 1061.5,-172.67 1061.5,-168.83 1061.5,-168.83 1061.5,-161.17 1061.5,-161.17 1061.5,-157.33 1065.33,-153.5 1069.17,-153.5 1069.17,-153.5 1235.83,-153.5 1235.83,-153.5 1239.67,-153.5 1243.5,-157.33 1243.5,-161.17 1243.5,-161.17 1243.5,-168.83 1243.5,-168.83 1243.5,-172.67 1239.67,-176.5 1235.83,-176.5"/>
<text text-anchor="middle" x="1152.5" y="-161.3" font-family="Arial" font-size="14.00" fill="#c6c5fe">src/enemy/enemyFactory.js</text>
</g>
<!-- src/enemy/enemyFactory.js&#45;&gt;src/weapons/enemyRocketAtack.js -->
<g id="edge27" class="edge">
<title>src/enemy/enemyFactory.js&#45;&gt;src/weapons/enemyRocketAtack.js</title>
<path fill="none" stroke="#757575" d="M1243.52,-163.82C1332.16,-162.67 1468.23,-160.89 1566.76,-159.6"/>
<polygon fill="#757575" stroke="#757575" points="1566.82,-163.1 1576.77,-159.47 1566.73,-156.1 1566.82,-163.1"/>
</g>
<!-- src/enemy/enemyFactory.js&#45;&gt;src/scores/scores.js -->
<g id="edge26" class="edge">
<title>src/enemy/enemyFactory.js&#45;&gt;src/scores/scores.js</title>
<path fill="none" stroke="#757575" d="M1243.52,-156.94C1347.05,-147.67 1515.26,-132.6 1612.82,-123.87"/>
<polygon fill="#757575" stroke="#757575" points="1613.25,-127.34 1622.9,-122.96 1612.63,-120.37 1613.25,-127.34"/>
</g>
<!-- src/enemy/enemyFactory.js&#45;&gt;src/enemy/enemy.js -->
<g id="edge24" class="edge">
<title>src/enemy/enemyFactory.js&#45;&gt;src/enemy/enemy.js</title>
<path fill="none" stroke="#757575" d="M1189.84,-176.57C1214.67,-185.53 1247.56,-199.53 1273,-218 1332.72,-261.36 1386.23,-331.75 1410.4,-366.01"/>
<polygon fill="#757575" stroke="#757575" points="1407.57,-368.07 1416.15,-374.28 1413.31,-364.07 1407.57,-368.07"/>
</g>
<!-- src/enemy/enemyManoeuvre.js -->
<g id="node20" class="node">
<title>src/enemy/enemyManoeuvre.js</title>
<path fill="none" stroke="#c6c5fe" d="M1520.33,-864.5C1520.33,-864.5 1329.67,-864.5 1329.67,-864.5 1325.83,-864.5 1322,-860.67 1322,-856.83 1322,-856.83 1322,-849.17 1322,-849.17 1322,-845.33 1325.83,-841.5 1329.67,-841.5 1329.67,-841.5 1520.33,-841.5 1520.33,-841.5 1524.17,-841.5 1528,-845.33 1528,-849.17 1528,-849.17 1528,-856.83 1528,-856.83 1528,-860.67 1524.17,-864.5 1520.33,-864.5"/>
<text text-anchor="middle" x="1425" y="-849.3" font-family="Arial" font-size="14.00" fill="#c6c5fe">src/enemy/enemyManoeuvre.js</text>
</g>
<!-- src/enemy/enemyFactory.js&#45;&gt;src/enemy/enemyManoeuvre.js -->
<g id="edge25" class="edge">
<title>src/enemy/enemyFactory.js&#45;&gt;src/enemy/enemyManoeuvre.js</title>
<path fill="none" stroke="#757575" d="M1165.82,-176.64C1191.25,-201.57 1249.17,-263.11 1273,-328 1311.78,-433.61 1233.56,-749.53 1309,-833 1310.43,-834.58 1311.93,-836.06 1313.5,-837.45"/>
<polygon fill="#757575" stroke="#757575" points="1311.77,-840.53 1321.88,-843.68 1315.94,-834.91 1311.77,-840.53"/>
</g>
<!-- src/weapons/groundEnemyAttack.js -->
<g id="node21" class="node">
<title>src/weapons/groundEnemyAttack.js</title>
<path fill="none" stroke="#c6c5fe" d="M1533.33,-89.5C1533.33,-89.5 1316.67,-89.5 1316.67,-89.5 1312.83,-89.5 1309,-85.67 1309,-81.83 1309,-81.83 1309,-74.17 1309,-74.17 1309,-70.33 1312.83,-66.5 1316.67,-66.5 1316.67,-66.5 1533.33,-66.5 1533.33,-66.5 1537.17,-66.5 1541,-70.33 1541,-74.17 1541,-74.17 1541,-81.83 1541,-81.83 1541,-85.67 1537.17,-89.5 1533.33,-89.5"/>
<text text-anchor="middle" x="1425" y="-74.3" font-family="Arial" font-size="14.00" fill="#c6c5fe">src/weapons/groundEnemyAttack.js</text>
</g>
<!-- src/enemy/enemyFactory.js&#45;&gt;src/weapons/groundEnemyAttack.js -->
<g id="edge28" class="edge">
<title>src/enemy/enemyFactory.js&#45;&gt;src/weapons/groundEnemyAttack.js</title>
<path fill="none" stroke="#757575" d="M1179.48,-153.4C1210.01,-140.11 1262.43,-118.31 1309,-104 1323.77,-99.46 1339.82,-95.34 1355.12,-91.78"/>
<polygon fill="#757575" stroke="#757575" points="1356.07,-95.16 1365.04,-89.53 1354.52,-88.33 1356.07,-95.16"/>
</g>
<!-- src/enemy/enemyManoeuvre.js&#45;&gt;src/background.js -->
<g id="edge32" class="edge">
<title>src/enemy/enemyManoeuvre.js&#45;&gt;src/background.js</title>
<path fill="none" stroke="#757575" d="M1452.23,-864.55C1499.65,-885.42 1599.72,-929.48 1653.51,-953.15"/>
<polygon fill="#757575" stroke="#757575" points="1652.42,-956.5 1662.99,-957.33 1655.24,-950.1 1652.42,-956.5"/>
</g>
<!-- src/weapons/groundEnemyAttack.js&#45;&gt;src/gameState.js -->
<g id="edge80" class="edge">
<title>src/weapons/groundEnemyAttack.js&#45;&gt;src/gameState.js</title>
<path fill="none" stroke="#757575" d="M1541.17,-73.43C1700.82,-69.64 1978.02,-73.05 2051,-138 2097.69,-179.55 2131.57,-376.25 2141.79,-442.31"/>
<polygon fill="#757575" stroke="#757575" points="2138.36,-443.04 2143.32,-452.4 2145.28,-441.99 2138.36,-443.04"/>
</g>
<!-- src/weapons/groundEnemyAttack.js&#45;&gt;src/weapons/enemyRocketAtack.js -->
<g id="edge81" class="edge">
<title>src/weapons/groundEnemyAttack.js&#45;&gt;src/weapons/enemyRocketAtack.js</title>
<path fill="none" stroke="#757575" d="M1450.58,-89.56C1480.03,-102.99 1531.15,-124.96 1577,-138 1585.25,-140.35 1593.92,-142.47 1602.64,-144.38"/>
<polygon fill="#757575" stroke="#757575" points="1601.97,-147.82 1612.47,-146.45 1603.41,-140.97 1601.97,-147.82"/>
</g>
<!-- src/enemy/enemyManager.js&#45;&gt;src/gameState.js -->
<g id="edge30" class="edge">
<title>src/enemy/enemyManager.js&#45;&gt;src/gameState.js</title>
<path fill="none" stroke="#757575" d="M927.82,-158.4C1003.41,-126.19 1228.22,-38 1424,-38 1424,-38 1424,-38 1691.5,-38 1852.22,-38 1930.2,29.01 2051,-77 2107.1,-126.23 2135.44,-367.71 2142.93,-442.13"/>
<polygon fill="#757575" stroke="#757575" points="2139.46,-442.61 2143.93,-452.22 2146.43,-441.93 2139.46,-442.61"/>
</g>
<!-- src/enemy/enemyManager.js&#45;&gt;src/weapons/gatling.js -->
<g id="edge31" class="edge">
<title>src/enemy/enemyManager.js&#45;&gt;src/weapons/gatling.js</title>
<path fill="none" stroke="#757575" d="M984.43,-181.53C1070.67,-198.15 1202.71,-237.5 1273,-328 1337.81,-411.45 1233.89,-488.69 1309,-563 1383.04,-636.25 1460.73,-529.63 1541,-596 1579.02,-627.44 1541.62,-666.62 1577,-701 1585.71,-709.46 1596.43,-715.88 1607.76,-720.75"/>
<polygon fill="#757575" stroke="#757575" points="1606.8,-724.14 1617.39,-724.49 1609.34,-717.61 1606.8,-724.14"/>
</g>
<!-- src/enemy/enemyManager.js&#45;&gt;src/enemy/enemyFactory.js -->
<g id="edge29" class="edge">
<title>src/enemy/enemyManager.js&#45;&gt;src/enemy/enemyFactory.js</title>
<path fill="none" stroke="#757575" d="M996.01,-168.11C1014.1,-167.75 1033.09,-167.37 1051.34,-167"/>
<polygon fill="#757575" stroke="#757575" points="1051.47,-170.5 1061.4,-166.8 1051.33,-163.5 1051.47,-170.5"/>
</g>
<!-- src/keyboard.js&#45;&gt;src/gameState.js -->
<g id="edge52" class="edge">
<title>src/keyboard.js&#45;&gt;src/gameState.js</title>
<path fill="none" stroke="#757575" d="M503.16,-618.47C510.33,-583.8 536.79,-480.16 604,-435 852,-268.38 1009.62,-510.06 1273,-369 1295.27,-357.07 1286.26,-336.01 1309,-325 1383.21,-289.06 1978.74,-276.29 2051,-316 2100.35,-343.12 2127.46,-408.32 2138.7,-442.41"/>
<polygon fill="#757575" stroke="#757575" points="2135.47,-443.8 2141.81,-452.3 2142.15,-441.71 2135.47,-443.8"/>
</g>
<!-- src/keyboard.js&#45;&gt;src/weapons/rocket.js -->
<g id="edge55" class="edge">
<title>src/keyboard.js&#45;&gt;src/weapons/rocket.js</title>
<path fill="none" stroke="#757575" d="M523.9,-641.51C596.42,-677.48 828.26,-788.85 1032,-847 1152.08,-881.27 1184.57,-883.52 1309,-894 1411.75,-902.65 1440.89,-918.69 1541,-894 1588.2,-882.36 1636.99,-852.73 1665.22,-833.53"/>
<polygon fill="#757575" stroke="#757575" points="1667.41,-836.27 1673.64,-827.69 1663.43,-830.51 1667.41,-836.27"/>
</g>
<!-- src/keyboard.js&#45;&gt;src/music.js -->
<g id="edge53" class="edge">
<title>src/keyboard.js&#45;&gt;src/music.js</title>
<path fill="none" stroke="#757575" d="M505.87,-618.35C517.93,-591.16 551.99,-523.58 604,-494 770.38,-399.36 840.88,-456.68 1032,-446 1138.94,-440.02 1166.16,-438.39 1273,-446 1510.8,-462.93 1581.8,-435.61 1804,-522 1851.21,-540.35 1898.2,-577.18 1924.09,-599.51"/>
<polygon fill="#757575" stroke="#757575" points="1921.9,-602.24 1931.73,-606.2 1926.52,-596.98 1921.9,-602.24"/>
</g>
<!-- src/gameMenuActions.js -->
<g id="node26" class="node">
<title>src/gameMenuActions.js</title>
<path fill="none" stroke="#c6c5fe" d="M761.33,-641.5C761.33,-641.5 611.67,-641.5 611.67,-641.5 607.83,-641.5 604,-637.67 604,-633.83 604,-633.83 604,-626.17 604,-626.17 604,-622.33 607.83,-618.5 611.67,-618.5 611.67,-618.5 761.33,-618.5 761.33,-618.5 765.17,-618.5 769,-622.33 769,-626.17 769,-626.17 769,-633.83 769,-633.83 769,-637.67 765.17,-641.5 761.33,-641.5"/>
<text text-anchor="middle" x="686.5" y="-626.3" font-family="Arial" font-size="14.00" fill="#c6c5fe">src/gameMenuActions.js</text>
</g>
<!-- src/keyboard.js&#45;&gt;src/gameMenuActions.js -->
<g id="edge51" class="edge">
<title>src/keyboard.js&#45;&gt;src/gameMenuActions.js</title>
<path fill="none" stroke="#757575" d="M553.87,-630C566.26,-630 579.81,-630 593.37,-630"/>
<polygon fill="#757575" stroke="#757575" points="593.71,-633.5 603.71,-630 593.71,-626.5 593.71,-633.5"/>
</g>
<!-- src/touch.js -->
<g id="node28" class="node">
<title>src/touch.js</title>
<path fill="none" stroke="#c6c5fe" d="M721.33,-525.5C721.33,-525.5 651.67,-525.5 651.67,-525.5 647.83,-525.5 644,-521.67 644,-517.83 644,-517.83 644,-510.17 644,-510.17 644,-506.33 647.83,-502.5 651.67,-502.5 651.67,-502.5 721.33,-502.5 721.33,-502.5 725.17,-502.5 729,-506.33 729,-510.17 729,-510.17 729,-517.83 729,-517.83 729,-521.67 725.17,-525.5 721.33,-525.5"/>
<text text-anchor="middle" x="686.5" y="-510.3" font-family="Arial" font-size="14.00" fill="#c6c5fe">src/touch.js</text>
</g>
<!-- src/keyboard.js&#45;&gt;src/touch.js -->
<g id="edge54" class="edge">
<title>src/keyboard.js&#45;&gt;src/touch.js</title>
<path fill="none" stroke="#757575" d="M519.37,-618.45C552.02,-597.92 620.32,-554.98 658.4,-531.04"/>
<polygon fill="#757575" stroke="#757575" points="660.33,-533.96 666.94,-525.67 656.61,-528.03 660.33,-533.96"/>
</g>
<!-- src/player/Player.js&#45;&gt;src/gameState.js -->
<g id="edge57" class="edge">
<title>src/player/Player.js&#45;&gt;src/gameState.js</title>
<path fill="none" stroke="#757575" d="M367.44,-1097.63C376.99,-1101.35 387.12,-1105.86 396,-1111 413.78,-1121.3 412.98,-1132.22 432,-1140 503.1,-1169.09 527.52,-1149.8 604,-1157 1135.31,-1207.05 1361.81,-1413.77 1804,-1115 2039.69,-955.76 2123.49,-580.16 2141.2,-485.8"/>
<polygon fill="#757575" stroke="#757575" points="2144.69,-486.19 2143.04,-475.72 2137.8,-484.93 2144.69,-486.19"/>
</g>
<!-- src/player/Player.js&#45;&gt;src/weapons/gatling.js -->
<g id="edge61" class="edge">
<title>src/player/Player.js&#45;&gt;src/weapons/gatling.js</title>
<path fill="none" stroke="#757575" d="M396.31,-1075.49C467,-1064.86 584.02,-1050 685.5,-1050 685.5,-1050 685.5,-1050 901.5,-1050 972.59,-1050 1487.78,-1077.13 1541,-1030 1619.78,-960.25 1516.14,-881.84 1577,-796 1591.96,-774.91 1616.69,-760.57 1639.16,-751.22"/>
<polygon fill="#757575" stroke="#757575" points="1640.58,-754.42 1648.61,-747.51 1638.03,-747.9 1640.58,-754.42"/>
</g>
<!-- src/player/Player.js&#45;&gt;src/weapons/rocket.js -->
<g id="edge62" class="edge">
<title>src/player/Player.js&#45;&gt;src/weapons/rocket.js</title>
<path fill="none" stroke="#757575" d="M396.08,-1094.2C619.29,-1121.35 1358.88,-1199.15 1541,-1063 1583.56,-1031.19 1551.34,-995.53 1577,-949 1602.17,-903.36 1644.44,-858.89 1669.38,-834.7"/>
<polygon fill="#757575" stroke="#757575" points="1672.01,-837.03 1676.82,-827.59 1667.17,-831.97 1672.01,-837.03"/>
</g>
<!-- src/player/Player.js&#45;&gt;src/music.js -->
<g id="edge59" class="edge">
<title>src/player/Player.js&#45;&gt;src/music.js</title>
<path fill="none" stroke="#757575" d="M361.29,-1097.51C380.99,-1104.79 407.69,-1113.78 432,-1119 507.15,-1135.14 527.35,-1131.28 604,-1137 870.61,-1156.9 1627.08,-1251.44 1804,-1051 1859.11,-988.57 1794.86,-747.98 1840,-678 1853.39,-657.25 1876.64,-642.88 1897.82,-633.42"/>
<polygon fill="#757575" stroke="#757575" points="1899.19,-636.64 1907.05,-629.53 1896.48,-630.19 1899.19,-636.64"/>
</g>
<!-- src/player/Player.js&#45;&gt;src/keyboard.js -->
<g id="edge58" class="edge">
<title>src/player/Player.js&#45;&gt;src/keyboard.js</title>
<path fill="none" stroke="#757575" d="M336.3,-1074.27C358.67,-1013.17 461.98,-731.08 491.25,-651.16"/>
<polygon fill="#757575" stroke="#757575" points="494.58,-652.25 494.73,-641.65 488.01,-649.84 494.58,-652.25"/>
</g>
<!-- src/gameOver.js -->
<g id="node27" class="node">
<title>src/gameOver.js</title>
<path fill="none" stroke="#c6c5fe" d="M1202.83,-1021.5C1202.83,-1021.5 1102.17,-1021.5 1102.17,-1021.5 1098.33,-1021.5 1094.5,-1017.67 1094.5,-1013.83 1094.5,-1013.83 1094.5,-1006.17 1094.5,-1006.17 1094.5,-1002.33 1098.33,-998.5 1102.17,-998.5 1102.17,-998.5 1202.83,-998.5 1202.83,-998.5 1206.67,-998.5 1210.5,-1002.33 1210.5,-1006.17 1210.5,-1006.17 1210.5,-1013.83 1210.5,-1013.83 1210.5,-1017.67 1206.67,-1021.5 1202.83,-1021.5"/>
<text text-anchor="middle" x="1152.5" y="-1006.3" font-family="Arial" font-size="14.00" fill="#c6c5fe">src/gameOver.js</text>
</g>
<!-- src/player/Player.js&#45;&gt;src/gameOver.js -->
<g id="edge56" class="edge">
<title>src/player/Player.js&#45;&gt;src/gameOver.js</title>
<path fill="none" stroke="#757575" d="M349.51,-1074.32C368.79,-1062.18 401.16,-1043.87 432,-1036 665.48,-976.41 955.33,-991.82 1084.25,-1003.07"/>
<polygon fill="#757575" stroke="#757575" points="1084.09,-1006.57 1094.37,-1003.97 1084.72,-999.6 1084.09,-1006.57"/>
</g>
<!-- src/weapons/flare.js -->
<g id="node31" class="node">
<title>src/weapons/flare.js</title>
<path fill="none" stroke="#c6c5fe" d="M560.33,-1248.5C560.33,-1248.5 439.67,-1248.5 439.67,-1248.5 435.83,-1248.5 432,-1244.67 432,-1240.83 432,-1240.83 432,-1233.17 432,-1233.17 432,-1229.33 435.83,-1225.5 439.67,-1225.5 439.67,-1225.5 560.33,-1225.5 560.33,-1225.5 564.17,-1225.5 568,-1229.33 568,-1233.17 568,-1233.17 568,-1240.83 568,-1240.83 568,-1244.67 564.17,-1248.5 560.33,-1248.5"/>
<text text-anchor="middle" x="500" y="-1233.3" font-family="Arial" font-size="14.00" fill="#c6c5fe">src/weapons/flare.js</text>
</g>
<!-- src/player/Player.js&#45;&gt;src/weapons/flare.js -->
<g id="edge60" class="edge">
<title>src/player/Player.js&#45;&gt;src/weapons/flare.js</title>
<path fill="none" stroke="#757575" d="M338.45,-1097.7C352.44,-1122.05 387.86,-1178.61 432,-1211 437.41,-1214.97 443.5,-1218.42 449.74,-1221.39"/>
<polygon fill="#757575" stroke="#757575" points="448.38,-1224.61 458.95,-1225.4 451.18,-1218.2 448.38,-1224.61"/>
</g>
<!-- src/step.js&#45;&gt;src/gameState.js -->
<g id="edge70" class="edge">
<title>src/step.js&#45;&gt;src/gameState.js</title>
<path fill="none" stroke="#757575" d="M939.07,-688.12C1032.15,-663.59 1266.41,-601.47 1273,-596 1301.14,-572.63 1277.99,-541.4 1309,-522 1396.42,-467.32 1447.07,-479.47 1541,-522 1563.09,-532 1554.91,-553 1577,-563 1668.91,-604.61 1704.12,-577.21 1804,-563 1916.39,-547.02 2043.53,-502.8 2106.05,-479.24"/>
<polygon fill="#757575" stroke="#757575" points="2107.41,-482.47 2115.52,-475.64 2104.93,-475.92 2107.41,-482.47"/>
</g>
<!-- src/step.js&#45;&gt;src/weapons/gatling.js -->
<g id="edge74" class="edge">
<title>src/step.js&#45;&gt;src/weapons/gatling.js</title>
<path fill="none" stroke="#757575" d="M939.02,-690.7C965,-686.03 1000.46,-680.4 1032,-678 1257.8,-660.8 1317.39,-665.25 1541,-701 1573.64,-706.22 1609.74,-714.67 1638.18,-721.95"/>
<polygon fill="#757575" stroke="#757575" points="1637.34,-725.35 1647.9,-724.48 1639.1,-718.58 1637.34,-725.35"/>
</g>
<!-- src/step.js&#45;&gt;src/ammo.js -->
<g id="edge65" class="edge">
<title>src/step.js&#45;&gt;src/ammo.js</title>
<path fill="none" stroke="#757575" d="M939.11,-704.06C1033.42,-719.25 1272.52,-757.79 1273,-758 1291.59,-766.09 1290.68,-777.34 1309,-786 1327.75,-794.87 1349.68,-800.79 1369.33,-804.71"/>
<polygon fill="#757575" stroke="#757575" points="1368.89,-808.19 1379.37,-806.58 1370.18,-801.3 1368.89,-808.19"/>
</g>
<!-- src/step.js&#45;&gt;src/weapons/rocket.js -->
<g id="edge75" class="edge">
<title>src/step.js&#45;&gt;src/weapons/rocket.js</title>
<path fill="none" stroke="#757575" d="M919.03,-709.69C938.35,-722.79 970.13,-744.96 996,-766 1012.84,-779.7 1012.99,-788.53 1032,-799 1143.74,-860.5 1182.57,-857.19 1309,-874 1411.21,-887.59 1439.67,-893.09 1541,-874 1583.28,-866.04 1628.96,-846.36 1658.33,-832.13"/>
<polygon fill="#757575" stroke="#757575" points="1660.21,-835.11 1667.63,-827.54 1657.11,-828.83 1660.21,-835.11"/>
</g>
<!-- src/step.js&#45;&gt;src/background.js -->
<g id="edge66" class="edge">
<title>src/step.js&#45;&gt;src/background.js</title>
<path fill="none" stroke="#757575" d="M907.92,-709.65C924.36,-738.29 971.04,-812.3 1032,-847 1223.61,-956.07 1492.77,-970.46 1618.98,-970.61"/>
<polygon fill="#757575" stroke="#757575" points="1619.28,-974.11 1629.28,-970.59 1619.27,-967.11 1619.28,-974.11"/>
</g>
<!-- src/step.js&#45;&gt;src/collisions/collisions.js -->
<g id="edge67" class="edge">
<title>src/step.js&#45;&gt;src/collisions/collisions.js</title>
<path fill="none" stroke="#757575" d="M939.2,-698C971.08,-698 1018.1,-698 1059.78,-698"/>
<polygon fill="#757575" stroke="#757575" points="1059.98,-701.5 1069.98,-698 1059.98,-694.5 1059.98,-701.5"/>
</g>
<!-- src/step.js&#45;&gt;src/enemy/enemy.js -->
<g id="edge68" class="edge">
<title>src/step.js&#45;&gt;src/enemy/enemy.js</title>
<path fill="none" stroke="#757575" d="M914.09,-686.32C936.18,-666.53 984.11,-626.55 1032,-606 1132.37,-562.93 1185.8,-623.76 1273,-558 1300.93,-536.93 1287.55,-515.63 1309,-488 1335.35,-454.06 1374.05,-422.46 1399.14,-403.69"/>
<polygon fill="#757575" stroke="#757575" points="1401.43,-406.35 1407.4,-397.6 1397.27,-400.71 1401.43,-406.35"/>
</g>
<!-- src/step.js&#45;&gt;src/gameOver.js -->
<g id="edge69" class="edge">
<title>src/step.js&#45;&gt;src/gameOver.js</title>
<path fill="none" stroke="#757575" d="M907.17,-709.76C923.54,-743.05 973.51,-839.97 1032,-908 1060.76,-941.45 1100.87,-973.34 1126.52,-992.3"/>
<polygon fill="#757575" stroke="#757575" points="1124.48,-995.14 1134.62,-998.21 1128.61,-989.49 1124.48,-995.14"/>
</g>
<!-- src/mobile/mobileVelocityController.js -->
<g id="node29" class="node">
<title>src/mobile/mobileVelocityController.js</title>
<path fill="none" stroke="#cfffac" d="M1265.33,-789.5C1265.33,-789.5 1039.67,-789.5 1039.67,-789.5 1035.83,-789.5 1032,-785.67 1032,-781.83 1032,-781.83 1032,-774.17 1032,-774.17 1032,-770.33 1035.83,-766.5 1039.67,-766.5 1039.67,-766.5 1265.33,-766.5 1265.33,-766.5 1269.17,-766.5 1273,-770.33 1273,-774.17 1273,-774.17 1273,-781.83 1273,-781.83 1273,-785.67 1269.17,-789.5 1265.33,-789.5"/>
<text text-anchor="middle" x="1152.5" y="-774.3" font-family="Arial" font-size="14.00" fill="#cfffac">src/mobile/mobileVelocityController.js</text>
</g>
<!-- src/step.js&#45;&gt;src/mobile/mobileVelocityController.js -->
<g id="edge71" class="edge">
<title>src/step.js&#45;&gt;src/mobile/mobileVelocityController.js</title>
<path fill="none" stroke="#757575" d="M926.03,-709.7C951.9,-721.66 994.09,-740.14 1032,-752 1046.79,-756.63 1062.87,-760.73 1078.29,-764.23"/>
<polygon fill="#757575" stroke="#757575" points="1077.79,-767.71 1088.31,-766.45 1079.3,-760.87 1077.79,-767.71"/>
</g>
<!-- src/mobileJoystick.js -->
<g id="node30" class="node">
<title>src/mobileJoystick.js</title>
<path fill="none" stroke="#cfffac" d="M1214.83,-477.5C1214.83,-477.5 1090.17,-477.5 1090.17,-477.5 1086.33,-477.5 1082.5,-473.67 1082.5,-469.83 1082.5,-469.83 1082.5,-462.17 1082.5,-462.17 1082.5,-458.33 1086.33,-454.5 1090.17,-454.5 1090.17,-454.5 1214.83,-454.5 1214.83,-454.5 1218.67,-454.5 1222.5,-458.33 1222.5,-462.17 1222.5,-462.17 1222.5,-469.83 1222.5,-469.83 1222.5,-473.67 1218.67,-477.5 1214.83,-477.5"/>
<text text-anchor="middle" x="1152.5" y="-462.3" font-family="Arial" font-size="14.00" fill="#cfffac">src/mobileJoystick.js</text>
</g>
<!-- src/step.js&#45;&gt;src/mobileJoystick.js -->
<g id="edge72" class="edge">
<title>src/step.js&#45;&gt;src/mobileJoystick.js</title>
<path fill="none" stroke="#757575" d="M905.22,-686.39C917.22,-650.95 958.44,-543.43 1032,-492 1043.95,-483.65 1058.08,-477.9 1072.37,-473.97"/>
<polygon fill="#757575" stroke="#757575" points="1073.39,-477.33 1082.26,-471.53 1071.71,-470.53 1073.39,-477.33"/>
</g>
<!-- src/step.js&#45;&gt;src/scores/currentGameScore.js -->
<g id="edge73" class="edge">
<title>src/step.js&#45;&gt;src/scores/currentGameScore.js</title>
<path fill="none" stroke="#757575" d="M908.73,-686.26C926.28,-658.76 974,-589.79 1032,-554 1126.61,-495.62 1193.68,-564.9 1273,-487 1313.03,-447.69 1269.87,-406.21 1309,-366 1389.85,-282.93 1731.3,-202.88 1877.56,-171.7"/>
<polygon fill="#757575" stroke="#757575" points="1878.69,-175.04 1887.74,-169.54 1877.23,-168.19 1878.69,-175.04"/>
</g>
<!-- src/gameMenuActions.js&#45;&gt;src/gameState.js -->
<g id="edge47" class="edge">
<title>src/gameMenuActions.js&#45;&gt;src/gameState.js</title>
<path fill="none" stroke="#757575" d="M740.97,-618.45C881.78,-587.84 1253.36,-505.69 1273,-487 1313.65,-448.32 1264.98,-400.79 1309,-366 1402.6,-292.03 1457.75,-354.33 1577,-351 1787.69,-345.11 1859.72,-277.48 2051,-366 2087.26,-382.78 2116.72,-420.3 2132.48,-443.74"/>
<polygon fill="#757575" stroke="#757575" points="2129.63,-445.78 2138.01,-452.25 2135.49,-441.96 2129.63,-445.78"/>
</g>
<!-- src/gameMenuActions.js&#45;&gt;src/step.js -->
<g id="edge48" class="edge">
<title>src/gameMenuActions.js&#45;&gt;src/step.js</title>
<path fill="none" stroke="#757575" d="M723.46,-641.54C759.4,-653.06 814.78,-670.83 853.81,-683.35"/>
<polygon fill="#757575" stroke="#757575" points="852.77,-686.69 863.36,-686.41 854.91,-680.02 852.77,-686.69"/>
</g>
<!-- src/gameOver.js&#45;&gt;src/levelCompleteScreen.js -->
<g id="edge49" class="edge">
<title>src/gameOver.js&#45;&gt;src/levelCompleteScreen.js</title>
<path fill="none" stroke="#757575" d="M1210.54,-1009.79C1243.48,-1009.67 1285.85,-1009.51 1324.14,-1009.37"/>
<polygon fill="#757575" stroke="#757575" points="1324.32,-1012.87 1334.3,-1009.33 1324.29,-1005.87 1324.32,-1012.87"/>
</g>
<!-- src/gameOver.js&#45;&gt;src/music.js -->
<g id="edge50" class="edge">
<title>src/gameOver.js&#45;&gt;src/music.js</title>
<path fill="none" stroke="#757575" d="M1183.77,-1021.55C1287.95,-1059.13 1634.57,-1165.65 1804,-990 1852.45,-939.77 1801.62,-736.29 1840,-678 1853.63,-657.3 1877.02,-642.91 1898.22,-633.42"/>
<polygon fill="#757575" stroke="#757575" points="1899.6,-636.64 1907.46,-629.53 1896.88,-630.19 1899.6,-636.64"/>
</g>
<!-- src/touch.js&#45;&gt;src/mobileJoystick.js -->
<g id="edge76" class="edge">
<title>src/touch.js&#45;&gt;src/mobileJoystick.js</title>
<path fill="none" stroke="#757575" d="M729.09,-509.7C806.29,-501.71 972.94,-484.47 1072.28,-474.19"/>
<polygon fill="#757575" stroke="#757575" points="1072.69,-477.67 1082.27,-473.16 1071.97,-470.71 1072.69,-477.67"/>
</g>
<!-- src/weapons/flare.js&#45;&gt;src/gameState.js -->
<g id="edge77" class="edge">
<title>src/weapons/flare.js&#45;&gt;src/gameState.js</title>
<path fill="none" stroke="#757575" d="M568.42,-1244.71C852.1,-1276.44 1939.33,-1390.69 2051,-1291 2113,-1235.65 2139.48,-611.85 2144.21,-486.04"/>
<polygon fill="#757575" stroke="#757575" points="2147.72,-485.86 2144.59,-475.74 2140.72,-485.6 2147.72,-485.86"/>
</g>
<!-- src/scores/currentGameScore.js&#45;&gt;src/gameState.js -->
<g id="edge63" class="edge">
<title>src/scores/currentGameScore.js&#45;&gt;src/gameState.js</title>
<path fill="none" stroke="#757575" d="M2028.3,-169.55C2036.61,-173.2 2044.41,-177.91 2051,-184 2127.53,-254.64 2141.79,-389.43 2144.42,-442.12"/>
<polygon fill="#757575" stroke="#757575" points="2140.93,-442.48 2144.83,-452.33 2147.93,-442.2 2140.93,-442.48"/>
</g>
</g>
</svg>
