<?xml version="1.0" encoding="UTF-8" standalone="no"?>
<!DOCTYPE svg PUBLIC "-//W3C//DTD SVG 1.1//EN"
 "http://www.w3.org/Graphics/SVG/1.1/DTD/svg11.dtd">
<!-- Generated by graphviz version 2.43.0 (0)
 -->
<!-- Title: G Pages: 1 -->
<svg width="1896pt" height="1061pt"
 viewBox="0.00 0.00 1896.20 1060.70" xmlns="http://www.w3.org/2000/svg" xmlns:xlink="http://www.w3.org/1999/xlink">
<g id="graph0" class="graph" transform="scale(1 1) rotate(0) translate(21.6 1039.1)">
<title>G</title>
<polygon fill="#111111" stroke="transparent" points="-21.6,21.6 -21.6,-1039.1 1874.6,-1039.1 1874.6,21.6 -21.6,21.6"/>
<!-- app.js -->
<g id="node1" class="node">
<title>app.js</title>
<path fill="none" stroke="#c6c5fe" d="M46.33,-272C46.33,-272 7.67,-272 7.67,-272 3.83,-272 0,-268.17 0,-264.33 0,-264.33 0,-256.67 0,-256.67 0,-252.83 3.83,-249 7.67,-249 7.67,-249 46.33,-249 46.33,-249 50.17,-249 54,-252.83 54,-256.67 54,-256.67 54,-264.33 54,-264.33 54,-268.17 50.17,-272 46.33,-272"/>
<text text-anchor="middle" x="27" y="-256.8" font-family="Arial" font-size="14.00" fill="#c6c5fe">app.js</text>
</g>
<!-- src/gameManager.js -->
<g id="node2" class="node">
<title>src/gameManager.js</title>
<path fill="none" stroke="#c6c5fe" d="M222.33,-465C222.33,-465 97.67,-465 97.67,-465 93.83,-465 90,-461.17 90,-457.33 90,-457.33 90,-449.67 90,-449.67 90,-445.83 93.83,-442 97.67,-442 97.67,-442 222.33,-442 222.33,-442 226.17,-442 230,-445.83 230,-449.67 230,-449.67 230,-457.33 230,-457.33 230,-461.17 226.17,-465 222.33,-465"/>
<text text-anchor="middle" x="160" y="-449.8" font-family="Arial" font-size="14.00" fill="#c6c5fe">src/gameManager.js</text>
</g>
<!-- app.js&#45;&gt;src/gameManager.js -->
<g id="edge1" class="edge">
<title>app.js&#45;&gt;src/gameManager.js</title>
<path fill="none" stroke="#757575" d="M36,-272.28C57.75,-304.32 118.15,-393.32 145.38,-433.44"/>
<polygon fill="#757575" stroke="#757575" points="142.6,-435.56 151.11,-441.87 148.39,-431.63 142.6,-435.56"/>
</g>
<!-- src/startScreen.js -->
<g id="node3" class="node">
<title>src/startScreen.js</title>
<path fill="none" stroke="#c6c5fe" d="M383.83,-23C383.83,-23 278.17,-23 278.17,-23 274.33,-23 270.5,-19.17 270.5,-15.33 270.5,-15.33 270.5,-7.67 270.5,-7.67 270.5,-3.83 274.33,0 278.17,0 278.17,0 383.83,0 383.83,0 387.67,0 391.5,-3.83 391.5,-7.67 391.5,-7.67 391.5,-15.33 391.5,-15.33 391.5,-19.17 387.67,-23 383.83,-23"/>
<text text-anchor="middle" x="331" y="-7.8" font-family="Arial" font-size="14.00" fill="#c6c5fe">src/startScreen.js</text>
</g>
<!-- app.js&#45;&gt;src/startScreen.js -->
<g id="edge2" class="edge">
<title>app.js&#45;&gt;src/startScreen.js</title>
<path fill="none" stroke="#757575" d="M37.72,-248.74C68.03,-212.68 164.9,-102.21 266,-37.5 272.11,-33.59 278.91,-30.07 285.73,-26.99"/>
<polygon fill="#757575" stroke="#757575" points="287.15,-30.19 294.97,-23.04 284.4,-23.75 287.15,-30.19"/>
</g>
<!-- src/Boss.js -->
<g id="node4" class="node">
<title>src/Boss.js</title>
<path fill="none" stroke="#c6c5fe" d="M850.33,-875C850.33,-875 783.67,-875 783.67,-875 779.83,-875 776,-871.17 776,-867.33 776,-867.33 776,-859.67 776,-859.67 776,-855.83 779.83,-852 783.67,-852 783.67,-852 850.33,-852 850.33,-852 854.17,-852 858,-855.83 858,-859.67 858,-859.67 858,-867.33 858,-867.33 858,-871.17 854.17,-875 850.33,-875"/>
<text text-anchor="middle" x="817" y="-859.8" font-family="Arial" font-size="14.00" fill="#c6c5fe">src/Boss.js</text>
</g>
<!-- src/gameManager.js&#45;&gt;src/Boss.js -->
<g id="edge13" class="edge">
<title>src/gameManager.js&#45;&gt;src/Boss.js</title>
<path fill="none" stroke="#757575" d="M160.43,-465.11C158.71,-514.6 159.11,-709.6 266,-799.5 411.25,-921.66 659.57,-893.46 765.61,-874.17"/>
<polygon fill="#757575" stroke="#757575" points="766.53,-877.55 775.72,-872.27 765.24,-870.67 766.53,-877.55"/>
</g>
<!-- src/enemy.js -->
<g id="node5" class="node">
<title>src/enemy.js</title>
<path fill="none" stroke="#c6c5fe" d="M1052.83,-837C1052.83,-837 976.17,-837 976.17,-837 972.33,-837 968.5,-833.17 968.5,-829.33 968.5,-829.33 968.5,-821.67 968.5,-821.67 968.5,-817.83 972.33,-814 976.17,-814 976.17,-814 1052.83,-814 1052.83,-814 1056.67,-814 1060.5,-817.83 1060.5,-821.67 1060.5,-821.67 1060.5,-829.33 1060.5,-829.33 1060.5,-833.17 1056.67,-837 1052.83,-837"/>
<text text-anchor="middle" x="1014.5" y="-821.8" font-family="Arial" font-size="14.00" fill="#c6c5fe">src/enemy.js</text>
</g>
<!-- src/gameManager.js&#45;&gt;src/enemy.js -->
<g id="edge16" class="edge">
<title>src/gameManager.js&#45;&gt;src/enemy.js</title>
<path fill="none" stroke="#757575" d="M187.45,-465.04C311.49,-519.17 835.51,-747.83 977.75,-809.9"/>
<polygon fill="#757575" stroke="#757575" points="976.37,-813.12 986.94,-813.91 979.17,-806.7 976.37,-813.12"/>
</g>
<!-- src/levelCompleteScreen.js -->
<g id="node8" class="node">
<title>src/levelCompleteScreen.js</title>
<path fill="none" stroke="#cfffac" d="M1845.33,-991C1845.33,-991 1679.67,-991 1679.67,-991 1675.83,-991 1672,-987.17 1672,-983.33 1672,-983.33 1672,-975.67 1672,-975.67 1672,-971.83 1675.83,-968 1679.67,-968 1679.67,-968 1845.33,-968 1845.33,-968 1849.17,-968 1853,-971.83 1853,-975.67 1853,-975.67 1853,-983.33 1853,-983.33 1853,-987.17 1849.17,-991 1845.33,-991"/>
<text text-anchor="middle" x="1762.5" y="-975.8" font-family="Arial" font-size="14.00" fill="#cfffac">src/levelCompleteScreen.js</text>
</g>
<!-- src/gameManager.js&#45;&gt;src/levelCompleteScreen.js -->
<g id="edge19" class="edge">
<title>src/gameManager.js&#45;&gt;src/levelCompleteScreen.js</title>
<path fill="none" stroke="#757575" d="M162.2,-465.11C169.09,-529.92 205.52,-846.78 266,-920.5 333.39,-1002.64 378.25,-1017.5 484.5,-1017.5 484.5,-1017.5 484.5,-1017.5 1301,-1017.5 1426.77,-1017.5 1571.22,-1003.25 1664.29,-992.2"/>
<polygon fill="#757575" stroke="#757575" points="1664.74,-995.67 1674.25,-991 1663.91,-988.72 1664.74,-995.67"/>
</g>
<!-- src/ammo.js -->
<g id="node9" class="node">
<title>src/ammo.js</title>
<path fill="none" stroke="#c6c5fe" d="M1337.83,-331C1337.83,-331 1262.17,-331 1262.17,-331 1258.33,-331 1254.5,-327.17 1254.5,-323.33 1254.5,-323.33 1254.5,-315.67 1254.5,-315.67 1254.5,-311.83 1258.33,-308 1262.17,-308 1262.17,-308 1337.83,-308 1337.83,-308 1341.67,-308 1345.5,-311.83 1345.5,-315.67 1345.5,-315.67 1345.5,-323.33 1345.5,-323.33 1345.5,-327.17 1341.67,-331 1337.83,-331"/>
<text text-anchor="middle" x="1300" y="-315.8" font-family="Arial" font-size="14.00" fill="#c6c5fe">src/ammo.js</text>
</g>
<!-- src/gameManager.js&#45;&gt;src/ammo.js -->
<g id="edge14" class="edge">
<title>src/gameManager.js&#45;&gt;src/ammo.js</title>
<path fill="none" stroke="#757575" d="M169.79,-441.82C186.34,-420.62 224.23,-375.68 266,-350.5 332.33,-310.52 355.48,-309.42 432,-297.5 735.77,-250.18 1106.51,-292.34 1244.15,-311.34"/>
<polygon fill="#757575" stroke="#757575" points="1244.04,-314.86 1254.43,-312.78 1245.01,-307.93 1244.04,-314.86"/>
</g>
<!-- src/background.js -->
<g id="node11" class="node">
<title>src/background.js</title>
<path fill="none" stroke="#cfffac" d="M1067.83,-719C1067.83,-719 961.17,-719 961.17,-719 957.33,-719 953.5,-715.17 953.5,-711.33 953.5,-711.33 953.5,-703.67 953.5,-703.67 953.5,-699.83 957.33,-696 961.17,-696 961.17,-696 1067.83,-696 1067.83,-696 1071.67,-696 1075.5,-699.83 1075.5,-703.67 1075.5,-703.67 1075.5,-711.33 1075.5,-711.33 1075.5,-715.17 1071.67,-719 1067.83,-719"/>
<text text-anchor="middle" x="1014.5" y="-703.8" font-family="Arial" font-size="14.00" fill="#cfffac">src/background.js</text>
</g>
<!-- src/gameManager.js&#45;&gt;src/background.js -->
<g id="edge15" class="edge">
<title>src/gameManager.js&#45;&gt;src/background.js</title>
<path fill="none" stroke="#757575" d="M165.48,-465.32C188.75,-524.46 301.82,-785.5 484.5,-785.5 484.5,-785.5 484.5,-785.5 658.5,-785.5 766.73,-785.5 787.82,-744.5 894,-723.5 909.9,-720.36 927.11,-717.65 943.39,-715.4"/>
<polygon fill="#757575" stroke="#757575" points="943.94,-718.86 953.39,-714.07 943.01,-711.92 943.94,-718.86"/>
</g>
<!-- src/gameState.js -->
<g id="node14" class="node">
<title>src/gameState.js</title>
<path fill="none" stroke="#cfffac" d="M1813.83,-679C1813.83,-679 1711.17,-679 1711.17,-679 1707.33,-679 1703.5,-675.17 1703.5,-671.33 1703.5,-671.33 1703.5,-663.67 1703.5,-663.67 1703.5,-659.83 1707.33,-656 1711.17,-656 1711.17,-656 1813.83,-656 1813.83,-656 1817.67,-656 1821.5,-659.83 1821.5,-663.67 1821.5,-663.67 1821.5,-671.33 1821.5,-671.33 1821.5,-675.17 1817.67,-679 1813.83,-679"/>
<text text-anchor="middle" x="1762.5" y="-663.8" font-family="Arial" font-size="14.00" fill="#cfffac">src/gameState.js</text>
</g>
<!-- src/gameManager.js&#45;&gt;src/gameState.js -->
<g id="edge17" class="edge">
<title>src/gameManager.js&#45;&gt;src/gameState.js</title>
<path fill="none" stroke="#757575" d="M161.06,-465.16C161.89,-515.98 171.23,-721.25 266,-847.5 334.11,-938.24 371.04,-979.5 484.5,-979.5 484.5,-979.5 484.5,-979.5 818,-979.5 1187.3,-979.5 1343.01,-1058.31 1636,-833.5 1689.48,-792.46 1731.67,-723.07 1750.62,-688.45"/>
<polygon fill="#757575" stroke="#757575" points="1753.9,-689.74 1755.54,-679.27 1747.73,-686.43 1753.9,-689.74"/>
</g>
<!-- src/keyboard.js -->
<g id="node15" class="node">
<title>src/keyboard.js</title>
<path fill="none" stroke="#c6c5fe" d="M531.33,-369C531.33,-369 439.67,-369 439.67,-369 435.83,-369 432,-365.17 432,-361.33 432,-361.33 432,-353.67 432,-353.67 432,-349.83 435.83,-346 439.67,-346 439.67,-346 531.33,-346 531.33,-346 535.17,-346 539,-349.83 539,-353.67 539,-353.67 539,-361.33 539,-361.33 539,-365.17 535.17,-369 531.33,-369"/>
<text text-anchor="middle" x="485.5" y="-353.8" font-family="Arial" font-size="14.00" fill="#c6c5fe">src/keyboard.js</text>
</g>
<!-- src/gameManager.js&#45;&gt;src/keyboard.js -->
<g id="edge18" class="edge">
<title>src/gameManager.js&#45;&gt;src/keyboard.js</title>
<path fill="none" stroke="#757575" d="M172.3,-441.84C190.26,-424.15 227.28,-391.06 266,-376.5 316.09,-357.66 377.04,-353.78 421.83,-354.11"/>
<polygon fill="#757575" stroke="#757575" points="421.94,-357.61 431.99,-354.26 422.04,-350.61 421.94,-357.61"/>
</g>
<!-- src/music.js -->
<g id="node16" class="node">
<title>src/music.js</title>
<path fill="none" stroke="#cfffac" d="M1798.83,-139C1798.83,-139 1726.17,-139 1726.17,-139 1722.33,-139 1718.5,-135.17 1718.5,-131.33 1718.5,-131.33 1718.5,-123.67 1718.5,-123.67 1718.5,-119.83 1722.33,-116 1726.17,-116 1726.17,-116 1798.83,-116 1798.83,-116 1802.67,-116 1806.5,-119.83 1806.5,-123.67 1806.5,-123.67 1806.5,-131.33 1806.5,-131.33 1806.5,-135.17 1802.67,-139 1798.83,-139"/>
<text text-anchor="middle" x="1762.5" y="-123.8" font-family="Arial" font-size="14.00" fill="#cfffac">src/music.js</text>
</g>
<!-- src/gameManager.js&#45;&gt;src/music.js -->
<g id="edge20" class="edge">
<title>src/gameManager.js&#45;&gt;src/music.js</title>
<path fill="none" stroke="#757575" d="M160.8,-441.72C160.67,-393.13 166.85,-206.4 266,-110.5 338.3,-40.57 383.91,-51.5 484.5,-51.5 484.5,-51.5 484.5,-51.5 1301,-51.5 1451.28,-51.5 1625.5,-91.39 1710.11,-113.37"/>
<polygon fill="#757575" stroke="#757575" points="1709.41,-116.81 1719.97,-115.96 1711.19,-110.03 1709.41,-116.81"/>
</g>
<!-- src/player/Player.js -->
<g id="node17" class="node">
<title>src/player/Player.js</title>
<path fill="none" stroke="#c6c5fe" d="M388.33,-409C388.33,-409 273.67,-409 273.67,-409 269.83,-409 266,-405.17 266,-401.33 266,-401.33 266,-393.67 266,-393.67 266,-389.83 269.83,-386 273.67,-386 273.67,-386 388.33,-386 388.33,-386 392.17,-386 396,-389.83 396,-393.67 396,-393.67 396,-401.33 396,-401.33 396,-405.17 392.17,-409 388.33,-409"/>
<text text-anchor="middle" x="331" y="-393.8" font-family="Arial" font-size="14.00" fill="#c6c5fe">src/player/Player.js</text>
</g>
<!-- src/gameManager.js&#45;&gt;src/player/Player.js -->
<g id="edge21" class="edge">
<title>src/gameManager.js&#45;&gt;src/player/Player.js</title>
<path fill="none" stroke="#757575" d="M196.02,-441.9C221.96,-433.3 257.52,-421.52 285.48,-412.25"/>
<polygon fill="#757575" stroke="#757575" points="286.64,-415.56 295.03,-409.09 284.43,-408.91 286.64,-415.56"/>
</g>
<!-- src/rendering/Helpers.js -->
<g id="node18" class="node">
<title>src/rendering/Helpers.js</title>
<path fill="none" stroke="#cfffac" d="M1834.33,-291C1834.33,-291 1690.67,-291 1690.67,-291 1686.83,-291 1683,-287.17 1683,-283.33 1683,-283.33 1683,-275.67 1683,-275.67 1683,-271.83 1686.83,-268 1690.67,-268 1690.67,-268 1834.33,-268 1834.33,-268 1838.17,-268 1842,-271.83 1842,-275.67 1842,-275.67 1842,-283.33 1842,-283.33 1842,-287.17 1838.17,-291 1834.33,-291"/>
<text text-anchor="middle" x="1762.5" y="-275.8" font-family="Arial" font-size="14.00" fill="#cfffac">src/rendering/Helpers.js</text>
</g>
<!-- src/gameManager.js&#45;&gt;src/rendering/Helpers.js -->
<g id="edge22" class="edge">
<title>src/gameManager.js&#45;&gt;src/rendering/Helpers.js</title>
<path fill="none" stroke="#757575" d="M164.71,-441.8C185.26,-379.5 291.31,-89.5 484.5,-89.5 484.5,-89.5 484.5,-89.5 818,-89.5 1172.19,-89.5 1586.72,-219.77 1718.82,-264.58"/>
<polygon fill="#757575" stroke="#757575" points="1717.96,-267.98 1728.56,-267.9 1720.22,-261.36 1717.96,-267.98"/>
</g>
<!-- src/step.js -->
<g id="node19" class="node">
<title>src/step.js</title>
<path fill="none" stroke="#c6c5fe" d="M847.83,-581C847.83,-581 786.17,-581 786.17,-581 782.33,-581 778.5,-577.17 778.5,-573.33 778.5,-573.33 778.5,-565.67 778.5,-565.67 778.5,-561.83 782.33,-558 786.17,-558 786.17,-558 847.83,-558 847.83,-558 851.67,-558 855.5,-561.83 855.5,-565.67 855.5,-565.67 855.5,-573.33 855.5,-573.33 855.5,-577.17 851.67,-581 847.83,-581"/>
<text text-anchor="middle" x="817" y="-565.8" font-family="Arial" font-size="14.00" fill="#c6c5fe">src/step.js</text>
</g>
<!-- src/gameManager.js&#45;&gt;src/step.js -->
<g id="edge23" class="edge">
<title>src/gameManager.js&#45;&gt;src/step.js</title>
<path fill="none" stroke="#757575" d="M230.08,-462.4C339.1,-476.99 557.43,-508.42 740,-548.5 749.33,-550.55 759.22,-553.04 768.67,-555.58"/>
<polygon fill="#757575" stroke="#757575" points="767.74,-558.96 778.31,-558.23 769.6,-552.21 767.74,-558.96"/>
</g>
<!-- src/startScreen.js&#45;&gt;src/music.js -->
<g id="edge49" class="edge">
<title>src/startScreen.js&#45;&gt;src/music.js</title>
<path fill="none" stroke="#757575" d="M391.51,-11.79C456.59,-12.09 563.97,-12.5 656.5,-12.5 656.5,-12.5 656.5,-12.5 1301,-12.5 1450.3,-12.5 1495.66,13.46 1636,-37.5 1678.61,-52.97 1719.67,-87.26 1742.65,-108.77"/>
<polygon fill="#757575" stroke="#757575" points="1740.35,-111.41 1750,-115.79 1745.19,-106.35 1740.35,-111.41"/>
</g>
<!-- src/Boss.js&#45;&gt;src/enemy.js -->
<g id="edge3" class="edge">
<title>src/Boss.js&#45;&gt;src/enemy.js</title>
<path fill="none" stroke="#757575" d="M858.03,-855.72C886.96,-850.1 926.4,-842.43 958.32,-836.23"/>
<polygon fill="#757575" stroke="#757575" points="959.24,-839.61 968.39,-834.27 957.91,-832.74 959.24,-839.61"/>
</g>
<!-- src/enemyRocketAtack.js -->
<g id="node6" class="node">
<title>src/enemyRocketAtack.js</title>
<path fill="none" stroke="#cfffac" d="M1376.83,-875C1376.83,-875 1223.17,-875 1223.17,-875 1219.33,-875 1215.5,-871.17 1215.5,-867.33 1215.5,-867.33 1215.5,-859.67 1215.5,-859.67 1215.5,-855.83 1219.33,-852 1223.17,-852 1223.17,-852 1376.83,-852 1376.83,-852 1380.67,-852 1384.5,-855.83 1384.5,-859.67 1384.5,-859.67 1384.5,-867.33 1384.5,-867.33 1384.5,-871.17 1380.67,-875 1376.83,-875"/>
<text text-anchor="middle" x="1300" y="-859.8" font-family="Arial" font-size="14.00" fill="#cfffac">src/enemyRocketAtack.js</text>
</g>
<!-- src/Boss.js&#45;&gt;src/enemyRocketAtack.js -->
<g id="edge4" class="edge">
<title>src/Boss.js&#45;&gt;src/enemyRocketAtack.js</title>
<path fill="none" stroke="#757575" d="M858.18,-863.5C933.9,-863.5 1099.53,-863.5 1204.81,-863.5"/>
<polygon fill="#757575" stroke="#757575" points="1205.12,-867 1215.12,-863.5 1205.12,-860 1205.12,-867"/>
</g>
<!-- src/gatling.js -->
<g id="node7" class="node">
<title>src/gatling.js</title>
<path fill="none" stroke="#c6c5fe" d="M1588.83,-404C1588.83,-404 1512.17,-404 1512.17,-404 1508.33,-404 1504.5,-400.17 1504.5,-396.33 1504.5,-396.33 1504.5,-388.67 1504.5,-388.67 1504.5,-384.83 1508.33,-381 1512.17,-381 1512.17,-381 1588.83,-381 1588.83,-381 1592.67,-381 1596.5,-384.83 1596.5,-388.67 1596.5,-388.67 1596.5,-396.33 1596.5,-396.33 1596.5,-400.17 1592.67,-404 1588.83,-404"/>
<text text-anchor="middle" x="1550.5" y="-388.8" font-family="Arial" font-size="14.00" fill="#c6c5fe">src/gatling.js</text>
</g>
<!-- src/Boss.js&#45;&gt;src/gatling.js -->
<g id="edge5" class="edge">
<title>src/Boss.js&#45;&gt;src/gatling.js</title>
<path fill="none" stroke="#757575" d="M830.22,-851.78C844.5,-838.64 869.32,-817.5 894,-804.5 993.49,-752.11 1062.98,-813.85 1135,-727.5 1214.8,-631.82 1082.33,-537.02 1171,-449.5 1212.08,-408.95 1372.5,-431.31 1429,-419.5 1445.38,-416.08 1448.76,-412.51 1465,-408.5 1474.36,-406.19 1484.37,-404.03 1494.12,-402.09"/>
<polygon fill="#757575" stroke="#757575" points="1494.98,-405.48 1504.13,-400.15 1493.65,-398.61 1494.98,-405.48"/>
</g>
<!-- src/Boss.js&#45;&gt;src/levelCompleteScreen.js -->
<g id="edge6" class="edge">
<title>src/Boss.js&#45;&gt;src/levelCompleteScreen.js</title>
<path fill="none" stroke="#757575" d="M858.15,-871.4C869.7,-873.54 882.33,-875.74 894,-877.5 1170.95,-919.25 1499.83,-953.85 1661.54,-969.88"/>
<polygon fill="#757575" stroke="#757575" points="1661.66,-973.41 1671.95,-970.91 1662.35,-966.45 1661.66,-973.41"/>
</g>
<!-- src/enemy.js&#45;&gt;src/enemyRocketAtack.js -->
<g id="edge10" class="edge">
<title>src/enemy.js&#45;&gt;src/enemyRocketAtack.js</title>
<path fill="none" stroke="#757575" d="M1060.73,-831.56C1099.56,-836.77 1156.8,-844.44 1205.44,-850.96"/>
<polygon fill="#757575" stroke="#757575" points="1204.98,-854.43 1215.36,-852.29 1205.91,-847.49 1204.98,-854.43"/>
</g>
<!-- src/enemy.js&#45;&gt;src/gatling.js -->
<g id="edge11" class="edge">
<title>src/enemy.js&#45;&gt;src/gatling.js</title>
<path fill="none" stroke="#757575" d="M1057.34,-813.94C1083.94,-804.35 1116.7,-787.9 1135,-761.5 1203.71,-662.36 1087.09,-579.15 1171,-492.5 1251.87,-408.99 1327.41,-506.02 1429,-449.5 1450.19,-437.71 1443.94,-420.52 1465,-408.5 1473.85,-403.45 1483.99,-399.95 1494.1,-397.54"/>
<polygon fill="#757575" stroke="#757575" points="1495.06,-400.92 1504.15,-395.48 1493.65,-394.06 1495.06,-400.92"/>
</g>
<!-- src/enemyManoeuvre.js -->
<g id="node12" class="node">
<title>src/enemyManoeuvre.js</title>
<path fill="none" stroke="#cfffac" d="M1372.83,-834C1372.83,-834 1227.17,-834 1227.17,-834 1223.33,-834 1219.5,-830.17 1219.5,-826.33 1219.5,-826.33 1219.5,-818.67 1219.5,-818.67 1219.5,-814.83 1223.33,-811 1227.17,-811 1227.17,-811 1372.83,-811 1372.83,-811 1376.67,-811 1380.5,-814.83 1380.5,-818.67 1380.5,-818.67 1380.5,-826.33 1380.5,-826.33 1380.5,-830.17 1376.67,-834 1372.83,-834"/>
<text text-anchor="middle" x="1300" y="-818.8" font-family="Arial" font-size="14.00" fill="#cfffac">src/enemyManoeuvre.js</text>
</g>
<!-- src/enemy.js&#45;&gt;src/enemyManoeuvre.js -->
<g id="edge9" class="edge">
<title>src/enemy.js&#45;&gt;src/enemyManoeuvre.js</title>
<path fill="none" stroke="#757575" d="M1060.73,-825.02C1100.59,-824.6 1159.83,-823.97 1209.26,-823.45"/>
<polygon fill="#757575" stroke="#757575" points="1209.37,-826.95 1219.33,-823.34 1209.3,-819.95 1209.37,-826.95"/>
</g>
<!-- src/rendering/EnemyCollisionsChecks.js -->
<g id="node13" class="node">
<title>src/rendering/EnemyCollisionsChecks.js</title>
<path fill="none" stroke="#c6c5fe" d="M1421.33,-525C1421.33,-525 1178.67,-525 1178.67,-525 1174.83,-525 1171,-521.17 1171,-517.33 1171,-517.33 1171,-509.67 1171,-509.67 1171,-505.83 1174.83,-502 1178.67,-502 1178.67,-502 1421.33,-502 1421.33,-502 1425.17,-502 1429,-505.83 1429,-509.67 1429,-509.67 1429,-517.33 1429,-517.33 1429,-521.17 1425.17,-525 1421.33,-525"/>
<text text-anchor="middle" x="1300" y="-509.8" font-family="Arial" font-size="14.00" fill="#c6c5fe">src/rendering/EnemyCollisionsChecks.js</text>
</g>
<!-- src/enemy.js&#45;&gt;src/rendering/EnemyCollisionsChecks.js -->
<g id="edge12" class="edge">
<title>src/enemy.js&#45;&gt;src/rendering/EnemyCollisionsChecks.js</title>
<path fill="none" stroke="#757575" d="M1046.58,-813.9C1072.37,-803.17 1108.91,-785.28 1135,-761.5 1211.08,-692.16 1268.15,-580.36 1289.66,-534.33"/>
<polygon fill="#757575" stroke="#757575" points="1292.92,-535.61 1293.92,-525.06 1286.56,-532.68 1292.92,-535.61"/>
</g>
<!-- src/gatling.js&#45;&gt;src/gameState.js -->
<g id="edge28" class="edge">
<title>src/gatling.js&#45;&gt;src/gameState.js</title>
<path fill="none" stroke="#757575" d="M1561.64,-404.23C1577.76,-423 1610.07,-461.07 1636,-494.5 1678.2,-548.9 1725.16,-615.33 1747.81,-647.77"/>
<polygon fill="#757575" stroke="#757575" points="1744.94,-649.77 1753.53,-655.98 1750.68,-645.77 1744.94,-649.77"/>
</g>
<!-- src/gatling.js&#45;&gt;src/music.js -->
<g id="edge29" class="edge">
<title>src/gatling.js&#45;&gt;src/music.js</title>
<path fill="none" stroke="#757575" d="M1562.86,-380.82C1579.49,-363.55 1611.19,-329.94 1636,-299.5 1679.15,-246.56 1725.39,-180.45 1747.78,-147.75"/>
<polygon fill="#757575" stroke="#757575" points="1750.94,-149.32 1753.69,-139.09 1745.16,-145.37 1750.94,-149.32"/>
</g>
<!-- src/ammo.js&#45;&gt;src/gatling.js -->
<g id="edge7" class="edge">
<title>src/ammo.js&#45;&gt;src/gatling.js</title>
<path fill="none" stroke="#757575" d="M1345.59,-326.62C1370.4,-331.06 1401.7,-337.47 1429,-345.5 1458.35,-354.13 1490.58,-366.89 1514.32,-376.93"/>
<polygon fill="#757575" stroke="#757575" points="1513.05,-380.2 1523.62,-380.91 1515.81,-373.76 1513.05,-380.2"/>
</g>
<!-- src/rocket.js -->
<g id="node10" class="node">
<title>src/rocket.js</title>
<path fill="none" stroke="#c6c5fe" d="M1587.33,-291C1587.33,-291 1513.67,-291 1513.67,-291 1509.83,-291 1506,-287.17 1506,-283.33 1506,-283.33 1506,-275.67 1506,-275.67 1506,-271.83 1509.83,-268 1513.67,-268 1513.67,-268 1587.33,-268 1587.33,-268 1591.17,-268 1595,-271.83 1595,-275.67 1595,-275.67 1595,-283.33 1595,-283.33 1595,-287.17 1591.17,-291 1587.33,-291"/>
<text text-anchor="middle" x="1550.5" y="-275.8" font-family="Arial" font-size="14.00" fill="#c6c5fe">src/rocket.js</text>
</g>
<!-- src/ammo.js&#45;&gt;src/rocket.js -->
<g id="edge8" class="edge">
<title>src/ammo.js&#45;&gt;src/rocket.js</title>
<path fill="none" stroke="#757575" d="M1345.71,-312.3C1387.85,-305.52 1451.03,-295.35 1495.86,-288.13"/>
<polygon fill="#757575" stroke="#757575" points="1496.66,-291.55 1505.98,-286.51 1495.55,-284.64 1496.66,-291.55"/>
</g>
<!-- src/rocket.js&#45;&gt;src/rendering/Helpers.js -->
<g id="edge48" class="edge">
<title>src/rocket.js&#45;&gt;src/rendering/Helpers.js</title>
<path fill="none" stroke="#757575" d="M1595.01,-279.5C1617.49,-279.5 1645.77,-279.5 1672.61,-279.5"/>
<polygon fill="#757575" stroke="#757575" points="1672.82,-283 1682.82,-279.5 1672.82,-276 1672.82,-283"/>
</g>
<!-- src/rendering/EnemyCollisionsChecks.js&#45;&gt;src/gatling.js -->
<g id="edge43" class="edge">
<title>src/rendering/EnemyCollisionsChecks.js&#45;&gt;src/gatling.js</title>
<path fill="none" stroke="#757575" d="M1402.55,-501.88C1412.02,-498.2 1421.03,-493.5 1429,-487.5 1456.64,-466.7 1438.42,-440.63 1465,-418.5 1473.49,-411.43 1483.88,-406.28 1494.44,-402.53"/>
<polygon fill="#757575" stroke="#757575" points="1495.65,-405.82 1504.13,-399.47 1493.54,-399.15 1495.65,-405.82"/>
</g>
<!-- src/rendering/EnemyCollisionsChecks.js&#45;&gt;src/rocket.js -->
<g id="edge47" class="edge">
<title>src/rendering/EnemyCollisionsChecks.js&#45;&gt;src/rocket.js</title>
<path fill="none" stroke="#757575" d="M1313.32,-501.9C1353.4,-464.16 1480.29,-344.68 1529.61,-298.23"/>
<polygon fill="#757575" stroke="#757575" points="1532.22,-300.58 1537.1,-291.17 1527.42,-295.48 1532.22,-300.58"/>
</g>
<!-- src/rendering/EnemyCollisionsChecks.js&#45;&gt;src/gameState.js -->
<g id="edge42" class="edge">
<title>src/rendering/EnemyCollisionsChecks.js&#45;&gt;src/gameState.js</title>
<path fill="none" stroke="#757575" d="M1365.29,-501.97C1435.43,-492.53 1549.27,-486.58 1636,-527.5 1690.31,-553.12 1731.37,-614.22 1750.18,-646.57"/>
<polygon fill="#757575" stroke="#757575" points="1747.33,-648.63 1755.3,-655.62 1753.42,-645.19 1747.33,-648.63"/>
</g>
<!-- src/rendering/EnemyCollisionsChecks.js&#45;&gt;src/music.js -->
<g id="edge44" class="edge">
<title>src/rendering/EnemyCollisionsChecks.js&#45;&gt;src/music.js</title>
<path fill="none" stroke="#757575" d="M1394.53,-501.95C1406.59,-498.35 1418.41,-493.64 1429,-487.5 1449.98,-475.34 1443.99,-458.62 1465,-446.5 1532.12,-407.78 1580.3,-466.37 1636,-412.5 1686.52,-363.63 1643.69,-322.84 1672,-258.5 1690.95,-215.42 1724.47,-171.5 1744.67,-147.04"/>
<polygon fill="#757575" stroke="#757575" points="1747.48,-149.15 1751.22,-139.23 1742.11,-144.65 1747.48,-149.15"/>
</g>
<!-- src/rendering/EnemyCollisionsChecks.js&#45;&gt;src/rendering/Helpers.js -->
<g id="edge46" class="edge">
<title>src/rendering/EnemyCollisionsChecks.js&#45;&gt;src/rendering/Helpers.js</title>
<path fill="none" stroke="#757575" d="M1372.62,-501.97C1464.28,-486.78 1613.95,-460.38 1636,-446.5 1694.07,-409.94 1734.86,-336.2 1752.19,-300.2"/>
<polygon fill="#757575" stroke="#757575" points="1755.37,-301.66 1756.45,-291.12 1749.04,-298.69 1755.37,-301.66"/>
</g>
<!-- src/gameOver.js -->
<g id="node21" class="node">
<title>src/gameOver.js</title>
<path fill="none" stroke="#c6c5fe" d="M1600.83,-601C1600.83,-601 1500.17,-601 1500.17,-601 1496.33,-601 1492.5,-597.17 1492.5,-593.33 1492.5,-593.33 1492.5,-585.67 1492.5,-585.67 1492.5,-581.83 1496.33,-578 1500.17,-578 1500.17,-578 1600.83,-578 1600.83,-578 1604.67,-578 1608.5,-581.83 1608.5,-585.67 1608.5,-585.67 1608.5,-593.33 1608.5,-593.33 1608.5,-597.17 1604.67,-601 1600.83,-601"/>
<text text-anchor="middle" x="1550.5" y="-585.8" font-family="Arial" font-size="14.00" fill="#c6c5fe">src/gameOver.js</text>
</g>
<!-- src/rendering/EnemyCollisionsChecks.js&#45;&gt;src/gameOver.js -->
<g id="edge41" class="edge">
<title>src/rendering/EnemyCollisionsChecks.js&#45;&gt;src/gameOver.js</title>
<path fill="none" stroke="#757575" d="M1386.83,-525.02C1401.3,-528.62 1415.87,-533.33 1429,-539.5 1447.6,-548.24 1446.6,-559.36 1465,-568.5 1470.6,-571.28 1476.59,-573.71 1482.71,-575.83"/>
<polygon fill="#757575" stroke="#757575" points="1481.79,-579.21 1492.38,-578.91 1483.91,-572.54 1481.79,-579.21"/>
</g>
<!-- src/rendering/Explosion.js -->
<g id="node25" class="node">
<title>src/rendering/Explosion.js</title>
<path fill="none" stroke="#cfffac" d="M1628.33,-560C1628.33,-560 1472.67,-560 1472.67,-560 1468.83,-560 1465,-556.17 1465,-552.33 1465,-552.33 1465,-544.67 1465,-544.67 1465,-540.83 1468.83,-537 1472.67,-537 1472.67,-537 1628.33,-537 1628.33,-537 1632.17,-537 1636,-540.83 1636,-544.67 1636,-544.67 1636,-552.33 1636,-552.33 1636,-556.17 1632.17,-560 1628.33,-560"/>
<text text-anchor="middle" x="1550.5" y="-544.8" font-family="Arial" font-size="14.00" fill="#cfffac">src/rendering/Explosion.js</text>
</g>
<!-- src/rendering/EnemyCollisionsChecks.js&#45;&gt;src/rendering/Explosion.js -->
<g id="edge45" class="edge">
<title>src/rendering/EnemyCollisionsChecks.js&#45;&gt;src/rendering/Explosion.js</title>
<path fill="none" stroke="#757575" d="M1382.71,-525.01C1406.71,-528.39 1433.11,-532.11 1457.69,-535.57"/>
<polygon fill="#757575" stroke="#757575" points="1457.35,-539.06 1467.74,-536.98 1458.32,-532.12 1457.35,-539.06"/>
</g>
<!-- src/keyboard.js&#45;&gt;src/gatling.js -->
<g id="edge32" class="edge">
<title>src/keyboard.js&#45;&gt;src/gatling.js</title>
<path fill="none" stroke="#757575" d="M526.24,-345.99C541.36,-342.16 558.85,-338.39 575,-336.5 647.84,-327.98 666.67,-336.04 740,-336.5 915.57,-337.61 959.83,-329.65 1135,-341.5 1264.12,-350.23 1414.68,-371.58 1494.02,-383.71"/>
<polygon fill="#757575" stroke="#757575" points="1493.85,-387.22 1504.27,-385.28 1494.92,-380.3 1493.85,-387.22"/>
</g>
<!-- src/keyboard.js&#45;&gt;src/rocket.js -->
<g id="edge34" class="edge">
<title>src/keyboard.js&#45;&gt;src/rocket.js</title>
<path fill="none" stroke="#757575" d="M517.63,-345.97C534.41,-340.19 555.6,-333.57 575,-329.5 947.52,-251.39 1049.02,-243.5 1429,-265.5 1450.95,-266.77 1475.04,-269.33 1495.88,-271.92"/>
<polygon fill="#757575" stroke="#757575" points="1495.46,-275.4 1505.82,-273.19 1496.34,-268.45 1495.46,-275.4"/>
</g>
<!-- src/keyboard.js&#45;&gt;src/gameState.js -->
<g id="edge31" class="edge">
<title>src/keyboard.js&#45;&gt;src/gameState.js</title>
<path fill="none" stroke="#757575" d="M487.67,-369.16C496.3,-448.29 557.2,-903.5 816,-903.5 816,-903.5 816,-903.5 1301,-903.5 1358.51,-903.5 1375.23,-904.91 1429,-884.5 1559.07,-835.13 1690.71,-728.73 1740.6,-685.91"/>
<polygon fill="#757575" stroke="#757575" points="1743.16,-688.33 1748.43,-679.14 1738.58,-683.04 1743.16,-688.33"/>
</g>
<!-- src/keyboard.js&#45;&gt;src/music.js -->
<g id="edge33" class="edge">
<title>src/keyboard.js&#45;&gt;src/music.js</title>
<path fill="none" stroke="#757575" d="M498.95,-345.94C515.2,-331.48 545.1,-307 575,-293.5 707.47,-233.7 750.63,-245.37 894,-221.5 1200.21,-170.52 1572.02,-140.93 1708.23,-131.15"/>
<polygon fill="#757575" stroke="#757575" points="1708.66,-134.62 1718.39,-130.42 1708.16,-127.64 1708.66,-134.62"/>
</g>
<!-- src/gameMenuActions.js -->
<g id="node20" class="node">
<title>src/gameMenuActions.js</title>
<path fill="none" stroke="#c6c5fe" d="M732.33,-581C732.33,-581 582.67,-581 582.67,-581 578.83,-581 575,-577.17 575,-573.33 575,-573.33 575,-565.67 575,-565.67 575,-561.83 578.83,-558 582.67,-558 582.67,-558 732.33,-558 732.33,-558 736.17,-558 740,-561.83 740,-565.67 740,-565.67 740,-573.33 740,-573.33 740,-577.17 736.17,-581 732.33,-581"/>
<text text-anchor="middle" x="657.5" y="-565.8" font-family="Arial" font-size="14.00" fill="#c6c5fe">src/gameMenuActions.js</text>
</g>
<!-- src/keyboard.js&#45;&gt;src/gameMenuActions.js -->
<g id="edge30" class="edge">
<title>src/keyboard.js&#45;&gt;src/gameMenuActions.js</title>
<path fill="none" stroke="#757575" d="M495.88,-369.2C523.75,-403.95 606.23,-506.8 640.88,-550.03"/>
<polygon fill="#757575" stroke="#757575" points="638.16,-552.22 647.15,-557.84 643.62,-547.85 638.16,-552.22"/>
</g>
<!-- src/touch.js -->
<g id="node22" class="node">
<title>src/touch.js</title>
<path fill="none" stroke="#c6c5fe" d="M692.33,-369C692.33,-369 622.67,-369 622.67,-369 618.83,-369 615,-365.17 615,-361.33 615,-361.33 615,-353.67 615,-353.67 615,-349.83 618.83,-346 622.67,-346 622.67,-346 692.33,-346 692.33,-346 696.17,-346 700,-349.83 700,-353.67 700,-353.67 700,-361.33 700,-361.33 700,-365.17 696.17,-369 692.33,-369"/>
<text text-anchor="middle" x="657.5" y="-353.8" font-family="Arial" font-size="14.00" fill="#c6c5fe">src/touch.js</text>
</g>
<!-- src/keyboard.js&#45;&gt;src/touch.js -->
<g id="edge35" class="edge">
<title>src/keyboard.js&#45;&gt;src/touch.js</title>
<path fill="none" stroke="#757575" d="M539.36,-357.5C560.12,-357.5 583.88,-357.5 604.55,-357.5"/>
<polygon fill="#757575" stroke="#757575" points="604.74,-361 614.74,-357.5 604.74,-354 604.74,-361"/>
</g>
<!-- src/player/Player.js&#45;&gt;src/rocket.js -->
<g id="edge40" class="edge">
<title>src/player/Player.js&#45;&gt;src/rocket.js</title>
<path fill="none" stroke="#757575" d="M348.27,-385.77C367.49,-372.35 400.8,-350.43 432,-336.5 492.6,-309.44 510.11,-307.43 575,-293.5 946.55,-213.72 1051.46,-208.21 1429,-251.5 1452.76,-254.22 1478.65,-259.88 1500.33,-265.39"/>
<polygon fill="#757575" stroke="#757575" points="1499.72,-268.85 1510.28,-267.99 1501.49,-262.08 1499.72,-268.85"/>
</g>
<!-- src/player/Player.js&#45;&gt;src/gameState.js -->
<g id="edge37" class="edge">
<title>src/player/Player.js&#45;&gt;src/gameState.js</title>
<path fill="none" stroke="#757575" d="M393.35,-409C458.42,-420.19 564.33,-435.5 656.5,-435.5 656.5,-435.5 656.5,-435.5 818,-435.5 985.66,-435.5 1009.12,-524.88 1171,-568.5 1356.66,-618.53 1582.31,-647.95 1693.23,-660.42"/>
<polygon fill="#757575" stroke="#757575" points="1692.96,-663.91 1703.28,-661.54 1693.73,-656.95 1692.96,-663.91"/>
</g>
<!-- src/player/Player.js&#45;&gt;src/keyboard.js -->
<g id="edge38" class="edge">
<title>src/player/Player.js&#45;&gt;src/keyboard.js</title>
<path fill="none" stroke="#757575" d="M376.11,-385.93C393.18,-381.45 412.88,-376.28 430.77,-371.59"/>
<polygon fill="#757575" stroke="#757575" points="431.71,-374.97 440.49,-369.04 429.93,-368.2 431.71,-374.97"/>
</g>
<!-- src/player/Player.js&#45;&gt;src/music.js -->
<g id="edge39" class="edge">
<title>src/player/Player.js&#45;&gt;src/music.js</title>
<path fill="none" stroke="#757575" d="M346.59,-385.91C359.98,-375.01 380.09,-357.95 396,-341.5 413.57,-323.34 411.66,-312.49 432,-297.5 487.21,-256.81 509.08,-258.42 575,-239.5 998.68,-117.88 1538.89,-121.12 1708.27,-125.63"/>
<polygon fill="#757575" stroke="#757575" points="1708.32,-129.13 1718.41,-125.91 1708.52,-122.13 1708.32,-129.13"/>
</g>
<!-- src/player/Player.js&#45;&gt;src/gameOver.js -->
<g id="edge36" class="edge">
<title>src/player/Player.js&#45;&gt;src/gameOver.js</title>
<path fill="none" stroke="#757575" d="M396.03,-394.03C500.32,-388.56 713.38,-378.19 894,-374.5 1001.09,-372.31 1051.32,-307.64 1135,-374.5 1191.61,-419.72 1117.86,-484.24 1171,-533.5 1182.31,-543.99 1376.5,-568.74 1482.2,-581.53"/>
<polygon fill="#757575" stroke="#757575" points="1481.8,-585.01 1492.15,-582.73 1482.64,-578.06 1481.8,-585.01"/>
</g>
<!-- src/step.js&#45;&gt;src/enemy.js -->
<g id="edge52" class="edge">
<title>src/step.js&#45;&gt;src/enemy.js</title>
<path fill="none" stroke="#757575" d="M821.65,-581.17C830.65,-608.73 856,-679.16 894,-727.5 920.37,-761.05 960.09,-790.73 986.4,-808.41"/>
<polygon fill="#757575" stroke="#757575" points="984.49,-811.34 994.77,-813.93 988.35,-805.5 984.49,-811.34"/>
</g>
<!-- src/step.js&#45;&gt;src/gatling.js -->
<g id="edge55" class="edge">
<title>src/step.js&#45;&gt;src/gatling.js</title>
<path fill="none" stroke="#757575" d="M855.71,-569.07C930.29,-567.46 1093.03,-559.98 1135,-525.5 1172.79,-494.45 1132.27,-451.37 1171,-421.5 1220.1,-383.62 1401.56,-385.76 1494.24,-389.55"/>
<polygon fill="#757575" stroke="#757575" points="1494.14,-393.05 1504.28,-389.99 1494.44,-386.06 1494.14,-393.05"/>
</g>
<!-- src/step.js&#45;&gt;src/ammo.js -->
<g id="edge50" class="edge">
<title>src/step.js&#45;&gt;src/ammo.js</title>
<path fill="none" stroke="#757575" d="M840.43,-557.87C855.29,-550.56 875.41,-541.43 894,-535.5 998.05,-502.33 1052.68,-559.27 1135,-487.5 1171.87,-455.36 1138.74,-420.27 1171,-383.5 1191.36,-360.3 1222.1,-344.54 1248.36,-334.47"/>
<polygon fill="#757575" stroke="#757575" points="1249.62,-337.74 1257.8,-331.01 1247.21,-331.16 1249.62,-337.74"/>
</g>
<!-- src/step.js&#45;&gt;src/rocket.js -->
<g id="edge58" class="edge">
<title>src/step.js&#45;&gt;src/rocket.js</title>
<path fill="none" stroke="#757575" d="M825.66,-557.88C837.97,-540.11 863.85,-506.27 894,-487.5 988.9,-428.42 1055.63,-494.22 1135,-415.5 1173.63,-377.19 1128.06,-331.91 1171,-298.5 1220.13,-260.28 1403.39,-268.18 1495.68,-274.9"/>
<polygon fill="#757575" stroke="#757575" points="1495.7,-278.41 1505.93,-275.67 1496.22,-271.43 1495.7,-278.41"/>
</g>
<!-- src/step.js&#45;&gt;src/background.js -->
<g id="edge51" class="edge">
<title>src/step.js&#45;&gt;src/background.js</title>
<path fill="none" stroke="#757575" d="M822.42,-581.18C831.81,-604.29 856.04,-655.84 894,-681.5 908.56,-691.34 926.19,-697.54 943.39,-701.41"/>
<polygon fill="#757575" stroke="#757575" points="942.95,-704.89 953.44,-703.44 944.33,-698.03 942.95,-704.89"/>
</g>
<!-- src/step.js&#45;&gt;src/gameState.js -->
<g id="edge54" class="edge">
<title>src/step.js&#45;&gt;src/gameState.js</title>
<path fill="none" stroke="#757575" d="M825.08,-581.24C836.8,-599.39 862.1,-633.61 894,-647.5 1036.77,-709.67 1514.7,-684.47 1693.35,-672.47"/>
<polygon fill="#757575" stroke="#757575" points="1693.67,-675.96 1703.41,-671.79 1693.2,-668.97 1693.67,-675.96"/>
</g>
<!-- src/step.js&#45;&gt;src/gameOver.js -->
<g id="edge53" class="edge">
<title>src/step.js&#45;&gt;src/gameOver.js</title>
<path fill="none" stroke="#757575" d="M855.53,-570.53C972.58,-573.73 1332.03,-583.55 1482.33,-587.66"/>
<polygon fill="#757575" stroke="#757575" points="1482.27,-591.16 1492.36,-587.94 1482.46,-584.17 1482.27,-591.16"/>
</g>
<!-- src/mobile/mobileVelocityController.js -->
<g id="node23" class="node">
<title>src/mobile/mobileVelocityController.js</title>
<path fill="none" stroke="#cfffac" d="M1127.33,-639C1127.33,-639 901.67,-639 901.67,-639 897.83,-639 894,-635.17 894,-631.33 894,-631.33 894,-623.67 894,-623.67 894,-619.83 897.83,-616 901.67,-616 901.67,-616 1127.33,-616 1127.33,-616 1131.17,-616 1135,-619.83 1135,-623.67 1135,-623.67 1135,-631.33 1135,-631.33 1135,-635.17 1131.17,-639 1127.33,-639"/>
<text text-anchor="middle" x="1014.5" y="-623.8" font-family="Arial" font-size="14.00" fill="#cfffac">src/mobile/mobileVelocityController.js</text>
</g>
<!-- src/step.js&#45;&gt;src/mobile/mobileVelocityController.js -->
<g id="edge56" class="edge">
<title>src/step.js&#45;&gt;src/mobile/mobileVelocityController.js</title>
<path fill="none" stroke="#757575" d="M842.21,-581.05C856.93,-587.72 876.26,-595.89 894,-601.5 908.7,-606.15 924.67,-610.25 940.01,-613.75"/>
<polygon fill="#757575" stroke="#757575" points="939.46,-617.21 949.98,-615.95 940.97,-610.37 939.46,-617.21"/>
</g>
<!-- src/mobileJoystick.js -->
<g id="node24" class="node">
<title>src/mobileJoystick.js</title>
<path fill="none" stroke="#cfffac" d="M1076.83,-407C1076.83,-407 952.17,-407 952.17,-407 948.33,-407 944.5,-403.17 944.5,-399.33 944.5,-399.33 944.5,-391.67 944.5,-391.67 944.5,-387.83 948.33,-384 952.17,-384 952.17,-384 1076.83,-384 1076.83,-384 1080.67,-384 1084.5,-387.83 1084.5,-391.67 1084.5,-391.67 1084.5,-399.33 1084.5,-399.33 1084.5,-403.17 1080.67,-407 1076.83,-407"/>
<text text-anchor="middle" x="1014.5" y="-391.8" font-family="Arial" font-size="14.00" fill="#cfffac">src/mobileJoystick.js</text>
</g>
<!-- src/step.js&#45;&gt;src/mobileJoystick.js -->
<g id="edge57" class="edge">
<title>src/step.js&#45;&gt;src/mobileJoystick.js</title>
<path fill="none" stroke="#757575" d="M823.64,-557.88C834.63,-536.22 860.76,-489.19 894,-459.5 917.4,-438.6 948.83,-422.12 973.59,-411.11"/>
<polygon fill="#757575" stroke="#757575" points="975.27,-414.2 983.06,-407.02 972.49,-407.77 975.27,-414.2"/>
</g>
<!-- src/gameMenuActions.js&#45;&gt;src/gameState.js -->
<g id="edge24" class="edge">
<title>src/gameMenuActions.js&#45;&gt;src/gameState.js</title>
<path fill="none" stroke="#757575" d="M670.36,-581.39C702.7,-612.84 796.5,-697.82 894,-727.5 1196.28,-819.51 1584.14,-720.97 1715.6,-681.95"/>
<polygon fill="#757575" stroke="#757575" points="1716.77,-685.25 1725.35,-679.02 1714.76,-678.55 1716.77,-685.25"/>
</g>
<!-- src/gameMenuActions.js&#45;&gt;src/step.js -->
<g id="edge25" class="edge">
<title>src/gameMenuActions.js&#45;&gt;src/step.js</title>
<path fill="none" stroke="#757575" d="M740.02,-569.5C749.62,-569.5 759.17,-569.5 768.09,-569.5"/>
<polygon fill="#757575" stroke="#757575" points="768.24,-573 778.24,-569.5 768.24,-566 768.24,-573"/>
</g>
<!-- src/gameOver.js&#45;&gt;src/levelCompleteScreen.js -->
<g id="edge26" class="edge">
<title>src/gameOver.js&#45;&gt;src/levelCompleteScreen.js</title>
<path fill="none" stroke="#757575" d="M1557.78,-601.17C1587.31,-656.01 1712.4,-888.32 1750.47,-959.01"/>
<polygon fill="#757575" stroke="#757575" points="1747.42,-960.73 1755.24,-967.87 1753.58,-957.41 1747.42,-960.73"/>
</g>
<!-- src/gameOver.js&#45;&gt;src/music.js -->
<g id="edge27" class="edge">
<title>src/gameOver.js&#45;&gt;src/music.js</title>
<path fill="none" stroke="#757575" d="M1608.57,-585.21C1618.98,-581.91 1628.81,-576.67 1636,-568.5 1681.8,-516.43 1647.73,-323.47 1672,-258.5 1688.47,-214.41 1722.82,-170.82 1743.85,-146.7"/>
<polygon fill="#757575" stroke="#757575" points="1746.65,-148.82 1750.68,-139.02 1741.42,-144.17 1746.65,-148.82"/>
</g>
<!-- src/touch.js&#45;&gt;src/mobileJoystick.js -->
<g id="edge59" class="edge">
<title>src/touch.js&#45;&gt;src/mobileJoystick.js</title>
<path fill="none" stroke="#757575" d="M700.27,-361.97C757.6,-368.11 861.78,-379.26 934.18,-387.01"/>
<polygon fill="#757575" stroke="#757575" points="933.86,-390.49 944.17,-388.08 934.6,-383.53 933.86,-390.49"/>
</g>
</g>
</svg>
