<?xml version="1.0" encoding="UTF-8" standalone="no"?>
<!DOCTYPE svg PUBLIC "-//W3C//DTD SVG 1.1//EN"
 "http://www.w3.org/Graphics/SVG/1.1/DTD/svg11.dtd">
<!-- Generated by graphviz version 8.0.2 (20230410.1723)
 -->
<!-- Title: G Pages: 1 -->
<svg width="1528pt" height="625pt"
 viewBox="0.00 0.00 1528.20 624.50" xmlns="http://www.w3.org/2000/svg" xmlns:xlink="http://www.w3.org/1999/xlink">
<g id="graph0" class="graph" transform="scale(1 1) rotate(0) translate(21.6 602.9)">
<title>G</title>
<polygon fill="#111111" stroke="none" points="-21.6,21.6 -21.6,-602.9 1506.6,-602.9 1506.6,21.6 -21.6,21.6"/>
<!-- app.js -->
<g id="node1" class="node">
<title>app.js</title>
<path fill="none" stroke="#c6c5fe" d="M47.33,-165.5C47.33,-165.5 7.67,-165.5 7.67,-165.5 3.83,-165.5 0,-161.67 0,-157.83 0,-157.83 0,-150.17 0,-150.17 0,-146.33 3.83,-142.5 7.67,-142.5 7.67,-142.5 47.33,-142.5 47.33,-142.5 51.17,-142.5 55,-146.33 55,-150.17 55,-150.17 55,-157.83 55,-157.83 55,-161.67 51.17,-165.5 47.33,-165.5"/>
<text text-anchor="middle" x="27.5" y="-150.3" font-family="Arial" font-size="14.00" fill="#c6c5fe">app.js</text>
</g>
<!-- src/gameManager.js -->
<g id="node2" class="node">
<title>src/gameManager.js</title>
<path fill="none" stroke="#c6c5fe" d="M228.33,-319.5C228.33,-319.5 98.67,-319.5 98.67,-319.5 94.83,-319.5 91,-315.67 91,-311.83 91,-311.83 91,-304.17 91,-304.17 91,-300.33 94.83,-296.5 98.67,-296.5 98.67,-296.5 228.33,-296.5 228.33,-296.5 232.17,-296.5 236,-300.33 236,-304.17 236,-304.17 236,-311.83 236,-311.83 236,-315.67 232.17,-319.5 228.33,-319.5"/>
<text text-anchor="middle" x="163.5" y="-304.3" font-family="Arial" font-size="14.00" fill="#c6c5fe">src/gameManager.js</text>
</g>
<!-- app.js&#45;&gt;src/gameManager.js -->
<g id="edge1" class="edge">
<title>app.js&#45;&gt;src/gameManager.js</title>
<path fill="none" stroke="#757575" d="M38.57,-165.58C61.37,-191.77 117.13,-255.86 145.43,-288.38"/>
<polygon fill="#757575" stroke="#757575" points="143.11,-290.04 152.31,-295.29 148.39,-285.45 143.11,-290.04"/>
</g>
<!-- src/music.js -->
<g id="node3" class="node">
<title>src/music.js</title>
<path fill="none" stroke="#cfffac" d="M1273.83,-237.5C1273.83,-237.5 1197.17,-237.5 1197.17,-237.5 1193.33,-237.5 1189.5,-233.67 1189.5,-229.83 1189.5,-229.83 1189.5,-222.17 1189.5,-222.17 1189.5,-218.33 1193.33,-214.5 1197.17,-214.5 1197.17,-214.5 1273.83,-214.5 1273.83,-214.5 1277.67,-214.5 1281.5,-218.33 1281.5,-222.17 1281.5,-222.17 1281.5,-229.83 1281.5,-229.83 1281.5,-233.67 1277.67,-237.5 1273.83,-237.5"/>
<text text-anchor="middle" x="1235.5" y="-222.3" font-family="Arial" font-size="14.00" fill="#cfffac">src/music.js</text>
</g>
<!-- app.js&#45;&gt;src/music.js -->
<g id="edge2" class="edge">
<title>app.js&#45;&gt;src/music.js</title>
<path fill="none" stroke="#757575" d="M40.14,-142.17C76.91,-106.11 195.34,0 315.5,0 315.5,0 315.5,0 441.5,0 765.33,0 862.81,-13.28 1153,-157 1177.9,-169.33 1201.58,-190.87 1216.93,-206.62"/>
<polygon fill="#757575" stroke="#757575" points="1213.74,-208.39 1223.16,-213.24 1218.82,-203.58 1213.74,-208.39"/>
</g>
<!-- src/gameManager.js&#45;&gt;src/music.js -->
<g id="edge15" class="edge">
<title>src/gameManager.js&#45;&gt;src/music.js</title>
<path fill="none" stroke="#757575" d="M180.44,-296.15C216.8,-269.76 309.47,-205.94 397,-174 652.2,-80.87 737.7,-129.8 1008,-157 1073.14,-163.55 1091.09,-161.69 1153,-183 1171.61,-189.41 1191.16,-199.59 1206.45,-208.44"/>
<polygon fill="#757575" stroke="#757575" points="1204.44,-211.91 1214.82,-214 1208.01,-205.89 1204.44,-211.91"/>
</g>
<!-- src/Boss.js -->
<g id="node4" class="node">
<title>src/Boss.js</title>
<path fill="none" stroke="#c6c5fe" d="M476.33,-279.5C476.33,-279.5 404.67,-279.5 404.67,-279.5 400.83,-279.5 397,-275.67 397,-271.83 397,-271.83 397,-264.17 397,-264.17 397,-260.33 400.83,-256.5 404.67,-256.5 404.67,-256.5 476.33,-256.5 476.33,-256.5 480.17,-256.5 484,-260.33 484,-264.17 484,-264.17 484,-271.83 484,-271.83 484,-275.67 480.17,-279.5 476.33,-279.5"/>
<text text-anchor="middle" x="440.5" y="-264.3" font-family="Arial" font-size="14.00" fill="#c6c5fe">src/Boss.js</text>
</g>
<!-- src/gameManager.js&#45;&gt;src/Boss.js -->
<g id="edge10" class="edge">
<title>src/gameManager.js&#45;&gt;src/Boss.js</title>
<path fill="none" stroke="#757575" d="M221.26,-296.03C237.59,-292.83 255.46,-289.55 272,-287 309.94,-281.15 352.98,-276.31 385.93,-272.98"/>
<polygon fill="#757575" stroke="#757575" points="386.09,-276.38 395.69,-271.9 385.39,-269.41 386.09,-276.38"/>
</g>
<!-- src/enemy.js -->
<g id="node5" class="node">
<title>src/enemy.js</title>
<path fill="none" stroke="#c6c5fe" d="M696.83,-376.5C696.83,-376.5 615.17,-376.5 615.17,-376.5 611.33,-376.5 607.5,-372.67 607.5,-368.83 607.5,-368.83 607.5,-361.17 607.5,-361.17 607.5,-357.33 611.33,-353.5 615.17,-353.5 615.17,-353.5 696.83,-353.5 696.83,-353.5 700.67,-353.5 704.5,-357.33 704.5,-361.17 704.5,-361.17 704.5,-368.83 704.5,-368.83 704.5,-372.67 700.67,-376.5 696.83,-376.5"/>
<text text-anchor="middle" x="656" y="-361.3" font-family="Arial" font-size="14.00" fill="#c6c5fe">src/enemy.js</text>
</g>
<!-- src/gameManager.js&#45;&gt;src/enemy.js -->
<g id="edge13" class="edge">
<title>src/gameManager.js&#45;&gt;src/enemy.js</title>
<path fill="none" stroke="#757575" d="M225.51,-319.97C240.67,-322.77 256.9,-325.63 272,-328 386.17,-345.91 520.93,-356.51 596.32,-361.5"/>
<polygon fill="#757575" stroke="#757575" points="595.8,-365.04 606,-362.2 596.25,-358.06 595.8,-365.04"/>
</g>
<!-- src/gatling.js -->
<g id="node6" class="node">
<title>src/gatling.js</title>
<path fill="none" stroke="#c6c5fe" d="M957.83,-393.5C957.83,-393.5 878.17,-393.5 878.17,-393.5 874.33,-393.5 870.5,-389.67 870.5,-385.83 870.5,-385.83 870.5,-378.17 870.5,-378.17 870.5,-374.33 874.33,-370.5 878.17,-370.5 878.17,-370.5 957.83,-370.5 957.83,-370.5 961.67,-370.5 965.5,-374.33 965.5,-378.17 965.5,-378.17 965.5,-385.83 965.5,-385.83 965.5,-389.67 961.67,-393.5 957.83,-393.5"/>
<text text-anchor="middle" x="918" y="-378.3" font-family="Arial" font-size="14.00" fill="#c6c5fe">src/gatling.js</text>
</g>
<!-- src/gameManager.js&#45;&gt;src/gatling.js -->
<g id="edge14" class="edge">
<title>src/gameManager.js&#45;&gt;src/gatling.js</title>
<path fill="none" stroke="#757575" d="M196.64,-296.06C217.83,-288.48 246.32,-278.84 272,-272 383.8,-242.23 698.14,-178.35 792,-246 833.05,-275.58 791.92,-318.53 828,-354 836.75,-362.61 848.13,-368.57 859.8,-372.71"/>
<polygon fill="#757575" stroke="#757575" points="858.49,-376.27 869.08,-375.89 860.56,-369.59 858.49,-376.27"/>
</g>
<!-- src/airfighter.js -->
<g id="node7" class="node">
<title>src/airfighter.js</title>
<path fill="none" stroke="#c6c5fe" d="M1145.33,-393.5C1145.33,-393.5 1051.67,-393.5 1051.67,-393.5 1047.83,-393.5 1044,-389.67 1044,-385.83 1044,-385.83 1044,-378.17 1044,-378.17 1044,-374.33 1047.83,-370.5 1051.67,-370.5 1051.67,-370.5 1145.33,-370.5 1145.33,-370.5 1149.17,-370.5 1153,-374.33 1153,-378.17 1153,-378.17 1153,-385.83 1153,-385.83 1153,-389.67 1149.17,-393.5 1145.33,-393.5"/>
<text text-anchor="middle" x="1098.5" y="-378.3" font-family="Arial" font-size="14.00" fill="#c6c5fe">src/airfighter.js</text>
</g>
<!-- src/gameManager.js&#45;&gt;src/airfighter.js -->
<g id="edge11" class="edge">
<title>src/gameManager.js&#45;&gt;src/airfighter.js</title>
<path fill="none" stroke="#757575" d="M166.18,-319.83C172.22,-357.46 196.69,-474.65 272,-521 370.41,-581.57 678.96,-544.99 792,-521 901.24,-497.82 1018.14,-431.44 1070,-399.54"/>
<polygon fill="#757575" stroke="#757575" points="1071.55,-402.07 1078.2,-393.82 1067.86,-396.13 1071.55,-402.07"/>
</g>
<!-- src/rocket.js -->
<g id="node8" class="node">
<title>src/rocket.js</title>
<path fill="none" stroke="#c6c5fe" d="M1274.33,-432.5C1274.33,-432.5 1196.67,-432.5 1196.67,-432.5 1192.83,-432.5 1189,-428.67 1189,-424.83 1189,-424.83 1189,-417.17 1189,-417.17 1189,-413.33 1192.83,-409.5 1196.67,-409.5 1196.67,-409.5 1274.33,-409.5 1274.33,-409.5 1278.17,-409.5 1282,-413.33 1282,-417.17 1282,-417.17 1282,-424.83 1282,-424.83 1282,-428.67 1278.17,-432.5 1274.33,-432.5"/>
<text text-anchor="middle" x="1235.5" y="-417.3" font-family="Arial" font-size="14.00" fill="#c6c5fe">src/rocket.js</text>
</g>
<!-- src/gameManager.js&#45;&gt;src/rocket.js -->
<g id="edge17" class="edge">
<title>src/gameManager.js&#45;&gt;src/rocket.js</title>
<path fill="none" stroke="#757575" d="M165.94,-319.84C171.4,-359.36 194.66,-487.55 272,-548 331.59,-594.58 363.87,-578 439.5,-578 439.5,-578 439.5,-578 919,-578 1028.63,-578 1059.3,-556.91 1153,-500 1179.05,-484.18 1203.38,-458.63 1218.55,-440.89"/>
<polygon fill="#757575" stroke="#757575" points="1221.51,-443.81 1225.23,-433.89 1216.14,-439.32 1221.51,-443.81"/>
</g>
<!-- src/ammo.js -->
<g id="node9" class="node">
<title>src/ammo.js</title>
<path fill="none" stroke="#c6c5fe" d="M695.33,-511.5C695.33,-511.5 616.67,-511.5 616.67,-511.5 612.83,-511.5 609,-507.67 609,-503.83 609,-503.83 609,-496.17 609,-496.17 609,-492.33 612.83,-488.5 616.67,-488.5 616.67,-488.5 695.33,-488.5 695.33,-488.5 699.17,-488.5 703,-492.33 703,-496.17 703,-496.17 703,-503.83 703,-503.83 703,-507.67 699.17,-511.5 695.33,-511.5"/>
<text text-anchor="middle" x="656" y="-496.3" font-family="Arial" font-size="14.00" fill="#c6c5fe">src/ammo.js</text>
</g>
<!-- src/gameManager.js&#45;&gt;src/ammo.js -->
<g id="edge12" class="edge">
<title>src/gameManager.js&#45;&gt;src/ammo.js</title>
<path fill="none" stroke="#757575" d="M176.23,-319.94C208.21,-351.61 300.92,-437.81 397,-474 462.68,-498.74 544.06,-502.99 597.65,-502.53"/>
<polygon fill="#757575" stroke="#757575" points="597.7,-506.02 607.64,-502.37 597.59,-499.02 597.7,-506.02"/>
</g>
<!-- src/rendering/Helpers.js -->
<g id="node10" class="node">
<title>src/rendering/Helpers.js</title>
<path fill="none" stroke="#cfffac" d="M1477.33,-130.5C1477.33,-130.5 1325.67,-130.5 1325.67,-130.5 1321.83,-130.5 1318,-126.67 1318,-122.83 1318,-122.83 1318,-115.17 1318,-115.17 1318,-111.33 1321.83,-107.5 1325.67,-107.5 1325.67,-107.5 1477.33,-107.5 1477.33,-107.5 1481.17,-107.5 1485,-111.33 1485,-115.17 1485,-115.17 1485,-122.83 1485,-122.83 1485,-126.67 1481.17,-130.5 1477.33,-130.5"/>
<text text-anchor="middle" x="1401.5" y="-115.3" font-family="Arial" font-size="14.00" fill="#cfffac">src/rendering/Helpers.js</text>
</g>
<!-- src/gameManager.js&#45;&gt;src/rendering/Helpers.js -->
<g id="edge16" class="edge">
<title>src/gameManager.js&#45;&gt;src/rendering/Helpers.js</title>
<path fill="none" stroke="#757575" d="M171.57,-296.33C186.87,-272.05 225.41,-215.84 272,-185 320.75,-152.73 340.66,-159.62 397,-144 736.44,-49.92 836.76,-115.26 1189,-115 1230.33,-114.97 1240.67,-114.3 1282,-115 1290.01,-115.14 1298.33,-115.32 1306.67,-115.54"/>
<polygon fill="#757575" stroke="#757575" points="1306.54,-119.07 1316.63,-115.85 1306.74,-112.07 1306.54,-119.07"/>
</g>
<!-- src/step.js -->
<g id="node11" class="node">
<title>src/step.js</title>
<path fill="none" stroke="#c6c5fe" d="M349.83,-319.5C349.83,-319.5 283.17,-319.5 283.17,-319.5 279.33,-319.5 275.5,-315.67 275.5,-311.83 275.5,-311.83 275.5,-304.17 275.5,-304.17 275.5,-300.33 279.33,-296.5 283.17,-296.5 283.17,-296.5 349.83,-296.5 349.83,-296.5 353.67,-296.5 357.5,-300.33 357.5,-304.17 357.5,-304.17 357.5,-311.83 357.5,-311.83 357.5,-315.67 353.67,-319.5 349.83,-319.5"/>
<text text-anchor="middle" x="316.5" y="-304.3" font-family="Arial" font-size="14.00" fill="#c6c5fe">src/step.js</text>
</g>
<!-- src/gameManager.js&#45;&gt;src/step.js -->
<g id="edge18" class="edge">
<title>src/gameManager.js&#45;&gt;src/step.js</title>
<path fill="none" stroke="#757575" d="M236.46,-308C245.97,-308 255.55,-308 264.6,-308"/>
<polygon fill="#757575" stroke="#757575" points="264.33,-311.5 274.33,-308 264.33,-304.5 264.33,-311.5"/>
</g>
<!-- src/touch.js -->
<g id="node12" class="node">
<title>src/touch.js</title>
<path fill="none" stroke="#cfffac" d="M353.33,-511.5C353.33,-511.5 279.67,-511.5 279.67,-511.5 275.83,-511.5 272,-507.67 272,-503.83 272,-503.83 272,-496.17 272,-496.17 272,-492.33 275.83,-488.5 279.67,-488.5 279.67,-488.5 353.33,-488.5 353.33,-488.5 357.17,-488.5 361,-492.33 361,-496.17 361,-496.17 361,-503.83 361,-503.83 361,-507.67 357.17,-511.5 353.33,-511.5"/>
<text text-anchor="middle" x="316.5" y="-496.3" font-family="Arial" font-size="14.00" fill="#cfffac">src/touch.js</text>
</g>
<!-- src/gameManager.js&#45;&gt;src/touch.js -->
<g id="edge19" class="edge">
<title>src/gameManager.js&#45;&gt;src/touch.js</title>
<path fill="none" stroke="#757575" d="M169.76,-319.75C183.26,-348.83 221.59,-425.37 272,-474 275.05,-476.94 278.49,-479.69 282.06,-482.23"/>
<polygon fill="#757575" stroke="#757575" points="279.79,-485.57 290.09,-488.05 283.58,-479.69 279.79,-485.57"/>
</g>
<!-- src/Boss.js&#45;&gt;src/enemy.js -->
<g id="edge3" class="edge">
<title>src/Boss.js&#45;&gt;src/enemy.js</title>
<path fill="none" stroke="#757575" d="M467.68,-279.89C505.61,-297.13 576,-329.11 618.86,-348.58"/>
<polygon fill="#757575" stroke="#757575" points="617.05,-352.06 627.61,-353.01 619.95,-345.69 617.05,-352.06"/>
</g>
<!-- src/Boss.js&#45;&gt;src/gatling.js -->
<g id="edge4" class="edge">
<title>src/Boss.js&#45;&gt;src/gatling.js</title>
<path fill="none" stroke="#757575" d="M484.49,-259.21C554.75,-247.3 695.93,-233.85 792,-294 819.01,-310.91 802.92,-336.35 828,-356 837.31,-363.3 848.62,-368.55 860,-372.32"/>
<polygon fill="#757575" stroke="#757575" points="858.83,-375.92 869.42,-375.39 860.81,-369.21 858.83,-375.92"/>
</g>
<!-- src/enemy.js&#45;&gt;src/gatling.js -->
<g id="edge9" class="edge">
<title>src/enemy.js&#45;&gt;src/gatling.js</title>
<path fill="none" stroke="#757575" d="M704.99,-368.14C748.6,-370.99 813.01,-375.2 859.38,-378.23"/>
<polygon fill="#757575" stroke="#757575" points="858.96,-381.78 869.16,-378.94 859.41,-374.79 858.96,-381.78"/>
</g>
<!-- src/gatling.js&#45;&gt;src/music.js -->
<g id="edge21" class="edge">
<title>src/gatling.js&#45;&gt;src/music.js</title>
<path fill="none" stroke="#757575" d="M944.42,-370.09C987.55,-349.8 1077.7,-307.03 1153,-269 1169.63,-260.6 1188,-250.94 1203.09,-242.91"/>
<polygon fill="#757575" stroke="#757575" points="1204.3,-245.69 1211.47,-237.89 1201,-239.52 1204.3,-245.69"/>
</g>
<!-- src/gatling.js&#45;&gt;src/airfighter.js -->
<g id="edge20" class="edge">
<title>src/gatling.js&#45;&gt;src/airfighter.js</title>
<path fill="none" stroke="#757575" d="M965.9,-382C986.31,-382 1010.57,-382 1032.67,-382"/>
<polygon fill="#757575" stroke="#757575" points="1032.65,-385.5 1042.65,-382 1032.65,-378.5 1032.65,-385.5"/>
</g>
<!-- src/airfighter.js&#45;&gt;src/music.js -->
<g id="edge5" class="edge">
<title>src/airfighter.js&#45;&gt;src/music.js</title>
<path fill="none" stroke="#757575" d="M1109.87,-370.02C1132.99,-343.3 1188.98,-278.6 1217.37,-245.79"/>
<polygon fill="#757575" stroke="#757575" points="1220.38,-248.66 1224.28,-238.81 1215.09,-244.08 1220.38,-248.66"/>
</g>
<!-- src/airfighter.js&#45;&gt;src/rocket.js -->
<g id="edge6" class="edge">
<title>src/airfighter.js&#45;&gt;src/rocket.js</title>
<path fill="none" stroke="#757575" d="M1140.74,-393.91C1153.96,-397.73 1168.78,-402.01 1182.66,-406.02"/>
<polygon fill="#757575" stroke="#757575" points="1181.47,-409.61 1192.05,-409.03 1183.41,-402.89 1181.47,-409.61"/>
</g>
<!-- src/rocket.js&#45;&gt;src/rendering/Helpers.js -->
<g id="edge28" class="edge">
<title>src/rocket.js&#45;&gt;src/rendering/Helpers.js</title>
<path fill="none" stroke="#757575" d="M1242.93,-409.16C1267.68,-363.59 1357,-199.1 1389,-140.18"/>
<polygon fill="#757575" stroke="#757575" points="1392.42,-142.22 1394.12,-131.76 1386.27,-138.87 1392.42,-142.22"/>
</g>
<!-- src/ammo.js&#45;&gt;src/gatling.js -->
<g id="edge7" class="edge">
<title>src/ammo.js&#45;&gt;src/gatling.js</title>
<path fill="none" stroke="#757575" d="M683.36,-488.04C730.08,-466.83 827.47,-422.63 880.57,-398.53"/>
<polygon fill="#757575" stroke="#757575" points="881.91,-401.32 889.57,-394 879.02,-394.94 881.91,-401.32"/>
</g>
<!-- src/ammo.js&#45;&gt;src/rocket.js -->
<g id="edge8" class="edge">
<title>src/ammo.js&#45;&gt;src/rocket.js</title>
<path fill="none" stroke="#757575" d="M703.23,-505.37C792.67,-514.09 994.53,-525.55 1153,-474 1175.27,-466.76 1197.35,-451.79 1212.89,-439.61"/>
<polygon fill="#757575" stroke="#757575" points="1214.68,-441.85 1220.24,-432.83 1210.27,-436.41 1214.68,-441.85"/>
</g>
<!-- src/step.js&#45;&gt;src/music.js -->
<g id="edge33" class="edge">
<title>src/step.js&#45;&gt;src/music.js</title>
<path fill="none" stroke="#757575" d="M324.59,-296.29C336.95,-276.78 364.3,-237.54 397,-215 444.8,-182.05 462.8,-180.92 520,-171 763.04,-128.84 1058.19,-184.97 1178.95,-212.44"/>
<polygon fill="#757575" stroke="#757575" points="1177.88,-216.01 1188.41,-214.84 1179.45,-209.19 1177.88,-216.01"/>
</g>
<!-- src/step.js&#45;&gt;src/Boss.js -->
<g id="edge29" class="edge">
<title>src/step.js&#45;&gt;src/Boss.js</title>
<path fill="none" stroke="#757575" d="M353.77,-296.11C366.08,-292.07 380,-287.51 392.99,-283.25"/>
<polygon fill="#757575" stroke="#757575" points="393.74,-286.36 402.16,-279.92 391.56,-279.71 393.74,-286.36"/>
</g>
<!-- src/step.js&#45;&gt;src/enemy.js -->
<g id="edge31" class="edge">
<title>src/step.js&#45;&gt;src/enemy.js</title>
<path fill="none" stroke="#757575" d="M357.93,-315.19C370.45,-317.4 384.29,-319.82 397,-322 465.53,-333.74 544.37,-346.82 596.68,-355.44"/>
<polygon fill="#757575" stroke="#757575" points="595.99,-359.03 606.43,-357.21 597.13,-352.13 595.99,-359.03"/>
</g>
<!-- src/step.js&#45;&gt;src/gatling.js -->
<g id="edge32" class="edge">
<title>src/step.js&#45;&gt;src/gatling.js</title>
<path fill="none" stroke="#757575" d="M357.86,-308.3C440.19,-309.54 633.15,-315.63 792,-345 806.96,-347.77 840.7,-357.84 869.36,-366.77"/>
<polygon fill="#757575" stroke="#757575" points="868.06,-370.35 878.64,-370 870.15,-363.67 868.06,-370.35"/>
</g>
<!-- src/step.js&#45;&gt;src/airfighter.js -->
<g id="edge30" class="edge">
<title>src/step.js&#45;&gt;src/airfighter.js</title>
<path fill="none" stroke="#757575" d="M340.4,-319.9C377.11,-338.26 451.95,-372.77 520,-386 733.03,-427.43 792.42,-427.95 1008,-403 1020.14,-401.59 1033.02,-399.15 1045.12,-396.42"/>
<polygon fill="#757575" stroke="#757575" points="1045.59,-399.67 1054.51,-393.96 1043.98,-392.86 1045.59,-399.67"/>
</g>
<!-- src/step.js&#45;&gt;src/rocket.js -->
<g id="edge36" class="edge">
<title>src/step.js&#45;&gt;src/rocket.js</title>
<path fill="none" stroke="#757575" d="M328.56,-319.75C343.03,-334.5 369.76,-359.73 397,-375 405.47,-379.75 653.89,-460 655,-460 655,-460 655,-460 919,-460 1010.3,-460 1115.35,-443.71 1178.26,-432.19"/>
<polygon fill="#757575" stroke="#757575" points="1178.55,-435.51 1187.74,-430.24 1177.27,-428.63 1178.55,-435.51"/>
</g>
<!-- src/step.js&#45;&gt;src/rendering/Helpers.js -->
<g id="edge35" class="edge">
<title>src/step.js&#45;&gt;src/rendering/Helpers.js</title>
<path fill="none" stroke="#757575" d="M323.86,-296.03C340.62,-264.67 385.5,-181.98 397,-174 442.64,-142.36 464.78,-157.94 520,-152 805.46,-121.27 1145.63,-117.86 1306.85,-118.23"/>
<polygon fill="#757575" stroke="#757575" points="1306.67,-121.73 1316.68,-118.26 1306.69,-114.73 1306.67,-121.73"/>
</g>
<!-- src/rendering/EnemyCollisionsChecks.js -->
<g id="node13" class="node">
<title>src/rendering/EnemyCollisionsChecks.js</title>
<path fill="none" stroke="#c6c5fe" d="M784.33,-203.5C784.33,-203.5 527.67,-203.5 527.67,-203.5 523.83,-203.5 520,-199.67 520,-195.83 520,-195.83 520,-188.17 520,-188.17 520,-184.33 523.83,-180.5 527.67,-180.5 527.67,-180.5 784.33,-180.5 784.33,-180.5 788.17,-180.5 792,-184.33 792,-188.17 792,-188.17 792,-195.83 792,-195.83 792,-199.67 788.17,-203.5 784.33,-203.5"/>
<text text-anchor="middle" x="656" y="-188.3" font-family="Arial" font-size="14.00" fill="#c6c5fe">src/rendering/EnemyCollisionsChecks.js</text>
</g>
<!-- src/step.js&#45;&gt;src/rendering/EnemyCollisionsChecks.js -->
<g id="edge34" class="edge">
<title>src/step.js&#45;&gt;src/rendering/EnemyCollisionsChecks.js</title>
<path fill="none" stroke="#757575" d="M329.3,-296.17C343.9,-282.22 370.15,-259.39 397,-247 440.6,-226.88 491.76,-214.02 536.98,-205.84"/>
<polygon fill="#757575" stroke="#757575" points="537.48,-209.13 546.73,-203.96 536.28,-202.24 537.48,-209.13"/>
</g>
<!-- src/rendering/EnemyCollisionsChecks.js&#45;&gt;src/music.js -->
<g id="edge24" class="edge">
<title>src/rendering/EnemyCollisionsChecks.js&#45;&gt;src/music.js</title>
<path fill="none" stroke="#757575" d="M750.29,-203.99C764.61,-207.52 778.96,-212.09 792,-218 810.46,-226.37 808.83,-239.42 828,-246 949.28,-287.61 1102.87,-260.18 1182.03,-240.68"/>
<polygon fill="#757575" stroke="#757575" points="1182.86,-243.83 1191.7,-237.99 1181.14,-237.04 1182.86,-243.83"/>
</g>
<!-- src/rendering/EnemyCollisionsChecks.js&#45;&gt;src/gatling.js -->
<g id="edge23" class="edge">
<title>src/rendering/EnemyCollisionsChecks.js&#45;&gt;src/gatling.js</title>
<path fill="none" stroke="#757575" d="M771.49,-203.9C778.95,-207.65 785.9,-212.29 792,-218 838.25,-261.34 783.83,-310.53 828,-356 836.59,-364.84 848,-370.72 859.78,-374.62"/>
<polygon fill="#757575" stroke="#757575" points="858.59,-378.2 869.16,-377.56 860.5,-371.46 858.59,-378.2"/>
</g>
<!-- src/rendering/EnemyCollisionsChecks.js&#45;&gt;src/airfighter.js -->
<g id="edge22" class="edge">
<title>src/rendering/EnemyCollisionsChecks.js&#45;&gt;src/airfighter.js</title>
<path fill="none" stroke="#757575" d="M769.62,-203.92C777.7,-207.63 785.29,-212.26 792,-218 827.89,-248.71 792.78,-286.53 828,-318 831.91,-321.49 955.59,-349.94 1034.03,-367.71"/>
<polygon fill="#757575" stroke="#757575" points="1032.78,-371.24 1043.3,-370.03 1034.32,-364.41 1032.78,-371.24"/>
</g>
<!-- src/rendering/EnemyCollisionsChecks.js&#45;&gt;src/rocket.js -->
<g id="edge27" class="edge">
<title>src/rendering/EnemyCollisionsChecks.js&#45;&gt;src/rocket.js</title>
<path fill="none" stroke="#757575" d="M763.01,-203.96C773.26,-207.56 783.13,-212.16 792,-218 815.78,-233.66 804.74,-254.58 828,-271 895.54,-318.69 928.42,-295.55 1008,-318 1072.82,-336.29 1092.67,-332.06 1153,-362 1174.92,-372.87 1197.25,-389.51 1212.98,-402.35"/>
<polygon fill="#757575" stroke="#757575" points="1210.07,-405.32 1219.99,-409.03 1214.55,-399.94 1210.07,-405.32"/>
</g>
<!-- src/rendering/EnemyCollisionsChecks.js&#45;&gt;src/rendering/Helpers.js -->
<g id="edge26" class="edge">
<title>src/rendering/EnemyCollisionsChecks.js&#45;&gt;src/rendering/Helpers.js</title>
<path fill="none" stroke="#757575" d="M778.94,-180.03C926.95,-165.5 1173.29,-141.31 1307.08,-128.17"/>
<polygon fill="#757575" stroke="#757575" points="1307.09,-131.59 1316.7,-127.13 1306.41,-124.62 1307.09,-131.59"/>
</g>
<!-- src/rendering/Explosion.js -->
<g id="node14" class="node">
<title>src/rendering/Explosion.js</title>
<path fill="none" stroke="#cfffac" d="M1000.33,-237.5C1000.33,-237.5 835.67,-237.5 835.67,-237.5 831.83,-237.5 828,-233.67 828,-229.83 828,-229.83 828,-222.17 828,-222.17 828,-218.33 831.83,-214.5 835.67,-214.5 835.67,-214.5 1000.33,-214.5 1000.33,-214.5 1004.17,-214.5 1008,-218.33 1008,-222.17 1008,-222.17 1008,-229.83 1008,-229.83 1008,-233.67 1004.17,-237.5 1000.33,-237.5"/>
<text text-anchor="middle" x="918" y="-222.3" font-family="Arial" font-size="14.00" fill="#cfffac">src/rendering/Explosion.js</text>
</g>
<!-- src/rendering/EnemyCollisionsChecks.js&#45;&gt;src/rendering/Explosion.js -->
<g id="edge25" class="edge">
<title>src/rendering/EnemyCollisionsChecks.js&#45;&gt;src/rendering/Explosion.js</title>
<path fill="none" stroke="#757575" d="M748.67,-203.99C770.88,-206.89 794.73,-210.01 817.3,-212.96"/>
<polygon fill="#757575" stroke="#757575" points="816.54,-216.52 826.91,-214.35 817.45,-209.58 816.54,-216.52"/>
</g>
</g>
</svg>
