<?xml version="1.0" encoding="UTF-8" standalone="no"?>
<!DOCTYPE svg PUBLIC "-//W3C//DTD SVG 1.1//EN"
 "http://www.w3.org/Graphics/SVG/1.1/DTD/svg11.dtd">
<!-- Generated by graphviz version 7.0.1 (20221109.1506)
 -->
<!-- Title: G Pages: 1 -->
<svg width="1966pt" height="853pt"
 viewBox="0.00 0.00 1966.20 852.69" xmlns="http://www.w3.org/2000/svg" xmlns:xlink="http://www.w3.org/1999/xlink">
<g id="graph0" class="graph" transform="scale(1 1) rotate(0) translate(21.6 831.09)">
<title>G</title>
<polygon fill="#111111" stroke="none" points="-21.6,21.6 -21.6,-831.09 1944.6,-831.09 1944.6,21.6 -21.6,21.6"/>
<!-- app.js -->
<g id="node1" class="node">
<title>app.js</title>
<path fill="none" stroke="#c6c5fe" d="M46.33,-607.99C46.33,-607.99 7.67,-607.99 7.67,-607.99 3.83,-607.99 0,-604.16 0,-600.33 0,-600.33 0,-592.66 0,-592.66 0,-588.83 3.83,-584.99 7.67,-584.99 7.67,-584.99 46.33,-584.99 46.33,-584.99 50.17,-584.99 54,-588.83 54,-592.66 54,-592.66 54,-600.33 54,-600.33 54,-604.16 50.17,-607.99 46.33,-607.99"/>
<text text-anchor="middle" x="27" y="-592.79" font-family="Arial" font-size="14.00" fill="#c6c5fe">app.js</text>
</g>
<!-- src/gameManager.js -->
<g id="node2" class="node">
<title>src/gameManager.js</title>
<path fill="none" stroke="#c6c5fe" d="M222.33,-489.99C222.33,-489.99 97.67,-489.99 97.67,-489.99 93.83,-489.99 90,-486.16 90,-482.33 90,-482.33 90,-474.66 90,-474.66 90,-470.83 93.83,-466.99 97.67,-466.99 97.67,-466.99 222.33,-466.99 222.33,-466.99 226.17,-466.99 230,-470.83 230,-474.66 230,-474.66 230,-482.33 230,-482.33 230,-486.16 226.17,-489.99 222.33,-489.99"/>
<text text-anchor="middle" x="160" y="-474.79" font-family="Arial" font-size="14.00" fill="#c6c5fe">src/gameManager.js</text>
</g>
<!-- app.js&#45;&gt;src/gameManager.js -->
<g id="edge1" class="edge">
<title>app.js&#45;&gt;src/gameManager.js</title>
<path fill="none" stroke="#757575" d="M41.04,-584.75C63.6,-564.43 110.12,-522.52 137.52,-497.84"/>
<polygon fill="#757575" stroke="#757575" points="139.8,-500.5 144.89,-491.2 135.12,-495.3 139.8,-500.5"/>
</g>
<!-- src/music.js -->
<g id="node3" class="node">
<title>src/music.js</title>
<path fill="none" stroke="#cfffac" d="M1719.83,-625.99C1719.83,-625.99 1647.17,-625.99 1647.17,-625.99 1643.33,-625.99 1639.5,-622.16 1639.5,-618.33 1639.5,-618.33 1639.5,-610.66 1639.5,-610.66 1639.5,-606.83 1643.33,-602.99 1647.17,-602.99 1647.17,-602.99 1719.83,-602.99 1719.83,-602.99 1723.67,-602.99 1727.5,-606.83 1727.5,-610.66 1727.5,-610.66 1727.5,-618.33 1727.5,-618.33 1727.5,-622.16 1723.67,-625.99 1719.83,-625.99"/>
<text text-anchor="middle" x="1683.5" y="-610.79" font-family="Arial" font-size="14.00" fill="#cfffac">src/music.js</text>
</g>
<!-- app.js&#45;&gt;src/music.js -->
<g id="edge2" class="edge">
<title>app.js&#45;&gt;src/music.js</title>
<path fill="none" stroke="#757575" d="M53.01,-608.34C95.99,-628.47 186.89,-670.02 266,-699.49 513.54,-791.72 591.83,-771.49 856,-771.49 856,-771.49 856,-771.49 1302,-771.49 1437.84,-771.49 1486.93,-789.05 1603,-718.49 1635.5,-698.73 1659.49,-660.36 1672.2,-636.15"/>
<polygon fill="#757575" stroke="#757575" points="1675.18,-638.01 1676.55,-627.5 1668.93,-634.86 1675.18,-638.01"/>
</g>
<!-- src/gameManager.js&#45;&gt;src/music.js -->
<g id="edge14" class="edge">
<title>src/gameManager.js&#45;&gt;src/music.js</title>
<path fill="none" stroke="#757575" d="M164.83,-490.16C175.63,-521.28 209.26,-607.01 266,-653.49 347.94,-720.62 384.58,-733.49 490.5,-733.49 490.5,-733.49 490.5,-733.49 1302,-733.49 1438.07,-733.49 1479.15,-733.85 1603,-677.49 1626.05,-667.01 1648.28,-648.43 1663.35,-634.15"/>
<polygon fill="#757575" stroke="#757575" points="1665.56,-636.89 1670.26,-627.4 1660.66,-631.88 1665.56,-636.89"/>
</g>
<!-- src/Boss.js -->
<g id="node4" class="node">
<title>src/Boss.js</title>
<path fill="none" stroke="#c6c5fe" d="M684.33,-625.99C684.33,-625.99 617.67,-625.99 617.67,-625.99 613.83,-625.99 610,-622.16 610,-618.33 610,-618.33 610,-610.66 610,-610.66 610,-606.83 613.83,-602.99 617.67,-602.99 617.67,-602.99 684.33,-602.99 684.33,-602.99 688.17,-602.99 692,-606.83 692,-610.66 692,-610.66 692,-618.33 692,-618.33 692,-622.16 688.17,-625.99 684.33,-625.99"/>
<text text-anchor="middle" x="651" y="-610.79" font-family="Arial" font-size="14.00" fill="#c6c5fe">src/Boss.js</text>
</g>
<!-- src/gameManager.js&#45;&gt;src/Boss.js -->
<g id="edge8" class="edge">
<title>src/gameManager.js&#45;&gt;src/Boss.js</title>
<path fill="none" stroke="#757575" d="M167.88,-490.17C182.49,-513.72 219.14,-566.54 266,-588.49 375.35,-639.72 521.68,-631.58 598.28,-622.36"/>
<polygon fill="#757575" stroke="#757575" points="598.53,-625.86 608.01,-621.13 597.65,-618.91 598.53,-625.86"/>
</g>
<!-- src/enemy.js -->
<g id="node5" class="node">
<title>src/enemy.js</title>
<path fill="none" stroke="#c6c5fe" d="M895.33,-586.99C895.33,-586.99 818.67,-586.99 818.67,-586.99 814.83,-586.99 811,-583.16 811,-579.33 811,-579.33 811,-571.66 811,-571.66 811,-567.83 814.83,-563.99 818.67,-563.99 818.67,-563.99 895.33,-563.99 895.33,-563.99 899.17,-563.99 903,-567.83 903,-571.66 903,-571.66 903,-579.33 903,-579.33 903,-583.16 899.17,-586.99 895.33,-586.99"/>
<text text-anchor="middle" x="857" y="-571.79" font-family="Arial" font-size="14.00" fill="#c6c5fe">src/enemy.js</text>
</g>
<!-- src/gameManager.js&#45;&gt;src/enemy.js -->
<g id="edge11" class="edge">
<title>src/gameManager.js&#45;&gt;src/enemy.js</title>
<path fill="none" stroke="#757575" d="M193.76,-490.39C240.71,-506.86 330.19,-536.09 409,-549.49 547.7,-573.08 713.7,-576.31 799.08,-576.18"/>
<polygon fill="#757575" stroke="#757575" points="799.08,-579.68 809.07,-576.15 799.05,-572.68 799.08,-579.68"/>
</g>
<!-- src/ammo.js -->
<g id="node7" class="node">
<title>src/ammo.js</title>
<path fill="none" stroke="#c6c5fe" d="M894.83,-62.99C894.83,-62.99 819.17,-62.99 819.17,-62.99 815.33,-62.99 811.5,-59.16 811.5,-55.33 811.5,-55.33 811.5,-47.66 811.5,-47.66 811.5,-43.83 815.33,-39.99 819.17,-39.99 819.17,-39.99 894.83,-39.99 894.83,-39.99 898.67,-39.99 902.5,-43.83 902.5,-47.66 902.5,-47.66 902.5,-55.33 902.5,-55.33 902.5,-59.16 898.67,-62.99 894.83,-62.99"/>
<text text-anchor="middle" x="857" y="-47.79" font-family="Arial" font-size="14.00" fill="#c6c5fe">src/ammo.js</text>
</g>
<!-- src/gameManager.js&#45;&gt;src/ammo.js -->
<g id="edge9" class="edge">
<title>src/gameManager.js&#45;&gt;src/ammo.js</title>
<path fill="none" stroke="#757575" d="M162.25,-466.6C168.9,-405.63 202.32,-128.93 266,-77.49 346.72,-12.3 668.58,-33.94 799.84,-45.86"/>
<polygon fill="#757575" stroke="#757575" points="799.4,-49.33 809.68,-46.77 800.05,-42.36 799.4,-49.33"/>
</g>
<!-- src/rocket.js -->
<g id="node8" class="node">
<title>src/rocket.js</title>
<path fill="none" stroke="#c6c5fe" d="M1720.33,-277.99C1720.33,-277.99 1646.67,-277.99 1646.67,-277.99 1642.83,-277.99 1639,-274.16 1639,-270.33 1639,-270.33 1639,-262.66 1639,-262.66 1639,-258.83 1642.83,-254.99 1646.67,-254.99 1646.67,-254.99 1720.33,-254.99 1720.33,-254.99 1724.17,-254.99 1728,-258.83 1728,-262.66 1728,-262.66 1728,-270.33 1728,-270.33 1728,-274.16 1724.17,-277.99 1720.33,-277.99"/>
<text text-anchor="middle" x="1683.5" y="-262.79" font-family="Arial" font-size="14.00" fill="#c6c5fe">src/rocket.js</text>
</g>
<!-- src/gameManager.js&#45;&gt;src/rocket.js -->
<g id="edge17" class="edge">
<title>src/gameManager.js&#45;&gt;src/rocket.js</title>
<path fill="none" stroke="#757575" d="M162.03,-466.87C167.88,-403.4 199.14,-99.33 266,-39.49 340.92,27.57 389.95,-11.49 490.5,-11.49 490.5,-11.49 490.5,-11.49 1302,-11.49 1438.68,-11.49 1497.79,12.75 1603,-74.49 1655.74,-118.22 1673.98,-202.73 1679.89,-243.45"/>
<polygon fill="#757575" stroke="#757575" points="1676.41,-243.84 1681.17,-253.31 1683.35,-242.94 1676.41,-243.84"/>
</g>
<!-- src/background.js -->
<g id="node9" class="node">
<title>src/background.js</title>
<path fill="none" stroke="#cfffac" d="M910.33,-142.99C910.33,-142.99 803.67,-142.99 803.67,-142.99 799.83,-142.99 796,-139.16 796,-135.33 796,-135.33 796,-127.66 796,-127.66 796,-123.83 799.83,-119.99 803.67,-119.99 803.67,-119.99 910.33,-119.99 910.33,-119.99 914.17,-119.99 918,-123.83 918,-127.66 918,-127.66 918,-135.33 918,-135.33 918,-139.16 914.17,-142.99 910.33,-142.99"/>
<text text-anchor="middle" x="857" y="-127.79" font-family="Arial" font-size="14.00" fill="#cfffac">src/background.js</text>
</g>
<!-- src/gameManager.js&#45;&gt;src/background.js -->
<g id="edge10" class="edge">
<title>src/gameManager.js&#45;&gt;src/background.js</title>
<path fill="none" stroke="#757575" d="M172.4,-466.54C220.13,-417.44 410.64,-230.34 610,-157.49 666.13,-136.98 733.93,-131.09 784.12,-129.98"/>
<polygon fill="#757575" stroke="#757575" points="784.06,-133.48 794.01,-129.83 783.95,-126.48 784.06,-133.48"/>
</g>
<!-- src/keyboard.js -->
<g id="node10" class="node">
<title>src/keyboard.js</title>
<path fill="none" stroke="#c6c5fe" d="M365.33,-460.99C365.33,-460.99 273.67,-460.99 273.67,-460.99 269.83,-460.99 266,-457.16 266,-453.33 266,-453.33 266,-445.66 266,-445.66 266,-441.83 269.83,-437.99 273.67,-437.99 273.67,-437.99 365.33,-437.99 365.33,-437.99 369.17,-437.99 373,-441.83 373,-445.66 373,-445.66 373,-453.33 373,-453.33 373,-457.16 369.17,-460.99 365.33,-460.99"/>
<text text-anchor="middle" x="319.5" y="-445.79" font-family="Arial" font-size="14.00" fill="#c6c5fe">src/keyboard.js</text>
</g>
<!-- src/gameManager.js&#45;&gt;src/keyboard.js -->
<g id="edge12" class="edge">
<title>src/gameManager.js&#45;&gt;src/keyboard.js</title>
<path fill="none" stroke="#757575" d="M225.97,-466.53C235.37,-464.8 245.04,-463.02 254.42,-461.29"/>
<polygon fill="#757575" stroke="#757575" points="254.99,-464.75 264.19,-459.49 253.72,-457.86 254.99,-464.75"/>
</g>
<!-- src/levelCompleteScreen.js -->
<g id="node11" class="node">
<title>src/levelCompleteScreen.js</title>
<path fill="none" stroke="#cfffac" d="M939.83,-666.99C939.83,-666.99 774.17,-666.99 774.17,-666.99 770.33,-666.99 766.5,-663.16 766.5,-659.33 766.5,-659.33 766.5,-651.66 766.5,-651.66 766.5,-647.83 770.33,-643.99 774.17,-643.99 774.17,-643.99 939.83,-643.99 939.83,-643.99 943.67,-643.99 947.5,-647.83 947.5,-651.66 947.5,-651.66 947.5,-659.33 947.5,-659.33 947.5,-663.16 943.67,-666.99 939.83,-666.99"/>
<text text-anchor="middle" x="857" y="-651.79" font-family="Arial" font-size="14.00" fill="#cfffac">src/levelCompleteScreen.js</text>
</g>
<!-- src/gameManager.js&#45;&gt;src/levelCompleteScreen.js -->
<g id="edge13" class="edge">
<title>src/gameManager.js&#45;&gt;src/levelCompleteScreen.js</title>
<path fill="none" stroke="#757575" d="M166.06,-490.23C178.54,-517.66 213.65,-586 266,-617.49 432.4,-717.61 675.11,-690.5 790.44,-669.53"/>
<polygon fill="#757575" stroke="#757575" points="790.85,-673.02 800.04,-667.74 789.57,-666.13 790.85,-673.02"/>
</g>
<!-- src/player/airfighter.js -->
<g id="node12" class="node">
<title>src/player/airfighter.js</title>
<path fill="none" stroke="#c6c5fe" d="M1365.33,-336.99C1365.33,-336.99 1236.67,-336.99 1236.67,-336.99 1232.83,-336.99 1229,-333.16 1229,-329.33 1229,-329.33 1229,-321.66 1229,-321.66 1229,-317.83 1232.83,-313.99 1236.67,-313.99 1236.67,-313.99 1365.33,-313.99 1365.33,-313.99 1369.17,-313.99 1373,-317.83 1373,-321.66 1373,-321.66 1373,-329.33 1373,-329.33 1373,-333.16 1369.17,-336.99 1365.33,-336.99"/>
<text text-anchor="middle" x="1301" y="-321.79" font-family="Arial" font-size="14.00" fill="#c6c5fe">src/player/airfighter.js</text>
</g>
<!-- src/gameManager.js&#45;&gt;src/player/airfighter.js -->
<g id="edge15" class="edge">
<title>src/gameManager.js&#45;&gt;src/player/airfighter.js</title>
<path fill="none" stroke="#757575" d="M164.35,-466.91C183.76,-402.52 287.99,-91.49 490.5,-91.49 490.5,-91.49 490.5,-91.49 858,-91.49 915.58,-91.49 932.46,-90.32 986,-111.49 1108.47,-159.93 1230.88,-262.96 1278.85,-305.98"/>
<polygon fill="#757575" stroke="#757575" points="1276.29,-308.39 1286.05,-312.51 1280.99,-303.2 1276.29,-308.39"/>
</g>
<!-- src/rendering/Helpers.js -->
<g id="node13" class="node">
<title>src/rendering/Helpers.js</title>
<path fill="none" stroke="#cfffac" d="M1915.33,-509.99C1915.33,-509.99 1771.67,-509.99 1771.67,-509.99 1767.83,-509.99 1764,-506.16 1764,-502.33 1764,-502.33 1764,-494.66 1764,-494.66 1764,-490.83 1767.83,-486.99 1771.67,-486.99 1771.67,-486.99 1915.33,-486.99 1915.33,-486.99 1919.17,-486.99 1923,-490.83 1923,-494.66 1923,-494.66 1923,-502.33 1923,-502.33 1923,-506.16 1919.17,-509.99 1915.33,-509.99"/>
<text text-anchor="middle" x="1843.5" y="-494.79" font-family="Arial" font-size="14.00" fill="#cfffac">src/rendering/Helpers.js</text>
</g>
<!-- src/gameManager.js&#45;&gt;src/rendering/Helpers.js -->
<g id="edge16" class="edge">
<title>src/gameManager.js&#45;&gt;src/rendering/Helpers.js</title>
<path fill="none" stroke="#757575" d="M166.79,-490.32C178.74,-514.77 206.94,-572.63 230,-621.49 246.3,-656.02 237.34,-674.27 266,-699.49 366.36,-787.81 668.85,-809.49 856,-809.49 856,-809.49 856,-809.49 1507,-809.49 1677.38,-809.49 1797.8,-591.1 1832.35,-520.34"/>
<polygon fill="#757575" stroke="#757575" points="1835.34,-522.2 1836.5,-511.67 1829.03,-519.18 1835.34,-522.2"/>
</g>
<!-- src/step.js -->
<g id="node14" class="node">
<title>src/step.js</title>
<path fill="none" stroke="#c6c5fe" d="M681.83,-412.99C681.83,-412.99 620.17,-412.99 620.17,-412.99 616.33,-412.99 612.5,-409.16 612.5,-405.33 612.5,-405.33 612.5,-397.66 612.5,-397.66 612.5,-393.83 616.33,-389.99 620.17,-389.99 620.17,-389.99 681.83,-389.99 681.83,-389.99 685.67,-389.99 689.5,-393.83 689.5,-397.66 689.5,-397.66 689.5,-405.33 689.5,-405.33 689.5,-409.16 685.67,-412.99 681.83,-412.99"/>
<text text-anchor="middle" x="651" y="-397.79" font-family="Arial" font-size="14.00" fill="#c6c5fe">src/step.js</text>
</g>
<!-- src/gameManager.js&#45;&gt;src/step.js -->
<g id="edge18" class="edge">
<title>src/gameManager.js&#45;&gt;src/step.js</title>
<path fill="none" stroke="#757575" d="M183.9,-466.52C204.88,-455.87 236.98,-440.35 266,-429.49 395.34,-381.11 436.4,-376.81 574,-388.49 582.82,-389.24 592.15,-390.47 601.14,-391.88"/>
<polygon fill="#757575" stroke="#757575" points="600.34,-395.3 610.78,-393.49 601.5,-388.39 600.34,-395.3"/>
</g>
<!-- src/Boss.js&#45;&gt;src/enemy.js -->
<g id="edge3" class="edge">
<title>src/Boss.js&#45;&gt;src/enemy.js</title>
<path fill="none" stroke="#757575" d="M692.3,-606.79C722.98,-600.92 765.57,-592.78 799.62,-586.27"/>
<polygon fill="#757575" stroke="#757575" points="800.16,-589.73 809.32,-584.42 798.84,-582.86 800.16,-589.73"/>
</g>
<!-- src/gatling.js -->
<g id="node6" class="node">
<title>src/gatling.js</title>
<path fill="none" stroke="#c6c5fe" d="M1145.83,-644.99C1145.83,-644.99 1069.17,-644.99 1069.17,-644.99 1065.33,-644.99 1061.5,-641.16 1061.5,-637.33 1061.5,-637.33 1061.5,-629.66 1061.5,-629.66 1061.5,-625.83 1065.33,-621.99 1069.17,-621.99 1069.17,-621.99 1145.83,-621.99 1145.83,-621.99 1149.67,-621.99 1153.5,-625.83 1153.5,-629.66 1153.5,-629.66 1153.5,-637.33 1153.5,-637.33 1153.5,-641.16 1149.67,-644.99 1145.83,-644.99"/>
<text text-anchor="middle" x="1107.5" y="-629.79" font-family="Arial" font-size="14.00" fill="#c6c5fe">src/gatling.js</text>
</g>
<!-- src/Boss.js&#45;&gt;src/gatling.js -->
<g id="edge4" class="edge">
<title>src/Boss.js&#45;&gt;src/gatling.js</title>
<path fill="none" stroke="#757575" d="M692.33,-616.18C773.48,-619.57 956.66,-627.23 1049.81,-631.12"/>
<polygon fill="#757575" stroke="#757575" points="1049.6,-634.62 1059.74,-631.54 1049.89,-627.62 1049.6,-634.62"/>
</g>
<!-- src/enemy.js&#45;&gt;src/gatling.js -->
<g id="edge7" class="edge">
<title>src/enemy.js&#45;&gt;src/gatling.js</title>
<path fill="none" stroke="#757575" d="M903.46,-584.05C927.98,-588.83 958.73,-595.11 986,-601.49 1008.06,-606.66 1032.23,-612.95 1053.09,-618.58"/>
<polygon fill="#757575" stroke="#757575" points="1051.96,-621.9 1062.53,-621.15 1053.8,-615.15 1051.96,-621.9"/>
</g>
<!-- src/gatling.js&#45;&gt;src/music.js -->
<g id="edge20" class="edge">
<title>src/gatling.js&#45;&gt;src/music.js</title>
<path fill="none" stroke="#757575" d="M1153.54,-632C1257.68,-628.55 1514.85,-620.04 1627.8,-616.3"/>
<polygon fill="#757575" stroke="#757575" points="1627.85,-619.8 1637.73,-615.97 1627.62,-612.81 1627.85,-619.8"/>
</g>
<!-- src/gatling.js&#45;&gt;src/player/airfighter.js -->
<g id="edge21" class="edge">
<title>src/gatling.js&#45;&gt;src/player/airfighter.js</title>
<path fill="none" stroke="#757575" d="M1115.77,-621.79C1144.39,-575.77 1249.48,-406.75 1286.77,-346.78"/>
<polygon fill="#757575" stroke="#757575" points="1289.61,-348.83 1291.92,-338.49 1283.67,-345.13 1289.61,-348.83"/>
</g>
<!-- src/ammo.js&#45;&gt;src/gatling.js -->
<g id="edge5" class="edge">
<title>src/ammo.js&#45;&gt;src/gatling.js</title>
<path fill="none" stroke="#757575" d="M902.95,-60.66C931.5,-68.94 966.6,-84.18 986,-111.49 1031.15,-175.06 1000.56,-385.53 1022,-460.49 1038.52,-518.24 1073.48,-580.15 1092.85,-611.93"/>
<polygon fill="#757575" stroke="#757575" points="1089.74,-613.56 1097.98,-620.22 1095.69,-609.87 1089.74,-613.56"/>
</g>
<!-- src/ammo.js&#45;&gt;src/rocket.js -->
<g id="edge6" class="edge">
<title>src/ammo.js&#45;&gt;src/rocket.js</title>
<path fill="none" stroke="#757575" d="M902.57,-45.89C1025.21,-32.81 1373.74,-11.62 1603,-157.49 1636.25,-178.65 1660.13,-219.07 1672.6,-244.3"/>
<polygon fill="#757575" stroke="#757575" points="1669.43,-245.79 1676.87,-253.33 1675.76,-242.8 1669.43,-245.79"/>
</g>
<!-- src/rocket.js&#45;&gt;src/rendering/Helpers.js -->
<g id="edge39" class="edge">
<title>src/rocket.js&#45;&gt;src/rendering/Helpers.js</title>
<path fill="none" stroke="#757575" d="M1692.55,-278.32C1717.8,-315.39 1795.67,-429.73 1828.1,-477.35"/>
<polygon fill="#757575" stroke="#757575" points="1825.09,-479.15 1833.61,-485.44 1830.88,-475.21 1825.09,-479.15"/>
</g>
<!-- src/keyboard.js&#45;&gt;src/music.js -->
<g id="edge24" class="edge">
<title>src/keyboard.js&#45;&gt;src/music.js</title>
<path fill="none" stroke="#757575" d="M336.04,-461.38C378.15,-493.17 498.8,-581.4 610,-635.49 809.88,-732.72 884.23,-695.49 1106.5,-695.49 1106.5,-695.49 1106.5,-695.49 1302,-695.49 1426.37,-695.49 1568.7,-653.58 1638.8,-630.05"/>
<polygon fill="#757575" stroke="#757575" points="1639.64,-633.46 1647.98,-626.93 1637.38,-626.84 1639.64,-633.46"/>
</g>
<!-- src/keyboard.js&#45;&gt;src/gatling.js -->
<g id="edge23" class="edge">
<title>src/keyboard.js&#45;&gt;src/gatling.js</title>
<path fill="none" stroke="#757575" d="M367.64,-461.48C380.96,-464.65 395.51,-467.9 409,-470.49 440.82,-476.6 958.47,-538.4 986,-555.49 1009.88,-570.32 999.32,-590.89 1022,-607.49 1030.46,-613.68 1040.42,-618.42 1050.48,-622.04"/>
<polygon fill="#757575" stroke="#757575" points="1049.33,-625.35 1059.92,-625.08 1051.48,-618.69 1049.33,-625.35"/>
</g>
<!-- src/keyboard.js&#45;&gt;src/rocket.js -->
<g id="edge26" class="edge">
<title>src/keyboard.js&#45;&gt;src/rocket.js</title>
<path fill="none" stroke="#757575" d="M325.81,-437.84C337.44,-413.6 367.44,-357.46 409,-326.49 577.6,-200.85 645.73,-171.49 856,-171.49 856,-171.49 856,-171.49 1302,-171.49 1430.67,-171.49 1576.72,-223.26 1644.37,-250.37"/>
<polygon fill="#757575" stroke="#757575" points="1642.94,-253.56 1653.53,-254.08 1645.58,-247.08 1642.94,-253.56"/>
</g>
<!-- src/keyboard.js&#45;&gt;src/player/airfighter.js -->
<g id="edge25" class="edge">
<title>src/keyboard.js&#45;&gt;src/player/airfighter.js</title>
<path fill="none" stroke="#757575" d="M334.21,-437.53C350.8,-423.67 380.11,-401.14 409,-388.49 660.48,-278.37 747.48,-314.36 1022,-312.49 1098,-311.98 1117.14,-307.9 1193,-312.49 1200.96,-312.97 1209.24,-313.66 1217.51,-314.46"/>
<polygon fill="#757575" stroke="#757575" points="1216.93,-317.92 1227.23,-315.46 1217.65,-310.95 1216.93,-317.92"/>
</g>
<!-- src/gameMenuActions.js -->
<g id="node15" class="node">
<title>src/gameMenuActions.js</title>
<path fill="none" stroke="#c6c5fe" d="M566.33,-460.99C566.33,-460.99 416.67,-460.99 416.67,-460.99 412.83,-460.99 409,-457.16 409,-453.33 409,-453.33 409,-445.66 409,-445.66 409,-441.83 412.83,-437.99 416.67,-437.99 416.67,-437.99 566.33,-437.99 566.33,-437.99 570.17,-437.99 574,-441.83 574,-445.66 574,-445.66 574,-453.33 574,-453.33 574,-457.16 570.17,-460.99 566.33,-460.99"/>
<text text-anchor="middle" x="491.5" y="-445.79" font-family="Arial" font-size="14.00" fill="#c6c5fe">src/gameMenuActions.js</text>
</g>
<!-- src/keyboard.js&#45;&gt;src/gameMenuActions.js -->
<g id="edge22" class="edge">
<title>src/keyboard.js&#45;&gt;src/gameMenuActions.js</title>
<path fill="none" stroke="#757575" d="M373.36,-449.49C381.06,-449.49 389.18,-449.49 397.4,-449.49"/>
<polygon fill="#757575" stroke="#757575" points="397.14,-452.99 407.14,-449.49 397.14,-445.99 397.14,-452.99"/>
</g>
<!-- src/touch.js -->
<g id="node16" class="node">
<title>src/touch.js</title>
<path fill="none" stroke="#cfffac" d="M526.33,-419.99C526.33,-419.99 456.67,-419.99 456.67,-419.99 452.83,-419.99 449,-416.16 449,-412.33 449,-412.33 449,-404.66 449,-404.66 449,-400.83 452.83,-396.99 456.67,-396.99 456.67,-396.99 526.33,-396.99 526.33,-396.99 530.17,-396.99 534,-400.83 534,-404.66 534,-404.66 534,-412.33 534,-412.33 534,-416.16 530.17,-419.99 526.33,-419.99"/>
<text text-anchor="middle" x="491.5" y="-404.79" font-family="Arial" font-size="14.00" fill="#cfffac">src/touch.js</text>
</g>
<!-- src/keyboard.js&#45;&gt;src/touch.js -->
<g id="edge27" class="edge">
<title>src/keyboard.js&#45;&gt;src/touch.js</title>
<path fill="none" stroke="#757575" d="M370.13,-437.52C391.33,-432.41 416.1,-426.44 437.64,-421.24"/>
<polygon fill="#757575" stroke="#757575" points="438.2,-424.71 447.1,-418.96 436.56,-417.9 438.2,-424.71"/>
</g>
<!-- src/player/airfighter.js&#45;&gt;src/music.js -->
<g id="edge28" class="edge">
<title>src/player/airfighter.js&#45;&gt;src/music.js</title>
<path fill="none" stroke="#757575" d="M1330.26,-337.37C1386.76,-362.1 1515.71,-423.52 1603,-503.49 1631.95,-530.01 1656.72,-568.68 1670.6,-592.68"/>
<polygon fill="#757575" stroke="#757575" points="1667.48,-594.27 1675.44,-601.26 1673.57,-590.83 1667.48,-594.27"/>
</g>
<!-- src/player/airfighter.js&#45;&gt;src/rocket.js -->
<g id="edge30" class="edge">
<title>src/player/airfighter.js&#45;&gt;src/rocket.js</title>
<path fill="none" stroke="#757575" d="M1363.59,-313.51C1378.44,-310.75 1394.27,-307.92 1409,-305.49 1484.55,-293.05 1572.24,-280.96 1627.54,-273.62"/>
<polygon fill="#757575" stroke="#757575" points="1627.88,-277.11 1637.33,-272.33 1626.96,-270.17 1627.88,-277.11"/>
</g>
<!-- src/player/playerMovement.js -->
<g id="node17" class="node">
<title>src/player/playerMovement.js</title>
<path fill="none" stroke="#c6c5fe" d="M1595.33,-336.99C1595.33,-336.99 1416.67,-336.99 1416.67,-336.99 1412.83,-336.99 1409,-333.16 1409,-329.33 1409,-329.33 1409,-321.66 1409,-321.66 1409,-317.83 1412.83,-313.99 1416.67,-313.99 1416.67,-313.99 1595.33,-313.99 1595.33,-313.99 1599.17,-313.99 1603,-317.83 1603,-321.66 1603,-321.66 1603,-329.33 1603,-329.33 1603,-333.16 1599.17,-336.99 1595.33,-336.99"/>
<text text-anchor="middle" x="1506" y="-321.79" font-family="Arial" font-size="14.00" fill="#c6c5fe">src/player/playerMovement.js</text>
</g>
<!-- src/player/airfighter.js&#45;&gt;src/player/playerMovement.js -->
<g id="edge29" class="edge">
<title>src/player/airfighter.js&#45;&gt;src/player/playerMovement.js</title>
<path fill="none" stroke="#757575" d="M1373.28,-325.49C1381.05,-325.49 1389.07,-325.49 1397.15,-325.49"/>
<polygon fill="#757575" stroke="#757575" points="1397.07,-328.99 1407.07,-325.49 1397.07,-321.99 1397.07,-328.99"/>
</g>
<!-- src/step.js&#45;&gt;src/music.js -->
<g id="edge44" class="edge">
<title>src/step.js&#45;&gt;src/music.js</title>
<path fill="none" stroke="#757575" d="M674.33,-413.44C689.15,-420.88 709.26,-430.04 728,-435.49 839.28,-467.91 895.81,-400.69 986,-473.49 1021.46,-502.11 985.45,-542.28 1022,-569.49 1046.15,-587.47 1473.28,-606.17 1627.52,-612.36"/>
<polygon fill="#757575" stroke="#757575" points="1627.36,-615.86 1637.5,-612.76 1627.64,-608.86 1627.36,-615.86"/>
</g>
<!-- src/step.js&#45;&gt;src/enemy.js -->
<g id="edge41" class="edge">
<title>src/step.js&#45;&gt;src/enemy.js</title>
<path fill="none" stroke="#757575" d="M657.56,-413.2C668.42,-435.01 694.35,-482.28 728,-511.49 752.24,-532.54 784.62,-548.64 810.74,-559.43"/>
<polygon fill="#757575" stroke="#757575" points="809.15,-562.57 819.74,-563.03 811.75,-556.07 809.15,-562.57"/>
</g>
<!-- src/step.js&#45;&gt;src/gatling.js -->
<g id="edge42" class="edge">
<title>src/step.js&#45;&gt;src/gatling.js</title>
<path fill="none" stroke="#757575" d="M660.84,-413.38C673.69,-429.73 699.17,-458.81 728,-473.49 831.93,-526.44 895.25,-448.23 986,-521.49 1018.24,-547.52 991.3,-579.66 1022,-607.49 1030.02,-614.76 1040.03,-620 1050.33,-623.77"/>
<polygon fill="#757575" stroke="#757575" points="1049.06,-627.04 1059.65,-626.74 1051.18,-620.37 1049.06,-627.04"/>
</g>
<!-- src/step.js&#45;&gt;src/rocket.js -->
<g id="edge49" class="edge">
<title>src/step.js&#45;&gt;src/rocket.js</title>
<path fill="none" stroke="#757575" d="M658.55,-389.69C674.92,-360.38 717.09,-286.17 728,-279.49 872.01,-191.39 937.68,-247.49 1106.5,-247.49 1106.5,-247.49 1106.5,-247.49 1302,-247.49 1417.83,-247.49 1553.26,-256.38 1627.26,-262"/>
<polygon fill="#757575" stroke="#757575" points="1626.84,-265.48 1637.08,-262.76 1627.38,-258.5 1626.84,-265.48"/>
</g>
<!-- src/step.js&#45;&gt;src/background.js -->
<g id="edge40" class="edge">
<title>src/step.js&#45;&gt;src/background.js</title>
<path fill="none" stroke="#757575" d="M655.17,-389.89C663.44,-361.11 687.89,-285.03 728,-233.49 755.63,-197.99 798.05,-167.39 826.39,-149.2"/>
<polygon fill="#757575" stroke="#757575" points="827.89,-152.39 834.5,-144.1 824.17,-146.46 827.89,-152.39"/>
</g>
<!-- src/step.js&#45;&gt;src/levelCompleteScreen.js -->
<g id="edge43" class="edge">
<title>src/step.js&#45;&gt;src/levelCompleteScreen.js</title>
<path fill="none" stroke="#757575" d="M653.48,-413.21C658.23,-446.22 675.95,-541.2 728,-596.49 746.99,-616.67 774.23,-630.54 798.7,-639.73"/>
<polygon fill="#757575" stroke="#757575" points="797.33,-642.96 807.92,-643.01 799.67,-636.36 797.33,-642.96"/>
</g>
<!-- src/step.js&#45;&gt;src/player/airfighter.js -->
<g id="edge45" class="edge">
<title>src/step.js&#45;&gt;src/player/airfighter.js</title>
<path fill="none" stroke="#757575" d="M669.55,-389.62C684.42,-380.23 706.67,-367.7 728,-361.49 896.58,-312.47 1104.5,-313.92 1217.45,-319.56"/>
<polygon fill="#757575" stroke="#757575" points="1217.06,-323.04 1227.23,-320.07 1217.43,-316.05 1217.06,-323.04"/>
</g>
<!-- src/step.js&#45;&gt;src/rendering/Helpers.js -->
<g id="edge48" class="edge">
<title>src/step.js&#45;&gt;src/rendering/Helpers.js</title>
<path fill="none" stroke="#757575" d="M689.92,-403.16C772.44,-407.09 962.76,-417.97 986,-435.49 1020.4,-461.42 987.67,-499.46 1022,-525.49 1121.01,-600.59 1175.73,-555.49 1300,-555.49 1300,-555.49 1300,-555.49 1507,-555.49 1607.81,-555.49 1723.28,-530.17 1789.09,-513.28"/>
<polygon fill="#757575" stroke="#757575" points="1789.73,-516.73 1798.53,-510.82 1787.97,-509.95 1789.73,-516.73"/>
</g>
<!-- src/step.js&#45;&gt;src/player/playerMovement.js -->
<g id="edge46" class="edge">
<title>src/step.js&#45;&gt;src/player/playerMovement.js</title>
<path fill="none" stroke="#757575" d="M658.26,-389.67C669.32,-370.19 694.38,-331.98 728,-316.49 858.21,-256.52 1230.05,-294.72 1373,-305.49 1390.81,-306.83 1409.86,-309.18 1427.79,-311.81"/>
<polygon fill="#757575" stroke="#757575" points="1427.18,-315.25 1437.59,-313.29 1428.23,-308.33 1427.18,-315.25"/>
</g>
<!-- src/rendering/EnemyCollisionsChecks.js -->
<g id="node18" class="node">
<title>src/rendering/EnemyCollisionsChecks.js</title>
<path fill="none" stroke="#c6c5fe" d="M978.33,-392.99C978.33,-392.99 735.67,-392.99 735.67,-392.99 731.83,-392.99 728,-389.16 728,-385.33 728,-385.33 728,-377.66 728,-377.66 728,-373.83 731.83,-369.99 735.67,-369.99 735.67,-369.99 978.33,-369.99 978.33,-369.99 982.17,-369.99 986,-373.83 986,-377.66 986,-377.66 986,-385.33 986,-385.33 986,-389.16 982.17,-392.99 978.33,-392.99"/>
<text text-anchor="middle" x="857" y="-377.79" font-family="Arial" font-size="14.00" fill="#c6c5fe">src/rendering/EnemyCollisionsChecks.js</text>
</g>
<!-- src/step.js&#45;&gt;src/rendering/EnemyCollisionsChecks.js -->
<g id="edge47" class="edge">
<title>src/step.js&#45;&gt;src/rendering/EnemyCollisionsChecks.js</title>
<path fill="none" stroke="#757575" d="M689.89,-397.78C699.67,-396.82 710.77,-395.73 722.49,-394.58"/>
<polygon fill="#757575" stroke="#757575" points="722.77,-398.07 732.38,-393.61 722.09,-391.1 722.77,-398.07"/>
</g>
<!-- src/gameMenuActions.js&#45;&gt;src/step.js -->
<g id="edge19" class="edge">
<title>src/gameMenuActions.js&#45;&gt;src/step.js</title>
<path fill="none" stroke="#757575" d="M544.91,-437.55C554.63,-435.08 564.67,-432.35 574,-429.49 585.62,-425.94 598.05,-421.6 609.42,-417.4"/>
<polygon fill="#757575" stroke="#757575" points="610.39,-420.77 618.52,-413.98 607.93,-414.22 610.39,-420.77"/>
</g>
<!-- src/player/playerMovement.js&#45;&gt;src/music.js -->
<g id="edge31" class="edge">
<title>src/player/playerMovement.js&#45;&gt;src/music.js</title>
<path fill="none" stroke="#757575" d="M1515.67,-337.18C1533.09,-360.85 1573.18,-416.37 1603,-465.49 1629.71,-509.5 1657.18,-563.22 1671.8,-592.64"/>
<polygon fill="#757575" stroke="#757575" points="1668.51,-593.88 1676.08,-601.3 1674.78,-590.78 1668.51,-593.88"/>
</g>
<!-- src/player/playerMovement.js&#45;&gt;src/rocket.js -->
<g id="edge32" class="edge">
<title>src/player/playerMovement.js&#45;&gt;src/rocket.js</title>
<path fill="none" stroke="#757575" d="M1555.71,-313.6C1570.98,-309.53 1587.8,-304.68 1603,-299.49 1617.28,-294.62 1632.67,-288.45 1646.07,-282.77"/>
<polygon fill="#757575" stroke="#757575" points="1647.14,-286.12 1654.94,-278.96 1644.37,-279.69 1647.14,-286.12"/>
</g>
<!-- src/rendering/EnemyCollisionsChecks.js&#45;&gt;src/music.js -->
<g id="edge34" class="edge">
<title>src/rendering/EnemyCollisionsChecks.js&#45;&gt;src/music.js</title>
<path fill="none" stroke="#757575" d="M962.31,-393.36C970.85,-397.03 978.9,-401.67 986,-407.49 1018.03,-433.78 989.28,-468.07 1022,-493.49 1073.53,-533.54 1540.3,-561.41 1603,-579.49 1618.82,-584.06 1635.6,-591.09 1649.65,-597.66"/>
<polygon fill="#757575" stroke="#757575" points="1647.91,-600.71 1658.44,-601.89 1650.95,-594.4 1647.91,-600.71"/>
</g>
<!-- src/rendering/EnemyCollisionsChecks.js&#45;&gt;src/gatling.js -->
<g id="edge33" class="edge">
<title>src/rendering/EnemyCollisionsChecks.js&#45;&gt;src/gatling.js</title>
<path fill="none" stroke="#757575" d="M875.72,-393.42C901.56,-411.28 950.37,-446.8 986,-483.49 1004.58,-502.62 1005.49,-510.55 1022,-531.49 1044.62,-560.18 1071.7,-592.53 1089,-612.96"/>
<polygon fill="#757575" stroke="#757575" points="1086.3,-615.2 1095.44,-620.56 1091.64,-610.67 1086.3,-615.2"/>
</g>
<!-- src/rendering/EnemyCollisionsChecks.js&#45;&gt;src/rocket.js -->
<g id="edge38" class="edge">
<title>src/rendering/EnemyCollisionsChecks.js&#45;&gt;src/rocket.js</title>
<path fill="none" stroke="#757575" d="M922.59,-393.47C1056.36,-415.14 1370.59,-449.65 1603,-346.49 1631.04,-334.05 1654.54,-306.87 1668.55,-287.65"/>
<polygon fill="#757575" stroke="#757575" points="1671.26,-289.89 1674.12,-279.69 1665.52,-285.88 1671.26,-289.89"/>
</g>
<!-- src/rendering/EnemyCollisionsChecks.js&#45;&gt;src/player/airfighter.js -->
<g id="edge35" class="edge">
<title>src/rendering/EnemyCollisionsChecks.js&#45;&gt;src/player/airfighter.js</title>
<path fill="none" stroke="#757575" d="M952.55,-369.51C1031.31,-359.54 1142.35,-345.47 1217.54,-335.94"/>
<polygon fill="#757575" stroke="#757575" points="1217.85,-339.43 1227.33,-334.7 1216.97,-332.48 1217.85,-339.43"/>
</g>
<!-- src/rendering/EnemyCollisionsChecks.js&#45;&gt;src/rendering/Helpers.js -->
<g id="edge37" class="edge">
<title>src/rendering/EnemyCollisionsChecks.js&#45;&gt;src/rendering/Helpers.js</title>
<path fill="none" stroke="#757575" d="M957.23,-393.49C967.41,-397.07 977.22,-401.65 986,-407.49 1009.7,-423.27 997.15,-446.59 1022,-460.49 1084.37,-495.4 1552.27,-498.94 1752.27,-498.83"/>
<polygon fill="#757575" stroke="#757575" points="1752.1,-502.33 1762.1,-498.82 1752.1,-495.33 1752.1,-502.33"/>
</g>
<!-- src/rendering/Explosion.js -->
<g id="node19" class="node">
<title>src/rendering/Explosion.js</title>
<path fill="none" stroke="#cfffac" d="M1185.33,-450.99C1185.33,-450.99 1029.67,-450.99 1029.67,-450.99 1025.83,-450.99 1022,-447.16 1022,-443.33 1022,-443.33 1022,-435.66 1022,-435.66 1022,-431.83 1025.83,-427.99 1029.67,-427.99 1029.67,-427.99 1185.33,-427.99 1185.33,-427.99 1189.17,-427.99 1193,-431.83 1193,-435.66 1193,-435.66 1193,-443.33 1193,-443.33 1193,-447.16 1189.17,-450.99 1185.33,-450.99"/>
<text text-anchor="middle" x="1107.5" y="-435.79" font-family="Arial" font-size="14.00" fill="#cfffac">src/rendering/Explosion.js</text>
</g>
<!-- src/rendering/EnemyCollisionsChecks.js&#45;&gt;src/rendering/Explosion.js -->
<g id="edge36" class="edge">
<title>src/rendering/EnemyCollisionsChecks.js&#45;&gt;src/rendering/Explosion.js</title>
<path fill="none" stroke="#757575" d="M920.66,-393.45C941.51,-397.63 964.8,-402.53 986,-407.49 1008.06,-412.66 1032.23,-418.95 1053.09,-424.58"/>
<polygon fill="#757575" stroke="#757575" points="1051.96,-427.9 1062.53,-427.15 1053.8,-421.15 1051.96,-427.9"/>
</g>
</g>
</svg>
