<?xml version="1.0" encoding="UTF-8" standalone="no"?>
<!DOCTYPE svg PUBLIC "-//W3C//DTD SVG 1.1//EN"
 "http://www.w3.org/Graphics/SVG/1.1/DTD/svg11.dtd">
<!-- Generated by graphviz version 7.0.1 (20221109.1506)
 -->
<!-- Title: G Pages: 1 -->
<svg width="1696pt" height="785pt"
 viewBox="0.00 0.00 1696.20 785.45" xmlns="http://www.w3.org/2000/svg" xmlns:xlink="http://www.w3.org/1999/xlink">
<g id="graph0" class="graph" transform="scale(1 1) rotate(0) translate(21.6 763.85)">
<title>G</title>
<polygon fill="#111111" stroke="none" points="-21.6,21.6 -21.6,-763.85 1674.6,-763.85 1674.6,21.6 -21.6,21.6"/>
<!-- app.js -->
<g id="node1" class="node">
<title>app.js</title>
<path fill="none" stroke="#c6c5fe" d="M46.33,-268.75C46.33,-268.75 7.67,-268.75 7.67,-268.75 3.83,-268.75 0,-264.91 0,-261.08 0,-261.08 0,-253.41 0,-253.41 0,-249.58 3.83,-245.75 7.67,-245.75 7.67,-245.75 46.33,-245.75 46.33,-245.75 50.17,-245.75 54,-249.58 54,-253.41 54,-253.41 54,-261.08 54,-261.08 54,-264.91 50.17,-268.75 46.33,-268.75"/>
<text text-anchor="middle" x="27" y="-253.55" font-family="Arial" font-size="14.00" fill="#c6c5fe">app.js</text>
</g>
<!-- src/gameManager.js -->
<g id="node2" class="node">
<title>src/gameManager.js</title>
<path fill="none" stroke="#c6c5fe" d="M222.33,-524.75C222.33,-524.75 97.67,-524.75 97.67,-524.75 93.83,-524.75 90,-520.91 90,-517.08 90,-517.08 90,-509.41 90,-509.41 90,-505.58 93.83,-501.75 97.67,-501.75 97.67,-501.75 222.33,-501.75 222.33,-501.75 226.17,-501.75 230,-505.58 230,-509.41 230,-509.41 230,-517.08 230,-517.08 230,-520.91 226.17,-524.75 222.33,-524.75"/>
<text text-anchor="middle" x="160" y="-509.55" font-family="Arial" font-size="14.00" fill="#c6c5fe">src/gameManager.js</text>
</g>
<!-- app.js&#45;&gt;src/gameManager.js -->
<g id="edge1" class="edge">
<title>app.js&#45;&gt;src/gameManager.js</title>
<path fill="none" stroke="#757575" d="M33.97,-268.91C54.3,-308.64 121.07,-439.12 147.79,-491.35"/>
<polygon fill="#757575" stroke="#757575" points="144.64,-492.86 152.31,-500.16 150.87,-489.67 144.64,-492.86"/>
</g>
<!-- src/music.js -->
<g id="node3" class="node">
<title>src/music.js</title>
<path fill="none" stroke="#cfffac" d="M1449.83,-287.75C1449.83,-287.75 1377.17,-287.75 1377.17,-287.75 1373.33,-287.75 1369.5,-283.91 1369.5,-280.08 1369.5,-280.08 1369.5,-272.41 1369.5,-272.41 1369.5,-268.58 1373.33,-264.75 1377.17,-264.75 1377.17,-264.75 1449.83,-264.75 1449.83,-264.75 1453.67,-264.75 1457.5,-268.58 1457.5,-272.41 1457.5,-272.41 1457.5,-280.08 1457.5,-280.08 1457.5,-283.91 1453.67,-287.75 1449.83,-287.75"/>
<text text-anchor="middle" x="1413.5" y="-272.55" font-family="Arial" font-size="14.00" fill="#cfffac">src/music.js</text>
</g>
<!-- app.js&#45;&gt;src/music.js -->
<g id="edge2" class="edge">
<title>app.js&#45;&gt;src/music.js</title>
<path fill="none" stroke="#757575" d="M39.58,-245.63C71.97,-213.95 167.57,-125.95 266,-88.25 426.42,-26.8 478.22,-44.25 650,-44.25 650,-44.25 650,-44.25 1108.5,-44.25 1146.63,-44.25 1324.41,-108.71 1333,-116.25 1375.56,-153.57 1397.84,-218.98 1407.13,-253.47"/>
<polygon fill="#757575" stroke="#757575" points="1403.65,-253.99 1409.51,-262.82 1410.43,-252.27 1403.65,-253.99"/>
</g>
<!-- src/gameManager.js&#45;&gt;src/music.js -->
<g id="edge16" class="edge">
<title>src/gameManager.js&#45;&gt;src/music.js</title>
<path fill="none" stroke="#757575" d="M160.93,-501.39C161.28,-452.47 169.1,-264.02 266,-161.25 338.56,-84.28 384.72,-82.25 490.5,-82.25 490.5,-82.25 490.5,-82.25 1108.5,-82.25 1236.43,-82.25 1353.81,-205.84 1395.98,-255.73"/>
<polygon fill="#757575" stroke="#757575" points="1393.13,-257.78 1402.21,-263.24 1398.52,-253.31 1393.13,-257.78"/>
</g>
<!-- src/Boss.js -->
<g id="node4" class="node">
<title>src/Boss.js</title>
<path fill="none" stroke="#c6c5fe" d="M684.33,-601.75C684.33,-601.75 617.67,-601.75 617.67,-601.75 613.83,-601.75 610,-597.91 610,-594.08 610,-594.08 610,-586.41 610,-586.41 610,-582.58 613.83,-578.75 617.67,-578.75 617.67,-578.75 684.33,-578.75 684.33,-578.75 688.17,-578.75 692,-582.58 692,-586.41 692,-586.41 692,-594.08 692,-594.08 692,-597.91 688.17,-601.75 684.33,-601.75"/>
<text text-anchor="middle" x="651" y="-586.55" font-family="Arial" font-size="14.00" fill="#c6c5fe">src/Boss.js</text>
</g>
<!-- src/gameManager.js&#45;&gt;src/Boss.js -->
<g id="edge10" class="edge">
<title>src/gameManager.js&#45;&gt;src/Boss.js</title>
<path fill="none" stroke="#757575" d="M179.45,-525.21C199.75,-537.68 233.78,-556.59 266,-565.25 381.6,-596.3 523.48,-596.13 598.23,-593.23"/>
<polygon fill="#757575" stroke="#757575" points="598.28,-596.73 608.12,-592.81 597.98,-589.74 598.28,-596.73"/>
</g>
<!-- src/enemy.js -->
<g id="node5" class="node">
<title>src/enemy.js</title>
<path fill="none" stroke="#c6c5fe" d="M895.33,-557.75C895.33,-557.75 818.67,-557.75 818.67,-557.75 814.83,-557.75 811,-553.91 811,-550.08 811,-550.08 811,-542.41 811,-542.41 811,-538.58 814.83,-534.75 818.67,-534.75 818.67,-534.75 895.33,-534.75 895.33,-534.75 899.17,-534.75 903,-538.58 903,-542.41 903,-542.41 903,-550.08 903,-550.08 903,-553.91 899.17,-557.75 895.33,-557.75"/>
<text text-anchor="middle" x="857" y="-542.55" font-family="Arial" font-size="14.00" fill="#c6c5fe">src/enemy.js</text>
</g>
<!-- src/gameManager.js&#45;&gt;src/enemy.js -->
<g id="edge14" class="edge">
<title>src/gameManager.js&#45;&gt;src/enemy.js</title>
<path fill="none" stroke="#757575" d="M230.18,-516.53C367.69,-523.06 672.99,-537.56 799.45,-543.56"/>
<polygon fill="#757575" stroke="#757575" points="799.09,-547.05 809.25,-544.03 799.42,-540.06 799.09,-547.05"/>
</g>
<!-- src/airfighter.js -->
<g id="node7" class="node">
<title>src/airfighter.js</title>
<path fill="none" stroke="#c6c5fe" d="M1325.33,-479.75C1325.33,-479.75 1236.67,-479.75 1236.67,-479.75 1232.83,-479.75 1229,-475.91 1229,-472.08 1229,-472.08 1229,-464.41 1229,-464.41 1229,-460.58 1232.83,-456.75 1236.67,-456.75 1236.67,-456.75 1325.33,-456.75 1325.33,-456.75 1329.17,-456.75 1333,-460.58 1333,-464.41 1333,-464.41 1333,-472.08 1333,-472.08 1333,-475.91 1329.17,-479.75 1325.33,-479.75"/>
<text text-anchor="middle" x="1281" y="-464.55" font-family="Arial" font-size="14.00" fill="#c6c5fe">src/airfighter.js</text>
</g>
<!-- src/gameManager.js&#45;&gt;src/airfighter.js -->
<g id="edge11" class="edge">
<title>src/gameManager.js&#45;&gt;src/airfighter.js</title>
<path fill="none" stroke="#757575" d="M169.81,-525.2C186.39,-546.92 224.32,-593.15 266,-620.25 355.32,-678.31 383.97,-704.25 490.5,-704.25 490.5,-704.25 490.5,-704.25 858,-704.25 1013.13,-704.25 1072.8,-704.31 1193,-606.25 1231.92,-574.49 1258.67,-520.51 1271.43,-490.33"/>
<polygon fill="#757575" stroke="#757575" points="1274.52,-492.01 1275.06,-481.43 1268.04,-489.37 1274.52,-492.01"/>
</g>
<!-- src/rocket.js -->
<g id="node8" class="node">
<title>src/rocket.js</title>
<path fill="none" stroke="#c6c5fe" d="M1450.33,-595.75C1450.33,-595.75 1376.67,-595.75 1376.67,-595.75 1372.83,-595.75 1369,-591.91 1369,-588.08 1369,-588.08 1369,-580.41 1369,-580.41 1369,-576.58 1372.83,-572.75 1376.67,-572.75 1376.67,-572.75 1450.33,-572.75 1450.33,-572.75 1454.17,-572.75 1458,-576.58 1458,-580.41 1458,-580.41 1458,-588.08 1458,-588.08 1458,-591.91 1454.17,-595.75 1450.33,-595.75"/>
<text text-anchor="middle" x="1413.5" y="-580.55" font-family="Arial" font-size="14.00" fill="#c6c5fe">src/rocket.js</text>
</g>
<!-- src/gameManager.js&#45;&gt;src/rocket.js -->
<g id="edge18" class="edge">
<title>src/gameManager.js&#45;&gt;src/rocket.js</title>
<path fill="none" stroke="#757575" d="M165.94,-525.12C178.41,-553.66 213.93,-626.68 266,-666.25 349.88,-729.97 385.16,-742.25 490.5,-742.25 490.5,-742.25 490.5,-742.25 1108.5,-742.25 1213.7,-742.25 1244.13,-723.54 1333,-667.25 1359.12,-650.7 1382.75,-623.76 1397.34,-605.09"/>
<polygon fill="#757575" stroke="#757575" points="1399.93,-607.46 1403.19,-597.38 1394.35,-603.23 1399.93,-607.46"/>
</g>
<!-- src/ammo.js -->
<g id="node9" class="node">
<title>src/ammo.js</title>
<path fill="none" stroke="#c6c5fe" d="M894.83,-675.75C894.83,-675.75 819.17,-675.75 819.17,-675.75 815.33,-675.75 811.5,-671.91 811.5,-668.08 811.5,-668.08 811.5,-660.41 811.5,-660.41 811.5,-656.58 815.33,-652.75 819.17,-652.75 819.17,-652.75 894.83,-652.75 894.83,-652.75 898.67,-652.75 902.5,-656.58 902.5,-660.41 902.5,-660.41 902.5,-668.08 902.5,-668.08 902.5,-671.91 898.67,-675.75 894.83,-675.75"/>
<text text-anchor="middle" x="857" y="-660.55" font-family="Arial" font-size="14.00" fill="#c6c5fe">src/ammo.js</text>
</g>
<!-- src/gameManager.js&#45;&gt;src/ammo.js -->
<g id="edge12" class="edge">
<title>src/gameManager.js&#45;&gt;src/ammo.js</title>
<path fill="none" stroke="#757575" d="M173,-525.14C191.32,-542.48 228.12,-574.27 266,-589.25 451.29,-662.5 692.48,-667.93 800.01,-666.17"/>
<polygon fill="#757575" stroke="#757575" points="799.78,-669.67 809.71,-665.98 799.64,-662.67 799.78,-669.67"/>
</g>
<!-- src/background.js -->
<g id="node10" class="node">
<title>src/background.js</title>
<path fill="none" stroke="#cfffac" d="M910.33,-133.75C910.33,-133.75 803.67,-133.75 803.67,-133.75 799.83,-133.75 796,-129.91 796,-126.08 796,-126.08 796,-118.41 796,-118.41 796,-114.58 799.83,-110.75 803.67,-110.75 803.67,-110.75 910.33,-110.75 910.33,-110.75 914.17,-110.75 918,-114.58 918,-118.41 918,-118.41 918,-126.08 918,-126.08 918,-129.91 914.17,-133.75 910.33,-133.75"/>
<text text-anchor="middle" x="857" y="-118.55" font-family="Arial" font-size="14.00" fill="#cfffac">src/background.js</text>
</g>
<!-- src/gameManager.js&#45;&gt;src/background.js -->
<g id="edge13" class="edge">
<title>src/gameManager.js&#45;&gt;src/background.js</title>
<path fill="none" stroke="#757575" d="M164.41,-501.54C180.75,-447.94 256.49,-224.88 409,-139.25 471.29,-104.27 674.94,-110.79 784.58,-117.22"/>
<polygon fill="#757575" stroke="#757575" points="784.15,-120.7 794.34,-117.81 784.57,-113.71 784.15,-120.7"/>
</g>
<!-- src/keyboard.js -->
<g id="node11" class="node">
<title>src/keyboard.js</title>
<path fill="none" stroke="#c6c5fe" d="M365.33,-401.75C365.33,-401.75 273.67,-401.75 273.67,-401.75 269.83,-401.75 266,-397.91 266,-394.08 266,-394.08 266,-386.41 266,-386.41 266,-382.58 269.83,-378.75 273.67,-378.75 273.67,-378.75 365.33,-378.75 365.33,-378.75 369.17,-378.75 373,-382.58 373,-386.41 373,-386.41 373,-394.08 373,-394.08 373,-397.91 369.17,-401.75 365.33,-401.75"/>
<text text-anchor="middle" x="319.5" y="-386.55" font-family="Arial" font-size="14.00" fill="#c6c5fe">src/keyboard.js</text>
</g>
<!-- src/gameManager.js&#45;&gt;src/keyboard.js -->
<g id="edge15" class="edge">
<title>src/gameManager.js&#45;&gt;src/keyboard.js</title>
<path fill="none" stroke="#757575" d="M176.1,-501.45C203.43,-480.11 261.31,-434.91 294.24,-409.19"/>
<polygon fill="#757575" stroke="#757575" points="296.29,-412.03 302.02,-403.12 291.98,-406.51 296.29,-412.03"/>
</g>
<!-- src/rendering/Helpers.js -->
<g id="node12" class="node">
<title>src/rendering/Helpers.js</title>
<path fill="none" stroke="#cfffac" d="M1645.33,-306.75C1645.33,-306.75 1501.67,-306.75 1501.67,-306.75 1497.83,-306.75 1494,-302.91 1494,-299.08 1494,-299.08 1494,-291.41 1494,-291.41 1494,-287.58 1497.83,-283.75 1501.67,-283.75 1501.67,-283.75 1645.33,-283.75 1645.33,-283.75 1649.17,-283.75 1653,-287.58 1653,-291.41 1653,-291.41 1653,-299.08 1653,-299.08 1653,-302.91 1649.17,-306.75 1645.33,-306.75"/>
<text text-anchor="middle" x="1573.5" y="-291.55" font-family="Arial" font-size="14.00" fill="#cfffac">src/rendering/Helpers.js</text>
</g>
<!-- src/gameManager.js&#45;&gt;src/rendering/Helpers.js -->
<g id="edge17" class="edge">
<title>src/gameManager.js&#45;&gt;src/rendering/Helpers.js</title>
<path fill="none" stroke="#757575" d="M162.26,-501.27C169.1,-438.55 203.77,-148.53 266,-88.25 391.35,33.18 475.49,-6.25 650,-6.25 650,-6.25 650,-6.25 1282,-6.25 1433.31,-6.25 1533.72,-205.74 1563.36,-273.23"/>
<polygon fill="#757575" stroke="#757575" points="1560.04,-274.36 1567.2,-282.17 1566.47,-271.6 1560.04,-274.36"/>
</g>
<!-- src/step.js -->
<g id="node13" class="node">
<title>src/step.js</title>
<path fill="none" stroke="#c6c5fe" d="M681.83,-401.75C681.83,-401.75 620.17,-401.75 620.17,-401.75 616.33,-401.75 612.5,-397.91 612.5,-394.08 612.5,-394.08 612.5,-386.41 612.5,-386.41 612.5,-382.58 616.33,-378.75 620.17,-378.75 620.17,-378.75 681.83,-378.75 681.83,-378.75 685.67,-378.75 689.5,-382.58 689.5,-386.41 689.5,-386.41 689.5,-394.08 689.5,-394.08 689.5,-397.91 685.67,-401.75 681.83,-401.75"/>
<text text-anchor="middle" x="651" y="-386.55" font-family="Arial" font-size="14.00" fill="#c6c5fe">src/step.js</text>
</g>
<!-- src/gameManager.js&#45;&gt;src/step.js -->
<g id="edge19" class="edge">
<title>src/gameManager.js&#45;&gt;src/step.js</title>
<path fill="none" stroke="#757575" d="M209.69,-501.32C286.98,-482.34 442.46,-443.95 574,-410.25 582.83,-407.98 592.23,-405.54 601.3,-403.16"/>
<polygon fill="#757575" stroke="#757575" points="601.9,-406.62 610.68,-400.7 600.12,-399.85 601.9,-406.62"/>
</g>
<!-- src/Boss.js&#45;&gt;src/enemy.js -->
<g id="edge3" class="edge">
<title>src/Boss.js&#45;&gt;src/enemy.js</title>
<path fill="none" stroke="#757575" d="M692.18,-580.48C703.72,-577.74 716.35,-574.81 728,-572.25 751.4,-567.1 777.28,-561.77 799.62,-557.29"/>
<polygon fill="#757575" stroke="#757575" points="800,-560.78 809.12,-555.39 798.63,-553.92 800,-560.78"/>
</g>
<!-- src/gatling.js -->
<g id="node6" class="node">
<title>src/gatling.js</title>
<path fill="none" stroke="#c6c5fe" d="M1145.83,-597.75C1145.83,-597.75 1069.17,-597.75 1069.17,-597.75 1065.33,-597.75 1061.5,-593.91 1061.5,-590.08 1061.5,-590.08 1061.5,-582.41 1061.5,-582.41 1061.5,-578.58 1065.33,-574.75 1069.17,-574.75 1069.17,-574.75 1145.83,-574.75 1145.83,-574.75 1149.67,-574.75 1153.5,-578.58 1153.5,-582.41 1153.5,-582.41 1153.5,-590.08 1153.5,-590.08 1153.5,-593.91 1149.67,-597.75 1145.83,-597.75"/>
<text text-anchor="middle" x="1107.5" y="-582.55" font-family="Arial" font-size="14.00" fill="#c6c5fe">src/gatling.js</text>
</g>
<!-- src/Boss.js&#45;&gt;src/gatling.js -->
<g id="edge4" class="edge">
<title>src/Boss.js&#45;&gt;src/gatling.js</title>
<path fill="none" stroke="#757575" d="M692.33,-589.89C773.48,-589.18 956.66,-587.56 1049.81,-586.74"/>
<polygon fill="#757575" stroke="#757575" points="1049.77,-590.25 1059.74,-586.66 1049.71,-583.25 1049.77,-590.25"/>
</g>
<!-- src/enemy.js&#45;&gt;src/gatling.js -->
<g id="edge9" class="edge">
<title>src/enemy.js&#45;&gt;src/gatling.js</title>
<path fill="none" stroke="#757575" d="M903.29,-553.54C944.5,-560.17 1005.5,-569.99 1049.91,-577.14"/>
<polygon fill="#757575" stroke="#757575" points="1049.18,-580.56 1059.61,-578.7 1050.29,-573.65 1049.18,-580.56"/>
</g>
<!-- src/gatling.js&#45;&gt;src/music.js -->
<g id="edge22" class="edge">
<title>src/gatling.js&#45;&gt;src/music.js</title>
<path fill="none" stroke="#757575" d="M1153.77,-577.52C1203.96,-565.62 1284.27,-539.62 1333,-488.25 1384.84,-433.59 1403.62,-341.97 1409.78,-299.35"/>
<polygon fill="#757575" stroke="#757575" points="1413.24,-299.89 1411.09,-289.52 1406.3,-298.97 1413.24,-299.89"/>
</g>
<!-- src/gatling.js&#45;&gt;src/airfighter.js -->
<g id="edge21" class="edge">
<title>src/gatling.js&#45;&gt;src/airfighter.js</title>
<path fill="none" stroke="#757575" d="M1125.89,-574.28C1155.93,-553.61 1217.75,-511.07 1253.29,-486.62"/>
<polygon fill="#757575" stroke="#757575" points="1255.06,-489.65 1261.32,-481.1 1251.1,-483.88 1255.06,-489.65"/>
</g>
<!-- src/airfighter.js&#45;&gt;src/music.js -->
<g id="edge5" class="edge">
<title>src/airfighter.js&#45;&gt;src/music.js</title>
<path fill="none" stroke="#757575" d="M1289.97,-456.52C1311.45,-424.92 1370.8,-337.6 1398.24,-297.22"/>
<polygon fill="#757575" stroke="#757575" points="1401.06,-299.3 1403.79,-289.07 1395.27,-295.37 1401.06,-299.3"/>
</g>
<!-- src/airfighter.js&#45;&gt;src/rocket.js -->
<g id="edge6" class="edge">
<title>src/airfighter.js&#45;&gt;src/rocket.js</title>
<path fill="none" stroke="#757575" d="M1310.13,-480.22C1317.9,-484.14 1326.09,-488.89 1333,-494.25 1358.94,-514.35 1383.03,-543.76 1397.75,-563.43"/>
<polygon fill="#757575" stroke="#757575" points="1394.74,-565.24 1403.47,-571.25 1400.39,-561.11 1394.74,-565.24"/>
</g>
<!-- src/rocket.js&#45;&gt;src/rendering/Helpers.js -->
<g id="edge35" class="edge">
<title>src/rocket.js&#45;&gt;src/rendering/Helpers.js</title>
<path fill="none" stroke="#757575" d="M1420.89,-572.56C1444.81,-528.81 1529.29,-374.29 1560.66,-316.91"/>
<polygon fill="#757575" stroke="#757575" points="1563.58,-318.86 1565.3,-308.41 1557.44,-315.5 1563.58,-318.86"/>
</g>
<!-- src/ammo.js&#45;&gt;src/gatling.js -->
<g id="edge7" class="edge">
<title>src/ammo.js&#45;&gt;src/gatling.js</title>
<path fill="none" stroke="#757575" d="M896.01,-652.31C939.31,-638.72 1010.18,-616.48 1057.57,-601.6"/>
<polygon fill="#757575" stroke="#757575" points="1058.56,-604.96 1067.05,-598.63 1056.46,-598.28 1058.56,-604.96"/>
</g>
<!-- src/ammo.js&#45;&gt;src/rocket.js -->
<g id="edge8" class="edge">
<title>src/ammo.js&#45;&gt;src/rocket.js</title>
<path fill="none" stroke="#757575" d="M902.77,-670.04C988.87,-679.46 1182.35,-692.2 1333,-640.25 1355.34,-632.54 1377.01,-616.53 1392.07,-603.59"/>
<polygon fill="#757575" stroke="#757575" points="1394.28,-606.31 1399.41,-597.04 1389.62,-601.08 1394.28,-606.31"/>
</g>
<!-- src/keyboard.js&#45;&gt;src/music.js -->
<g id="edge26" class="edge">
<title>src/keyboard.js&#45;&gt;src/music.js</title>
<path fill="none" stroke="#757575" d="M323.88,-378.41C332.66,-350.07 359.02,-278.21 409,-245.25 528.58,-166.38 585.12,-209.49 728,-199.25 842.37,-191.04 871.79,-189.02 986,-199.25 1121.28,-211.36 1277.83,-244.67 1358.4,-263.27"/>
<polygon fill="#757575" stroke="#757575" points="1357.25,-266.59 1367.78,-265.45 1358.83,-259.77 1357.25,-266.59"/>
</g>
<!-- src/keyboard.js&#45;&gt;src/gatling.js -->
<g id="edge25" class="edge">
<title>src/keyboard.js&#45;&gt;src/gatling.js</title>
<path fill="none" stroke="#757575" d="M373.38,-402.2C385.11,-404.85 397.48,-407.64 409,-410.25 550.77,-442.26 585.37,-454.29 728,-482.25 842.08,-504.61 880.73,-475.94 986,-525.25 1005.12,-534.2 1003.74,-545.64 1022,-556.25 1031.49,-561.76 1042.17,-566.51 1052.65,-570.5"/>
<polygon fill="#757575" stroke="#757575" points="1051.43,-573.78 1062.02,-573.87 1053.8,-567.19 1051.43,-573.78"/>
</g>
<!-- src/keyboard.js&#45;&gt;src/airfighter.js -->
<g id="edge23" class="edge">
<title>src/keyboard.js&#45;&gt;src/airfighter.js</title>
<path fill="none" stroke="#757575" d="M334.52,-378.32C378.12,-342.49 516.44,-238.25 650,-238.25 650,-238.25 650,-238.25 858,-238.25 1015.27,-238.25 1065.7,-259.89 1193,-352.25 1227.77,-377.47 1254.84,-420.6 1269.03,-446.56"/>
<polygon fill="#757575" stroke="#757575" points="1265.82,-448 1273.59,-455.2 1272.01,-444.72 1265.82,-448"/>
</g>
<!-- src/keyboard.js&#45;&gt;src/rocket.js -->
<g id="edge27" class="edge">
<title>src/keyboard.js&#45;&gt;src/rocket.js</title>
<path fill="none" stroke="#757575" d="M342.25,-402.19C401.91,-434.37 573.95,-523.37 728,-566.25 927.83,-621.87 985.83,-616.6 1193,-606.25 1249.18,-603.44 1313.15,-596.61 1357.47,-591.3"/>
<polygon fill="#757575" stroke="#757575" points="1357.86,-594.78 1367.37,-590.1 1357.02,-587.83 1357.86,-594.78"/>
</g>
<!-- src/gameMenuActions.js -->
<g id="node14" class="node">
<title>src/gameMenuActions.js</title>
<path fill="none" stroke="#c6c5fe" d="M566.33,-401.75C566.33,-401.75 416.67,-401.75 416.67,-401.75 412.83,-401.75 409,-397.91 409,-394.08 409,-394.08 409,-386.41 409,-386.41 409,-382.58 412.83,-378.75 416.67,-378.75 416.67,-378.75 566.33,-378.75 566.33,-378.75 570.17,-378.75 574,-382.58 574,-386.41 574,-386.41 574,-394.08 574,-394.08 574,-397.91 570.17,-401.75 566.33,-401.75"/>
<text text-anchor="middle" x="491.5" y="-386.55" font-family="Arial" font-size="14.00" fill="#c6c5fe">src/gameMenuActions.js</text>
</g>
<!-- src/keyboard.js&#45;&gt;src/gameMenuActions.js -->
<g id="edge24" class="edge">
<title>src/keyboard.js&#45;&gt;src/gameMenuActions.js</title>
<path fill="none" stroke="#757575" d="M373.36,-390.25C381.06,-390.25 389.18,-390.25 397.4,-390.25"/>
<polygon fill="#757575" stroke="#757575" points="397.14,-393.75 407.14,-390.25 397.14,-386.75 397.14,-393.75"/>
</g>
<!-- src/touch.js -->
<g id="node15" class="node">
<title>src/touch.js</title>
<path fill="none" stroke="#cfffac" d="M526.33,-171.75C526.33,-171.75 456.67,-171.75 456.67,-171.75 452.83,-171.75 449,-167.91 449,-164.08 449,-164.08 449,-156.41 449,-156.41 449,-152.58 452.83,-148.75 456.67,-148.75 456.67,-148.75 526.33,-148.75 526.33,-148.75 530.17,-148.75 534,-152.58 534,-156.41 534,-156.41 534,-164.08 534,-164.08 534,-167.91 530.17,-171.75 526.33,-171.75"/>
<text text-anchor="middle" x="491.5" y="-156.55" font-family="Arial" font-size="14.00" fill="#cfffac">src/touch.js</text>
</g>
<!-- src/keyboard.js&#45;&gt;src/touch.js -->
<g id="edge28" class="edge">
<title>src/keyboard.js&#45;&gt;src/touch.js</title>
<path fill="none" stroke="#757575" d="M322.14,-378.62C327.64,-344.04 348.58,-240.88 409,-186.25 417.18,-178.85 427.46,-173.56 437.95,-169.77"/>
<polygon fill="#757575" stroke="#757575" points="438.93,-173.13 447.42,-166.8 436.83,-166.46 438.93,-173.13"/>
</g>
<!-- src/step.js&#45;&gt;src/music.js -->
<g id="edge40" class="edge">
<title>src/step.js&#45;&gt;src/music.js</title>
<path fill="none" stroke="#757575" d="M667.63,-378.27C682.35,-367.68 705.45,-352.77 728,-345.25 940.49,-274.36 1005.96,-310.99 1229,-290.25 1272.2,-286.23 1321.21,-282.53 1357.7,-279.95"/>
<polygon fill="#757575" stroke="#757575" points="1357.85,-283.45 1367.58,-279.26 1357.36,-276.46 1357.85,-283.45"/>
</g>
<!-- src/step.js&#45;&gt;src/enemy.js -->
<g id="edge38" class="edge">
<title>src/step.js&#45;&gt;src/enemy.js</title>
<path fill="none" stroke="#757575" d="M666.08,-402.21C674.11,-409.36 684.11,-418.86 692,-428.25 710.57,-450.32 706.38,-463.16 728,-482.25 751.9,-503.34 784,-519.37 810.08,-530.11"/>
<polygon fill="#757575" stroke="#757575" points="808.48,-533.24 819.07,-533.69 811.07,-526.74 808.48,-533.24"/>
</g>
<!-- src/step.js&#45;&gt;src/gatling.js -->
<g id="edge39" class="edge">
<title>src/step.js&#45;&gt;src/gatling.js</title>
<path fill="none" stroke="#757575" d="M664.92,-402.14C679.24,-414.64 703.56,-433.89 728,-444.25 835.39,-489.76 892.03,-423.16 986,-492.25 1013.55,-512.5 995.65,-538.45 1022,-560.25 1030.25,-567.07 1040.28,-572.11 1050.51,-575.82"/>
<polygon fill="#757575" stroke="#757575" points="1049.13,-579.06 1059.73,-578.78 1051.27,-572.39 1049.13,-579.06"/>
</g>
<!-- src/step.js&#45;&gt;src/airfighter.js -->
<g id="edge36" class="edge">
<title>src/step.js&#45;&gt;src/airfighter.js</title>
<path fill="none" stroke="#757575" d="M687.54,-378.29C700.16,-374.62 714.57,-371.07 728,-369.25 933.55,-341.37 1001.42,-329.73 1193,-409.25 1216.89,-419.16 1241,-436.19 1257.76,-449.41"/>
<polygon fill="#757575" stroke="#757575" points="1255.11,-451.77 1265.09,-455.34 1259.52,-446.33 1255.11,-451.77"/>
</g>
<!-- src/step.js&#45;&gt;src/rocket.js -->
<g id="edge43" class="edge">
<title>src/step.js&#45;&gt;src/rocket.js</title>
<path fill="none" stroke="#757575" d="M689.67,-401.16C701.83,-404.42 715.42,-407.77 728,-410.25 784.74,-421.4 939.18,-410.31 986,-444.25 1015.94,-465.94 993.2,-496.06 1022,-519.25 1095.64,-578.54 1135.66,-553.21 1229,-568.25 1271.73,-575.13 1320.57,-579.21 1357.12,-581.52"/>
<polygon fill="#757575" stroke="#757575" points="1356.83,-585.01 1367.02,-582.12 1357.25,-578.02 1356.83,-585.01"/>
</g>
<!-- src/step.js&#45;&gt;src/background.js -->
<g id="edge37" class="edge">
<title>src/step.js&#45;&gt;src/background.js</title>
<path fill="none" stroke="#757575" d="M653.34,-378.57C657.8,-344.74 674.96,-245.29 728,-186.25 748.12,-163.85 777.88,-148.31 803.64,-138.16"/>
<polygon fill="#757575" stroke="#757575" points="804.83,-141.45 812.97,-134.67 802.38,-134.9 804.83,-141.45"/>
</g>
<!-- src/step.js&#45;&gt;src/rendering/Helpers.js -->
<g id="edge42" class="edge">
<title>src/step.js&#45;&gt;src/rendering/Helpers.js</title>
<path fill="none" stroke="#757575" d="M657.99,-378.56C668.99,-358.32 694.41,-316.82 728,-295.25 873.93,-201.51 933.06,-200.25 1106.5,-200.25 1106.5,-200.25 1106.5,-200.25 1282,-200.25 1381.04,-200.25 1490.08,-250.74 1541.89,-278.1"/>
<polygon fill="#757575" stroke="#757575" points="1539.97,-281.04 1550.43,-282.69 1543.28,-274.87 1539.97,-281.04"/>
</g>
<!-- src/rendering/EnemyCollisionsChecks.js -->
<g id="node16" class="node">
<title>src/rendering/EnemyCollisionsChecks.js</title>
<path fill="none" stroke="#c6c5fe" d="M978.33,-401.75C978.33,-401.75 735.67,-401.75 735.67,-401.75 731.83,-401.75 728,-397.91 728,-394.08 728,-394.08 728,-386.41 728,-386.41 728,-382.58 731.83,-378.75 735.67,-378.75 735.67,-378.75 978.33,-378.75 978.33,-378.75 982.17,-378.75 986,-382.58 986,-386.41 986,-386.41 986,-394.08 986,-394.08 986,-397.91 982.17,-401.75 978.33,-401.75"/>
<text text-anchor="middle" x="857" y="-386.55" font-family="Arial" font-size="14.00" fill="#c6c5fe">src/rendering/EnemyCollisionsChecks.js</text>
</g>
<!-- src/step.js&#45;&gt;src/rendering/EnemyCollisionsChecks.js -->
<g id="edge41" class="edge">
<title>src/step.js&#45;&gt;src/rendering/EnemyCollisionsChecks.js</title>
<path fill="none" stroke="#757575" d="M689.89,-390.25C697.93,-390.25 706.85,-390.25 716.28,-390.25"/>
<polygon fill="#757575" stroke="#757575" points="716.04,-393.75 726.04,-390.25 716.04,-386.75 716.04,-393.75"/>
</g>
<!-- src/gameMenuActions.js&#45;&gt;src/step.js -->
<g id="edge20" class="edge">
<title>src/gameMenuActions.js&#45;&gt;src/step.js</title>
<path fill="none" stroke="#757575" d="M574.48,-390.25C583.42,-390.25 592.31,-390.25 600.67,-390.25"/>
<polygon fill="#757575" stroke="#757575" points="600.6,-393.75 610.6,-390.25 600.6,-386.75 600.6,-393.75"/>
</g>
<!-- src/rendering/EnemyCollisionsChecks.js&#45;&gt;src/music.js -->
<g id="edge31" class="edge">
<title>src/rendering/EnemyCollisionsChecks.js&#45;&gt;src/music.js</title>
<path fill="none" stroke="#757575" d="M916.29,-378.26C1024.03,-356.11 1252.89,-309.06 1357.84,-287.48"/>
<polygon fill="#757575" stroke="#757575" points="1358.54,-290.91 1367.63,-285.47 1357.13,-284.06 1358.54,-290.91"/>
</g>
<!-- src/rendering/EnemyCollisionsChecks.js&#45;&gt;src/gatling.js -->
<g id="edge30" class="edge">
<title>src/rendering/EnemyCollisionsChecks.js&#45;&gt;src/gatling.js</title>
<path fill="none" stroke="#757575" d="M896.24,-402.24C923.88,-412.48 960.68,-429.5 986,-454.25 1010.46,-478.14 999.85,-496.2 1022,-522.25 1037.59,-540.58 1059.31,-556.88 1076.82,-568.45"/>
<polygon fill="#757575" stroke="#757575" points="1074.47,-571.1 1084.77,-573.55 1078.25,-565.21 1074.47,-571.1"/>
</g>
<!-- src/rendering/EnemyCollisionsChecks.js&#45;&gt;src/airfighter.js -->
<g id="edge29" class="edge">
<title>src/rendering/EnemyCollisionsChecks.js&#45;&gt;src/airfighter.js</title>
<path fill="none" stroke="#757575" d="M948.99,-402.16C961.82,-405.7 974.53,-410.29 986,-416.25 1005.53,-426.38 1001.84,-441.41 1022,-450.25 1084.25,-477.54 1163.11,-478.85 1217.15,-475.36"/>
<polygon fill="#757575" stroke="#757575" points="1217.4,-478.85 1227.12,-474.63 1216.89,-471.87 1217.4,-478.85"/>
</g>
<!-- src/rendering/EnemyCollisionsChecks.js&#45;&gt;src/rocket.js -->
<g id="edge34" class="edge">
<title>src/rendering/EnemyCollisionsChecks.js&#45;&gt;src/rocket.js</title>
<path fill="none" stroke="#757575" d="M959.28,-402.24C968.79,-405.84 977.89,-410.43 986,-416.25 1011.89,-434.83 996.73,-458.84 1022,-478.25 1048.82,-498.84 1256.27,-548.44 1357.41,-571.74"/>
<polygon fill="#757575" stroke="#757575" points="1356.61,-575.15 1367.14,-573.98 1358.18,-568.33 1356.61,-575.15"/>
</g>
<!-- src/rendering/EnemyCollisionsChecks.js&#45;&gt;src/rendering/Helpers.js -->
<g id="edge33" class="edge">
<title>src/rendering/EnemyCollisionsChecks.js&#45;&gt;src/rendering/Helpers.js</title>
<path fill="none" stroke="#757575" d="M977.53,-378.26C1041.52,-371.54 1121.64,-362.63 1193,-353.25 1295.19,-339.8 1412.4,-321.43 1489.2,-309"/>
<polygon fill="#757575" stroke="#757575" points="1489.42,-312.51 1498.73,-307.45 1488.3,-305.6 1489.42,-312.51"/>
</g>
<!-- src/rendering/Explosion.js -->
<g id="node17" class="node">
<title>src/rendering/Explosion.js</title>
<path fill="none" stroke="#cfffac" d="M1185.33,-441.75C1185.33,-441.75 1029.67,-441.75 1029.67,-441.75 1025.83,-441.75 1022,-437.91 1022,-434.08 1022,-434.08 1022,-426.41 1022,-426.41 1022,-422.58 1025.83,-418.75 1029.67,-418.75 1029.67,-418.75 1185.33,-418.75 1185.33,-418.75 1189.17,-418.75 1193,-422.58 1193,-426.41 1193,-426.41 1193,-434.08 1193,-434.08 1193,-437.91 1189.17,-441.75 1185.33,-441.75"/>
<text text-anchor="middle" x="1107.5" y="-426.55" font-family="Arial" font-size="14.00" fill="#cfffac">src/rendering/Explosion.js</text>
</g>
<!-- src/rendering/EnemyCollisionsChecks.js&#45;&gt;src/rendering/Explosion.js -->
<g id="edge32" class="edge">
<title>src/rendering/EnemyCollisionsChecks.js&#45;&gt;src/rendering/Explosion.js</title>
<path fill="none" stroke="#757575" d="M932.22,-402.19C960.12,-406.68 992.07,-411.83 1020.92,-416.47"/>
<polygon fill="#757575" stroke="#757575" points="1020.31,-419.92 1030.74,-418.05 1021.42,-413.01 1020.31,-419.92"/>
</g>
</g>
</svg>
