<?xml version="1.0" encoding="UTF-8" standalone="no"?>
<!DOCTYPE svg PUBLIC "-//W3C//DTD SVG 1.1//EN"
 "http://www.w3.org/Graphics/SVG/1.1/DTD/svg11.dtd">
<!-- Generated by graphviz version 8.0.2 (20230410.1723)
 -->
<!-- Title: G Pages: 1 -->
<svg width="2038pt" height="811pt"
 viewBox="0.00 0.00 2038.20 811.27" xmlns="http://www.w3.org/2000/svg" xmlns:xlink="http://www.w3.org/1999/xlink">
<g id="graph0" class="graph" transform="scale(1 1) rotate(0) translate(21.6 789.67)">
<title>G</title>
<polygon fill="#111111" stroke="none" points="-21.6,21.6 -21.6,-789.67 2016.6,-789.67 2016.6,21.6 -21.6,21.6"/>
<!-- app.js -->
<g id="node1" class="node">
<title>app.js</title>
<path fill="none" stroke="#c6c5fe" d="M47.33,-641.79C47.33,-641.79 7.67,-641.79 7.67,-641.79 3.83,-641.79 0,-637.96 0,-634.12 0,-634.12 0,-626.46 0,-626.46 0,-622.62 3.83,-618.79 7.67,-618.79 7.67,-618.79 47.33,-618.79 47.33,-618.79 51.17,-618.79 55,-622.62 55,-626.46 55,-626.46 55,-634.12 55,-634.12 55,-637.96 51.17,-641.79 47.33,-641.79"/>
<text text-anchor="middle" x="27.5" y="-626.59" font-family="Arial" font-size="14.00" fill="#c6c5fe">app.js</text>
</g>
<!-- src/gameManager.js -->
<g id="node2" class="node">
<title>src/gameManager.js</title>
<path fill="none" stroke="#c6c5fe" d="M228.33,-523.79C228.33,-523.79 98.67,-523.79 98.67,-523.79 94.83,-523.79 91,-519.96 91,-516.12 91,-516.12 91,-508.46 91,-508.46 91,-504.62 94.83,-500.79 98.67,-500.79 98.67,-500.79 228.33,-500.79 228.33,-500.79 232.17,-500.79 236,-504.62 236,-508.46 236,-508.46 236,-516.12 236,-516.12 236,-519.96 232.17,-523.79 228.33,-523.79"/>
<text text-anchor="middle" x="163.5" y="-508.59" font-family="Arial" font-size="14.00" fill="#c6c5fe">src/gameManager.js</text>
</g>
<!-- app.js&#45;&gt;src/gameManager.js -->
<g id="edge1" class="edge">
<title>app.js&#45;&gt;src/gameManager.js</title>
<path fill="none" stroke="#757575" d="M41.84,-618.54C65.12,-598.05 113.33,-555.59 141.25,-531"/>
<polygon fill="#757575" stroke="#757575" points="143.02,-534.22 148.22,-524.99 138.4,-528.97 143.02,-534.22"/>
</g>
<!-- src/music.js -->
<g id="node3" class="node">
<title>src/music.js</title>
<path fill="none" stroke="#cfffac" d="M1783.83,-583.79C1783.83,-583.79 1707.17,-583.79 1707.17,-583.79 1703.33,-583.79 1699.5,-579.96 1699.5,-576.12 1699.5,-576.12 1699.5,-568.46 1699.5,-568.46 1699.5,-564.62 1703.33,-560.79 1707.17,-560.79 1707.17,-560.79 1783.83,-560.79 1783.83,-560.79 1787.67,-560.79 1791.5,-564.62 1791.5,-568.46 1791.5,-568.46 1791.5,-576.12 1791.5,-576.12 1791.5,-579.96 1787.67,-583.79 1783.83,-583.79"/>
<text text-anchor="middle" x="1745.5" y="-568.59" font-family="Arial" font-size="14.00" fill="#cfffac">src/music.js</text>
</g>
<!-- app.js&#45;&gt;src/music.js -->
<g id="edge2" class="edge">
<title>app.js&#45;&gt;src/music.js</title>
<path fill="none" stroke="#757575" d="M45.43,-642.25C89.58,-672.25 212.82,-748.29 327.5,-748.29 327.5,-748.29 327.5,-748.29 889,-748.29 1234.88,-748.29 1356.69,-827.93 1663,-667.29 1694.71,-650.66 1719.36,-616.08 1732.91,-593.55"/>
<polygon fill="#757575" stroke="#757575" points="1736.36,-595.56 1738.33,-585.15 1730.3,-592.06 1736.36,-595.56"/>
</g>
<!-- src/gameManager.js&#45;&gt;src/music.js -->
<g id="edge13" class="edge">
<title>src/gameManager.js&#45;&gt;src/music.js</title>
<path fill="none" stroke="#757575" d="M178.05,-524.05C222.06,-561 366.22,-672.29 506,-672.29 506,-672.29 506,-672.29 1352.5,-672.29 1491.53,-672.29 1534.2,-686.64 1663,-634.29 1686.9,-624.57 1709.9,-605.95 1725.33,-591.64"/>
<polygon fill="#757575" stroke="#757575" points="1727.28,-594.66 1732.08,-585.22 1722.44,-589.6 1727.28,-594.66"/>
</g>
<!-- src/Boss.js -->
<g id="node4" class="node">
<title>src/Boss.js</title>
<path fill="none" stroke="#c6c5fe" d="M708.33,-563.79C708.33,-563.79 636.67,-563.79 636.67,-563.79 632.83,-563.79 629,-559.96 629,-556.12 629,-556.12 629,-548.46 629,-548.46 629,-544.62 632.83,-540.79 636.67,-540.79 636.67,-540.79 708.33,-540.79 708.33,-540.79 712.17,-540.79 716,-544.62 716,-548.46 716,-548.46 716,-556.12 716,-556.12 716,-559.96 712.17,-563.79 708.33,-563.79"/>
<text text-anchor="middle" x="672.5" y="-548.59" font-family="Arial" font-size="14.00" fill="#c6c5fe">src/Boss.js</text>
</g>
<!-- src/gameManager.js&#45;&gt;src/Boss.js -->
<g id="edge8" class="edge">
<title>src/gameManager.js&#45;&gt;src/Boss.js</title>
<path fill="none" stroke="#757575" d="M236.42,-522.31C248.29,-523.77 260.48,-525.17 272,-526.29 395.46,-538.33 540.95,-546.22 617.74,-549.89"/>
<polygon fill="#757575" stroke="#757575" points="617.41,-553.43 627.56,-550.4 617.74,-546.44 617.41,-553.43"/>
</g>
<!-- src/enemy.js -->
<g id="node5" class="node">
<title>src/enemy.js</title>
<path fill="none" stroke="#c6c5fe" d="M928.83,-525.79C928.83,-525.79 847.17,-525.79 847.17,-525.79 843.33,-525.79 839.5,-521.96 839.5,-518.12 839.5,-518.12 839.5,-510.46 839.5,-510.46 839.5,-506.62 843.33,-502.79 847.17,-502.79 847.17,-502.79 928.83,-502.79 928.83,-502.79 932.67,-502.79 936.5,-506.62 936.5,-510.46 936.5,-510.46 936.5,-518.12 936.5,-518.12 936.5,-521.96 932.67,-525.79 928.83,-525.79"/>
<text text-anchor="middle" x="888" y="-510.59" font-family="Arial" font-size="14.00" fill="#c6c5fe">src/enemy.js</text>
</g>
<!-- src/gameManager.js&#45;&gt;src/enemy.js -->
<g id="edge11" class="edge">
<title>src/gameManager.js&#45;&gt;src/enemy.js</title>
<path fill="none" stroke="#757575" d="M236.42,-512.49C379.45,-512.88 697.13,-513.76 828.45,-514.13"/>
<polygon fill="#757575" stroke="#757575" points="828.06,-517.63 838.07,-514.16 828.08,-510.63 828.06,-517.63"/>
</g>
<!-- src/ammo.js -->
<g id="node7" class="node">
<title>src/ammo.js</title>
<path fill="none" stroke="#c6c5fe" d="M927.33,-213.79C927.33,-213.79 848.67,-213.79 848.67,-213.79 844.83,-213.79 841,-209.96 841,-206.12 841,-206.12 841,-198.46 841,-198.46 841,-194.62 844.83,-190.79 848.67,-190.79 848.67,-190.79 927.33,-190.79 927.33,-190.79 931.17,-190.79 935,-194.62 935,-198.46 935,-198.46 935,-206.12 935,-206.12 935,-209.96 931.17,-213.79 927.33,-213.79"/>
<text text-anchor="middle" x="888" y="-198.59" font-family="Arial" font-size="14.00" fill="#c6c5fe">src/ammo.js</text>
</g>
<!-- src/gameManager.js&#45;&gt;src/ammo.js -->
<g id="edge9" class="edge">
<title>src/gameManager.js&#45;&gt;src/ammo.js</title>
<path fill="none" stroke="#757575" d="M170.33,-500.45C193.81,-454.29 286.76,-286.12 421,-228.29 557.98,-169.28 738.9,-181.69 829.75,-193.32"/>
<polygon fill="#757575" stroke="#757575" points="829.27,-196.92 839.64,-194.76 830.19,-189.98 829.27,-196.92"/>
</g>
<!-- src/rocket.js -->
<g id="node8" class="node">
<title>src/rocket.js</title>
<path fill="none" stroke="#c6c5fe" d="M1784.33,-239.79C1784.33,-239.79 1706.67,-239.79 1706.67,-239.79 1702.83,-239.79 1699,-235.96 1699,-232.12 1699,-232.12 1699,-224.46 1699,-224.46 1699,-220.62 1702.83,-216.79 1706.67,-216.79 1706.67,-216.79 1784.33,-216.79 1784.33,-216.79 1788.17,-216.79 1792,-220.62 1792,-224.46 1792,-224.46 1792,-232.12 1792,-232.12 1792,-235.96 1788.17,-239.79 1784.33,-239.79"/>
<text text-anchor="middle" x="1745.5" y="-224.59" font-family="Arial" font-size="14.00" fill="#c6c5fe">src/rocket.js</text>
</g>
<!-- src/gameManager.js&#45;&gt;src/rocket.js -->
<g id="edge16" class="edge">
<title>src/gameManager.js&#45;&gt;src/rocket.js</title>
<path fill="none" stroke="#757575" d="M164.25,-500.59C163.75,-448.7 168.37,-236.66 272,-115.29 346.02,-28.6 392.01,-10.29 506,-10.29 506,-10.29 506,-10.29 1352.5,-10.29 1492.35,-10.29 1559.57,32.84 1663,-61.29 1709.56,-103.66 1662.3,-147.14 1699,-198.29 1702.23,-202.79 1706.36,-206.79 1710.8,-210.3"/>
<polygon fill="#757575" stroke="#757575" points="1708.4,-213.59 1718.6,-216.43 1712.4,-207.84 1708.4,-213.59"/>
</g>
<!-- src/background.js -->
<g id="node9" class="node">
<title>src/background.js</title>
<path fill="none" stroke="#cfffac" d="M944.33,-605.79C944.33,-605.79 831.67,-605.79 831.67,-605.79 827.83,-605.79 824,-601.96 824,-598.12 824,-598.12 824,-590.46 824,-590.46 824,-586.62 827.83,-582.79 831.67,-582.79 831.67,-582.79 944.33,-582.79 944.33,-582.79 948.17,-582.79 952,-586.62 952,-590.46 952,-590.46 952,-598.12 952,-598.12 952,-601.96 948.17,-605.79 944.33,-605.79"/>
<text text-anchor="middle" x="888" y="-590.59" font-family="Arial" font-size="14.00" fill="#cfffac">src/background.js</text>
</g>
<!-- src/gameManager.js&#45;&gt;src/background.js -->
<g id="edge10" class="edge">
<title>src/gameManager.js&#45;&gt;src/background.js</title>
<path fill="none" stroke="#757575" d="M197.96,-524.15C218.96,-531.12 246.75,-539.48 272,-544.29 464.67,-580.98 696.33,-590.76 812.65,-593.36"/>
<polygon fill="#757575" stroke="#757575" points="812.47,-596.88 822.54,-593.59 812.62,-589.88 812.47,-596.88"/>
</g>
<!-- src/keyboard.js -->
<g id="node10" class="node">
<title>src/keyboard.js</title>
<path fill="none" stroke="#c6c5fe" d="M377.33,-445.79C377.33,-445.79 279.67,-445.79 279.67,-445.79 275.83,-445.79 272,-441.96 272,-438.12 272,-438.12 272,-430.46 272,-430.46 272,-426.62 275.83,-422.79 279.67,-422.79 279.67,-422.79 377.33,-422.79 377.33,-422.79 381.17,-422.79 385,-426.62 385,-430.46 385,-430.46 385,-438.12 385,-438.12 385,-441.96 381.17,-445.79 377.33,-445.79"/>
<text text-anchor="middle" x="328.5" y="-430.59" font-family="Arial" font-size="14.00" fill="#c6c5fe">src/keyboard.js</text>
</g>
<!-- src/gameManager.js&#45;&gt;src/keyboard.js -->
<g id="edge12" class="edge">
<title>src/gameManager.js&#45;&gt;src/keyboard.js</title>
<path fill="none" stroke="#757575" d="M189.26,-500.44C216.9,-487.21 261.84,-465.71 292.94,-450.83"/>
<polygon fill="#757575" stroke="#757575" points="294,-453.72 301.51,-446.25 290.98,-447.41 294,-453.72"/>
</g>
<!-- src/player/airfighter.js -->
<g id="node11" class="node">
<title>src/player/airfighter.js</title>
<path fill="none" stroke="#c6c5fe" d="M1419.33,-331.79C1419.33,-331.79 1283.67,-331.79 1283.67,-331.79 1279.83,-331.79 1276,-327.96 1276,-324.12 1276,-324.12 1276,-316.46 1276,-316.46 1276,-312.62 1279.83,-308.79 1283.67,-308.79 1283.67,-308.79 1419.33,-308.79 1419.33,-308.79 1423.17,-308.79 1427,-312.62 1427,-316.46 1427,-316.46 1427,-324.12 1427,-324.12 1427,-327.96 1423.17,-331.79 1419.33,-331.79"/>
<text text-anchor="middle" x="1351.5" y="-316.59" font-family="Arial" font-size="14.00" fill="#c6c5fe">src/player/airfighter.js</text>
</g>
<!-- src/gameManager.js&#45;&gt;src/player/airfighter.js -->
<g id="edge14" class="edge">
<title>src/gameManager.js&#45;&gt;src/player/airfighter.js</title>
<path fill="none" stroke="#757575" d="M166.7,-500.37C174.58,-460.41 204.58,-328.94 272,-245.29 350.9,-147.39 380.26,-86.29 506,-86.29 506,-86.29 506,-86.29 673.5,-86.29 935.86,-86.29 1001.8,-142.31 1240,-252.29 1270.64,-266.44 1303.27,-287.32 1325.06,-302.2"/>
<polygon fill="#757575" stroke="#757575" points="1322.76,-305.56 1332.98,-308.38 1326.75,-299.81 1322.76,-305.56"/>
</g>
<!-- src/rendering/Helpers.js -->
<g id="node12" class="node">
<title>src/rendering/Helpers.js</title>
<path fill="none" stroke="#cfffac" d="M1987.33,-357.79C1987.33,-357.79 1835.67,-357.79 1835.67,-357.79 1831.83,-357.79 1828,-353.96 1828,-350.12 1828,-350.12 1828,-342.46 1828,-342.46 1828,-338.62 1831.83,-334.79 1835.67,-334.79 1835.67,-334.79 1987.33,-334.79 1987.33,-334.79 1991.17,-334.79 1995,-338.62 1995,-342.46 1995,-342.46 1995,-350.12 1995,-350.12 1995,-353.96 1991.17,-357.79 1987.33,-357.79"/>
<text text-anchor="middle" x="1911.5" y="-342.59" font-family="Arial" font-size="14.00" fill="#cfffac">src/rendering/Helpers.js</text>
</g>
<!-- src/gameManager.js&#45;&gt;src/rendering/Helpers.js -->
<g id="edge15" class="edge">
<title>src/gameManager.js&#45;&gt;src/rendering/Helpers.js</title>
<path fill="none" stroke="#757575" d="M171.9,-524.02C187.5,-547.84 226.17,-602.2 272,-632.29 363.64,-692.46 396.37,-710.29 506,-710.29 506,-710.29 506,-710.29 889,-710.29 1233.53,-710.29 1333.92,-769.29 1663,-667.29 1726.13,-647.72 1747.01,-641.71 1792,-593.29 1855.87,-524.55 1891.67,-415.07 1904.74,-368.46"/>
<polygon fill="#757575" stroke="#757575" points="1908.33,-369.6 1907.57,-359.03 1901.57,-367.76 1908.33,-369.6"/>
</g>
<!-- src/step.js -->
<g id="node13" class="node">
<title>src/step.js</title>
<path fill="none" stroke="#c6c5fe" d="M705.83,-369.79C705.83,-369.79 639.17,-369.79 639.17,-369.79 635.33,-369.79 631.5,-365.96 631.5,-362.12 631.5,-362.12 631.5,-354.46 631.5,-354.46 631.5,-350.62 635.33,-346.79 639.17,-346.79 639.17,-346.79 705.83,-346.79 705.83,-346.79 709.67,-346.79 713.5,-350.62 713.5,-354.46 713.5,-354.46 713.5,-362.12 713.5,-362.12 713.5,-365.96 709.67,-369.79 705.83,-369.79"/>
<text text-anchor="middle" x="672.5" y="-354.59" font-family="Arial" font-size="14.00" fill="#c6c5fe">src/step.js</text>
</g>
<!-- src/gameManager.js&#45;&gt;src/step.js -->
<g id="edge17" class="edge">
<title>src/gameManager.js&#45;&gt;src/step.js</title>
<path fill="none" stroke="#757575" d="M174.15,-500.4C191.53,-479.77 230.2,-437.33 272,-414.29 384.47,-352.28 540.79,-350.37 620.44,-354.28"/>
<polygon fill="#757575" stroke="#757575" points="619.98,-357.82 630.16,-354.87 620.36,-350.83 619.98,-357.82"/>
</g>
<!-- src/Boss.js&#45;&gt;src/enemy.js -->
<g id="edge3" class="edge">
<title>src/Boss.js&#45;&gt;src/enemy.js</title>
<path fill="none" stroke="#757575" d="M716.45,-544.64C748.67,-538.91 793.14,-530.99 828.6,-524.68"/>
<polygon fill="#757575" stroke="#757575" points="829.06,-527.98 838.29,-522.78 827.83,-521.09 829.06,-527.98"/>
</g>
<!-- src/gatling.js -->
<g id="node6" class="node">
<title>src/gatling.js</title>
<path fill="none" stroke="#c6c5fe" d="M1189.83,-563.79C1189.83,-563.79 1110.17,-563.79 1110.17,-563.79 1106.33,-563.79 1102.5,-559.96 1102.5,-556.12 1102.5,-556.12 1102.5,-548.46 1102.5,-548.46 1102.5,-544.62 1106.33,-540.79 1110.17,-540.79 1110.17,-540.79 1189.83,-540.79 1189.83,-540.79 1193.67,-540.79 1197.5,-544.62 1197.5,-548.46 1197.5,-548.46 1197.5,-556.12 1197.5,-556.12 1197.5,-559.96 1193.67,-563.79 1189.83,-563.79"/>
<text text-anchor="middle" x="1150" y="-548.59" font-family="Arial" font-size="14.00" fill="#c6c5fe">src/gatling.js</text>
</g>
<!-- src/Boss.js&#45;&gt;src/gatling.js -->
<g id="edge4" class="edge">
<title>src/Boss.js&#45;&gt;src/gatling.js</title>
<path fill="none" stroke="#757575" d="M716.12,-552.29C801.72,-552.29 994.62,-552.29 1091.37,-552.29"/>
<polygon fill="#757575" stroke="#757575" points="1091.12,-555.79 1101.12,-552.29 1091.12,-548.79 1091.12,-555.79"/>
</g>
<!-- src/enemy.js&#45;&gt;src/gatling.js -->
<g id="edge7" class="edge">
<title>src/enemy.js&#45;&gt;src/gatling.js</title>
<path fill="none" stroke="#757575" d="M936.99,-521.3C980.6,-527.68 1045.01,-537.09 1091.38,-543.87"/>
<polygon fill="#757575" stroke="#757575" points="1090.76,-547.46 1101.16,-545.44 1091.78,-540.53 1090.76,-547.46"/>
</g>
<!-- src/gatling.js&#45;&gt;src/music.js -->
<g id="edge19" class="edge">
<title>src/gatling.js&#45;&gt;src/music.js</title>
<path fill="none" stroke="#757575" d="M1197.57,-553.86C1305.45,-557.49 1572.11,-566.48 1688.57,-570.4"/>
<polygon fill="#757575" stroke="#757575" points="1688.25,-573.93 1698.37,-570.77 1688.49,-566.93 1688.25,-573.93"/>
</g>
<!-- src/gatling.js&#45;&gt;src/player/airfighter.js -->
<g id="edge20" class="edge">
<title>src/gatling.js&#45;&gt;src/player/airfighter.js</title>
<path fill="none" stroke="#757575" d="M1162.18,-540.54C1179.27,-522.49 1212.76,-486.72 1240,-455.29 1274.6,-415.37 1313.35,-367.17 1334.53,-340.51"/>
<polygon fill="#757575" stroke="#757575" points="1337.79,-343.04 1341.26,-333.03 1332.3,-338.69 1337.79,-343.04"/>
</g>
<!-- src/ammo.js&#45;&gt;src/gatling.js -->
<g id="edge5" class="edge">
<title>src/ammo.js&#45;&gt;src/gatling.js</title>
<path fill="none" stroke="#757575" d="M905.26,-214.28C933.49,-235.93 991.67,-284.36 1024,-338.29 1051.98,-384.95 1032.95,-408.09 1060,-455.29 1077.6,-486 1106.48,-515.05 1126.55,-533.21"/>
<polygon fill="#757575" stroke="#757575" points="1123.75,-535.29 1133.55,-539.3 1128.39,-530.05 1123.75,-535.29"/>
</g>
<!-- src/ammo.js&#45;&gt;src/rocket.js -->
<g id="edge6" class="edge">
<title>src/ammo.js&#45;&gt;src/rocket.js</title>
<path fill="none" stroke="#757575" d="M935.3,-203.7C1080.78,-208.12 1528.5,-221.72 1687.64,-226.56"/>
<polygon fill="#757575" stroke="#757575" points="1687.49,-230.09 1697.59,-226.89 1687.7,-223.09 1687.49,-230.09"/>
</g>
<!-- src/rocket.js&#45;&gt;src/rendering/Helpers.js -->
<g id="edge38" class="edge">
<title>src/rocket.js&#45;&gt;src/rendering/Helpers.js</title>
<path fill="none" stroke="#757575" d="M1763.13,-240.25C1791.86,-260.93 1850.98,-303.46 1884.96,-327.91"/>
<polygon fill="#757575" stroke="#757575" points="1882.67,-331.29 1892.83,-334.29 1886.76,-325.61 1882.67,-331.29"/>
</g>
<!-- src/keyboard.js&#45;&gt;src/music.js -->
<g id="edge23" class="edge">
<title>src/keyboard.js&#45;&gt;src/music.js</title>
<path fill="none" stroke="#757575" d="M339.96,-446.2C378.98,-489.26 521.55,-634.29 671.5,-634.29 671.5,-634.29 671.5,-634.29 1352.5,-634.29 1491.06,-634.29 1528.5,-639.57 1663,-606.29 1679.41,-602.23 1696.8,-595.36 1711.28,-588.86"/>
<polygon fill="#757575" stroke="#757575" points="1712.66,-591.61 1720.26,-584.23 1709.71,-585.26 1712.66,-591.61"/>
</g>
<!-- src/keyboard.js&#45;&gt;src/gatling.js -->
<g id="edge22" class="edge">
<title>src/keyboard.js&#45;&gt;src/gatling.js</title>
<path fill="none" stroke="#757575" d="M374.84,-446.21C389.48,-449.65 405.84,-453.07 421,-455.29 686.74,-494.12 776.18,-390.79 1024,-494.29 1043.75,-502.54 1041.27,-515.92 1060,-526.29 1069.82,-531.72 1080.89,-536.13 1091.81,-539.66"/>
<polygon fill="#757575" stroke="#757575" points="1090.59,-543.25 1101.18,-542.78 1092.61,-536.54 1090.59,-543.25"/>
</g>
<!-- src/keyboard.js&#45;&gt;src/rocket.js -->
<g id="edge25" class="edge">
<title>src/keyboard.js&#45;&gt;src/rocket.js</title>
<path fill="none" stroke="#757575" d="M332.41,-422.3C340.75,-390.31 367.65,-301.89 421,-251.29 584.9,-95.82 661.09,-48.29 887,-48.29 887,-48.29 887,-48.29 1352.5,-48.29 1501.77,-48.29 1530.56,-107.43 1663,-176.29 1673.75,-181.88 1698.3,-197.7 1717.66,-210.44"/>
<polygon fill="#757575" stroke="#757575" points="1715.39,-213.8 1725.66,-216.39 1719.25,-207.95 1715.39,-213.8"/>
</g>
<!-- src/keyboard.js&#45;&gt;src/player/airfighter.js -->
<g id="edge24" class="edge">
<title>src/keyboard.js&#45;&gt;src/player/airfighter.js</title>
<path fill="none" stroke="#757575" d="M340.33,-422.57C380.09,-380.88 523.4,-242.29 671.5,-242.29 671.5,-242.29 671.5,-242.29 889,-242.29 1039.2,-242.29 1213.1,-282.95 1298.17,-305.56"/>
<polygon fill="#757575" stroke="#757575" points="1297.02,-309.15 1307.59,-308.36 1298.84,-302.38 1297.02,-309.15"/>
</g>
<!-- src/gameMenuActions.js -->
<g id="node14" class="node">
<title>src/gameMenuActions.js</title>
<path fill="none" stroke="#c6c5fe" d="M585.33,-445.79C585.33,-445.79 428.67,-445.79 428.67,-445.79 424.83,-445.79 421,-441.96 421,-438.12 421,-438.12 421,-430.46 421,-430.46 421,-426.62 424.83,-422.79 428.67,-422.79 428.67,-422.79 585.33,-422.79 585.33,-422.79 589.17,-422.79 593,-426.62 593,-430.46 593,-430.46 593,-438.12 593,-438.12 593,-441.96 589.17,-445.79 585.33,-445.79"/>
<text text-anchor="middle" x="507" y="-430.59" font-family="Arial" font-size="14.00" fill="#c6c5fe">src/gameMenuActions.js</text>
</g>
<!-- src/keyboard.js&#45;&gt;src/gameMenuActions.js -->
<g id="edge21" class="edge">
<title>src/keyboard.js&#45;&gt;src/gameMenuActions.js</title>
<path fill="none" stroke="#757575" d="M385.35,-434.29C393.14,-434.29 401.33,-434.29 409.61,-434.29"/>
<polygon fill="#757575" stroke="#757575" points="409.53,-437.79 419.53,-434.29 409.53,-430.79 409.53,-437.79"/>
</g>
<!-- src/touch.js -->
<g id="node15" class="node">
<title>src/touch.js</title>
<path fill="none" stroke="#cfffac" d="M543.83,-404.79C543.83,-404.79 470.17,-404.79 470.17,-404.79 466.33,-404.79 462.5,-400.96 462.5,-397.12 462.5,-397.12 462.5,-389.46 462.5,-389.46 462.5,-385.62 466.33,-381.79 470.17,-381.79 470.17,-381.79 543.83,-381.79 543.83,-381.79 547.67,-381.79 551.5,-385.62 551.5,-389.46 551.5,-389.46 551.5,-397.12 551.5,-397.12 551.5,-400.96 547.67,-404.79 543.83,-404.79"/>
<text text-anchor="middle" x="507" y="-389.59" font-family="Arial" font-size="14.00" fill="#cfffac">src/touch.js</text>
</g>
<!-- src/keyboard.js&#45;&gt;src/touch.js -->
<g id="edge26" class="edge">
<title>src/keyboard.js&#45;&gt;src/touch.js</title>
<path fill="none" stroke="#757575" d="M381.03,-422.32C403.15,-417.18 429.02,-411.17 451.46,-405.96"/>
<polygon fill="#757575" stroke="#757575" points="452.23,-409.14 461.18,-403.47 450.64,-402.32 452.23,-409.14"/>
</g>
<!-- src/player/airfighter.js&#45;&gt;src/music.js -->
<g id="edge27" class="edge">
<title>src/player/airfighter.js&#45;&gt;src/music.js</title>
<path fill="none" stroke="#757575" d="M1376.91,-332.16C1430.71,-358.79 1562.71,-426.67 1663,-499.29 1685.67,-515.7 1709.23,-537.4 1725.16,-552.86"/>
<polygon fill="#757575" stroke="#757575" points="1722.16,-554.81 1731.75,-559.32 1727.07,-549.82 1722.16,-554.81"/>
</g>
<!-- src/player/airfighter.js&#45;&gt;src/rocket.js -->
<g id="edge29" class="edge">
<title>src/player/airfighter.js&#45;&gt;src/rocket.js</title>
<path fill="none" stroke="#757575" d="M1396.5,-308.35C1416.71,-302.96 1441.03,-296.63 1463,-291.29 1540.72,-272.4 1631.03,-252.56 1687.97,-240.31"/>
<polygon fill="#757575" stroke="#757575" points="1688.51,-243.56 1697.55,-238.03 1687.04,-236.71 1688.51,-243.56"/>
</g>
<!-- src/player/playerMovement.js -->
<g id="node16" class="node">
<title>src/player/playerMovement.js</title>
<path fill="none" stroke="#c6c5fe" d="M1655.33,-322.79C1655.33,-322.79 1470.67,-322.79 1470.67,-322.79 1466.83,-322.79 1463,-318.96 1463,-315.12 1463,-315.12 1463,-307.46 1463,-307.46 1463,-303.62 1466.83,-299.79 1470.67,-299.79 1470.67,-299.79 1655.33,-299.79 1655.33,-299.79 1659.17,-299.79 1663,-303.62 1663,-307.46 1663,-307.46 1663,-315.12 1663,-315.12 1663,-318.96 1659.17,-322.79 1655.33,-322.79"/>
<text text-anchor="middle" x="1563" y="-307.59" font-family="Arial" font-size="14.00" fill="#c6c5fe">src/player/playerMovement.js</text>
</g>
<!-- src/player/airfighter.js&#45;&gt;src/player/playerMovement.js -->
<g id="edge28" class="edge">
<title>src/player/airfighter.js&#45;&gt;src/player/playerMovement.js</title>
<path fill="none" stroke="#757575" d="M1427.25,-317.08C1435.25,-316.73 1443.52,-316.38 1451.83,-316.02"/>
<polygon fill="#757575" stroke="#757575" points="1451.92,-319.48 1461.76,-315.55 1451.62,-312.48 1451.92,-319.48"/>
</g>
<!-- src/step.js&#45;&gt;src/music.js -->
<g id="edge42" class="edge">
<title>src/step.js&#45;&gt;src/music.js</title>
<path fill="none" stroke="#757575" d="M687.06,-370.13C702.04,-382.67 727.31,-402.28 752,-414.29 865.31,-469.42 928.82,-411.71 1024,-494.29 1053.14,-519.58 1027.68,-552.21 1060,-573.29 1162.6,-640.19 1543.76,-598.7 1688.37,-580"/>
<polygon fill="#757575" stroke="#757575" points="1688.72,-583.36 1698.18,-578.59 1687.81,-576.42 1688.72,-583.36"/>
</g>
<!-- src/step.js&#45;&gt;src/enemy.js -->
<g id="edge40" class="edge">
<title>src/step.js&#45;&gt;src/enemy.js</title>
<path fill="none" stroke="#757575" d="M681.15,-370.14C693.9,-389.14 721.16,-426.67 752,-450.29 779.12,-471.06 814.05,-487.39 841.59,-498.36"/>
<polygon fill="#757575" stroke="#757575" points="840.17,-501.95 850.75,-502.3 842.7,-495.42 840.17,-501.95"/>
</g>
<!-- src/step.js&#45;&gt;src/gatling.js -->
<g id="edge41" class="edge">
<title>src/step.js&#45;&gt;src/gatling.js</title>
<path fill="none" stroke="#757575" d="M713.64,-369.89C725.89,-373.2 739.44,-376.62 752,-379.29 871.72,-404.69 930.17,-343.71 1024,-422.29 1061.5,-453.69 1024.58,-492.56 1060,-526.29 1068.84,-534.7 1080.24,-540.41 1091.92,-544.28"/>
<polygon fill="#757575" stroke="#757575" points="1090.62,-547.84 1101.2,-547.23 1092.55,-541.11 1090.62,-547.84"/>
</g>
<!-- src/step.js&#45;&gt;src/rocket.js -->
<g id="edge47" class="edge">
<title>src/step.js&#45;&gt;src/rocket.js</title>
<path fill="none" stroke="#757575" d="M674.53,-346.52C678.14,-313.57 693.34,-220.35 752,-182.29 907.44,-81.42 1501.02,-182.26 1687.85,-217.28"/>
<polygon fill="#757575" stroke="#757575" points="1687.05,-220.88 1697.52,-219.3 1688.34,-214 1687.05,-220.88"/>
</g>
<!-- src/step.js&#45;&gt;src/background.js -->
<g id="edge39" class="edge">
<title>src/step.js&#45;&gt;src/background.js</title>
<path fill="none" stroke="#757575" d="M675.6,-369.87C681.79,-400.78 702.66,-486.22 752,-535.29 772.65,-555.83 801.65,-569.77 827.47,-578.92"/>
<polygon fill="#757575" stroke="#757575" points="825.97,-582.44 836.56,-582.31 828.2,-575.81 825.97,-582.44"/>
</g>
<!-- src/step.js&#45;&gt;src/player/airfighter.js -->
<g id="edge43" class="edge">
<title>src/step.js&#45;&gt;src/player/airfighter.js</title>
<path fill="none" stroke="#757575" d="M713.5,-346.3C725.74,-343.11 739.33,-340.07 752,-338.29 933.25,-312.79 1148.29,-313.85 1264.91,-317"/>
<polygon fill="#757575" stroke="#757575" points="1264.78,-320.53 1274.88,-317.31 1264.98,-313.53 1264.78,-320.53"/>
</g>
<!-- src/step.js&#45;&gt;src/rendering/Helpers.js -->
<g id="edge46" class="edge">
<title>src/step.js&#45;&gt;src/rendering/Helpers.js</title>
<path fill="none" stroke="#757575" d="M673.44,-346.53C673.95,-308.54 681.31,-188.64 752,-138.29 928.66,-12.46 1023.3,-126.04 1240,-135.29 1487.24,-145.85 1581.31,-78.47 1792,-208.29 1840.55,-238.2 1879.57,-294.58 1898.35,-325.21"/>
<polygon fill="#757575" stroke="#757575" points="1895.79,-326.74 1903.92,-333.53 1901.79,-323.15 1895.79,-326.74"/>
</g>
<!-- src/step.js&#45;&gt;src/player/playerMovement.js -->
<g id="edge44" class="edge">
<title>src/step.js&#45;&gt;src/player/playerMovement.js</title>
<path fill="none" stroke="#757575" d="M688.36,-346.43C703.41,-335.23 727.84,-319.14 752,-312.29 1040.65,-230.39 1127.2,-288.1 1427,-300.29 1435.01,-300.61 1443.27,-301.05 1451.59,-301.56"/>
<polygon fill="#757575" stroke="#757575" points="1451.32,-305.11 1461.53,-302.26 1451.77,-298.12 1451.32,-305.11"/>
</g>
<!-- src/rendering/EnemyCollisionsChecks.js -->
<g id="node17" class="node">
<title>src/rendering/EnemyCollisionsChecks.js</title>
<path fill="none" stroke="#c6c5fe" d="M1016.33,-369.79C1016.33,-369.79 759.67,-369.79 759.67,-369.79 755.83,-369.79 752,-365.96 752,-362.12 752,-362.12 752,-354.46 752,-354.46 752,-350.62 755.83,-346.79 759.67,-346.79 759.67,-346.79 1016.33,-346.79 1016.33,-346.79 1020.17,-346.79 1024,-350.62 1024,-354.46 1024,-354.46 1024,-362.12 1024,-362.12 1024,-365.96 1020.17,-369.79 1016.33,-369.79"/>
<text text-anchor="middle" x="888" y="-354.59" font-family="Arial" font-size="14.00" fill="#c6c5fe">src/rendering/EnemyCollisionsChecks.js</text>
</g>
<!-- src/step.js&#45;&gt;src/rendering/EnemyCollisionsChecks.js -->
<g id="edge45" class="edge">
<title>src/step.js&#45;&gt;src/rendering/EnemyCollisionsChecks.js</title>
<path fill="none" stroke="#757575" d="M713.91,-358.29C722.08,-358.29 731.1,-358.29 740.62,-358.29"/>
<polygon fill="#757575" stroke="#757575" points="740.55,-361.79 750.55,-358.29 740.55,-354.79 740.55,-361.79"/>
</g>
<!-- src/gameMenuActions.js&#45;&gt;src/step.js -->
<g id="edge18" class="edge">
<title>src/gameMenuActions.js&#45;&gt;src/step.js</title>
<path fill="none" stroke="#757575" d="M571.13,-422.36C578.65,-420.09 586.1,-417.42 593,-414.29 614.03,-404.76 635.19,-389.24 650.23,-376.96"/>
<polygon fill="#757575" stroke="#757575" points="651.92,-379.27 657.33,-370.17 647.42,-373.91 651.92,-379.27"/>
</g>
<!-- src/player/playerMovement.js&#45;&gt;src/music.js -->
<g id="edge30" class="edge">
<title>src/player/playerMovement.js&#45;&gt;src/music.js</title>
<path fill="none" stroke="#757575" d="M1572.22,-323.18C1600.47,-364.03 1693.78,-498.95 1729.97,-551.28"/>
<polygon fill="#757575" stroke="#757575" points="1727.66,-553.09 1736.23,-559.33 1733.42,-549.11 1727.66,-553.09"/>
</g>
<!-- src/player/playerMovement.js&#45;&gt;src/rocket.js -->
<g id="edge31" class="edge">
<title>src/player/playerMovement.js&#45;&gt;src/rocket.js</title>
<path fill="none" stroke="#757575" d="M1590.5,-299.33C1610.46,-290.3 1638.48,-277.58 1663,-266.29 1678.18,-259.3 1694.91,-251.52 1709.24,-244.82"/>
<polygon fill="#757575" stroke="#757575" points="1710.62,-247.57 1718.2,-240.16 1707.66,-241.23 1710.62,-247.57"/>
</g>
<!-- src/rendering/EnemyCollisionsChecks.js&#45;&gt;src/music.js -->
<g id="edge33" class="edge">
<title>src/rendering/EnemyCollisionsChecks.js&#45;&gt;src/music.js</title>
<path fill="none" stroke="#757575" d="M1017.2,-370.24C1019.55,-371.8 1021.82,-373.48 1024,-375.29 1064.52,-409 1019.31,-454.78 1060,-488.29 1112.06,-531.17 1596.24,-548.69 1663,-558.29 1671.29,-559.48 1680.04,-560.86 1688.6,-562.27"/>
<polygon fill="#757575" stroke="#757575" points="1687.86,-565.87 1698.31,-564.07 1689.02,-558.96 1687.86,-565.87"/>
</g>
<!-- src/rendering/EnemyCollisionsChecks.js&#45;&gt;src/gatling.js -->
<g id="edge32" class="edge">
<title>src/rendering/EnemyCollisionsChecks.js&#45;&gt;src/gatling.js</title>
<path fill="none" stroke="#757575" d="M1003.54,-370.15C1010.99,-373.9 1017.92,-378.56 1024,-384.29 1071.35,-428.97 1014.8,-479.43 1060,-526.29 1068.56,-535.16 1079.96,-541.05 1091.74,-544.95"/>
<polygon fill="#757575" stroke="#757575" points="1090.54,-548.53 1101.12,-547.89 1092.45,-541.8 1090.54,-548.53"/>
</g>
<!-- src/rendering/EnemyCollisionsChecks.js&#45;&gt;src/rocket.js -->
<g id="edge37" class="edge">
<title>src/rendering/EnemyCollisionsChecks.js&#45;&gt;src/rocket.js</title>
<path fill="none" stroke="#757575" d="M1024.32,-367.43C1216.04,-378.09 1555.41,-387.85 1663,-332.29 1697.6,-314.42 1722.15,-274.52 1734.76,-249.67"/>
<polygon fill="#757575" stroke="#757575" points="1738.22,-251.57 1739.43,-241.04 1731.92,-248.51 1738.22,-251.57"/>
</g>
<!-- src/rendering/EnemyCollisionsChecks.js&#45;&gt;src/player/airfighter.js -->
<g id="edge34" class="edge">
<title>src/rendering/EnemyCollisionsChecks.js&#45;&gt;src/player/airfighter.js</title>
<path fill="none" stroke="#757575" d="M1024.1,-349.37C1089.37,-344.78 1168.8,-338.79 1240,-332.29 1248.11,-331.55 1256.54,-330.73 1264.98,-329.87"/>
<polygon fill="#757575" stroke="#757575" points="1265.05,-333.28 1274.64,-328.77 1264.33,-326.31 1265.05,-333.28"/>
</g>
<!-- src/rendering/EnemyCollisionsChecks.js&#45;&gt;src/rendering/Helpers.js -->
<g id="edge36" class="edge">
<title>src/rendering/EnemyCollisionsChecks.js&#45;&gt;src/rendering/Helpers.js</title>
<path fill="none" stroke="#757575" d="M1016.32,-370.23C1018.96,-371.78 1021.53,-373.46 1024,-375.29 1055.35,-398.47 1027.26,-434.12 1060,-455.29 1193.71,-541.75 1697.87,-407.59 1859.97,-361.16"/>
<polygon fill="#757575" stroke="#757575" points="1860.5,-364.36 1869.15,-358.23 1858.57,-357.63 1860.5,-364.36"/>
</g>
<!-- src/rendering/Explosion.js -->
<g id="node18" class="node">
<title>src/rendering/Explosion.js</title>
<path fill="none" stroke="#cfffac" d="M1232.33,-445.79C1232.33,-445.79 1067.67,-445.79 1067.67,-445.79 1063.83,-445.79 1060,-441.96 1060,-438.12 1060,-438.12 1060,-430.46 1060,-430.46 1060,-426.62 1063.83,-422.79 1067.67,-422.79 1067.67,-422.79 1232.33,-422.79 1232.33,-422.79 1236.17,-422.79 1240,-426.62 1240,-430.46 1240,-430.46 1240,-438.12 1240,-438.12 1240,-441.96 1236.17,-445.79 1232.33,-445.79"/>
<text text-anchor="middle" x="1150" y="-430.59" font-family="Arial" font-size="14.00" fill="#cfffac">src/rendering/Explosion.js</text>
</g>
<!-- src/rendering/EnemyCollisionsChecks.js&#45;&gt;src/rendering/Explosion.js -->
<g id="edge35" class="edge">
<title>src/rendering/EnemyCollisionsChecks.js&#45;&gt;src/rendering/Explosion.js</title>
<path fill="none" stroke="#757575" d="M978.34,-370.28C993.88,-373.83 1009.65,-378.4 1024,-384.29 1041.79,-391.58 1042.57,-400.17 1060,-408.29 1068.79,-412.38 1078.36,-415.99 1087.87,-419.11"/>
<polygon fill="#757575" stroke="#757575" points="1086.54,-422.67 1097.13,-422.31 1088.62,-415.99 1086.54,-422.67"/>
</g>
</g>
</svg>
