<?xml version="1.0" encoding="UTF-8" standalone="no"?>
<!DOCTYPE svg PUBLIC "-//W3C//DTD SVG 1.1//EN"
 "http://www.w3.org/Graphics/SVG/1.1/DTD/svg11.dtd">
<!-- Generated by graphviz version 8.0.2 (20230410.1723)
 -->
<!-- Title: G Pages: 1 -->
<svg width="589pt" height="280pt"
 viewBox="0.00 0.00 589.20 279.90" xmlns="http://www.w3.org/2000/svg" xmlns:xlink="http://www.w3.org/1999/xlink">
<g id="graph0" class="graph" transform="scale(1 1) rotate(0) translate(21.6 258.3)">
<title>G</title>
<polygon fill="#111111" stroke="none" points="-21.6,21.6 -21.6,-258.3 567.6,-258.3 567.6,21.6 -21.6,21.6"/>
<!-- airfighter.js -->
<g id="node1" class="node">
<title>airfighter.js</title>
<path fill="none" stroke="#cfffac" d="M538.33,-171.08C538.33,-171.08 467.67,-171.08 467.67,-171.08 463.83,-171.08 460,-167.24 460,-163.41 460,-163.41 460,-155.74 460,-155.74 460,-151.91 463.83,-148.08 467.67,-148.08 467.67,-148.08 538.33,-148.08 538.33,-148.08 542.17,-148.08 546,-151.91 546,-155.74 546,-155.74 546,-163.41 546,-163.41 546,-167.24 542.17,-171.08 538.33,-171.08"/>
<text text-anchor="middle" x="503" y="-155.88" font-family="Arial" font-size="14.00" fill="#cfffac">airfighter.js</text>
</g>
<!-- app.js -->
<g id="node2" class="node">
<title>app.js</title>
<path fill="none" stroke="#c6c5fe" d="M47.33,-32.08C47.33,-32.08 7.67,-32.08 7.67,-32.08 3.83,-32.08 0,-28.24 0,-24.41 0,-24.41 0,-16.74 0,-16.74 0,-12.91 3.83,-9.08 7.67,-9.08 7.67,-9.08 47.33,-9.08 47.33,-9.08 51.17,-9.08 55,-12.91 55,-16.74 55,-16.74 55,-24.41 55,-24.41 55,-28.24 51.17,-32.08 47.33,-32.08"/>
<text text-anchor="middle" x="27.5" y="-16.88" font-family="Arial" font-size="14.00" fill="#c6c5fe">app.js</text>
</g>
<!-- gameManager.js -->
<g id="node3" class="node">
<title>gameManager.js</title>
<path fill="none" stroke="#c6c5fe" d="M205.33,-110.08C205.33,-110.08 98.67,-110.08 98.67,-110.08 94.83,-110.08 91,-106.24 91,-102.41 91,-102.41 91,-94.74 91,-94.74 91,-90.91 94.83,-87.08 98.67,-87.08 98.67,-87.08 205.33,-87.08 205.33,-87.08 209.17,-87.08 213,-90.91 213,-94.74 213,-94.74 213,-102.41 213,-102.41 213,-106.24 209.17,-110.08 205.33,-110.08"/>
<text text-anchor="middle" x="152" y="-94.88" font-family="Arial" font-size="14.00" fill="#c6c5fe">gameManager.js</text>
</g>
<!-- app.js&#45;&gt;gameManager.js -->
<g id="edge1" class="edge">
<title>app.js&#45;&gt;gameManager.js</title>
<path fill="none" stroke="#757575" d="M47.11,-32.42C67.34,-45.31 99.91,-66.04 123.18,-80.87"/>
<polygon fill="#757575" stroke="#757575" points="120.9,-84.2 131.22,-86.62 124.66,-78.3 120.9,-84.2"/>
</g>
<!-- music.js -->
<g id="node4" class="node">
<title>music.js</title>
<path fill="none" stroke="#cfffac" d="M529.33,-53.08C529.33,-53.08 476.67,-53.08 476.67,-53.08 472.83,-53.08 469,-49.24 469,-45.41 469,-45.41 469,-37.74 469,-37.74 469,-33.91 472.83,-30.08 476.67,-30.08 476.67,-30.08 529.33,-30.08 529.33,-30.08 533.17,-30.08 537,-33.91 537,-37.74 537,-37.74 537,-45.41 537,-45.41 537,-49.24 533.17,-53.08 529.33,-53.08"/>
<text text-anchor="middle" x="503" y="-37.88" font-family="Arial" font-size="14.00" fill="#cfffac">music.js</text>
</g>
<!-- app.js&#45;&gt;music.js -->
<g id="edge2" class="edge">
<title>app.js&#45;&gt;music.js</title>
<path fill="none" stroke="#757575" d="M55.17,-16.45C119.32,-7.29 287.13,12.04 424,-12.58 438.47,-15.18 453.77,-20.3 466.94,-25.52"/>
<polygon fill="#757575" stroke="#757575" points="465.42,-29.09 476,-29.68 468.1,-22.62 465.42,-29.09"/>
</g>
<!-- gameManager.js&#45;&gt;airfighter.js -->
<g id="edge3" class="edge">
<title>gameManager.js&#45;&gt;airfighter.js</title>
<path fill="none" stroke="#757575" d="M160.02,-110.23C173.96,-132.26 207.4,-179.8 249,-202.58 317.58,-240.12 350.08,-246.05 424,-220.58 447.86,-212.35 470.01,-193.5 484.56,-178.91"/>
<polygon fill="#757575" stroke="#757575" points="486.42,-181.98 490.82,-172.34 481.37,-177.13 486.42,-181.98"/>
</g>
<!-- gameManager.js&#45;&gt;music.js -->
<g id="edge6" class="edge">
<title>gameManager.js&#45;&gt;music.js</title>
<path fill="none" stroke="#757575" d="M173.98,-86.71C209.07,-67.67 282.46,-31.25 350,-19.58 382.41,-13.97 391.42,-15.07 424,-19.58 435.3,-21.14 447.27,-23.92 458.35,-26.99"/>
<polygon fill="#757575" stroke="#757575" points="457.06,-30.55 467.64,-29.99 459.02,-23.83 457.06,-30.55"/>
</g>
<!-- enemy.js -->
<g id="node5" class="node">
<title>enemy.js</title>
<path fill="none" stroke="#cfffac" d="M416.33,-211.08C416.33,-211.08 357.67,-211.08 357.67,-211.08 353.83,-211.08 350,-207.24 350,-203.41 350,-203.41 350,-195.74 350,-195.74 350,-191.91 353.83,-188.08 357.67,-188.08 357.67,-188.08 416.33,-188.08 416.33,-188.08 420.17,-188.08 424,-191.91 424,-195.74 424,-195.74 424,-203.41 424,-203.41 424,-207.24 420.17,-211.08 416.33,-211.08"/>
<text text-anchor="middle" x="387" y="-195.88" font-family="Arial" font-size="14.00" fill="#cfffac">enemy.js</text>
</g>
<!-- gameManager.js&#45;&gt;enemy.js -->
<g id="edge4" class="edge">
<title>gameManager.js&#45;&gt;enemy.js</title>
<path fill="none" stroke="#757575" d="M162.83,-110.29C178.82,-128.47 212.41,-163.11 249,-179.58 277.13,-192.24 311.48,-197.23 338.75,-199.06"/>
<polygon fill="#757575" stroke="#757575" points="338.4,-202.6 348.58,-199.65 338.78,-195.61 338.4,-202.6"/>
</g>
<!-- gatling.js -->
<g id="node6" class="node">
<title>gatling.js</title>
<path fill="none" stroke="#c6c5fe" d="M415.33,-93.08C415.33,-93.08 358.67,-93.08 358.67,-93.08 354.83,-93.08 351,-89.24 351,-85.41 351,-85.41 351,-77.74 351,-77.74 351,-73.91 354.83,-70.08 358.67,-70.08 358.67,-70.08 415.33,-70.08 415.33,-70.08 419.17,-70.08 423,-73.91 423,-77.74 423,-77.74 423,-85.41 423,-85.41 423,-89.24 419.17,-93.08 415.33,-93.08"/>
<text text-anchor="middle" x="387" y="-77.88" font-family="Arial" font-size="14.00" fill="#c6c5fe">gatling.js</text>
</g>
<!-- gameManager.js&#45;&gt;gatling.js -->
<g id="edge5" class="edge">
<title>gameManager.js&#45;&gt;gatling.js</title>
<path fill="none" stroke="#757575" d="M213.31,-94.18C252.78,-91.3 303.56,-87.59 339.82,-84.95"/>
<polygon fill="#757575" stroke="#757575" points="339.86,-88.38 349.58,-84.16 339.35,-81.4 339.86,-88.38"/>
</g>
<!-- rocket.js -->
<g id="node7" class="node">
<title>rocket.js</title>
<path fill="none" stroke="#cfffac" d="M414.33,-52.08C414.33,-52.08 359.67,-52.08 359.67,-52.08 355.83,-52.08 352,-48.24 352,-44.41 352,-44.41 352,-36.74 352,-36.74 352,-32.91 355.83,-29.08 359.67,-29.08 359.67,-29.08 414.33,-29.08 414.33,-29.08 418.17,-29.08 422,-32.91 422,-36.74 422,-36.74 422,-44.41 422,-44.41 422,-48.24 418.17,-52.08 414.33,-52.08"/>
<text text-anchor="middle" x="387" y="-36.88" font-family="Arial" font-size="14.00" fill="#cfffac">rocket.js</text>
</g>
<!-- gameManager.js&#45;&gt;rocket.js -->
<g id="edge7" class="edge">
<title>gameManager.js&#45;&gt;rocket.js</title>
<path fill="none" stroke="#757575" d="M201,-86.63C242.12,-76.39 300.91,-61.76 341.11,-51.75"/>
<polygon fill="#757575" stroke="#757575" points="341.81,-54.93 350.67,-49.12 340.12,-48.14 341.81,-54.93"/>
</g>
<!-- step.js -->
<g id="node8" class="node">
<title>step.js</title>
<path fill="none" stroke="#c6c5fe" d="M303.33,-130.08C303.33,-130.08 259.67,-130.08 259.67,-130.08 255.83,-130.08 252,-126.24 252,-122.41 252,-122.41 252,-114.74 252,-114.74 252,-110.91 255.83,-107.08 259.67,-107.08 259.67,-107.08 303.33,-107.08 303.33,-107.08 307.17,-107.08 311,-110.91 311,-114.74 311,-114.74 311,-122.41 311,-122.41 311,-126.24 307.17,-130.08 303.33,-130.08"/>
<text text-anchor="middle" x="281.5" y="-114.88" font-family="Arial" font-size="14.00" fill="#c6c5fe">step.js</text>
</g>
<!-- gameManager.js&#45;&gt;step.js -->
<g id="edge8" class="edge">
<title>gameManager.js&#45;&gt;step.js</title>
<path fill="none" stroke="#757575" d="M213.39,-108.05C222.8,-109.53 232.31,-111.02 241.1,-112.4"/>
<polygon fill="#757575" stroke="#757575" points="240.36,-115.98 250.78,-114.07 241.44,-109.06 240.36,-115.98"/>
</g>
<!-- touch.js -->
<g id="node9" class="node">
<title>touch.js</title>
<path fill="none" stroke="#cfffac" d="M306.33,-171.08C306.33,-171.08 256.67,-171.08 256.67,-171.08 252.83,-171.08 249,-167.24 249,-163.41 249,-163.41 249,-155.74 249,-155.74 249,-151.91 252.83,-148.08 256.67,-148.08 256.67,-148.08 306.33,-148.08 306.33,-148.08 310.17,-148.08 314,-151.91 314,-155.74 314,-155.74 314,-163.41 314,-163.41 314,-167.24 310.17,-171.08 306.33,-171.08"/>
<text text-anchor="middle" x="281.5" y="-155.88" font-family="Arial" font-size="14.00" fill="#cfffac">touch.js</text>
</g>
<!-- gameManager.js&#45;&gt;touch.js -->
<g id="edge9" class="edge">
<title>gameManager.js&#45;&gt;touch.js</title>
<path fill="none" stroke="#757575" d="M177.89,-110.48C197.28,-119.76 224.43,-132.75 245.94,-143.04"/>
<polygon fill="#757575" stroke="#757575" points="244.15,-146.54 254.68,-147.7 247.17,-140.23 244.15,-146.54"/>
</g>
<!-- gatling.js&#45;&gt;airfighter.js -->
<g id="edge10" class="edge">
<title>gatling.js&#45;&gt;airfighter.js</title>
<path fill="none" stroke="#757575" d="M405.31,-93.42C423.98,-106.19 453.91,-126.68 475.53,-141.47"/>
<polygon fill="#757575" stroke="#757575" points="473.29,-144.86 483.52,-147.62 477.25,-139.08 473.29,-144.86"/>
</g>
<!-- gatling.js&#45;&gt;music.js -->
<g id="edge11" class="edge">
<title>gatling.js&#45;&gt;music.js</title>
<path fill="none" stroke="#757575" d="M421.9,-69.68C433.37,-65.66 446.34,-61.11 458.46,-56.85"/>
<polygon fill="#757575" stroke="#757575" points="459.55,-59.83 467.82,-53.22 457.23,-53.23 459.55,-59.83"/>
</g>
<!-- step.js&#45;&gt;airfighter.js -->
<g id="edge12" class="edge">
<title>step.js&#45;&gt;airfighter.js</title>
<path fill="none" stroke="#757575" d="M311.27,-126.43C323.2,-129.53 337.21,-132.96 350,-135.58 382.61,-142.24 419.48,-148.1 448.74,-152.37"/>
<polygon fill="#757575" stroke="#757575" points="448.16,-155.96 458.55,-153.92 449.15,-149.03 448.16,-155.96"/>
</g>
<!-- step.js&#45;&gt;music.js -->
<g id="edge15" class="edge">
<title>step.js&#45;&gt;music.js</title>
<path fill="none" stroke="#757575" d="M311.26,-119.51C340.66,-119.48 387.12,-116.63 424,-101.58 446.74,-92.29 468.54,-74.51 483.29,-60.7"/>
<polygon fill="#757575" stroke="#757575" points="485.36,-63.6 490.1,-54.13 480.49,-58.57 485.36,-63.6"/>
</g>
<!-- step.js&#45;&gt;enemy.js -->
<g id="edge13" class="edge">
<title>step.js&#45;&gt;enemy.js</title>
<path fill="none" stroke="#757575" d="M302.59,-130.46C306.47,-133 310.44,-135.77 314,-138.58 331.51,-152.41 332.91,-159.23 350,-173.58 353.07,-176.16 356.39,-178.76 359.71,-181.28"/>
<polygon fill="#757575" stroke="#757575" points="357.26,-184.56 367.4,-187.64 361.4,-178.91 357.26,-184.56"/>
</g>
<!-- step.js&#45;&gt;gatling.js -->
<g id="edge14" class="edge">
<title>step.js&#45;&gt;gatling.js</title>
<path fill="none" stroke="#757575" d="M311.33,-108.27C320.93,-104.84 331.85,-100.93 342.32,-97.19"/>
<polygon fill="#757575" stroke="#757575" points="343.33,-100.19 351.57,-93.53 340.97,-93.6 343.33,-100.19"/>
</g>
<!-- step.js&#45;&gt;rocket.js -->
<g id="edge16" class="edge">
<title>step.js&#45;&gt;rocket.js</title>
<path fill="none" stroke="#757575" d="M294.81,-106.65C307.89,-94.31 329.46,-74.88 350,-60.58 351.28,-59.68 352.61,-58.8 353.96,-57.92"/>
<polygon fill="#757575" stroke="#757575" points="355.37,-60.55 362.11,-52.38 351.74,-54.57 355.37,-60.55"/>
</g>
</g>
</svg>
